<svg width="59" height="59" viewBox="0 0 59 59" fill="none" xmlns="http://www.w3.org/2000/svg">
<path fill-rule="evenodd" clip-rule="evenodd" d="M29.496 58.6993C45.6365 58.6993 58.7209 45.6248 58.7209 29.4965C58.7209 13.3682 45.6365 0.293701 29.496 0.293701C13.3556 0.293701 0.27124 13.3682 0.27124 29.4965C0.27124 45.6248 13.3556 58.6993 29.496 58.6993ZM29.4961 15.9161C30.6007 15.9161 31.4961 16.8115 31.4961 17.9161V28H41.5891C42.6937 28 43.5891 28.8954 43.5891 30C43.5891 31.1046 42.6937 32 41.5891 32H31.4961V42.0839C31.4961 43.1885 30.6007 44.0839 29.4961 44.0839C28.3915 44.0839 27.4961 43.1885 27.4961 42.0839V32H17.4031C16.2985 32 15.4031 31.1046 15.4031 30C15.4031 28.8954 16.2985 28 17.4031 28H27.4961V17.9161C27.4961 16.8115 28.3915 15.9161 29.4961 15.9161Z" fill="white"/>
</svg>
