<svg x="0" y="0" width="250px" height="55px" overflow="inherit" viewBox="0, 0, 250, 55" preserveAspectRatio="xMidYMid" font-size="0" xml="http://www.w3.org/XML/1998/namespace" xmlns="http://www.w3.org/2000/svg" xmlns:xlink="http://www.w3.org/1999/xlink" xmlns:xml="http://www.w3.org/XML/1998/namespace" version="1.1"><title xml:space="default">logo-raif (1)</title><desc xml:space="default">Created with Sketch.</desc><defs xml:space="default" /><g id="Page-1" xml:space="default" fill-rule="evenodd" style="fill:none;"><g transform="translate(0, -23)" id="Artboard" xml:space="default"><g transform="translate(0, 23)" id="logo-raif-(1)" xml:space="default"><path d="M1.791277 52.33645 L52.33645 52.33645 L52.33645 1.791277 L1.791277 1.791277 L1.791277 52.33645 z M0 54.12773 L54.12773 54.12773 L54.12773 0 L0 0 L0 54.12773 z" id="Fill-6" xml:space="default" style="fill:black;" /><path d="M234.5794 21.65109 L239.7196 21.65109 L239.7196 15.73209 L244.4704 15.73209 L244.4704 21.65109 L249.6106 21.65109 L249.6106 6.931464 L244.5483 6.931464 L244.5483 12.14953 L239.7975 12.14953 L239.7975 6.931464 L234.6573 6.931464 L234.6573 21.65109 L234.5794 21.65109 z M203.271 11.13707 C204.3614 10.43614 205.8411 9.890965 207.0872 9.890965 C207.7103 9.890965 209.19 9.968847 209.19 11.21495 C209.19 12.46106 207.9439 12.46106 207.4766 12.46106 L204.9065 12.46106 L204.9065 15.65421 L207.1651 15.65421 C207.9439 15.65421 209.2679 15.73209 209.2679 16.90031 C209.2679 17.3676 208.9564 18.30218 207.1651 18.30218 C205.3738 18.30218 204.2056 17.83489 202.7259 16.90031 L201.4019 20.40498 C204.2056 22.0405 206.7757 22.19626 208.0218 22.19626 C213.9408 22.19626 214.6417 18.76947 214.6417 17.67913 C214.6417 16.1215 213.7072 14.56386 211.6822 14.01869 C213.0062 13.47352 213.785 12.14953 213.785 10.5919 C213.785 7.165109 210.1246 6.464174 207.9439 6.464174 C205.8411 6.464174 203.5047 7.087227 201.947 7.943925 L203.271 11.13707 z M192.134 5.062305 C194.4704 5.062305 196.8847 4.127726 197.9751 1.635514 L194.6262 0.3894081 C194.2368 2.102804 192.757 2.180685 192.134 2.180685 C191.5109 2.180685 190.109 2.102804 189.7196 0.3894081 L186.3707 1.635514 C187.3832 4.127726 189.7975 5.062305 192.134 5.062305 z M184.0343 6.931464 L184.0343 21.65109 L189.0187 21.65109 L194.1589 13.5514 L194.1589 21.65109 L199.2991 21.65109 L199.2991 6.931464 L194.3146 6.931464 L189.2523 14.87539 L189.2523 6.931464 L184.0343 6.931464 z M149.7664 18.53583 L149.7664 10.35826 C148.053 10.35826 146.2617 11.60436 146.2617 14.4081 C146.2617 17.21184 148.053 18.53583 149.7664 18.53583 z M154.2835 10.35826 L154.2835 18.53583 C155.9969 18.53583 157.7882 17.28972 157.7882 14.48598 C157.7882 11.60436 156.0748 10.28037 154.2835 10.35826 z M149.4548 28.11526 L149.4548 21.96262 C146.4174 21.96262 141.2773 20.71651 141.2773 14.33022 C141.2773 8.021807 146.3396 6.775701 149.4548 6.775701 L149.4548 0.3115265 L154.595 0.3115265 L154.595 6.697819 C157.7103 6.697819 162.7726 7.943925 162.7726 14.25234 C162.7726 20.63863 157.7103 21.88474 154.595 21.88474 L154.595 28.03738 L149.4548 28.03738 L149.4548 28.11526 z M126.5576 18.53583 L126.5576 10.35826 C124.8442 10.35826 123.053 11.60436 123.053 14.4081 C123.053 17.21184 124.7664 18.53583 126.5576 18.53583 z M131.0748 10.35826 L131.0748 18.53583 C132.7882 18.53583 134.5794 17.28972 134.5794 14.48598 C134.5794 11.60436 132.7882 10.28037 131.0748 10.35826 z M126.2461 28.11526 L126.2461 21.96262 C123.2087 21.96262 118.0685 20.71651 118.0685 14.33022 C118.0685 8.021807 123.1308 6.775701 126.2461 6.775701 L126.2461 0.3115265 L131.3863 0.3115265 L131.3863 6.697819 C134.5016 6.697819 139.5639 7.943925 139.5639 14.25234 C139.5639 20.63863 134.5016 21.88474 131.3863 21.88474 L131.3863 28.03738 L126.2461 28.03738 L126.2461 28.11526 z M108.3333 5.062305 C110.6698 5.062305 113.0841 4.127726 114.1745 1.635514 L110.8255 0.3894081 C110.4361 2.102804 108.9564 2.180685 108.4112 2.180685 C107.7882 2.180685 106.3863 2.102804 105.919 0.3894081 L102.5701 1.635514 C103.5826 4.127726 105.9969 5.062305 108.3333 5.062305 z M100.3115 6.931464 L100.3115 21.65109 L105.296 21.65109 L110.4361 13.5514 L110.4361 21.65109 L115.5763 21.65109 L115.5763 6.931464 L110.5919 6.931464 L105.4517 14.79751 L105.4517 6.931464 L100.3115 6.931464 z M68.76947 4.672897 L68.76947 9.579439 L70.63863 9.579439 C73.20872 9.579439 73.44237 8.021807 73.44237 7.087227 C73.44237 5.996885 73.05296 4.672897 70.63863 4.672897 L69.00311 4.672897 L68.76947 4.672897 z M63.16199 21.65109 L63.16199 0 L71.88474 0 C77.80374 0 79.43925 4.205607 79.43925 7.165109 C79.43925 10.12461 77.72585 14.33022 71.88474 14.33022 L68.69159 14.33022 L68.69159 21.72897 L63.16199 21.72897 L63.16199 21.65109 z M180.8411 6.931464 L180.8411 21.65109 L175.7009 21.65109 L175.7009 20.01558 L175.623 20.01558 C174.6885 21.49533 172.8972 22.11838 171.2617 22.11838 C166.9782 22.11838 163.9408 18.45794 163.9408 14.25234 C163.9408 10.04673 166.9003 6.386293 171.1838 6.386293 C172.8193 6.386293 174.6106 7.009346 175.7009 8.333333 L175.7009 6.931464 L180.8411 6.931464 z M172.5078 10.98131 C170.405 10.98131 169.1589 12.53894 169.1589 14.33022 C169.1589 16.19938 170.405 17.60125 172.5078 17.60125 C174.6106 17.60125 175.8567 16.19938 175.8567 14.33022 C175.8567 12.53894 174.6106 10.98131 172.5078 10.98131 z M97.11838 6.931464 L97.11838 21.65109 L91.90031 21.65109 L91.90031 20.01558 C90.96573 21.49533 89.17445 22.11838 87.53894 22.11838 C83.25546 22.11838 80.21807 18.45794 80.21807 14.25234 C80.21807 10.04673 83.17757 6.386293 87.46106 6.386293 C89.09657 6.386293 90.88785 7.009346 91.9782 8.333333 L91.9782 6.931464 L97.11838 6.931464 z M88.78505 10.98131 C86.68224 10.98131 85.43613 12.53894 85.43613 14.33022 C85.43613 16.19938 86.68224 17.60125 88.78505 17.60125 C90.88785 17.60125 92.13396 16.19938 92.13396 14.33022 C92.13396 12.53894 90.88785 10.98131 88.78505 10.98131 z M232.0872 14.95327 L232.0872 15.49844 L221.2617 15.49844 C221.2617 17.60125 222.352 18.76947 224.4548 18.76947 C225.5452 18.76947 226.324 18.38006 226.947 17.44548 L231.9315 17.44548 C231.0748 20.95016 227.8816 22.50779 224.5327 22.50779 C219.7041 22.50779 216.1215 19.78193 216.1215 14.64174 C216.1215 9.735203 219.4704 6.775701 224.1433 6.775701 C229.1277 6.775701 232.0872 9.890965 232.0872 14.95327 z M221.3396 12.46106 L227.3365 12.46106 C227.1028 11.05919 225.7788 10.12461 224.4548 10.12461 C222.8972 10.12461 221.6511 10.98131 221.3396 12.46106 z M71.41744 45.17134 L69.85981 45.17134 L69.08099 49.76635 L70.56075 49.76635 C73.98754 49.76635 74.6106 48.83178 74.84424 47.58567 C75.07788 46.1838 74.76636 45.17134 71.41744 45.17134 z M80.76324 47.66355 C80.52959 49.1433 80.0623 50.62305 78.97196 51.63551 C76.63551 53.97196 73.13084 54.12773 70.95016 54.20561 L62.3053 54.20561 L65.96573 32.55452 L80.76324 32.55452 L80.0623 36.83801 L71.10592 36.83801 L70.40498 41.19938 L72.97507 41.19938 C74.92212 41.19938 77.33645 41.43302 79.04984 42.91277 C80.37383 43.92523 81.07477 45.56075 80.76324 47.66355 z M96.33956 50.38941 L88.16199 50.38941 L85.98131 54.12773 L79.6729 54.12773 L92.05608 32.47663 L98.52025 32.47663 L103.5047 54.12773 L97.19626 54.12773 L96.33956 50.38941 z M95.40498 46.10592 L94.15888 39.17445 L94.08099 39.17445 L90.49844 46.10592 L95.40498 46.10592 z M136.5265 32.47663 L130.5296 32.47663 L126.947 54.12773 L132.866 54.12773 L134.4237 44.70405 L134.5016 44.70405 L140.5763 54.12773 L148.2866 54.12773 L140.2648 42.75701 L151.0125 32.47663 L143.6916 32.47663 L135.0467 41.43302 L134.9688 41.43302 L136.5265 32.47663 z M113.6293 32.47663 L112.3053 40.57632 L120.1713 40.57632 L121.4953 32.47663 L127.2586 32.47663 L123.7539 54.12773 L117.9907 54.12773 L119.4704 44.78193 L111.6044 44.78193 L110.1246 54.12773 L104.3614 54.12773 L107.866 32.47663 L113.6293 32.47663 z" id="Fill-1" xml:space="default" style="fill:black;" /><polygon points="1.791277,52.33645 52.33645,52.33645 52.33645,1.791277 1.791277,1.791277" id="Fill-4" xml:space="default" style="fill:#FFED00;" /><path d="M27.1028 33.25545 L11.52648 48.83178 L5.373832 42.67913 L20.95016 27.1028 L17.67913 23.83178 L17.67913 17.44548 L15.42056 15.18692 L15.42056 20.79439 L13.47352 22.74143 L5.529595 14.79751 L3.582555 16.74455 C3.582555 15.2648 3.894081 10.98131 7.476635 7.476635 C11.37072 3.738318 15.57632 5.451714 17.05607 6.853582 L24.92212 14.79751 L22.8972 16.82243 L27.02492 20.95016 L31.15265 16.82243 L29.20561 14.79751 L37.07165 6.853582 C38.47352 5.373832 42.75701 3.738318 46.65109 7.476635 C50.23365 11.05919 50.54517 15.2648 50.54517 16.74455 L48.59813 14.79751 L40.73209 22.74143 L38.78505 20.79439 L38.78505 15.18692 L36.52648 17.44548 L36.52648 23.83178 L33.25545 27.1028 L48.83178 42.67913 L42.67913 48.83178 L27.1028 33.25545 z" id="Fill-7" xml:space="default" style="fill:black;" /></g></g></g></svg>