<?xml version="1.0" encoding="utf-8"?>
<!-- Generator: Adobe Illustrator 23.0.1, SVG Export Plug-In . SVG Version: 6.00 Build 0)  -->
<svg version="1.1" xmlns="http://www.w3.org/2000/svg" xmlns:xlink="http://www.w3.org/1999/xlink" x="0px" y="0px"
	 viewBox="0 0 512 512" style="enable-background:new 0 0 512 512;" xml:space="preserve">
<style type="text/css">
	.st0{fill:#B0B0B4;}
	.st1{fill:#FFFFFF;}
	.st2{fill:#990032;}
	.st3{fill:#4B4B4D;}
	.st4{fill:#F4F4F4;}
</style>
<g id="area">
</g>
<g id="icon">
	<g>
		<circle class="st1" cx="256" cy="256" r="256"/>
		<g>
			<g>
				<g>
					<g>
						<g>
							<g>
								<polygon class="st2" points="165.2,246.3 189,246.3 189,153 219.2,153 219.2,130.7 165.2,130.7 								"/>
								<path class="st2" d="M80.6,130.7v115.7h23.3v-29.4h30.3l17.5-16.7v-52.8l-16.7-16.7H80.6z M127.8,194.6h-24V153h24V194.6z"
									/>
								<polygon class="st2" points="250.3,153 284,153 284,130.7 243.2,130.7 226.5,147.4 226.5,229.6 243.2,246.3 284.2,246.3 
									284.2,224 250.3,224 								"/>
							</g>
						</g>
					</g>
				</g>
				<g>
					<path class="st3" d="M104.4,306.3V288h43.2v-22.3l-67,0v115.7h54.9l16.7-16.7V323l-17.5-16.7H104.4z M128.4,359h-24v-30.4h24
						V359z"/>
					<path class="st3" d="M183.6,265.7l-23.9,115.7h23.4l5.4-27.6h30.3l5.4,27.6h23.9l-23.9-115.7H183.6z M192.7,332l8.6-44.1h4.5
						l8.6,44.1H192.7z"/>
					<polygon class="st3" points="311.5,312.9 282.4,312.9 282.4,265.7 258.7,265.7 258.7,381.3 282.4,381.3 282.4,335.3 
						311.5,335.3 311.5,381.3 335.3,381.3 335.3,265.7 311.5,265.7 					"/>
					<polygon class="st3" points="410.2,322.2 430.6,265.7 406.2,265.7 389.8,311.4 376.6,311.4 376.6,265.7 352.8,265.7 
						352.8,381.3 376.6,381.3 376.6,333.8 389.4,333.8 406.2,381.3 431.4,381.3 					"/>
				</g>
			</g>
		</g>
	</g>
</g>
<g id="guides">
</g>
</svg>
