<svg width="40" height="40" viewBox="0 0 40 40" fill="none" xmlns="http://www.w3.org/2000/svg">
<path d="M23.3878 3.35602V12.1715H19.9696C15.651 12.1715 12.1735 15.6492 12.1735 19.9658C12.1735 24.2838 15.651 27.7616 19.9696 27.7616H23.3878V36.577C27.2213 35.8467 30.6809 33.786 33.167 30.7522C35.6531 27.7184 37.009 23.9025 36.9999 19.9658C36.9999 11.7513 31.1825 4.91546 23.3878 3.35602Z" fill="#003791"/>
<path d="M19.971 30.523C14.1536 30.523 9.41583 25.7863 9.41583 19.9701C9.41583 14.1539 14.1536 9.41719 19.971 9.41719H20.6301V3H19.971C10.6154 3 3 10.6149 3 19.9701C3 29.3837 10.6154 37 19.971 37H20.6301V30.523H19.971Z" fill="#FF4B5F"/>
</svg>
