<svg width="110" height="40" viewBox="0 0 110 40" fill="none" xmlns="http://www.w3.org/2000/svg">
<path fill-rule="evenodd" clip-rule="evenodd" d="M5.6687 5.31568H31.8743L33.7653 0.121521H7.55974L5.6687 5.31568ZM30.9277 7.91339H4.72209L2.83105 13.1075H29.0366L30.9277 7.91339ZM28.0954 15.7052H1.89104L0 20.8994H26.2044L28.0954 15.7052Z" fill="#1C94C6"/>
<path fill-rule="evenodd" clip-rule="evenodd" d="M70.1512 13.1441V39.0807H76.4059V13.1441H84.3865L86.1655 7.91339H61.1455V13.1441H70.1512ZM55.214 22.5804V22.4731C56.3465 21.9871 57.1015 21.3406 57.6406 20.8015C58.8805 19.6147 59.6355 17.8357 59.6355 15.7324C59.6355 11.7957 57.2631 9.31604 53.6509 8.34516C52.4099 8.02193 51.0084 7.9134 48.9593 7.9134H38.9839V39.0807H50.2534C52.4642 39.0807 53.6509 38.9734 54.7823 38.649C58.503 37.6793 60.768 34.605 60.768 30.3451C60.768 27.7569 59.9599 25.7621 58.1255 24.2521C57.5333 23.7672 56.4008 23.0122 55.214 22.5804ZM45.2387 33.9586V25.7621H49.337C51.2776 25.7621 52.4101 26.0311 53.3267 27.1636C53.8658 27.8655 54.1359 28.8352 54.1359 29.8604C54.1359 31.2076 53.7584 32.2327 52.8961 33.042C52.0326 33.8501 50.847 33.9586 49.5529 33.9586H45.2387ZM45.1845 20.3698H48.6894C49.7688 20.3698 50.3079 20.3698 50.847 20.2082C52.3028 19.7764 53.2194 18.4823 53.2194 16.7033C53.2194 14.5999 52.2485 13.6833 50.847 13.2516C50.2537 13.0899 49.6603 13.0369 48.4735 13.0369H45.1845V20.3698ZM88.1074 39.0807V7.91339H108.381L106.603 13.1441H94.3078V20.0465H99.3227C103.367 20.0465 105.47 21.0162 106.926 22.2572C108.058 23.2281 110 25.3846 110 29.6444C110 33.85 108.004 36.1693 106.332 37.3548C104.392 38.7032 102.343 39.0807 98.1902 39.0807H88.1074ZM98.9994 33.8501H94.3078V25.1688H98.9452C100.401 25.1688 101.264 25.4389 101.911 25.9238C102.989 26.733 103.528 27.8655 103.528 29.4829C103.528 31.1002 102.989 31.9626 102.612 32.4486C101.857 33.4195 100.778 33.8501 98.9994 33.8501Z" fill="#26335B"/>
</svg>
