<svg x="0" y="0" width="250px" height="52px" overflow="inherit" viewBox="0, 0, 250, 52" preserveAspectRatio="xMidYMid" font-size="0" xml="http://www.w3.org/XML/1998/namespace" xmlns="http://www.w3.org/2000/svg" xmlns:xlink="http://www.w3.org/1999/xlink" xmlns:xml="http://www.w3.org/XML/1998/namespace" version="1.1"><title xml:space="default">logo SVG</title><desc xml:space="default">Created with Sketch.</desc><g id="Page-1" xml:space="default" fill-rule="evenodd" style="fill:none;"><g transform="translate(0, -20)" id="Artboard" xml:space="default" style="fill:#00377B;"><g transform="translate(0, 20)" id="logo-SVG" xml:space="default"><path d="M108.38 25.68 L102.37 25.68 L96.36 39.86 L90.45 25.68 L87.33 25.68 L84.27 25.68 L78.47 39.43 L77.07 42.71 L78.47 42.71 L82.93 42.71 L84.27 39.17 L87.33 39.17 L90.39 39.17 L91.73 42.71 L101.02 42.71 L105.42 30.41 L109.71 42.71 L114.87 42.71 L115.62 42.71 L114.87 40.99 L108.38 25.68 z M87.33 35.3 L85.61 35.3 L87.33 30.47 L87.33 30.52 L89.1 35.3 L87.33 35.3 z" id="Shape" xml:space="default" /><path d="M114.88 30.36 C114.45 31.54 114.18 32.88 114.18 34.44 C114.18 35.78 114.45 37.02 114.88 38.15 C116.06 40.94 118.59 42.71 121.59 42.71 L129.16 42.71 L129.16 38.47 L124.27 38.47 C121.32 38.47 119.7 37.83 119.7 34.34 C119.7 30.8 121.31 29.94 124.27 29.94 L129.16 29.94 L129.16 25.7 L121.64 25.7 C118.64 25.68 116.06 27.35 114.88 30.36 z" id="Path" xml:space="default" /><rect x="183.34" y="21.23" width="1.18" height="25.67" id="Rectangle" xml:space="default" /><path d="M78.47 36.05 C79.87 34.44 79.87 32.24 79.87 31.54 C79.87 30.84 79.87 28.8 78.47 27.3 C77.61 26.39 76.27 25.69 74.01 25.69 L71.22 25.69 L62.63 25.69 L62.63 42.71 L68.11 42.71 L68.11 37.77 L71.22 37.77 L74.01 37.77 C76.27 37.77 77.61 37.01 78.47 36.05 z M72.08 33.58 L71.22 33.58 L68.11 33.58 L68.11 29.87 L71.22 29.87 L72.13 29.87 C72.72 29.87 74.33005 29.87 74.33005 31.64 C74.34 33.58 72.72 33.58 72.08 33.58 z" id="Shape#1" xml:space="default" /><polygon points="135.82,37.39 135.82,25.68 130.29,25.68 130.29,42.71 136.89,42.71 143.39,30.68 143.39,42.71 148.92,42.71 148.92,25.68 142.16,25.68" id="Path#1" xml:space="default" /><path d="M161.22 32.13 L158.54 32.13 L155.53 32.13 L155.53 29.93 L158.54 29.93 L166.22 29.93 L166.22 25.69 L158.54 25.69 L150.05 25.69 L150.05 42.71 L158.54 42.71 L161.28 42.71 C167.03 42.71 167.03 39.22 167.03 37.29 C167.02 35.46 167.02 32.13 161.22 32.13 z M160.25 38.73 L158.53 38.73 L155.52 38.73 L155.52 36.1 L158.53 36.1 L160.25 36.1 C161.49 36.1 161.49 36.96 161.49 37.34 C161.49 37.77 161.49 38.73 160.25 38.73 z" id="Shape#2" xml:space="default" /><path d="M217.39 27.78 L215.99 27.78 L210.89 40.45 L213.68 40.45 L214.76 37.6 L217.39 37.6 L220.02 37.6 L221.04 40.45 L223.99 40.45 L218.89 27.78 L217.39 27.78 z M217.39 35.51 L215.56 35.51 L217.33 30.3 L217.38 30.41 L219.21 35.51 L217.39 35.51 z" id="Shape#3" xml:space="default" /><path d="M205.41 32.67 L205.3 32.67 L203.31 32.67 L203.31 29.99 L205.3 29.99 L208.9 29.99 L208.9 27.79 L205.3 27.79 L200.79 27.79 L200.79 40.46 L205.3 40.46 L205.41 40.46 C209.06 40.46 209.92 38.1 209.92 36.75 C209.92 35.14 209.17 32.67 205.41 32.67 z M205.31 38.46 C205.2 38.46 205.04 38.46 204.93 38.46 L203.32 38.46 L203.32 34.65 L204.93 34.65 C205.04 34.65 205.2 34.65 205.31 34.65 C206.49 34.76 207.24 35.4 207.24 36.58 C207.24 37.76 206.49 38.36 205.31 38.46 z" id="Shape#4" xml:space="default" /><path d="M17.36 23.48 L16.45 23.48 C15.91 37.87 14.57 46.09 12.05 50.38 C13.71 50.92 15.54 51.19 17.37 51.19 C19.2 51.19 20.97 50.92 22.63 50.38 C20.16 46.08 18.82 37.87 18.28 23.48 L17.36 23.48 z" id="Path#2" xml:space="default" /><polygon points="244.02,33.52 249.34,27.78 246.28,27.78 241.66,33.2 241.61,33.2 241.61,27.78 239.03,27.78 239.03,40.45 241.61,40.45 241.61,34.17 241.66,34.17 246.39,40.45 249.66,40.45" id="Path#3" xml:space="default" /><path d="M21.07 17.58 C20.69 12.1 20.69 9.9 20.64 7.16 L19.3 7.16 C19.3 7.21 19.35 14.78 19.41 17.26 C18.93 17.21 18.44 17.21 17.96 17.15 C17.96 12.8 17.96 4.8 17.96 0.13 L17.37 0.13 L16.78 0.13 C16.78 4.8 16.78 12.8 16.78 17.15 C16.3 17.2 15.81 17.2 15.33 17.26 C15.38 14.79 15.44 7.22 15.44 7.16 L14.1 7.16 C14.05 9.9 14.05 12.1 13.67 17.58 C6.03 19.24 0.34 26.06 0.34 34.17 C0.34 40.13 3.4 45.34 8.02 48.4 C14.2 42.23 15.16 24.77 15.16 23.59 C14.25 23.64 13.07 23.91 12.9 23.97 C11.51 32.13 8.02 39 4.04 42.71 C2.54 40.51 1.73 38.09 1.73 35.73 C1.73 28.21 8.93 22.41 17.36 22.41 C25.79 22.41 32.93 28.21 32.93 35.73 C32.93 38.09 32.18 40.51 30.68 42.71 C26.71 39 23.16 32.13 21.82 23.97 C21.66 23.92 20.48 23.65 19.56 23.59 C19.56 24.77 20.53 42.22 26.7 48.4 C31.32 45.34 34.38 40.13 34.38 34.17 C34.38 26.06 28.69 19.24 21.07 17.58 z" id="Path#4" xml:space="default" /><polygon points="52.59,32.93 49.04,25.68 42.87,25.68 49.74,37.87 47,42.71 52.96,42.71 62.15,25.68 56.19,25.68" id="Path#5" xml:space="default" /><polygon points="233.34,32.88 228.18,32.88 228.18,27.78 225.6,27.78 225.6,40.45 228.18,40.45 228.18,34.97 233.34,34.97 233.34,40.45 235.91,40.45 235.91,27.78 233.34,27.78" id="Path#6" xml:space="default" /></g></g></g></svg>