<svg width="40" height="40" viewBox="0 0 40 40" fill="none" xmlns="http://www.w3.org/2000/svg">
<path d="M37 22.35C37 31.4627 29.3888 38.85 20 38.85C10.6112 38.85 3 31.4627 3 22.35C3 13.2373 10.6112 5.84998 20 5.84998C29.3888 5.84998 37 13.2373 37 22.35Z" fill="#2F7048"/>
<path fill-rule="evenodd" clip-rule="evenodd" d="M17.3177 4.88072L16.8033 5.36721V1.11115H16.216V5.92164L15.7026 6.40721V1.11115H15.12V6.95983L14.6038 7.44813V1.11115H14.0212V10.3861L17.9003 6.69168V1.11115H17.3177V4.88072ZM12.3945 6.96077L12.9098 7.44906V1.11117H13.4924V10.3861L9.61141 6.6917V1.11117H10.195V4.87984L10.7112 5.36723V1.11117H11.2966V5.92166L11.8072 6.40724V1.11117H12.3945V6.96077ZM17.9004 9.78557L14.0203 13.48V11.0946L17.9004 7.42019V9.78557ZM17.9004 19.1381L14.0203 22.8325V20.3068L17.9004 16.6323V19.1381ZM14.0203 16.5742L17.9004 12.8798V10.5154L14.0203 14.1898V16.5742ZM14.0203 19.6684L17.9004 15.9749V13.6095L14.0203 17.284V19.6684ZM13.4931 22.8334L9.61112 19.139V16.6332L13.4931 20.3068V22.8334ZM13.4931 13.4799L9.61112 9.78551V7.42012L13.4931 11.0946V13.4799ZM9.61112 12.8806L13.4931 16.575V14.1897L9.61112 10.5152V12.8806ZM13.4931 19.6688L9.61112 15.9753V13.6099L13.4931 17.2844V19.6688ZM32.7331 17.9249H23.704H23.2953C23.4926 17.6232 23.6076 17.269 23.6076 16.8839C23.6076 15.7968 22.6958 14.9145 21.5717 14.9145C20.4505 14.9145 19.5415 15.7968 19.5415 16.8839C19.5415 17.3125 19.6827 17.7038 19.9211 18.0263C19.7453 18.1396 19.6256 18.3325 19.6256 18.5536C19.6256 18.7737 19.7453 18.9667 19.9211 19.079C19.6827 19.4015 19.5415 19.7938 19.5415 20.2214C19.5415 21.3094 20.4505 22.1918 21.5717 22.1918C22.6958 22.1918 23.6076 21.3094 23.6076 20.2214C23.6076 19.8391 23.4926 19.4831 23.2953 19.1814H25.0029H30.3166V19.5936H29.6237V20.1734H30.3166V20.7758H29.6237V21.882H30.3166V21.3819H31.3435V21.882H32.0355V20.7758H31.3435V20.1734H32.0355V19.5936H31.3435V19.1814H32.7331C33.0015 19.1814 33.2222 18.964 33.2222 18.6985V18.4068C33.2222 18.1432 33.0015 17.9249 32.7331 17.9249ZM21.5717 21.236C22.1516 21.236 22.6229 20.7821 22.6229 20.2214C22.6229 19.8064 22.13 18.8199 22.13 18.8199V18.2854C22.13 18.2854 22.6229 17.2988 22.6229 16.8839C22.6229 16.324 22.1516 15.8693 21.5717 15.8693C20.9966 15.8693 20.5253 16.324 20.5253 16.8839C20.5253 17.0905 20.5879 17.2816 20.6983 17.4411L20.9901 17.9203C20.8105 18.0743 20.6936 18.3008 20.6936 18.5535C20.6936 18.8054 20.8105 19.031 20.9901 19.185L20.6983 19.6633C20.5879 19.8237 20.5253 20.0166 20.5253 20.2214C20.5253 20.7821 20.9966 21.236 21.5717 21.236Z" fill="#FFCB05"/>
<path fill-rule="evenodd" clip-rule="evenodd" d="M19.1878 5.852C19.455 5.84047 19.7259 5.83337 20.0014 5.83337C29.3877 5.83337 37 13.2344 37 22.362C37 31.4888 29.3877 38.8889 20.0014 38.8889C10.6114 38.8889 3.00001 31.4888 3.00001 22.362C3.00001 16.9642 5.6624 12.1694 9.7814 9.15259V10.5909C6.34099 13.4162 4.15563 17.6408 4.15563 22.362C4.15563 30.8689 11.249 37.7654 20.0014 37.7654C28.7492 37.7654 35.8444 30.8689 35.8444 22.362C35.8444 13.8543 28.7492 6.95781 20.0014 6.95781C19.7259 6.95781 19.455 6.9649 19.1878 6.9782V5.852ZM7.00053 16.6696V19.0718C7.00053 21.3695 8.02937 22.8451 8.62223 23.4215C8.87215 23.66 10.7821 25.4856 11.8397 26.4965L12.5387 27.1646C13.6342 28.2057 13.8248 28.5497 14.0683 29.1412V26.4791C14.0683 24.3034 13.0287 23.3489 12.366 22.7405C12.3061 22.6856 12.2494 22.6334 12.1967 22.5835C11.6209 22.0371 11.119 21.5636 10.6736 21.1434L10.6729 21.1428L10.6715 21.1414L10.6711 21.1411L10.6711 21.141L10.671 21.141L10.6708 21.1408L10.6707 21.1407C9.96954 20.4792 9.40844 19.9499 8.91957 19.4762C7.40094 17.9988 7.00053 16.6696 7.00053 16.6696ZM10.5868 27.0083L10.5867 27.0083L10.5866 27.0082L10.5861 27.0077L10.5859 27.0075L10.5855 27.0071C9.92377 26.3822 9.38816 25.8763 8.9193 25.4225C7.40158 23.946 7.00026 22.9449 7.00026 22.9449V25.019C7.00026 27.3158 8.07288 28.7834 8.61922 29.3829C8.96581 29.711 12.4947 33.0674 12.5385 33.1118C13.6144 34.1325 13.8174 34.6281 14.0542 35.2058L14.0671 35.2374V32.4236C14.0671 30.2473 13.0268 29.2945 12.3643 28.6877C12.305 28.6334 12.2487 28.5819 12.1964 28.5324C11.5832 27.9495 11.0536 27.4493 10.5868 27.0083ZM32.026 30.9902C32.3094 30.6426 32.5762 30.2807 32.8273 29.911V27.6922H32.026V30.9902ZM34.4942 25.9196C34.4103 26.2433 34.3136 26.5661 34.2069 26.8844C33.7937 26.4818 33.0604 26.4898 32.401 26.5093H32.0261V25.9196H34.4942ZM17.1145 32.4275H17.8299V25.8387H17.1145V32.4275ZM17.7834 24.5661H15.5734V36.2441C15.3508 36.1758 15.1273 36.104 14.9075 36.0269V23.9303H17.7834C18.9536 23.9303 19.6586 24.3781 19.8958 25.2764C20.153 24.4189 20.8288 23.9871 21.9425 23.9871H22.5974C23.5204 23.9871 24.1507 24.2868 24.4845 24.8792L24.3358 24.1467H34.834C34.8084 24.3453 34.7792 24.5413 34.7482 24.7373H30.2608V32.9258C29.8549 33.3 29.4262 33.6521 28.9774 33.9811V30.214C28.9774 29.509 28.8361 29.0763 28.111 28.828L28.9774 24.771H27.3621L27.1058 29.2031H26.9179L26.6616 24.771H25.1302L25.8927 28.828C25.1996 29.0559 25.0372 29.5543 25.0372 30.214V36.0455C24.7335 36.1501 24.4252 36.2477 24.1142 36.3355V29.9622H22.5974V36.6733C22.3785 36.7114 22.1623 36.7434 21.9425 36.7709V25.9531H22.5974V29.3264H24.1142V26.1694C24.1142 25.601 24.0093 25.2028 23.7867 24.9758C23.4105 24.6115 22.7307 24.6236 22.1838 24.6333H22.1838H22.1837C22.0996 24.6348 22.0187 24.6362 21.9425 24.6362C21.3806 24.6362 20.9802 24.7497 20.7586 24.9758C20.5406 25.2028 20.422 25.601 20.422 26.1694V36.887C20.2816 36.8906 20.1411 36.8924 20.0025 36.8924C19.9503 36.8924 19.9006 36.8915 19.8514 36.8908H19.8512L19.7799 36.8897V33.3222C19.468 33.9997 18.7994 34.3367 17.7834 34.3367V36.7327C17.5581 36.7008 17.3355 36.6618 17.1148 36.6201V33.7017C17.2188 33.7017 17.3355 33.7017 17.4532 33.7115C17.9913 33.7115 18.6343 33.7115 18.9855 33.371C19.2181 33.1564 19.3248 32.7697 19.3248 32.2119V26.0533C19.3248 25.4981 19.2181 25.1106 18.9855 24.8969C18.752 24.6814 18.3534 24.5661 17.7834 24.5661ZM29.5128 29.2244L28.7886 28.5531L29.5128 24.912V29.2244ZM27.4 35.0156C27.1576 35.1397 26.9113 35.2585 26.6612 35.3712V30.0292H27.4V35.0156Z" fill="white"/>
</svg>
