<svg width="40" height="40" viewBox="0 0 40 40" fill="none" xmlns="http://www.w3.org/2000/svg">
<path fill-rule="evenodd" clip-rule="evenodd" d="M23.5139 7.12349C22.9295 5.56041 22.229 4 20.0014 4C17.7746 4 17.0487 5.58527 16.4852 7.12349C16.3349 7.53282 14.7459 11.7887 13.2132 15.8934C11.7747 19.746 10.3859 23.4655 10.2831 23.7466C10.2223 23.909 10.3012 24.1016 10.4736 24.1655C10.6533 24.233 13.6731 25.378 13.8492 25.4464C14.0243 25.5147 14.2049 25.41 14.262 25.2555C14.3201 25.1002 15.5796 21.7166 15.7202 21.3376H24.2925C24.3648 21.5312 24.7252 22.5074 25.0687 23.4376C25.3976 24.3284 25.7109 25.1769 25.7407 25.2555C25.8015 25.4171 25.9893 25.5076 26.1554 25.4464C26.2497 25.412 27.2617 25.0276 28.1553 24.6881C28.8338 24.4304 29.4442 24.1985 29.5327 24.1655C29.7378 24.0892 29.7695 23.8753 29.7205 23.7466C29.5481 23.2815 23.7616 7.78387 23.5139 7.12349ZM19.9832 9.06113L17.085 17.5742H22.9286L20.0195 9.06113H19.9832ZM9.82485 31.7297C9.64518 31.7297 9.5 31.8744 9.5 32.0546V35.6751C9.5 35.8553 9.64518 36 9.82485 36H30.1779C30.3566 36 30.5 35.8553 30.5 35.6751V32.0546C30.5 31.8744 30.3566 31.7297 30.1779 31.7297H9.82485Z" fill="#ED1C24"/>
</svg>
