<svg width="40" height="40" viewBox="0 0 40 40" fill="none" xmlns="http://www.w3.org/2000/svg">
<path fill-rule="evenodd" clip-rule="evenodd" d="M20.655 12.2643L20.6841 12.2226C20.9304 11.8621 20.8275 11.5955 20.6625 11.452L18.0766 9.85745C17.8976 9.73691 17.7795 9.53254 17.7795 9.29893C17.7795 8.93081 17.9991 8.65275 18.4993 8.51435C20.0938 8.07642 25.7026 7.84668 27.6082 7.84668C28.2696 7.84668 29.4083 7.84412 30.4303 7.87182L30.3859 7.82867C27.5917 5.44081 23.9646 4 19.9999 4C11.1627 4 4 11.1622 4 19.9989C4 23.8834 5.38379 27.4441 7.68671 30.2153C9.69638 27.3261 14.6577 20.2007 15.7457 18.7459C16.9987 17.069 19.8551 13.338 20.3388 12.7058L20.3629 12.6771L20.655 12.2643Z" fill="#E2001A"/>
<path fill-rule="evenodd" clip-rule="evenodd" d="M10.2438 32.6829C12.9441 34.7622 16.3274 36 20.0002 36C28.8373 36 36 28.8378 36 20.0011C36 17.3264 35.3449 14.8065 34.1846 12.5913L34.1858 12.5926C34.7368 12.0619 35.3716 11.2216 34.9539 10.1692C34.8244 9.85578 34.2023 9.14472 34.0424 8.97211L34.064 9.03294C34.4537 10.2084 33.6831 10.9447 33.1296 11.4461C32.8262 11.7214 28.7637 15.5515 23.9992 19.7179C19.7996 23.3891 15.1023 27.1251 12.3817 29.1626C8.55408 32.0277 7.80887 32.4441 7.80887 32.4441C7.70857 32.4988 7.53973 32.5456 7.41532 32.5456C7.18173 32.5456 6.97862 32.4402 6.85039 32.2739L6.84641 32.2667L6.83743 32.3898C7.24749 33.0537 7.92795 33.8243 8.32404 33.8243C8.44845 33.8243 8.61729 33.7775 8.71886 33.7239C8.71886 33.7239 9.01846 33.5562 10.2436 32.6817" fill="#E2001A"/>
<path fill-rule="evenodd" clip-rule="evenodd" d="M20.6768 12.2225C20.9231 11.8633 20.8203 11.5954 20.6553 11.4519L18.0693 9.85879C17.8903 9.73824 17.7722 9.53385 17.7722 9.29895C17.7722 8.93209 17.9918 8.65404 18.492 8.51442C20.0878 8.07646 25.6953 7.84795 27.6009 7.84795C28.5009 7.84795 30.2821 7.84075 31.4552 7.91884C32.7704 8.0052 33.7695 8.27689 34.0171 8.9141C34.5033 10.1607 33.6984 10.93 33.1259 11.4479C32.8225 11.7246 28.7599 15.5546 23.9967 19.7197C19.7958 23.3909 15.0985 27.1282 12.3779 29.1656C8.55032 32.0295 7.80637 32.4459 7.80637 32.4459C7.70481 32.5006 7.53597 32.5473 7.41282 32.5473C7.01546 32.5473 6.70444 32.244 6.70444 31.8466C6.70444 31.6955 6.75014 31.5548 6.82884 31.4404C6.82884 31.4404 14.3673 20.5828 15.7384 18.7472C17.1095 16.9116 20.4026 12.617 20.4026 12.617C20.4026 12.617 20.4407 12.5677 20.6768 12.2222" fill="white"/>
</svg>
