<svg width="100" height="100" viewBox="0 0 100 100" fill="none" xmlns="http://www.w3.org/2000/svg">
<path fill-rule="evenodd" clip-rule="evenodd" d="M52.1418 0C78.6519 0.969877 99.8321 22.6397 99.9995 49.2005C100.059 62.3495 94.8702 74.9863 85.5687 84.345C76.2672 93.7037 63.6108 99.0218 50.3698 99.1353C37.1187 99.2165 24.3758 94.0774 14.9341 84.8444C5.49237 75.6114 0.122148 63.0377 0.00052464 49.8794C-0.0584374 37.0823 4.85449 24.7556 13.7168 15.4648C22.5791 6.17395 34.708 0.634732 47.5792 0L47.635 14.0909C38.5014 14.6905 29.9418 18.7267 23.7014 25.3766C17.461 32.0266 14.0096 40.7897 14.0509 49.8794C14.0909 55.1802 15.3247 60.405 17.6616 65.171C19.9986 69.9371 23.3797 74.1236 27.5571 77.4239L41.1191 41.9541L31.701 42.0234C31.701 42.0234 29.8453 41.6493 28.7849 42.5222L26.5525 44.6559C26.5525 44.6559 26.3711 38.8089 26.6362 38.1993C26.9013 37.4511 27.6548 31.5903 30.2779 28.5975C32.9289 25.7156 37.1566 25.3138 37.1566 25.3138L67.2944 25.106L62.9411 29.609L73.4057 76.551C77.3391 73.1914 80.4896 69.0224 82.6387 64.3331C84.7878 59.6438 85.8841 54.5464 85.8515 49.3944C85.7678 40.3449 82.2255 31.6649 75.9413 25.1107C69.6571 18.5564 61.1002 14.6175 52.0022 14.0909L52.1418 0ZM40.6308 29.2487C41.5377 29.2487 42.3051 29.9415 42.3051 30.8005C42.3051 31.6457 41.5656 32.3523 40.6587 32.3523C39.7378 32.3662 38.9844 31.6734 38.9844 30.8282C38.9844 29.9553 39.7099 29.2626 40.6308 29.2487Z" fill="#003082"/>
</svg>
