<svg width="40" height="40" viewBox="0 0 40 40" fill="none" xmlns="http://www.w3.org/2000/svg">
<path fill-rule="evenodd" clip-rule="evenodd" d="M16.2196 24.9785L19.7717 28.648V20.2928C19.7717 18.6705 18.9025 16.6835 17.7998 15.5667L14.2896 11.9387V20.2928C14.2896 21.8986 15.1607 23.9042 16.2196 24.9785ZM28 37L21.8119 30.7469C20.5857 29.5016 18.4568 28.648 16.7011 28.648H11.5454L17.7253 34.8929C18.9923 36.1806 20.8755 37 22.6586 37H28ZM19.7727 12.0858C19.7727 10.2739 20.5807 8.36047 21.8487 7.07379L27.999 0.799927V6.03471C27.999 7.81762 27.1574 9.9797 25.9312 11.227L19.7727 17.5081V12.0858Z" fill="#F16522"/>
</svg>
