<svg width="250" height="58" viewBox="0 0 250 58" fill="none" xmlns="http://www.w3.org/2000/svg">
<g clip-path="url(#clip0)">
<g clip-path="url(#clip1)">
<path fill-rule="evenodd" clip-rule="evenodd" d="M6.62346 28.337V35.5607H9.09277C9.43383 35.5948 9.69304 35.38 9.69304 34.8786V29.0498C9.69304 28.5894 9.54297 28.337 9.09277 28.337H6.62346ZM0 38.088V17.0444L14.8192 17.0137V19.5989L6.63369 19.5614V25.8404H9.95907C11.5655 25.8404 16.2892 25.762 16.2892 28.6917V35.2026C16.3165 37.6276 12.4727 38.0232 10 38.0573L0 38.088Z" fill="#004523"/>
<path fill-rule="evenodd" clip-rule="evenodd" d="M28.581 20.0287L26.7802 29.8104H30.6718L28.9153 20.0287H28.5742H28.581ZM19.0244 38.088L23.8198 17.0137H33.6629L38.4582 38.088H32.0224L30.9992 32.7913H26.4426L25.4671 38.088H19.0244Z" fill="#004523"/>
<path fill-rule="evenodd" clip-rule="evenodd" d="M41.7764 17.0103H48.2907V25.4891L51.2477 25.4482V17.0103H57.7279V38.088H51.2477V28.4427H48.2907V38.0539L41.7764 38.088V17.0103Z" fill="#004523"/>
<path fill-rule="evenodd" clip-rule="evenodd" d="M62.6807 17.0103H69.0415V25.5505L73.2332 17.0103H79.4849L74.6588 26.9045L80.1977 38.088H74.0927L69.0415 28.5143V38.088H62.6807V17.0103Z" fill="#004523"/>
<path fill-rule="evenodd" clip-rule="evenodd" d="M104.024 19.9878L102.224 29.7729H106.159L104.365 19.9878H104.024ZM94.4746 38.088L99.2495 17.0137H109.096L113.871 38.088H107.462L106.494 32.7504H101.886L100.914 38.088H94.4746Z" fill="#004523"/>
<path fill-rule="evenodd" clip-rule="evenodd" d="M144.669 20.0457L142.875 29.7865H146.77L145.014 20.0457H144.673H144.669ZM135.123 38.088L139.915 17.0137H149.762L154.557 38.088H148.121L147.098 32.764H142.545L141.569 38.088H135.123Z" fill="#004523"/>
<path fill-rule="evenodd" clip-rule="evenodd" d="M200.485 20.0457L198.725 29.8036L202.62 29.7729L200.819 20.0457H200.478H200.485ZM190.996 38.088L195.771 17.0137H205.621L210.437 38.088H203.957L202.954 32.7742H198.387L197.364 38.088H190.996Z" fill="#004523"/>
<path fill-rule="evenodd" clip-rule="evenodd" d="M164.56 17.0103V25.4925H167.524V17.0409L174.035 17.0103V38.0539L167.524 38.088V28.4666H164.56V38.088H158.046V17.0409L164.56 17.0103Z" fill="#004523"/>
<path fill-rule="evenodd" clip-rule="evenodd" d="M123.465 28.4837V35.5607H125.713C126.16 35.5607 126.426 35.3049 126.426 34.9502V29.2715C126.426 28.8008 126.235 28.4837 125.682 28.4837H123.465ZM117.149 38.0573V17.0137H126.535C132.824 17.0137 132.633 19.118 132.633 20.0832V24.4352C132.633 25.0832 132.476 27.0137 129.059 26.9011V27.1023C131.832 27.0717 132.749 27.9652 132.749 29.292V35.0901C132.749 36.0826 132.367 38.0096 126.491 38.0437H117.146L117.149 38.0573ZM123.465 19.5478V25.588L125.682 25.6255C126.235 25.6255 126.426 25.4107 126.426 25.1242V20.1174C126.426 19.8002 126.276 19.5478 125.713 19.5478H123.465Z" fill="#004523"/>
<path fill-rule="evenodd" clip-rule="evenodd" d="M179.509 17.0103H192.398V19.5478H185.836V38.088H179.509V17.0819V17.0103Z" fill="#004523"/>
<path fill-rule="evenodd" clip-rule="evenodd" d="M219.594 19.5443V28.1254H222.323C223.411 28.2005 223.411 27.74 223.479 27.2353L223.445 20.3423C223.479 19.5579 222.674 19.5374 222.347 19.5511H219.591L219.594 19.5443ZM213.227 38.064V17.0204H223.117C225.218 17.0204 228.892 17.0204 228.892 20.0524V27.3069C228.892 30.4106 225.45 30.5197 223.117 30.5572H219.604V38.0879L213.24 38.0572L213.227 38.064Z" fill="#004523"/>
<path fill-rule="evenodd" clip-rule="evenodd" d="M243.019 19.558H239.291V33.3677C239.291 34.4284 239.069 35.3186 237.927 35.6733V35.629H242.985V19.5648L243.019 19.558ZM229.458 40.6358V35.7108L229.905 35.6733C232.633 35.6733 232.974 34.2511 232.974 33.5041V17.0137H248.39V35.629H250V40.6187H243.714V38.0505H235.775V40.6187L229.458 40.6358Z" fill="#004523"/>
</g>
</g>
<defs>
<clipPath id="clip0">
<rect width="250" height="58" fill="white"/>
</clipPath>
<clipPath id="clip1">
<rect width="250" height="23.6289" fill="white" transform="translate(0 17)"/>
</clipPath>
</defs>
</svg>
