<?xml version="1.0" encoding="utf-8"?>
<!-- Generator: Adobe Illustrator 24.0.1, SVG Export Plug-In . SVG Version: 6.00 Build 0)  -->
<svg version="1.1" id="Слой_1" xmlns="http://www.w3.org/2000/svg" xmlns:xlink="http://www.w3.org/1999/xlink" x="0px" y="0px"
	 width="250px" height="39px" viewBox="0 0 250 39" style="enable-background:new 0 0 250 39;" xml:space="preserve">
<style type="text/css">
	.st0{fill:#00BEF0;}
</style>
<g>
	<path d="M210.5,0.1h0.9v38.6h-0.9V0.1z"/>
	<g>
		<path d="M226.3,23.8h-3v-8.9h5.3v0.9h-4.2v2.9h2c1.8,0,2.9,0.7,2.9,2.5v0.1C229.2,22.9,228.1,23.8,226.3,23.8L226.3,23.8z
			 M226.2,23c1.3,0,1.9-0.6,1.9-1.7v-0.1c0-1.1-0.6-1.7-2-1.7h-1.9V23H226.2z M230.3,22c0-1.5,1.6-2,3.3-2h1v-0.4
			c0-1.1-0.4-1.5-1.4-1.5c-0.9,0-1.4,0.4-1.5,1.2h-1.1c0.2-1.5,1.3-2,2.6-2c1.2,0,2.4,0.5,2.4,2.3v4.4h-1.1V23c-0.4,0.6-1.1,1-2,1
			C231.1,24,230.3,23.4,230.3,22z M234.4,21.6v-0.8h-0.9c-1.3,0-2.2,0.4-2.2,1.2c0,0.7,0.4,1.1,1.2,1.1
			C233.5,23.1,234.4,22.6,234.4,21.6z M241.5,21h-3.2v2.9h-1.1v-6.5h1.1v2.8h3.2v-2.8h1.1v6.5h-1.1V21z M245.3,20.5v3.3h-1.1v-6.5
			h1.1v3l2.7-3h1.2l-2.8,3l3,3.5h-1.2L245.3,20.5z"/>
	</g>
	<path class="st0" d="M19.8,0.2C9.1,0.2,0.5,8.9,0.5,19.5s8.6,19.3,19.3,19.3s19.3-8.6,19.3-19.3S30.5,0.2,19.8,0.2z M17.2,27.7
		l-1.4,4.2c-5.3-1.8-8.9-6.9-8.9-12.6s3.6-10.7,9-12.6l1.4,4.2c-3.6,1.2-5.9,4.5-5.9,8.3C11.2,23.2,13.6,26.6,17.2,27.7z M23.8,32
		l-1.3-4.3c3.7-1.2,6.1-4.5,6.1-8.4s-2.4-7.1-6-8.3l1.4-4.3c5.4,1.8,9.1,6.9,9.1,12.6C33,25.2,29.3,30.3,23.8,32z"/>
	<path d="M196.9,23l2.1,2.6c-2.2,2.3-5,2.9-7.2,2.9c-2.1,0-3.7-0.4-5-1c-2.9-1.4-4.3-4.3-4.3-7.8c0-5.3,3.6-9.2,8.8-9.2
		c5.9,0,8.7,4.4,8.3,10.1h-13.4c0.1,1.4,0.9,2.8,2,3.5c1,0.6,2.1,0.9,3.7,0.9C193.7,25.1,195.4,24.5,196.9,23L196.9,23z M186.4,17.6
		h9.4c-0.3-2-2-3.8-4.6-3.8C188.5,13.8,186.8,15.7,186.4,17.6L186.4,17.6z M96.7,28h4.8l-7.6-8.8l7.5-8.3h-4.7L91,17.5h-1.7v-6.6
		h-3.7v17h3.7v-6.8H91L96.7,28z M112.3,14c-3.1,0-5.2,2.4-5.2,5.4s2,5.4,5.2,5.4c3.1,0,5.1-2.3,5.1-5.4
		C117.5,16.5,115.6,14,112.3,14z M113,10.5c4.8,0,8.4,3.7,8.4,8.9c0,5.1-3.5,9-8.4,9c-2.3,0-4.2-0.8-5.5-2.2v8.9h-3.7V11h3.7v2
		C108.8,11.3,110.7,10.5,113,10.5z M161.5,11h-15.2v3.4h5.8V28h3.7V14.4h5.8L161.5,11L161.5,11L161.5,11z M83,11H67.7v3.4h5.8V28
		h3.7V14.4H83C83,14.4,83,11,83,11z M63.2,19.5c0-3.2-2.2-5.5-5.3-5.5c-3,0-5.3,2.3-5.3,5.5s2.2,5.5,5.3,5.5
		C60.9,25.1,63.2,22.8,63.2,19.5z M48.7,19.5c0-5.1,3.9-8.9,9.2-8.9c5.2,0,9.2,3.8,9.2,8.9s-3.9,9-9.2,9
		C52.7,28.5,48.7,24.6,48.7,19.5z M179.6,11v17H176V17l-8.9,11h-2.9V11h3.7v11l8.9-11C176.7,11,179.6,11,179.6,11z M143.7,28h-3.7
		V11h3.7V28z M134.3,22.2c0-1.5-1.1-2.6-2.5-2.6H128v5.3h3.7C133.2,24.9,134.3,23.7,134.3,22.2z M137.9,22.2c0,3.4-2.5,5.8-6.1,5.8
		h-7.5V11h3.7v5.5h4.2C135.8,16.5,137.9,18.8,137.9,22.2z"/>
</g>
</svg>
