<svg x="0" y="0" width="250px" height="53px" overflow="inherit" viewBox="0, 0, 250, 53" preserveAspectRatio="xMidYMid" font-size="0" xml="http://www.w3.org/XML/1998/namespace" xmlns="http://www.w3.org/2000/svg" xmlns:xlink="http://www.w3.org/1999/xlink" xmlns:xml="http://www.w3.org/XML/1998/namespace" version="1.1"><title xml:space="default">Газпромбанк лого</title><desc xml:space="default">Created with Sketch.</desc><defs xml:space="default" /><g id="Page-1" xml:space="default" fill-rule="evenodd" style="fill:none;"><g transform="translate(0, -24)" id="Artboard" xml:space="default" style="fill:#1E3262;"><g transform="translate(0, 24)" id="Газпромбанк-лого" xml:space="default"><path d="M0.8333333 26.38889 C0.8333333 12.22222 12.22222 0.8333333 26.38889 0.8333333 C40.55556 0.8333333 51.94444 12.22222 51.94444 26.38889 C51.94444 40.55556 40.55556 51.94444 26.38889 51.94444 C12.22222 51.94444 0.8333333 40.55556 0.8333333 26.38889 M0 26.38889 C0 40.83333 11.94444 52.77778 26.38889 52.77778 C40.83333 52.77778 52.77778 40.83333 52.77778 26.38889 C52.77778 11.94444 40.83333 0 26.38889 0 C11.94444 0 0 11.94444 0 26.38889" id="Shape" xml:space="default" /><path d="M43.33333 23.61111 C43.05556 23.88889 42.77778 23.88889 42.77778 24.16667 C41.38889 25.27778 38.88889 26.11111 35.83333 26.94444 C29.16667 28.61111 24.44444 28.88889 18.88889 30.27778 C17.77778 30.55556 16.66667 30.83333 15.55556 31.38889 C16.66667 31.94444 17.77778 32.5 18.88889 32.77778 C21.11111 32.22222 22.22222 31.94444 25.27778 31.38889 C26.38889 31.11111 30.27778 30.55556 33.05556 30 C37.77778 28.88889 45 26.66667 43.33333 23.61111 z M40 17.5 C38.88889 16.94444 37.77778 16.66667 36.38889 16.11111 C35.83333 16.66667 35 16.94444 33.88889 17.5 C35.55556 17.77778 36.94444 18.33333 38.33333 18.61111 C38.61111 18.88889 39.72222 17.77778 40 17.5 z M15.83333 24.16667 C22.22222 22.22222 29.16667 21.66667 35.83333 19.72222 C33.05556 18.88889 31.66667 18.61111 28.88889 19.16667 C24.72222 19.72222 20.27778 20.55556 16.38889 21.66667 C15 22.22222 6.944445 24.44444 9.166667 27.5 C9.166667 27.5 10.55556 25.55556 15.83333 24.16667 z M11.38889 35 C11.38889 35.55556 11.66667 36.11111 12.5 36.66667 C12.5 36.38889 12.77778 36.11111 13.05556 35.83333 C12.5 35.55556 11.94444 35.27778 11.38889 35 z M14.44444 34.72222 C15 34.44444 15.55556 34.16667 16.11111 33.88889 C15.27778 33.61111 14.16667 33.05556 13.33333 32.77778 C12.77778 33.05556 12.5 33.33333 12.22222 33.61111 C13.05556 33.88889 13.61111 34.16667 14.44444 34.72222 z M39.16667 21.11111 C37.77778 21.66667 36.11111 22.22222 33.33333 22.77778 C31.11111 23.33333 25.83333 24.16667 20 25.27778 C18.33333 25.55556 13.33333 26.94444 10.83333 28.88889 C11.38889 29.44444 11.94444 29.44444 12.77778 30 C13.88889 29.44444 15 28.61111 17.22222 28.33333 C20.83333 27.5 23.33333 26.94444 26.38889 26.38889 C29.44444 25.83333 35.55556 24.72222 38.61111 23.61111 C39.72222 23.33333 40.55556 22.77778 41.38889 22.22222 C41.38889 21.94444 39.16667 20.83333 39.16667 21.11111 z M41.11111 19.72222 C41.66667 20 42.22222 20.27778 42.77778 20.55556 C43.05556 19.72222 43.05556 19.16667 42.22222 18.61111 C41.94444 19.16667 41.38889 19.44444 41.11111 19.72222 z M11.11111 31.38889 C10.55556 31.11111 10.27778 30.83333 9.722222 30.55556 C9.444445 31.11111 10 31.66667 10.55556 31.94444 C10.55556 31.94444 10.83333 31.66667 11.11111 31.38889 z M38.61111 13.61111 C38.61111 14.16667 38.05556 14.44444 37.77778 15 C38.61111 15.27778 39.72222 15.55556 40.55556 15.83333 C40.27778 15 39.44444 14.16667 38.61111 13.61111 z M8.333333 19.16667 C15 14.72222 22.5 12.22222 35.27778 14.44444 C35.83333 14.16667 36.38889 13.61111 36.66667 12.77778 C33.61111 11.66667 30 11.11111 25.55556 11.38889 C21.66667 11.38889 14.44444 13.05556 10.55556 15.27778 L11.66667 13.88889 C14.44444 12.22222 21.38889 10.27778 26.66667 10 C30.27778 10 32.22222 10 36.66667 11.38889 C36.38889 10.55556 35.27778 10.27778 34.16667 9.722222 C30 7.777778 21.94444 7.777778 15.55556 10.55556 C16.38889 10 17.22222 9.444445 18.33333 9.166667 C20.55556 8.055555 23.88889 7.222222 28.33333 7.222222 C31.94444 7.222222 36.11111 8.611111 38.61111 11.11111 C39.16667 11.66667 39.16667 12.22222 39.44444 12.5 C41.38889 13.61111 42.5 14.44444 43.33333 15.55556 C43.61111 16.11111 43.61111 16.66667 43.61111 17.5 C44.44444 18.05556 44.72222 18.33333 45.27778 18.88889 C45.55556 19.44444 45.83333 20 45.83333 20.27778 C45.83333 20.83333 46.11111 21.66667 45.27778 22.5 C45.83333 22.77778 46.38889 23.88889 46.66667 24.16667 C46.94444 25.55556 46.11111 27.22222 44.72222 28.33333 C43.33333 29.72222 40 31.11111 37.22222 31.94444 C31.94444 33.33333 27.22222 33.88889 23.61111 34.44444 C25.27778 34.72222 27.5 35.27778 31.11111 35.27778 C38.88889 35.27778 46.11111 31.66667 46.11111 31.66667 C46.11111 31.66667 45.83333 32.22222 45.83333 32.5 C40.83333 35.55556 32.77778 36.66667 29.44444 36.66667 C25.27778 36.38889 22.22222 35.83333 19.44444 35 C18.61111 35.27778 17.77778 35.55556 16.94444 35.83333 C21.38889 37.77778 24.44444 38.33333 28.33333 38.61111 C32.22222 38.88889 38.33333 38.05556 43.61111 36.11111 C43.33333 36.38889 43.33333 36.66667 43.05556 36.94444 C40.27778 38.33333 34.72222 39.72222 31.66667 40 C28.88889 40 25.27778 40 22.22222 39.44444 C19.72222 38.88889 17.5 38.05556 15.27778 37.22222 C15 37.5 14.72222 37.77778 14.72222 38.33333 C23.33333 42.77778 31.66667 43.05556 40.83333 40 L40 40.83333 C29.72222 45 21.94444 43.33333 15.55556 40.27778 C15.27778 40.27778 15 40 15 40 C15.55556 41.11111 20.27778 44.44444 25.55556 45 C29.16667 45.27778 33.61111 44.72222 36.11111 43.61111 L34.44444 44.44444 C33.05556 45 29.72222 46.38889 25 46.11111 C18.61111 45.55556 15.27778 42.77778 13.61111 41.38889 C12.77778 40.83333 12.5 40 12.22222 38.88889 C10.83333 38.05556 10 37.5 9.166667 36.11111 C8.611111 35.55556 8.888889 34.72222 8.888889 34.16667 L9.166667 33.61111 C8.611111 33.05556 7.777778 32.5 7.5 31.94444 C6.944445 30.83333 7.222222 30 7.777778 29.16667 C7.5 28.61111 6.944445 28.33333 6.944445 27.77778 C6.666667 27.22222 6.666667 26.66667 6.666667 26.11111 C6.666667 25.27778 7.222222 24.44444 8.055555 23.61111 C9.444445 21.94444 11.66667 20.83333 15.27778 19.44444 C18.88889 18.33333 20.27778 18.05556 23.05556 17.5 C26.11111 16.66667 30 16.38889 33.33333 15.27778 C24.44444 13.61111 15.27778 15.27778 7.777778 20.27778 L8.333333 19.16667 z" id="Shape#1" xml:space="default" /><path d="M86.11111 21.66667 L87.22222 28.61111 L85.27778 28.61111 L86.11111 21.66667 z M78.05556 38.05556 L83.61111 38.05556 L84.16666 34.16667 L87.77778 34.16667 L88.33334 38.05556 L93.88889 38.05556 L89.16666 15 L82.5 15 L78.05556 38.05556 z" id="Shape#2" xml:space="default" /><path d="M99.16666 23.88889 C100 23.88889 101.6667 23.33333 101.6667 21.66667 C101.6667 19.72222 99.72222 19.44444 99.44444 19.44444 C98.88889 19.44444 97.77778 19.44444 96.38889 20 L96.38889 15 C98.33334 14.44444 99.44444 14.44444 101.1111 14.44444 C105.5556 14.44444 107.5 17.5 107.5 20.55556 C107.5 23.61111 105.8333 25.27778 104.1667 25.83333 L104.1667 26.11111 C105.8333 26.66667 107.7778 28.05556 107.7778 31.66667 C107.7778 36.11111 104.7222 38.33333 100.8333 38.33333 C98.88889 38.33333 97.5 38.05556 95.83334 37.22222 L95.83334 32.5 C97.22222 33.05556 98.33334 33.33333 99.44444 33.33333 C101.1111 33.33333 101.9444 31.94444 101.9444 31.11111 C101.9444 29.72222 101.1111 28.88889 99.16666 28.88889 L96.94444 28.88889 L96.94444 23.88889 L99.16666 23.88889 z" id="Shape#3" xml:space="default" /><polygon points="110,14.72222 124.7222,14.72222 124.7222,38.05556 119.4444,38.05556 119.4444,20.27778 115.5556,20.27778 115.5556,38.05556 110,38.05556" id="Shape#4" xml:space="default" /><path d="M133.0556 20 L134.4444 20 C135.5556 20 136.3889 20.83333 136.3889 22.77778 C136.3889 25.27778 135 25.55556 134.4444 25.55556 L133.0556 25.55556 L133.0556 20 z M127.7778 38.05556 L133.0556 38.05556 L133.0556 30.55556 L134.7222 30.55556 C140 30.55556 141.6667 25.83333 141.6667 22.77778 C141.6667 19.72222 139.7222 15 134.7222 15 L127.7778 15 L127.7778 38.05556 z" id="Shape#5" xml:space="default" /><path d="M151.9444 32.5 C150 32.5 149.1667 30.27778 149.1667 26.11111 C149.1667 21.94444 150 19.72222 151.9444 19.72222 C153.8889 19.72222 154.7222 21.94444 154.7222 26.11111 C154.7222 30.27778 153.6111 32.5 151.9444 32.5 M151.9444 38.33333 C158.3333 38.33333 160.5556 32.5 160.5556 26.38889 C160.5556 20.27778 158.3333 14.44444 151.9444 14.44444 C145.5556 14.44444 143.3333 20.27778 143.3333 26.38889 C143.3333 32.5 145.5556 38.33333 151.9444 38.33333" id="Shape#6" xml:space="default" /><path d="M188.8889 33.33333 L188.8889 28.05556 L189.7222 28.05556 C190.2778 28.05556 191.9444 28.05556 191.9444 30.55556 C191.9444 33.05556 190.2778 33.33333 189.7222 33.33333 L188.8889 33.33333 z M183.6111 38.05556 L190 38.05556 C191.3889 38.05556 197.2222 37.5 197.2222 30.55556 C197.2222 24.72222 192.7778 23.61111 189.7222 23.61111 L188.8889 23.61111 L188.8889 20.55556 L196.1111 20.55556 L196.1111 15 L183.8889 15 L183.8889 38.05556 L183.6111 38.05556 z" id="Shape#7" xml:space="default" /><polygon points="216.6667,14.72222 221.6667,14.72222 221.6667,23.05556 225.5556,23.05556 225.5556,14.72222 230.8333,14.72222 230.8333,38.05556 225.5556,38.05556 225.5556,28.61111 221.6667,28.61111 221.6667,38.05556 216.6667,38.05556" id="Shape#8" xml:space="default" /><polygon points="234.4444,14.72222 239.7222,14.72222 239.4444,23.05556 240.8333,23.05556 243.6111,14.72222 249.4444,14.72222 245.2778,25.83333 250,38.05556 243.8889,38.05556 240.8333,28.61111 239.4444,28.61111 239.7222,38.05556 234.4444,38.05556" id="Shape#9" xml:space="default" /><polygon points="67.77778,14.72222 78.61111,14.72222 78.61111,20.55556 73.05556,20.55556 73.05556,38.05556 67.77778,38.05556" id="Shape#10" xml:space="default" /><polygon points="162.7778,14.72222 167.5,14.72222 171.3889,20.27778 175.5556,14.72222 180,14.72222 180,38.05556 174.7222,38.05556 174.7222,23.88889 171.3889,27.77778 168.3333,23.88889 168.3333,38.05556 162.7778,38.05556" id="Shape#11" xml:space="default" /><path d="M206.3889 21.94444 L207.5 28.88889 L205.5556 28.88889 L206.3889 21.94444 z M198.3333 38.05556 L203.8889 38.05556 L204.4444 34.16667 L208.0556 34.16667 L208.6111 38.05556 L214.1667 38.05556 L209.4444 15 L202.7778 15 L198.3333 38.05556 z" id="Shape#12" xml:space="default" /></g></g></g></svg>