<svg width="40" height="40" viewBox="0 0 40 40" fill="none" xmlns="http://www.w3.org/2000/svg">
<path fill-rule="evenodd" clip-rule="evenodd" d="M16.5675 7.76867L16.5515 7.77155L16.5646 7.75425L16.5675 7.76867ZM37.5336 18.4354L38 16.9004L36.4547 16.9513C36.3245 16.9513 35.3757 16.9234 34.4541 16.2381C34.5225 16.2438 34.5909 16.2544 34.6621 16.2544C35.6108 16.2544 36.5277 15.669 36.8958 14.8308L37.5598 13.3169C36.7253 13.3284 35.9639 13.2198 35.9639 13.2198C35.9573 13.2198 35.357 13.1391 34.6621 12.4114C34.1638 11.8895 33.5475 11.6126 32.8798 11.6126C32.5875 11.6126 32.3253 11.6674 32.1005 11.7395C32.1361 11.6174 32.168 11.4925 32.1886 11.3637C32.4012 9.94681 31.5133 8.86639 31.5124 8.86735L30.3501 7.38994L29.6289 9.12592C29.6261 9.13073 29.4444 9.53829 29.1185 9.7363C29.0211 9.22589 28.7794 8.65203 28.2634 8.10413C27.2912 7.07081 26.1074 6.91605 25.4874 6.91605C25.2008 6.91605 24.9957 6.94873 24.946 6.95642L23.5431 7.23903C23.6245 6.91798 23.7969 6.35662 24.1116 5.85293L24.8861 4.61487L22.938 4.84268L22.3161 3.49023L21.1155 4.12656L20.0037 3L18.8948 4.12656L17.6904 3.49023L17.0713 4.84268L15.1233 4.61487L15.8987 5.85389C16.2144 6.35758 16.3867 6.91701 16.4663 7.23806L15.127 6.967L15.0811 6.95931C15.0137 6.94873 14.8104 6.91605 14.521 6.91605C13.902 6.91605 12.7181 7.07081 11.7479 8.10317C11.2318 8.65107 10.9892 9.22493 10.8909 9.7363C10.5668 9.53925 10.387 9.13842 10.387 9.13842L9.66491 7.39282L8.48483 8.87985C8.33966 9.07113 7.6288 10.0872 7.82174 11.3646C7.84141 11.4915 7.87419 11.6155 7.90884 11.7385C7.685 11.6645 7.4237 11.6117 7.13148 11.6117C6.46371 11.6117 5.84744 11.8875 5.34825 12.4104C4.65518 13.1362 4.05859 13.2179 4.06327 13.2179C4.06327 13.2179 3.43108 13.3351 2.4533 13.3169L3.11452 14.8308C3.48353 15.67 4.40137 16.2544 5.34731 16.2544C5.41849 16.2544 5.48593 16.2438 5.5571 16.2381C4.63833 16.9234 3.68864 16.9513 3.57438 16.9523L2 16.9013L2.47765 18.4354C2.71742 19.2265 3.51912 20.5367 5.05416 20.678C4.88652 21.396 4.51751 22.2015 3.70456 22.5485L2.53197 23.0445L3.17165 24.1874C3.53223 24.8036 4.37983 25.5245 5.5852 25.5245C5.84651 25.5236 6.09844 25.4966 6.34195 25.4438C6.40283 25.7254 6.48057 26.007 6.57329 26.2868C6.93199 27.3845 6.62293 28.1496 6.61918 28.1583L6.04038 29.4021L7.33285 29.752C7.34971 29.7568 7.73932 29.8674 8.22821 29.8674C8.44924 29.8674 8.66184 29.8433 8.8604 29.7943C9.01025 29.7578 9.15448 29.7107 9.29403 29.653C9.46168 29.9606 9.66491 30.2413 9.90093 30.4931C10.7289 31.3659 11.9033 31.8071 13.3887 31.8071H13.3943L14.4555 31.7927L12.263 32.7289L13.9273 33.5546C14.5323 33.8565 15.2488 34.215 15.9793 34.4889L15.7714 35.0724L16.3446 35.3406C16.3951 35.3646 17.4984 35.8702 19.3322 35.9789C19.3322 35.9789 19.7752 36 20.0178 36C20.2622 36 20.6996 35.9779 20.6996 35.9779C22.5213 35.8674 23.6161 35.3656 23.6676 35.3416L24.2427 35.0724L24.0319 34.488C24.7831 34.2063 25.5267 33.8343 26.1065 33.5441L27.7398 32.7289L25.5548 31.7937L26.6206 31.8081C28.1088 31.8081 29.2833 31.3659 30.1103 30.4931C30.3463 30.2432 30.5486 29.9625 30.7163 29.654C30.8558 29.7116 31.0019 29.7587 31.1518 29.7962C31.3494 29.8443 31.562 29.8683 31.783 29.8683C32.2644 29.8683 32.6587 29.7587 32.669 29.7558L33.9671 29.4031L33.4014 28.1814C33.3874 28.1496 33.0783 27.3845 33.437 26.2868C33.5288 26.0061 33.6056 25.7254 33.6683 25.4438C33.9119 25.4966 34.1657 25.5236 34.4288 25.5245C35.9658 25.5245 36.7019 24.4153 36.8443 24.174L37.4774 23.0426L36.3057 22.5485C35.49 22.2006 35.12 21.396 34.9561 20.678C36.4715 20.5415 37.2845 19.2313 37.5336 18.4354Z" fill="white"/>
<path fill-rule="evenodd" clip-rule="evenodd" d="M20.0038 7.70042C18.7628 7.70139 17.8309 8.11952 17.6286 8.60975L20.0038 9.5729L22.3789 8.60975C22.1775 8.11856 21.2466 7.70139 20.0038 7.70042Z" fill="white"/>
<path fill-rule="evenodd" clip-rule="evenodd" d="M20.0281 33.1663H20.0262H20.0056H19.9831H19.9813C19.2292 33.1711 18.1924 33.0134 17.6942 32.8635L17.0929 34.5312C17.4891 34.6763 18.8302 34.9532 20.0056 34.9532C21.1791 34.9532 22.5222 34.6763 22.9165 34.5312L22.3171 32.8635C21.817 33.0134 20.7811 33.172 20.0281 33.1663Z" fill="white"/>
<path fill-rule="evenodd" clip-rule="evenodd" d="M24.5733 31.5072C24.1256 31.7667 23.1282 32.157 22.5484 32.3377L23.0364 33.7151C23.9336 33.4633 24.6754 33.1701 25.287 32.8539L24.2755 32.5097L24.5733 31.5072Z" fill="white"/>
<path fill-rule="evenodd" clip-rule="evenodd" d="M15.4361 31.5072L15.7348 32.5097L14.7224 32.8539C15.3331 33.1691 16.0776 33.4633 16.973 33.7151L17.461 32.3377C16.8821 32.157 15.8828 31.7667 15.4361 31.5072Z" fill="white"/>
<path fill-rule="evenodd" clip-rule="evenodd" d="M20.0038 6.10483C20.9394 6.10483 21.8572 6.33457 22.5634 6.73828C22.6271 6.51624 22.7179 6.24709 22.8406 5.96353L22.5728 5.99621L22.2937 6.02697L22.1747 5.76552L21.817 4.99173L21.167 5.33969L20.9132 5.47234L20.7099 5.2676L20.0028 4.5486L19.2966 5.2676L19.0943 5.47234L18.8415 5.33969L18.1868 4.99173L17.8347 5.76552L17.7129 6.02697L17.4338 5.99621L17.1678 5.96353C17.2905 6.24613 17.3804 6.51624 17.445 6.73828C18.155 6.33553 19.0719 6.10483 20.0038 6.10483Z" fill="white"/>
<path fill-rule="evenodd" clip-rule="evenodd" d="M34.2949 15.0509C34.4167 15.0942 34.5394 15.1134 34.6621 15.1134C35.1912 15.1134 35.7035 14.7616 35.8796 14.3608C35.8796 14.3608 34.9093 14.3002 33.865 13.2121C33.5335 12.8593 33.1813 12.7545 32.8788 12.7545C32.4105 12.7545 32.0584 13.0083 32.0584 13.0083C33.319 13.6966 33.5756 14.802 34.2949 15.0509Z" fill="white"/>
<path fill-rule="evenodd" clip-rule="evenodd" d="M5.34911 15.1125C5.47086 15.1125 5.59543 15.0933 5.71437 15.05C6.4346 14.8011 6.69403 13.6957 7.95372 13.0074C7.95372 13.0074 7.60063 12.7537 7.13422 12.7537C6.83077 12.7537 6.47955 12.8594 6.1452 13.2122C5.10279 14.2993 4.13344 14.3608 4.13344 14.3608C4.30577 14.7617 4.81901 15.1125 5.34911 15.1125Z" fill="white"/>
<path fill-rule="evenodd" clip-rule="evenodd" d="M33.9152 22.9878C32.9393 22.4947 32.3231 21.1835 32.1742 20.7116C32.0121 23.3107 30.7768 25.1131 29.3326 26.849C28.5824 27.7497 28.3211 28.6244 28.3211 28.6244C28.3211 28.6244 28.4653 27.6324 29.1144 26.826C30.4612 25.164 31.7433 23.0945 31.8379 20.702C31.9035 19.0323 31.4858 17.6779 30.833 16.5619C31.1992 17.7241 31.1458 19.1467 29.9067 20.4761C29.9067 20.4761 32.3755 17.4395 28.9233 14.3271C27.5419 13.1428 26.0302 12.4114 25.2529 11.8923C28.0635 12.8333 29.4366 11.7971 29.4366 11.7971C28.5393 12.5959 27.377 12.5815 26.6559 12.4671C26.8516 12.5651 27.0549 12.667 27.274 12.7882C29.6435 14.1098 31.7742 16.2832 32.1376 19.2947V19.2717C32.6874 22.2294 33.9143 22.9878 33.9152 22.9878ZM34.6358 19.5428C34.6574 19.5437 34.6761 19.5437 34.6986 19.5437C36.0192 19.5437 36.4678 18.0913 36.4678 18.0913H36.4425C36.199 18.0913 34.235 18.0317 32.846 16.2217C31.9319 15.0298 31.1836 13.983 29.7038 13.5706L29.5587 13.5437L29.5268 13.3919C29.4866 13.1602 29.6411 12.942 29.9923 12.7084C32.035 11.3358 30.647 9.58538 30.647 9.58538C30.647 9.58538 30.0644 10.9849 28.7598 10.9849C28.7279 10.9849 28.6951 10.984 28.6624 10.984C28.5153 10.9753 28.3711 10.9696 28.2269 10.9388L27.9871 10.8907C27.9871 10.8907 28.358 9.8526 27.4607 8.89906C26.7845 8.1791 25.9613 8.05702 25.4864 8.05702C25.2476 8.05702 25.0959 8.08874 25.0959 8.08874C25.5464 8.69336 25.8723 9.69784 25.3516 10.3169C24.902 10.8494 23.8025 10.8753 23.8025 11.6684C23.8025 12.0048 24.1087 12.397 24.6576 12.7488C26.3097 13.8167 27.9506 15.2345 28.6324 17.133C29.4847 19.5014 28.5247 21.074 27.1535 21.9756C27.1535 21.9756 27.5844 22.3822 28.2063 22.4341C28.3346 22.4466 28.4582 22.4524 28.5734 22.4524C29.8893 22.4524 30.5702 21.8199 30.5702 21.8199C30.5702 21.8199 30.4578 22.6946 29.7731 23.5069C29.141 24.2566 28.3121 24.6988 27.0468 24.7171C27.0468 24.7171 27.0074 25.3188 27.5675 25.8407C27.9262 26.1695 28.7542 26.2762 28.7542 26.2762C28.7542 26.2762 27.2051 26.5992 27.0337 28.9484C26.94 30.2211 26.6234 30.6642 26.6234 30.6642H26.6506C30.248 30.6642 30.1553 27.4979 30.1553 27.4979C30.1553 27.4979 30.4063 28.4361 31.4084 28.6802C31.5302 28.7129 31.6603 28.7254 31.7821 28.7254C32.1052 28.7254 32.3871 28.6475 32.3871 28.6475C32.3871 28.6475 31.8608 27.5104 32.3824 25.9196C32.8142 24.5988 32.7449 23.6213 32.7449 23.6213C32.7449 23.6213 33.2291 24.3729 34.4317 24.3806H34.4438C35.4432 24.3806 35.8796 23.602 35.8796 23.602C33.482 22.5803 33.718 19.2832 33.718 19.2832C33.718 19.2832 34.0299 19.5207 34.6358 19.5428Z" fill="white"/>
<path fill-rule="evenodd" clip-rule="evenodd" d="M10.6783 26.85C9.23314 25.114 7.99874 23.3107 7.83484 20.7125C7.68592 21.1835 7.07153 22.4947 6.09656 22.9887C6.09656 22.9887 7.32253 22.2294 7.8723 19.2726V19.2957C8.23756 16.2851 10.3664 14.1108 12.7378 12.7891C12.9541 12.668 13.1602 12.5661 13.3541 12.469C12.6338 12.5834 11.4716 12.5978 10.5743 11.7991C10.5743 11.7991 11.9473 12.8353 14.758 11.8942C13.9797 12.4133 12.469 13.1438 11.0876 14.329C7.63441 17.4415 10.1042 20.478 10.1042 20.478C8.86319 19.1486 8.81262 17.726 9.17882 16.5639C8.52509 17.6799 8.10551 19.0333 8.17388 20.7039C8.26847 23.0964 9.54877 25.1659 10.8937 26.8288C11.5446 27.6353 11.6916 28.6264 11.6916 28.6264C11.6916 28.6264 11.4275 27.7497 10.6783 26.85ZM11.2568 26.2771C11.2568 26.2771 12.0838 26.1714 12.4434 25.8407C13.0035 25.3197 12.9632 24.718 12.9632 24.718C11.697 24.6997 10.87 24.2576 10.234 23.5078C9.55315 22.6956 9.44076 21.8208 9.44076 21.8208C9.44076 21.8208 10.1217 22.4533 11.4347 22.4533C11.5527 22.4533 11.6764 22.4476 11.8028 22.4351C12.4266 22.3832 12.8583 21.9775 12.8583 21.9775C11.4862 21.0759 10.5263 19.5033 11.3767 17.1349C12.0594 15.2364 13.6984 13.8186 15.3524 12.7507C15.9003 12.3989 16.2066 12.0067 16.2066 11.6703C16.2066 10.8763 15.108 10.8503 14.6594 10.3188C14.1386 9.69877 14.4645 8.69525 14.9141 8.09063C14.9141 8.09063 14.7642 8.05891 14.5235 8.05891C14.0487 8.05891 13.2264 8.18099 12.5502 8.90095C11.6511 9.85353 12.0238 10.8926 12.0238 10.8926L11.7831 10.9407C11.6398 10.9714 11.4947 10.9772 11.3476 10.9859C11.3139 10.9859 11.2839 10.9868 11.2521 10.9868C9.94464 10.9868 9.36397 9.58727 9.36397 9.58727C9.36397 9.58727 7.97784 11.3367 10.0186 12.7093C10.3698 12.9439 10.5244 13.1611 10.4832 13.3928L10.4523 13.5447L10.3033 13.5716C8.82731 13.9839 8.07618 15.0307 7.16208 16.2217C5.77408 18.0326 3.81196 18.0922 3.56751 18.0922H3.54129C3.54129 18.0922 3.98897 19.5447 5.31141 19.5447C5.33202 19.5447 5.35169 19.5447 5.37416 19.5437C5.98106 19.5216 6.29294 19.2832 6.29294 19.2832C6.29294 19.2832 6.52802 22.5802 4.13039 23.602C4.13039 23.602 4.56777 24.3806 5.5671 24.3806H5.57927C6.78183 24.3739 7.26604 23.6212 7.26604 23.6212C7.26604 23.6212 7.1958 24.5998 7.62662 25.9195C8.14829 27.5104 7.62475 28.6485 7.62475 28.6485C7.62475 28.6485 7.90478 28.7263 8.2279 28.7263C8.3534 28.7263 8.48171 28.7138 8.60066 28.6812C9.60279 28.437 9.85379 27.4988 9.85379 27.4988C9.85379 27.4988 9.76201 30.6651 13.3594 30.6651H13.3847C13.3847 30.6651 13.07 30.223 12.9773 28.9493C12.8068 26.6001 11.2568 26.2771 11.2568 26.2771Z" fill="white"/>
<path fill-rule="evenodd" clip-rule="evenodd" d="M19.1927 14.6107H20.0415H20.8885V15.2086C20.689 14.9577 20.3001 15.0087 20.3001 15.0087V15.87C20.3001 15.87 20.3151 16.2929 20.4594 16.4765H20.0415H19.6208C19.7679 16.2939 19.7801 15.87 19.7801 15.87L19.7811 15.0087C19.7811 15.0087 19.3941 14.9577 19.1927 15.2086V14.6107ZM17.3448 14.7001C17.4029 14.7645 17.4619 14.8356 17.5181 14.9067C17.5321 14.924 17.5434 14.9385 17.5565 14.9577C17.6089 15.0279 17.6604 15.1028 17.711 15.1788C17.7222 15.1941 17.7326 15.2124 17.7447 15.2287C17.8037 15.3229 17.8618 15.4191 17.9189 15.519C18.4378 16.438 19.2667 16.9878 20.0047 16.9888C20.7427 16.9878 21.5716 16.438 22.0923 15.519C22.1504 15.4171 22.2075 15.3181 22.2684 15.2249C22.2777 15.2114 22.2871 15.198 22.2946 15.1845C22.347 15.1047 22.3995 15.0288 22.4557 14.9538C22.4679 14.9375 22.4791 14.9231 22.4903 14.9096C22.5484 14.8356 22.6074 14.7645 22.6683 14.6981C22.6786 14.6876 22.687 14.677 22.6964 14.6684C22.9605 14.3906 23.2752 14.1791 23.6892 14.0618L23.5056 13.9522H23.4944L22.7648 13.5168L22.0146 13.0756L20.0103 14.1954L20.0047 14.1916L20.0009 14.1954L17.9957 13.0756L17.2465 13.5168L16.515 13.9522H16.5066L16.3211 14.0618C16.7332 14.1791 17.047 14.3886 17.3139 14.6664C17.3242 14.677 17.3317 14.6905 17.3448 14.7001Z" fill="white"/>
<path fill-rule="evenodd" clip-rule="evenodd" d="M19.3657 10.8167V11.3781L19.2608 11.3281C19.2561 11.3252 19.1015 11.2887 18.8326 11.0705C18.3885 10.7168 18.38 10.3899 18.38 10.3899L19.3657 10.8167ZM19.8314 13.4524V9.95642L17.6623 9.20186L18.2338 12.5892L19.8314 13.4524Z" fill="white"/>
<path fill-rule="evenodd" clip-rule="evenodd" d="M20.6445 10.8167L21.6312 10.3909C21.6312 10.3909 21.6227 10.7167 21.1777 11.0714C20.9097 11.2896 20.7551 11.3262 20.7495 11.329L20.6455 11.379V10.8167H20.6445ZM21.7755 12.5892L22.3451 9.20186L20.1779 9.95642V13.4524L21.7755 12.5892Z" fill="white"/>
<path fill-rule="evenodd" clip-rule="evenodd" d="M16.7643 21.5565C16.9761 21.6354 17.2319 21.6517 17.364 21.6517C17.3687 21.6354 17.3762 21.6142 17.3827 21.5892C17.394 21.5498 17.4043 21.5094 17.4127 21.4662C17.4502 21.273 17.4633 21.0538 17.4661 20.9125C17.3771 20.8549 17.2516 20.7549 17.1813 20.604C17.1007 20.43 16.9855 20.3492 16.8178 20.3492C16.5994 20.3492 16.3661 20.4838 16.264 20.5473C16.1844 21.0298 16.532 21.4681 16.7643 21.5565Z" fill="white"/>
<path fill-rule="evenodd" clip-rule="evenodd" d="M21.5603 19.7023C21.1576 20.1522 20.369 20.9337 20.3306 20.9731L20.2838 21.0221L17.7934 20.9817C17.7915 21.2355 17.7513 21.4508 17.7129 21.6085C17.7063 21.6344 17.6988 21.6613 17.6932 21.6892L20.6556 22.2352C20.9628 22.0141 21.8113 21.3787 22.141 21.1298C21.9012 20.7712 21.8788 20.3454 21.9321 20.0455C21.7748 19.9426 21.6558 19.8254 21.5603 19.7023Z" fill="white"/>
<path fill-rule="evenodd" clip-rule="evenodd" d="M21.8975 16.6283C21.3234 17.2118 20.7727 17.429 20.281 17.479C20.1911 17.4886 20.1021 17.4944 20.0103 17.4944H20.0028H19.9972C19.9054 17.4944 19.8155 17.4886 19.7265 17.479C19.6394 17.4713 19.5504 17.4569 19.4596 17.4367C19.4277 17.5684 19.3865 17.8414 19.5036 18.1029C19.6076 18.3384 19.8192 18.5143 20.1274 18.6315L20.2313 18.6729L20.2332 18.7873C20.2332 18.8209 20.2566 19.5659 21.0461 19.7716C21.1763 19.6351 21.2934 19.512 21.3786 19.4092C21.2175 19.0199 21.3028 18.6219 21.5369 18.4268C21.5266 18.4672 21.4236 19.4438 22.185 19.8071L22.3115 19.8677L22.274 20.0051C22.2609 20.0455 22.0071 20.9904 22.9296 21.3422L23.0935 21.4057L23.0214 21.5681C23.0045 21.6046 22.6439 22.4611 23.4962 22.9484H25.345V21.4422C24.6875 21.3595 24.4094 20.8174 24.3373 20.4329C24.0319 20.3791 23.7959 20.2435 23.633 20.0234C23.2452 19.4995 23.5786 19.0199 23.5833 18.993C23.5824 18.9968 23.5833 19.5082 23.8905 19.8235C24.0432 19.9753 24.2221 20.0926 24.4955 20.1205L24.6304 20.133L24.6416 20.2733C24.6445 20.3031 24.7184 20.9952 25.345 21.1038L25.3431 18.026C25.3431 17.5492 25.4789 17.0705 25.641 16.6274H21.8975V16.6283Z" fill="white"/>
<path fill-rule="evenodd" clip-rule="evenodd" d="M16.9225 18.0375L16.8719 19.9975L17.0892 20.0311L17.6195 18.1509L17.3506 17.5732L16.9225 18.0375Z" fill="white"/>
<path fill-rule="evenodd" clip-rule="evenodd" d="M18.0731 25.291C18.0112 25.29 17.9653 25.2352 17.9691 25.1718C17.9747 25.1112 18.0253 25.0631 18.0852 25.0689C18.148 25.0718 18.1911 25.1275 18.1902 25.1881C18.1836 25.2487 18.1311 25.2967 18.0731 25.291ZM22.7723 27.026C22.7891 27.026 22.8069 27.0279 22.8247 27.0327C23.1563 27.1298 23.2387 28.3515 23.8184 28.4592C23.8755 28.4716 23.9271 28.4755 23.9729 28.4755C24.1415 28.4755 24.2408 28.4024 24.3476 28.2717C24.3476 28.2717 24.0563 27.8026 23.839 27.4845C23.5487 27.0692 23.3248 26.5684 22.7854 26.5684C22.7723 26.5684 22.7573 26.5684 22.7432 26.5694C22.5671 26.579 22.4566 26.6674 22.4566 26.6674C22.2384 26.5271 22.0342 26.479 21.8516 26.479C21.5144 26.479 21.2513 26.6386 21.1201 26.6386H21.1145L19.911 26.5165C19.7237 26.4973 19.5748 26.3031 19.5205 26.2272C19.5074 26.206 19.4999 26.1945 19.4999 26.1945C19.5008 26.1609 19.4999 26.1262 19.498 26.0955C19.4577 25.0852 18.6963 24.6536 18.4247 24.646C18.4247 24.646 18.4565 24.4537 18.3835 24.3807L18.1175 24.7113L17.2474 24.2624L17.8684 25.0074L17.342 25.6139C17.2755 25.6831 17.2839 25.7754 17.312 25.8158L17.5387 26.0215L17.8272 25.8417C17.8421 25.8311 17.8684 25.8273 17.9002 25.8273C17.9798 25.8273 18.0997 25.8485 18.2065 25.8485C18.3245 25.8485 18.4247 25.8235 18.4378 25.7091C18.4022 26.084 18.0632 26.7347 18.2851 27.2461L18.4509 27.6315L17.386 27.4749L16.8878 28.338C16.7342 28.6254 16.7108 28.9359 16.8587 29.1051L17.0442 29.3444C17.0442 29.3444 17.3055 29.0599 17.3645 28.8725L17.2802 28.7773C17.209 28.6975 17.2128 28.6254 17.2558 28.538L17.5687 28.0064L18.8246 28.3102L18.8911 28.1939C18.9763 28.0487 19.099 28.0055 19.2329 28.0055C19.2891 28.0055 19.3453 28.0122 19.4053 28.0218C19.6385 28.0689 20.0215 28.1323 20.4055 28.1323C20.8261 28.1323 21.2447 28.0554 21.4676 27.7988C21.9228 28.4909 22.8444 28.6005 22.7723 28.9532L22.5287 30.1394C22.6898 30.1317 22.8444 30.1211 22.9914 30.1009L23.2227 28.8667C23.2471 28.7321 23.2724 28.5514 23.2724 28.5514C23.1834 28.4582 22.968 28.2631 22.8462 28.0256C22.6842 27.7046 22.7723 27.5373 22.6215 27.1202C22.6196 27.123 22.6664 27.026 22.7723 27.026Z" fill="white"/>
<path fill-rule="evenodd" clip-rule="evenodd" d="M16.3559 28.1487C16.3559 28.1487 16.7728 27.9728 16.8093 27.8478L16.7531 27.7046C16.7138 27.6114 16.7194 27.5104 16.7953 27.4566L17.245 27.1375L17.9955 27.2855C17.9955 27.2855 17.8597 27.1106 17.8728 26.8779L17.156 26.7222L16.4795 27.1452C16.1891 27.3672 16.1685 27.7306 16.265 27.9468L16.3559 28.1487Z" fill="white"/>
<path fill-rule="evenodd" clip-rule="evenodd" d="M21.6671 30.1577C21.802 30.1519 21.951 30.15 22.114 30.15C22.114 30.15 22.5 28.9898 22.5225 28.9532C22.3061 28.8552 21.8554 28.6101 21.6821 28.4976C21.7973 28.6745 22.0765 28.8744 22.0203 29.0301L21.6671 30.1577Z" fill="white"/>
<path fill-rule="evenodd" clip-rule="evenodd" d="M25.346 23.28H14.6643V27.4037C14.6643 29.0907 15.8538 30.1461 17.6089 30.1461C19.0737 30.1461 19.4615 30.2047 20.0066 30.7603C20.3821 30.3758 20.6931 30.2326 21.3318 30.1788L21.3468 30.1153L21.683 29.0474C21.6643 29.0234 21.1145 28.3813 21.1145 28.3813C20.8963 28.4563 20.7127 28.4678 20.4055 28.4678C20.089 28.4678 19.7321 28.4303 19.3444 28.3553C19.306 28.3467 19.2695 28.3419 19.2329 28.3419C19.1852 28.3419 19.1824 28.3457 19.1702 28.3697L19.1037 28.4832L18.9819 28.6908L18.7506 28.636L17.7251 28.388L17.5855 28.6264L17.6052 28.6514L17.7307 28.7927L17.6745 28.9763C17.5986 29.2166 17.3542 29.4973 17.2802 29.5751L17.0245 29.8577L16.7904 29.5549L16.6143 29.3291C16.4307 29.1176 16.3876 28.7936 16.4916 28.4534C16.4888 28.4553 16.485 28.4572 16.4804 28.4572L16.1919 28.5793L16.0608 28.289L15.9699 28.0833C15.8126 27.7219 15.8706 27.1932 16.2949 26.8731L17.1191 26.3944L17.9049 26.553C17.9236 26.4761 17.9517 26.1993 17.9742 26.1291C17.9583 26.1272 17.9452 26.1233 17.9292 26.1233L17.4769 26.2973L17.0404 25.9878C17.0404 25.9878 16.869 25.8196 17.0245 25.6504L17.446 24.9939L16.3755 23.6145L18.0201 24.3085L18.1306 24.1692L18.3516 23.8962L18.6045 24.1423C18.6757 24.2124 18.7169 24.2999 18.7375 24.3864C19.1899 24.5681 20.0037 25.1025 20.0749 25.9715L19.8211 26.0753V26.0811C19.8792 26.1522 19.9279 26.181 19.9429 26.1839L21.1173 26.3021C21.1473 26.2973 21.1838 26.2829 21.226 26.2704C21.3721 26.2195 21.5912 26.1455 21.8507 26.1455C22.0633 26.1455 22.2665 26.1954 22.4641 26.2896C22.5362 26.2618 22.6252 26.2406 22.7282 26.2339L22.7854 26.2329C23.4138 26.2329 23.7276 26.7145 23.9776 27.1C24.0188 27.1663 24.061 27.2297 24.105 27.2912C24.3232 27.6094 24.6107 28.0746 24.6229 28.0939L24.7531 28.3015L24.5939 28.4909C24.4721 28.636 24.2886 28.8061 23.9739 28.8061C23.9093 28.8061 23.8371 28.7985 23.7603 28.784C23.6938 28.7715 23.632 28.7504 23.574 28.7254C23.5646 28.7898 23.5524 28.8657 23.5402 28.9301L23.3342 30.0327C24.5658 29.7222 25.3478 28.7677 25.3478 27.4008L25.346 23.28Z" fill="#FFE710"/>
<path fill-rule="evenodd" clip-rule="evenodd" d="M14.6643 22.9475H22.9727C22.5578 22.5072 22.5634 21.9507 22.6692 21.5883C22.5484 21.5287 22.4491 21.4576 22.3602 21.3787C22.0342 21.6248 21.0443 22.365 20.7848 22.5514L20.7287 22.5899L17.4684 21.9853H17.4029C17.3242 21.9853 17.2099 21.9824 17.0844 21.967C17.0489 22.1179 16.9224 22.2217 16.7772 22.2217C16.7604 22.2217 16.7426 22.2208 16.7248 22.2169C16.6396 22.2016 16.5656 22.1573 16.5159 22.0833C16.4644 22.0112 16.4448 21.9257 16.4588 21.8382L16.471 21.7661C16.1357 21.5239 15.8248 20.9798 15.9615 20.4069L15.9755 20.3464L16.0233 20.3118C16.0299 20.306 16.0861 20.2676 16.1704 20.2176L15.9334 20.1801C15.8444 20.1647 15.7854 20.0792 15.7985 19.9898C15.8145 19.8994 15.8969 19.834 15.984 19.8513L16.5487 19.9427L16.6012 17.9029L17.4403 16.9917L17.9648 18.124L17.4113 20.0859L17.9105 20.1666C17.9976 20.1801 18.0575 20.2647 18.0454 20.3579C18.0323 20.4396 17.9639 20.4954 17.8852 20.4954C17.8768 20.4954 17.8674 20.4954 17.8599 20.4944L17.4535 20.4271C17.4591 20.4396 17.4675 20.4473 17.4722 20.4598C17.5153 20.5521 17.6108 20.6165 17.667 20.6453L20.1527 20.6857C20.2576 20.5809 20.5189 20.3185 20.7877 20.0407C20.1761 19.8023 19.9532 19.2612 19.9157 18.9026C19.5748 18.7527 19.3388 18.5287 19.2077 18.2384C19.0475 17.8779 19.1046 17.5165 19.1477 17.3406C18.8162 17.2166 18.4678 16.9907 18.1119 16.6274H14.3674C14.5285 17.0695 14.6643 17.5492 14.6643 18.026V22.9475Z" fill="#FFE710"/>
<path fill-rule="evenodd" clip-rule="evenodd" d="M18.0838 25.0689C18.0238 25.0632 17.9732 25.1112 17.9676 25.1727C17.9639 25.2362 18.0098 25.29 18.0716 25.291C18.1297 25.2958 18.1822 25.2496 18.1887 25.1872C18.1906 25.1276 18.1475 25.0718 18.0838 25.0689Z" fill="#231F20"/>
<path fill-rule="evenodd" clip-rule="evenodd" d="M23.0354 33.7161L22.5475 32.3377C23.1272 32.157 24.1256 31.7658 24.5733 31.5072L24.2755 32.5098L25.286 32.8539C24.6744 33.1692 23.9336 33.4633 23.0354 33.7161ZM20.0066 34.9542C18.8302 34.9542 17.4891 34.6764 17.0929 34.5322L17.6942 32.8645C18.1924 33.0135 19.2292 33.1721 19.9813 33.1673H19.9831H20.0066H20.0262H20.0281C20.7811 33.1721 21.816 33.0135 22.3171 32.8645L22.9165 34.5322C22.5222 34.6764 21.1791 34.9542 20.0066 34.9542ZM14.7237 32.8549L15.7352 32.5107L15.4364 31.5082C15.8831 31.7677 16.8825 32.158 17.4622 32.3387L16.9742 33.7171C16.0789 33.4633 15.3343 33.1692 14.7237 32.8549ZM25.3319 32.5482L24.7175 32.306L24.888 31.6533L25.0744 30.942C25.0744 30.942 23.9842 31.5495 22.4473 32.0041C22.0108 32.132 21.6812 32.1916 21.6812 32.1916V32.676C21.6812 32.676 20.8598 32.8222 20.029 32.8222H20.0187H20.0066H19.9897H19.9803C19.1487 32.8222 18.3282 32.676 18.3282 32.676V32.1916C18.3282 32.1916 17.9967 32.132 17.563 32.0041C16.0261 31.5485 14.9369 30.942 14.9369 30.942L15.1205 31.6533L15.2947 32.306L14.6775 32.5482L13.9938 32.8106C14.7777 33.1999 15.865 33.7661 16.8606 34.0458L16.6265 34.7042C16.6265 34.7042 17.888 35.2944 19.9906 35.2992V35.3012H19.9972H20.0075H20.015H20.0197V35.2983C22.1251 35.2935 23.3867 34.7033 23.3867 34.7033L23.1506 34.0448C24.1453 33.7651 25.2354 33.199 26.0165 32.8097L25.3319 32.5482Z" fill="#231F20"/>
<path fill-rule="evenodd" clip-rule="evenodd" d="M17.4359 5.99808L17.715 6.02788L17.8368 5.76643L18.1889 4.99264L18.8436 5.33964L19.0965 5.47229L19.2988 5.26755L20.005 4.54855L20.7121 5.26755L20.9153 5.47229L21.1691 5.33964L21.8191 4.99264L22.1769 5.76643L22.2958 6.02788L22.5749 5.99808L22.8428 5.96444C22.7201 6.24704 22.6292 6.51715 22.5656 6.73919C21.8594 6.33548 20.9415 6.10574 20.0059 6.10574C19.074 6.10574 18.1571 6.33548 17.4491 6.73919C17.3844 6.51715 17.2945 6.248 17.1718 5.96444L17.4359 5.99808ZM20.0037 6.50945C21.2569 6.50945 22.2581 6.93528 22.8125 7.38898C22.8125 7.38898 22.9764 6.37296 23.5374 5.47613L22.5287 5.59436L22.0015 4.44377L20.9881 4.98013L20.0037 3.98238L19.0231 4.98013L18.007 4.44377L17.4806 5.59436L16.4719 5.47613C17.0339 6.37296 17.1968 7.38898 17.1968 7.38898C17.7541 6.93528 18.7534 6.50945 20.0037 6.50945Z" fill="#231F20"/>
<path fill-rule="evenodd" clip-rule="evenodd" d="M35.8798 23.6011C35.8798 23.6011 35.4433 24.3797 34.4431 24.3797H34.43C33.2293 24.373 32.7441 23.6203 32.7441 23.6203C32.7441 23.6203 32.8134 24.5989 32.3817 25.9186C31.8591 27.5095 32.3864 28.6466 32.3864 28.6466C32.3864 28.6466 32.1044 28.7245 31.7813 28.7245C31.6586 28.7245 31.5294 28.712 31.4076 28.6793C30.4055 28.4351 30.1545 27.497 30.1545 27.497C30.1545 27.497 30.2472 30.6633 26.6498 30.6633H26.6227C26.6227 30.6633 26.9392 30.2211 27.0329 28.9475C27.2043 26.5982 28.7534 26.2752 28.7534 26.2752C28.7534 26.2752 27.9255 26.1695 27.5668 25.8398C27.0067 25.3179 27.046 24.7161 27.046 24.7161C28.3113 24.6979 29.1402 24.2557 29.7724 23.5059C30.4561 22.6937 30.5694 21.819 30.5694 21.819C30.5694 21.819 29.8885 22.4515 28.5736 22.4515C28.4574 22.4515 28.3338 22.4457 28.2064 22.4332C27.5836 22.3813 27.1537 21.9757 27.1537 21.9757C28.5239 21.074 29.4839 19.5014 28.6316 17.133C27.9489 15.2345 26.3089 13.8167 24.6578 12.7488C24.108 12.397 23.8017 12.0048 23.8017 11.6684C23.8017 10.8754 24.9013 10.8494 25.3508 10.3169C25.8716 9.6969 25.5447 8.69337 25.0951 8.08876C25.0951 8.08876 25.2469 8.05704 25.4857 8.05704C25.9615 8.05704 26.7847 8.17911 27.46 8.89908C28.3572 9.85165 27.9854 10.8907 27.9854 10.8907L28.2261 10.9388C28.3694 10.9696 28.5136 10.9753 28.6625 10.984C28.6934 10.984 28.7262 10.9849 28.759 10.9849C30.0637 10.9849 30.6471 9.58539 30.6471 9.58539C30.6471 9.58539 32.0333 11.3358 29.9915 12.7084C29.6403 12.943 29.4858 13.1602 29.5261 13.3919L29.5579 13.5437L29.7031 13.5707C31.1829 13.9821 31.9321 15.0308 32.8453 16.2217C34.2342 18.0327 36.1982 18.0913 36.4408 18.0913H36.467C36.467 18.0913 36.0184 19.5437 34.6978 19.5437C34.6753 19.5437 34.6566 19.5437 34.6351 19.5428C34.0291 19.5207 33.7172 19.2823 33.7172 19.2823C33.7172 19.2823 33.4812 22.5793 35.8798 23.6011ZM34.6986 19.9888C36.3179 19.9888 36.8602 18.298 36.8827 18.2259L37.0634 17.63L36.4565 17.6492H36.4537C36.2393 17.6492 34.4523 17.6002 33.186 15.9478L33.0661 15.794C32.2382 14.7136 31.4524 13.686 30.0485 13.2169C30.0888 13.1785 30.1468 13.1333 30.2265 13.0795C30.972 12.5768 31.4056 11.9654 31.5142 11.257C31.6735 10.19 31.0104 9.33935 30.9813 9.30474L30.5308 8.73185L30.2489 9.41144C30.2293 9.45373 29.7563 10.5409 28.7588 10.5409H28.6849C28.6165 10.537 28.5509 10.5342 28.4872 10.5293C28.5219 10.0449 28.4357 9.29417 27.7726 8.58959C26.9747 7.74274 25.9969 7.61586 25.4865 7.61586C25.2139 7.61586 25.0322 7.65046 25.0116 7.65239L24.3307 7.79177L24.7503 8.36081C25.0809 8.79913 25.3788 9.60753 25.0247 10.0295C24.9114 10.1641 24.6782 10.2727 24.4553 10.3823C23.9973 10.5986 23.3707 10.9013 23.3707 11.6694C23.3707 12.1663 23.7463 12.6864 24.4281 13.1285C26.4446 14.43 27.6883 15.7892 28.2269 17.2887C29.0586 19.5947 27.9731 20.9106 26.9194 21.6046L26.4474 21.9161L26.8604 22.3063C26.9166 22.3563 27.4214 22.8139 28.1688 22.8802C28.3102 22.8898 28.446 22.8975 28.5734 22.8975C29.052 22.8975 29.4594 22.8206 29.7919 22.7168C29.7001 22.8802 29.5877 23.0484 29.4472 23.2166C28.845 23.9327 28.1042 24.2586 27.0393 24.2769L26.6441 24.2826L26.6141 24.6902C26.6094 24.7719 26.5804 25.5284 27.2763 26.1705C27.383 26.2705 27.5113 26.3522 27.6471 26.4185C27.1742 26.8558 26.6937 27.6162 26.601 28.9186C26.5223 30.0058 26.2694 30.4086 26.2676 30.4124L25.8302 31.0978L26.6207 31.1093C27.9272 31.1093 28.9274 30.7392 29.6205 30.0068C30.0307 29.5732 30.2649 29.083 30.4025 28.6495C30.6301 28.8485 30.9242 29.0225 31.3063 29.1157C31.4515 29.1503 31.6098 29.1695 31.7821 29.1695C32.1521 29.1695 32.4611 29.0888 32.4948 29.0801L32.9997 28.9427L32.7767 28.4592C32.7599 28.4198 32.3394 27.4489 32.7927 26.0657C32.9884 25.4659 33.0877 24.9305 33.1364 24.5133C33.4539 24.6835 33.88 24.8228 34.4307 24.8257C35.6801 24.8257 36.2318 23.8674 36.2552 23.827L36.5015 23.3868L36.0454 23.1936C34.5572 22.5591 34.2275 20.8549 34.161 19.9321C34.2959 19.959 34.4495 19.9831 34.6227 19.9888H34.6986Z" fill="#231F20"/>
<path fill-rule="evenodd" clip-rule="evenodd" d="M32.8782 12.7537C33.1807 12.7537 33.5319 12.8594 33.8644 13.2122C34.9087 14.2993 35.879 14.3608 35.879 14.3608C35.7029 14.7617 35.1915 15.1135 34.6614 15.1135C34.5387 15.1135 34.4161 15.0943 34.2943 15.051C33.575 14.802 33.3184 13.6966 32.0568 13.0084C32.0578 13.0074 32.4099 12.7537 32.8782 12.7537ZM31.8523 13.4006C32.4564 13.7312 32.8086 14.1734 33.1167 14.5665C33.4201 14.9491 33.7077 15.3182 34.1582 15.471C34.3183 15.5278 34.4888 15.5537 34.6611 15.5537C35.3373 15.5537 36.0154 15.1288 36.2739 14.5415L36.5324 13.9523L35.9058 13.9138C35.8758 13.9129 35.0694 13.837 34.1731 12.8969C33.8041 12.5114 33.3574 12.3086 32.8769 12.3086C32.2897 12.3086 31.8542 12.6095 31.8064 12.6412L31.2314 13.0574L31.8523 13.4006Z" fill="#231F20"/>
<path fill-rule="evenodd" clip-rule="evenodd" d="M32.1361 19.2727V19.2958C31.7718 16.2852 29.642 14.1109 27.2725 12.7892C27.0533 12.6681 26.8501 12.5662 26.6544 12.4681C27.3755 12.5835 28.5378 12.5969 29.435 11.7982C29.436 11.7982 28.062 12.8344 25.2514 11.8933C26.0287 12.4124 27.5404 13.1429 28.9227 14.3281C32.374 17.4406 29.9052 20.4771 29.9052 20.4771C31.1443 19.1487 31.1967 17.7251 30.8315 16.563C31.4843 17.679 31.9029 19.0324 31.8364 20.703C31.7418 23.0955 30.4597 25.165 29.1129 26.827C28.4648 27.6335 28.3196 28.6255 28.3196 28.6255C28.3196 28.6255 28.5809 27.7507 29.3311 26.8501C30.7753 25.1141 32.0106 23.3108 32.1726 20.7126C32.3225 21.1846 32.9369 22.4947 33.9137 22.9888C33.9147 22.9878 32.6868 22.2294 32.1361 19.2727Z" fill="#231F20"/>
<path fill-rule="evenodd" clip-rule="evenodd" d="M13.3594 30.6642C9.76201 30.6642 9.85379 27.4979 9.85379 27.4979C9.85379 27.4979 9.60279 28.436 8.60066 28.6802C8.48078 28.7129 8.35247 28.7254 8.2279 28.7254C7.90478 28.7254 7.62475 28.6475 7.62475 28.6475C7.62475 28.6475 8.14829 27.5104 7.62662 25.9195C7.1958 24.5998 7.26604 23.6212 7.26604 23.6212C7.26604 23.6212 6.78183 24.3729 5.57927 24.3806H5.5671C4.56777 24.3806 4.13039 23.602 4.13039 23.602C6.52802 22.5802 6.29294 19.2832 6.29294 19.2832C6.29294 19.2832 5.98106 19.5216 5.37416 19.5437C5.35169 19.5446 5.33202 19.5446 5.31141 19.5446C3.98897 19.5446 3.54129 18.0922 3.54129 18.0922H3.56751C3.81196 18.0922 5.77314 18.0326 7.16208 16.2217C8.07711 15.0307 8.82637 13.983 10.3033 13.5716L10.4523 13.5446L10.4832 13.3928C10.5244 13.1611 10.3698 12.9429 10.0186 12.7093C7.9769 11.3367 9.36397 9.58726 9.36397 9.58726C9.36397 9.58726 9.9437 10.9868 11.2521 10.9868C11.283 10.9868 11.313 10.9859 11.3476 10.9859C11.4947 10.9772 11.6398 10.9714 11.7831 10.9407L12.0238 10.8926C12.0238 10.8926 11.6501 9.85352 12.5502 8.90094C13.2273 8.18098 14.0487 8.0589 14.5235 8.0589C14.7642 8.0589 14.9141 8.09062 14.9141 8.09062C14.4645 8.69524 14.1386 9.69972 14.6584 10.3188C15.108 10.8513 16.2066 10.8772 16.2066 11.6702C16.2066 12.0067 15.9003 12.3989 15.3524 12.7507C13.6984 13.8186 12.0594 15.2364 11.3767 17.1348C10.5263 19.5033 11.4862 21.0759 12.8583 21.9775C12.8583 21.9775 12.4266 22.3832 11.8028 22.4351C11.6764 22.4476 11.5527 22.4533 11.4347 22.4533C10.1217 22.4533 9.44076 21.8208 9.44076 21.8208C9.44076 21.8208 9.55315 22.6956 10.234 23.5078C10.87 24.2566 11.697 24.6997 12.9632 24.718C12.9632 24.718 13.0035 25.3197 12.4434 25.8407C12.0838 26.1714 11.2568 26.2771 11.2568 26.2771C11.2568 26.2771 12.8068 26.6001 12.9782 28.9484C13.0709 30.222 13.3856 30.6642 13.3856 30.6642H13.3594ZM13.7422 30.4114C13.7413 30.4075 13.4893 30.0048 13.4097 28.9176C13.3151 27.6142 12.8356 26.8548 12.3617 26.4175C12.4984 26.3512 12.6258 26.2695 12.7326 26.1695C13.4285 25.5274 13.3994 24.7709 13.3938 24.6892L13.3676 24.2816L12.9686 24.2759C11.9065 24.2576 11.1638 23.9327 10.5625 23.2156C10.4239 23.0474 10.3097 22.8802 10.2179 22.7158C10.5494 22.8196 10.955 22.8965 11.4354 22.8965C11.5647 22.8965 11.6977 22.8888 11.84 22.8792C12.5883 22.8129 13.0941 22.3563 13.1503 22.3053L13.5633 21.9151L13.0913 21.6036C12.0339 20.9096 10.9531 19.5947 11.7838 17.2877C12.3214 15.7882 13.5633 14.43 15.5835 13.1275C16.2663 12.6853 16.639 12.1653 16.639 11.6684C16.639 10.8994 16.0134 10.5976 15.5554 10.3813C15.3325 10.2717 15.0993 10.1621 14.986 10.0285C14.631 9.60652 14.9298 8.79813 15.2604 8.35981L15.6828 7.79076L14.9991 7.65138C14.9794 7.64946 14.7996 7.61485 14.5252 7.61485C14.0138 7.61485 13.0379 7.74174 12.2418 8.58954C11.5778 9.29412 11.4897 10.0448 11.5235 10.5293C11.4607 10.5341 11.3952 10.537 11.3268 10.5408H11.2547C10.2544 10.5408 9.78237 9.45369 9.76364 9.41139L9.48267 8.7318L9.02749 9.3047C9.00221 9.3393 8.33724 10.19 8.49927 11.257C8.60604 11.9654 9.04061 12.5767 9.78612 13.0794C9.86666 13.1323 9.92286 13.1785 9.96313 13.2169C8.55733 13.685 7.77342 14.7135 6.94549 15.794L6.82561 15.9478C5.5603 17.6001 3.76864 17.6501 3.5551 17.6501L2.94539 17.6299L3.13083 18.2268C3.15237 18.2989 3.69277 19.9897 5.31305 19.9897L5.39078 19.9878C5.56311 19.983 5.71671 19.958 5.85251 19.9311C5.78695 20.8529 5.4554 22.5572 3.96532 23.1926L3.51108 23.3858L3.7574 23.826C3.78081 23.8664 4.33339 24.8247 5.58559 24.8247C6.13255 24.8228 6.55775 24.6825 6.87712 24.5123C6.92489 24.9295 7.0251 25.4659 7.21991 26.0647C7.67321 27.4479 7.25082 28.4197 7.23583 28.4582L7.01199 28.9417L7.51774 29.0791C7.55052 29.0878 7.8624 29.1685 8.23047 29.1685C8.4028 29.1685 8.56202 29.1493 8.70531 29.1147C9.08837 29.0215 9.38527 28.8475 9.61004 28.6485C9.74678 29.082 9.9828 29.5713 10.3911 30.0058C11.0861 30.7392 12.0863 31.1083 13.391 31.1083L14.1824 31.0968L13.7422 30.4114Z" fill="#231F20"/>
<path fill-rule="evenodd" clip-rule="evenodd" d="M6.14428 13.2112C6.4777 12.8584 6.82891 12.7527 7.1333 12.7527C7.59971 12.7527 7.9528 13.0064 7.9528 13.0064C6.69311 13.6956 6.43274 14.801 5.71345 15.05C5.59451 15.0932 5.47088 15.1115 5.34819 15.1115C4.81903 15.1115 4.30672 14.7597 4.13065 14.3589C4.13158 14.3598 5.10187 14.2993 6.14428 13.2112ZM5.34885 15.5546C5.52211 15.5546 5.69163 15.5277 5.85179 15.472C6.30321 15.3182 6.59074 14.951 6.89419 14.5665C7.2042 14.1743 7.55167 13.7312 8.15669 13.4015L8.77951 13.0593L8.20165 12.6421C8.15388 12.6114 7.72025 12.3105 7.13302 12.3105C6.65162 12.3105 6.20487 12.5123 5.83586 12.8988C4.93863 13.8388 4.13505 13.9148 4.10508 13.9157L3.47945 13.9532L3.73513 14.5425C3.99456 15.1298 4.67358 15.5546 5.34885 15.5546Z" fill="#231F20"/>
<path fill-rule="evenodd" clip-rule="evenodd" d="M8.17388 20.702C8.10644 19.0323 8.52509 17.678 9.17882 16.562C8.81356 17.7241 8.86319 19.1467 10.1051 20.4761C10.1051 20.4761 7.63441 17.4396 11.0885 14.3271C12.469 13.1429 13.9797 12.4104 14.758 11.8923C11.9473 12.8334 10.5743 11.7971 10.5743 11.7971C11.4716 12.5959 12.6338 12.5815 13.355 12.4671C13.1602 12.5652 12.9551 12.6671 12.7378 12.7882C10.3664 14.1099 8.23663 16.2832 7.8723 19.2947V19.2717C7.3216 22.2284 6.09656 22.9878 6.09656 22.9878C7.07153 22.4947 7.68592 21.1836 7.83484 20.7116C7.99874 23.3108 9.23314 25.1131 10.6783 26.8491C11.4275 27.7497 11.6916 28.6244 11.6916 28.6244C11.6916 28.6244 11.5455 27.6325 10.8937 26.826C9.54877 25.165 8.26847 23.0955 8.17388 20.702Z" fill="#231F20"/>
<path fill-rule="evenodd" clip-rule="evenodd" d="M19.1927 14.6107V15.2086C19.3941 14.9578 19.7801 15.0087 19.7801 15.0087L19.7811 15.87C19.7811 15.87 19.7679 16.2929 19.6208 16.4765H20.0415H20.4594C20.3151 16.2939 20.3001 15.87 20.3001 15.87V15.0087C20.3001 15.0087 20.689 14.9578 20.8876 15.2086L20.8885 14.6107H20.0415H19.1927Z" fill="#231F20"/>
<path fill-rule="evenodd" clip-rule="evenodd" d="M18.8323 11.0695C19.1003 11.2887 19.2558 11.3243 19.2605 11.3281L19.3654 11.3781V10.8167L18.3788 10.3919C18.3797 10.3909 18.3872 10.7168 18.8323 11.0695Z" fill="#231F20"/>
<path fill-rule="evenodd" clip-rule="evenodd" d="M21.1765 11.0695C21.6225 10.7158 21.63 10.39 21.63 10.39L20.6434 10.8148V11.3762L20.7474 11.3262C20.754 11.3252 20.9086 11.2887 21.1765 11.0695Z" fill="#231F20"/>
<path fill-rule="evenodd" clip-rule="evenodd" d="M20.0038 9.5729L17.6286 8.60975C17.8309 8.11856 18.7619 7.70139 20.0038 7.70043C21.2466 7.70139 22.1775 8.11952 22.3789 8.60975L20.0038 9.5729ZM21.7754 12.5892L20.1789 13.4524V9.95545L22.3451 9.20089L21.7754 12.5892ZM22.7629 13.5178L23.4925 13.9532H23.5037L23.6864 14.0628C23.2752 14.1801 22.9596 14.3915 22.6945 14.6693C22.6842 14.678 22.6758 14.6886 22.6664 14.6991C22.6055 14.7655 22.5447 14.8366 22.4885 14.9106C22.4772 14.925 22.466 14.9394 22.4538 14.9548C22.3976 15.0298 22.3442 15.1057 22.2937 15.1855C22.2843 15.199 22.2749 15.2134 22.2665 15.2259C22.2066 15.3182 22.1485 15.4172 22.0904 15.52C21.5697 16.439 20.7418 16.9888 20.0028 16.9897C19.2657 16.9888 18.4359 16.439 17.9171 15.52C17.8599 15.4201 17.8028 15.3239 17.7429 15.2297C17.7307 15.2124 17.7204 15.1942 17.7091 15.1797C17.6576 15.1029 17.6071 15.0279 17.5546 14.9587C17.5415 14.9394 17.5303 14.925 17.5162 14.9077C17.4591 14.8366 17.4019 14.7664 17.3429 14.7011C17.3298 14.6905 17.3223 14.678 17.3111 14.6674C17.0451 14.3896 16.7314 14.1801 16.3183 14.0628L16.5038 13.9532H16.5122L17.2437 13.5178L17.9939 13.0766L19.9981 14.1964L20.0019 14.1926L20.0075 14.1964L22.0118 13.0766L22.7629 13.5178ZM25.6438 16.6274C25.4799 17.0705 25.345 17.5492 25.345 18.026L25.3469 21.1029C24.7203 20.9952 24.6463 20.3022 24.6435 20.2724L24.6323 20.132L24.4965 20.1195C24.2249 20.0926 24.0441 19.9754 23.8914 19.8225C23.5843 19.5072 23.5833 18.9968 23.5843 18.992C23.5796 19.018 23.2461 19.4976 23.6339 20.0225C23.7969 20.2426 24.0329 20.3791 24.3382 20.4319C24.4103 20.8155 24.6894 21.3586 25.3459 21.4412V22.9465H23.4972C22.6449 22.4601 23.0064 21.6037 23.0223 21.5662L23.0944 21.4037L22.9305 21.3403C22.008 20.9895 22.2627 20.0446 22.2749 20.0032L22.3124 19.8658L22.1859 19.8052C21.4245 19.4428 21.5266 18.4662 21.5378 18.4249C21.3028 18.62 21.2185 19.018 21.3796 19.4082C21.2925 19.5111 21.1754 19.6341 21.0471 19.7706C20.2575 19.564 20.2341 18.82 20.2341 18.7863L20.2323 18.671L20.1283 18.6306C19.8202 18.5133 19.6085 18.3374 19.5045 18.101C19.3875 17.8405 19.4287 17.5665 19.4605 17.4348C19.5514 17.456 19.6403 17.4704 19.7265 17.4781C19.8164 17.4877 19.9063 17.4935 19.9981 17.4935H20.0037H20.0112C20.103 17.4935 20.192 17.4877 20.2819 17.4781C20.7727 17.4281 21.3234 17.2109 21.8984 16.6274H25.6438ZM23.3347 30.0355L23.5417 28.9321C23.552 28.8677 23.5651 28.7917 23.5744 28.7283C23.6325 28.7533 23.6934 28.7735 23.7608 28.7859C23.8376 28.8013 23.9088 28.809 23.9734 28.809C24.289 28.809 24.4726 28.6389 24.5944 28.4937L24.7526 28.3053L24.6234 28.0967C24.6112 28.0766 24.3256 27.6123 24.1045 27.2941C24.0605 27.2316 24.0202 27.1692 23.9781 27.1019C23.7271 26.7174 23.4133 26.2358 22.7849 26.2358L22.7287 26.2368C22.6257 26.2435 22.5367 26.2646 22.4646 26.2925C22.267 26.1983 22.0628 26.1483 21.8511 26.1483C21.5917 26.1483 21.3726 26.2223 21.2274 26.2733C21.1852 26.2858 21.1478 26.2992 21.1187 26.305L19.9433 26.1858C19.9284 26.1829 19.8815 26.1531 19.8216 26.083V26.0772L20.0754 25.9724C20.0042 25.1025 19.1913 24.569 18.737 24.3874C18.7174 24.3008 18.6771 24.2134 18.605 24.1432L18.3521 23.8981L18.1301 24.1711L18.0215 24.3105L16.3759 23.6164L17.4464 24.9958L17.024 25.6523C16.8695 25.8206 17.0409 25.9907 17.0409 25.9907L17.4773 26.2992L17.9297 26.1262C17.9456 26.1262 17.9587 26.1301 17.9747 26.132C17.9531 26.2022 17.9232 26.479 17.9054 26.5559L17.1196 26.3983L16.2954 26.876C15.8711 27.1961 15.8121 27.7247 15.9704 28.0862L16.0612 28.2909L16.1924 28.5812L16.4808 28.4591C16.4855 28.4582 16.4893 28.4562 16.4921 28.4543C16.389 28.7946 16.4312 29.1185 16.6157 29.33L16.7918 29.5559L17.025 29.8587L17.2807 29.5761C17.3547 29.4992 17.6 29.2185 17.675 28.9782L17.7312 28.7946L17.6057 28.6533L17.586 28.6283L17.7255 28.3899L18.7511 28.6379L18.9824 28.6927L19.1042 28.4851L19.1707 28.3726C19.1838 28.3486 19.1866 28.3447 19.2334 28.3447C19.2699 28.3447 19.3065 28.3486 19.3458 28.3572C19.7317 28.4332 20.0894 28.4697 20.406 28.4697C20.7123 28.4697 20.8958 28.4582 21.115 28.3832C21.115 28.3832 21.6657 29.0243 21.6844 29.0493L21.3473 30.1163L21.3323 30.1807C20.6935 30.2336 20.3826 30.3777 20.007 30.7622C19.4619 30.2066 19.0761 30.149 17.6094 30.149C15.8543 30.149 14.6639 29.0926 14.6639 27.4056V23.2819H25.3464L25.3483 27.4056C25.3483 28.7696 24.5663 29.7251 23.3347 30.0355ZM16.754 27.7046L16.8103 27.8478C16.7737 27.9718 16.3568 28.1487 16.3568 28.1487L16.2668 27.9468C16.1703 27.7305 16.1909 27.3672 16.4814 27.1451L17.1579 26.7232L17.8746 26.8789C17.8615 27.1125 17.9974 27.2864 17.9974 27.2864L17.2469 27.1384L16.7971 27.4575C16.7203 27.5104 16.7147 27.6113 16.754 27.7046ZM23.2209 28.8696L22.9905 30.1029C22.8434 30.124 22.6889 30.1356 22.5278 30.1423L22.7713 28.9571C22.8434 28.6043 21.9219 28.4947 21.4657 27.8027C21.2438 28.0593 20.8251 28.1362 20.4046 28.1362C20.0206 28.1362 19.6376 28.0737 19.4043 28.0257C19.3453 28.016 19.2882 28.0093 19.232 28.0093C19.0972 28.0093 18.9754 28.0526 18.8902 28.1977L18.8237 28.314L17.5677 28.0112L17.2549 28.5418C17.2118 28.6284 17.2081 28.7004 17.2793 28.7812L17.3636 28.8763C17.3055 29.0638 17.0442 29.3483 17.0442 29.3483L16.8578 29.109C16.7098 28.9398 16.7332 28.6284 16.8878 28.3419L17.386 27.4787L18.45 27.6364L18.2842 27.2499C18.0622 26.7376 18.4013 26.0888 18.4369 25.7129C18.4247 25.8264 18.3235 25.8523 18.2055 25.8523C18.0988 25.8523 17.9789 25.8312 17.8993 25.8312C17.8674 25.8312 17.8412 25.8341 17.8262 25.8456L17.5378 26.0253L17.3111 25.8187C17.283 25.7793 17.2746 25.686 17.3411 25.6168L17.8674 25.0112L17.2465 24.2653L18.1166 24.7142L18.3825 24.3836C18.4556 24.4566 18.4238 24.6489 18.4238 24.6489C18.6954 24.6556 19.4577 25.0881 19.4971 26.0974C19.4999 26.1282 19.4999 26.1628 19.4999 26.1964C19.4999 26.1964 19.5074 26.2089 19.5195 26.2301C19.5739 26.306 19.7228 26.5011 19.911 26.5184L21.1136 26.6405H21.1192C21.2513 26.6405 21.5135 26.481 21.8497 26.481C22.0333 26.481 22.2375 26.529 22.4548 26.6694C22.4548 26.6694 22.5653 26.5809 22.7423 26.5713C22.7563 26.5704 22.7713 26.5704 22.7835 26.5704C23.3239 26.5704 23.5477 27.0712 23.8381 27.4864C24.0554 27.8036 24.3466 28.2727 24.3466 28.2727C24.2399 28.4034 24.1397 28.4765 23.972 28.4765C23.9261 28.4765 23.8746 28.4726 23.8175 28.4611C23.2387 28.3515 23.1544 27.1298 22.8238 27.0337C22.806 27.0289 22.7882 27.0269 22.7713 27.0269C22.6655 27.0269 22.6187 27.124 22.6187 27.124C22.7695 27.5412 22.6805 27.7085 22.8434 28.0295C22.9652 28.2679 23.1806 28.463 23.2696 28.5553C23.2705 28.5543 23.2462 28.735 23.2209 28.8696ZM22.1131 30.15C21.951 30.15 21.802 30.1519 21.6671 30.1576L22.0203 29.0311C22.0756 28.8744 21.7964 28.6745 21.6812 28.4986C21.8554 28.611 22.3052 28.8561 22.5216 28.9542C22.5 28.9907 22.1131 30.15 22.1131 30.15ZM16.8718 19.9975L16.9224 18.0385L17.3506 17.5732L17.6195 18.1509L17.0892 20.0321L16.8718 19.9975ZM17.1803 20.603C17.2497 20.7539 17.3762 20.8549 17.4642 20.9116C17.4614 21.0529 17.4483 21.272 17.4127 21.4652C17.4033 21.5085 17.393 21.5489 17.3818 21.5883C17.3752 21.6133 17.3677 21.6344 17.3631 21.6508C17.2309 21.6508 16.9752 21.6344 16.7634 21.5556C16.531 21.4681 16.1834 21.0298 16.264 20.5463C16.3643 20.4829 16.5976 20.3483 16.8168 20.3483C16.9855 20.3492 17.0998 20.43 17.1803 20.603ZM22.1401 21.1298C21.8104 21.3787 20.9619 22.0151 20.6547 22.2352L17.6913 21.6883C17.6988 21.6613 17.7063 21.6344 17.7119 21.6075C17.7503 21.4489 17.7906 21.2346 17.7925 20.9808L20.2828 21.0212L20.3297 20.9712C20.3681 20.9327 21.1567 20.1503 21.5585 19.7004C21.6549 19.8235 21.7729 19.9407 21.9303 20.0436C21.8778 20.3454 21.9003 20.7712 22.1401 21.1298ZM18.1122 16.6274C18.4691 16.9907 18.8175 17.2166 19.1481 17.3406C19.105 17.5156 19.0488 17.8779 19.208 18.2384C19.3382 18.5297 19.5752 18.7536 19.9161 18.9016C19.9535 19.2611 20.1755 19.8023 20.788 20.0407C20.5202 20.3185 20.2589 20.58 20.153 20.6857L17.6683 20.6453C17.6121 20.6165 17.5156 20.5511 17.4726 20.4588C17.4679 20.4463 17.4594 20.4387 17.4538 20.4262L17.8603 20.4934C17.8687 20.4944 17.8781 20.4944 17.8856 20.4944C17.9643 20.4944 18.0317 20.4387 18.0448 20.356C18.0588 20.2637 17.998 20.1782 17.9109 20.1647L17.4126 20.084L17.9652 18.1221L17.4407 16.9898L16.6015 17.902L16.5491 19.9417L15.9843 19.8494C15.8972 19.8321 15.8139 19.8975 15.7989 19.9878C15.7848 20.0772 15.8448 20.1628 15.9338 20.1791L16.1707 20.2166C16.0864 20.2656 16.0302 20.305 16.0237 20.3108L15.9759 20.3454L15.9619 20.406C15.8251 20.9789 16.1361 21.522 16.4714 21.7652L16.4592 21.8382C16.4442 21.9257 16.4648 22.0122 16.5163 22.0833C16.566 22.1564 16.6399 22.2006 16.7252 22.216C16.743 22.2189 16.7608 22.2198 16.7767 22.2198C16.9228 22.2198 17.0492 22.117 17.0848 21.9661C17.2103 21.9814 17.3246 21.9853 17.4032 21.9853H17.4688L20.729 22.5899L20.7852 22.5514C21.0437 22.3659 22.0346 21.6248 22.3596 21.3787C22.4495 21.4585 22.5488 21.5297 22.6696 21.5883C22.5647 21.9497 22.5581 22.5072 22.973 22.9465H14.6638V18.025C14.6638 17.5482 14.528 17.0695 14.3678 16.6264H18.1122V16.6274ZM17.6623 9.20187L19.8313 9.95643V13.4534L18.2338 12.5902L17.6623 9.20187ZM22.9521 8.77988C22.9521 7.92726 21.5528 7.15924 20.0075 7.15924H20.0066H20.0028H19.9991C18.4556 7.15924 17.0554 7.9263 17.0554 8.77988L17.0854 8.98942L17.7026 12.6229L17.0826 12.992L15.4801 13.9532H15.4857C15.4857 13.9532 15.1251 14.1426 14.9594 14.2599C14.3487 14.6943 14.2195 15.3297 14.5735 15.5921C14.6606 15.074 15.0596 14.5338 15.8051 14.5338C16.3427 14.5338 16.7529 14.8183 17.0826 15.2451C17.1687 15.3528 17.2493 15.4681 17.3242 15.5921C17.4169 15.7478 17.5106 15.8853 17.6024 16.017H13.4749C13.7783 16.6427 14.0668 17.306 14.0668 18.026V27.4028C14.0668 29.6722 15.7667 30.7555 17.6071 30.7555C19.0288 30.7555 19.2208 30.6892 20.0047 31.4909C20.7858 30.6892 20.9778 30.7555 22.4014 30.7555C24.2417 30.7555 25.9398 29.6722 25.9398 27.4028V18.026C25.9398 17.305 26.2282 16.6427 26.5326 16.017H22.4042C22.496 15.8853 22.5887 15.7478 22.6814 15.5921C22.7582 15.4681 22.8378 15.3528 22.9221 15.2451C23.2555 14.8164 23.6639 14.5338 24.2024 14.5338C24.947 14.5338 25.346 15.074 25.434 15.5921C25.788 15.3297 25.6597 14.6943 25.0463 14.2599C24.8814 14.1426 24.5199 13.9532 24.5199 13.9532H24.5265L22.9212 12.992L22.304 12.6229L22.9212 8.98942L22.9521 8.77988Z" fill="#231F20"/>
</svg>
