<svg width="40" height="40" viewBox="0 0 40 40" fill="none" xmlns="http://www.w3.org/2000/svg">
<path d="M30.3723 14.8713C30.3723 14.3901 29.966 14 29.4648 14C28.9636 14 28.5573 14.3901 28.5573 14.8713V24.082C28.5573 25.2667 29.3148 26.3298 30.4648 26.7592C31.3693 27.0969 32.3881 26.9925 33.1979 26.479L37.7017 23.6236C38.9224 22.8496 39.3487 21.3221 38.6944 20.0658C38.1379 18.9971 36.9315 18.3903 35.6995 18.5593L32.5775 18.9875C32.0814 19.0555 31.7366 19.4968 31.8075 19.9732C31.8784 20.4495 32.338 20.7805 32.8342 20.7125L35.9562 20.2843C36.4148 20.2214 36.8639 20.4473 37.0711 20.8451C37.3146 21.3127 37.1559 21.8814 36.7015 22.1695L32.1978 25.0249C31.8792 25.2269 31.4784 25.268 31.1227 25.1352C30.6703 24.9663 30.3723 24.548 30.3723 24.082V14.8713Z" fill="#159A3F"/>
<path d="M14.0101 16.1889C14.5086 15.8684 15.157 15.86 15.6642 16.1676C16.1042 16.4344 16.371 16.8991 16.371 17.3988V24.082C16.371 25.2667 17.1285 26.3298 18.2785 26.7592C19.183 27.0969 20.2019 26.9925 21.0117 26.479L25.5154 23.6236C26.7362 22.8496 27.1624 21.3221 26.5081 20.0658C25.9516 18.9971 24.7452 18.3903 23.5132 18.5593L20.3912 18.9875C19.8951 19.0555 19.5503 19.4968 19.6212 19.9732C19.6921 20.4495 20.1518 20.7805 20.6479 20.7125L23.7699 20.2843C24.2285 20.2214 24.6776 20.4473 24.8848 20.8451C25.1283 21.3127 24.9696 21.8814 24.5152 22.1695L20.0115 25.0249C19.6929 25.2269 19.2922 25.268 18.9364 25.1352C18.484 24.9663 18.186 24.548 18.186 24.082V17.3988C18.186 16.3013 17.5999 15.2803 16.6334 14.6943C15.5192 14.0186 14.0948 14.037 13 14.7412L2.2847 21.6329C1.15554 22.3592 0.704178 23.7415 1.19944 24.9567C1.69621 26.1755 3.011 26.8968 4.35694 26.6889L14.052 25.191C14.5469 25.1146 14.8834 24.6675 14.8038 24.1924C14.7242 23.7173 14.2585 23.3941 13.7637 23.4706L4.06859 24.9685C3.56603 25.0461 3.07511 24.7768 2.88962 24.3217C2.7047 23.868 2.87323 23.3518 3.29484 23.0807L14.0101 16.1889Z" fill="#159A3F"/>
</svg>
