<svg width="180" height="72" viewBox="0 0 180 72" fill="none" xmlns="http://www.w3.org/2000/svg">
<path d="M17.8742 22H6.07595C2.72029 22 0 24.7203 0 28.0759V39.8949C0 43.2506 2.72029 45.9709 6.07595 45.9709H17.8742C21.2298 45.9709 23.9501 43.2506 23.9501 39.8949V28.0759C23.9501 24.7203 21.2298 22 17.8742 22Z" fill="#AD9D67"/>
<path d="M11.9751 32.4873C12.8018 32.4873 13.472 33.158 13.472 33.9855C13.472 34.8129 12.8018 35.4836 11.9751 35.4836C11.1484 35.4836 10.4782 34.8129 10.4782 33.9855C10.4782 33.158 11.1484 32.4873 11.9751 32.4873ZM14.2204 29.4909C13.3937 29.4909 12.7235 30.1617 12.7235 30.9891C12.7235 31.8165 13.3937 32.4873 14.2204 32.4873C15.0471 32.4873 15.7173 31.8165 15.7173 30.9891C15.7173 30.1617 15.0471 29.4909 14.2204 29.4909ZM9.72975 29.4909C8.90305 29.4909 8.23287 30.1617 8.23287 30.9891C8.23287 31.8165 8.90305 32.4873 9.72975 32.4873C10.5565 32.4873 11.2266 31.8165 11.2266 30.9891C11.2266 30.1617 10.5565 29.4909 9.72975 29.4909ZM16.4657 26.4946C15.639 26.4946 14.9688 27.1653 14.9688 27.9927C14.9688 28.8202 15.639 29.4909 16.4657 29.4909C17.2924 29.4909 17.9626 28.8202 17.9626 27.9927C17.9626 27.1653 17.2924 26.4946 16.4657 26.4946ZM11.9751 26.4946C11.1484 26.4946 10.4782 27.1653 10.4782 27.9927C10.4782 28.8202 11.1484 29.4909 11.9751 29.4909C12.8018 29.4909 13.472 28.8202 13.472 27.9927C13.472 27.1653 12.8018 26.4946 11.9751 26.4946ZM8.98131 27.9927C8.98131 27.1653 8.31114 26.4946 7.48443 26.4946C6.65773 26.4946 5.98755 27.1653 5.98755 27.9927C5.98755 28.8202 6.65773 29.4909 7.48443 29.4909C8.31114 29.4909 8.98131 28.8202 8.98131 27.9927ZM14.2204 35.4836C13.3937 35.4836 12.7235 36.1544 12.7235 36.9818C12.7235 37.8092 13.3937 38.48 14.2204 38.48C15.0471 38.48 15.7173 37.8092 15.7173 36.9818C15.7173 36.1544 15.0471 35.4836 14.2204 35.4836ZM9.72975 35.4836C8.90305 35.4836 8.23287 36.1544 8.23287 36.9818C8.23287 37.8092 8.90305 38.48 9.72975 38.48C10.5565 38.48 11.2266 37.8092 11.2266 36.9818C11.2266 36.1544 10.5565 35.4836 9.72975 35.4836ZM16.4657 38.48C15.639 38.48 14.9688 39.1508 14.9688 39.9782C14.9688 40.8056 15.639 41.4764 16.4657 41.4764C17.2924 41.4764 17.9626 40.8056 17.9626 39.9782C17.9626 39.1508 17.2924 38.48 16.4657 38.48ZM11.9751 38.48C11.1484 38.48 10.4782 39.1508 10.4782 39.9782C10.4782 40.8056 11.1484 41.4764 11.9751 41.4764C12.8018 41.4764 13.472 40.8056 13.472 39.9782C13.472 39.1508 12.8018 38.48 11.9751 38.48ZM7.48443 38.48C6.65773 38.48 5.98755 39.1508 5.98755 39.9782C5.98755 40.8056 6.65773 41.4764 7.48443 41.4764C8.31114 41.4764 8.98131 40.8056 8.98131 39.9782C8.98131 39.1508 8.31114 38.48 7.48443 38.48Z" fill="white"/>
<path d="M41.1455 44.4726V26.6443H36.3218V44.4726H32.9314V23.4981H44.5322V44.4726H41.1455ZM67.6254 44.4726V35.9855H67.3447L62.6557 44.4726H59.4225V29.4908H62.7904V38.4462H63.0524L67.7713 29.4908H71.0008V44.4726H67.6254ZM83.9788 44.4726V36.7345H83.5859L81.3181 40.8545H79.4021L77.1231 36.7345H76.7489V44.4726H73.3584V29.4908H76.3971L80.2179 36.9518H80.5247L84.3343 29.4908H87.3767V44.4726H83.9788ZM162.831 44.4726V38.3114H158.969V44.4726H155.601V29.4908H158.969V35.1689H162.831V29.4908H166.199V44.4726H162.831ZM176.303 44.4726L175.513 40.1691C175.296 39.1041 174.376 38.3284 173.29 38.2964H171.711V44.4726H168.343V29.4908H171.711V35.4012H172.706C173.791 35.3689 174.72 34.6142 174.974 33.5584L175.794 29.4908H179.162L178.065 34.2176C177.794 35.1448 177.1 35.8883 176.194 36.2214L176.033 36.2776V36.6072L176.224 36.6521C177.33 36.8608 178.214 37.6943 178.488 38.7871L179.652 44.4726H176.303ZM108.195 32.27C106.952 32.27 106.249 33.0191 106.249 34.3187V39.6448C106.249 40.9482 106.952 41.6935 108.195 41.6935C109.437 41.6935 110.126 40.9444 110.126 39.6448V34.3187C110.126 33.0153 109.422 32.27 108.195 32.27ZM108.195 44.7049C104.961 44.7049 102.873 42.8321 102.873 39.877V34.0828C102.873 31.1426 104.961 29.2399 108.195 29.2399C111.428 29.2399 113.501 31.1426 113.501 34.0828V39.877C113.501 42.8209 111.424 44.7049 108.195 44.7049ZM149.172 38.0642C146.818 38.0642 146.627 38.7796 146.627 39.877C146.627 41.5624 147.477 41.7946 148.191 41.7946C148.489 41.7883 148.784 41.7442 149.071 41.6636C149.687 41.5151 150.248 41.1957 150.691 40.7422L150.736 40.5661V38.0642H149.172ZM146.863 44.7049C144.438 44.7049 143.252 43.1842 143.252 40.053C143.252 36.9817 144.876 35.4012 148.075 35.4012H150.489V34.0828C150.489 32.1801 149.538 32.019 148.558 32.019C147.578 32.019 146.803 32.6632 146.335 33.9255L143.368 33.1352C144.288 30.6594 146.159 29.2399 148.558 29.2399C150.957 29.2399 153.864 30.0602 153.864 33.9517V34.2026V44.4726H150.946L150.654 42.8471L150.317 43.1992C149.392 44.1088 148.162 44.6426 146.867 44.6974L146.863 44.7049ZM124.952 47.469V44.4726H115.29V29.4908H118.658V41.3265H122.542V29.4908H125.91V41.3265H127.841L127.605 47.469H124.952ZM52.0428 32.1127C51.93 32.1152 51.8175 32.1252 51.706 32.1426C50.9883 32.2509 50.3728 32.7123 50.0669 33.3711V33.4161V40.671L50.1231 40.7309C50.6164 41.2391 51.2867 41.5369 51.9942 41.5624C53.2366 41.5624 53.9252 40.877 53.9252 39.6335V33.8356C53.914 33.3567 53.7079 32.9032 53.3546 32.58C53.0014 32.2569 52.5316 32.0921 52.0541 32.1239L52.0428 32.1127ZM46.9123 49.0683V29.4908H49.8499L50.1568 31.1726L50.4786 30.7493C51.2861 29.8205 52.4482 29.2763 53.6782 29.2511C56.1069 29.2511 57.2931 30.7718 57.2931 33.9067V40.6223C57.2931 42.9632 55.8748 44.4839 53.6782 44.4839C52.6092 44.4256 51.5754 44.0816 50.6844 43.4876L50.3102 43.2254V49.0795L46.9123 49.0683ZM101.548 38.9743C101.548 42.1055 99.827 44.7049 95.5385 44.7049C91.8936 44.7049 89.5509 42.5774 89.5509 39.259V28.8242C89.5509 25.5057 91.9085 23.3558 95.5385 23.3558C99.857 23.3558 101.361 26.2548 101.361 29.326L97.9185 29.7006C97.8287 28.4197 97.5443 26.3821 95.4337 26.3821C93.8395 26.3821 92.9264 27.3522 92.9264 29.0451V38.9107C92.9264 40.6785 93.8769 41.6935 95.5459 41.6935C97.7688 41.6935 98.0757 40.0118 98.1655 38.5998L101.548 38.9743ZM136.164 30.989H133.02V26.6443H140.699V23.4981H129.615V44.4726H136.164C140.452 44.4726 141.934 41.7609 141.934 37.7308C141.934 33.7007 140.467 30.989 136.164 30.989ZM135.498 41.3265H133.02V34.1352H135.498C138.117 34.1352 138.342 35.2064 138.342 37.7308C138.342 40.2553 138.132 41.3265 135.498 41.3265Z" fill="#5E8940"/>
</svg>
