<svg x="0px" y="0px" width="250px" height="92.2px" overflow="inherit" viewBox="0, 0, 250, 92.2" preserveAspectRatio="xMidYMid" font-size="0" xml:space="preserve" id="Слой_1" xml="http://www.w3.org/XML/1998/namespace" enable-background="new 0 0 250 92.2" xmlns="http://www.w3.org/2000/svg" xmlns:xlink="http://www.w3.org/1999/xlink" xmlns:xml="http://www.w3.org/XML/1998/namespace" version="1.1"><style xml:space="preserve" type="text/css">
	.st0{fill:#2A2C29;}
	.st1{fill:#FE5000;}
</style><path d="M142.3 21.6 C141.6 19.6 140.5 19 138.3 19 L132 19 C129.8 19 128.7 19.5 128 21.7 L109 72.9 C108.3 75.1 108.8 76.2 111.2 76.2 L116.7 76.2 C120.7 76.2 121.8 75.50001 122.5 73.3 L125.1 65.8 L144.8 65.8 L147.4 73.3 C148.1 75.7 149.4 76.2 153.4 76.2 L159.2 76.2 C161.6 76.2 162.1 75.10001 161.4 72.9 L142.3 21.6 z M128.6 55 L132.8 42.4 C134.8 36.7 134.6 32.5 134.6 32.5 L135.3 32.5 C135.3 32.5 135.5 36.5 137.3 42.4 L141.5 54.8 C141.5 55 128.6 55 128.6 55 z M197.1 19 L158.9 19 C156.3 19 155.6 19.7 155.6 22.3 L155.6 27.8 C155.6 30.2 156.3 31.1 158.9 31.1 L171.5 31.1 L171.5 73 C171.5 75.6 172.2 76.3 174.8 76.3 L181.2 76.3 C183.8 76.3 184.5 75.60001 184.5 73 L184.5 31 L196.9 31 C199.5 31 200.2 30.3 200.2 27.7 L200.2 22.4 C200.4 19.9 199.5 19 197.1 19 M231.3 40 L218.3 40 L218.3 30.7 L242.4 30.7 C244.8 30.7 245.7 29.8 245.7 27.4 L245.7 22.3 C245.7 19.7 244.8 19 242.4 19 L208.6 19 C206.2 19 205.3 19.7 205.3 22.3 L205.3 72.9 C205.3 75.3 206.2 76 208.6 76 L231.4 76 C242.5 76 249.7 69.1 249.7 58.1 C249.8 46.8 242.4 40 231.3 40 M229.5 64.5 L218.4 64.5 L218.4 51.7 L229.5 51.7 C233.7 51.7 236.1 54.3 236.1 58.1 C236.2 61.8 233.8 64.5 229.5 64.5" xml:space="preserve" class="st0" style="fill:#2A2C29;" /><path d="M76.3 0.6 L15.4 0.6 C7 0.6 0.2 7.3 0.2 15.7 L0.2 76.6 C0.2 85 7 91.8 15.4 91.8 L76.3 91.8 C84.7 91.8 91.5 85 91.5 76.60001 L91.5 15.7 C91.5 7.3 84.7 0.6 76.3 0.6 M86.7 75 C86.5 75.2 86.3 75.2 86.2 75.2 C74.5 68 60.6 64 45.9 64 C31.2 64 17.4 68 5.6 75.1 C5.4 75.3 5 75.1 5 75 C4.8 74.8 4.8 74.5 5.2 74.5 L5.2 74.5 C15.8 66.3 25.1 55.9 32.1 43.4 C39.2 31.2 43.6 18 45.4 4.600002 C45.4 4.400002 45.6 4.200002 45.9 4.200002 C46.1 4.200002 46.3 4.400002 46.4 4.600002 C48.2 17.9 52.6 31.1 59.7 43.4 C66.8 55.7 76.1 66 86.9 74.2 L86.9 74.2 C86.9 74.4 86.9 74.8 86.7 75" xml:space="preserve" class="st1" style="fill:#FE5000;" /></svg>