<svg x="0" y="0" width="190px" height="100px" overflow="inherit" viewBox="0, 0, 190, 100" preserveAspectRatio="xMidYMid" font-size="0" xml:space="default" xmlns="http://www.w3.org/2000/svg" xmlns:xlink="http://www.w3.org/1999/xlink" xmlns:xml="http://www.w3.org/XML/1998/namespace" version="1.1"><title xml:space="default">PoctaBank</title><desc xml:space="default">Created with Sketch.</desc><defs xml:space="default" /><g fill-rule="evenOdd" id="Page-1" xml:space="default" style="fill:none;"><g transform="translate(-29, 0)" id="Artboard" xml:space="default"><g transform="translate(29, 0)" id="PoctaBank" xml:space="default"><polygon points="0,99.49864 91.93729,99.49864 91.93729,0.483529 0,0.483529" id="Fill-1" xml:space="default" style="fill:#0A1A83;" /><path d="M27.91136 32.47291 C28.59062 34.08604 29.69952 35.74162 32.73979 37.97736 C33.4138 38.47687 34.16401 39.51691 33.59643 40.98005 C33.01964 42.44178 31.95279 44.52045 32.5887 45.33126 C33.23249 46.14066 35.52254 46.56092 37.38297 45.75718 C37.38297 45.75718 37.7745 47.02222 38.45639 47.83303 C38.45639 47.83303 38.13449 48.53205 37.06239 48.17971 C37.06239 48.17971 37.45392 49.21834 36.91523 50.33621 C36.91523 50.33621 35.66576 50.10556 35.13102 48.87024 C35.13102 48.87024 34.62781 49.83246 33.62796 50.18056 C33.62796 50.18056 32.80548 49.72209 32.98811 47.94482 C32.98811 47.94482 32.37585 49.52682 30.522 49.79425 C30.522 49.79425 29.44595 48.33253 30.83995 46.36848 C30.83995 46.36848 29.83879 47.33211 28.02172 46.8694 C28.02172 46.8694 27.73267 45.87038 29.37368 44.48366 C29.37368 44.48366 27.51457 44.40583 26.80246 42.71204 C26.80246 42.71204 27.58815 41.67059 29.51558 41.90406 C29.51558 41.90406 27.73267 41.47673 27.3372 39.16882 C27.3372 39.16882 28.62478 38.28301 30.66258 39.70653 C30.66258 39.70653 30.29996 38.97779 29.44595 38.24763 C28.59062 37.51323 27.55268 35.47418 27.91136 32.47291 z" id="Fill-2" xml:space="default" style="fill:#FFFFFF;" /><path d="M35.39287 55.6945 C35.11827 55.30678 34.91856 54.91906 34.7701 54.54691 C35.09068 57.34725 35.20104 59.23489 36.60687 61.05037 C36.60687 61.05037 37.453 59.83628 36.90775 56.88736 C36.67519 56.8152 36.40585 56.6935 36.15228 56.50814 C36.15228 56.50814 36.47286 57.70525 36.26921 58.90802 C36.26921 58.90802 35.76731 58.51464 35.39287 55.6945" id="Fill-4" xml:space="default" style="fill:#FFFFFF;" /><path d="M32.96341 55.40286 C32.79655 55.17504 32.47203 54.69251 32.30122 54.34866 C32.1856 55.97594 31.78488 60.25357 33.11845 61.59502 C33.11845 61.59502 34.03026 60.87618 34.35085 54.63025 C34.15902 54.98118 33.81873 55.35333 33.65319 55.55709 C33.65319 55.55709 33.87523 57.53814 33.21698 58.9376 C33.21698 58.9376 32.5548 58.39564 32.96341 55.40286" id="Fill-6" xml:space="default" style="fill:#FFFFFF;" /><path d="M29.78965 58.67313 C30.90512 57.23121 31.24278 52.90548 31.24278 52.90548 C31.39782 52.7951 31.55022 52.672 31.71183 52.53757 C31.76832 52.48238 31.83402 52.42578 31.89183 52.36352 C31.89183 52.51917 31.8984 52.68615 31.91285 52.84746 C31.75124 55.45253 31.56073 58.13259 30.80395 59.46837 C30.06688 60.77727 28.70572 61.45507 28.70572 61.45507 C27.4339 59.01273 28.97112 55.73978 30.26527 53.46158 C30.41899 53.39649 30.5806 53.31583 30.74614 53.22669 C30.29417 54.97849 29.43228 57.06565 29.78965 58.67313" id="Fill-8" xml:space="default" style="fill:#FFFFFF;" /><path d="M26.62693 51.16881 C26.62036 51.44616 26.66897 51.67681 26.70445 51.79001 C26.71627 51.83671 26.73598 51.90321 26.76357 51.9683 C25.6954 53.09608 24.90315 54.17575 23.32257 56.54167 C21.73937 58.90901 19.23253 59.00382 19.23253 59.00382 C19.47691 57.08646 19.95778 55.57238 21.30055 53.93802 C22.642 52.30508 24.35921 50.81223 25.61789 49.82595 C25.93978 49.98302 26.36547 50.0849 26.8989 50.01698 C26.93963 50.01415 26.98299 50.00849 27.0224 49.99717 C26.85423 50.23772 26.75043 50.47545 26.69919 50.69619 C25.74139 51.28485 22.97178 52.79751 21.84842 55.23843 C21.84842 55.23843 23.60111 54.6427 26.62693 51.16881" id="Fill-10" xml:space="default" style="fill:#FFFFFF;" /><path d="M24.64143 48.78308 L24.74522 48.58073 C24.78464 48.51281 24.81617 48.45196 24.85821 48.39536 C23.82683 48.82553 20.15722 50.31697 18.9695 50.97778 C17.78045 51.64285 16.06193 53.14702 15.12777 56.20631 C15.12777 56.20631 17.6044 56.44262 19.64876 54.62289 C21.69313 52.79751 24.07647 50.25753 25.09339 49.44955 C24.99223 49.34909 24.91339 49.25004 24.85821 49.16655 C24.85821 49.16655 22.09123 51.80275 19.16658 52.94467 C19.16658 52.94467 19.79197 51.72067 20.94817 50.83345 C22.35663 49.75803 23.41034 49.39579 24.64143 48.78308" id="Fill-12" xml:space="default" style="fill:#FFFFFF;" /><path d="M22.53978 46.97496 C22.58182 46.86883 22.62124 46.76978 22.66328 46.6778 C21.45059 46.94099 18.4274 47.33296 17.0715 47.77586 C15.72085 48.22584 13.27444 49.28994 11.82394 52.27423 C11.82394 52.27423 13.95371 52.98175 17.9728 50.94552 C21.9919 48.90647 23.25452 48.48196 24.01918 48.26405 C23.41087 48.21593 22.97466 47.99377 22.75262 47.84378 C21.1484 48.61497 19.00418 49.522 16.87442 49.58427 C16.87442 49.58427 17.92156 48.78619 19.02915 48.28244 C20.22082 47.74756 21.53862 47.25655 22.53978 46.97496" id="Fill-14" xml:space="default" style="fill:#FFFFFF;" /><path d="M22.6437 44.83303 C23.03655 45.03113 23.33874 45.12877 23.85377 45.18679 C23.57392 45.38348 23.30852 45.62969 23.07071 45.96505 C21.65305 46.40512 19.23555 46.88482 15.25062 47.19471 C11.26963 47.50035 9.143802 46.71502 9.143802 46.71502 C10.53124 45.80091 12.74378 44.87265 14.24289 44.56134 C15.73937 44.25004 19.67044 44.284 21.39291 44.03212 C21.41262 44.05335 21.62152 44.23447 21.9605 44.45522 C20.51131 44.5953 17.42243 44.74954 15.83134 45.62262 C15.83134 45.62262 18.77045 46.04288 22.6437 44.83303" id="Fill-16" xml:space="default" style="fill:#FFFFFF;" /><path d="M22.34283 42.36508 C22.54516 42.23773 22.78691 42.10896 23.08516 41.99151 C21.06576 41.33494 18.29877 40.28216 14.12858 39.99067 C11.07386 39.77558 8.87052 39.96378 7.726148 40.28216 C7.726148 40.28216 10.51153 42.39338 13.69107 43.13627 C16.87455 43.8834 19.45891 43.4122 21.34824 43.4306 C21.46911 43.23108 21.61232 43.00326 21.83437 42.77685 C19.62446 42.79383 15.95091 42.17688 14.63705 41.70426 C14.63705 41.70426 17.84023 40.98543 22.34283 42.36508" id="Fill-18" xml:space="default" style="fill:#FFFFFF;" /><path d="M22.33258 39.81067 C22.34309 39.87293 22.5809 41.09835 23.8987 41.77332 C21.06602 40.44036 15.48869 39.672 12.48784 38.32772 C8.435895 36.51225 7.693564 34.2482 7.693564 34.2482 C11.20288 34.14774 14.0395 35.06892 16.22577 35.79341 C18.78385 36.63677 22.68207 38.20603 24.04585 38.86119 C23.5387 38.881 22.97506 39.04373 22.50207 39.38192 C20.5996 38.59517 19.71143 38.26122 17.9824 37.74049 C16.61467 37.3273 15.60825 37.24664 14.75293 37.15891 C14.75293 37.15891 15.95511 38.01359 17.93247 38.6928 C19.89406 39.3706 20.7415 39.4838 22.33258 39.81067" id="Fill-20" xml:space="default" style="fill:#FFFFFF;" /><path d="M22.12013 36.48111 C22.23312 36.69761 22.56684 37.21268 22.70086 37.41645 C18.22191 36.60847 13.29757 32.96194 11.77481 30.70073 C10.25336 28.43668 10.68167 25.06326 10.68167 25.06326 C12.15977 25.38164 15.36952 28.36452 16.2012 29.26306 C17.03418 30.15736 19.54365 32.79072 21.28189 34.25669 L21.8232 35.95472 C20.3346 34.6628 18.56746 33.22514 17.46776 32.33225 C16.62032 31.64455 15.35113 30.66677 14.08851 30.20405 C14.08851 30.20405 15.24996 31.83416 16.18937 32.63083 C17.27199 33.55201 18.373 34.3515 19.27563 34.88638 C20.07971 35.36041 20.49226 35.62927 22.12013 36.48111" id="Fill-22" xml:space="default" style="fill:#FFFFFF;" /><path d="M34.74881 49.98047 C34.88546 49.85029 35.00633 49.72577 35.10093 49.61257 C35.3072 49.89133 35.99961 50.821 36.34253 51.74926 C36.59741 52.53884 36.87332 53.61568 37.00996 54.23405 C37.14792 54.84534 37.55127 56.13018 37.80091 56.57026 C37.80091 56.57026 36.7104 56.71742 35.90238 55.70001 C35.10881 54.70525 34.84341 53.70058 34.71728 52.67186 C34.61349 51.86671 34.65159 50.74883 34.74881 49.98047" id="Fill-24" xml:space="default" style="fill:#FFFFFF;" /><path d="M33.03016 50.13316 C33.23249 50.42607 33.42825 50.54493 33.44665 50.55766 L33.59643 50.63832 L33.74621 50.58172 C33.88416 50.53785 34.00898 50.48408 34.1246 50.42041 C34.28489 50.89585 34.35058 51.12367 34.38737 51.52696 C34.4373 52.06467 34.53584 52.91085 34.35058 53.60139 C34.1246 54.44333 33.65292 54.9584 33.3954 55.27961 C33.3954 55.27961 32.68067 54.43342 32.47833 53.73864 C32.26549 53.00708 32.18929 52.15806 32.45337 51.2864 C32.59658 50.81378 32.82519 50.3822 33.03016 50.13316" id="Fill-26" xml:space="default" style="fill:#FFFFFF;" /><path d="M30.57113 50.21466 C31.30164 50.10995 31.85346 49.82694 32.26995 49.49866 C32.36324 49.77459 32.50776 50.14674 32.40397 50.67455 C32.29098 51.20235 31.952 51.78534 31.4685 52.20844 C30.72617 52.83953 29.74472 53.43526 28.65684 53.25555 C28.65684 53.25555 28.40721 52.37399 30.57113 50.21466" id="Fill-28" xml:space="default" style="fill:#FFFFFF;" /><path d="M29.74551 48.74445 C29.83748 49.52696 30.18302 50.01939 30.20667 50.05901 C29.95441 50.38588 29.03602 52.07967 27.12567 51.79808 C27.12567 51.79808 26.60407 50.642 27.88114 49.72223 C28.7404 49.09962 29.15427 48.97368 29.74551 48.74445" id="Fill-30" xml:space="default" style="fill:#FFFFFF;" /><path d="M29.91224 47.29348 C29.40508 47.43215 28.74027 47.48734 27.92962 47.28074 L27.70889 47.22556 L27.64057 46.99491 C26.65649 47.85666 25.48979 48.00382 25.08774 48.78633 C25.08774 48.78633 25.57781 49.75987 26.85489 49.59997 C28.13064 49.43441 29.08582 48.79058 29.77034 47.8694 C29.79662 47.73214 29.85443 47.47036 29.91224 47.29348" id="Fill-32" xml:space="default" style="fill:#FFFFFF;" /><path d="M27.70863 46.08009 C27.886 45.7886 28.01213 45.34145 28.39315 44.88581 C27.55228 44.72733 26.78893 44.71601 25.79959 44.92402 C24.62369 45.15891 23.42282 45.4589 22.82239 47.38899 C22.82239 47.38899 23.57392 48.08094 24.9469 47.78096 C26.11492 47.52059 27.12659 46.98288 27.70863 46.08009" id="Fill-34" xml:space="default" style="fill:#FFFFFF;" /><path d="M27.20687 43.98939 C26.91256 43.71204 26.63665 43.35404 26.44352 42.8885 L26.3476 42.64653 C25.32542 42.19938 24.26514 41.97015 23.22062 42.38475 C22.18004 42.80643 21.90676 43.28612 21.6453 43.70638 C21.6453 43.70638 22.79887 44.74643 24.12061 44.7818 C25.44761 44.82992 26.67344 44.41531 27.20687 43.98939" id="Fill-36" xml:space="default" style="fill:#FFFFFF;" /><path d="M27.51484 41.73355 C27.69089 41.66139 27.88535 41.59488 28.1087 41.54535 C27.6633 41.11943 27.21396 40.46428 26.9998 39.48932 C26.52681 39.60818 25.41529 39.60818 24.92653 39.41008 C24.43384 39.20631 23.47341 39.19783 22.72188 39.72987 C22.72188 39.72987 22.97151 41.14915 24.6677 41.6345 C26.27192 42.08731 26.86185 41.96986 27.51484 41.73355" id="Fill-38" xml:space="default" style="fill:#FFFFFF;" /><path d="M26.90218 38.96774 L27.12554 38.8135 C27.15707 38.79228 27.53678 38.5404 28.18582 38.48522 C27.64057 38.04797 26.33328 36.87067 25.4149 36.30466 C24.40454 35.69761 22.73331 34.89246 21.88456 34.77219 C21.88456 34.77219 22.68207 37.02491 23.60703 37.93619 C24.57534 38.88142 25.24804 39.23094 26.90218 38.96774" id="Fill-40" xml:space="default" style="fill:#FFFFFF;" /><path d="M28.62465 37.92996 C28.21342 37.36112 27.89283 36.57436 27.65634 35.64469 C27.46583 34.8919 27.02437 33.0184 26.76291 32.53446 C26.50277 32.04769 25.56073 30.35107 23.72527 29.82185 C23.72527 29.82185 23.2352 32.03779 24.16016 33.78393 C24.95505 35.29518 26.59211 36.88567 28.62465 37.92996" id="Fill-42" xml:space="default" style="fill:#FFFFFF;" /><path d="M38.81928 48.2165 C39.04527 48.46696 39.22132 48.60139 39.62993 48.82355 C39.62993 48.82355 40.21591 50.02774 39.50512 51.48521 C38.793 52.93986 38.1952 54.42422 37.91009 55.2506 C37.91009 55.2506 37.52907 55.18834 37.10338 52.91156 C36.81827 51.36777 36.45565 50.98146 36.07594 50.45224 C36.48849 50.67582 36.8209 50.74232 36.85112 50.7494 L37.13491 50.80175 L37.26367 50.52866 C37.51725 50.00792 37.59476 49.50276 37.59476 49.08108 C37.59476 48.94241 37.58557 48.81223 37.57111 48.69478 C38.23067 48.71176 38.58147 48.35376 38.71943 48.17122 C38.72862 48.15141 38.74045 48.14009 38.74702 48.12311 L38.81928 48.2165" id="Fill-44" xml:space="default" style="fill:#FFFFFF;" /><path d="M23.21011 30.74912 C23.20354 30.96421 23.19828 31.19627 23.20354 31.44531 L23.24164 31.98869 C22.15508 30.49725 20.8583 28.70299 19.61933 27.04175 C18.77058 25.9069 18.0519 25.21919 17.2557 24.66592 C17.92183 26.76865 19.13058 28.4497 19.98064 29.2874 C20.8294 30.12368 22.06705 31.53588 23.26792 32.39763 L23.38354 32.82497 C23.47814 33.21552 23.62135 33.61738 23.82237 33.99519 C24.09959 34.52583 24.4701 35.05222 24.90367 35.55738 C24.5555 35.37202 24.15609 35.17108 23.7501 34.98571 L23.37828 34.82016 C20.06867 32.92968 16.79453 29.01571 15.4636 26.2932 C14.13134 23.57069 14.68842 20.40952 15.0379 18.71856 C16.53965 20.08972 18.70094 22.78676 19.64298 24.25698 C20.80181 26.05689 22.29041 28.60818 23.20617 30.68686 L23.21011 30.74912" id="Fill-46" xml:space="default" style="fill:#FFFFFF;" /><path d="M69.59235 42.36508 C69.39265 42.23773 69.15221 42.10896 68.85397 41.99151 C70.86942 41.33494 73.64036 40.28216 77.8066 39.99067 C80.86264 39.77558 83.07386 39.96378 84.21166 40.28216 C84.21166 40.28216 81.43022 42.39338 78.24543 43.13627 C75.06458 43.8834 72.4789 43.4122 70.59089 43.4306 C70.46738 43.23108 70.32417 43.00326 70.10345 42.77685 C72.31335 42.79383 75.99085 42.17688 77.30339 41.70426 C77.30339 41.70426 74.09758 40.98543 69.59235 42.36508" id="Fill-48" xml:space="default" style="fill:#FFFFFF;" /><path d="M69.60326 39.81067 C69.59275 39.87293 69.35625 41.09835 68.03714 41.77332 C70.86851 40.44036 76.4511 39.672 79.44801 38.32772 C83.50258 36.51225 84.24359 34.2482 84.24359 34.2482 C80.73559 34.14774 77.89896 35.06892 75.71139 35.79341 C73.15594 36.63677 69.25378 38.20603 67.88998 38.86119 C68.40371 38.881 68.96078 39.04373 69.43771 39.38192 C71.3415 38.59517 72.22704 38.26122 73.95739 37.74049 C75.32249 37.3273 76.33022 37.24664 77.18423 37.15891 C77.18423 37.15891 75.98336 38.01359 74.00468 38.6928 C72.04179 39.3706 71.19434 39.4838 69.60326 39.81067" id="Fill-50" xml:space="default" style="fill:#FFFFFF;" /><path d="M69.81755 36.48111 C69.70718 36.69761 69.36952 37.21268 69.23814 37.41645 C73.71577 36.60847 78.64143 32.96194 80.16288 30.70073 C81.68958 28.43668 81.25732 25.06326 81.25732 25.06326 C79.7766 25.38164 76.56816 28.36452 75.73649 29.26306 C74.90613 30.15736 72.39534 32.79072 70.65579 34.25669 L70.11448 35.95472 C71.60177 34.6628 73.36891 33.22514 74.47255 32.33225 C75.31868 31.64455 76.58524 30.66677 77.84785 30.20405 C77.84785 30.20405 76.68772 31.83416 75.74831 32.63083 C74.66963 33.55201 73.56862 34.3515 72.66074 34.88638 C71.85797 35.36041 71.44674 35.62927 69.81755 36.48111" id="Fill-52" xml:space="default" style="fill:#FFFFFF;" /><path d="M68.73007 30.74912 C68.73532 30.96421 68.7419 31.19627 68.73138 31.44531 L68.69328 31.98869 C69.77985 30.49725 71.08188 28.70299 72.31822 27.04175 C73.16828 25.9069 73.88828 25.21919 74.68448 24.66592 C74.01178 26.76865 72.81091 28.4497 71.95691 29.2874 C71.10684 30.12368 69.87576 31.53588 68.67226 32.39763 L68.55401 32.82497 C68.46073 33.21552 68.31883 33.61738 68.11781 33.99519 C67.83665 34.52583 67.47271 35.05222 67.03387 35.55738 C67.38336 35.37202 67.78146 35.17108 68.18613 34.98571 L68.55927 34.82016 C71.86888 32.92968 75.14696 29.01571 76.47395 26.2932 C77.79832 23.57069 77.25307 20.40952 76.89964 18.71856 C75.3979 20.08972 73.2366 22.78676 72.29194 24.25698 C71.13312 26.05689 69.65108 28.60818 68.73007 30.68686 L68.73007 30.74912" id="Fill-54" xml:space="default" style="fill:#FFFFFF;" /><path d="M27.43338 52.25711 C26.07091 53.72449 23.1975 57.01868 23.46552 60.59021 C23.46552 60.59021 26.13791 59.69167 27.23499 57.58327 C28.336 55.47771 29.01526 54.15608 29.47643 53.68204 C29.17949 53.72449 28.88256 53.72449 28.59483 53.67214 L28.35439 53.6311 C27.67513 54.96123 26.33368 57.13329 25.12493 57.89175 C25.12493 57.89175 24.81617 56.13004 28.36884 52.55993 C28.41746 52.41418 28.48972 52.24579 28.58957 52.06042 C28.26636 52.18919 27.89454 52.26136 27.47936 52.25428" id="Fill-56" xml:space="default" style="fill:#FFFFFF;" /><path d="M64.02645 32.47291 C63.3485 34.08604 62.23435 35.74162 59.20459 37.97736 C58.5227 38.47687 57.7738 39.51691 58.34401 40.98005 C58.91291 42.44178 59.98896 44.52045 59.34386 45.33126 C58.7027 46.14066 56.41658 46.56092 54.55353 45.75718 C54.55353 45.75718 54.16463 47.02222 53.48536 47.83303 C53.48536 47.83303 53.80332 48.53205 54.87805 48.17971 C54.87805 48.17971 54.48521 49.21834 55.02126 50.33621 C55.02126 50.33621 56.27206 50.10556 56.80417 48.87024 C56.80417 48.87024 57.30606 49.83246 58.30985 50.18056 C58.30985 50.18056 59.13496 49.72209 58.95364 47.94482 C58.95364 47.94482 59.55802 49.52682 61.42107 49.79425 C61.42107 49.79425 62.49318 48.33253 61.09523 46.36848 C61.09523 46.36848 62.09639 47.33211 63.91872 46.8694 C63.91872 46.8694 64.20514 45.87038 62.55756 44.48366 C62.55756 44.48366 64.42324 44.40583 65.13798 42.71204 C65.13798 42.71204 64.34966 41.67059 62.42223 41.90406 C62.42223 41.90406 64.20514 41.47673 64.5993 39.16882 C64.5993 39.16882 63.31171 38.28301 61.27786 39.70653 C61.27786 39.70653 61.6326 38.97779 62.48924 38.24763 C63.3485 37.51323 64.38645 35.47418 64.02645 32.47291" id="Fill-58" xml:space="default" style="fill:#FFFFFF;" /><path d="M56.54679 55.6945 C56.81744 55.30678 57.01583 54.91906 57.17218 54.54691 C56.8516 57.34725 56.73598 59.23489 55.33015 61.05037 C55.33015 61.05037 54.48534 59.83628 55.02665 56.88736 C55.26709 56.8152 55.52855 56.6935 55.78738 56.50814 C55.78738 56.50814 55.46548 57.70525 55.66519 58.90802 C55.66519 58.90802 56.17759 58.51464 56.54679 55.6945" id="Fill-60" xml:space="default" style="fill:#FFFFFF;" /><path d="M58.97559 55.40286 C59.14507 55.17504 59.47091 54.69251 59.63646 54.34866 C59.75339 55.97594 60.15018 60.25357 58.81924 61.59502 C58.81924 61.59502 57.90742 60.87618 57.58289 54.63025 C57.77866 54.98118 58.11763 55.35333 58.27924 55.55709 C58.27924 55.55709 58.06114 57.53814 58.7207 58.9376 C58.7207 58.9376 59.38157 58.39564 58.97559 55.40286" id="Fill-62" xml:space="default" style="fill:#FFFFFF;" /><path d="M62.15118 58.67313 C61.02783 57.23121 60.69411 52.90548 60.69411 52.90548 C60.54039 52.7951 60.3801 52.672 60.23164 52.53757 C60.16463 52.48238 60.10419 52.42578 60.04507 52.36352 C60.04507 52.51917 60.03981 52.68615 60.02667 52.84746 C60.18302 55.45253 60.3801 58.13259 61.13294 59.46837 C61.87133 60.77727 63.22723 61.45507 63.22723 61.45507 C64.50562 59.01273 62.96315 55.73978 61.67425 53.46158 C61.51396 53.39649 61.3563 53.31583 61.19469 53.22669 C61.64535 54.97849 62.50724 57.06565 62.15118 58.67313" id="Fill-64" xml:space="default" style="fill:#FFFFFF;" /><path d="M65.30694 51.16881 C65.31876 51.44616 65.26752 51.67681 65.23337 51.79001 C65.22154 51.83671 65.20052 51.90321 65.17687 51.9683 C66.23978 53.09608 67.03336 54.17575 68.61523 56.54167 C70.19844 58.90901 72.70396 59.00382 72.70396 59.00382 C72.46616 57.08646 71.98003 55.57238 70.63858 53.93802 C69.29713 52.30508 67.58254 50.81223 66.31992 49.82595 C65.9954 49.98302 65.57365 50.0849 65.03892 50.01698 C64.99556 50.01415 64.95351 50.00849 64.9141 49.99717 C65.08096 50.23772 65.18212 50.47545 65.23994 50.69619 C66.19379 51.28485 68.97261 52.79751 70.0907 55.23843 C70.0907 55.23843 68.33539 54.6427 65.30694 51.16881" id="Fill-66" xml:space="default" style="fill:#FFFFFF;" /><path d="M67.29823 48.78308 L67.19312 48.58073 C67.15765 48.51281 67.12217 48.45196 67.08144 48.39536 C68.1115 48.82553 71.78374 50.31697 72.97015 50.97778 C74.15657 51.64285 75.87247 53.14702 76.80399 56.20631 C76.80399 56.20631 74.33131 56.44262 72.28564 54.62289 C70.2439 52.79751 67.85793 50.25753 66.84363 49.44955 C66.9448 49.34909 67.02232 49.25004 67.08144 49.16655 C67.08144 49.16655 69.84711 51.80275 72.76913 52.94467 C72.76913 52.94467 72.14636 51.72067 70.99411 50.83345 C69.58171 49.75803 68.53062 49.39579 67.29823 48.78308" id="Fill-68" xml:space="default" style="fill:#FFFFFF;" /><path d="M69.39344 46.97496 C69.35665 46.86883 69.31592 46.76978 69.27256 46.6778 C70.48394 46.94099 73.5137 47.33296 74.86829 47.77586 C76.21368 48.22584 78.66402 49.28994 80.11452 52.27423 C80.11452 52.27423 77.98476 52.98175 73.96172 50.94552 C69.94131 48.90647 68.68658 48.48196 67.91929 48.26405 C68.52629 48.21593 68.96117 47.99377 69.18716 47.84378 C70.79007 48.61497 72.93691 49.522 75.06405 49.58427 C75.06405 49.58427 74.01165 48.78619 72.91064 48.28244 C71.71108 47.74756 70.39591 47.25655 69.39344 46.97496" id="Fill-70" xml:space="default" style="fill:#FFFFFF;" /><path d="M69.29661 44.83303 C68.90113 45.03113 68.60026 45.12877 68.08654 45.18679 C68.36639 45.38348 68.63442 45.62969 68.87354 45.96505 C70.28989 46.40512 72.6995 46.88482 76.68707 47.19471 C80.67068 47.50035 82.79388 46.71502 82.79388 46.71502 C81.40776 45.80091 79.19653 44.87265 77.70005 44.56134 C76.1983 44.25004 72.26855 44.284 70.54346 44.03212 C70.52506 44.05335 70.31222 44.23447 69.97719 44.45522 C71.429 44.5953 74.51525 44.74954 76.10896 45.62262 C76.10896 45.62262 73.16855 46.04288 69.29661 44.83303" id="Fill-72" xml:space="default" style="fill:#FFFFFF;" /><path d="M57.18703 49.98047 C57.05039 49.85029 56.93477 49.72577 56.83097 49.61257 C56.62864 49.89133 55.93755 50.821 55.59989 51.74926 C55.33974 52.53884 55.06383 53.61568 54.93113 54.23405 C54.78792 54.84534 54.38194 56.13018 54.13362 56.57026 C54.13362 56.57026 55.22675 56.71742 56.03609 55.70001 C56.82966 54.70525 57.09637 53.70058 57.22513 52.67186 C57.31842 51.86671 57.29214 50.74883 57.18703 49.98047" id="Fill-74" xml:space="default" style="fill:#FFFFFF;" /><path d="M58.90306 50.13316 C58.70204 50.42607 58.51022 50.54493 58.4892 50.55766 L58.34336 50.63832 L58.18701 50.58172 C58.05431 50.53785 57.93212 50.48408 57.81256 50.42041 C57.65227 50.89585 57.59183 51.12367 57.54979 51.52696 C57.49592 52.06467 57.40132 52.91085 57.58395 53.60139 C57.81387 54.44333 58.27898 54.9584 58.54044 55.27961 C58.54044 55.27961 59.25518 54.43342 59.46145 53.73864 C59.67167 53.00708 59.74919 52.15806 59.48904 51.2864 C59.3432 50.81378 59.10802 50.3822 58.90306 50.13316" id="Fill-76" xml:space="default" style="fill:#FFFFFF;" /><path d="M61.36786 50.21466 C60.63473 50.10995 60.08553 49.82694 59.66641 49.49866 C59.57707 49.77459 59.42992 50.14674 59.53765 50.67455 C59.64408 51.20235 59.98305 51.78534 60.47706 52.20844 C61.20757 52.83953 62.19428 53.43526 63.28347 53.25555 C63.28347 53.25555 63.5331 52.37399 61.36786 50.21466" id="Fill-78" xml:space="default" style="fill:#FFFFFF;" /><path d="M62.18771 48.74445 C62.10231 49.52696 61.75282 50.01939 61.72523 50.05901 C61.98012 50.38588 62.89719 52.07967 64.81937 51.79808 C64.81937 51.79808 65.33177 50.642 64.06258 49.72223 C63.19281 49.09962 62.78289 48.97368 62.18771 48.74445" id="Fill-80" xml:space="default" style="fill:#FFFFFF;" /><path d="M62.02032 47.29348 C62.53141 47.43215 63.19754 47.48734 64.01082 47.28074 L64.23154 47.22556 L64.29461 46.99491 C65.28132 47.85666 66.44934 48.00382 66.85007 48.78633 C66.85007 48.78633 66.36 49.75987 65.08556 49.59997 C63.80848 49.43441 62.84674 48.79058 62.16485 47.8694 C62.13988 47.73214 62.08601 47.47036 62.02032 47.29348" id="Fill-82" xml:space="default" style="fill:#FFFFFF;" /><path d="M64.23234 46.08009 C64.04971 45.7886 63.92095 45.34145 63.54256 44.88581 C64.39262 44.72733 65.14941 44.71601 66.13743 44.92402 C67.31465 45.15891 68.51421 45.4589 69.11726 47.38899 C69.11726 47.38899 68.35786 48.08094 66.98487 47.78096 C65.82473 47.52059 64.81043 46.98288 64.23234 46.08009" id="Fill-84" xml:space="default" style="fill:#FFFFFF;" /><path d="M64.7295 43.98939 C65.02644 43.71204 65.2984 43.35404 65.49548 42.8885 L65.59008 42.64653 C66.61357 42.19938 67.67648 41.97015 68.71312 42.38475 C69.75764 42.80643 70.02961 43.28612 70.29764 43.70638 C70.29764 43.70638 69.14275 44.74643 67.81444 44.7818 C66.48875 44.82992 65.26292 44.41531 64.7295 43.98939" id="Fill-86" xml:space="default" style="fill:#FFFFFF;" /><path d="M64.42284 41.73355 C64.24548 41.66139 64.04971 41.59488 63.82635 41.54535 C64.27963 41.11943 64.72372 40.46428 64.93919 39.48932 C65.41218 39.60818 66.52502 39.60818 67.01509 39.41008 C67.50385 39.20631 68.4669 39.19783 69.21581 39.72987 C69.21581 39.72987 68.97143 41.14915 67.26604 41.6345 C65.6605 42.08731 65.07189 41.96986 64.42284 41.73355" id="Fill-88" xml:space="default" style="fill:#FFFFFF;" /><path d="M65.033 38.96774 L64.81096 38.8135 C64.77943 38.79228 64.39972 38.5404 63.74673 38.48522 C64.29724 38.04797 65.59665 36.87067 66.52423 36.30466 C67.53327 35.69761 69.20187 34.89246 70.05851 34.77219 C70.05851 34.77219 69.25837 37.02491 68.32684 37.93619 C67.36378 38.88142 66.68715 39.23094 65.033 38.96774" id="Fill-90" xml:space="default" style="fill:#FFFFFF;" /><path d="M63.31171 37.92996 C63.72295 37.36112 64.04222 36.57436 64.28003 35.64469 C64.47579 34.8919 64.91462 33.0184 65.17608 32.53446 C65.44016 32.04769 66.37827 30.35107 68.21503 29.82185 C68.21503 29.82185 68.70379 32.03779 67.77884 33.78393 C66.98001 35.29518 65.34951 36.88567 63.31171 37.92996" id="Fill-92" xml:space="default" style="fill:#FFFFFF;" /><path d="M53.12418 48.2165 C52.88638 48.46696 52.71294 48.60139 52.30696 48.82355 C52.30696 48.82355 51.71835 50.02774 52.43178 51.48521 C53.13995 52.93986 53.73775 54.42422 54.02812 55.2506 C54.02812 55.2506 54.41045 55.18834 54.8322 52.91156 C55.12125 51.36777 55.48519 50.98146 55.86095 50.45224 C55.44709 50.67582 55.11862 50.74232 55.08709 50.7494 L54.80592 50.80175 L54.67454 50.52866 C54.41702 50.00792 54.3487 49.50276 54.3487 49.08108 C54.3487 48.94241 54.35395 48.81223 54.36709 48.69478 C53.70622 48.71176 53.35279 48.35376 53.22272 48.17122 C53.20695 48.15141 53.19645 48.14009 53.18856 48.12311 L53.12418 48.2165" id="Fill-94" xml:space="default" style="fill:#FFFFFF;" /><path d="M64.50496 52.25711 C65.86612 53.72449 68.74216 57.01868 68.46887 60.59021 C68.46887 60.59021 65.7978 59.69167 64.70335 57.58327 C63.60102 55.47771 62.9257 54.15608 62.46191 53.68204 C62.75359 53.72449 63.05183 53.72449 63.3422 53.67214 L63.58789 53.6311 C64.26321 54.96123 65.60597 57.13329 66.81473 57.89175 C66.81473 57.89175 67.12086 56.13004 63.57081 52.55993 C63.52088 52.41418 63.44599 52.24579 63.34877 52.06042 C63.67197 52.18919 64.04248 52.26136 64.45635 52.25428" id="Fill-96" xml:space="default" style="fill:#FFFFFF;" /><path d="M43.88289 23.7562 C43.88289 23.49159 44.81836 23.27509 45.96799 23.27509 C47.12156 23.27509 48.05308 23.49159 48.05308 23.7562 C48.05308 24.01798 47.12156 24.23306 45.96799 24.23306 C44.81836 24.23306 43.88289 24.01798 43.88289 23.7562" id="Fill-98" xml:space="default" style="fill:#FFFFFF;" /><path d="M36.81065 26.34089 C36.81065 26.19372 37.40846 26.07911 38.14948 26.07911 C38.89312 26.07911 39.49092 26.19372 39.49092 26.34089 C39.49092 26.48522 38.89312 26.59984 38.14948 26.59984 C37.40846 26.59984 36.81065 26.48522 36.81065 26.34089" id="Fill-100" xml:space="default" style="fill:#FFFFFF;" /><path d="M46.37594 24.80841 C46.37594 25.0518 46.19594 25.2499 45.96864 25.2499 C45.74266 25.2499 45.55478 25.0518 45.55478 24.80841 C45.55478 24.56503 45.74266 24.36692 45.96864 24.36692 C46.19594 24.36692 46.37594 24.56503 46.37594 24.80841" id="Fill-102" xml:space="default" style="fill:#FFFFFF;" /><path d="M43.73338 23.28768 C43.0436 21.50899 42.57718 20.1916 42.59426 19.75153 C42.60608 19.48833 42.9017 19.29023 43.18024 19.19825 C43.45352 19.10345 43.6979 19.08647 43.88316 19.23787 C44.24578 19.53645 44.57819 21.94058 44.70432 22.93959 C44.35483 23.01175 44.14199 23.05986 43.73338 23.28768" id="Fill-104" xml:space="default" style="fill:#FFFFFF;" /><path d="M45.00177 22.90294 C45.17521 22.87747 45.35783 22.87039 45.53914 22.8619 C45.43141 21.90676 45.12134 20.31485 44.94397 19.69083 C44.76134 19.06255 44.53141 18.61116 44.15039 18.49796 C44.15039 18.49796 44.44601 19.37244 44.61156 20.27523 C44.77185 21.17943 44.89535 22.04119 45.00177 22.90294" id="Fill-106" xml:space="default" style="fill:#FFFFFF;" /><path d="M42.80579 26.09156 C43.57177 25.8977 44.35483 25.01614 44.35483 25.01614 C43.11849 25.20717 42.80579 26.09156 42.80579 26.09156 M43.95148 26.01232 C42.88462 26.68021 41.68901 26.57974 41.68901 26.57974 C41.92156 26.12269 42.13835 25.70101 42.80579 25.18877 C43.47323 24.6737 44.56111 24.54494 44.98943 24.60861 C44.89351 24.95105 44.45994 25.68969 43.95148 26.01232" id="Fill-108" xml:space="default" style="fill:#FFFFFF;" /><path d="M39.96891 27.89968 L39.96891 27.8077 C38.92045 27.95204 37.68542 27.89402 37.68542 27.89402 C37.74717 28.31287 37.91009 28.63125 38.18731 28.82511 C38.25301 27.90959 39.96891 27.89968 39.96891 27.89968 M36.48849 26.68983 C36.48849 26.68983 37.81418 27.22047 39.1438 27.15255 C40.46555 27.07897 42.91195 27.05066 43.69764 26.63606 C43.69764 26.63606 43.57151 27.17236 42.94086 27.48083 C42.94086 27.48083 43.27326 27.48083 43.59647 27.78789 C43.59647 27.78789 43.40596 28.2308 42.84232 28.46569 C42.84232 28.46569 43.85267 29.59488 44.93661 29.51281 C44.93661 29.51281 44.43866 30.18212 43.32976 29.92459 C42.22218 29.66846 41.86743 28.99916 41.67955 28.74304 C41.67955 28.74304 41.82276 29.38121 41.75444 29.63875 C41.75444 29.63875 41.26831 29.60762 40.88992 29.09396 C40.88992 29.09396 41.16452 29.60762 41.22233 30.04062 C41.22233 30.04062 40.91751 30.07882 40.36963 29.73073 C40.36963 29.73073 40.48394 30.05194 40.50496 30.41843 C40.50496 30.41843 39.22526 29.97694 38.60381 29.35008 C38.60381 29.35008 38.59724 29.78308 38.62746 30.02788 C38.62746 30.02788 36.6409 29.8128 36.48849 26.68983" id="Fill-110" xml:space="default" style="fill:#FFFFFF;" /><path d="M36.18197 26.90676 C36.2319 27.58314 36.39219 28.24962 36.6116 28.72224 C36.6116 28.72224 35.83117 28.08972 35.64066 27.55201 C35.4449 27.01996 35.39891 26.64922 36.18197 26.90676" id="Fill-112" xml:space="default" style="fill:#FFFFFF;" /><path d="M34.61401 29.47432 C34.79927 29.47432 34.9451 29.32009 34.9451 29.12481 C34.9451 28.92954 34.79927 28.77389 34.61401 28.77389 C34.43795 28.77389 34.29474 28.92954 34.29474 29.12481 C34.29474 29.32009 34.43795 29.47432 34.61401 29.47432 M36.52831 29.06255 C37.05122 29.32009 37.51633 29.92855 37.51633 29.92855 C36.72407 30.12382 36.37327 30.36721 36.37327 30.36721 C34.85576 29.21537 33.60497 30.37428 33.60497 30.37428 C32.78381 29.87761 32.62614 28.65219 33.03738 28.00553 C33.44599 27.35603 34.37226 27.46923 34.81109 27.58385 C35.08963 28.5305 36.05663 28.83473 36.52831 29.06255" id="Fill-114" xml:space="default" style="fill:#FFFFFF;" /><path d="M37.68949 30.14038 C37.68949 30.14038 38.24131 30.93421 38.6473 31.28372 C38.6473 31.28372 36.60424 31.26249 36.08921 33.16712 C36.08921 33.16712 35.38235 31.99972 35.8987 31.23985 C36.45578 30.42197 36.96556 30.32009 37.68949 30.14038" id="Fill-116" xml:space="default" style="fill:#FFFFFF;" /><path d="M39.93041 30.61229 C39.93041 30.61229 40.58997 30.82171 40.8107 30.88397 C40.8107 30.88397 40.81595 30.4722 40.80413 30.27551 C41.00252 30.32645 41.24952 30.39579 41.46237 30.41843 C41.46237 30.41843 42.11798 31.99902 42.63302 32.63861 C42.63302 32.63861 42.66324 32.98953 42.37682 33.523 C42.37682 33.523 42.00237 32.58625 41.33361 31.83629 C40.95654 31.41461 40.71478 31.20094 39.93041 30.61229" id="Fill-118" xml:space="default" style="fill:#FFFFFF;" /><path d="M38.19572 30.27509 C38.40988 30.33593 39.4636 30.69252 39.96943 31.08873 C40.60928 31.57833 41.05074 32.14717 40.97979 33.11929 C40.97979 33.11929 40.46607 32.3481 39.89454 32.00001 C39.4452 31.72266 38.62798 30.95288 38.19572 30.27509" id="Fill-120" xml:space="default" style="fill:#FFFFFF;" /><path d="M38.21044 23.11703 C38.40489 23.11703 38.78065 23.21891 38.78065 23.55286 C38.78065 23.89388 38.29453 24.70894 38.16182 25.06977 L38.15 25.06977 C38.02124 24.70894 37.52855 23.89388 37.52855 23.55286 C37.52855 23.21891 37.90956 23.11703 38.1027 23.11703 L38.21044 23.11703" id="Fill-122" xml:space="default" style="fill:#FFFFFF;" /><path d="M37.78199 25.74743 C37.69265 25.27339 37.51659 24.0409 37.24725 23.77063 C36.98973 23.50885 36.60608 23.4848 36.42083 23.49612 C36.22638 23.50885 36.02798 23.71969 36.10813 23.99421 C36.18171 24.27863 37.02783 25.6413 37.1382 25.81393 C37.33528 25.77714 37.29717 25.79129 37.78199 25.74743" id="Fill-124" xml:space="default" style="fill:#FFFFFF;" /><path d="M38.53246 25.74743 C38.62706 25.27339 38.79786 24.0409 39.06983 23.77063 C39.32472 23.50885 39.70968 23.4848 39.89756 23.49612 C40.08939 23.50885 40.29172 23.71969 40.2142 23.99421 C40.13143 24.27863 39.28793 25.6413 39.17494 25.81393 C38.98049 25.77714 39.01859 25.79129 38.53246 25.74743" id="Fill-126" xml:space="default" style="fill:#FFFFFF;" /><polygon points="39.07719,21.46371 38.41632,21.46371 38.41632,20.67979 37.88552,20.67979 37.88552,21.46371 37.22071,21.46371 37.22071,21.95897 37.88552,21.95897 37.88552,22.87874 38.41632,22.87874 38.41632,21.95897 39.07719,21.95897" id="Fill-128" xml:space="default" style="fill:#FFFFFF;" /><path d="M31.09011 26.52894 C31.09011 26.37329 31.09668 26.2233 31.1177 26.07331 C31.16763 25.68983 31.17157 25.36579 31.13347 25.09269 C30.65785 25.2908 30.33858 25.41249 29.68428 26.55017 C29.68428 26.55017 30.72617 25.85822 31.09011 26.52894" id="Fill-130" xml:space="default" style="fill:#FFFFFF;" /><path d="M31.99917 28.32603 C32.01231 28.04444 32.18574 27.15297 32.40384 26.52894 C32.66924 25.75351 32.5142 24.63705 32.19231 23.95784 C31.88486 23.30268 31.71669 22.68715 31.76661 22.00793 C31.76661 22.00793 31.15436 22.23009 30.79699 22.46499 C30.74049 23.25316 31.1675 24.04133 31.36983 24.48848 C31.61027 25.01911 31.56034 25.70823 31.50779 26.13132 C31.41582 26.84733 31.55114 27.60861 31.99917 28.32603" id="Fill-132" xml:space="default" style="fill:#FFFFFF;" /><path d="M32.06775 22.31004 C32.04279 22.21948 32.04279 21.97043 32.08878 21.86997 C32.08878 21.86997 33.06234 20.85256 33.87825 20.67993 C34.39197 20.56531 34.70861 20.81153 34.86364 20.94878 C34.86364 20.94878 34.57854 20.91341 34.14233 21.29547 C33.70482 21.67611 33.1622 22.13458 32.75753 22.2492 C32.34892 22.36523 32.26483 22.33127 32.06775 22.31004" id="Fill-134" xml:space="default" style="fill:#FFFFFF;" /><path d="M34.9451 21.02491 C35.30642 21.41829 35.61911 21.83572 35.60992 22.19656 C35.60466 22.57012 35.20131 23.50829 34.99109 23.86629 C34.78087 24.22288 34.46949 24.69125 34.50496 25.26009 C34.52335 25.54168 34.70729 25.83318 34.92408 26.07515 C34.92408 26.07515 33.73504 25.77233 33.58789 24.97991 C33.46176 24.2724 33.74292 23.77856 33.93475 23.38659 C34.1108 23.01586 34.65737 22.15835 34.79927 21.80176 C34.92408 21.47631 34.99109 21.20604 34.9451 21.02491" id="Fill-136" xml:space="default" style="fill:#FFFFFF;" /><path d="M41.89345 29.93718 C42.12863 30.84563 42.53329 31.69606 42.93271 32.36395 C43.29139 32.97666 43.51869 33.96435 43.48584 34.29971 C43.48584 34.29971 44.0219 33.02335 43.75124 32.12198 C43.53314 31.42154 42.95767 30.37584 41.89345 29.93718" id="Fill-138" xml:space="default" style="fill:#FFFFFF;" /><path d="M43.23174 30.23363 C43.23174 30.23363 44.04897 30.25202 44.42999 30.52229 C44.91874 30.86897 45.38516 31.63167 45.56516 32.54436 C45.56516 32.54436 44.74006 32.39013 44.33538 31.95288 C43.92546 31.51423 43.42357 30.85907 43.23174 30.23363" id="Fill-140" xml:space="default" style="fill:#FFFFFF;" /><path d="M39.00979 31.82284 C38.85344 31.83558 38.43432 31.94029 38.23067 32.0068 C38.23067 32.0068 38.92439 32.22471 39.27256 32.5346 C39.56949 32.79497 39.82438 33.20108 39.94 33.88595 C40.11212 34.84251 40.6324 35.87124 40.78875 36.18254 L40.85182 36.16839 C40.75854 35.51041 41.13561 34.14491 41.23809 33.9468 C41.23809 33.9468 40.68365 33.57606 40.43139 33.18976 C40.2435 32.90534 39.91767 32.4313 39.00979 31.82284" id="Fill-142" xml:space="default" style="fill:#FFFFFF;" /><path d="M42.62487 33.8769 C42.82589 34.37782 43.36589 35.26928 43.11363 36.19471 C42.86268 37.12439 42.29641 37.52201 41.95086 38.31159 C41.95086 38.31159 41.68021 36.88808 41.7367 35.79284 C41.79845 34.69478 42.16896 34.27311 42.62487 33.8769" id="Fill-144" xml:space="default" style="fill:#FFFFFF;" /><path d="M44.1902 33.91213 C44.1902 33.91213 45.00217 35.60592 45.14801 36.26957 C45.28991 36.92756 45.15852 37.3648 44.87998 37.76667 C44.61064 38.16429 44.14159 38.59446 43.70933 39.43074 C43.70933 39.43074 43.20744 38.71756 43.14963 38.34541 C43.09182 37.97467 43.18379 37.08321 43.29415 36.71247 C43.39926 36.33466 43.82889 35.13613 44.1902 33.91213" id="Fill-146" xml:space="default" style="fill:#FFFFFF;" /><path d="M44.60591 39.31937 C44.42985 39.52597 43.48125 40.7528 43.3538 41.1108 C43.22636 41.46739 43.00694 42.14377 43.29862 42.61639 C43.59555 43.08759 44.2735 43.83473 44.85817 44.15311 C44.85817 44.15311 44.22095 43.07627 44.28796 42.19471 C44.32475 41.6287 44.73204 41.12495 44.80956 40.7811 C44.88707 40.44008 44.83846 39.8585 44.60591 39.31937" id="Fill-148" xml:space="default" style="fill:#FFFFFF;" /><path d="M42.74995 38.64228 C42.89579 38.8602 43.14936 39.388 43.18484 39.90166 C43.22031 40.40824 43.1428 40.81718 42.88528 41.56007 C42.56339 42.49682 42.05886 43.5397 41.82499 44.0109 C41.82499 44.0109 41.38091 43.32602 41.13522 42.7119 C41.13522 42.7119 41.82894 41.68459 42.1285 40.9601 C42.4701 40.10542 42.61331 39.31584 42.74995 38.64228" id="Fill-150" xml:space="default" style="fill:#FFFFFF;" /><path d="M42.42924 38.24707 C42.42924 38.24707 42.12836 40.65828 40.81057 42.44687 C39.91845 43.65955 39.19452 44.08264 38.71365 44.08264 C37.99102 44.08264 37.26315 43.43456 37.0214 42.68884 C36.7757 41.94878 36.85716 40.79412 37.3249 40.38517 C37.3249 40.38517 37.75453 41.83275 38.68343 41.88369 C39.7332 41.94878 41.07991 40.68092 42.42924 38.24707" id="Fill-152" xml:space="default" style="fill:#FFFFFF;" /><path d="M41.34754 37.23971 C41.45659 37.66988 41.49206 38.3307 41.34754 38.95472 C41.23849 39.43017 40.97046 40.04712 40.45543 40.39522 C40.01003 40.69521 38.95631 40.76596 38.55822 39.69761 C38.55822 39.69761 40.47776 39.85326 41.34754 37.23971" id="Fill-154" xml:space="default" style="fill:#FFFFFF;" /><path d="M44.48595 46.96038 C44.74741 47.68629 45.68288 48.60323 45.68156 49.16924 C45.6658 50.66775 45.05486 51.58611 44.91164 52.07995 C44.91164 52.07995 43.79618 51.12764 43.59779 50.03524 C43.49662 49.47488 43.61355 47.79242 44.48595 46.96038" id="Fill-156" xml:space="default" style="fill:#FFFFFF;" /><path d="M43.23753 48.02094 C43.36628 47.63181 43.77884 46.57054 44.25182 46.20122 C44.25182 46.20122 44.85751 44.27961 42.90775 43.09382 C42.90775 43.09382 42.10498 44.23999 41.89345 45.31824 C41.67929 46.40215 42.74089 47.05024 43.23753 48.02094" id="Fill-158" xml:space="default" style="fill:#FFFFFF;" /><path d="M40.79782 43.16231 C40.48381 43.57549 40.03972 44.13726 39.69681 44.31273 C39.69681 44.31273 39.57987 45.17165 39.64294 45.74332 C39.74673 46.59233 40.24863 47.4555 40.46673 48.08943 C40.46673 48.08943 41.31942 46.88807 41.41796 46.18339 C41.51387 45.47729 41.50205 44.89713 41.5349 44.55752 C41.5349 44.55752 41.05928 43.72549 40.79782 43.16231" id="Fill-160" xml:space="default" style="fill:#FFFFFF;" /><path d="M38.54403 47.28654 C38.30228 46.88751 37.52447 45.43569 37.51396 44.37584 C37.51396 44.37584 38.4757 44.92628 39.2811 44.52017 C39.2811 44.52017 39.3849 45.89982 39.23249 46.36536 C39.1011 46.74318 38.93687 46.96675 38.54403 47.28654" id="Fill-162" xml:space="default" style="fill:#FFFFFF;" /><path d="M38.76857 47.57946 C38.9236 47.43229 39.30856 47.05165 39.46885 46.85213 C39.46885 46.85213 40.10607 48.11009 40.21512 48.47941 C40.21512 48.47941 39.89454 48.56997 39.54243 48.29404 C39.19426 48.02094 39.1128 47.94453 38.76857 47.57946" id="Fill-164" xml:space="default" style="fill:#FFFFFF;" /><path d="M41.72475 46.84024 C41.64854 47.15863 40.61585 48.70242 40.43848 48.89204 C40.43848 48.89204 40.51468 49.45097 40.89964 50.25753 C41.28066 51.05703 41.81277 51.62304 42.09657 51.90746 C42.09657 51.90746 42.73773 50.71035 42.92561 50.18678 C43.13715 49.58398 43.11349 48.99109 43.02415 48.76893 C42.80605 48.2482 42.05847 47.49399 41.72475 46.84024" id="Fill-166" xml:space="default" style="fill:#FFFFFF;" /><path d="M43.27668 50.88213 C43.50397 51.37739 44.19244 52.19244 44.30017 52.8377 C44.38557 53.34286 44.31068 53.75747 44.18193 54.11122 C44.05185 54.45224 43.64193 55.1357 43.36602 55.6536 C43.36602 55.6536 42.42267 54.69421 42.21639 54.01075 C42.05873 53.49569 42.11786 52.76553 42.34384 52.30989 C42.56851 51.85284 43.06121 51.35616 43.27668 50.88213" id="Fill-168" xml:space="default" style="fill:#FFFFFF;" /><path d="M40.60981 50.7419 C40.85156 51.31923 41.43623 51.8909 41.56892 52.39324 C41.72527 52.98755 41.77651 53.36395 41.5098 54.05731 C41.27199 54.66153 40.98557 55.0167 40.89097 55.38744 C40.89097 55.38744 40.12499 54.31767 39.99623 53.87477 C39.87011 53.43187 39.82806 52.7003 39.98704 52.239 C40.14076 51.76921 40.4193 51.16924 40.60981 50.7419" id="Fill-170" xml:space="default" style="fill:#FFFFFF;" /><path d="M44.38006 54.80869 C44.38006 54.80869 43.06094 56.52229 43.09116 57.43073 C43.13058 58.56134 43.82824 59.31696 43.92546 60.01174 C43.92546 60.01174 44.61524 59.1698 44.88064 58.60521 C45.17494 57.97128 45.3983 57.43073 45.32735 56.71048 C45.24326 55.98882 45.06852 55.53035 44.38006 54.80869" id="Fill-172" xml:space="default" style="fill:#FFFFFF;" /><path d="M41.9506 54.64016 C42.1595 54.96703 42.74548 56.08915 42.58125 56.75138 C42.41571 57.4221 41.76666 58.36168 41.54725 58.76072 C41.54725 58.76072 41.02696 57.61171 40.90871 57.08108 C40.79309 56.55752 40.89951 55.69577 41.9506 54.64016" id="Fill-174" xml:space="default" style="fill:#FFFFFF;" /><path d="M55.13084 26.34089 C55.13084 26.19372 54.52909 26.07911 53.78545 26.07911 C53.04706 26.07911 52.444 26.19372 52.444 26.34089 C52.444 26.48522 53.04706 26.59984 53.78545 26.59984 C54.52909 26.59984 55.13084 26.48522 55.13084 26.34089" id="Fill-176" xml:space="default" style="fill:#FFFFFF;" /><path d="M45.98139 21.90039 C46.07073 21.25514 46.76445 19.87124 46.76445 19.26844 C46.76445 18.79299 46.40839 18.40952 45.96825 18.40952 C45.52417 18.40952 45.16942 18.79299 45.16942 19.26844 C45.16942 19.87124 45.8684 21.25514 45.95511 21.90039 L45.98139 21.90039" id="Fill-178" xml:space="default" style="fill:#FFFFFF;" /><path d="M48.20299 23.28768 C48.89934 21.50899 49.35919 20.1916 49.34211 19.75153 C49.3316 19.48833 49.03729 19.29023 48.7627 19.19825 C48.48285 19.10345 48.23452 19.08647 48.05321 19.23787 C47.69321 19.53645 47.35555 21.94058 47.23205 22.93959 C47.58679 23.01175 47.79832 23.05986 48.20299 23.28768" id="Fill-180" xml:space="default" style="fill:#FFFFFF;" /><path d="M46.93657 22.90294 C46.76051 22.87747 46.57919 22.87039 46.40051 22.8619 C46.51087 21.90676 46.81569 20.31485 46.99569 19.69083 C47.17437 19.06255 47.40298 18.61116 47.78926 18.49796 C47.78926 18.49796 47.49101 19.37244 47.32809 20.27523 C47.1678 21.17943 47.04299 22.04119 46.93657 22.90294" id="Fill-182" xml:space="default" style="fill:#FFFFFF;" /><path d="M47.58706 25.01571 C47.58706 25.01571 48.36617 25.89728 49.13609 26.09114 C49.13609 26.09114 48.81945 25.20816 47.58706 25.01571 M46.94852 24.60819 C47.37815 24.54451 48.46603 24.67328 49.13609 25.18835 C49.80354 25.70059 50.01901 26.12226 50.24762 26.57932 C50.24762 26.57932 49.05332 26.67979 47.98647 26.01189 C47.48195 25.69068 47.04575 24.95204 46.94852 24.60819" id="Fill-184" xml:space="default" style="fill:#FFFFFF;" /><path d="M53.75037 28.82553 C54.02891 28.63026 54.18657 28.31188 54.25489 27.89303 C54.25489 27.89303 53.01723 27.95246 51.96352 27.80813 L51.96352 27.90011 C51.96352 27.90011 53.68336 27.91001 53.75037 28.82553 M53.31285 30.02831 C53.34307 29.78209 53.33125 29.35051 53.33125 29.35051 C52.70979 29.97737 51.43404 30.41744 51.43404 30.41744 C51.45243 30.05095 51.56148 29.73115 51.56148 29.73115 C51.02017 30.07783 50.71535 30.04104 50.71535 30.04104 C50.77185 29.60804 51.05039 29.09297 51.05039 29.09297 C50.66806 29.60804 50.18193 29.63917 50.18193 29.63917 C50.11361 29.38164 50.25813 28.74346 50.25813 28.74346 C50.07025 28.99958 49.71814 29.66747 48.60793 29.9236 C47.4964 30.18254 47.00239 29.51324 47.00239 29.51324 C48.08369 29.59389 49.09405 28.46612 49.09405 28.46612 C48.53172 28.23122 48.34253 27.78832 48.34253 27.78832 C48.66967 27.48126 48.99945 27.48126 48.99945 27.48126 C48.36617 27.17278 48.23479 26.63649 48.23479 26.63649 C49.02836 27.05109 51.47082 27.07939 52.79782 27.15297 C54.1235 27.21948 55.44393 26.69026 55.44393 26.69026 C55.29547 29.81181 53.31285 30.02831 53.31285 30.02831" id="Fill-186" xml:space="default" style="fill:#FFFFFF;" /><path d="M55.75571 26.90676 C55.7071 27.58314 55.54418 28.24962 55.32739 28.72224 C55.32739 28.72224 56.10914 28.08972 56.29702 27.55201 C56.48753 27.01996 56.53746 26.64922 55.75571 26.90676" id="Fill-188" xml:space="default" style="fill:#FFFFFF;" /><path d="M57.6457 29.12467 C57.6457 28.9294 57.49592 28.77374 57.31723 28.77374 C57.14117 28.77374 56.99271 28.9294 56.99271 29.12467 C56.99271 29.31994 57.14117 29.47418 57.31723 29.47418 C57.49592 29.47418 57.6457 29.31994 57.6457 29.12467 M57.12541 27.58371 C57.56686 27.4705 58.49182 27.35589 58.90043 28.00538 C59.31561 28.65205 59.15269 29.87746 58.33022 30.37414 C58.33022 30.37414 57.0768 29.21523 55.56454 30.36706 C55.56454 30.36706 55.20849 30.12368 54.41623 29.92841 C54.41623 29.92841 54.88396 29.31994 55.41082 29.06241 C55.87724 28.83459 56.84819 28.53036 57.12541 27.58371" id="Fill-190" xml:space="default" style="fill:#FFFFFF;" /><path d="M54.24688 30.14038 C54.24688 30.14038 53.699 30.93421 53.29301 31.28372 C53.29301 31.28372 55.33344 31.26249 55.84978 33.16712 C55.84978 33.16712 56.55795 31.99972 56.03898 31.23985 C55.48453 30.42197 54.97475 30.32009 54.24688 30.14038" id="Fill-192" xml:space="default" style="fill:#FFFFFF;" /><path d="M52.00661 30.61229 C52.00661 30.61229 51.34706 30.82171 51.12764 30.88397 C51.12764 30.88397 51.11451 30.4722 51.13815 30.27551 C50.93845 30.32645 50.69276 30.39579 50.4786 30.41843 C50.4786 30.41843 49.81773 31.99902 49.30663 32.63861 C49.30663 32.63861 49.2751 32.98953 49.56152 33.523 C49.56152 33.523 49.93466 32.58625 50.60078 31.83629 C50.98049 31.41461 51.22093 31.20094 52.00661 30.61229" id="Fill-194" xml:space="default" style="fill:#FFFFFF;" /><path d="M53.73815 30.27509 C53.53319 30.33593 52.47684 30.69252 51.96313 31.08873 C51.32853 31.57833 50.8897 32.14717 50.95671 33.11929 C50.95671 33.11929 51.47437 32.3481 52.04196 32.00001 C52.49655 31.72266 53.31246 30.95288 53.73815 30.27509" id="Fill-196" xml:space="default" style="fill:#FFFFFF;" /><path d="M53.72527 23.11703 C53.53345 23.11703 53.15374 23.21891 53.15374 23.55286 C53.15374 23.89388 53.64381 24.70894 53.77389 25.06977 L53.78571 25.06977 C53.91578 24.70894 54.40717 23.89388 54.40717 23.55286 C54.40717 23.21891 54.02877 23.11703 53.83301 23.11703 L53.72527 23.11703" id="Fill-198" xml:space="default" style="fill:#FFFFFF;" /><path d="M54.15701 25.74743 C54.24635 25.27339 54.41715 24.0409 54.69175 23.77063 C54.94926 23.50885 55.33028 23.4848 55.52211 23.49612 C55.71524 23.50885 55.91626 23.71969 55.82955 23.99421 C55.75597 24.27863 54.90722 25.6413 54.79423 25.81393 C54.60109 25.77714 54.64051 25.79129 54.15701 25.74743" id="Fill-200" xml:space="default" style="fill:#FFFFFF;" /><path d="M53.40587 25.74743 C53.31259 25.27339 53.13916 24.0409 52.86719 23.77063 C52.60836 23.50885 52.22603 23.4848 52.03683 23.49612 C51.84764 23.50885 51.6453 23.71969 51.72676 23.99421 C51.80297 24.27863 52.64647 25.6413 52.76208 25.81393 C52.95654 25.77714 52.91712 25.79129 53.40587 25.74743" id="Fill-202" xml:space="default" style="fill:#FFFFFF;" /><polygon points="52.86496,21.46371 53.52189,21.46371 53.52189,20.67979 54.05137,20.67979 54.05137,21.46371 54.71356,21.46371 54.71356,21.95897 54.05137,21.95897 54.05137,22.87874 53.52189,22.87874 53.52189,21.95897 52.86496,21.95897" id="Fill-204" xml:space="default" style="fill:#FFFFFF;" /><polygon points="45.04145,16.8179 45.69838,16.8179 45.69838,16.03256 46.23575,16.03256 46.23575,16.8179 46.89531,16.8179 46.89531,17.31033 46.23575,17.31033 46.23575,18.23434 45.69838,18.23434 45.69838,17.31033 45.04145,17.31033" id="Fill-206" xml:space="default" style="fill:#FFFFFF;" /><path d="M60.85204 26.52894 C60.84547 26.37329 60.83627 26.2233 60.82051 26.07331 C60.77189 25.68983 60.76401 25.36579 60.80211 25.09269 C61.27773 25.2908 61.597 25.41249 62.25261 26.55017 C62.25261 26.55017 61.21072 25.85822 60.85204 26.52894" id="Fill-208" xml:space="default" style="fill:#FFFFFF;" /><path d="M59.9372 28.32603 C59.92275 28.04444 59.75326 27.15297 59.53778 26.52894 C59.26976 25.75351 59.42216 24.63705 59.74275 23.95784 C60.05151 23.30268 60.22625 22.68715 60.16844 22.00793 C60.16844 22.00793 60.78464 22.23009 61.13807 22.46499 C61.19719 23.25316 60.77281 24.04133 60.57048 24.48848 C60.32742 25.01911 60.37603 25.70823 60.4299 26.13132 C60.52318 26.84733 60.37997 27.60861 59.9372 28.32603" id="Fill-210" xml:space="default" style="fill:#FFFFFF;" /><path d="M59.87243 22.31004 C59.89213 22.21948 59.88951 21.97043 59.84483 21.86997 C59.84483 21.86997 58.87783 20.85256 58.06062 20.67993 C57.54295 20.56531 57.225 20.81153 57.07128 20.94878 C57.07128 20.94878 57.36033 20.91341 57.79522 21.29547 C58.2301 21.67611 58.7701 22.13458 59.18134 22.2492 C59.58863 22.36523 59.67797 22.33127 59.87243 22.31004" id="Fill-212" xml:space="default" style="fill:#FFFFFF;" /><path d="M56.99139 21.02491 C56.62877 21.41829 56.32133 21.83572 56.3279 22.19656 C56.33315 22.57012 56.73519 23.50829 56.94672 23.86629 C57.15957 24.22288 57.46833 24.69125 57.42891 25.26009 C57.41314 25.54168 57.22921 25.83318 57.01505 26.07515 C57.01505 26.07515 58.20277 25.77233 58.34599 24.97991 C58.47737 24.2724 58.19883 23.77856 58.0057 23.38659 C57.82832 23.01586 57.27782 22.15835 57.14117 21.80176 C57.01505 21.47631 56.94672 21.20604 56.99139 21.02491" id="Fill-214" xml:space="default" style="fill:#FFFFFF;" /><path d="M50.04607 29.93718 C49.80433 30.84563 49.4036 31.69606 49.0055 32.36395 C48.64419 32.97666 48.41689 33.96435 48.45893 34.29971 C48.45893 34.29971 47.91631 33.02335 48.19222 32.12198 C48.40244 31.42154 48.97791 30.37584 50.04607 29.93718" id="Fill-216" xml:space="default" style="fill:#FFFFFF;" /><path d="M48.70344 30.23363 C48.70344 30.23363 47.89016 30.25202 47.51046 30.52229 C47.01776 30.86897 46.5474 31.63167 46.37003 32.54436 C46.37003 32.54436 47.19645 32.39013 47.60374 31.95288 C48.01366 31.51423 48.51293 30.85907 48.70344 30.23363" id="Fill-218" xml:space="default" style="fill:#FFFFFF;" /><path d="M52.92855 31.82284 C53.08752 31.83558 53.5027 31.94029 53.70635 32.0068 C53.70635 32.0068 53.01132 32.22471 52.66709 32.5346 C52.37147 32.79497 52.11002 33.20108 51.9944 33.88595 C51.82753 34.84251 51.30331 35.87124 51.14696 36.18254 L51.08783 36.16839 C51.18374 35.51041 50.80141 34.14491 50.70287 33.9468 C50.70287 33.9468 51.25601 33.57606 51.50564 33.18976 C51.68958 32.90534 52.02199 32.4313 52.92855 31.82284" id="Fill-220" xml:space="default" style="fill:#FFFFFF;" /><path d="M49.31215 33.8769 C49.11507 34.37782 48.57376 35.26928 48.82077 36.19471 C49.07566 37.12439 49.64193 37.52201 49.98485 38.31159 C49.98485 38.31159 50.26207 36.88808 50.20032 35.79284 C50.13857 34.69478 49.77069 34.27311 49.31215 33.8769" id="Fill-222" xml:space="default" style="fill:#FFFFFF;" /><path d="M45.97876 36.47418 C46.01686 35.92939 47.18488 34.62049 47.12708 33.91157 C47.06532 33.20122 46.19029 32.70172 45.9735 32.59842 L45.96168 32.59842 C45.75015 32.70172 44.87249 33.20122 44.80943 33.91157 C44.74899 34.62049 45.91964 35.92939 45.95511 36.47418 L45.97876 36.47418" id="Fill-224" xml:space="default" style="fill:#FFFFFF;" /><path d="M47.74682 33.91213 C47.74682 33.91213 46.93486 35.60592 46.7877 36.26957 C46.64449 36.92756 46.77851 37.3648 47.05573 37.76667 C47.3277 38.16429 47.7928 38.59446 48.23032 39.43074 C48.23032 39.43074 48.72696 38.71756 48.79002 38.34541 C48.85046 37.97467 48.75323 37.08321 48.64419 36.71247 C48.53777 36.33466 48.1055 35.13613 47.74682 33.91213" id="Fill-226" xml:space="default" style="fill:#FFFFFF;" /><path d="M45.97745 40.46428 C46.34664 40.11901 46.67773 39.60818 46.78416 39.30395 C46.88401 39.00255 46.91029 38.55965 46.6646 38.22145 C46.37029 37.81534 46.00109 37.36112 45.97745 36.99321 L45.95905 36.99321 C45.93146 37.36112 45.56621 37.81534 45.27059 38.22145 C45.02359 38.55965 45.04986 39.00255 45.1576 39.30395 C45.25877 39.60818 45.59117 40.11901 45.96168 40.46428 L45.97745 40.46428" id="Fill-228" xml:space="default" style="fill:#FFFFFF;" /><path d="M47.33309 39.31937 C47.51046 39.52597 48.45775 40.7528 48.58519 41.1108 C48.71395 41.46739 48.93074 42.14377 48.63775 42.61639 C48.34213 43.08759 47.66812 43.83473 47.07689 44.15311 C47.07689 44.15311 47.71673 43.07627 47.65104 42.19471 C47.609 41.6287 47.20301 41.12495 47.12681 40.7811 C47.05323 40.44008 47.10316 39.8585 47.33309 39.31937" id="Fill-230" xml:space="default" style="fill:#FFFFFF;" /><path d="M49.18576 38.64228 C49.03992 38.8602 48.78766 39.388 48.74825 39.90166 C48.71934 40.40824 48.79554 40.81718 49.05306 41.56007 C49.37889 42.49682 49.87816 43.5397 50.1094 44.0109 C50.1094 44.0109 50.5548 43.32602 50.80181 42.7119 C50.80181 42.7119 50.10809 41.68459 49.80984 40.9601 C49.4643 40.10542 49.32503 39.31584 49.18576 38.64228" id="Fill-232" xml:space="default" style="fill:#FFFFFF;" /><path d="M49.51107 38.24707 C49.51107 38.24707 49.80931 40.65828 51.12712 42.44687 C52.01791 43.65955 52.74448 44.08264 53.22272 44.08264 C53.94534 44.08264 54.67454 43.43456 54.91891 42.68884 C55.15804 41.94878 55.08315 40.79412 54.61541 40.38517 C54.61541 40.38517 54.18184 41.83275 53.25425 41.88369 C52.20974 41.94878 50.8604 40.68092 49.51107 38.24707" id="Fill-234" xml:space="default" style="fill:#FFFFFF;" /><path d="M50.58883 37.23971 C50.47847 37.66988 50.44693 38.3307 50.58883 38.95472 C50.69919 39.43017 50.96985 40.04712 51.48488 40.39522 C51.93028 40.69521 52.97611 40.76596 53.37947 39.69761 C53.37947 39.69761 51.46254 39.85326 50.58883 37.23971" id="Fill-236" xml:space="default" style="fill:#FFFFFF;" /><path d="M45.96851 44.39848 C46.24048 44.25697 46.46778 44.15368 46.78442 43.64143 C47.02354 43.23815 47.25478 42.49526 47.12602 41.96321 C46.9631 41.30947 46.63595 41.04769 46.43624 40.63875 C46.27596 40.80148 46.1761 40.92741 45.97771 41.04911 L45.96851 41.04911 C45.76749 40.92741 45.66632 40.80148 45.50078 40.63875 C45.29844 41.04769 44.97655 41.30947 44.80969 41.96321 C44.68224 42.49526 44.91217 43.23815 45.15392 43.64143 C45.46531 44.15368 45.69654 44.25697 45.96851 44.39848" id="Fill-238" xml:space="default" style="fill:#FFFFFF;" /><path d="M45.96851 48.46668 C46.09858 47.82426 47.34281 46.59177 47.22588 45.91821 C47.05507 44.91213 46.45333 45.1258 45.97771 44.70129 L45.96851 44.70129 C45.48895 45.1258 44.88064 44.91213 44.70721 45.91821 C44.59684 46.59177 45.83187 47.82426 45.96194 48.46668 L45.96851 48.46668" id="Fill-240" xml:space="default" style="fill:#FFFFFF;" /><path d="M47.4537 46.96038 C47.19093 47.68629 46.2502 48.60323 46.25809 49.16924 C46.27648 50.66775 46.88086 51.58611 47.0267 52.07995 C47.0267 52.07995 48.14216 51.12764 48.33661 50.03524 C48.44172 49.47488 48.32347 47.79242 47.4537 46.96038" id="Fill-242" xml:space="default" style="fill:#FFFFFF;" /><path d="M48.69635 48.02094 C48.5689 47.63181 48.15898 46.57054 47.68336 46.20122 C47.68336 46.20122 47.07636 44.27961 49.02875 43.09382 C49.02875 43.09382 49.83021 44.23999 50.04568 45.31824 C50.25853 46.40215 49.1943 47.05024 48.69635 48.02094" id="Fill-244" xml:space="default" style="fill:#FFFFFF;" /><path d="M51.14446 43.16231 C51.45453 43.57549 51.89467 44.13726 52.24285 44.31273 C52.24285 44.31273 52.35584 45.17165 52.29409 45.74332 C52.19029 46.59233 51.68708 47.4555 51.47424 48.08943 C51.47424 48.08943 50.61892 46.88807 50.51512 46.18339 C50.41658 45.47729 50.4376 44.89713 50.40607 44.55752 C50.40607 44.55752 50.87775 43.72549 51.14446 43.16231" id="Fill-246" xml:space="default" style="fill:#FFFFFF;" /><path d="M53.38971 47.28654 C53.63278 46.88751 54.41715 45.43569 54.42635 44.37584 C54.42635 44.37584 53.46329 44.92628 52.65527 44.52017 C52.65527 44.52017 52.55147 45.89982 52.71045 46.36536 C52.83395 46.74318 53.00081 46.96675 53.38971 47.28654" id="Fill-248" xml:space="default" style="fill:#FFFFFF;" /><path d="M53.16846 47.57946 C53.0108 47.43229 52.62715 47.05165 52.47474 46.85213 C52.47474 46.85213 51.83095 48.11009 51.72716 48.47941 C51.72716 48.47941 52.04248 48.56997 52.39328 48.29404 C52.74408 48.02094 52.8216 47.94453 53.16846 47.57946" id="Fill-250" xml:space="default" style="fill:#FFFFFF;" /><path d="M50.21096 46.84024 C50.28848 47.15863 51.31986 48.70242 51.49723 48.89204 C51.49723 48.89204 51.41577 49.45097 51.03344 50.25753 C50.65505 51.05703 50.12556 51.62304 49.83783 51.90746 C49.83783 51.90746 49.20061 50.71035 49.01141 50.18678 C48.79462 49.58398 48.8209 48.99109 48.91813 48.76893 C49.12966 48.2482 49.87856 47.49399 50.21096 46.84024" id="Fill-252" xml:space="default" style="fill:#FFFFFF;" /><path d="M45.97745 55.97976 C46.07467 55.55809 46.67248 55.05434 46.91685 54.31852 C47.06532 53.88411 47.06007 53.37753 46.9024 53.03085 C46.71321 52.62332 46.04445 51.63139 45.96825 51.34697 C45.88416 51.63139 45.22592 52.62332 45.03278 53.03085 C44.87249 53.37753 44.86855 53.88411 45.01439 54.31852 C45.26534 55.05434 45.86051 55.55809 45.95905 55.97976 L45.97745 55.97976" id="Fill-254" xml:space="default" style="fill:#FFFFFF;" /><path d="M48.65916 50.88213 C48.43449 51.37739 47.74734 52.19244 47.63698 52.8377 C47.55158 53.34286 47.63041 53.75747 47.7526 54.11122 C47.88136 54.45224 48.30048 55.1357 48.57114 55.6536 C48.57114 55.6536 49.51317 54.69421 49.72076 54.01075 C49.87843 53.49569 49.81799 52.76553 49.58937 52.30989 C49.36471 51.85284 48.87595 51.35616 48.65916 50.88213" id="Fill-256" xml:space="default" style="fill:#FFFFFF;" /><path d="M51.33168 50.7419 C51.08731 51.31923 50.50133 51.8909 50.36994 52.39324 C50.21096 52.98755 50.16104 53.36395 50.42644 54.05731 C50.66819 54.66153 50.94804 55.0167 51.04789 55.38744 C51.04789 55.38744 51.81256 54.31767 51.93606 53.87477 C52.07139 53.43187 52.10555 52.7003 51.95445 52.239 C51.79416 51.76921 51.51825 51.16924 51.33168 50.7419" id="Fill-258" xml:space="default" style="fill:#FFFFFF;" /><path d="M45.96851 64.17079 C46.01712 63.64865 47.0196 62.03268 47.06559 60.3205 C47.09055 59.46158 46.38238 58.12296 45.97771 57.61073 L45.95537 57.61073 C45.55596 58.12296 44.84516 59.46158 44.86881 60.3205 C44.91742 62.03268 45.91727 63.64865 45.96851 64.17079" id="Fill-260" xml:space="default" style="fill:#FFFFFF;" /><path d="M47.56209 54.80869 C47.56209 54.80869 48.87858 56.52229 48.84836 57.43073 C48.81026 58.56134 48.10603 59.31696 48.01274 60.01174 C48.01274 60.01174 47.32034 59.1698 47.05888 58.60521 C46.76326 57.97128 46.53597 57.43073 46.62006 56.71048 C46.69363 55.98882 46.86706 55.53035 47.56209 54.80869" id="Fill-262" xml:space="default" style="fill:#FFFFFF;" /><path d="M49.98511 54.64016 C49.77358 54.96703 49.19154 56.08915 49.35577 56.75138 C49.52789 57.4221 50.17299 58.36168 50.38847 58.76072 C50.38847 58.76072 50.90744 57.61171 51.027 57.08108 C51.14394 56.55752 51.03357 55.69577 49.98511 54.64016" id="Fill-264" xml:space="default" style="fill:#FFFFFF;" /><path d="M46.86666 66.91934 C46.94812 65.58922 47.65104 64.78973 47.77323 64.09919 C47.91119 63.33649 47.86388 62.60634 47.31601 61.7276 C46.86666 63.36762 46.38185 64.56615 45.99689 65.38545 C45.98507 65.40526 45.97718 65.43214 45.96799 65.4562 C45.95879 65.43214 45.95353 65.40526 45.93777 65.38545 C45.55544 64.56615 45.06799 63.36762 44.62391 61.7276 C44.07471 62.60634 44.02742 63.33649 44.16274 64.09919 C44.28756 64.78973 44.98916 65.58922 45.06799 66.91934 C45.14551 68.25513 43.75282 68.7617 43.75282 68.7617 C44.22055 68.94566 44.75792 69.02914 45.60799 68.15891 C45.76434 68.00325 45.87996 67.8292 45.96799 67.64667 C46.05864 67.8292 46.17558 68.00325 46.33061 68.15891 C47.17674 69.02914 47.71673 68.94566 48.18578 68.7617 C48.18578 68.7617 46.79046 68.25513 46.86666 66.91934" id="Fill-266" xml:space="default" style="fill:#FFFFFF;" /><path d="M42.48376 58.05816 C42.62698 58.55625 43.06055 59.47884 43.11836 59.76043 C43.22215 60.28824 43.08026 60.92783 42.18683 61.60704 C42.18683 61.60704 41.60742 61.1698 41.37749 60.59813 C41.16465 60.05901 41.28815 59.67695 41.51019 59.40385 C41.73486 59.12509 42.26172 58.47701 42.48376 58.05816" id="Fill-268" xml:space="default" style="fill:#FFFFFF;" /><path d="M44.36271 60.03141 C44.36271 60.29885 44.17877 61.80727 43.7833 62.56007 C43.22228 63.61002 42.39981 64.38828 41.67981 64.38828 C41.01632 64.38828 40.8731 63.95953 40.54464 63.78831 C40.54464 63.78831 40.71281 62.8742 41.46171 62.63648 C42.38273 62.33791 43.79118 61.1507 44.36271 60.03141" id="Fill-270" xml:space="default" style="fill:#FFFFFF;" /><path d="M41.96019 61.95359 C41.80647 61.82482 41.67114 61.73991 41.48851 61.50785 C41.48851 61.50785 40.78035 61.78802 40.19568 62.21254 C39.6097 62.63704 39.03685 63.36012 38.7281 63.73369 C38.7281 63.73369 39.60313 63.97849 40.15889 63.70397 C40.15889 63.70397 40.3586 62.80402 40.98399 62.40073 C41.12195 62.31442 41.55815 62.17433 41.96019 61.95359" id="Fill-272" xml:space="default" style="fill:#FFFFFF;" /><path d="M41.23849 61.18254 C41.0979 60.95472 40.82068 60.53728 40.88112 59.8793 C40.88112 59.8793 39.6474 60.72265 39.28741 61.03679 C38.91427 61.36507 38.14435 62.21834 37.97223 62.49993 C37.97223 62.49993 38.90508 62.27777 39.62113 62.01882 C40.40287 61.74006 40.94418 61.36507 41.23849 61.18254" id="Fill-274" xml:space="default" style="fill:#FFFFFF;" /><path d="M39.1509 62.61341 C38.49134 62.87236 36.99617 63.12848 36.37603 63.32659 C35.75195 63.52752 35.29866 63.87279 34.70348 64.57181 C34.70348 64.57181 35.61924 64.85057 36.10931 65.0133 C36.10931 65.0133 36.8858 64.44446 37.73587 64.09212 C38.29295 63.86147 38.56229 63.23885 39.1509 62.61341" id="Fill-276" xml:space="default" style="fill:#FFFFFF;" /><path d="M37.76399 67.3539 C37.9072 67.17985 38.0872 66.98598 37.94924 66.58836 C37.85202 66.29263 37.31202 65.97565 36.99012 65.80869 C36.45538 65.53134 34.97204 65.104 34.48591 64.95118 C34.48591 64.95118 34.24416 65.25258 34.11934 65.57379 C34.06285 65.69831 34.13643 65.82567 34.34533 65.8667 C34.75919 65.94312 35.75116 65.74359 35.99685 65.91198 C36.25305 66.09593 36.15977 66.33932 36.15977 66.58836 C36.15977 66.58836 36.61436 66.28555 36.89816 66.35347 C37.29757 66.44545 37.53801 66.6478 37.76399 67.3539" id="Fill-278" xml:space="default" style="fill:#FFFFFF;" /><path d="M36.44369 65.12975 C36.55011 65.16796 37.12952 65.35757 37.69448 65.74104 C37.69448 65.74104 37.9428 65.63775 38.06762 65.39153 C38.18718 65.15381 38.6917 64.34583 39.16207 64.23687 C39.16207 64.23687 38.76265 64.19725 38.53273 64.11942 C38.53273 64.11942 38.05448 64.25102 37.71156 64.40243 C37.37128 64.55242 36.94559 64.78024 36.44369 65.12975" id="Fill-280" xml:space="default" style="fill:#FFFFFF;" /><path d="M40.26912 64.10867 C40.1811 64.15395 40.02737 64.23461 39.68052 64.25018 C39.68052 64.25018 38.37848 65.2223 38.22476 66.19584 C38.09863 67.02363 38.5033 67.42267 38.69643 67.52596 C38.89351 67.63492 39.80533 68.03679 40.39788 66.72223 C40.39788 66.72223 39.38752 67.0774 39.11293 66.55808 C38.84096 66.03169 39.28636 65.27041 39.56095 65.0525 C39.91832 64.75958 40.56868 64.56714 40.95627 64.64072 C40.95627 64.64072 40.64226 64.31526 40.26912 64.10867" id="Fill-282" xml:space="default" style="fill:#FFFFFF;" /><path d="M31.73035 75.25541 C31.88802 74.53941 32.06539 73.78944 32.36758 73.09891 C32.9575 71.75321 34.40274 68.17886 37.41411 67.54492 C37.6979 67.48832 37.08827 66.73129 36.82156 66.7709 C36.54827 66.80486 36.01222 67.17985 35.77704 67.3539 C35.77704 67.3539 35.77704 66.58836 35.76784 66.44969 C35.75996 66.30819 35.64697 66.26432 35.53003 66.26715 C35.4131 66.26998 34.68653 66.26432 34.45398 66.54733 C33.76946 67.40484 32.60801 69.70708 31.95239 71.42068 C31.29415 73.13287 30.84875 73.6635 30.15372 73.39889 C29.46132 73.13287 29.04614 72.27677 27.84002 72.53714 C27.42089 72.63053 26.95448 72.93193 26.59185 73.37908 C26.6917 73.5885 26.82178 73.84321 27.38805 73.84321 C27.95169 73.84321 29.02643 74.0965 29.62818 74.55072 C30.23387 75.00494 30.86452 75.15211 31.73035 75.25541" id="Fill-284" xml:space="default" style="fill:#FFFFFF;" /><path d="M43.75716 64.16386 C43.82679 64.71996 44.07511 65.23786 44.34971 65.77557 C44.34971 65.77557 43.43132 70.33196 40.11777 70.68571 C40.11777 70.68571 40.18346 69.7419 41.16491 69.02164 C42.14637 68.30281 43.61395 67.18353 43.50883 65.49115 C43.50883 65.49115 43.24738 65.54775 42.77439 66.18452 C42.30534 66.81845 41.27134 68.65374 39.66711 68.66647 C39.66711 68.66647 39.90755 67.80897 40.61572 67.31229 C41.3252 66.81845 42.2252 66.18452 42.63381 65.41898 C43.04373 64.6577 43.47336 64.30536 43.75716 64.16386" id="Fill-286" xml:space="default" style="fill:#FFFFFF;" /><path d="M42.19445 80.76906 L44.21254 83.81137 L45.74319 80.88226 L45.20056 79.83797 C44.80115 80.60633 44.37415 81.43695 44.13108 81.89259 C43.94188 81.61383 43.43079 80.84406 42.76335 79.83797 L42.19445 80.76906" id="Fill-288" xml:space="default" style="fill:#FFFFFF;" /><path d="M41.67995 78.18975 C39.70916 75.22527 37.28114 71.55469 37.03414 71.18253 L37.79618 70.59105 L35.39313 69.5977 L35.43517 72.42352 L36.24845 71.79241 L41.1071 79.1265 L41.67995 78.18975" id="Fill-290" xml:space="default" style="fill:#FFFFFF;" /><path d="M25.08407 61.52724 C25.67662 60.82963 26.6804 61.43526 27.69602 62.44276 C28.7182 63.45026 29.35411 64.48181 28.7655 65.17659 C28.21236 65.82326 27.16653 65.2714 26.14304 64.26673 C25.1248 63.25782 24.48363 62.22485 25.08407 61.52724" id="Fill-292" xml:space="default" style="fill:#FFFFFF;" /><path d="M26.72324 73.9192 C26.68513 73.88807 26.65623 73.86259 26.62733 73.83147 C26.08601 73.32347 25.77857 72.53671 25.77857 71.67921 C25.77857 70.03212 27.02017 68.68925 28.55476 68.68925 C30.0854 68.68925 31.32437 70.03212 31.32437 71.67921 C31.32437 71.90137 31.28495 72.26786 31.28495 72.26786 C31.41109 72.01174 31.86699 70.87123 31.95897 70.65897 C31.5451 69.05575 30.17212 67.8742 28.55476 67.8742 C27.15812 67.8742 25.94937 68.74869 25.3739 70.01514 C25.59069 68.50671 26.28835 67.15112 26.78105 66.6502 C27.37228 66.05164 28.37476 65.8592 28.37476 65.8592 C27.71651 65.97523 26.84805 65.53658 25.87711 64.57294 C24.95478 63.66449 24.48311 62.86783 24.4542 62.20419 C24.5107 63.14235 24.48311 63.66874 24.23479 64.43285 C23.90238 65.47148 22.98662 67.39309 23.31509 69.56232 C23.49377 70.75378 24.29391 72.52681 25.63667 73.97438 C25.92047 74.29842 26.02558 74.77811 26.06236 75.02858 C26.06236 75.02858 28.03578 75.02858 28.50352 75.07669 C28.50352 75.07669 28.97519 75.02858 28.96731 74.71444 C28.96205 74.39889 28.70059 74.31824 28.46541 74.31824 C28.23155 74.31824 27.24878 74.3437 26.72324 73.9192" id="Fill-294" xml:space="default" style="fill:#FFFFFF;" /><path d="M37.65363 74.64468 C36.38181 75.13428 35.11262 75.40314 33.91044 75.60124 C33.12475 75.72859 32.36403 75.77529 31.62695 75.73425 C31.63746 75.86443 31.63746 76.03707 31.56783 76.16442 C31.56783 76.16442 31.7163 76.3512 31.7163 76.55921 C32.45994 76.58752 33.23512 76.54082 34.02606 76.40781 C35.34386 76.19131 36.72472 75.90688 38.1161 75.33804 L37.65363 74.64468" id="Fill-296" xml:space="default" style="fill:#FFFFFF;" /><path d="M39.73478 74.53898 C41.42308 73.54987 43.06804 72.01598 44.5527 69.57082 L44.8181 69.09113 C44.41211 69.2864 43.89577 69.14631 43.89577 69.14631 C43.86423 69.18876 43.80117 69.29913 43.76833 69.36423 C42.38614 71.56459 40.85156 72.94991 39.28675 73.85693 L39.73478 74.53898" id="Fill-298" xml:space="default" style="fill:#FFFFFF;" /><path d="M28.61769 75.31894 C28.38645 75.27791 27.64412 75.30054 27.20135 75.36988 C26.71522 75.45478 26.16209 75.55808 26.10165 75.84958 C26.0491 76.12409 26.22384 76.41417 26.46953 76.8316 C26.62062 77.08772 26.98325 76.93915 27.18427 76.85849 C27.38398 76.77925 28.52572 76.11985 28.70572 75.90759 C28.89097 75.68826 28.96849 75.3812 28.61769 75.31894" id="Fill-300" xml:space="default" style="fill:#FFFFFF;" /><path d="M29.77875 76.12876 C29.65787 76.04669 29.36094 75.92216 29.05087 76.0481 C28.7408 76.17121 27.61613 76.88438 27.54387 77.22258 C27.46504 77.55653 27.6227 77.72066 27.79613 77.79708 C27.96956 77.87066 28.17978 77.94283 28.33613 77.96122 C28.6173 77.98386 28.89058 77.8084 29.03642 77.61878 C29.17831 77.42634 29.70648 76.7443 29.77875 76.58723 C29.85495 76.43724 29.89437 76.21366 29.77875 76.12876" id="Fill-302" xml:space="default" style="fill:#FFFFFF;" /><path d="M29.9167 76.87986 C29.75116 77.07796 29.29787 77.66944 29.24401 77.76849 C29.19408 77.86613 29.27291 78.02037 29.41481 78.00056 C29.55539 77.98358 30.33188 77.90009 30.77597 77.57464 C31.22005 77.24635 31.51698 76.61383 31.20954 76.38743 C30.90472 76.1582 30.42779 76.26574 29.9167 76.87986" id="Fill-304" xml:space="default" style="fill:#FFFFFF;" /><path d="M30.16752 75.06268 C30.01905 75.02872 29.43176 74.87024 29.30957 75.07683 C29.14796 75.33437 29.26096 75.61171 29.71555 75.84943 C30.16752 76.08009 31.02284 76.26828 31.19627 76.01782 C31.3605 75.76029 31.12795 75.33437 30.16752 75.06268" id="Fill-306" xml:space="default" style="fill:#FFFFFF;" /><path d="M49.45274 58.05816 C49.3069 58.55625 48.87332 59.47884 48.81551 59.76043 C48.71435 60.28824 48.85099 60.92783 49.74835 61.60704 C49.74835 61.60704 50.32514 61.1698 50.55506 60.59813 C50.77185 60.05901 50.64966 59.67695 50.42368 59.40385 C50.20032 59.12509 49.67741 58.47701 49.45274 58.05816" id="Fill-308" xml:space="default" style="fill:#FFFFFF;" /><path d="M47.56853 60.03141 C47.56853 60.29885 47.75247 61.80727 48.15451 62.56007 C48.71421 63.61002 49.53406 64.38828 50.25274 64.38828 C50.9215 64.38828 51.06471 63.95953 51.38923 63.78831 C51.38923 63.78831 51.22106 62.8742 50.46953 62.63648 C49.55508 62.33791 48.14268 61.1507 47.56853 60.03141" id="Fill-310" xml:space="default" style="fill:#FFFFFF;" /><path d="M49.97486 61.95359 C50.1299 61.82482 50.25866 61.73991 50.4426 61.50785 C50.4426 61.50785 51.15734 61.78802 51.742 62.21254 C52.32273 62.63704 52.89163 63.36012 53.20695 63.73369 C53.20695 63.73369 52.33061 63.97849 51.77485 63.70397 C51.77485 63.70397 51.57251 62.80402 50.94712 62.40073 C50.81442 62.31442 50.37822 62.17433 49.97486 61.95359" id="Fill-312" xml:space="default" style="fill:#FFFFFF;" /><path d="M50.69985 61.18254 C50.83649 60.95472 51.11503 60.53728 51.05196 59.8793 C51.05196 59.8793 52.28174 60.72265 52.65093 61.03679 C53.02275 61.36507 53.79136 62.21834 53.96347 62.49993 C53.96347 62.49993 53.02932 62.27777 52.31458 62.01882 C51.53152 61.74006 50.99153 61.36507 50.69985 61.18254" id="Fill-314" xml:space="default" style="fill:#FFFFFF;" /><path d="M52.78416 62.61341 C53.44765 62.87236 54.931 63.12848 55.55902 63.32659 C56.18311 63.52752 56.63902 63.87279 57.2342 64.57181 C57.2342 64.57181 56.3145 64.85057 55.82968 65.0133 C55.82968 65.0133 55.05188 64.44446 54.19524 64.09212 C53.64342 63.86147 53.37014 63.23885 52.78416 62.61341" id="Fill-316" xml:space="default" style="fill:#FFFFFF;" /><path d="M54.17054 67.3539 C54.02864 67.17985 53.84864 66.98598 53.98266 66.58836 C54.0812 66.29263 54.62514 65.97565 54.94966 65.80869 C55.4844 65.53134 56.96775 65.104 57.44993 64.95118 C57.44993 64.95118 57.69037 65.25258 57.81913 65.57379 C57.87299 65.69831 57.79548 65.82567 57.59183 65.8667 C57.17533 65.94312 56.18337 65.74359 55.939 65.91198 C55.68016 66.09593 55.77213 66.33932 55.77213 66.58836 C55.77213 66.58836 55.3228 66.28555 55.03112 66.35347 C54.63959 66.44545 54.3939 66.6478 54.17054 67.3539" id="Fill-318" xml:space="default" style="fill:#FFFFFF;" /><path d="M55.49084 65.12975 C55.38179 65.16796 54.80632 65.35757 54.24136 65.74104 C54.24136 65.74104 53.99173 65.63775 53.86822 65.39153 C53.74997 65.15381 53.24151 64.34583 52.77509 64.23687 C52.77509 64.23687 53.17188 64.19725 53.39655 64.11942 C53.39655 64.11942 53.88005 64.25102 54.22691 64.40243 C54.5672 64.55242 54.9942 64.78024 55.49084 65.12975" id="Fill-320" xml:space="default" style="fill:#FFFFFF;" /><path d="M51.66212 64.10867 C51.75146 64.15395 51.90519 64.23461 52.24942 64.25018 C52.24942 64.25018 53.55671 65.2223 53.70649 66.19584 C53.84313 67.02363 53.43583 67.42267 53.23612 67.52596 C53.03773 67.63492 52.12986 68.03679 51.53862 66.72223 C51.53862 66.72223 52.54503 67.0774 52.82095 66.55808 C53.09423 66.03169 52.65014 65.27041 52.37686 65.0525 C52.01818 64.75958 51.37045 64.56714 50.97497 64.64072 C50.97497 64.64072 51.28767 64.31526 51.66212 64.10867" id="Fill-322" xml:space="default" style="fill:#FFFFFF;" /><path d="M60.20352 75.25541 C60.04454 74.53941 59.87243 73.78944 59.56761 73.09891 C58.98032 71.75321 57.53638 68.17886 54.51714 67.54492 C54.23597 67.48832 54.84166 66.73129 55.11889 66.7709 C55.38691 66.80486 55.92428 67.17985 56.1634 67.3539 C56.1634 67.3539 56.1634 66.58836 56.16997 66.44969 C56.17785 66.30819 56.28822 66.26432 56.40121 66.26715 C56.51946 66.26998 57.24733 66.26432 57.47595 66.54733 C58.16835 67.40484 59.32586 69.70708 59.9841 71.42068 C60.64103 73.13287 61.08906 73.6635 61.77884 73.39889 C62.47387 73.13287 62.8943 72.27677 64.09648 72.53714 C64.51823 72.63053 64.97939 72.93193 65.34991 73.37908 C65.24348 73.5885 65.11341 73.84321 64.55239 73.84321 C63.98218 73.84321 62.90613 74.0965 62.30701 74.55072 C61.70263 75.00494 61.07329 75.15211 60.20352 75.25541" id="Fill-324" xml:space="default" style="fill:#FFFFFF;" /><path d="M48.17225 64.16386 C48.1105 64.71996 47.85955 65.23786 47.58758 65.77557 C47.58758 65.77557 48.50334 70.33196 51.82215 70.68571 C51.82215 70.68571 51.75251 69.7419 50.77238 69.02164 C49.78698 68.30281 48.3194 67.18353 48.42451 65.49115 C48.42451 65.49115 48.68728 65.54775 49.15633 66.18452 C49.63326 66.81845 50.66727 68.65374 52.26492 68.66647 C52.26492 68.66647 52.02974 67.80897 51.32026 67.31229 C50.61077 66.81845 49.70684 66.18452 49.29954 65.41898 C48.89487 64.6577 48.46655 64.30536 48.17225 64.16386" id="Fill-326" xml:space="default" style="fill:#FFFFFF;" /><path d="M45.97364 68.58511 C46.1694 69.18932 47.42151 71.09962 47.96939 71.64157 C48.52252 72.18636 49.86003 73.62827 50.57477 74.34852 C50.57477 74.34852 48.53698 73.80373 47.39129 72.68444 C47.39129 72.68444 46.57538 73.19527 45.98152 73.19527 L45.95261 73.19527 C45.35744 73.19527 44.54021 72.68444 44.54021 72.68444 C43.39716 73.80373 41.3633 74.34852 41.3633 74.34852 C42.07542 73.62827 43.41293 72.18636 43.96212 71.64157 C44.51525 71.09962 45.7713 69.18932 45.96181 68.58511 L45.97364 68.58511" id="Fill-328" xml:space="default" style="fill:#FFFFFF;" /><path d="M45.97876 73.64411 C46.4281 73.64411 46.8551 73.45168 47.09686 73.33988 C46.8551 73.88609 46.40314 74.73369 45.96825 75.08178 L45.96168 75.08178 C45.52811 74.73369 45.07614 73.88609 44.83833 73.33988 C45.07614 73.45168 45.50051 73.64411 45.95248 73.64411 L45.97876 73.64411" id="Fill-330" xml:space="default" style="fill:#FFFFFF;" /><path d="M47.72317 83.81194 L55.68779 71.79128 L56.49712 72.4238 L56.54705 69.59798 L54.13349 70.59134 L54.89816 71.18282 C54.50925 71.77288 48.55484 80.76114 47.80463 81.89316 L44.19809 74.8534 L43.75269 75.58638 L40.54293 80.81066 L39.73885 80.23192 L39.72834 83.00961 L42.16555 81.97099 L41.34701 81.38799 C41.78978 80.66633 43.53328 77.83627 44.114 76.88396 L47.72317 83.81194" id="Fill-332" xml:space="default" style="fill:#FFFFFF;" /><path d="M49.17485 79.09084 C48.63749 78.21777 48.09749 77.3362 47.82158 76.88481 C47.62056 77.29092 47.21064 78.08192 46.75473 78.95924 L46.18451 77.86118 L47.73355 74.85425 L48.1842 75.58582 L49.77792 78.18239 L49.17485 79.09084" id="Fill-334" xml:space="default" style="fill:#FFFFFF;" /><path d="M50.82112 79.87151 L51.39396 80.81109 L52.19542 80.23234 L52.20987 83.01004 L49.77003 81.96999 L50.58463 81.387 C50.50054 81.24975 50.37835 81.03466 50.21543 80.77854 L50.82112 79.87151" id="Fill-336" xml:space="default" style="fill:#FFFFFF;" /><path d="M66.85296 61.52724 C66.25778 60.82963 65.25399 61.43526 64.23181 62.44276 C63.2162 63.45026 62.57766 64.48181 63.17021 65.17659 C63.71941 65.82326 64.77706 65.2714 65.79399 64.26673 C66.80829 63.25782 67.44945 62.22485 66.85296 61.52724" id="Fill-338" xml:space="default" style="fill:#FFFFFF;" /><path d="M65.21326 73.9192 C65.24873 73.88807 65.27502 73.86259 65.30655 73.83147 C65.84523 73.32347 66.16055 72.53671 66.16055 71.67921 C66.16055 70.03212 64.9137 68.68925 63.38306 68.68925 C61.85241 68.68925 60.61213 70.03212 60.61213 71.67921 C60.61213 71.90137 60.65154 72.26786 60.65154 72.26786 C60.52673 72.01174 60.06688 70.87123 59.97622 70.65897 C60.38615 69.05575 61.7565 67.8742 63.38306 67.8742 C64.77837 67.8742 65.98713 68.74869 66.55865 70.01514 C66.34187 68.50671 65.65078 67.15112 65.15414 66.6502 C64.56422 66.05164 63.56043 65.8592 63.56043 65.8592 C64.21736 65.97523 65.08582 65.53658 66.05939 64.57294 C66.97909 63.66449 67.45734 62.86783 67.48098 62.20419 C67.42448 63.14235 67.44945 63.66874 67.69514 64.43285 C68.03149 65.47148 68.94856 67.39309 68.62535 69.56232 C68.44404 70.75378 67.64127 72.52681 66.3064 73.97438 C66.01603 74.29842 65.90829 74.77811 65.87676 75.02858 C65.87676 75.02858 63.8994 75.02858 63.42773 75.07669 C63.42773 75.07669 62.96131 75.02858 62.96919 74.71444 C62.97839 74.39889 63.23459 74.31824 63.4724 74.31824 C63.70232 74.31824 64.68903 74.3437 65.21326 73.9192" id="Fill-340" xml:space="default" style="fill:#FFFFFF;" /><path d="M52.19529 74.53544 C50.51223 73.54209 48.86597 72.01527 47.37999 69.57153 L47.11328 69.09042 C47.52057 69.2871 48.04218 69.14702 48.04218 69.14702 C48.07108 69.18947 48.13283 69.29842 48.16436 69.36352 C49.54917 71.56105 51.08113 72.95061 52.64594 73.85622 L52.19529 74.53544" id="Fill-342" xml:space="default" style="fill:#FFFFFF;" /><path d="M54.27893 74.64114 C55.55206 75.13499 56.82125 75.40385 58.02212 75.60053 C58.80912 75.72788 59.57641 75.77458 60.30692 75.73354 C60.29641 75.86514 60.29641 76.03777 60.36736 76.16513 C60.36736 76.16513 60.22283 76.35049 60.22283 76.5585 C59.47393 76.58681 58.7027 76.54153 57.9065 76.40852 C56.59921 76.1906 55.20914 75.90759 53.82171 75.33592 L54.27893 74.64114" id="Fill-344" xml:space="default" style="fill:#FFFFFF;" /><path d="M63.31684 75.31894 C63.55202 75.27791 64.29435 75.30054 64.73581 75.36988 C65.22062 75.45478 65.77507 75.55808 65.8355 75.84958 C65.88806 76.12409 65.71201 76.41417 65.46894 76.8316 C65.31128 77.08772 64.94997 76.93915 64.7542 76.85849 C64.55186 76.77925 63.41012 76.11985 63.22487 75.90759 C63.04618 75.68826 62.96867 75.3812 63.31684 75.31894" id="Fill-346" xml:space="default" style="fill:#FFFFFF;" /><path d="M62.15118 76.12876 C62.276 76.04669 62.57687 75.92216 62.88563 76.0481 C63.19176 76.17121 64.31511 76.88438 64.39394 77.22258 C64.4662 77.55653 64.31248 77.72066 64.13774 77.79708 C63.96693 77.87066 63.75278 77.94283 63.59774 77.96122 C63.3192 77.98386 63.04723 77.8084 62.90008 77.61878 C62.75425 77.42634 62.23396 76.7443 62.15118 76.58723 C62.08023 76.43724 62.04213 76.21366 62.15118 76.12876" id="Fill-348" xml:space="default" style="fill:#FFFFFF;" /><path d="M62.02032 76.87986 C62.18061 77.07796 62.63784 77.66944 62.68908 77.76849 C62.74557 77.86613 62.66149 78.02037 62.51959 78.00056 C62.37638 77.98358 61.60646 77.90009 61.16106 77.57464 C60.71698 77.24635 60.42136 76.61383 60.7288 76.38743 C61.02705 76.1582 61.50529 76.26574 62.02032 76.87986" id="Fill-350" xml:space="default" style="fill:#FFFFFF;" /><path d="M61.76885 75.06268 C61.91469 75.02872 62.50067 74.87024 62.6268 75.07683 C62.78315 75.33437 62.67147 75.61171 62.21688 75.84943 C61.76885 76.08009 60.91221 76.26828 60.74141 76.01782 C60.57455 75.76029 60.81105 75.33437 61.76885 75.06268" id="Fill-352" xml:space="default" style="fill:#FFFFFF;" /><polygon points="97.84702,99.50006 189.7843,99.50006 189.7843,0.483529 97.84702,0.483529" id="Fill-354" xml:space="default" style="fill:#BB2940;" /><path d="M171.9078 31.88977 C171.9157 31.45112 171.9906 28.37909 171.9972 27.96308 L172.6922 27.96308 C175.379 27.96308 175.8284 28.4739 176.0793 31.88977 L171.9078 31.88977 z M179.5492 30.18325 C179.1275 26.36126 177.4615 24.37173 173.5252 24.37173 L168.5194 24.37173 L167.8388 45.96646 L171.4874 45.96646 C171.4874 45.96646 171.8237 35.9509 171.8421 35.47687 C172.2428 35.47687 176.0728 35.48111 176.4525 35.48111 C176.4932 35.91836 177.1843 45.96646 177.1843 45.96646 L180.9498 45.96646 C180.9498 45.96646 179.6543 31.13132 179.5492 30.18325 z" id="Fill-356" xml:space="default" style="fill:#FFFFFF;" /><path d="M127.6465 61.54804 C127.6544 61.10796 127.7293 58.03594 127.7359 57.61992 L128.3902 57.57606 C131.0757 57.57606 131.5671 58.13216 131.818 61.54804 L127.6465 61.54804 z M135.2879 59.8401 C134.8675 56.01953 133.2002 54.03 129.2639 54.03 L124.2581 54.03 L123.5775 75.62331 L127.2248 75.62331 C127.2248 75.62331 127.5624 65.60775 127.5822 65.13372 C127.9816 65.13372 131.8115 65.13937 132.1898 65.13937 C132.2332 65.5752 132.923 75.62331 132.923 75.62331 L136.6885 75.62331 C136.6885 75.62331 135.3931 60.78959 135.2879 59.8401 z" id="Fill-357" xml:space="default" style="fill:#FFFFFF;" /><polygon points="107.9175,24.37173 107.9175,45.9608 111.6042,45.9608 111.6042,27.96166 116.1725,27.96166 116.1725,45.9608 119.8644,45.9608 119.8644,24.37173" id="Fill-358" xml:space="default" style="fill:#FFFFFF;" /><path d="M146.9176 31.89048 L144.9113 31.89048 C144.0809 31.89048 143.4647 31.69096 143.0719 31.28768 C142.796 31.00751 142.6607 30.62686 142.6607 30.13302 L142.6607 24.37244 L138.9648 24.37244 L138.9648 30.53489 C138.9648 31.95699 139.4877 33.15835 140.5177 34.11349 C141.5334 35.05873 142.7776 35.53559 144.2202 35.53559 L146.9176 35.53559 L146.9176 45.9601 L150.6082 45.9601 L150.6082 24.37244 L146.9176 24.37244 L146.9176 31.89048" id="Fill-359" xml:space="default" style="fill:#FFFFFF;" /><polygon points="154.693,24.37173 154.693,27.96166 157.7556,27.96166 157.7556,45.9608 157.8016,45.9608 161.4436,45.9608 161.4883,45.9608 161.4883,27.96166 164.5522,27.96166 164.5522,24.37173" id="Fill-360" xml:space="default" style="fill:#FFFFFF;" /><polygon points="149.2796,54.02858 149.2796,60.92826 144.2173,60.92826 144.2173,54.02858 140.5372,54.02858 140.5372,75.62756 144.2173,75.62756 144.2173,64.51959 149.2796,64.51959 149.2796,75.62756 152.9597,75.62756 152.9597,54.02858" id="Fill-361" xml:space="default" style="fill:#FFFFFF;" /><path d="M112.8638 72.28371 C112.5051 72.28371 111.6051 72.19598 111.6051 72.19598 L111.6051 64.59303 C111.6051 64.59303 111.8941 64.52087 112.2108 64.52087 C114.0804 64.52087 116.2916 64.40342 116.2916 68.39804 C116.2916 72.06155 113.8623 72.28371 112.8638 72.28371 M113.3105 61.09509 C112.6746 61.09509 112.1109 61.11065 111.6051 61.13754 L111.6051 57.61978 L118.2204 57.61978 L118.2204 54.02986 L107.9171 54.02986 L107.9171 75.61893 L113.5141 75.61893 C119.0928 75.61893 119.956 70.27862 119.956 68.30041 C119.956 65.96136 119.098 61.09509 113.3105 61.09509" id="Fill-362" xml:space="default" style="fill:#FFFFFF;" /><path d="M127.0096 35.20561 L127.0096 35.20278 C127.0398 29.36013 128.3812 27.43711 129.7963 27.40739 C131.21 27.43711 132.5501 29.36013 132.5816 35.20278 L132.5816 35.20419 C132.5501 40.91241 131.21 42.86232 129.7963 42.89204 C128.3812 42.86232 127.0398 40.91241 127.0096 35.20561 M136.2552 34.4047 C136.1908 31.3157 135.6981 29.1026 134.9348 27.53192 C133.7339 24.84478 131.8183 23.84152 129.8396 23.81605 C129.8357 23.81605 129.8317 23.81464 129.8278 23.81464 L129.7963 23.81464 L129.7634 23.81464 C129.7595 23.81464 129.7542 23.81605 129.7503 23.81605 C127.7729 23.84152 125.8586 24.84478 124.6564 27.53192 C123.8931 29.1026 123.4004 31.3157 123.3373 34.4047 C123.336 34.41036 123.3281 35.09665 123.3281 35.10231 C123.3308 37.02675 123.5305 38.89175 123.9181 40.39451 C124.931 44.8193 127.271 46.38291 129.7135 46.43243 C129.7293 46.43243 129.7477 46.43385 129.7634 46.43385 C129.7739 46.43385 129.7844 46.43243 129.7963 46.43243 C129.8068 46.43243 129.8173 46.43385 129.8278 46.43385 C129.8436 46.43385 129.862 46.43243 129.879 46.43243 C132.3202 46.38291 134.6602 44.8193 135.6732 40.39451 C136.0621 38.89175 136.2605 37.02675 136.2618 35.10231 L136.2631 35.10231 C136.2631 35.09665 136.2552 34.41036 136.2552 34.4047" id="Fill-363" xml:space="default" style="fill:#FFFFFF;" /><path d="M171.3266 75.6202 L166.8897 62.9642 C167.8107 62.22697 168.528 60.81052 168.8473 59.40116 C169.1574 58.03141 169.5634 54.0283 169.5634 54.0283 L165.9345 54.0283 C165.9122 54.43583 165.8333 55.80558 165.719 57.19796 C165.5508 59.26249 164.9885 61.16711 163.0269 61.16711 L161.5134 61.16711 C161.5107 60.99448 161.5134 54.0283 161.5134 54.0283 L157.824 54.0283 L157.824 75.62727 L161.5134 75.62727 L161.5134 64.66081 C161.5134 64.66081 163.4657 64.66364 163.7417 64.66081 L167.3653 75.6202 L171.3266 75.6202 z" id="Fill-364" xml:space="default" style="fill:#FFFFFF;" /></g></g></g></svg>