<svg width="40" height="40" viewBox="0 0 40 40" fill="none" xmlns="http://www.w3.org/2000/svg">
<rect x="4" y="4" width="32" height="32" fill="#C9033B"/>
<path fill-rule="evenodd" clip-rule="evenodd" d="M14.7168 15.6691C14.9156 16.109 15.2408 16.5598 16.1277 17.1663C16.3277 17.3014 16.5459 17.5867 16.3787 17.9828C16.2122 18.3806 15.8973 18.9464 16.0863 19.1655C16.2748 19.3863 16.944 19.5019 17.4874 19.2804C17.4874 19.2804 17.6023 19.6272 17.8017 19.8462C17.8023 19.8462 17.7075 20.0354 17.3932 19.9411C17.3932 19.9399 17.5075 20.2228 17.3513 20.527C17.3513 20.527 16.9854 20.4637 16.8285 20.1291C16.8291 20.1291 16.682 20.3919 16.3891 20.4844C16.3891 20.4844 16.1477 20.3597 16.2 19.8785C16.2006 19.8785 16.0225 20.3062 15.4785 20.3798C15.4791 20.3798 15.1642 19.9819 15.5727 19.4477C15.5727 19.4471 15.2797 19.7106 14.7466 19.5846C14.7466 19.584 14.6627 19.3121 15.1442 18.9355C15.1448 18.9349 14.5995 18.9148 14.391 18.4537C14.3916 18.4537 14.6202 18.1701 15.1855 18.2346C15.1861 18.2346 14.6627 18.119 14.5479 17.49C14.5479 17.49 14.9235 17.2503 15.5204 17.6366C15.521 17.636 15.4165 17.4383 15.1642 17.2387C14.9156 17.041 14.6117 16.4862 14.7168 15.6691ZM24.6242 27.2538C24.6674 27.2429 24.8376 27.1991 24.8753 27.2563C24.9221 27.3274 24.8893 27.4023 24.7561 27.4668C24.6236 27.53 24.3732 27.5811 24.3227 27.5118C24.2747 27.443 24.3428 27.3262 24.6242 27.2538ZM24.6978 27.7472C24.7446 27.8008 24.8777 27.9626 24.8935 27.9894C24.9093 28.0131 24.8856 28.0569 24.8437 28.0526C24.803 28.0478 24.5756 28.0252 24.4461 27.9364C24.3173 27.8476 24.2291 27.6748 24.3179 27.6146C24.4085 27.5483 24.5464 27.5781 24.6978 27.7472ZM24.7367 27.5428C24.7738 27.5203 24.8595 27.4856 24.9513 27.5215C25.0412 27.555 25.3695 27.7496 25.392 27.8397C25.4145 27.9297 25.3695 27.9778 25.3184 27.9966C25.268 28.0167 25.2041 28.0368 25.1598 28.0404C25.0783 28.0465 24.9963 27.9991 24.9555 27.9492C24.9142 27.8956 24.7592 27.7101 24.7367 27.6687C24.7148 27.6255 24.7033 27.5653 24.7367 27.5428ZM25.0777 27.3214C25.1452 27.3116 25.3622 27.3153 25.4923 27.3366C25.6339 27.3591 25.7962 27.3877 25.8132 27.4674C25.8302 27.541 25.7779 27.6195 25.7056 27.7338C25.6606 27.8038 25.5555 27.7636 25.4965 27.7411C25.4375 27.7198 25.1044 27.5404 25.051 27.4808C24.9962 27.4223 24.9738 27.3384 25.0777 27.3214ZM22.4317 27.1376C22.8049 27.2745 23.1757 27.3445 23.5283 27.3992C23.7575 27.4339 23.9818 27.4467 24.1963 27.4369C24.1933 27.4704 24.1933 27.5191 24.214 27.5531C24.214 27.5531 24.1708 27.6042 24.1708 27.659C23.9526 27.6687 23.7258 27.6541 23.4936 27.6201C23.1101 27.5604 22.704 27.4807 22.2968 27.3286L22.4317 27.1376ZM21.822 27.109C21.3297 26.8395 20.8483 26.4234 20.4142 25.7591L20.3377 25.6283C20.4544 25.6806 20.6069 25.6447 20.6069 25.6447C20.6148 25.6568 20.6331 25.686 20.6428 25.7019C21.0482 26.2993 21.4956 26.6783 21.9552 26.9247L21.822 27.109ZM25.6327 26.9423C25.643 26.935 25.6509 26.9259 25.6588 26.9186C25.8175 26.7787 25.9074 26.5657 25.9074 26.3327C25.9074 25.885 25.5439 25.5187 25.0959 25.5187C24.6492 25.5187 24.2851 25.885 24.2851 26.3327C24.2851 26.3936 24.2966 26.4921 24.2966 26.4921C24.2614 26.4222 24.1264 26.1131 24.0991 26.0571C24.2212 25.6185 24.6206 25.2967 25.0959 25.2967C25.5056 25.2967 25.8588 25.5358 26.026 25.8801C25.9627 25.47 25.7579 25.1032 25.6144 24.9651C25.4436 24.802 25.147 24.7497 25.147 24.7497C25.3403 24.7808 25.5944 24.6615 25.8783 24.4005C26.1487 24.1511 26.2873 23.9357 26.2952 23.7544C26.2794 24.0112 26.2861 24.1535 26.3585 24.3604C26.4575 24.6457 26.725 25.1671 26.629 25.7578C26.5767 26.0809 26.342 26.5633 25.9506 26.9557C25.8673 27.0445 25.8345 27.1753 25.8254 27.2447C25.8254 27.2447 25.2467 27.2447 25.1099 27.2568C25.1099 27.2556 24.9719 27.2447 24.9744 27.1583C24.9774 27.0725 25.0528 27.05 25.1209 27.05C25.1908 27.0482 25.4777 27.0567 25.6327 26.9423ZM26.1129 23.5725C25.9384 23.3827 25.643 23.5464 25.3452 23.8208C25.0479 24.0939 24.8601 24.3744 25.0333 24.5636C25.1944 24.7394 25.502 24.5897 25.8004 24.3178C26.0989 24.0422 26.2861 23.7617 26.1129 23.5725ZM21.4203 28.5618L21.5874 28.8149L21.822 28.658L21.8257 29.4136L21.1127 29.1295L21.3522 28.9725C21.3273 28.9348 21.289 28.8764 21.2422 28.8076L21.4203 28.5618ZM20.94 28.3483C20.782 28.1104 20.6234 27.8719 20.5425 27.7496C20.4835 27.8591 20.3638 28.0739 20.2301 28.313L20.0647 28.0137L20.5182 27.196L20.6489 27.3956L21.1163 28.1013L20.94 28.3483ZM20.5139 29.6314L22.8451 26.3638L23.0827 26.5347L23.0955 25.767L22.3904 26.0365L22.6135 26.1971C22.4992 26.3577 20.7553 28.8015 20.537 29.1094L19.4818 27.1954L19.3511 27.395L18.412 28.8149L18.1774 28.658L18.1737 29.4136L18.8861 29.1294L18.6472 28.9725C18.7767 28.7754 19.2861 28.0052 19.4563 27.7484L20.5139 29.6314ZM20.004 26.8663C20.1352 26.8663 20.2605 26.814 20.3304 26.7842C20.2611 26.9326 20.1267 27.1632 20.0009 27.2581H19.9991C19.872 27.1632 19.7395 26.9326 19.6696 26.7842C19.7389 26.814 19.8629 26.8675 19.9942 26.8675L20.004 26.8663ZM20.0027 25.4913C20.0581 25.6562 20.4258 26.1733 20.5863 26.3218C20.748 26.4702 21.1394 26.8614 21.3479 27.0585C21.3479 27.0585 20.7522 26.9101 20.4173 26.6059C20.4179 26.6059 20.1784 26.7452 20.0052 26.7452H19.9954C19.821 26.7452 19.5821 26.6059 19.5821 26.6059C19.2472 26.9101 18.6515 27.0585 18.6515 27.0585C18.8612 26.8614 19.2514 26.4702 19.4131 26.3218C19.5736 26.1733 19.942 25.6562 19.9985 25.4913H20.0027ZM20.6452 24.2892C20.6264 24.4389 20.5535 24.5812 20.4726 24.7278C20.4732 24.7266 20.7413 25.9671 21.7126 26.062C21.7126 26.062 21.6932 25.8065 21.4057 25.6106C21.1182 25.4147 20.6884 25.1105 20.7194 24.6506C20.7194 24.6506 20.7954 24.6658 20.9334 24.8386C21.0726 25.012 21.3741 25.5102 21.8427 25.5133C21.8433 25.5133 21.774 25.2802 21.5674 25.1458C21.3601 25.0113 21.0944 24.838 20.9753 24.6299C20.8574 24.4237 20.7297 24.3269 20.6452 24.2892ZM24.1659 27.3037C24.1197 27.1102 24.0687 26.907 23.9799 26.719C23.8073 26.3528 23.3848 25.38 22.5028 25.2091C22.4202 25.1926 22.5983 24.987 22.6767 24.9973C22.7569 25.0083 22.9131 25.1093 22.983 25.1555C22.983 25.1543 22.983 24.9475 22.9855 24.9122C22.9879 24.8732 23.0195 24.8599 23.0548 24.8611C23.0888 24.8623 23.3022 24.8599 23.3684 24.9371C23.5708 25.1701 23.9094 25.7974 24.1021 26.2634C24.2942 26.7294 24.4261 26.8718 24.6285 26.7994C24.8309 26.7294 24.9525 26.4964 25.3063 26.5676C25.429 26.5901 25.5634 26.6734 25.6716 26.7957C25.6418 26.8529 25.6041 26.9229 25.4388 26.9229C25.2728 26.9216 24.958 26.9916 24.7817 27.1139C24.6066 27.2362 24.4206 27.2788 24.1659 27.3037ZM21.6682 24.2758C21.6938 24.2868 21.7369 24.3081 21.8378 24.3117C21.8378 24.3105 22.2196 24.577 22.2658 24.8404C22.3035 25.0673 22.1849 25.1744 22.1272 25.2042C22.0688 25.2328 21.8032 25.3423 21.63 24.9846C21.63 24.9846 21.9248 25.0819 22.0056 24.9396C22.0871 24.7972 21.9564 24.5916 21.8755 24.5319C21.7704 24.451 21.5807 24.3987 21.4646 24.42C21.4652 24.42 21.557 24.3306 21.6682 24.2758ZM22.7861 24.552C22.7557 24.5617 22.5855 24.6141 22.4196 24.7193C22.4202 24.7181 22.3472 24.6895 22.3114 24.622C22.2773 24.5587 22.1278 24.3391 21.9922 24.3093C21.9928 24.3093 22.1071 24.2971 22.1734 24.277C22.174 24.277 22.3156 24.3141 22.4159 24.3543C22.5168 24.395 22.6402 24.4565 22.7861 24.552ZM22.3995 25.1543C22.3588 25.1093 22.3065 25.057 22.3454 24.9475C22.3752 24.8678 22.5332 24.7826 22.6287 24.7345C22.7861 24.6609 23.2195 24.5447 23.3599 24.5015C23.3599 24.5015 23.4304 24.5849 23.4681 24.6725C23.4845 24.7059 23.4626 24.7412 23.4012 24.751C23.2821 24.771 22.9897 24.7187 22.9186 24.7637C22.8438 24.8124 22.8688 24.8799 22.8688 24.9469C22.8688 24.9469 22.7363 24.8672 22.653 24.8848C22.5369 24.9104 22.4658 24.9639 22.3995 25.1543ZM21.9947 23.8676C22.1886 23.9363 22.6232 24.0087 22.8062 24.0611C22.9897 24.1158 23.1216 24.2095 23.2955 24.4011C23.2961 24.4011 23.028 24.476 22.8852 24.5222C22.8858 24.5222 22.6572 24.3653 22.408 24.2703C22.2457 24.2071 22.1673 24.0361 21.9947 23.8676ZM21.385 23.4776C21.4245 23.4168 21.506 23.3018 21.4877 23.1248C21.4877 23.1236 21.8476 23.3517 21.9564 23.4399C22.0646 23.5269 22.2889 23.7593 22.3387 23.8366C22.3387 23.8354 22.067 23.7758 21.8573 23.707C21.6281 23.6297 21.4701 23.5263 21.385 23.4776ZM21.1722 23.6869C21.2184 23.6522 21.2567 23.6297 21.3102 23.567C21.3108 23.567 21.5187 23.6443 21.6895 23.7593C21.8609 23.8737 22.0281 24.0683 22.1187 24.1718C22.1193 24.1718 21.8628 24.2381 21.7005 24.1645C21.7011 24.1633 21.6409 23.9199 21.4585 23.8104C21.4184 23.7855 21.2902 23.7496 21.1722 23.6869ZM20.4696 23.1649C20.4696 23.2373 20.523 23.6474 20.641 23.8506C20.8039 24.1371 21.0434 24.3507 21.2549 24.3507C21.4494 24.3507 21.4908 24.2345 21.5868 24.1864C21.5868 24.1864 21.5369 23.9382 21.3181 23.8725C21.0501 23.7928 20.6361 23.4691 20.4696 23.1649ZM21.0197 22.6277C20.9771 22.7646 20.8501 23.0141 20.8325 23.0913C20.8039 23.2337 20.844 23.4083 21.106 23.5926C21.106 23.5926 21.2756 23.4752 21.3431 23.3195C21.4069 23.1722 21.3692 23.07 21.3042 22.994C21.2391 22.9167 21.0847 22.7421 21.0197 22.6277ZM15.3751 27.2538C15.3332 27.2429 15.1618 27.1991 15.1241 27.2563C15.0779 27.3274 15.1113 27.4023 15.2439 27.4668C15.377 27.53 15.6274 27.5811 15.676 27.5118C15.7271 27.443 15.6578 27.3262 15.3751 27.2538ZM15.3028 27.7472C15.2554 27.8008 15.1217 27.9626 15.1065 27.9894C15.0907 28.0131 15.1138 28.0569 15.1557 28.0526C15.1977 28.0484 15.4238 28.0252 15.5526 27.9364C15.6839 27.8476 15.7697 27.6748 15.6803 27.6146C15.5928 27.5483 15.4542 27.5781 15.3028 27.7472ZM15.2621 27.5428C15.2262 27.5203 15.1405 27.4856 15.0481 27.5215C14.9588 27.555 14.6305 27.7496 14.6074 27.8397C14.5862 27.9297 14.6305 27.9778 14.6816 27.9966C14.732 28.0167 14.7953 28.0368 14.8396 28.0404C14.9217 28.0465 15.0031 27.9991 15.0445 27.9492C15.0858 27.8956 15.2402 27.7101 15.2615 27.6687C15.2846 27.6255 15.2973 27.5653 15.2621 27.5428ZM14.9223 27.3214C14.8548 27.3116 14.6378 27.3153 14.5077 27.3366C14.3667 27.3591 14.2038 27.3877 14.1868 27.4674C14.1698 27.541 14.2221 27.6195 14.2938 27.7338C14.3406 27.8038 14.4439 27.7636 14.5029 27.7411C14.5625 27.7198 14.8956 27.5404 14.949 27.4808C15.0044 27.4223 15.0256 27.3384 14.9223 27.3214ZM18.1761 27.1103C18.6697 26.8407 19.1511 26.4234 19.5845 25.7591L19.6636 25.6283C19.545 25.6806 19.3925 25.6447 19.3925 25.6447C19.3852 25.6568 19.3657 25.686 19.3554 25.7019C18.9511 26.3005 18.5026 26.6783 18.0436 26.9247L18.1761 27.1103ZM17.5665 27.1376C17.1944 27.2745 16.8237 27.3445 16.4705 27.3992C16.2432 27.4339 16.0176 27.4467 15.8037 27.4369C15.8067 27.4704 15.8061 27.5191 15.7854 27.5531C15.7854 27.5531 15.828 27.6042 15.828 27.659C16.048 27.6687 16.2736 27.6541 16.5051 27.6201C16.8905 27.5604 17.2947 27.4807 17.702 27.3286L17.5665 27.1376ZM14.3673 26.9423C14.3582 26.935 14.3491 26.9259 14.34 26.9186C14.1819 26.7787 14.092 26.5657 14.092 26.3327C14.092 25.885 14.4561 25.5187 14.9034 25.5187C15.3514 25.5187 15.7149 25.885 15.7149 26.3327C15.7149 26.3936 15.7028 26.4921 15.7028 26.4921C15.7405 26.4222 15.8736 26.1131 15.9009 26.0571C15.78 25.6185 15.3788 25.2967 14.9034 25.2967C14.495 25.2967 14.1412 25.5358 13.9728 25.8801C14.0373 25.47 14.2403 25.1032 14.3849 24.9651C14.5582 24.802 14.8524 24.7497 14.8524 24.7497C14.6597 24.7808 14.4056 24.6615 14.1217 24.4005C13.8519 24.1511 13.7127 23.9357 13.7041 23.7544C13.7218 24.0112 13.7133 24.1535 13.6421 24.3604C13.5431 24.6457 13.2738 25.1671 13.3698 25.7578C13.4239 26.0809 13.6567 26.5633 14.0494 26.9557C14.1327 27.0445 14.1649 27.1753 14.174 27.2447C14.1746 27.2447 14.7539 27.2447 14.8901 27.2568C14.8901 27.2556 15.0274 27.2447 15.0256 27.1583C15.0232 27.0725 14.9466 27.05 14.8779 27.05C14.8104 27.0482 14.5217 27.0567 14.3673 26.9423ZM13.8877 23.5725C14.0616 23.3827 14.3564 23.5464 14.6536 23.8208C14.9527 24.0939 15.1387 24.3744 14.9654 24.5636C14.805 24.7394 14.4962 24.5897 14.1983 24.3178C13.9023 24.0422 13.7133 23.7617 13.8877 23.5725ZM18.7445 28.1043C18.1701 27.2976 17.4583 26.2981 17.3859 26.1971L17.6096 26.0365L16.9057 25.767L16.9185 26.5347L17.1562 26.3638L18.5785 28.3586L18.7445 28.1043ZM18.8964 28.8058L19.4855 29.6314L19.9334 28.835L19.7742 28.5497C19.6587 28.7602 19.5323 28.9871 19.4605 29.1094C19.4064 29.0333 19.2569 28.824 19.0618 28.5497L18.8964 28.8058ZM19.3542 24.2892C19.3736 24.4389 19.4459 24.5812 19.5268 24.7278C19.5274 24.7266 19.2581 25.9671 18.2874 26.062C18.288 26.062 18.3068 25.8065 18.5943 25.6106C18.8819 25.4147 19.311 25.1105 19.2812 24.6506C19.2818 24.6506 19.2046 24.6658 19.0666 24.8386C18.9281 25.012 18.6247 25.5102 18.1567 25.5133C18.1573 25.5133 18.2254 25.2802 18.4327 25.1458C18.6412 25.0113 18.905 24.838 19.0241 24.6299C19.1432 24.4237 19.2697 24.3269 19.3542 24.2892ZM15.8335 27.3037C15.8803 27.1102 15.9313 26.907 16.0201 26.719C16.1933 26.3528 16.6158 25.38 17.4972 25.2091C17.5811 25.1926 17.4017 24.987 17.3227 24.9973C17.2443 25.0083 17.0863 25.1093 17.017 25.1555C17.017 25.1543 17.0176 24.9475 17.0151 24.9122C17.0133 24.8732 16.9811 24.8599 16.9458 24.8611C16.9124 24.8623 16.6984 24.8599 16.6316 24.9371C16.431 25.1701 16.0906 25.7974 15.8991 26.2634C15.7076 26.7294 15.5751 26.8718 15.3721 26.7994C15.1703 26.7294 15.0487 26.4964 14.6944 26.5676C14.5722 26.5901 14.4366 26.6734 14.3303 26.7957C14.36 26.8529 14.3965 26.9229 14.5618 26.9229C14.7272 26.9216 15.0433 26.9916 15.2183 27.1139C15.3946 27.2362 15.5794 27.2788 15.8335 27.3037ZM18.333 24.2758C18.3062 24.2868 18.2625 24.3081 18.1615 24.3117C18.1615 24.3105 17.7804 24.577 17.7348 24.8404C17.6971 25.0673 17.8151 25.1744 17.8728 25.2042C17.9306 25.2328 18.1968 25.3423 18.37 24.9846C18.37 24.9846 18.0752 25.0819 17.995 24.9396C17.9148 24.7972 18.0442 24.5916 18.1251 24.5319C18.2308 24.451 18.4199 24.3987 18.5348 24.42C18.5348 24.42 18.4418 24.3306 18.333 24.2758ZM17.2139 24.552C17.2449 24.5617 17.4145 24.6141 17.5792 24.7193C17.5798 24.7181 17.6516 24.6895 17.688 24.622C17.7227 24.5587 17.871 24.3391 18.0072 24.3093C18.0078 24.3093 17.8917 24.2971 17.8254 24.277C17.8254 24.277 17.6844 24.3141 17.5841 24.3543C17.4844 24.395 17.3592 24.4565 17.2139 24.552ZM17.6011 25.1543C17.6424 25.1093 17.6941 25.057 17.654 24.9475C17.6248 24.8678 17.468 24.7826 17.3707 24.7345C17.2151 24.6609 16.7811 24.5447 16.6395 24.5015C16.6395 24.5015 16.569 24.5849 16.5319 24.6725C16.5155 24.7059 16.5374 24.7412 16.5981 24.751C16.7197 24.771 17.0091 24.7187 17.0796 24.7637C17.158 24.8124 17.1306 24.8799 17.1306 24.9469C17.1306 24.9469 17.2625 24.8672 17.3458 24.8848C17.4631 24.9104 17.533 24.9639 17.6011 25.1543ZM18.0059 23.8676C17.812 23.9363 17.3756 24.0087 17.1932 24.0611C17.0097 24.1158 16.8778 24.2095 16.7039 24.4011C16.7045 24.4011 16.9708 24.476 17.1136 24.5222C17.1136 24.5222 17.3415 24.3653 17.5908 24.2703C17.7549 24.2071 17.8327 24.0361 18.0059 23.8676ZM18.6144 23.4776C18.5755 23.4168 18.494 23.3018 18.5117 23.1248C18.5117 23.1236 18.1524 23.3517 18.0436 23.4399C17.9354 23.5269 17.7117 23.7593 17.6607 23.8366C17.6607 23.8354 17.9324 23.7758 18.1421 23.707C18.3719 23.6297 18.5299 23.5263 18.6144 23.4776ZM18.8284 23.6869C18.7828 23.6522 18.7439 23.6297 18.6892 23.567C18.6892 23.567 18.4813 23.6443 18.3099 23.7593C18.1397 23.8737 17.9713 24.0683 17.8813 24.1718C17.8813 24.1718 18.1366 24.2381 18.3001 24.1645C18.3008 24.1633 18.3597 23.9199 18.5421 23.8104C18.5822 23.7855 18.7092 23.7496 18.8284 23.6869ZM19.5317 23.1649C19.5317 23.2373 19.4769 23.6474 19.3596 23.8506C19.1967 24.1371 18.956 24.3507 18.7457 24.3507C18.5494 24.3507 18.5086 24.2345 18.4114 24.1864C18.412 24.1864 18.4606 23.9382 18.6807 23.8725C18.9499 23.7928 19.3633 23.4691 19.5317 23.1649ZM18.9809 22.6277C19.0229 22.7646 19.1499 23.0141 19.1669 23.0913C19.1967 23.2337 19.156 23.4083 18.894 23.5926C18.8946 23.5926 18.7238 23.4752 18.6576 23.3195C18.5956 23.1722 18.6314 23.07 18.6959 22.994C18.7615 22.9167 18.9147 22.7421 18.9809 22.6277ZM20.2647 25.0387C20.2878 24.6761 20.4927 24.4589 20.5297 24.271C20.5693 24.0629 20.5553 23.8658 20.3942 23.6255C20.2647 24.0696 20.1207 24.3969 20.0082 24.6202C20.007 24.6263 20.0033 24.6329 20.0003 24.6402C19.9979 24.6329 19.9942 24.6263 19.9924 24.6202C19.8806 24.3957 19.7359 24.0714 19.6058 23.6255C19.4459 23.8646 19.432 24.0629 19.4721 24.271C19.5085 24.4589 19.7134 24.6761 19.7359 25.0387C19.7596 25.4025 19.3511 25.54 19.3511 25.54C19.4891 25.5875 19.6453 25.6112 19.8951 25.3758C19.9407 25.3332 19.9742 25.2857 20.0009 25.2358C20.0264 25.2845 20.0611 25.3332 20.1067 25.3758C20.3559 25.6112 20.5121 25.5887 20.6495 25.54C20.6489 25.5394 20.241 25.4025 20.2647 25.0387ZM21.1765 21.6987C21.1157 21.7869 20.9425 22.0917 20.9911 22.2736C21.0416 22.4556 21.2306 22.7099 21.2938 22.82C21.2938 22.82 21.4458 22.506 21.4798 22.3637C21.5145 22.2183 21.4829 21.9865 21.1765 21.6987ZM20.4653 21.7437C20.4653 21.7437 20.8513 22.211 20.8416 22.458C20.8306 22.7658 20.6264 22.969 20.5972 23.1588C20.5972 23.1588 20.3948 22.9307 20.3188 22.7774C20.2325 22.6052 20.1668 22.458 20.1893 22.2615C20.2124 22.0662 20.2641 21.9402 20.4653 21.7437ZM20.0009 24.2916C20.0137 24.1493 20.3073 23.7106 20.3206 23.2434C20.3298 23.0092 20.1201 22.6448 20.0021 22.5067H19.9961C19.8787 22.6448 19.6702 23.0092 19.6781 23.2434C19.6927 23.7106 19.9851 24.1487 19.9991 24.2916H20.0009ZM21.5698 20.639C21.4987 20.7947 21.3266 20.9505 21.2871 21.088C21.2434 21.2486 21.2276 21.3532 21.3054 21.5394C21.3741 21.7055 21.4573 21.801 21.4859 21.902C21.4859 21.902 21.7108 21.6118 21.7473 21.4907C21.785 21.3696 21.7965 21.1713 21.7503 21.0454C21.7047 20.9182 21.6239 20.754 21.5698 20.639ZM20.7881 20.6754C20.7212 20.8123 20.52 21.0332 20.489 21.209C20.4641 21.3471 20.486 21.4584 20.5231 21.5545C20.5607 21.6495 20.6811 21.8338 20.7613 21.9737C20.7613 21.9737 21.0367 21.7146 21.0981 21.5284C21.1455 21.3872 21.1273 21.1883 21.0604 21.0636C20.9947 20.9407 20.8513 20.805 20.7881 20.6754ZM20.0033 22.0638C20.0319 21.9488 20.2064 21.8119 20.2793 21.6123C20.3219 21.4937 20.32 21.3556 20.2726 21.2607C20.2185 21.1512 20.0228 20.8817 20.0009 20.8032H19.9997C19.976 20.8817 19.7827 21.1512 19.728 21.2607C19.6812 21.3556 19.6787 21.4937 19.7219 21.6123C19.7948 21.8119 19.9687 21.9488 19.9979 22.065L20.0033 22.0638ZM21.2434 19.5773C21.2659 19.6643 21.5673 20.0841 21.6184 20.1352C21.619 20.1352 21.5959 20.2891 21.4829 20.5063C21.371 20.7235 21.216 20.878 21.1327 20.9541C21.1339 20.9541 20.9455 20.6298 20.8914 20.4856C20.8294 20.3214 20.8361 20.1601 20.8628 20.1005C20.9255 19.9606 21.1449 19.7562 21.2434 19.5773ZM22.1077 19.7787C22.0615 19.738 21.9491 19.6351 21.9035 19.5804C21.9035 19.5798 21.7157 19.9235 21.6841 20.0227C21.6841 20.0221 21.7777 20.047 21.881 19.9734C21.9831 19.898 22.0062 19.8797 22.1077 19.7787ZM22.1728 19.6984C22.2439 19.5907 22.473 19.1947 22.4755 18.9063C22.4761 18.9063 22.194 19.0565 21.9576 18.947C21.9576 18.947 21.9272 19.3212 21.9722 19.4477C22.0093 19.5493 22.0579 19.6126 22.1728 19.6984ZM21.5145 18.579C21.6056 18.6879 21.7351 18.8424 21.836 18.8899C21.8366 18.8899 21.8694 19.1241 21.85 19.2798C21.8202 19.5092 21.6725 19.7459 21.6099 19.918C21.6105 19.918 21.3601 19.5913 21.3315 19.4003C21.3035 19.2062 21.3072 19.0487 21.2981 18.9568C21.2987 18.9568 21.4373 18.7311 21.5145 18.579ZM20.8002 19.8979C20.7619 19.7927 20.6416 19.5049 20.5024 19.4039C20.503 19.4033 20.3249 18.8801 20.8957 18.5583C20.8957 18.5583 21.1303 18.871 21.1935 19.1636C21.2549 19.4563 20.9443 19.6339 20.8002 19.8979ZM20.4343 19.6108C20.3583 19.8073 20.083 20.0567 20.0842 20.2113C20.0897 20.6189 20.2672 20.8695 20.3103 21.004C20.3103 21.0028 20.6361 20.7436 20.6939 20.4467C20.7243 20.2934 20.689 19.8371 20.4343 19.6108ZM20.0009 20.0172C20.0392 19.845 20.4015 19.5092 20.3681 19.3273C20.3182 19.0535 20.1425 19.1119 20.0027 18.9957H20.0003C19.8617 19.1113 19.683 19.0535 19.6332 19.3273C19.6003 19.5086 19.9608 19.845 19.9997 20.0184L20.0009 20.0172ZM20.0009 18.913C20.0799 18.8746 20.1462 18.8467 20.238 18.7073C20.3103 18.5978 20.3772 18.3958 20.3389 18.2517C20.2921 18.0734 20.1954 18.0016 20.1377 17.8903C20.0903 17.9341 20.0611 17.9682 20.0027 18.0022H19.9997C19.9426 17.9676 19.9116 17.9341 19.8635 17.8903C19.8064 18.0016 19.7091 18.0734 19.6623 18.2517C19.624 18.3952 19.6909 18.5978 19.7632 18.7073C19.8544 18.8467 19.9201 18.8753 20.0003 18.913H20.0009ZM21.354 16.9656C21.3206 17.0842 21.3108 17.2631 21.354 17.4328C21.3856 17.5618 21.464 17.7303 21.6148 17.8246C21.7455 17.9055 22.0512 17.9262 22.1691 17.6354C22.1685 17.6348 21.6069 17.678 21.354 16.9656ZM21.0367 17.2399C21.0367 17.2399 21.1242 17.897 21.509 18.3831C21.7704 18.7128 21.9825 18.8272 22.1223 18.8272C22.3357 18.8266 22.5466 18.6501 22.6183 18.4476C22.6907 18.2462 22.6676 17.9323 22.5296 17.8215C22.5296 17.8209 22.4031 18.2145 22.1314 18.2291C21.8263 18.2468 21.4312 17.9025 21.0367 17.2399ZM20.9425 17.3476C20.8993 17.406 20.8246 17.5508 20.8148 17.6895C20.8051 17.827 20.8276 17.939 20.9036 18.141C20.9984 18.3953 21.1449 18.68 21.2136 18.8065C21.2148 18.8065 21.3437 18.621 21.4154 18.4543C21.416 18.4543 21.2118 18.1756 21.1248 17.9779C21.0239 17.7449 20.9814 17.5302 20.9425 17.3476ZM20.3997 17.532C20.4519 17.5879 20.7285 17.9219 20.7662 18.0199C20.8039 18.1166 20.8671 18.3003 20.7802 18.4281C20.6951 18.5552 20.4975 18.7609 20.3243 18.8467C20.3243 18.8467 20.5115 18.5546 20.4927 18.3137C20.4811 18.1604 20.3614 18.0235 20.3383 17.9298C20.3176 17.8367 20.3316 17.6786 20.3997 17.532ZM20.0033 17.8435C20.1115 17.7504 20.2076 17.6123 20.238 17.5295C20.2684 17.445 20.2763 17.3257 20.2052 17.2333C20.1176 17.1231 20.0094 17.0003 20.0027 16.8999H19.9985C19.99 17.0003 19.883 17.1231 19.7955 17.2333C19.7243 17.3257 19.7322 17.4462 19.7639 17.5295C19.7936 17.6123 19.8903 17.751 19.9997 17.8441L20.0033 17.8435ZM20.5206 16.0615C20.5206 16.0615 20.2829 16.5233 20.2404 16.704C20.1985 16.881 20.2368 17.0027 20.3176 17.1104C20.399 17.218 20.534 17.3349 20.6604 17.5618C20.661 17.5618 20.8075 17.3695 20.8258 17.2673C20.8434 17.1657 20.8148 16.9242 20.7832 16.822C20.7522 16.7204 20.6252 16.3955 20.5206 16.0615ZM20.004 16.7575C20.0143 16.6103 20.3553 16.2538 20.3383 16.0621C20.3206 15.8699 20.0641 15.7324 20.0015 15.7044H19.9991C19.9359 15.7324 19.68 15.8699 19.6617 16.0621C19.6447 16.2532 19.9863 16.6103 19.9954 16.7575H20.004ZM20.9796 16.0512C20.92 16.1887 20.7626 16.429 20.8355 16.6821C20.9097 16.9346 21.0738 17.0435 21.1759 17.2564C21.1765 17.2564 21.2567 16.8707 21.2385 16.5738C21.2209 16.2763 21.1121 16.1607 20.9796 16.0512ZM22.0378 15.4933C22.0822 15.497 22.2044 15.5262 22.2639 15.5438C22.2639 15.5438 22.0615 15.6028 21.96 15.6868C21.8737 15.7592 21.7989 15.8693 21.7643 16.0542C21.7157 16.314 21.5619 16.5951 21.5157 16.6796L21.4987 16.676C21.5254 16.4965 21.4136 16.126 21.3856 16.0725C21.3856 16.0725 21.5461 15.9703 21.6196 15.8656C21.6737 15.7878 21.7704 15.6594 22.0378 15.4933ZM20.8015 15.0626C20.8015 15.0626 20.5626 15.0656 20.4501 15.1386C20.3067 15.2341 20.1699 15.441 20.1176 15.6892C20.1176 15.6892 20.3589 15.6491 20.4787 15.5286C20.5978 15.41 20.7449 15.2317 20.8015 15.0626ZM21.1935 14.9816C21.1248 15.228 21.0045 15.4598 20.8896 15.6405C20.7838 15.8054 20.7182 16.0761 20.7279 16.1667C20.7279 16.1667 20.5705 15.8188 20.6507 15.5742C20.7133 15.385 20.8811 15.1021 21.1935 14.9816ZM23.2268 12.5579C23.1192 12.6656 23.0299 12.7787 23.0317 12.8767C23.0335 12.9777 23.1508 13.2332 23.2134 13.3299C23.276 13.4273 23.3654 13.5538 23.3551 13.7089C23.3496 13.7862 23.2955 13.8659 23.2323 13.931C23.2323 13.9304 23.58 13.8495 23.6225 13.6341C23.6614 13.4413 23.5787 13.3068 23.5222 13.1991C23.4705 13.0987 23.3095 12.8663 23.2693 12.769C23.2335 12.6796 23.2128 12.6072 23.2268 12.5579ZM24.0681 12.9059C24.0753 12.8822 24.0741 12.8146 24.0608 12.7873C24.0614 12.7866 23.7775 12.5098 23.538 12.4624C23.3873 12.4326 23.2936 12.4995 23.2493 12.5366C23.2493 12.5366 23.3332 12.5263 23.4614 12.6315C23.5891 12.7337 23.7459 12.8603 23.8669 12.8913C23.9866 12.9217 24.0115 12.9132 24.0681 12.9059ZM24.0887 14.5424C24.0851 14.4658 24.034 14.2242 23.9708 14.0521C23.8924 13.844 23.9374 13.5386 24.0304 13.3549C24.1222 13.176 24.172 13.0087 24.1544 12.8244C24.155 12.8244 24.3355 12.8858 24.4395 12.9491C24.4565 13.1626 24.3319 13.3762 24.2717 13.499C24.2012 13.6426 24.2158 13.83 24.2316 13.945C24.2589 14.1397 24.2182 14.3489 24.0887 14.5424ZM24.355 14.0527C24.3544 14.0131 24.3513 13.9712 24.3452 13.9304C24.3313 13.827 24.3306 13.7375 24.3416 13.6639C24.4808 13.7175 24.5732 13.7515 24.764 14.06C24.7653 14.06 24.4607 13.8714 24.355 14.0527ZM19.7024 11.4123H19.8939V11.2H20.0501V11.4123H20.2428V11.5474H20.0501V11.7987H19.8939V11.5474H19.7024V11.4123ZM22.0178 12.6759H22.2099V12.4618H22.3661V12.6759H22.5588V12.8116H22.3661V13.0616H22.2099V12.8116H22.0178V12.6759ZM22.177 13.8422C22.1491 13.712 22.0992 13.3768 22.0184 13.3025C21.9436 13.2332 21.8318 13.2265 21.7758 13.2295C21.7205 13.2332 21.661 13.291 21.6847 13.3658C21.7084 13.4418 21.9552 13.8124 21.9874 13.8592C22.0463 13.8501 22.0336 13.8531 22.177 13.8422ZM22.3958 13.8422C22.4232 13.712 22.473 13.3768 22.5539 13.3025C22.6293 13.2332 22.7405 13.2265 22.7952 13.2295C22.8517 13.2332 22.9101 13.291 22.887 13.3658C22.8633 13.4418 22.6153 13.8124 22.5831 13.8592C22.5265 13.8501 22.5375 13.8531 22.3958 13.8422ZM22.2712 13.1255C22.2147 13.1255 22.1029 13.1529 22.1029 13.2447C22.1035 13.336 22.2457 13.5581 22.2846 13.6578L22.2883 13.6572C22.3272 13.5575 22.4688 13.336 22.4688 13.2447C22.4694 13.1529 22.3582 13.1255 22.3016 13.1255H22.2712ZM22.2743 15.0735C22.2135 15.0894 21.9047 15.1873 21.7552 15.2938C21.5692 15.427 21.4385 15.5809 21.4585 15.8462C21.4598 15.8456 21.6099 15.6375 21.7771 15.542C21.9096 15.4678 22.1478 15.2585 22.2743 15.0735ZM21.7673 15.1648C21.7673 15.1648 21.5734 15.2208 21.509 15.2384C21.5096 15.2384 21.5066 15.1265 21.512 15.0741C21.4537 15.0875 21.3807 15.107 21.3193 15.1119C21.32 15.1119 21.1267 15.5426 20.9765 15.7154C20.9771 15.7154 20.968 15.8109 21.0525 15.9563C21.0525 15.9563 21.1613 15.702 21.3564 15.4982C21.4677 15.3832 21.537 15.3254 21.7673 15.1648ZM22.4232 15.037C22.4232 15.037 22.2609 15.2524 22.1436 15.3467C22.1436 15.3461 22.7405 15.3418 22.8925 15.8583C22.8931 15.8583 23.0979 15.5426 22.9478 15.3351C22.7855 15.1125 22.6347 15.0851 22.4232 15.037ZM23.2657 14.3404C23.3933 14.3106 23.6657 14.2796 23.7848 14.4554C23.9052 14.6318 23.8571 14.964 23.6176 15.1015C23.6182 15.1015 23.2517 14.7858 22.8074 15.0985C22.8074 15.0985 22.704 15.0309 22.4724 14.9786C22.4724 14.978 22.6092 14.8131 22.763 14.7438C22.901 14.6805 23.1848 14.5984 23.2657 14.3404ZM23.417 14.7602C23.417 14.7085 23.3733 14.6647 23.3216 14.6647C23.2699 14.6647 23.2268 14.7085 23.2268 14.7602C23.2268 14.8125 23.2699 14.8545 23.3216 14.8545C23.3739 14.8545 23.4164 14.8131 23.417 14.7602ZM22.8633 14.1561C22.8499 14.3404 22.8019 14.5223 22.7375 14.6507C22.7375 14.6507 22.9666 14.4773 23.0226 14.3331C23.0797 14.1871 23.0931 14.0867 22.8633 14.1561ZM22.1478 15.006C22.157 14.9379 22.1551 14.8217 22.1551 14.8217C21.974 14.992 21.5983 15.1119 21.5983 15.1119C21.6056 15.0115 21.6379 14.9251 21.6379 14.9251C21.4786 15.0188 21.3886 15.0097 21.3886 15.0097C21.4063 14.891 21.4865 14.7517 21.4865 14.7517C21.3753 14.891 21.2318 14.9008 21.2318 14.9008C21.2136 14.8296 21.2543 14.6568 21.2543 14.6568C21.2002 14.7262 21.095 14.9087 20.7723 14.9786C20.4477 15.048 20.303 14.8667 20.303 14.8667C20.6191 14.888 20.9139 14.5814 20.9139 14.5814C20.751 14.5175 20.6939 14.3976 20.6939 14.3976C20.7887 14.3131 20.8853 14.3131 20.8853 14.3131C20.7024 14.2285 20.6629 14.0843 20.6629 14.0843C20.8951 14.1957 21.6099 14.203 21.9971 14.2242C22.3861 14.2425 22.7733 14.0977 22.7733 14.0977C22.7296 14.947 22.1478 15.006 22.1478 15.006ZM22.2785 14.6781C22.3582 14.6258 22.4056 14.5388 22.425 14.425C22.4256 14.425 22.0627 14.4414 21.7552 14.4025V14.428C21.7552 14.428 22.2579 14.4292 22.2785 14.6781ZM20.2878 13.5325C20.4124 13.5149 20.731 13.5501 20.9267 13.6895C21.1218 13.8294 21.1862 13.9438 21.2531 14.0679C21.2531 14.0673 20.9024 14.0959 20.5918 13.9127C20.4434 13.8263 20.3158 13.6262 20.2878 13.5325ZM20.475 13.642C20.475 13.642 20.703 13.8823 20.9267 13.934C20.9279 13.934 20.8337 13.6949 20.475 13.642ZM20.2842 13.0677C20.2331 13.0629 20.1802 13.0592 20.1267 13.058C20.159 12.7982 20.2477 12.3657 20.3018 12.1947C20.3541 12.0237 20.4203 11.9009 20.5328 11.8704C20.5328 11.8698 20.4453 12.1083 20.3984 12.3535C20.351 12.5993 20.314 12.8347 20.2842 13.0677ZM20.6556 13.1736C20.858 12.6881 20.9923 12.3316 20.9862 12.2111C20.9826 12.1375 20.8975 12.0852 20.8173 12.0609C20.7358 12.0347 20.6629 12.0304 20.6094 12.0712C20.5042 12.1521 20.4063 12.8061 20.3693 13.0775C20.475 13.0987 20.5346 13.1115 20.6556 13.1736ZM20.0039 12.7952C20.0295 12.6193 20.2331 12.2446 20.2331 12.0803C20.2331 11.9507 20.1298 11.8461 20.0003 11.8461C19.8696 11.8461 19.7669 11.9507 19.7669 12.0803C19.7669 12.2446 19.9699 12.6193 19.9948 12.7952H20.0039ZM22.6809 14.0022C22.6809 13.9632 22.5047 13.9322 22.287 13.9322C22.0713 13.9316 21.895 13.9632 21.895 14.0022C21.8956 14.0423 22.0713 14.0746 22.287 14.0746C22.5059 14.0734 22.6809 14.0423 22.6809 14.0022ZM18.8253 21.6987C18.8855 21.7869 19.0581 22.0917 19.0083 22.2736C18.9597 22.4556 18.7706 22.7099 18.7074 22.82C18.708 22.82 18.5554 22.506 18.5202 22.3637C18.4868 22.2183 18.5171 21.9865 18.8253 21.6987ZM19.5353 21.7437C19.5353 21.7437 19.1493 22.211 19.1578 22.458C19.17 22.7658 19.3736 22.969 19.4016 23.1588C19.4016 23.1588 19.6046 22.9307 19.6812 22.7774C19.7675 22.6052 19.8337 22.458 19.8106 22.2615C19.7876 22.065 19.7359 21.9402 19.5353 21.7437ZM18.4314 20.639C18.5044 20.7947 18.6734 20.9505 18.7129 21.088C18.7585 21.2486 18.773 21.3532 18.6946 21.5394C18.6266 21.7055 18.5427 21.801 18.5135 21.902C18.5147 21.902 18.2892 21.6118 18.2521 21.4907C18.2144 21.3696 18.2029 21.1713 18.2497 21.0454C18.2959 20.9182 18.3761 20.754 18.4314 20.639ZM19.2125 20.6754C19.2794 20.8123 19.4806 21.0332 19.5116 21.209C19.5365 21.3471 19.5146 21.4584 19.4769 21.5545C19.4399 21.6495 19.3189 21.8338 19.2381 21.9737C19.2393 21.9737 18.9627 21.7146 18.9013 21.5284C18.8557 21.3872 18.8727 21.1883 18.9384 21.0636C19.0071 20.9407 19.1499 20.805 19.2125 20.6754ZM18.7591 19.5773C18.736 19.6643 18.4333 20.0841 18.3816 20.1352C18.3822 20.1352 18.4047 20.2891 18.5171 20.5063C18.6302 20.7235 18.7846 20.878 18.8679 20.9541C18.8679 20.9541 19.0539 20.6298 19.1086 20.4856C19.1724 20.3214 19.1639 20.1601 19.1378 20.1005C19.0745 19.9606 18.8563 19.7562 18.7591 19.5773ZM17.8935 19.7787C17.9397 19.738 18.0515 19.6351 18.0971 19.5804C18.0971 19.5798 18.2837 19.9235 18.3153 20.0227C18.3159 20.0221 18.2217 20.047 18.1196 19.9734C18.0181 19.898 17.9938 19.8797 17.8935 19.7787ZM17.8284 19.6984C17.7585 19.5907 17.5282 19.1947 17.5245 18.9063C17.5245 18.9063 17.8065 19.0565 18.0424 18.947C18.043 18.947 18.074 19.3212 18.0278 19.4477C17.9926 19.5493 17.9427 19.6126 17.8284 19.6984ZM18.4868 18.579C18.3956 18.6879 18.2655 18.8424 18.164 18.8899C18.1646 18.8899 18.1312 19.1241 18.1494 19.2798C18.1792 19.5092 18.3269 19.7459 18.3901 19.918C18.3901 19.918 18.6393 19.5913 18.6685 19.4003C18.6977 19.2062 18.6922 19.0487 18.7025 18.9568C18.7025 18.9568 18.5633 18.7311 18.4868 18.579ZM19.201 19.8979C19.2399 19.7927 19.359 19.5049 19.4976 19.4039C19.4976 19.4033 19.6763 18.8801 19.1049 18.5583C19.1049 18.5583 18.8697 18.871 18.8071 19.1636C18.7451 19.4563 19.0563 19.6339 19.201 19.8979ZM19.5663 19.6108C19.6423 19.8073 19.9176 20.0567 19.9158 20.2113C19.9109 20.6189 19.7328 20.8695 19.6903 21.004C19.6903 21.0028 19.3639 20.7436 19.3061 20.4467C19.2776 20.2934 19.311 19.8371 19.5663 19.6108ZM18.6478 16.9656C18.6813 17.0842 18.6892 17.2631 18.6478 17.4328C18.6162 17.5618 18.5366 17.7303 18.3865 17.8246C18.257 17.9055 17.9488 17.9262 17.8315 17.6354C17.8315 17.6348 18.3931 17.678 18.6478 16.9656ZM18.9639 17.2399C18.9639 17.2399 18.8758 17.897 18.4916 18.3831C18.2314 18.7128 18.0181 18.8272 17.8777 18.8272C17.6661 18.8266 17.4534 18.6501 17.3823 18.4476C17.3105 18.2462 17.333 17.9323 17.4704 17.8215C17.4704 17.8209 17.5975 18.2145 17.8679 18.2291C18.1749 18.2468 18.5694 17.9025 18.9639 17.2399ZM19.0581 17.3476C19.1013 17.406 19.1754 17.5508 19.1852 17.6895C19.1955 17.827 19.1724 17.939 19.097 18.141C19.0034 18.3953 18.8557 18.68 18.7876 18.8065C18.7876 18.8065 18.6569 18.621 18.5852 18.4543C18.5852 18.4543 18.7888 18.1756 18.8752 17.9779C18.9779 17.7449 19.0192 17.5302 19.0581 17.3476ZM19.6022 17.532C19.5499 17.5879 19.2715 17.9219 19.2338 18.0199C19.1973 18.1166 19.1329 18.3003 19.2192 18.4281C19.3067 18.5552 19.5031 18.7609 19.6763 18.8467C19.6763 18.8467 19.4891 18.5546 19.5079 18.3137C19.5207 18.1604 19.6399 18.0235 19.6623 17.9298C19.6836 17.8367 19.6684 17.6786 19.6022 17.532ZM19.4806 16.0615C19.4806 16.0615 19.7176 16.5233 19.7596 16.704C19.8027 16.881 19.7632 17.0027 19.683 17.1104C19.6028 17.218 19.4666 17.3349 19.3402 17.5618C19.3402 17.5618 19.1937 17.3695 19.1754 17.2673C19.1578 17.1657 19.1858 16.9242 19.2174 16.822C19.2484 16.7204 19.3742 16.3955 19.4806 16.0615ZM19.021 16.0512C19.0812 16.1887 19.2381 16.429 19.1639 16.6821C19.0903 16.9346 18.9268 17.0435 18.8247 17.2564C18.8247 17.2564 18.7433 16.8707 18.7615 16.5738C18.7797 16.2763 18.8885 16.1607 19.021 16.0512ZM17.9634 15.4933C17.9178 15.497 17.795 15.5262 17.7354 15.5438C17.7354 15.5438 17.9391 15.6028 18.0406 15.6868C18.1275 15.7592 18.2017 15.8693 18.2363 16.0542C18.2868 16.314 18.4387 16.5951 18.4843 16.6796L18.5044 16.676C18.4752 16.4965 18.5864 16.126 18.615 16.0725C18.6156 16.0725 18.4539 15.9703 18.3804 15.8656C18.3263 15.7878 18.2296 15.6594 17.9634 15.4933ZM19.1992 15.0626C19.1992 15.0626 19.4374 15.0656 19.5493 15.1386C19.6939 15.2341 19.8301 15.441 19.8824 15.6892C19.8824 15.6892 19.6417 15.6491 19.5213 15.5286C19.4022 15.41 19.2563 15.2317 19.1992 15.0626ZM18.8077 14.9816C18.8788 15.228 18.9955 15.4598 19.1116 15.6405C19.2168 15.8054 19.2824 16.0761 19.2733 16.1667C19.2733 16.1667 19.4307 15.8188 19.3499 15.5742C19.2885 15.385 19.1189 15.1021 18.8077 14.9816ZM16.7738 12.5579C16.882 12.6656 16.9708 12.7787 16.9689 12.8767C16.9677 12.9777 16.8492 13.2332 16.7872 13.3299C16.7258 13.4273 16.6346 13.5538 16.645 13.7089C16.651 13.7862 16.7045 13.8659 16.7677 13.931C16.7677 13.9304 16.42 13.8495 16.3775 13.6341C16.3398 13.4413 16.4213 13.3068 16.4772 13.1991C16.5301 13.0987 16.6905 12.8663 16.7307 12.769C16.7683 12.6796 16.7872 12.6072 16.7738 12.5579ZM15.9319 12.9059C15.9252 12.8822 15.9252 12.8146 15.9386 12.7873C15.9392 12.7866 16.2225 12.5098 16.4614 12.4624C16.6139 12.4326 16.7057 12.4995 16.7501 12.5366C16.7501 12.5366 16.6662 12.5263 16.5386 12.6315C16.4115 12.7337 16.2535 12.8603 16.1325 12.8913C16.0152 12.9217 15.9897 12.9132 15.9319 12.9059ZM15.9131 14.5424C15.9161 14.4658 15.9666 14.2242 16.0298 14.0521C16.1076 13.844 16.0632 13.5386 15.969 13.3549C15.8784 13.176 15.828 13.0087 15.845 12.8244C15.8456 12.8244 15.6633 12.8858 15.5599 12.9491C15.5435 13.1626 15.6681 13.3762 15.7283 13.499C15.7988 13.6426 15.7836 13.83 15.7684 13.945C15.7423 14.1397 15.7812 14.3489 15.9131 14.5424ZM15.6456 14.0527C15.6462 14.0131 15.6487 13.9712 15.6541 13.9304C15.6699 13.827 15.6699 13.7375 15.6584 13.6639C15.521 13.7175 15.4262 13.7515 15.2347 14.06C15.2353 14.06 15.5405 13.8714 15.6456 14.0527ZM17.9834 12.6759H17.7901V12.4618H17.6345V12.6759H17.4418V12.8116H17.6345V13.0616H17.7901V12.8116H17.9834V12.6759ZM17.8242 13.8422C17.8521 13.712 17.9014 13.3768 17.9816 13.3025C18.0576 13.2332 18.1688 13.2265 18.2242 13.2295C18.2813 13.2332 18.3396 13.291 18.3153 13.3658C18.2935 13.4418 18.0448 13.8124 18.0126 13.8592C17.9555 13.8501 17.9664 13.8531 17.8242 13.8422ZM17.6047 13.8422C17.5786 13.712 17.5275 13.3768 17.4473 13.3025C17.3719 13.2332 17.2607 13.2265 17.2048 13.2295C17.1495 13.2332 17.0905 13.291 17.1136 13.3658C17.1373 13.4418 17.3835 13.8124 17.4169 13.8592C17.4747 13.8501 17.4631 13.8531 17.6047 13.8422ZM17.73 13.1255C17.7877 13.1255 17.8965 13.1529 17.8965 13.2447C17.8971 13.336 17.7549 13.5581 17.7166 13.6578L17.713 13.6572C17.6753 13.5575 17.5312 13.336 17.5312 13.2447C17.5318 13.1529 17.6424 13.1255 17.699 13.1255H17.73ZM17.7257 15.0735C17.7883 15.0894 18.0959 15.1873 18.2454 15.2938C18.4327 15.427 18.5609 15.5809 18.5409 15.8462C18.5415 15.8456 18.3901 15.6375 18.2229 15.542C18.0917 15.4678 17.8515 15.2585 17.7257 15.0735ZM18.2339 15.1648C18.2339 15.1648 18.4266 15.2208 18.4904 15.2384C18.4904 15.2384 18.494 15.1265 18.4886 15.0741C18.5475 15.0875 18.6187 15.107 18.6807 15.1119C18.6807 15.1119 18.8733 15.5426 19.0241 15.7154C19.0241 15.7154 19.0326 15.8109 18.9481 15.9563C18.9487 15.9563 18.8393 15.702 18.6442 15.4982C18.5336 15.3832 18.4624 15.3254 18.2339 15.1648ZM17.578 15.037C17.578 15.037 17.7397 15.2524 17.857 15.3467C17.8576 15.3461 17.2595 15.3418 17.1087 15.8583C17.1093 15.8583 16.9027 15.5426 17.0528 15.3351C17.2157 15.1125 17.3659 15.0851 17.578 15.037ZM17.2376 14.7432C17.3908 14.8131 17.5276 14.9786 17.5276 14.9786C17.296 15.0309 17.1926 15.0985 17.1926 15.0985C16.7483 14.7858 16.3824 15.1015 16.3824 15.1015C16.1441 14.964 16.0955 14.6318 16.2158 14.4554C16.3368 14.2796 16.6073 14.3112 16.7349 14.3404C16.8158 14.5978 17.1002 14.6805 17.2376 14.7432ZM16.679 14.8545C16.7306 14.8545 16.7732 14.8131 16.7732 14.7602C16.7732 14.7085 16.7306 14.6647 16.679 14.6647C16.6267 14.6647 16.5835 14.7085 16.5835 14.7602C16.5842 14.8131 16.6261 14.8551 16.679 14.8545ZM17.1373 14.1561C17.1513 14.3404 17.1975 14.5223 17.2625 14.6507C17.2625 14.6507 17.0328 14.4773 16.9774 14.3331C16.9209 14.1871 16.9075 14.0867 17.1373 14.1561ZM17.2267 14.0971C17.2267 14.0971 17.6145 14.2425 18.0023 14.2236C18.3907 14.2023 19.1055 14.1944 19.3359 14.0837C19.3359 14.0831 19.297 14.2279 19.1134 14.3124C19.114 14.3124 19.2107 14.3124 19.3061 14.397C19.3061 14.3964 19.2502 14.5168 19.0855 14.5807C19.0855 14.5807 19.3815 14.8873 19.6958 14.8661C19.6958 14.8661 19.5517 15.0473 19.2271 14.978C18.9049 14.9074 18.7998 14.7255 18.7445 14.6562C18.7445 14.6562 18.7858 14.8289 18.767 14.9001C18.7676 14.9001 18.6241 14.8916 18.5129 14.7511C18.5129 14.7511 18.5943 14.8916 18.6107 15.009C18.6113 15.009 18.5214 15.0188 18.3615 14.9245C18.3621 14.9238 18.3956 15.0108 18.4016 15.1112C18.4022 15.1112 18.0266 14.9914 17.8448 14.821C17.8448 14.821 17.843 14.9378 17.8515 15.0054C17.8521 15.006 17.2704 14.947 17.2267 14.0971ZM18.2466 14.428V14.4025C17.9385 14.4414 17.575 14.4256 17.575 14.4256C17.595 14.5394 17.6424 14.6264 17.7227 14.6793C17.7427 14.4292 18.2454 14.428 18.2466 14.428ZM19.4101 13.9127C19.0982 14.0959 18.7487 14.0679 18.7487 14.0679C18.8162 13.9438 18.8794 13.83 19.0752 13.6895C19.2709 13.5501 19.5888 13.5149 19.7146 13.5325C19.6854 13.6262 19.5572 13.827 19.4101 13.9127ZM19.0745 13.934C19.297 13.8817 19.5262 13.6426 19.5262 13.6426C19.1669 13.6943 19.0745 13.9346 19.0745 13.934ZM19.717 13.0677C19.7681 13.0629 19.821 13.0592 19.8745 13.058C19.8429 12.7982 19.7523 12.3657 19.7 12.1947C19.6471 12.0237 19.5791 11.9009 19.4678 11.8704C19.4684 11.8698 19.5547 12.1083 19.6009 12.3535C19.6496 12.5993 19.6866 12.8347 19.717 13.0677ZM19.3469 13.1736C19.1438 12.6881 19.0077 12.3316 19.0125 12.2111C19.018 12.1375 19.1019 12.0852 19.1827 12.0609C19.2648 12.0347 19.3359 12.0304 19.39 12.0712C19.4958 12.1521 19.5936 12.8061 19.6301 13.0775C19.5268 13.0987 19.466 13.1115 19.3469 13.1736ZM20.1207 13.5861C20.1207 13.6518 20.0672 13.7071 20.0009 13.7071C19.9347 13.7065 19.8806 13.6524 19.8806 13.5861C19.8812 13.5197 19.9341 13.4662 20.0009 13.4662C20.0672 13.4662 20.1201 13.5197 20.1207 13.5861ZM17.3203 14.0022C17.3203 13.9632 17.4953 13.9322 17.7129 13.9322C17.93 13.9316 18.1062 13.9632 18.1062 14.0022C18.1062 14.0423 17.93 14.0746 17.7129 14.0746C17.4953 14.0734 17.3197 14.0423 17.3203 14.0022ZM19.39 13.2995C19.39 13.2283 19.6629 13.1699 20.0003 13.1699C20.3377 13.1693 20.6094 13.2283 20.6094 13.2995C20.61 13.3719 20.3364 13.4297 20.0003 13.4297C19.6642 13.4291 19.39 13.3719 19.39 13.2995ZM25.4248 21.0514C25.8235 21.4493 26.6648 22.3454 26.5846 23.3176C26.5846 23.3176 25.8035 23.0731 25.4819 22.5C25.161 21.9263 24.9616 21.5673 24.8267 21.4378C24.9136 21.4499 24.9993 21.4499 25.0844 21.4365L25.1555 21.4244C25.3543 21.7845 25.7451 22.3783 26.0995 22.5839C26.0995 22.5827 26.1895 22.1051 25.1506 21.133C25.1367 21.094 25.1136 21.0484 25.0856 20.9985C25.1816 21.032 25.288 21.052 25.4108 21.0484L25.4248 21.0514ZM22.0944 19.9527C22.0257 20.0172 21.9752 20.0567 21.8561 20.1163C21.8567 20.1163 21.6829 20.4443 21.8913 20.8409C22.0992 21.2351 22.2743 21.6403 22.3582 21.8654C22.3582 21.8642 22.4706 21.849 22.594 21.2285C22.6785 20.8081 22.7837 20.7046 22.8949 20.5605C22.7752 20.6213 22.6761 20.6402 22.6682 20.6426L22.5855 20.6554L22.5478 20.5793C22.4737 20.4382 22.4506 20.3001 22.4506 20.1869C22.4518 20.148 22.4536 20.1133 22.4573 20.0817C22.264 20.0859 22.1618 19.9886 22.1217 19.9387C22.1187 19.9338 22.1156 19.9296 22.1132 19.9259L22.0944 19.9527ZM25.0771 17.1548C25.1956 16.9996 25.2892 16.7861 25.3585 16.5336C25.4157 16.328 25.5439 15.8194 25.6199 15.6868C25.6989 15.5535 25.9718 15.0924 26.5092 14.9506C26.5098 14.9506 26.6526 15.5517 26.3821 16.0281C26.1493 16.4381 25.671 16.8707 25.0771 17.1548ZM25.5798 17.4371L25.516 17.3951C25.5062 17.3896 25.3938 17.3215 25.2035 17.3063C25.3658 17.187 25.7445 16.8664 26.0162 16.7137C26.3116 16.5476 26.8004 16.3286 27.049 16.2958C27.049 16.2958 26.8156 16.9102 26.5432 17.1572C26.2618 17.4133 26.0642 17.5089 25.5798 17.4371ZM25.4005 18.189C25.3494 18.1689 25.2923 18.1519 25.2266 18.1373C25.3597 18.0211 25.4886 17.844 25.5518 17.5794C25.691 17.6123 26.0162 17.6123 26.1591 17.5557C26.3031 17.5021 26.5846 17.4985 26.8046 17.6445C26.8046 17.6445 26.7317 18.029 26.2326 18.1616C25.7646 18.2851 25.5907 18.2535 25.4005 18.189ZM25.491 18.8017C25.5767 18.7274 25.6558 18.6295 25.7141 18.5029L25.7439 18.4378C26.0417 18.3156 26.3517 18.2535 26.6557 18.3667C26.9608 18.4804 27.0411 18.6131 27.1183 18.7262C27.1189 18.7262 26.7809 19.0079 26.3925 19.0195C26.0053 19.0292 25.6454 18.9179 25.491 18.8017ZM25.3452 19.3711C25.2917 19.292 25.2552 19.1697 25.1421 19.0474C25.3901 19.0036 25.6132 19.0006 25.9019 19.0566C26.2466 19.1211 26.5979 19.2026 26.7736 19.727C26.7736 19.7264 26.5523 19.9156 26.1512 19.8329C25.8114 19.7629 25.5147 19.6169 25.3452 19.3711ZM24.6984 19.7015C24.8479 19.738 25.0425 19.7544 25.2807 19.6978L25.344 19.682L25.364 19.6199C25.6521 19.856 25.9931 19.8937 26.1098 20.1066C26.1098 20.106 25.9676 20.3731 25.5938 20.3281C25.2212 20.2831 24.9397 20.1085 24.7404 19.8578C24.7324 19.8189 24.7166 19.7489 24.6984 19.7015ZM24.7483 20.0957C24.7221 20.3086 24.6194 20.4424 24.6115 20.4522C24.6863 20.541 24.9549 21.0034 25.5154 20.9249C25.516 20.9249 25.6667 20.611 25.2935 20.3603C25.0412 20.1924 24.9209 20.1571 24.7483 20.0957ZM24.5069 20.4941C24.2924 20.4668 24.1301 20.3895 24.0085 20.2995C23.9823 20.3743 23.9398 20.4765 23.9708 20.6201C24.0024 20.7649 24.1015 20.9231 24.2443 21.0386C24.4589 21.2084 24.7482 21.3714 25.0668 21.324C25.0668 21.3234 25.1403 21.0831 24.5069 20.4941ZM23.786 20.4722C23.7271 20.5532 23.6699 20.5854 23.6638 20.5884L23.6225 20.6097L23.5769 20.5945C23.5368 20.5824 23.5009 20.5672 23.4663 20.5507C23.4213 20.6803 23.4012 20.743 23.3903 20.8525C23.3745 20.9985 23.3453 21.2278 23.4006 21.4158C23.4687 21.6452 23.6037 21.7839 23.679 21.8733C23.679 21.8733 23.8881 21.6428 23.9483 21.4542C24.0109 21.2546 24.0334 21.024 23.9562 20.7874C23.9143 20.659 23.8456 20.5404 23.786 20.4722ZM23.2833 20.4309C23.2426 20.3962 23.2079 20.3634 23.18 20.3311C23.1186 20.4059 22.9174 20.6602 22.8183 20.9121C22.7429 21.1275 22.6609 21.4207 22.622 21.588C22.5819 21.7565 22.4615 22.1039 22.3904 22.2238C22.3904 22.2238 22.7095 22.2639 22.9454 21.9883C23.1794 21.7164 23.2572 21.4432 23.2937 21.1646C23.3216 20.9444 23.3131 20.6426 23.2833 20.4309ZM26.8271 19.0322C26.7116 19.0858 26.6223 19.1131 26.4721 19.1284C26.5554 19.1807 26.6326 19.2494 26.7019 19.3389C27.1171 19.4581 27.8228 19.5895 28.9892 19.6741C30.1551 19.758 30.7769 19.5427 30.7769 19.5427C30.3703 19.2944 29.7223 19.042 29.2847 18.958C28.8464 18.8722 27.6957 18.882 27.1918 18.8138C27.1863 18.8193 27.125 18.8692 27.0259 18.93C27.4502 18.9665 28.354 19.0097 28.8203 19.2464C28.8203 19.2464 27.9595 19.3626 26.8271 19.0322ZM26.8557 19.6157C26.8441 19.5859 26.8314 19.5591 26.8192 19.5317C27.1742 19.6047 28.0604 19.7106 28.4555 19.8322C28.8519 19.9545 29.5673 20.2447 29.9922 21.0551C29.9922 21.0551 29.3685 21.2485 28.1923 20.6937C27.0161 20.1389 26.6472 20.0239 26.4229 19.9655C26.6016 19.9527 26.7286 19.8919 26.7943 19.8511C27.2635 20.0592 27.8908 20.3074 28.5139 20.3226C28.5145 20.3226 28.2069 20.106 27.8842 19.9697C27.5334 19.8225 27.1487 19.6893 26.8557 19.6157ZM26.2423 20.1042L26.2113 20.05C26.2016 20.0318 26.1901 20.0148 26.1785 19.9995C26.48 20.117 27.5541 20.5221 27.9012 20.7028C28.2489 20.8835 28.7516 21.2936 29.0245 22.124C29.0245 22.124 28.3005 22.1903 27.7018 21.6939C27.1037 21.1987 26.4065 20.5069 26.1074 20.2873C26.139 20.2575 26.1609 20.2326 26.1779 20.21C26.1785 20.21 26.9876 20.9279 27.8428 21.2376C27.8434 21.2376 27.6593 20.906 27.3213 20.6639C26.9104 20.3707 26.6028 20.2715 26.2423 20.1042ZM25.6606 20.7539C25.6619 20.83 25.6473 20.892 25.6381 20.9236C25.6339 20.9364 25.629 20.9535 25.6199 20.9711C25.933 21.2802 26.1639 21.571 26.6265 22.2164C27.0909 22.8607 27.8234 22.8857 27.8234 22.8857C27.7529 22.3655 27.6112 21.9518 27.2192 21.5071C26.8271 21.063 26.325 20.6578 25.9554 20.3889C25.8612 20.4327 25.7372 20.4588 25.5804 20.4412C25.5682 20.4388 25.5555 20.4388 25.5439 20.4363C25.5944 20.5002 25.623 20.5647 25.6394 20.6255C25.919 20.7862 26.7299 21.1992 27.0575 21.8612C27.0593 21.8618 26.5451 21.7012 25.6606 20.7539ZM24.7355 22.7956C24.4079 22.4032 24.3088 21.2272 24.3088 21.2272C24.265 21.1974 24.2182 21.1652 24.1738 21.1287C24.1556 21.1123 24.1368 21.0964 24.1191 21.08C24.1197 21.1238 24.1179 21.167 24.1137 21.212C24.1617 21.919 24.217 22.6496 24.4376 23.0122C24.6546 23.3687 25.051 23.5531 25.051 23.5531C25.4248 22.8887 24.9738 21.9974 24.5963 21.3787C24.5495 21.3599 24.5021 21.3398 24.4553 21.3155C24.5878 21.7912 24.8388 22.357 24.7355 22.7956ZM23.8067 21.9068C23.8565 21.8435 23.9501 21.7133 24 21.619C24.0346 22.0626 24.1501 23.2258 23.7605 23.5902C23.7605 23.5902 23.4936 23.3955 23.3994 21.6975C23.4572 21.7924 23.5544 21.8922 23.6024 21.9482C23.6024 21.9482 23.538 22.4854 23.7307 22.8656C23.7313 22.8656 23.9252 22.7208 23.8067 21.9068ZM23.0961 21.9841C23.1757 21.8794 23.2341 21.7748 23.2778 21.6738C23.1861 22.4343 23.1508 22.949 22.7405 23.4417C22.7405 23.4417 22.4931 23.1114 22.6524 22.3083C22.721 22.2895 22.7989 22.2572 22.8736 22.2061C22.8736 22.2061 22.78 22.5316 22.8384 22.8607C22.8384 22.8607 22.9861 22.7531 23.0961 21.9841ZM25.2856 15.6691C25.0868 16.109 24.7592 16.5598 23.8723 17.1663C23.6742 17.3014 23.4547 17.5867 23.6219 17.9828C23.789 18.3806 24.1027 18.9464 23.9143 19.1655C23.727 19.3863 23.0566 19.5019 22.5126 19.2804C22.5132 19.2804 22.3971 19.6272 22.1983 19.8462C22.1983 19.8462 22.2925 20.0354 22.6068 19.9411C22.6074 19.9399 22.4925 20.2228 22.6481 20.527C22.6493 20.527 23.0146 20.4637 23.1715 20.1291C23.1721 20.1291 23.318 20.3919 23.6109 20.4844C23.6122 20.4844 23.8517 20.3597 23.8 19.8785C23.8 19.8785 23.9775 20.3062 24.5209 20.3798C24.5209 20.3798 24.8358 19.9819 24.4279 19.4477C24.4279 19.4471 24.7197 19.7106 25.254 19.5846C25.254 19.584 25.3379 19.3121 24.857 18.9355C24.8577 18.9349 25.4005 18.9148 25.6096 18.4537C25.6096 18.4537 25.3798 18.1701 24.8145 18.2346C24.8145 18.2346 25.3379 18.119 25.4521 17.49C25.4527 17.49 25.0765 17.2503 24.4802 17.6366C24.4808 17.636 24.5835 17.4383 24.8346 17.2387C25.0868 17.041 25.3895 16.4862 25.2856 15.6691ZM14.577 21.0514C14.1765 21.4493 13.3364 22.3454 13.4154 23.3176C13.4154 23.3176 14.1965 23.0731 14.5181 22.5C14.839 21.9263 15.0384 21.5673 15.1733 21.4378C15.0876 21.4499 14.9995 21.4499 14.9156 21.4365L14.8463 21.4244C14.6463 21.7845 14.2536 22.3783 13.8999 22.5839C13.8999 22.5827 13.8099 22.1051 14.8487 21.133C14.8645 21.094 14.8846 21.0484 14.9132 20.9985C14.819 21.032 14.7101 21.052 14.588 21.0484L14.577 21.0514ZM26.6618 15.2025C26.6624 15.2597 26.6642 15.3248 26.6624 15.3917L26.652 15.5389C26.9687 15.1343 27.3486 14.6446 27.7109 14.195C27.9614 13.8853 28.1686 13.6998 28.4027 13.5489C28.2069 14.1202 27.855 14.5765 27.6052 14.804C27.3559 15.0315 26.9955 15.4166 26.6435 15.6521L26.6101 15.7677C26.5827 15.8747 26.5414 15.9824 26.4825 16.0865C26.3998 16.2306 26.2928 16.373 26.1645 16.5105C26.2679 16.4594 26.384 16.4052 26.5019 16.356L26.6113 16.3103C27.579 15.7963 28.5388 14.7328 28.9272 13.9912C29.3163 13.2508 29.1552 12.3924 29.0518 11.9312C28.613 12.3036 27.9796 13.0385 27.7036 13.4382C27.3657 13.9279 26.931 14.6215 26.6618 15.1867V15.2025ZM26.9809 16.7605C26.9456 16.8189 26.8478 16.9595 26.8095 17.0148C28.1218 16.7958 29.5612 15.8036 30.0074 15.1885C30.453 14.5746 30.3259 13.6548 30.3259 13.6548C29.8949 13.7424 28.9552 14.5534 28.7108 14.7967C28.4689 15.0401 27.7334 15.7555 27.2253 16.1558L27.066 16.6164C27.5024 16.2653 28.0191 15.8741 28.3407 15.6314C28.5899 15.4422 28.9601 15.1788 29.329 15.0522C29.3296 15.0522 28.9886 15.4963 28.7145 15.7117C28.3978 15.9624 28.0762 16.1795 27.8106 16.3256C27.5772 16.4551 27.4556 16.53 26.9809 16.7605ZM26.9165 17.6658C26.9146 17.681 26.8453 18.0156 26.4587 18.2012C27.2879 17.8368 28.9199 17.6281 29.7977 17.2631C30.9842 16.7697 31.2 16.154 31.2 16.154C30.1752 16.126 29.343 16.3779 28.7054 16.5738C27.9559 16.8037 26.815 17.2296 26.4162 17.4066C26.5651 17.4133 26.7292 17.4565 26.8672 17.549C27.4258 17.3349 27.6842 17.2448 28.1899 17.1025C28.5899 16.9905 28.8859 16.9692 29.1345 16.9449C29.1345 16.9449 28.7832 17.1779 28.2051 17.3628C27.6307 17.546 27.3815 17.577 26.9165 17.6658ZM26.9146 18.36C26.8551 18.3259 26.7846 18.2918 26.697 18.2596C27.2885 18.0801 28.0987 17.7942 29.3175 17.7145C30.2128 17.6549 30.8578 17.7066 31.1915 17.7936C31.1915 17.7936 30.377 18.3673 29.4457 18.5711C28.5145 18.7737 27.7583 18.6453 27.2052 18.6502C27.1699 18.5948 27.1286 18.534 27.0629 18.4725C27.7097 18.4774 28.785 18.3089 29.1698 18.1805C29.1704 18.1799 28.2312 17.9858 26.9146 18.36ZM13.3401 15.2025C13.3388 15.2597 13.337 15.3248 13.3388 15.3917L13.3504 15.5389C13.0331 15.1343 12.6532 14.6446 12.2897 14.195C12.0405 13.8853 11.8326 13.6998 11.5979 13.5489C11.7943 14.1202 12.1456 14.5765 12.3954 14.804C12.6447 15.0315 13.0051 15.4166 13.3577 15.6521L13.3917 15.7677C13.4203 15.8747 13.4604 15.9824 13.5188 16.0865C13.6008 16.2306 13.7084 16.373 13.8367 16.5105C13.7346 16.4594 13.6172 16.4052 13.4987 16.356L13.3911 16.3103C12.4228 15.7963 11.4618 14.7328 11.0734 13.9912C10.6862 13.2508 10.8466 12.3924 10.95 11.9312C11.3913 12.3036 12.0216 13.0385 12.297 13.4382C12.6374 13.9279 13.0696 14.6215 13.3401 15.1867V15.2025ZM17.9075 19.9527C17.9749 20.0172 18.0248 20.0567 18.1445 20.1163C18.1457 20.1163 18.3172 20.4443 18.1087 20.8409C17.902 21.2351 17.7257 21.6403 17.6418 21.8654C17.6418 21.8642 17.53 21.849 17.4054 21.2285C17.3215 20.8081 17.2157 20.7046 17.1045 20.5605C17.2255 20.6213 17.3227 20.6402 17.3312 20.6426L17.4145 20.6554L17.4528 20.5793C17.5276 20.4382 17.5482 20.3001 17.5482 20.1869C17.5482 20.148 17.5464 20.1133 17.5421 20.0817C17.7354 20.0859 17.8376 19.9886 17.8777 19.9387C17.8801 19.9338 17.8838 19.9296 17.8862 19.9259L17.9075 19.9527ZM14.9235 17.1548C14.8056 16.9996 14.7108 16.7861 14.6415 16.5336C14.5849 16.328 14.4573 15.8194 14.3801 15.6868C14.3035 15.5535 14.0287 15.0924 13.4902 14.9506C13.4908 14.9506 13.3473 15.5517 13.6178 16.0281C13.8519 16.4381 14.3296 16.8707 14.9235 17.1548ZM14.4214 17.4371L14.4877 17.3951C14.4956 17.3896 14.6068 17.3215 14.7977 17.3063C14.6366 17.187 14.2561 16.8664 13.9844 16.7137C13.6914 16.5476 13.2009 16.3286 12.9529 16.2958C12.9535 16.2958 13.1863 16.9102 13.4574 17.1572C13.7394 17.4133 13.9376 17.5089 14.4214 17.4371ZM14.6001 18.189C14.6518 18.1689 14.7089 18.1519 14.7746 18.1373C14.6433 18.0211 14.512 17.844 14.4482 17.5794C14.3096 17.6123 13.9838 17.6123 13.8421 17.5557C13.6993 17.5021 13.4166 17.4985 13.1966 17.6445C13.1966 17.6445 13.2702 18.029 13.768 18.1616C14.2372 18.2851 14.4099 18.2535 14.6001 18.189ZM14.5102 18.8017C14.4232 18.7274 14.3448 18.6295 14.2865 18.5029L14.2579 18.4378C13.9595 18.3156 13.6482 18.2535 13.3443 18.3667C13.0404 18.4804 12.9595 18.6131 12.8823 18.7262C12.8823 18.7262 13.2197 19.0079 13.6075 19.0195C13.9965 19.0292 14.354 18.9179 14.5102 18.8017ZM14.6548 19.3711C14.7089 19.292 14.7454 19.1697 14.8573 19.0474C14.6111 19.0036 14.3868 19.0006 14.0974 19.0566C13.7528 19.1211 13.4015 19.2026 13.2258 19.727C13.2264 19.7264 13.447 19.9156 13.8482 19.8329C14.1904 19.7629 14.4865 19.6169 14.6548 19.3711ZM15.3022 19.7015C15.1533 19.738 14.9582 19.7544 14.7199 19.6978L14.6573 19.682L14.6366 19.6199C14.3491 19.856 14.0069 19.8937 13.8896 20.1066C13.8896 20.106 14.033 20.3731 14.4062 20.3281C14.7801 20.2831 15.0609 20.1085 15.2603 19.8578C15.2688 19.8189 15.2834 19.7489 15.3022 19.7015ZM15.2542 20.0957C15.2797 20.3086 15.3806 20.4424 15.3891 20.4522C15.3143 20.541 15.0457 21.0034 14.4852 20.9249C14.4858 20.9249 14.3333 20.611 14.7071 20.3603C14.9594 20.1924 15.0797 20.1571 15.2542 20.0957ZM15.4943 20.4941C15.7082 20.4668 15.8705 20.3895 15.9921 20.2995C16.0189 20.3743 16.0602 20.4765 16.0298 20.6201C15.9988 20.7649 15.8991 20.9231 15.7563 21.0386C15.5417 21.2084 15.2517 21.3714 14.9338 21.324C14.9332 21.3234 14.8603 21.0831 15.4943 20.4941ZM16.2152 20.4722C16.2748 20.5532 16.3307 20.5854 16.3368 20.5884L16.3793 20.6097L16.4249 20.5945C16.4632 20.5824 16.5009 20.5672 16.5343 20.5507C16.5811 20.6803 16.5994 20.743 16.6109 20.8525C16.6273 20.9985 16.6553 21.2278 16.6006 21.4158C16.5343 21.6452 16.3963 21.7839 16.321 21.8733C16.3222 21.8733 16.1125 21.6428 16.0529 21.4542C15.9897 21.2546 15.9678 21.024 16.045 20.7874C16.0869 20.659 16.1544 20.5404 16.2152 20.4722ZM16.7179 20.4309C16.7574 20.3962 16.7921 20.3634 16.82 20.3311C16.882 20.4059 17.0826 20.6602 17.1823 20.9121C17.2577 21.1275 17.3379 21.4207 17.378 21.588C17.4187 21.7565 17.5379 22.1039 17.6096 22.2238C17.6102 22.2238 17.2905 22.2639 17.0546 21.9883C16.8224 21.7164 16.7434 21.4432 16.707 21.1646C16.679 20.9444 16.6875 20.6426 16.7179 20.4309ZM13.0209 16.7605C13.0556 16.8189 13.1528 16.9595 13.1905 17.0148C11.8806 16.7958 10.4394 15.8036 9.99443 15.1885C9.54887 14.5746 9.6753 13.6548 9.6753 13.6548C10.1081 13.7424 11.0466 14.5534 11.2904 14.7967C11.5329 15.0401 12.2684 15.7555 12.7766 16.1558L12.9352 16.6164C12.4994 16.2653 11.9821 15.8741 11.6599 15.6314C11.4119 15.4422 11.0405 15.1788 10.6716 15.0522C10.6722 15.0522 11.012 15.4963 11.2861 15.7117C11.6028 15.9624 11.9244 16.1795 12.1894 16.3256C12.424 16.4551 12.545 16.53 13.0209 16.7605ZM13.0835 17.6658C13.0872 17.681 13.1553 18.0156 13.5413 18.2012C12.7134 17.8368 11.0801 17.6281 10.2023 17.2631C9.0164 16.7697 8.8 16.154 8.8 16.154C9.82667 16.126 10.6564 16.3779 11.2952 16.5738C12.0447 16.8037 13.1857 17.2296 13.585 17.4066C13.4349 17.4133 13.2708 17.4565 13.1328 17.549C12.5754 17.3349 12.3158 17.2448 11.8101 17.1025C11.4113 16.9905 11.1141 16.9692 10.8655 16.9449C10.8667 16.9449 11.2168 17.1779 11.7955 17.3628C12.3699 17.546 12.6191 17.577 13.0835 17.6658ZM13.0865 18.36C13.1455 18.3259 13.216 18.2918 13.3029 18.2596C12.7127 18.0801 11.9018 17.7942 10.6824 17.7145C9.78828 17.6549 9.14274 17.7066 8.80842 17.7936C8.80903 17.7936 9.62294 18.3673 10.5542 18.5711C11.486 18.7737 12.2416 18.6453 12.7935 18.6502C12.8318 18.5948 12.8713 18.534 12.9363 18.4725C12.2908 18.4774 11.2149 18.3089 10.8289 18.1805C10.8301 18.1799 11.7687 17.9858 13.0865 18.36ZM13.1741 19.0322C13.2902 19.0858 13.3771 19.1131 13.5285 19.1284C13.4464 19.1807 13.3686 19.2494 13.2987 19.3389C12.8836 19.4581 12.1778 19.5895 11.0114 19.6741C9.84551 19.758 9.22429 19.5427 9.22429 19.5427C9.63094 19.2944 10.2783 19.042 10.7166 18.958C11.1554 18.8722 12.3043 18.882 12.8076 18.8138C12.8149 18.8193 12.8757 18.8692 12.9741 18.93C12.5511 18.9665 11.646 19.0097 11.1804 19.2464C11.181 19.2464 12.0411 19.3626 13.1741 19.0322ZM13.1455 19.6157C13.1577 19.5859 13.1686 19.5591 13.1814 19.5317C12.827 19.6047 11.9402 19.7106 11.5445 19.8322C11.1493 19.9545 10.4327 20.2447 10.0084 21.0551C10.009 21.0551 10.6315 21.2485 11.8083 20.6937C12.9857 20.1389 13.354 20.0239 13.5777 19.9655C13.3996 19.9527 13.2726 19.8919 13.2057 19.8511C12.7371 20.0592 12.1091 20.3074 11.4873 20.3226C11.4879 20.3226 11.7943 20.106 12.1171 19.9697C12.4666 19.8225 12.8513 19.6893 13.1455 19.6157ZM13.7595 20.1042L13.7899 20.05C13.799 20.0318 13.8105 20.0148 13.8221 19.9995C13.5206 20.117 12.4465 20.5221 12.0988 20.7028C11.7523 20.8835 11.249 21.2936 10.9755 22.124C10.9755 22.124 11.7001 22.1903 12.2988 21.6939C12.8969 21.1987 13.5941 20.5069 13.892 20.2873C13.8628 20.2575 13.8391 20.2326 13.8221 20.21C13.8227 20.21 13.0124 20.9279 12.1566 21.2376C12.1566 21.2376 12.3395 20.906 12.6781 20.6639C13.0902 20.3707 13.3978 20.2715 13.7595 20.1042ZM14.3418 20.7539C14.3388 20.83 14.3527 20.892 14.3619 20.9236C14.3667 20.9364 14.371 20.9535 14.3801 20.9711C14.067 21.2802 13.8361 21.571 13.3729 22.2164C12.9097 22.8607 12.176 22.8857 12.176 22.8857C12.2471 22.3655 12.3888 21.9518 12.7808 21.5071C13.1741 21.063 13.6762 20.6578 14.0446 20.3889C14.1406 20.4327 14.264 20.4588 14.4202 20.4412C14.4324 20.4388 14.4439 20.4388 14.4567 20.4363C14.4074 20.5002 14.3771 20.5647 14.3613 20.6255C14.0816 20.7862 13.2714 21.1992 12.9425 21.8612C12.9413 21.8618 13.4555 21.7012 14.3418 20.7539ZM15.2651 22.7956C15.5934 22.4032 15.6906 21.2272 15.6906 21.2272C15.7368 21.1974 15.7806 21.1652 15.8268 21.1287C15.8462 21.1123 15.8639 21.0964 15.8815 21.08C15.8815 21.1238 15.8827 21.167 15.8864 21.212C15.8396 21.919 15.783 22.6496 15.563 23.0122C15.346 23.3687 14.9497 23.5531 14.9497 23.5531C14.577 22.8887 15.0269 21.9974 15.4043 21.3787C15.4511 21.3599 15.4973 21.3398 15.5441 21.3155C15.4128 21.7912 15.1618 22.357 15.2651 22.7956ZM16.1945 21.9068C16.1453 21.8435 16.0505 21.7133 16.0006 21.619C15.966 22.0626 15.8493 23.2258 16.2395 23.5902C16.2395 23.5902 16.5064 23.3955 16.6006 21.6975C16.5447 21.7924 16.4456 21.8922 16.3963 21.9482C16.3963 21.9482 16.462 22.4854 16.2687 22.8656C16.2687 22.8656 16.0748 22.7208 16.1945 21.9068ZM16.9051 21.9841C16.8261 21.8794 16.7659 21.7748 16.7227 21.6738C16.8157 22.4343 16.8498 22.949 17.2607 23.4417C17.2607 23.4417 17.5081 23.1114 17.3488 22.3083C17.2801 22.2895 17.2023 22.2572 17.1264 22.2061C17.1264 22.2061 17.2206 22.5316 17.1628 22.8607C17.1634 22.8607 17.0145 22.7531 16.9051 21.9841Z" fill="white"/>
</svg>
