<?xml version="1.0" encoding="utf-8"?>
<!-- Generator: Adobe Illustrator 25.2.1, SVG Export Plug-In . SVG Version: 6.00 Build 0)  -->
<svg version="1.1" id="Слой_1" xmlns="http://www.w3.org/2000/svg" xmlns:xlink="http://www.w3.org/1999/xlink" x="0px" y="0px"
	 width="250px" height="74.084px" viewBox="0 0 250 74.084" style="enable-background:new 0 0 250 74.084;" xml:space="preserve">
<style type="text/css">
	.st0{fill:#FFFFFF;}
	.st1{fill:#00F500;}
	.st2{fill:#FF5000;}
</style>
<g>
	<circle class="st1" cx="240.888" cy="9.112" r="9.112"/>
	<path class="st2" d="M143.024,68.775c-4.632,0-8.276-3.643-8.276-8.38s3.643-8.38,8.276-8.38c4.632,0,8.38,3.643,8.38,8.38
		S147.656,68.775,143.024,68.775z M151.404,51.808h-0.989c-1.822-3.279-5.205-5.153-9.108-5.153c-6.402,0-12.335,5.985-12.335,13.74
		s5.777,13.688,12.335,13.688c3.904,0,7.287-1.874,9.108-5.153h0.989v4.476h5.725V47.28h-5.725V51.808z M184.246,57.637h-13.376
		V47.28h-5.725v26.128h5.725V63.05h13.376v10.357h5.725V47.28h-5.725V57.637z M210.111,60.084l13.532-12.804h-7.809l-12.123,11.971
		V47.28h-5.725v26.128h5.725V61.385l12.227,12.023h8.382L210.111,60.084z M115.387,68.307h-9.212v-6.558h9.212
		c2.602,0,3.852,1.353,3.852,3.279S118.041,68.307,115.387,68.307z M116.064,56.648h-9.889v-4.268h16.759V47.28h-22.484v26.128
		h15.614c5.361,0,9.004-3.539,9.004-8.38S121.372,56.648,116.064,56.648z M14.041,30.608c-4.628,0-8.269-3.64-8.269-8.373
		s3.64-8.373,8.269-8.373s8.373,3.64,8.373,8.373S18.67,30.608,14.041,30.608z M22.414,13.654h-0.988
		c-1.82-3.276-5.201-5.149-9.101-5.149C5.929,8.506,0,14.486,0,22.235s5.773,13.677,12.325,13.677c3.9,0,7.281-1.872,9.101-5.149
		h0.988v4.472h5.721V9.13h-5.721V13.654z M182.85,30.556c-4.732,0-8.217-3.64-8.217-8.321c0-4.732,3.484-8.373,8.217-8.373
		c4.576,0,8.217,3.64,8.217,8.373C191.067,26.916,187.531,30.556,182.85,30.556z M182.85,8.506c-6.865,0-12.429,4.732-13.677,11.025
		h-4.836V9.13h-5.721v26.107h5.721V24.835h4.836c1.196,6.345,6.813,11.077,13.677,11.077c7.697,0,13.937-6.085,13.937-13.677
		C196.788,14.59,190.495,8.506,182.85,8.506z M198.868,14.538h9.569v20.698h5.721V14.538h9.569V9.13h-24.858V14.538z M135.89,9.13
		l-11.181,26.107h6.033l8.685-20.854l8.685,20.854h6.293L143.222,9.13H135.89z M78.528,13.862c5.617,0,7.177,4.316,7.177,4.316
		h6.033c0,0-2.392-9.673-13.209-9.673c-7.749,0-13.833,6.085-13.833,13.729c0,7.697,6.085,13.729,13.833,13.729
		c10.817,0,13.209-9.673,13.209-9.673h-6.033c0,0-1.56,4.316-7.177,4.316c-4.576,0-8.009-3.64-8.009-8.373
		S73.951,13.862,78.528,13.862z M51.173,30.088h-9.257v-6.501h9.257c2.6,0,3.848,1.352,3.848,3.276S53.825,30.088,51.173,30.088z
		 M51.849,18.491h-9.933v-4.212h16.798V9.13H36.196v26.107h15.654c5.305,0,8.997-3.536,8.997-8.373S57.102,18.491,51.849,18.491z
		 M109.107,30.556c-4.836,0-8.373-3.64-8.373-8.321c0-4.732,3.536-8.373,8.373-8.373c4.68,0,8.373,3.64,8.373,8.373
		C117.48,26.916,113.891,30.556,109.107,30.556z M109.107,8.506c-7.905,0-14.145,6.085-14.145,13.729
		c0,7.593,6.241,13.677,14.145,13.677c7.853,0,14.197-6.085,14.197-13.677C123.304,14.59,116.856,8.506,109.107,8.506z"/>
</g>
</svg>
