<svg width="40" height="40" viewBox="0 0 40 40" fill="none" xmlns="http://www.w3.org/2000/svg">
<path d="M36 19.9975C36 28.8336 28.8371 36 20.0015 36C11.1649 36 4 28.8336 4 19.9975C4 11.1615 11.1649 4 20.0015 4C28.8381 3.99902 36 11.1615 36 19.9975Z" fill="white"/>
<path fill-rule="evenodd" clip-rule="evenodd" d="M4.24442 19.9917C4.24442 11.2979 11.2886 4.25423 19.9809 4.25423C28.6751 4.25423 35.7183 11.2979 35.7183 19.9917C35.7183 28.6795 28.6741 35.7291 19.9809 35.7291C11.2886 35.7291 4.24442 28.6805 4.24442 19.9917ZM5.23877 19.9917C5.23877 28.1337 11.8402 34.7328 19.9808 34.7328C28.1244 34.7328 34.7268 28.1337 34.7258 19.9917C34.7258 11.8476 28.1244 5.24855 19.9808 5.24855C11.8402 5.24855 5.23877 11.8476 5.23877 19.9917Z" fill="#574737"/>
<path fill-rule="evenodd" clip-rule="evenodd" d="M28.7499 13.2053C28.775 13.218 28.7993 13.2303 28.8224 13.2424C29.1689 13.4309 30.02 13.9148 30.2928 14.1464C30.501 14.3153 30.4106 14.5135 30.2978 14.6519C30.1926 14.775 30.1837 14.8265 30.1612 14.957C30.1591 14.9691 30.1569 14.9819 30.1544 14.9955C30.0573 15.7032 29.7441 15.979 29.3044 16.1469C28.8705 16.3069 28.3856 16.0517 28.3856 16.0517C27.9026 16.5788 27.8142 16.2421 27.7887 16.032C27.7684 15.8605 27.5932 15.9367 27.4266 16.0092C27.392 16.0243 27.3578 16.0392 27.3254 16.0517C27.1438 16.1243 27.0741 15.875 27.0741 15.875C26.2014 15.7513 25.8215 16.2735 25.8215 16.2735C26.5784 16.3736 26.9583 16.8948 26.9956 17.1019C27.0299 17.3061 27.3745 17.1697 27.3745 17.1697C27.3745 17.1697 27.4128 17.099 27.5482 17.0313C27.6857 16.9596 27.721 16.9969 27.6857 17.1697C27.6503 17.3404 27.616 17.4798 27.616 17.4798L27.9968 17.7203C27.8604 18.6528 27.4432 18.6145 27.237 18.5164C25.9089 17.8489 23.5422 17.7203 23.5422 17.7203C23.6845 17.5112 24.0144 17.2501 24.0144 17.2501C17.942 17.2501 16.9211 17.9853 16.6031 18.377C16.393 18.6469 16.5737 19.068 16.5737 19.068C15.8541 19.2035 14.0204 19.6697 13.3156 20.3156C12.6422 20.932 12.4194 22.3759 12.3939 22.9148C12.388 23.0237 12.493 23.0217 12.5421 22.9589C12.6854 22.7862 12.9789 22.5388 13.3647 22.3474C13.9164 22.0657 15.4909 21.8851 16.3705 21.8969C16.8819 21.9028 17.2313 22.1383 17.4689 22.3759C17.7123 22.6213 17.2991 22.6537 17.09 22.4848C16.8819 22.3091 16.6522 22.2532 16.4107 22.2532C16.1731 22.2532 15.9219 22.3415 15.7756 22.4505C15.7383 22.4787 15.7089 22.5106 15.6781 22.5441C15.5997 22.6293 15.5122 22.7244 15.2612 22.7921C14.8499 22.9069 14.3699 22.5329 14.3699 22.5329C14.7037 23.1778 15.2877 23.1523 15.6058 23.0757C15.689 23.053 15.7525 23.0248 15.8141 22.9976C15.9305 22.946 16.0397 22.8977 16.2605 22.8951C16.8151 22.8892 17.0586 23.2033 17.0586 23.2033C16.5729 23.1791 15.844 23.3892 15.2614 23.5571C15.0198 23.6268 14.8033 23.6891 14.6399 23.7245C13.9488 23.8737 13.297 23.8934 13.297 23.8934C13.7476 24.447 14.4013 24.447 14.8833 24.447C15.0248 24.447 15.2596 24.4372 15.5442 24.4254C16.2266 24.3969 17.1951 24.3566 17.8498 24.4107C19.0189 24.5098 19.9563 25.2754 19.9563 26.4121C19.9563 27.5507 19.1593 28.172 19.1593 28.172C20.1635 27.8628 20.5757 27.0658 20.5757 27.0658C21.1078 29.1192 20.0074 30.7594 18.9963 31.4308C18.1521 31.9854 15.6342 32.5655 13.6926 31.6399C11.5497 30.6132 10.7408 29.612 10.7408 29.612C15.4026 29.9967 17.6799 28.707 17.6799 28.707C13.4668 28.9445 10.5327 27.8825 8.63328 27.0579C7.87743 25.8447 7.32282 24.5235 6.9979 23.1052C10.4827 25.722 13.5679 26.1745 13.5679 26.1745C9.81025 24.1388 7.94124 21.8606 6.69556 19.5814C6.75936 18.2553 7.02047 17.0126 7.45533 15.822L7.46613 15.8043C8.862 19.5117 10.3924 20.6159 10.3924 20.6159C8.87575 17.1677 8.88851 14.6932 9.02692 12.8272C9.60902 11.9988 10.2697 11.2704 11.0226 10.6079L11.0353 10.5951C10.4483 13.9089 11.1541 16.0654 11.1541 16.0654C11.1541 13.4387 12.6256 10.3193 13.7957 8.73408C14.5378 8.35814 15.2583 8.08331 16.073 7.85755H16.0769C15.005 9.20131 14.5358 10.5088 14.5358 10.5088C16.7317 8.41213 20.3686 7.15671 20.9203 7.02125C21.2003 6.95213 21.7456 6.76687 22.2735 6.58749C22.7877 6.41279 23.2855 6.24366 23.5059 6.19281C23.928 6.09367 24.1194 6.3587 24.0968 6.60801C24.0605 6.93389 23.9211 7.47277 23.9211 7.47277C25.1413 7.76822 25.6704 8.366 25.6704 8.366C25.6262 8.21091 25.6478 7.93313 25.6478 7.93313C27.3254 9.42412 27.7887 10.1358 27.829 11.4942C27.8784 12.7646 28.3997 13.0282 28.7499 13.2053ZM22.5223 8.34539C22.5704 8.14024 22.9257 7.56112 23.2035 7.22738C23.2762 7.14003 23.2035 7.07622 23.0043 7.20186L22.9948 7.20771C22.7724 7.34524 21.9058 7.8811 21.306 8.87445C21.2354 9.00009 21.2805 9.18953 21.5966 9.0796C21.9902 8.94218 22.3937 8.87347 22.5714 8.84893C22.751 8.82635 22.751 8.69875 22.6224 8.64771C22.4977 8.59863 22.4742 8.54464 22.5223 8.34539ZM26.7167 12.2805C26.9464 12.4032 27.1006 12.3806 27.1487 12.0763C27.1938 11.8142 27.1811 11.2714 27.1241 10.7934L27.0525 10.7856C26.9229 11.7858 26.5577 11.6955 26.3879 11.6464C26.3467 11.6336 26.3124 11.6198 26.2769 11.6056C26.1628 11.5599 26.0367 11.5094 25.6301 11.4697L25.6077 11.4675C25.406 11.4476 24.7022 11.378 25.1 11.6994C25.7734 12.2324 26.3369 13.316 26.3369 13.316C26.4144 12.9636 26.2397 12.4591 26.1376 12.2805C26.0375 12.1009 26.1631 12.0528 26.2878 12.0763C26.405 12.099 26.4802 12.1428 26.6691 12.2528L26.7167 12.2805ZM19.759 13.8863C19.9916 13.7999 20.0584 14.0031 20.0132 14.1445C19.7924 14.8021 19.4822 15.7768 19.598 16.2156C19.7109 16.6475 20.7936 16.9027 20.7936 16.9027C20.7346 16.9086 20.5943 16.9178 20.4178 16.9292L20.4177 16.9292C19.9861 16.9573 19.3384 16.9994 19.1357 17.044C18.8579 17.1078 18.4034 17.1549 18.4956 16.6102C18.6066 15.9388 18.9541 14.7413 18.9541 14.7413C18.6341 14.8345 17.9665 15.1515 17.7378 15.2929C17.5062 15.4323 17.4414 15.4048 17.5062 15.2468C18.4387 13.0795 20.4039 10.762 21.5986 9.79613L21.6221 9.86189C20.0594 11.6572 19.0463 14.1454 19.0463 14.1454C19.1415 14.0893 19.2909 14.0424 19.4442 13.9945C19.5533 13.9603 19.6643 13.9255 19.759 13.8863Z" fill="#574737"/>
<path d="M25.6379 25.4786C25.2963 25.0703 24.7957 24.4931 24.7957 24.4931C25.2816 24.7729 26.2004 24.9093 26.2004 24.9093C25.9521 24.6983 25.3749 24.0102 25.1412 23.7344C24.5032 22.9658 23.392 22.1089 22.5645 21.7349C20.9458 21.0027 19.2535 20.9006 19.0238 20.8584C18.794 20.8162 18.3091 20.9006 18.6124 20.4461C18.9089 19.9897 20.6562 18.6283 20.6562 18.6283C20.2891 18.6283 18.6782 18.7608 18.1972 18.8363C17.7133 18.9021 17.5974 18.7431 17.5768 18.4172C17.5768 18.4172 16.6011 19.336 17.0654 19.7993C17.139 19.868 17.3452 19.8935 17.5974 19.7796C17.8507 19.6668 18.3612 19.4979 18.5408 19.4803C18.5408 19.4803 18.1285 20.1202 18.0372 20.401C17.943 20.6787 17.9184 20.8152 18.3543 20.9516C18.7931 21.0861 21.0027 21.7801 22.3613 22.6998C23.7169 23.6185 25.1196 24.7935 26.1553 26.9519C27.1909 29.1182 26.6255 30.7594 26.4596 31.0608C27.2046 30.5837 27.8829 30.0468 28.5121 29.4314L28.4974 29.4392C27.9556 27.6312 26.4625 26.4769 25.6379 25.4786Z" fill="#574737"/>
<path d="M30.8556 27.1063L30.6482 27.4443L30.9861 27.6517L31.1935 27.3137L30.8556 27.1063ZM31.8918 24.9994L32.2627 25.1395L32.4028 24.7686L32.0319 24.6284L31.8918 24.9994ZM30.1797 26.6915L29.8417 26.4841L29.6343 26.8221L29.9723 27.0295L30.1797 26.6915ZM31.1499 24.7191L31.29 24.3482L30.9191 24.2081L30.779 24.579L31.1499 24.7191ZM31.9183 24.8592V25.2558H32.3148V24.8592H31.9183ZM31.9183 24.8553H32.3148V24.4588H31.9183V24.8553ZM31.1253 24.8592H30.7288V25.2558H31.1253V24.8592ZM31.1253 24.8553V24.4588H30.7288V24.8553H31.1253ZM25.0918 20.7981L25.1818 20.4119L24.8235 20.3285L24.7135 20.6795L25.0918 20.7981ZM24.8559 21.5504L25.223 21.7002L25.2293 21.6849L25.2343 21.669L24.8559 21.5504ZM31.678 24.4713L31.9279 24.1635L31.9279 24.1635L31.678 24.4713ZM31.7716 24.5474L32.0796 24.7972L32.3294 24.4892L32.0214 24.2394L31.7716 24.5474ZM31.2721 25.1633L31.0223 25.4712L31.3302 25.721L31.58 25.4131L31.2721 25.1633ZM31.2061 25.1098L31.456 24.8019L31.2061 25.1098ZM28.5873 23.1775L28.7985 22.8419L28.3072 23.4581L28.5873 23.1775ZM30.8915 26.7668L31.0237 27.1406L31.3975 27.0084L31.2653 26.6346L30.8915 26.7668ZM30.1438 27.0311L29.77 27.1633L29.9022 27.5371L30.276 27.405L30.1438 27.0311ZM26.9758 22.8208L26.7349 23.1357L26.9758 22.8208ZM25.4733 21.851L25.6601 21.5013V21.5013L25.4733 21.851ZM25.0143 21.6223L24.8491 21.9828L25.0143 21.6223ZM24.8923 21.5682L25.0479 21.2035L25.0459 21.2026L24.8923 21.5682ZM24.8626 21.5557L25.0162 21.1901L25.0127 21.1887L24.8626 21.5557ZM24.856 21.553L25.0061 21.186L25.0046 21.1854L24.856 21.553ZM24.855 21.5526L25.0018 21.1842L24.7064 21.9202L24.855 21.5526ZM24.8549 21.5525L25.0033 21.1848L25.0021 21.1844L24.8549 21.5525ZM24.8549 21.5525L24.7072 21.9205L25.0033 21.1848L24.8549 21.5525ZM21.0788 33.4005L20.6855 33.4511L20.7362 33.8444L21.1294 33.7937L21.0788 33.4005ZM23.6553 32.8322L23.7793 33.2088L24.1559 33.0849L24.0319 32.7082L23.6553 32.8322ZM20.9775 32.6139L20.9269 32.2207L20.5336 32.2713L20.5843 32.6646L20.9775 32.6139ZM23.4074 32.0789L23.784 31.955L23.66 31.5783L23.2834 31.7023L23.4074 32.0789ZM23.7884 32.7557L23.4874 33.0137L23.7454 33.3148L24.0465 33.0567L23.7884 32.7557ZM23.7953 32.7498L24.0533 33.0508L24.3544 32.7928L24.0964 32.4917L23.7953 32.7498ZM23.2724 32.1535L23.0143 31.8525L22.7133 32.1105L22.9713 32.4116L23.2724 32.1535ZM23.2792 32.1476L23.5803 31.8896L23.3223 31.5885L23.0212 31.8466L23.2792 32.1476ZM23.9014 32.6058L23.7442 32.9699L24.1083 33.127L24.2654 32.763L23.9014 32.6058ZM24.4896 30.1697L24.0957 30.1244L24.4896 30.1697ZM23.1733 32.2916L22.8092 32.1344L22.6521 32.4985L23.0161 32.6556L23.1733 32.2916ZM23.6002 30.7635L23.9902 30.8346L23.2382 30.6015L23.6002 30.7635ZM21.1996 33.3634L20.8424 33.5356L21.0147 33.8928L21.3718 33.7205L21.1996 33.3634ZM20.855 32.6491L20.6827 32.292L20.3256 32.4642L20.4979 32.8214L20.855 32.6491ZM23.234 29.4329L22.8517 29.3277L23.234 29.4329ZM23.5171 27.8354L23.9121 27.8698V27.8698L23.5171 27.8354ZM23.5457 27.3423L23.1493 27.332V27.332L23.5457 27.3423ZM23.5476 27.2106L23.9441 27.2107L23.9441 27.2086L23.5476 27.2106ZM23.5474 27.1782L23.9439 27.1762L23.9439 27.1727L23.5474 27.1782ZM23.5473 27.171L23.9438 27.1655L23.9438 27.1642L23.5473 27.171ZM23.5473 27.17L23.9437 27.1632L23.9437 27.1613L23.5473 27.17ZM23.5473 27.1697L23.9437 27.1611L23.1508 27.1697H23.5473ZM23.5487 27.1698L23.5532 27.5662L23.5797 27.5659L23.6059 27.5621L23.5487 27.1698ZM24.3261 27.0563L24.7086 26.9516L24.6159 26.6133L24.2689 26.6639L24.3261 27.0563ZM30.6065 18.2003L30.9893 18.0969L30.8858 17.7141L30.503 17.8176L30.6065 18.2003ZM27.8852 18.3506L27.9414 17.9581L27.5975 17.9088L27.5035 18.2432L27.8852 18.3506ZM30.8135 18.9659L30.917 19.3487L31.2997 19.2452L31.1962 18.8624L30.8135 18.9659ZM29.4832 19.1805L29.4535 18.7851L28.2211 18.878L29.2774 19.5194L29.4832 19.1805ZM32.5587 21.5271L32.8461 21.8003L33.1193 21.5129L32.8319 21.2397L32.5587 21.5271ZM32.0123 22.1018L31.7391 22.3891L32.0264 22.6624L32.2996 22.375L32.0123 22.1018ZM29.021 19.8278L29.2257 19.4881L29.021 19.8278ZM28.035 19.2806L28.2134 18.9265V18.9265L28.035 19.2806ZM27.7624 19.1482L27.9295 18.7886L27.9295 18.7886L27.7624 19.1482ZM27.6929 19.1165L27.8546 18.7544L27.8535 18.7539L27.6929 19.1165ZM27.6763 19.1091L27.8369 18.7466L27.8349 18.7457L27.6763 19.1091ZM27.6727 19.1075L27.8313 18.7441L27.8308 18.7439L27.6727 19.1075ZM27.6723 19.1074L27.8304 18.7438L27.8289 18.7431L27.6723 19.1074ZM27.6721 19.1073L27.8288 18.7431L27.5145 19.4711L27.6721 19.1073ZM27.6725 19.1065L28.0352 19.2668L28.0466 19.241L28.0542 19.2139L27.6725 19.1065ZM32.682 21.8144V22.2109H33.0786V21.8144H32.682ZM32.682 21.7948H33.0786V21.3983H32.682V21.7948ZM31.889 21.8144H31.4925V22.2109H31.889V21.8144ZM31.889 21.7948V21.3983H31.4925V21.7948H31.889ZM32.6789 21.8456L32.6291 22.239L33.0224 22.2888L33.0723 21.8954L32.6789 21.8456ZM32.7743 20.2346L33.1708 20.2301L33.1663 19.8336L32.7698 19.8381L32.7743 20.2346ZM31.8922 21.7459L31.4988 21.6961L31.449 22.0895L31.8423 22.1393L31.8922 21.7459ZM31.9813 20.2435L31.9769 19.847L31.5804 19.8514L31.5848 20.2479L31.9813 20.2435ZM32.7743 20.239V20.6355H33.1708V20.239H32.7743ZM32.7743 20.0682H33.1708V19.6717H32.7743V20.0682ZM31.9813 20.239H31.5848V20.6355H31.9813V20.239ZM31.9813 20.0682V19.6717H31.5848V20.0682H31.9813ZM30.7499 19.1488L30.4825 18.856L29.9613 19.3319L30.6389 19.5295L30.7499 19.1488ZM30.963 18.9156L30.6464 18.6768V18.6768L30.963 18.9156ZM31.029 18.8205L30.6937 18.6088V18.6088L31.029 18.8205ZM31.048 18.7892L31.3907 18.9886L31.3923 18.9858L31.048 18.7892ZM31.0542 18.7783L31.3986 18.975L31.401 18.9705L31.0542 18.7783ZM31.0565 18.7742L31.4033 18.9664L31.4045 18.9642L31.0565 18.7742ZM31.0574 18.7725L31.4055 18.9625L31.406 18.9614L31.0574 18.7725ZM31.0578 18.7717L31.4064 18.9606L31.4067 18.9601L31.0578 18.7717ZM31.058 18.7713L31.4069 18.9597L31.4071 18.9595L31.058 18.7713ZM30.709 18.5831L30.8969 18.2339V18.2339L30.709 18.5831ZM30.36 18.3949L30.0111 18.2066L30.011 18.2067L30.36 18.3949ZM30.3602 18.3946L30.0116 18.2057L30.0113 18.2062L30.3602 18.3946ZM30.3605 18.394L30.0125 18.204L30.0119 18.2051L30.3605 18.394ZM30.3611 18.3929L30.0142 18.2009L30.0131 18.203L30.3611 18.3929ZM30.362 18.3913L30.0159 18.1978L30.0151 18.1993L30.362 18.3913ZM30.3625 18.3904L30.7007 18.5976L30.7053 18.5898L30.3625 18.3904ZM30.3584 18.3971L30.6937 18.6088L30.6965 18.6042L30.3584 18.3971ZM30.3299 18.438L30.0133 18.1992V18.1992L30.3299 18.438ZM30.1905 18.5849L29.933 18.2834V18.2834L30.1905 18.5849ZM29.5581 18.8292L29.535 18.4334L29.2004 18.4529L29.1639 18.7861L29.5581 18.8292ZM29.473 19.6065L29.0789 19.5634L29.8545 19.7147L29.473 19.6065ZM29.5812 19.2251L29.9626 19.3332L29.1997 19.1169L29.5812 19.2251ZM29.473 19.6066L29.0916 19.4985L28.9834 19.8803L29.3653 19.9881L29.473 19.6066ZM29.4731 19.6066L29.5813 19.2251L29.5809 19.225L29.4731 19.6066ZM29.4734 19.6067L29.5816 19.2252L29.5816 19.2252L29.4734 19.6067ZM29.4747 19.607L29.5829 19.2256L29.5829 19.2256L29.4747 19.607ZM29.4798 19.6085L29.5881 19.227L29.588 19.227L29.4798 19.6085ZM29.4999 19.6142L29.6084 19.2328L29.6082 19.2327L29.4999 19.6142ZM29.5767 19.636L29.6853 19.2547L29.6852 19.2547L29.5767 19.636ZM29.854 19.7153L29.7447 20.0965H29.7447L29.854 19.7153ZM30.7218 19.9668L30.6103 20.3473L30.7218 19.9668ZM32.2264 20.4347L32.075 20.8012L32.4415 20.9526L32.5929 20.5861L32.2264 20.4347ZM32.5292 19.7017L32.8957 19.8531L33.047 19.4867L32.6806 19.3353L32.5292 19.7017ZM30.9449 19.2058L30.8333 19.5863L30.9449 19.2058ZM31.1935 27.3137C31.6161 26.6251 31.9743 25.9029 32.2627 25.1395L31.5208 24.8592C31.2509 25.5738 30.9152 26.2511 30.5176 26.8989L31.1935 27.3137ZM29.9723 27.0295L30.6482 27.4443L31.063 26.7684L30.3871 26.3536L29.9723 27.0295ZM30.779 24.579C30.5275 25.2447 30.2143 25.8771 29.8417 26.4841L30.5176 26.8989C30.9152 26.2511 31.2509 25.5738 31.5208 24.8592L30.779 24.579ZM32.0319 24.6284L31.29 24.3482L31.0098 25.09L31.7516 25.3703L32.0319 24.6284ZM32.3148 24.8592V24.8553H31.5218V24.8592H32.3148ZM31.1253 25.2558H31.9183V24.4627H31.1253V25.2558ZM30.7288 24.8553V24.8592H31.5218V24.8553H30.7288ZM31.9183 24.4588H31.1253V25.2518H31.9183V24.4588ZM24.7135 20.6795L24.4776 21.4318L25.2343 21.669L25.4702 20.9167L24.7135 20.6795ZM31.9279 24.1635C30.595 23.0814 28.1737 21.1087 25.1818 20.4119L25.0019 21.1843C27.7923 21.8341 30.0826 23.6868 31.428 24.7792L31.9279 24.1635ZM32.0214 24.2394C31.9909 24.2146 31.9597 24.1893 31.9279 24.1635L31.428 24.7792C31.4598 24.805 31.4911 24.8304 31.5219 24.8553L32.0214 24.2394ZM31.58 25.4131L32.0796 24.7972L31.4637 24.2976L30.9641 24.9135L31.58 25.4131ZM30.9563 25.4177C30.9785 25.4357 31.0005 25.4535 31.0223 25.4712L31.5219 24.8553C31.5002 24.8377 31.4782 24.8199 31.456 24.8019L30.9563 25.4177ZM28.3761 23.5131C29.412 24.165 30.2851 24.873 30.9563 25.4177L31.456 24.8019C30.7861 24.2583 29.8795 23.5222 28.7985 22.8419L28.3761 23.5131ZM31.2653 26.6346C30.7083 25.0591 29.7997 23.8273 28.8674 22.8968L28.3072 23.4581C29.175 24.3242 30.0083 25.4584 30.5177 26.8989L31.2653 26.6346ZM30.276 27.405L31.0237 27.1406L30.7593 26.3929L30.0116 26.6573L30.276 27.405ZM26.7349 23.1357C27.8565 23.9941 29.1136 25.3069 29.77 27.1633L30.5177 26.8989C29.7937 24.8514 28.4148 23.4227 27.2168 22.5059L26.7349 23.1357ZM25.2864 22.2008C25.6602 22.4005 26.1764 22.7083 26.7349 23.1357L27.2168 22.5059C26.6178 22.0476 26.0641 21.7171 25.6601 21.5013L25.2864 22.2008ZM24.8491 21.9828C24.9499 22.029 25.0999 22.1011 25.2864 22.2008L25.6601 21.5013C25.4581 21.3934 25.2936 21.3141 25.1795 21.2619L24.8491 21.9828ZM24.7367 21.9329C24.7607 21.9431 24.7987 21.9597 24.8491 21.9828L25.1795 21.2619C25.1225 21.2357 25.0781 21.2163 25.0479 21.2035L24.7367 21.9329ZM24.709 21.9212L24.7387 21.9337L25.0459 21.2026L25.0162 21.1901L24.709 21.9212ZM24.7059 21.92L24.7125 21.9227L25.0127 21.1887L25.0061 21.186L24.7059 21.92ZM24.7064 21.9202L24.7074 21.9206L25.0046 21.1854L25.0036 21.1849L24.7064 21.9202ZM24.4888 21.4005C24.4881 21.4022 24.4898 21.3981 24.4921 21.393C24.4928 21.3913 24.4943 21.3878 24.4964 21.3834C24.4978 21.3805 24.5028 21.3699 24.5102 21.3569C24.5139 21.3503 24.5213 21.3376 24.5321 21.3225C24.5409 21.3102 24.5642 21.2784 24.6028 21.2466C24.6458 21.2112 24.7249 21.1619 24.8356 21.1565C24.934 21.1517 25.011 21.1879 25.0018 21.1842L24.7082 21.9209C24.6991 21.9173 24.776 21.9534 24.8744 21.9486C24.9852 21.9432 25.0642 21.894 25.1072 21.8585C25.1458 21.8267 25.1692 21.795 25.178 21.7826C25.1887 21.7675 25.1962 21.7547 25.1999 21.7482C25.2073 21.7351 25.2123 21.7245 25.2138 21.7215C25.2159 21.717 25.2174 21.7135 25.2182 21.7117C25.2207 21.7059 25.2228 21.7007 25.223 21.7002L24.4888 21.4005ZM25.0021 21.1844C25.0022 21.1844 25.0022 21.1844 25.0022 21.1844C25.0022 21.1844 25.0022 21.1844 25.0022 21.1844C25.0022 21.1844 25.0022 21.1844 25.0022 21.1844C25.0022 21.1844 25.0022 21.1844 25.0022 21.1844V21.1844C25.0022 21.1844 25.0022 21.1844 25.0022 21.1844C25.0022 21.1844 25.0022 21.1844 25.0022 21.1844C25.0022 21.1844 25.0022 21.1844 25.0022 21.1844C25.0022 21.1844 25.0022 21.1844 25.0022 21.1844C25.0021 21.1844 25.0021 21.1844 25.0021 21.1843C25.0021 21.1843 25.002 21.1843 25.0018 21.1842C25.0018 21.1842 25.0017 21.1842 25.0016 21.1842C25.0015 21.1841 25.0012 21.184 25.001 21.1839C25.0005 21.1837 24.995 21.1816 24.9899 21.1797C24.4851 21.4093 24.7047 21.9195 24.7057 21.9199C24.706 21.92 24.7065 21.9202 24.7066 21.9203C24.7067 21.9203 24.7068 21.9204 24.7069 21.9204C24.707 21.9204 24.707 21.9204 24.7071 21.9205C24.7071 21.9205 24.7072 21.9205 24.7072 21.9205C24.7072 21.9205 24.7072 21.9205 24.7073 21.9205C24.7073 21.9205 24.7073 21.9205 24.7073 21.9205C24.7073 21.9206 24.7073 21.9205 24.7073 21.9205C24.7072 21.9205 24.7072 21.9205 24.7072 21.9205L25.0026 21.1845C25.0025 21.1845 25.0025 21.1845 25.0024 21.1845C25.0024 21.1845 25.0024 21.1845 25.0024 21.1845C25.0024 21.1845 25.0024 21.1845 25.0024 21.1845C25.0024 21.1845 25.0024 21.1845 25.0025 21.1845C25.0025 21.1845 25.0025 21.1845 25.0026 21.1845C25.0026 21.1846 25.0027 21.1846 25.0028 21.1846C25.0029 21.1847 25.003 21.1847 25.0031 21.1847C25.0032 21.1848 25.0036 21.185 25.0039 21.1851C25.005 21.1855 25.2246 21.6957 24.7197 21.9253C24.7147 21.9234 24.7092 21.9213 24.7087 21.9211C24.7085 21.921 24.7082 21.9209 24.7081 21.9209C24.708 21.9208 24.7079 21.9208 24.7078 21.9208C24.7077 21.9207 24.7076 21.9207 24.7076 21.9207C24.7076 21.9206 24.7075 21.9206 24.7075 21.9206C24.7075 21.9206 24.7074 21.9206 24.7074 21.9206C24.7075 21.9206 24.7075 21.9206 24.7075 21.9206C24.7075 21.9206 24.7076 21.9207 24.7076 21.9207L25.0021 21.1844ZM25.0033 21.1848L25.0033 21.1848L24.7065 21.9202L24.7065 21.9202L25.0033 21.1848ZM21.1294 33.7937C22.0163 33.6795 22.9392 33.4853 23.7793 33.2088L23.5313 32.4556C22.747 32.7137 21.8743 32.8983 21.0282 33.0072L21.1294 33.7937ZM20.5843 32.6646L20.6855 33.4511L21.4721 33.3498L21.3708 32.5633L20.5843 32.6646ZM23.2834 31.7023C22.5548 31.9421 21.7324 32.117 20.9269 32.2207L21.0282 33.0072C21.8743 32.8983 22.747 32.7137 23.5313 32.4556L23.2834 31.7023ZM24.0319 32.7082L23.784 31.955L23.0307 32.2029L23.2786 32.9562L24.0319 32.7082ZM24.0465 33.0567L24.0533 33.0508L23.5373 32.4487L23.5304 32.4546L24.0465 33.0567ZM22.9713 32.4116L23.4874 33.0137L24.0895 32.4976L23.5734 31.8955L22.9713 32.4116ZM23.0212 31.8466L23.0143 31.8525L23.5304 32.4546L23.5373 32.4487L23.0212 31.8466ZM24.0964 32.4917L23.5803 31.8896L22.9782 32.4057L23.4942 33.0078L24.0964 32.4917ZM24.2654 32.763C24.5218 32.169 24.7662 31.2339 24.8835 30.2151L24.0957 30.1244C23.9849 31.0868 23.7557 31.9427 23.5373 32.4487L24.2654 32.763ZM23.0161 32.6556L23.7442 32.9699L24.0585 32.2418L23.3304 31.9275L23.0161 32.6556ZM23.2101 30.6923C23.0968 31.3136 22.9428 31.825 22.8092 32.1344L23.5373 32.4487C23.7014 32.0686 23.8697 31.4957 23.9902 30.8346L23.2101 30.6923ZM21.3718 33.7205C22.6888 33.0852 23.4835 31.9952 23.9621 30.9254L23.2382 30.6015C22.8093 31.5603 22.1249 32.4768 21.0273 33.0062L21.3718 33.7205ZM20.4979 32.8214L20.8424 33.5356L21.5567 33.1911L21.2121 32.4768L20.4979 32.8214ZM22.8517 29.3277C22.5253 30.5137 21.8895 31.7098 20.6827 32.292L21.0273 33.0062C22.5349 32.279 23.2641 30.8178 23.6163 29.5381L22.8517 29.3277ZM23.122 27.801C23.0872 28.2014 23.0118 28.7461 22.8517 29.3277L23.6163 29.5381C23.7924 28.8984 23.8742 28.3041 23.9121 27.8698L23.122 27.801ZM23.1493 27.332C23.1465 27.4408 23.1394 27.6017 23.122 27.801L23.9121 27.8698C23.931 27.6526 23.9389 27.4754 23.9421 27.3525L23.1493 27.332ZM23.151 27.2104C23.151 27.2366 23.1507 27.2777 23.1493 27.332L23.9421 27.3525C23.9437 27.2911 23.9441 27.2432 23.9441 27.2107L23.151 27.2104ZM23.1509 27.1801L23.1511 27.2125L23.9441 27.2086L23.9439 27.1762L23.1509 27.1801ZM23.1508 27.1765L23.1509 27.1837L23.9439 27.1727L23.9438 27.1655L23.1508 27.1765ZM23.1508 27.1767L23.1508 27.1777L23.9438 27.1642L23.9437 27.1632L23.1508 27.1767ZM23.1509 27.1784L23.1509 27.1786L23.9437 27.1613L23.9437 27.1611L23.1509 27.1784ZM23.5442 26.7733C23.5444 26.7733 23.5454 26.7733 23.5468 26.7733C23.5477 26.7733 23.5514 26.7732 23.5562 26.7734C23.5586 26.7734 23.5636 26.7735 23.5698 26.7739C23.5741 26.7741 23.5891 26.775 23.608 26.7779C23.6176 26.7794 23.636 26.7826 23.6585 26.7891C23.6781 26.7949 23.7223 26.8092 23.7708 26.8422C23.8278 26.8811 23.8875 26.9442 23.9203 27.0353C23.9348 27.0755 23.94 27.1105 23.9422 27.1339C23.9432 27.1454 23.9436 27.1548 23.9437 27.1606C23.9438 27.1635 23.9438 27.1659 23.9438 27.1674C23.9438 27.1681 23.9438 27.1687 23.9438 27.1691C23.9438 27.1693 23.9438 27.1695 23.9438 27.1696C23.9438 27.1696 23.9438 27.1697 23.9438 27.1697H23.1508C23.1508 27.1698 23.1508 27.1699 23.1508 27.1699C23.1508 27.17 23.1508 27.1702 23.1508 27.1704C23.1508 27.1708 23.1508 27.1714 23.1508 27.1721C23.1508 27.1736 23.1508 27.176 23.1509 27.1789C23.151 27.1847 23.1513 27.194 23.1524 27.2056C23.1545 27.229 23.1598 27.264 23.1743 27.3042C23.2071 27.3953 23.2668 27.4584 23.3238 27.4973C23.3722 27.5303 23.4165 27.5446 23.4361 27.5504C23.4586 27.5569 23.477 27.5601 23.4866 27.5616C23.5056 27.5645 23.5206 27.5654 23.5249 27.5656C23.5312 27.566 23.5362 27.5661 23.5387 27.5662C23.5437 27.5663 23.5476 27.5663 23.5489 27.5663C23.5507 27.5663 23.5522 27.5663 23.5532 27.5662L23.5442 26.7733ZM24.2689 26.6639L23.4914 26.7774L23.6059 27.5621L24.3834 27.4486L24.2689 26.6639ZM24.8835 30.2151C25.001 29.1951 25 28.0158 24.7086 26.9516L23.9437 27.161C24.1989 28.093 24.2065 29.1619 24.0957 30.1244L24.8835 30.2151ZM30.503 17.8176C29.8461 17.9952 28.8052 18.0819 27.9414 17.9581L27.8289 18.7431C28.8017 18.8825 29.9512 18.7883 30.71 18.5831L30.503 17.8176ZM31.1962 18.8624L30.9893 18.0969L30.2237 18.3038L30.4307 19.0694L31.1962 18.8624ZM29.513 19.5759C30.0234 19.5375 30.5113 19.4583 30.917 19.3487L30.71 18.5831C30.3614 18.6774 29.924 18.7497 29.4535 18.7851L29.513 19.5759ZM32.8319 21.2397C31.6955 20.1592 30.5561 19.3681 29.6891 18.8416L29.2774 19.5194C30.1083 20.024 31.1995 20.7819 32.2855 21.8144L32.8319 21.2397ZM32.2996 22.375L32.8461 21.8003L32.2714 21.2539L31.7249 21.8286L32.2996 22.375ZM28.8164 20.1674C29.6168 20.6497 30.6818 21.3838 31.7391 22.3891L32.2855 21.8144C31.1768 20.7602 30.0626 19.9924 29.2257 19.4881L28.8164 20.1674ZM27.8566 19.6347C28.0854 19.75 28.4169 19.9267 28.8164 20.1674L29.2257 19.4881C28.8072 19.236 28.458 19.0497 28.2134 18.9265L27.8566 19.6347ZM27.5954 19.5078C27.6537 19.5349 27.7423 19.5771 27.8566 19.6347L28.2134 18.9265C28.0911 18.8649 27.995 18.8191 27.9295 18.7886L27.5954 19.5078ZM27.5312 19.4785C27.5447 19.4845 27.5663 19.4943 27.5954 19.5078L27.9295 18.7886C27.8967 18.7734 27.8716 18.762 27.8546 18.7544L27.5312 19.4785ZM27.5157 19.4716L27.5323 19.479L27.8535 18.7539L27.8369 18.7466L27.5157 19.4716ZM27.514 19.4709L27.5176 19.4725L27.8349 18.7457L27.8313 18.7441L27.514 19.4709ZM27.5141 19.471L27.5145 19.4712L27.8308 18.7439L27.8304 18.7438L27.5141 19.471ZM27.5155 19.4716L27.5156 19.4716L27.8289 18.7431L27.8288 18.7431L27.5155 19.4716ZM27.3098 18.9463C27.31 18.946 27.3104 18.9451 27.3109 18.9439C27.3112 18.9431 27.3126 18.9401 27.3145 18.9362C27.3154 18.9342 27.3173 18.9303 27.3199 18.9253C27.3216 18.9219 27.3278 18.9099 27.337 18.8954C27.3417 18.8881 27.3509 18.874 27.3642 18.8576C27.3755 18.8437 27.4034 18.8106 27.4486 18.7798C27.501 18.744 27.5823 18.7077 27.6849 18.711C27.7717 18.7138 27.8387 18.7474 27.8298 18.7435L27.5145 19.4711C27.5056 19.4673 27.5726 19.5008 27.6593 19.5036C27.762 19.5069 27.8433 19.4706 27.8957 19.4348C27.9409 19.404 27.9688 19.371 27.9801 19.3571C27.9935 19.3406 28.0027 19.3266 28.0073 19.3192C28.0165 19.3047 28.0227 19.2927 28.0245 19.2893C28.027 19.2843 28.029 19.2803 28.0299 19.2783C28.0318 19.2743 28.0333 19.2711 28.0337 19.2701C28.0344 19.2687 28.0349 19.2675 28.0352 19.2668L27.3098 18.9463ZM27.5035 18.2432L27.2908 18.9992L28.0542 19.2139L28.2669 18.458L27.5035 18.2432ZM33.0786 21.8144V21.7948H32.2855V21.8144H33.0786ZM31.889 22.2109H32.682V21.4179H31.889V22.2109ZM31.4925 21.7948V21.8144H32.2855V21.7948H31.4925ZM32.682 21.3983H31.889V22.1913H32.682V21.3983ZM33.0723 21.8954C33.1412 21.3513 33.1771 20.7947 33.1708 20.2301L32.3778 20.239C32.3837 20.7642 32.3503 21.2844 32.2855 21.7958L33.0723 21.8954ZM31.8423 22.1393L32.6291 22.239L32.7287 21.4522L31.942 21.3526L31.8423 22.1393ZM31.5848 20.2479C31.5903 20.7336 31.5594 21.2175 31.4988 21.6961L32.2855 21.7958C32.3503 21.2844 32.3837 20.7642 32.3778 20.239L31.5848 20.2479ZM32.7698 19.8381L31.9769 19.847L31.9858 20.64L32.7787 20.6311L32.7698 19.8381ZM33.1708 20.239V20.0682H32.3778V20.239H33.1708ZM31.9813 20.6355H32.7743V19.8425H31.9813V20.6355ZM31.5848 20.0682V20.239H32.3778V20.0682H31.5848ZM32.7743 19.6717H31.9813V20.4647H32.7743V19.6717ZM31.0173 19.4416C31.1315 19.3373 31.2178 19.2361 31.2795 19.1544L30.6464 18.6768C30.6095 18.7258 30.5554 18.7894 30.4825 18.856L31.0173 19.4416ZM31.2795 19.1544C31.3152 19.1071 31.3433 19.0654 31.3643 19.0322L30.6937 18.6088C30.6834 18.6251 30.6677 18.6485 30.6464 18.6768L31.2795 19.1544ZM31.3643 19.0322C31.3748 19.0155 31.3836 19.0009 31.3907 18.9886L30.7052 18.5898C30.7027 18.5942 30.6989 18.6006 30.6937 18.6088L31.3643 19.0322ZM31.3923 18.9858L31.3985 18.9749L30.7098 18.5818L30.7036 18.5926L31.3923 18.9858ZM31.401 18.9705L31.4033 18.9664L30.7096 18.5821L30.7073 18.5862L31.401 18.9705ZM31.4045 18.9642L31.4055 18.9625L30.7094 18.5825L30.7084 18.5842L31.4045 18.9642ZM31.406 18.9614L31.4064 18.9606L30.7092 18.5828L30.7088 18.5836L31.406 18.9614ZM31.4067 18.9601L31.4069 18.9597L30.7091 18.583L30.7089 18.5833L31.4067 18.9601ZM31.4071 18.9595C31.4071 18.9595 31.4078 18.9582 31.4084 18.9569C31.4091 18.9556 31.4112 18.9517 31.4125 18.949C31.4159 18.9422 31.4213 18.9311 31.4269 18.9168C31.4386 18.887 31.4515 18.8439 31.4541 18.7907C31.4596 18.6772 31.4162 18.5931 31.3864 18.5491C31.3591 18.5088 31.3307 18.4831 31.32 18.4736C31.3066 18.4619 31.2952 18.4535 31.2894 18.4493C31.2777 18.4409 31.2682 18.435 31.2654 18.4333C31.2614 18.4308 31.2581 18.4289 31.2564 18.4279C31.2509 18.4247 31.2453 18.4217 31.2432 18.4205C31.2365 18.4169 31.2246 18.4104 31.2029 18.3987C31.159 18.375 31.0715 18.3278 30.8969 18.2339L30.5212 18.9323C30.6958 19.0263 30.7828 19.0731 30.8261 19.0965C30.8481 19.1084 30.8579 19.1137 30.8621 19.116C30.8654 19.1178 30.8626 19.1163 30.8584 19.1139C30.857 19.1131 30.854 19.1113 30.8501 19.1089C30.8476 19.1074 30.8381 19.1015 30.8266 19.0932C30.8208 19.0891 30.8094 19.0807 30.796 19.0689C30.7853 19.0595 30.7569 19.0338 30.7297 18.9936C30.6999 18.9495 30.6564 18.8654 30.662 18.7519C30.6646 18.6987 30.6774 18.6556 30.6892 18.6258C30.6948 18.6116 30.7002 18.6004 30.7036 18.5936C30.7049 18.591 30.7069 18.5871 30.7076 18.5858C30.7083 18.5845 30.709 18.5832 30.709 18.5832L31.4071 18.9595ZM30.8969 18.2339C30.7223 18.14 30.6352 18.0931 30.5919 18.0697C30.57 18.0579 30.5601 18.0525 30.5558 18.0502C30.5526 18.0484 30.5552 18.0498 30.5592 18.0521C30.5605 18.0528 30.5634 18.0545 30.567 18.0568C30.5695 18.0583 30.5785 18.0638 30.5895 18.0716C30.5951 18.0755 30.606 18.0834 30.6188 18.0945C30.629 18.1033 30.6567 18.1277 30.6838 18.166C30.7126 18.2068 30.7597 18.2904 30.7564 18.4063C30.7548 18.4615 30.742 18.5065 30.7298 18.5381C30.724 18.5531 30.7184 18.5649 30.7148 18.572C30.7134 18.5748 30.7112 18.579 30.7105 18.5803C30.7098 18.5817 30.7091 18.5831 30.7091 18.5831L30.011 18.2067C30.011 18.2067 30.0103 18.2081 30.0096 18.2095C30.0088 18.2109 30.0067 18.215 30.0053 18.2178C30.0017 18.225 29.9961 18.2367 29.9903 18.2517C29.978 18.2833 29.9653 18.3284 29.9637 18.3835C29.9604 18.4994 30.0074 18.5831 30.0363 18.6239C30.0634 18.6622 30.0911 18.6866 30.1013 18.6954C30.1142 18.7065 30.1251 18.7144 30.1307 18.7184C30.1418 18.7263 30.1509 18.7319 30.1536 18.7335C30.1574 18.7358 30.1606 18.7377 30.1622 18.7386C30.1675 18.7417 30.1728 18.7446 30.175 18.7458C30.1816 18.7494 30.1935 18.7558 30.2152 18.7675C30.2591 18.7913 30.3466 18.8384 30.5212 18.9323L30.8969 18.2339ZM30.7089 18.5833L30.7091 18.583L30.0113 18.2062L30.0111 18.2066L30.7089 18.5833ZM30.7088 18.5835L30.7092 18.5829L30.0119 18.2051L30.0116 18.2057L30.7088 18.5835ZM30.7086 18.5839L30.7092 18.5828L30.0131 18.203L30.0125 18.204L30.7086 18.5839ZM30.7081 18.5849L30.709 18.5833L30.0151 18.1993L30.0142 18.2009L30.7081 18.5849ZM30.7081 18.5848C30.7078 18.5854 30.7074 18.5861 30.7069 18.5869C30.7067 18.5873 30.7064 18.5878 30.7061 18.5883C30.7061 18.5884 30.706 18.5885 30.7059 18.5886C30.7059 18.5886 30.7059 18.5887 30.7058 18.5889C30.7058 18.5889 30.7057 18.589 30.7056 18.5891C30.7056 18.5893 30.7053 18.5898 30.7051 18.5901C30.7032 18.5933 30.1617 18.7323 30.0176 18.1948C30.018 18.1941 30.0186 18.1931 30.0187 18.1929C30.0188 18.1927 30.0189 18.1925 30.019 18.1925C30.019 18.1924 30.019 18.1924 30.019 18.1923C30.0191 18.1923 30.0191 18.1922 30.0191 18.1922C30.0192 18.192 30.0193 18.1919 30.0194 18.1918C30.0195 18.1915 30.0196 18.1913 30.0198 18.1911L30.7053 18.5898C30.7054 18.5895 30.7056 18.5893 30.7057 18.589C30.7058 18.5889 30.7059 18.5887 30.706 18.5885C30.706 18.5885 30.706 18.5885 30.7061 18.5884C30.7061 18.5884 30.7061 18.5883 30.7061 18.5883C30.7061 18.5883 30.7063 18.5881 30.7064 18.5878C30.7065 18.5876 30.7071 18.5866 30.7075 18.5859C30.5633 18.0485 30.0219 18.1875 30.02 18.1906C30.0198 18.191 30.0195 18.1915 30.0194 18.1916C30.0194 18.1917 30.0193 18.1918 30.0193 18.1919C30.0192 18.192 30.0191 18.1921 30.0191 18.1921C30.0191 18.1923 30.019 18.1924 30.019 18.1924C30.0187 18.193 30.0184 18.1935 30.018 18.1941C30.0174 18.1952 30.0167 18.1964 30.0159 18.1978L30.7081 18.5848ZM30.0244 18.1833L30.0203 18.1899L30.6965 18.6042L30.7006 18.5976L30.0244 18.1833ZM30.0232 18.1854C30.0235 18.1848 30.0203 18.19 30.0133 18.1992L30.6464 18.6768C30.6677 18.6485 30.6834 18.6251 30.6937 18.6088L30.0232 18.1854ZM30.0133 18.1992C29.9991 18.2181 29.9724 18.2498 29.933 18.2834L30.448 18.8864C30.5385 18.8091 30.6038 18.7333 30.6464 18.6768L30.0133 18.1992ZM29.933 18.2834C29.8596 18.3461 29.7373 18.4216 29.535 18.4334L29.5812 19.2251C29.9849 19.2015 30.2669 19.0412 30.448 18.8864L29.933 18.2834ZM29.1639 18.7861L29.0789 19.5634L29.8672 19.6497L29.9522 18.8723L29.1639 18.7861ZM29.8545 19.7147L29.9626 19.3332L29.1997 19.1169L29.0915 19.4984L29.8545 19.7147ZM29.1997 19.117L29.0916 19.4985L29.8545 19.7147L29.9626 19.3332L29.1997 19.117ZM29.3653 19.9881L29.3653 19.9882L29.5809 19.225L29.5808 19.225L29.3653 19.9881ZM29.365 19.9881L29.3653 19.9881L29.5816 19.2252L29.5813 19.2251L29.365 19.9881ZM29.3653 19.9881L29.3665 19.9885L29.5829 19.2256L29.5816 19.2252L29.3653 19.9881ZM29.3665 19.9885L29.3716 19.9899L29.588 19.227L29.5829 19.2256L29.3665 19.9885ZM29.3715 19.9899L29.3916 19.9956L29.6082 19.2327L29.5881 19.227L29.3715 19.9899ZM29.3914 19.9956L29.4682 20.0174L29.6852 19.2547L29.6084 19.2328L29.3914 19.9956ZM29.468 20.0174C29.5342 20.0362 29.6293 20.0634 29.7447 20.0965L29.9633 19.3342C29.8475 19.3009 29.7519 19.2737 29.6853 19.2547L29.468 20.0174ZM29.7447 20.0965C29.9755 20.1627 30.287 20.2525 30.6103 20.3473L30.8333 19.5863C30.5081 19.4909 30.1951 19.4006 29.9633 19.3342L29.7447 20.0965ZM30.6103 20.3473C31.2879 20.5459 31.9305 20.7415 32.075 20.8012L32.3778 20.0682C32.1829 19.9877 31.4836 19.7769 30.8333 19.5863L30.6103 20.3473ZM32.5929 20.5861L32.8957 19.8531L32.1627 19.5504L31.8599 20.2833L32.5929 20.5861ZM32.6806 19.3353C32.4355 19.234 31.6801 19.0081 31.0564 18.8253L30.8333 19.5863C31.4836 19.7769 32.1829 19.9877 32.3778 20.0682L32.6806 19.3353ZM31.0564 18.8253C30.9905 18.806 30.9251 18.7869 30.8608 18.7681L30.6389 19.5295C30.7029 19.5481 30.7679 19.5671 30.8333 19.5863L31.0564 18.8253Z" fill="white"/>
</svg>
