<svg width="40" height="40" viewBox="0 0 40 40" fill="none" xmlns="http://www.w3.org/2000/svg">
<path d="M13.3905 6.48463C12.669 6.81164 11.9834 7.21429 11.3452 7.68595C16.3113 5.39705 22.3749 5.54633 25.6284 7.04822C26.6515 7.53972 27.339 7.83827 27.6506 8.42521C24.2735 7.48894 22.8232 7.31936 19.9969 7.39146C15.9766 7.4666 10.6295 9.1127 8.58521 10.3709L7.68667 11.5285C10.6295 9.72706 16.1213 8.55012 19.1657 8.4506C22.5649 8.40287 25.2012 8.72275 27.6275 9.63262C27.4827 10.2714 27.1742 10.5912 26.6515 10.9131C16.9535 9.16448 11.2235 11.23 6.04336 14.7242L5.66445 15.8799C11.4406 11.7733 18.5214 10.643 25.3449 11.8718C22.8976 12.7583 19.9738 12.9543 17.5254 13.5412C15.4348 14.0347 14.3172 14.184 11.5331 15.1457C8.70883 16.1053 7.0404 17.0883 5.99713 18.3444C5.4976 18.9375 5.11668 19.6239 5.02019 20.3602C4.97597 20.8009 4.99908 21.1989 5.14281 21.5929C5.25739 21.9382 5.51971 22.2814 5.80616 22.6257C5.47449 23.2147 5.18603 23.9814 5.66445 24.8669C5.87752 25.2832 6.42429 25.7016 6.94994 26.0986L6.8022 26.5373C6.73184 27.0572 6.66149 27.6706 6.99517 28.1865C7.56304 29.1217 8.25253 29.7391 9.34706 30.3291C9.5139 31.0928 9.77321 31.7061 10.3441 32.2504C11.5562 33.405 14.2679 35.6198 19.0913 35.965C22.7056 36.2128 25.2957 35.0795 26.2716 34.586L27.4596 33.9483C25.4394 34.783 22.0422 35.2755 19.2582 35.0298C15.2177 34.6845 11.6075 31.9539 11.1552 31.1659C11.2959 31.2624 11.4869 31.3375 11.6507 31.4116C16.3826 33.7736 22.4905 35.0552 30.311 31.7569L30.9563 31.1171C23.8453 33.405 17.6209 33.3319 10.9391 29.7158C11.0125 29.3705 11.1552 29.0709 11.4617 28.8303C13.1714 29.6122 14.8137 30.257 16.8108 30.6724C19.1406 31.1171 21.801 31.2167 23.9901 31.1171C26.2013 31.0186 30.5734 29.8864 32.6418 28.7551C32.8308 28.5825 32.9252 28.29 33.1152 28.091C29.0778 29.6122 24.2735 30.3291 21.3759 30.1057C18.5466 29.8864 16.0288 29.5401 12.7 27.9661C13.3402 27.697 14.0066 27.4746 14.671 27.2756C16.858 27.9661 19.0913 28.3824 21.7297 28.5073C24.3469 28.6292 30.4537 27.6239 34.3032 25.2131C34.4248 24.8679 34.5424 24.4962 34.5424 24.4962C34.5424 24.4962 29.1944 27.4513 23.1348 27.4513C20.3055 27.4513 18.5707 27.0319 17.2882 26.712C20.1386 26.1707 23.7288 25.727 27.7672 24.6698C29.8105 24.1266 32.3312 22.8948 33.473 21.8631C34.4469 20.9501 35.2088 19.7691 34.9485 18.5678C34.8972 18.2439 34.4711 17.4853 33.9474 17.2122C34.4469 16.548 34.3997 15.9814 34.3303 15.493C34.2801 15.1172 34.1143 14.7029 33.9032 14.3353C33.5695 13.8875 33.2579 13.5412 32.6157 13.1502C32.7142 12.634 32.6477 12.0995 32.4257 11.624C31.9272 10.7385 31.0256 9.97687 29.4808 9.16448C29.4095 8.84359 29.2165 8.42521 28.8868 8.00785C26.939 6.01446 23.7519 5.05484 21.0653 5.00406C20.9145 5.00102 20.7648 5 20.618 5C17.4751 5 14.9524 5.73115 13.3905 6.48463ZM28.6014 11.4056C28.8406 11.1345 29.1944 10.7161 29.2879 10.3709C29.9562 10.8146 30.7161 11.4788 30.8095 12.1683C30.099 11.8941 29.3381 11.6037 28.6014 11.4067V11.4056ZM29.1944 14.4064C28.0556 14.0845 27.0576 13.6905 25.7228 13.4478C26.5339 13.1249 27.0777 12.7826 27.5561 12.3876C28.6215 12.6811 29.6205 13.0528 30.4336 13.4204C30.2929 13.6346 29.4788 14.4145 29.2316 14.4145C29.2187 14.4151 29.2059 14.4123 29.1944 14.4064ZM31.2628 15.2675C31.5704 15.0208 31.8568 14.7527 32.1192 14.4308C32.7594 14.9964 32.9494 15.3904 32.6418 16.0058C32.2157 15.6869 31.7604 15.5133 31.2628 15.2675ZM6.85446 21.3716C5.09256 18.8613 11.2004 17.0659 12.3673 16.6953C15.3373 15.7814 18.8099 15.0969 21.9478 14.7029C24.1057 14.4308 25.2504 14.6796 27.2958 15.2442C22.0422 16.6963 16.858 17.1604 11.914 18.6633C7.92789 19.8616 6.87054 21.3716 6.85446 21.3716ZM8.15805 22.5759C10.0124 20.9501 13.7935 20.0413 15.1735 19.7214C19.5687 18.7364 23.6574 18.122 25.3449 17.6803C27.3903 17.1604 28.8165 16.6709 29.8105 16.1794C29.8587 16.1053 31.4749 16.9156 31.6418 17.1106C31.096 17.5808 30.3382 17.9758 29.5039 18.2683C27.0083 19.2045 22.4684 20.1875 20.0693 20.5632C17.644 20.9786 15.6198 21.2964 12.9382 22.0316C11.3904 22.4531 10.3441 22.9456 9.58325 23.4635C9.01337 23.1182 8.68069 23.0207 8.15805 22.5759ZM11.6075 24.5449C12.3894 24.1997 13.2458 23.9285 14.075 23.7112C18.2601 22.647 21.9478 22.4531 27.0335 21.0273C29.4808 20.3602 31.2628 19.6453 32.3815 18.7628C32.5463 18.6125 32.7132 18.4907 32.88 18.3444C34.3535 20.7054 28.8165 22.5272 25.0344 23.368C23.0572 23.7726 21.0761 24.1571 19.0913 24.5216C16.6228 24.94 15.8107 25.1624 14.1001 25.6792C13.2458 25.334 12.3894 24.9643 11.6075 24.5449ZM7.159 23.8067C7.54093 24.0555 7.82436 24.2535 8.27766 24.4962C8.11081 24.6434 7.89572 24.7927 7.73089 24.9633C7.35298 24.7399 6.96904 24.2525 7.159 23.8057V23.8067ZM9.13398 26.0712C9.37219 25.8498 9.67974 25.6295 10.0124 25.4091C10.726 25.7544 11.4617 26.0702 12.1512 26.3921C11.687 26.5674 11.2418 26.7903 10.8225 27.0572C10.2548 26.7368 9.69189 26.4078 9.13398 26.0702V26.0712ZM8.51485 27.2756C8.9189 27.5477 9.32294 27.7681 9.72899 27.9915C9.56215 28.2382 9.44154 28.4322 9.37219 28.681C8.77718 28.1631 8.48973 27.7447 8.51485 27.2756Z" fill="#25378C"/>
</svg>
