<svg width="40" height="40" viewBox="0 0 40 40" fill="none" xmlns="http://www.w3.org/2000/svg">
<path fill-rule="evenodd" clip-rule="evenodd" d="M19.9871 12.6671C20.3115 12.6671 20.6365 12.6671 20.8964 12.7982L20.8311 4.20103H21.8703C21.8703 4.20103 21.7402 6.56373 22.1946 12.9953C27.7793 14.2422 32 19.2298 32 25.2675C32 29.7961 29.6625 33.6685 26.2208 35.8998C26.1559 35.8338 26.0258 35.6372 25.8961 35.5057C22.1946 30.715 21.2854 23.5614 21.0261 17.3266C21.5453 17.4581 22.0649 17.5237 22.5841 17.5892C23.6234 24.4147 26.74 28.9432 29.2725 31.7648C30.4414 30.1902 31.1556 28.418 31.1556 26.4489C31.1556 24.1521 30.2465 22.1177 28.7532 20.4768C27.2596 18.8361 25.2467 17.5237 22.7791 16.8674C21.7402 16.6048 20.6365 16.4733 19.4675 16.4733C18.3634 16.4733 17.2597 16.6048 16.1556 16.8674C11.3508 18.1143 7.77945 21.9207 7.77945 26.4489C7.77945 28.418 8.49363 30.1902 9.5974 31.7648C12.1947 28.9432 15.2469 24.4147 16.2857 17.5892C16.8053 17.5237 17.3246 17.4581 17.909 17.3266C17.6493 23.5614 16.7401 30.6494 13.0391 35.4406V35.3746C12.9089 35.5717 12.7792 35.7687 12.6491 35.8998C9.20781 33.6685 7 29.7961 7 25.2675C7 19.2298 11.1559 14.2422 16.8053 12.9953C17.1297 6.56373 17.0648 4.20103 17.0648 4.20103H18.1036L18.0388 12.7982C18.2985 12.6671 18.6237 12.6671 18.883 12.6671V-6.67788e-07H19.9871V12.6671ZM20.052 17.2611C20.1817 23.2332 20.5713 30.715 22.5193 35.7687C22.7143 36.2935 23.0389 36.8842 23.2988 37.4094C22.0649 37.7375 20.7662 38 19.4675 38C18.1036 38 16.8053 37.7375 15.6364 37.4094C15.9611 36.7527 16.2209 36.1624 16.4807 35.5717C18.2985 30.5839 18.8183 23.1677 18.883 17.2611C19.0127 17.2611 19.2726 17.2611 19.4675 17.2611C19.6625 17.2611 19.8571 17.2611 20.052 17.2611Z" fill="#25378C"/>
</svg>
