<svg width="40" height="40" viewBox="0 0 40 40" fill="none" xmlns="http://www.w3.org/2000/svg">
<path fill-rule="evenodd" clip-rule="evenodd" d="M19.9995 5C11.7163 5 5 11.7162 5 19.9986C5 28.2829 11.7163 35 19.9995 35C28.2828 35 35 28.2838 35 19.9986C35.0009 11.7153 28.2828 5 19.9995 5ZM16.8428 27.3604C16.9623 27.4257 17.3715 27.6888 17.4782 28.2111C17.5508 28.5873 17.5011 28.9174 17.3172 29.2237C17.0929 29.5934 16.714 29.7957 16.2359 29.7957C15.9922 29.7948 15.7393 29.735 15.5039 29.6292L14.8032 29.2972C11.743 27.6768 9.84322 24.4019 9.84322 20.7518V19.2473C9.84322 15.599 11.7485 12.3232 14.8161 10.6927C14.8455 10.6825 15.5039 10.3689 15.5039 10.3689C15.7393 10.2595 15.9913 10.2043 16.2331 10.2043C16.7103 10.2043 17.092 10.4122 17.3172 10.7773C17.5021 11.0807 17.5499 11.41 17.4782 11.788C17.3577 12.394 16.8271 12.6488 16.8207 12.6524C15.0359 13.4617 13.8818 15.301 13.8818 17.339V22.6619C13.8818 24.699 15.0377 26.5401 16.8428 27.3604ZM30.1568 20.7518C30.1568 24.401 28.2579 27.6768 25.1977 29.2972L24.4961 29.6292C24.2662 29.735 24.0115 29.7957 23.7641 29.7957C23.2887 29.7948 22.9099 29.5934 22.6827 29.2237C22.5025 28.9174 22.4519 28.5882 22.5237 28.2111C22.6303 27.6878 23.0377 27.4257 23.1572 27.3604C24.9614 26.5401 26.1218 24.699 26.1218 22.6629V17.339C26.1218 15.301 24.965 13.4626 23.1793 12.6524C23.1765 12.6478 22.6432 12.394 22.5227 11.788C22.451 11.41 22.5016 11.0798 22.6818 10.7773C22.909 10.4122 23.2869 10.2043 23.7632 10.2043C24.0115 10.2043 24.2644 10.2595 24.4952 10.3689C24.4952 10.3689 25.1545 10.6825 25.1821 10.6927C28.2561 12.3223 30.1558 15.599 30.1558 19.2473L30.1568 20.7518Z" fill="#00BBE4"/>
</svg>
