<svg width="100" height="32" viewBox="0 0 100 32" fill="none" xmlns="http://www.w3.org/2000/svg">
<path fill-rule="evenodd" clip-rule="evenodd" d="M68.8191 1.98789C66.2359 1.98789 64.0344 2.40535 62.1737 3.0375L62.5484 6.95663C64.216 6.33901 65.9793 6.02004 67.7576 6.01437C73.8165 6.01437 75.4008 9.76056 75.7835 12.1401H65.6485V16.1665H75.7835C75.7139 19.9416 73.2361 23.0258 68.2744 23.0258C67.0221 23.0258 64.8852 22.8747 62.4143 21.8251L64.2828 26.6288C65.5779 26.9091 66.8372 27.0522 68.0975 27.0522C76.3003 27.0522 80.9509 21.9404 80.9509 14.1319C80.9509 6.53918 76.0528 1.98789 68.8191 1.98789ZM87.4849 15.5702H90.5134C93.2467 15.5702 94.824 16.7629 94.824 19.2438C94.824 21.7317 93.2457 22.9184 90.5134 22.9184H87.4849V15.5702ZM82.5928 2.26819V26.772H91.4119C98.3057 26.772 99.9974 22.2207 99.9974 19.6324C99.9974 16.4757 98.5105 11.7157 91.4119 11.7157H87.4839V6.60378H98.0294V2.26819H82.5928ZM46.5881 17.2171L49.9286 7.20114H49.9992L53.5455 17.2162H46.5881V17.2171ZM47.3812 2.26819L37.769 26.772H43.007L45.0375 21.2794H54.9966L57.0282 26.772H62.5415L52.9651 2.26819H47.3812ZM18.5277 17.3076L17.3101 18.5252L18.1202 20.4813L20.4837 18.1177L18.5277 17.3076ZM16.8589 18.712H15.1334L14.3244 20.6671H17.662L16.8589 18.712ZM18.7215 15.1299V16.8494L20.6696 17.6585V14.3208L18.7215 15.1299ZM14.6752 18.5252L13.4577 17.3076L11.5096 18.1177L13.8732 20.4813L14.6752 18.5252ZM18.1202 11.498L17.3101 13.4541L18.5277 14.6716L20.4837 13.8616L18.1202 11.498ZM15.1334 13.2602H16.8589L17.662 11.3121H14.3244L15.1334 13.2602ZM13.2708 16.8484V15.1299L11.3228 14.3208V17.6585L13.2708 16.8494V16.8484ZM13.4577 14.6716L14.6752 13.4541L13.8732 11.498L11.5096 13.8616L13.4577 14.6716ZM14.7468 10.0299H26.5496C26.9571 10.0299 27.3656 10.187 27.6807 10.502C27.831 10.6505 27.9503 10.8273 28.0317 11.0223C28.1132 11.2172 28.1551 11.4264 28.1551 11.6376C28.1551 11.8489 28.1132 12.058 28.0317 12.253C27.9503 12.4479 27.831 12.6247 27.6807 12.7732L30.3881 15.4807C30.8931 14.9756 31.2935 14.3759 31.5664 13.7158C31.8393 13.0558 31.9793 12.3484 31.9784 11.6341C31.9793 10.9209 31.8393 10.2146 31.5664 9.55567C31.2935 8.89675 30.893 8.29824 30.3881 7.79453C29.8847 7.2896 29.2864 6.88917 28.6276 6.61624C27.9689 6.34332 27.2627 6.2033 26.5496 6.20422H18.5714L14.7468 10.0289V10.0299ZM19.3228 10.8887L27.6668 19.2418C27.8911 19.4657 28.044 19.7511 28.1061 20.062C28.1682 20.3728 28.1368 20.6951 28.0157 20.988C27.8946 21.2809 27.6893 21.5314 27.4259 21.7076C27.1625 21.8839 26.8527 21.978 26.5357 21.9781V25.8108C27.2487 25.8114 27.9548 25.6712 28.6135 25.3983C29.2722 25.1254 29.8706 24.7252 30.3742 24.2205C30.8803 23.7162 31.2814 23.1166 31.5543 22.4564C31.8273 21.7961 31.9667 21.0884 31.9645 20.3739C31.9642 18.9318 31.3924 17.5486 30.3742 16.5273L24.7377 10.8887H19.3218H19.3228ZM21.9517 14.7353V26.5414C21.9517 26.9499 21.7937 27.3663 21.4786 27.6804C21.1779 27.9794 20.7711 28.1471 20.3471 28.1471C19.923 28.1471 19.5162 27.9794 19.2155 27.6804L16.5021 30.3889C17.5225 31.4078 18.9056 31.9798 20.3476 31.9792C21.0618 31.9802 21.7692 31.8402 22.4292 31.5672C23.0892 31.2943 23.6889 30.8939 24.194 30.3889C24.699 29.8838 25.0994 29.2841 25.3723 28.624C25.6452 27.964 25.7852 27.2566 25.7843 26.5424L25.7763 18.5689L21.9517 14.7363V14.7353ZM21.092 19.3134L12.748 27.6665C12.4443 27.9649 12.0357 28.1323 11.61 28.1327C11.3993 28.1329 11.1905 28.0916 10.9958 28.0111C10.801 27.9306 10.6241 27.8124 10.4751 27.6634C10.3261 27.5144 10.2079 27.3374 10.1274 27.1427C10.0469 26.9479 10.0055 26.7392 10.0058 26.5284H6.17225C6.17152 27.2433 6.31228 27.9512 6.58641 28.6114C6.86054 29.2716 7.26263 29.871 7.76948 30.375C8.78866 31.394 10.1708 31.9664 11.612 31.9664C13.0531 31.9664 14.4353 31.394 15.4545 30.375L21.091 24.7294V19.3134H21.092ZM17.2455 21.9424H5.44371C5.01833 21.9421 4.61045 21.773 4.30967 21.4722C4.00888 21.1714 3.83978 20.7635 3.83952 20.3381C3.83952 19.9306 3.99755 19.5211 4.31263 19.206L1.60419 16.4995C1.09701 17.0019 0.694654 17.6 0.420467 18.2591C0.146281 18.9182 0.00572662 19.6253 0.00696179 20.3391C0.0056847 21.0541 0.146193 21.7621 0.420355 22.4224C0.694517 23.0826 1.09689 23.682 1.60419 24.1857C2.1077 24.6906 2.70602 25.091 3.36476 25.3639C4.0235 25.6368 4.72968 25.7769 5.44272 25.776H13.4219L17.2465 21.9434L17.2455 21.9424ZM12.6476 21.0329L4.30468 12.6867C4.15526 12.5379 4.0367 12.361 3.95581 12.1662C3.87491 11.9714 3.83327 11.7626 3.83327 11.5517C3.83327 11.3407 3.87491 11.1319 3.95581 10.9371C4.0367 10.7423 4.15526 10.5654 4.30468 10.4166C4.45195 10.266 4.62795 10.1466 4.82224 10.0653C5.01653 9.98403 5.22516 9.94259 5.43576 9.94344V6.11774C4.72277 6.1172 4.01669 6.2574 3.35799 6.5303C2.6993 6.8032 2.10094 7.20344 1.59724 7.70806C1.09032 8.21063 0.688138 8.80877 0.413971 9.46785C0.139803 10.1269 -0.000901056 10.8338 4.34183e-06 11.5477C4.34183e-06 13.0525 0.608284 14.4063 1.59724 15.3942L7.23277 21.0329H12.6476ZM10.0416 17.236V5.42993C10.0439 5.0051 10.2137 4.59831 10.514 4.29781C10.8143 3.99731 11.221 3.82732 11.6458 3.82471C12.0533 3.82471 12.4618 3.98374 12.7769 4.29783L15.4913 1.59032C14.4706 0.571236 13.0871 -0.000792589 11.6448 8.24257e-07C10.2028 -0.00052905 8.8197 0.571479 7.7993 1.59032C7.29379 2.09501 6.89305 2.69468 6.62013 3.35482C6.34721 4.01497 6.2075 4.72255 6.20903 5.43689V13.4103L10.0416 17.237V17.236ZM10.9003 12.6589L19.2443 4.31274C19.3939 4.16352 19.5716 4.04548 19.7671 3.96546C19.9626 3.88544 20.1721 3.84503 20.3833 3.84657C20.8266 3.84657 21.2212 4.02549 21.5144 4.31274C21.6652 4.46153 21.7846 4.63893 21.8659 4.83453C21.9471 5.03013 21.9885 5.24 21.9875 5.4518H25.8191C25.8191 3.94696 25.2029 2.58625 24.2219 1.60522C23.7181 1.10065 23.1198 0.700443 22.4611 0.427546C21.8024 0.154649 21.0963 0.014425 20.3833 0.01491C19.6691 0.0135952 18.9615 0.15341 18.3014 0.426325C17.6414 0.699239 17.0417 1.09988 16.5369 1.60522L10.9013 7.24289V12.6589H10.9003ZM16.9533 18.2966L18.2991 16.9428V15.0285L16.9523 13.6817H15.04L13.6863 15.0285V16.9418L15.04 18.2956H16.9523L16.9533 18.2966ZM13.8871 21.0826L10.9003 18.1028V13.8765L13.8871 10.8887H18.1053L21.092 13.8765V18.1028L18.1053 21.0826H13.8871Z" fill="#2F88F0"/>
</svg>
