<svg width="40" height="40" viewBox="0 0 40 40" fill="none" xmlns="http://www.w3.org/2000/svg">
<path d="M2.39984 22.6814C2.17902 22.6814 2 22.8604 2 23.0812C2 23.302 2.17902 23.481 2.39984 23.481H11.7105C11.9313 23.481 12.1103 23.302 12.1103 23.0812C12.1103 22.8604 11.9313 22.6814 11.7105 22.6814H2.39984Z" fill="#F3753E"/>
<path d="M28.7895 22.6814C28.5687 22.6814 28.3897 22.8604 28.3897 23.0812C28.3897 23.302 28.5687 23.481 28.7895 23.481H38.1002C38.321 23.481 38.5 23.302 38.5 23.0812C38.5 22.8604 38.321 22.6814 38.1002 22.6814H28.7895Z" fill="#F3753E"/>
<path d="M36.9577 16.0554C37.1786 16.0554 37.3576 16.2344 37.3576 16.4552V16.6837C37.3576 16.9045 37.1786 17.0835 36.9577 17.0835C36.7369 17.0835 36.5579 16.9045 36.5579 16.6837V16.4552C36.5579 16.2344 36.7369 16.0554 36.9577 16.0554Z" fill="#5A5D62"/>
<path d="M38.232 17.0488C38.3925 17.1049 38.5 17.2563 38.5 17.4263V20.2252C38.5 20.446 38.321 20.625 38.1001 20.625C37.8793 20.625 37.7003 20.446 37.7003 20.2252V18.5707L36.1853 20.4742C36.0794 20.6072 35.901 20.6587 35.7406 20.6026C35.5801 20.5466 35.4726 20.3952 35.4726 20.2252V17.4263C35.4726 17.2054 35.6516 17.0264 35.8724 17.0264C36.0933 17.0264 36.2723 17.2054 36.2723 17.4263V19.0807L37.7873 17.1773C37.8932 17.0443 38.0715 16.9927 38.232 17.0488Z" fill="#5A5D62"/>
<path fill-rule="evenodd" clip-rule="evenodd" d="M3.77073 17.0264C2.81127 17.0264 2.05711 17.8325 2.05711 18.7972C2.05711 19.7618 2.81127 20.5679 3.77073 20.5679C4.73018 20.5679 5.48434 19.7618 5.48434 18.7972C5.48434 17.8325 4.73018 17.0264 3.77073 17.0264ZM2.74256 18.7972C2.74256 18.1844 3.21594 17.7119 3.77073 17.7119C4.32552 17.7119 4.7989 18.1844 4.7989 18.7972C4.7989 19.4099 4.32552 19.8824 3.77073 19.8824C3.21594 19.8824 2.74256 19.4099 2.74256 18.7972Z" fill="#5A5D62"/>
<path fill-rule="evenodd" clip-rule="evenodd" d="M6.85524 17.0835C6.66595 17.0835 6.51251 17.237 6.51251 17.4263V20.2252C6.51251 20.4145 6.66595 20.5679 6.85524 20.5679C7.04452 20.5679 7.19796 20.4145 7.19796 20.2252V19.5397H8.11189C8.5952 19.5397 9.14006 19.0858 9.14006 18.3402C9.14006 17.9734 9.01276 17.6655 8.82402 17.4457C8.64282 17.2347 8.38334 17.0835 8.11189 17.0835H6.85524ZM8.11189 18.8543H7.19796V17.769H8.11189C8.13218 17.769 8.21542 17.7892 8.30401 17.8923C8.38505 17.9867 8.45461 18.1358 8.45461 18.3402C8.45461 18.737 8.18749 18.8543 8.11189 18.8543Z" fill="#5A5D62"/>
<path d="M14.1667 17.0835C14.3559 17.0835 14.5094 17.237 14.5094 17.4263V18.5116H15.9945V17.4263C15.9945 17.237 16.148 17.0835 16.3372 17.0835C16.5265 17.0835 16.68 17.237 16.68 17.4263V20.2252C16.68 20.4145 16.5265 20.5679 16.3372 20.5679C16.148 20.5679 15.9945 20.4145 15.9945 20.2252V19.197H14.5094V20.2252C14.5094 20.4145 14.3559 20.5679 14.1667 20.5679C13.9774 20.5679 13.8239 20.4145 13.8239 20.2252V17.4263C13.8239 17.237 13.9774 17.0835 14.1667 17.0835Z" fill="#5A5D62"/>
<path d="M23.6487 17.0835C23.4594 17.0835 23.3059 17.237 23.3059 17.4263V20.2252C23.3059 20.4145 23.4594 20.5679 23.6487 20.5679H25.4765C25.6658 20.5679 25.8192 20.4145 25.8192 20.2252C25.8192 20.0359 25.6658 19.8824 25.4765 19.8824H23.9914V19.197H25.1909C25.3802 19.197 25.5336 19.0436 25.5336 18.8543C25.5336 18.665 25.3802 18.5116 25.1909 18.5116H23.9914V17.769H25.4765C25.6658 17.769 25.8192 17.6155 25.8192 17.4263C25.8192 17.237 25.6658 17.0835 25.4765 17.0835H23.6487Z" fill="#5A5D62"/>
<path fill-rule="evenodd" clip-rule="evenodd" d="M26.8474 17.4263C26.8474 17.237 27.0009 17.0835 27.1901 17.0835H28.7324C29.01 17.0835 29.2107 17.2486 29.3291 17.4228C29.4469 17.5961 29.5101 17.8108 29.5241 18.017C29.5382 18.2233 29.5052 18.4543 29.3926 18.6546C29.3903 18.6586 29.388 18.6626 29.3857 18.6665C29.4471 18.7188 29.5016 18.7774 29.5487 18.8417C29.712 19.0644 29.7675 19.3275 29.7528 19.5678C29.7382 19.8063 29.6536 20.044 29.5077 20.2292C29.3605 20.4163 29.1332 20.5679 28.8466 20.5679H27.1901C27.0009 20.5679 26.8474 20.4145 26.8474 20.2252V17.4263ZM28.6977 18.3973C28.7442 18.3848 28.7723 18.3591 28.7951 18.3185C28.8271 18.2618 28.8476 18.1715 28.8403 18.0636C28.8329 17.9557 28.7998 17.8634 28.7622 17.8081C28.7451 17.783 28.7331 17.7728 28.7271 17.769H27.5329V18.3973H28.6977ZM27.5329 19.0828V19.8824H28.8466C28.8742 19.8824 28.9183 19.8699 28.9691 19.8052C29.0215 19.7388 29.0618 19.6373 29.0686 19.5259C29.0753 19.4164 29.0487 19.3189 28.996 19.2471C28.9495 19.1836 28.8646 19.1151 28.7016 19.0828H27.5329ZM28.723 17.7671L28.7233 17.7671C28.7239 17.7673 28.7248 17.7677 28.7261 17.7684C28.7253 17.7683 28.7247 17.7681 28.7242 17.7679C28.7238 17.7678 28.7235 17.7676 28.7233 17.7675C28.723 17.7674 28.7227 17.7671 28.7227 17.7671L28.723 17.7671Z" fill="#5A5D62"/>
<path fill-rule="evenodd" clip-rule="evenodd" d="M31.417 17.4263C31.417 17.237 31.2636 17.0835 31.0743 17.0835C30.885 17.0835 30.7316 17.237 30.7316 17.4263V20.2252C30.7316 20.4145 30.885 20.5679 31.0743 20.5679H32.3881C32.6837 20.5679 32.9561 20.3991 33.1421 20.1869C33.335 19.9669 33.4734 19.66 33.4734 19.3112C33.4734 18.9648 33.3389 18.6579 33.1465 18.4366C32.96 18.2221 32.6871 18.0546 32.3881 18.0546H31.417V17.4263ZM31.417 19.8824V18.74H32.3881C32.4318 18.74 32.5302 18.7725 32.6293 18.8864C32.7225 18.9936 32.7879 19.1436 32.7879 19.3112C32.7879 19.4766 32.7218 19.6266 32.6267 19.7351C32.5248 19.8513 32.4258 19.8824 32.3881 19.8824H31.417Z" fill="#5A5D62"/>
<path d="M34.3302 17.4263C34.3302 17.237 34.1768 17.0835 33.9875 17.0835C33.7982 17.0835 33.6447 17.237 33.6447 17.4263V20.2252C33.6447 20.4145 33.7982 20.5679 33.9875 20.5679C34.1768 20.5679 34.3302 20.4145 34.3302 20.2252V17.4263Z" fill="#5A5D62"/>
<path d="M22.1273 17.6614C22.2571 17.5237 22.2508 17.3068 22.113 17.1769C21.9753 17.0471 21.7584 17.0534 21.6286 17.1912L20.3357 18.5624V17.4263C20.3357 17.237 20.1822 17.0835 19.993 17.0835C19.8037 17.0835 19.6502 17.237 19.6502 17.4263V18.5808L18.2967 17.1875C18.1648 17.0517 17.9478 17.0485 17.812 17.1804C17.6763 17.3123 17.6731 17.5293 17.805 17.6651L18.7076 18.5942L17.6084 20.0155C17.4926 20.1652 17.5201 20.3805 17.6698 20.4963C17.8195 20.6121 18.0348 20.5846 18.1506 20.4348L19.1901 19.0908L19.6502 19.5645V20.2252C19.6502 20.4145 19.8037 20.5679 19.993 20.5679C20.1822 20.5679 20.3357 20.4145 20.3357 20.2252V19.5616L20.7776 19.0929L21.8372 20.4373C21.9544 20.586 22.1699 20.6115 22.3186 20.4943C22.4672 20.3772 22.4927 20.1617 22.3756 20.013L21.253 18.5887L22.1273 17.6614Z" fill="#5A5D62"/>
<path fill-rule="evenodd" clip-rule="evenodd" d="M11.2535 17.0264C11.3833 17.0264 11.502 17.0998 11.5601 17.2159L12.9881 20.0719C13.0727 20.2412 13.0041 20.4471 12.8348 20.5317C12.6655 20.6164 12.4596 20.5477 12.375 20.3784L12.1555 19.9396H10.3515L10.132 20.3784C10.0474 20.5477 9.84153 20.6164 9.67223 20.5317C9.50293 20.4471 9.43431 20.2412 9.51896 20.0719L10.947 17.2159C11.005 17.0998 11.1237 17.0264 11.2535 17.0264ZM11.8128 19.2541L11.2535 18.1355L10.6942 19.2541H11.8128Z" fill="#5A5D62"/>
<path d="M25.7181 22.1274C25.8032 22.1978 25.8152 22.3238 25.7448 22.4089L25.2187 23.0453L25.8627 23.8723C25.9306 23.9594 25.9149 24.085 25.8278 24.1529C25.7407 24.2207 25.6151 24.2051 25.5473 24.118L24.8647 23.2415H24.7625V23.9951C24.7625 24.1055 24.673 24.195 24.5626 24.195C24.4522 24.195 24.3627 24.1055 24.3627 23.9951V22.2815C24.3627 22.1711 24.4522 22.0816 24.5626 22.0816C24.673 22.0816 24.7625 22.1711 24.7625 22.2815V22.8416H24.8683L25.4367 22.1541C25.507 22.069 25.633 22.0571 25.7181 22.1274Z" fill="#5A5D62"/>
<path d="M21.3353 22.2815C21.3353 22.1711 21.2458 22.0816 21.1354 22.0816C21.0249 22.0816 20.9354 22.1711 20.9354 22.2815V23.9951C20.9354 24.1055 21.0249 24.195 21.1354 24.195C21.2458 24.195 21.3353 24.1055 21.3353 23.9951V23.3557H22.0778V23.9951C22.0778 24.1055 22.1674 24.195 22.2778 24.195C22.3882 24.195 22.4777 24.1055 22.4777 23.9951V22.2815C22.4777 22.1711 22.3882 22.0816 22.2778 22.0816C22.1674 22.0816 22.0778 22.1711 22.0778 22.2815V22.9559H21.3353V22.2815Z" fill="#5A5D62"/>
<path fill-rule="evenodd" clip-rule="evenodd" d="M14.6236 22.0816C14.5132 22.0816 14.4237 22.1711 14.4237 22.2815V23.9951C14.4237 24.1055 14.5132 24.195 14.6236 24.195H15.2822C15.4402 24.195 15.6077 24.1191 15.7334 24.0029C15.8634 23.8826 15.966 23.7034 15.966 23.481C15.966 23.2584 15.8644 23.083 15.731 22.9668C15.602 22.8546 15.4353 22.7903 15.2822 22.7903H14.8235V22.4814H15.6518C15.7622 22.4814 15.8517 22.3919 15.8517 22.2815C15.8517 22.1711 15.7622 22.0816 15.6518 22.0816H14.6236ZM14.8235 23.7952V23.1902H15.2822C15.3307 23.1902 15.4059 23.214 15.4685 23.2684C15.5265 23.319 15.5661 23.3889 15.5661 23.481C15.5661 23.5734 15.5248 23.6512 15.4619 23.7093C15.3947 23.7715 15.3203 23.7952 15.2822 23.7952H14.8235Z" fill="#5A5D62"/>
<path fill-rule="evenodd" clip-rule="evenodd" d="M18.465 22.2073C18.4346 22.1314 18.3611 22.0816 18.2793 22.0816C18.1976 22.0816 18.1241 22.1314 18.0937 22.2073L17.4083 23.9209C17.3673 24.0234 17.4171 24.1397 17.5196 24.1807C17.6222 24.2218 17.7385 24.1719 17.7795 24.0694L17.88 23.8181H18.6786L18.7792 24.0694C18.8202 24.1719 18.9365 24.2218 19.039 24.1807C19.1415 24.1397 19.1914 24.0234 19.1504 23.9209L18.465 22.2073ZM18.2793 22.8198L18.5187 23.4182H18.04L18.2793 22.8198Z" fill="#5A5D62"/>
</svg>
