<?xml version="1.0" encoding="utf-8"?>
<!-- Generator: Adobe Illustrator 15.1.0, SVG Export Plug-In . SVG Version: 6.00 Build 0)  -->
<!DOCTYPE svg PUBLIC "-//W3C//DTD SVG 1.1//EN" "http://www.w3.org/Graphics/SVG/1.1/DTD/svg11.dtd">
<svg version="1.1" id="Слой_1" xmlns="http://www.w3.org/2000/svg" xmlns:xlink="http://www.w3.org/1999/xlink" x="0px" y="0px"
	 width="653px" height="162px" viewBox="-3.555 212.14 653 162" enable-background="new -3.555 212.14 653 162"
	 xml:space="preserve">
<title>Logo 25 let</title>
<path fill="#1D1D1B" d="M258.697,296.057c0,17.491-8.994,29.317-18.822,29.317s-18.823-11.992-18.823-29.483
	s8.995-29.484,19.156-29.484S258.864,278.4,258.697,296.057 M269.692,296.224c0-20.656-13.327-35.981-29.65-36.147
	c-16.325-0.167-30.151,15.325-30.151,35.814s13.493,35.646,29.818,35.646c16.323,0,29.816-15.324,29.816-35.48 M368.139,307.385
	h-22.154l11.327-28.652L368.139,307.385z M388.295,331.539l-26.819-69.13h-4.664l-27.484,68.964h6.996l6.995-17.656h27.486
	l6.996,17.656L388.295,331.539z M492.073,307.552h-22.153l11.326-28.651L492.073,307.552z M512.563,331.873l-26.985-69.298h-4.664
	l-27.484,68.964h6.996l6.996-17.656h27.484l6.996,17.656L512.563,331.873z M643.826,331.706l-30.983-42.145l28.484-27.152h-9.161
	l-28.484,27.152v-27.152h-19.49v6.33h9.662v62.8h9.994V293.56l27.818,38.146H643.826L643.826,331.706z M304.006,294.725h-7.329
	v-25.82h7.329c8.995,0,14.659,5.497,14.659,12.827C318.665,289.061,313.001,294.725,304.006,294.725 M308.337,262.742h-31.316v6.33
	h9.661v62.634h9.995v-30.649h11.327c11.994,0,20.822-8.329,20.822-19.323s-8.662-19.157-20.489-19.157 M419.279,325.21h-5.662
	v-30.983h6.995c11.827,0,17.324,6.996,17.657,14.492s-6.496,16.991-18.823,16.491 M444.932,278.567v-16.158H403.62v62.8h-9.994
	v6.497h28.816c17.824,0,26.986-13.492,26.319-23.486c-0.666-9.995-9.994-17.658-19.656-19.657l-2.998-0.499
	c-2.998-0.334-3.998,0-12.66-0.167v-19.323h25.153v10.161L444.932,278.567z M169.077,319.38v-45.144l5.331,0.499
	c8.161,1.666,13.824,10.328,13.991,21.655c0.167,11.328-6.996,21.322-16.157,22.655l-2.998,0.333 M159.416,274.069v45.311
	l-2.832-0.333c-9.328-1.333-16.325-11.161-16.158-22.655c0.167-11.493,5.664-19.989,13.992-21.655l5.164-0.499 M169.41,260.077
	h-19.989v5.497h9.662v3.664h-3.165c-17.324,1-26.486,13.327-26.486,27.486s10.328,26.319,26.652,27.484h2.999v8.162h9.828v-7.994
	h3.165c16.323-1.334,26.651-12.827,26.651-27.486s-9.162-26.486-26.485-27.485h-3.165L169.41,260.077z M571.531,331.706
	l0.334-69.131h-9.995v25.653h-28.317v-25.819h-19.49v6.33h9.662v62.8h9.994v-36.979h27.818v37.146H571.531z"/>
<path fill="#E52529" d="M92.118,334.871c-10.495-3.165-27.319-5.331-46.477-5.331s-35.147,1.999-45.643,4.998v7.662h92.118
	L92.118,334.871L92.118,334.871z"/>
<path fill="#E52529" d="M46.309,291.393c18.823,0,36.147,9.828,45.977,19.99v-7.663c-10.661-15.325-27.318-25.153-46.143-25.153l0,0
	c-18.824,0-35.314,9.828-45.977,25.153v7.663c12.274-12.195,28.686-19.33,45.977-19.99H46.309L46.309,291.393z"/>
<path fill="#E52529" d="M45.976,316.882h0.167c15.883-0.181,31.602,3.236,45.977,9.993l0,0v-7.661
	c-11.494-8.995-27.152-14.492-46.144-14.992s-34.647,5.997-46.143,14.992v7.661l0,0c14.375-6.757,30.093-10.174,45.976-9.993H45.976
	z"/>
<path fill="#1D1D1B" d="M92.118,297.057c-10.495-19.157-27.319-31.65-46.477-31.65s-35.147,11.994-45.643,30.151v-45.311h92.118
	L92.118,297.057L92.118,297.057z"/>
</svg>
