<svg width="154" height="41" viewBox="0 0 154 41" fill="none" xmlns="http://www.w3.org/2000/svg">
<path d="M4.1999 0.5C4.1999 0.3 4.0999 0.2 3.9999 0C3.0999 1.5 2.2999 2.9 1.4999 4.4C1.0999 5.2 0.899903 6.1 0.599903 6.9C0.499903 7.3 0.399902 7.6 0.399902 8V9.7C0.399902 9.8 0.499903 9.9 0.499903 10C0.699903 11.5 1.0999 12.8 1.8999 14.1C4.1999 18.1 6.4999 22.1 8.8999 26.2C8.9999 26.3 9.0999 26.4 9.1999 26.6C9.8999 25.4 10.5999 24.3 11.1999 23.1C13.1999 19.6 13.1999 16 11.1999 12.5C8.7999 8.4 6.4999 4.4 4.1999 0.5ZM134.8 29.3V23.4C134.8 22.5 134.2 21.9 133.3 21.9H130.1C129.1 21.9 128.3 22.6 128.1 23.6C127.9 24.7 127.8 25.8 127.6 26.9C127.4 27.9 127.3 28.9 127.1 29.9H125.9V31.9H135.8V29.9H134.8V29.3ZM129.3 29.8C129.4 29 129.5 28.3 129.6 27.5C129.7 26.6 129.9 25.6 130 24.7C130.1 24 130.3 23.9 130.9 23.9H132.6V29.8H129.3ZM143.9 21.8C143.5 21.8 143.2 21.9 143 22.3C141.8 24.1 140.7 25.9 139.5 27.7C139.4 27.8 139.3 28 139.2 28.1H139.1V22H136.9V32H138.5C138.8 32 138.9 31.9 139.1 31.7C140.3 29.9 141.4 28.1 142.6 26.4C142.7 26.3 142.7 26.2 142.8 26.1H142.9V32H145.1V22C144.6 21.8 144.2 21.9 143.9 21.8ZM106.3 26.7C107 26.3 107.4 25.7 107.6 24.9C107.8 24.3 108 23.7 108.1 23.1C108.2 22.7 108.4 22.3 108.5 21.9H106.8C106.5 21.9 106.4 22 106.3 22.3C106.1 23.1 105.8 23.9 105.6 24.6C105.4 25.2 104.9 25.7 104.2 25.8H102.8V21.8H100.6V31.8H102.8V27.8H103.4C104.9 27.8 105.3 28.1 105.7 29.6C105.9 30.3 106.1 31 106.3 31.6C106.3 31.7 106.5 31.9 106.6 31.9C107.3 32 107.9 31.9 108.6 31.9C108.3 30.8 108 29.7 107.6 28.6C107.5 27.8 107.2 27.1 106.3 26.7ZM120.3 27.8H124.4V25.9H120.3V23.9H125.1V21.9H120.4C119 21.9 118.1 22.8 118.1 24.2V29.6C118.1 31 119 31.9 120.4 31.9H125.1V29.9H120.3V27.8ZM114.5 21.9C113.6 21.8 112.7 21.8 111.8 21.8C110.5 21.8 109.6 22.6 109.6 23.9V31.7H111.8V28C112.7 28 113.5 28.1 114.4 28C116 27.8 117.2 26.5 117.3 25C117.3 23.4 116.2 22.1 114.5 21.9ZM113.9 26.2H111.8V23.9C112.6 23.9 113.3 23.8 114.1 23.9C114.7 24 115 24.4 115 25.1C115 25.7 114.5 26.2 113.9 26.2ZM146 21.9V23.9H148.7V31.9H150.9V23.9H153.6V21.9H146Z" fill="#02ACE2"/>
<path d="M35.0999 14.2C32.9999 10.7 29.9 8.89999 25.9 8.89999H11.7C11.8 9.09999 11.9 9.19999 11.9 9.29999C12.5 10.4 13.1 11.4 13.7 12.5C15.7 15.9 18.8 17.7 22.7 17.7H37.0999C36.9999 17.5 36.9 17.4 36.9 17.3C36.3 16.2 35.6999 15.2 35.0999 14.2ZM35 21.8H33.2999C32.0999 21.7 31.1999 22.3 30.5999 23.4C29.0999 26.1 27.5999 28.7 26.0999 31.4C25.9999 31.5 25.9 31.7 25.7999 31.9H28.2999L29.4 29.8C29.4 29.8 32.6999 29.9 33.7999 29.9V31.9H36.0999L36.2 31.8V23.1C36.3 22.3 35.7999 21.8 35 21.8ZM33.9 27.9H30.5C30.7 27.6 30.7999 27.3 31 26.9C31.4 26.3 31.6 25.7 32 25C32.4 24.1 33 23.9 33.9 24.1V27.9ZM61.8 25.6C61.8 23.4 60.4999 21.9 58.1999 21.7C55.8999 21.5 54.0999 23 54 25.3V28.1C54.0999 30.2 55.3 31.5 57.4 31.8C59.6 32 61.2999 30.8 61.6999 28.7C61.7999 28.1 61.6999 27.4 61.6999 26.7H61.8V25.6ZM59.5 28.3C59.4 29.3 58.8 29.8 57.8 29.8C56.9 29.8 56.1999 29.2 56.1999 28.2V25.2C56.2999 24.3 56.9 23.7 57.8 23.7C58.8 23.7 59.5 24.3 59.5 25.2C59.5999 26.3 59.5999 27.3 59.5 28.3ZM50.4 22C49.3 21.9 48.3 21.9 47.3 21.9C46.2 21.9 45.5999 22.5 45.5999 23.6V31.8H47.8V28.2H48.4C49 28.2 49.7 28.2 50.3 28.1C51.9 27.9 53.0999 26.6 53.0999 25.1C53.1999 23.4 52.1 22.1 50.4 22ZM49.9 26.2H47.8V23.9H49.9C50.6 24 50.9 24.4 50.9 25C50.9 25.6 50.5 26.1 49.9 26.2ZM39.5 21.8C38.2999 21.8 37.7 22.4 37.7 23.6V31.8H39.9V23.8H44.6999V21.8H39.5Z" fill="#FE720A"/>
<path d="M25.6001 19.9H21.5001C17.5001 20 14.4001 21.7 12.3001 25.2C10.0001 29.1 7.7001 33.1 5.4001 37.1C5.3001 37.2 5.2001 37.4 5.1001 37.6H9.2001C13.3001 37.6 16.3001 35.8 18.4001 32.3C20.7001 28.4 23.0001 24.4 25.3001 20.4C25.5001 20.2 25.5001 20.1 25.6001 19.9ZM97.5001 21.8C97.2001 21.8 97.1001 21.9 96.9001 22.2C96.4001 23.4 95.8001 24.7 95.3001 25.9C95.0001 26.5 94.8001 27.1 94.5001 27.8C94.4001 27.6 94.3001 27.5 94.2001 27.3C93.5001 25.6 92.7001 23.9 91.9001 22.2C91.8001 22.1 91.7001 21.9 91.6001 21.9C91.0001 21.8 90.4001 21.9 89.8001 21.9V31.9H92.0001V27.3C92.4001 28 92.8001 28.8 93.2001 29.6C93.5001 30.2 93.8001 30.5 94.5001 30.5C95.1001 30.5 95.5001 30.1 95.8001 29.6C96.2001 28.8 96.5001 28 96.9001 27.3H97.0001V31.9H99.2001V21.9C98.6001 21.8 98.1001 21.9 97.5001 21.8ZM65.3001 23.9H68.6001V31.8H70.7001V23.3C70.7001 22.3 70.2001 21.9 69.3001 21.9H64.7001C63.6001 21.9 63.1001 22.4 63.1001 23.5V31.9H65.3001V23.9ZM84.1001 31.9C86.4001 32.2 88.1001 30.9 88.4001 28.6C88.5001 28 88.4001 27.4 88.4001 26.8H88.5001V25.6C88.5001 23.4 87.1001 21.9 84.8001 21.7C82.7001 21.5 81.0001 22.9 80.8001 24.9C80.7001 26.1 80.7001 27.2 80.8001 28.4C80.9001 30.5 82.1001 31.7 84.1001 31.9ZM82.9001 25.5C82.9001 24.4 83.6001 23.9 84.6001 23.9C85.6001 23.9 86.2001 24.5 86.3001 25.6V28.2C86.3001 29.3 85.7001 29.9 84.6001 29.9C83.6001 29.9 83.0001 29.3 83.0001 28.2C82.9001 27.3 82.9001 26.4 82.9001 25.5ZM77.2001 21.9C76.1001 21.8 75.0001 21.8 73.9001 21.8C72.8001 21.8 72.3001 22.3 72.3001 23.3V31.7H74.5001V28.1H75.1001C75.7001 28.1 76.4001 28.1 77.0001 28C78.6001 27.8 79.8001 26.5 79.8001 25C80.0001 23.4 78.9001 22.1 77.2001 21.9ZM76.7001 26.2H74.6001V23.9H76.7001C77.4001 24 77.8001 24.4 77.8001 25C77.7001 25.6 77.3001 26.1 76.7001 26.2ZM27.2001 36.4L27.6001 36.1L28.6001 34.5H27.4001L26.4001 36.2L26.2001 36.3V34.5H25.1001V38.8H26.2001V37H26.5001L27.5001 38.8H28.8001L27.6001 36.8L27.2001 36.4ZM32.4001 35C32.2001 34.8 32.0001 34.6 31.8001 34.5C31.6001 34.4 31.3001 34.3 30.9001 34.3C30.3001 34.3 29.8001 34.5 29.4001 34.9C29.1001 35.3 28.9001 35.9 28.9001 36.6C28.9001 36.9 29.0001 37.2 29.0001 37.5C29.1001 37.8 29.2001 38 29.4001 38.2C29.6001 38.4 29.8001 38.6 30.0001 38.7C30.2001 38.8 30.5001 38.9 30.9001 38.9C31.5001 38.9 32.0001 38.7 32.4001 38.3C32.7001 37.9 32.9001 37.3 32.9001 36.6C32.9001 36.3 32.8001 36 32.8001 35.7C32.7001 35.4 32.5001 35.2 32.4001 35ZM31.6001 37.7C31.5001 37.9 31.2001 38 31.0001 38C30.8001 38 30.7001 38 30.6001 37.9L30.3001 37.6C30.2001 37.5 30.2001 37.3 30.1001 37.2C30.1001 37 30.0001 36.9 30.0001 36.7C30.0001 36.2 30.1001 35.9 30.2001 35.7C30.4001 35.5 30.6001 35.4 30.8001 35.4C31.1001 35.4 31.3001 35.5 31.5001 35.8C31.6001 36.1 31.7001 36.4 31.7001 36.8C31.8001 37.1 31.7001 37.5 31.6001 37.7ZM36.3001 36.1L36.1001 36.7L35.8001 36.1L34.8001 34.5H33.7001V38.8H34.7001V36.8L34.6001 36L34.9001 36.7L35.8001 38H36.2001L37.0001 36.7L37.4001 36L37.3001 36.8V38.8H38.4001V34.6H37.2001L36.3001 36.1ZM42.0001 36.1L41.8001 36.7H41.7001L41.5001 36.1L40.5001 34.5H39.4001V38.8H40.3001V36.8L40.2001 36H40.3001L40.6001 36.7L41.5001 38H41.9001L42.7001 36.7L43.0001 36H43.1001L43.0001 36.8V38.8H44.1001V34.6H42.9001L42.0001 36.1ZM48.0001 34.7C47.8001 34.6 47.7001 34.5 47.5001 34.4C47.3001 34.3 47.1001 34.3 46.9001 34.3C46.3001 34.3 45.8001 34.5 45.4001 34.9C45.0001 35.3 44.9001 35.8 44.9001 36.6C44.9001 37.3 45.1001 37.8 45.4001 38.3C45.7001 38.7 46.2001 38.9 46.9001 38.9C47.2001 38.9 47.5001 38.9 47.8001 38.8C48.1001 38.7 48.3001 38.6 48.5001 38.5L48.1001 37.8C48.0001 37.9 47.9001 37.9 47.7001 38C47.5001 37.9 47.3001 38 47.0001 38C46.6001 38 46.4001 37.9 46.2001 37.7C46.0001 37.5 45.9001 37.3 45.9001 36.9H48.5001C48.5001 36.8 48.5001 36.6 48.6001 36.5V36.1C48.6001 35.8 48.5001 35.5 48.4001 35.3C48.3001 35.1 48.2001 34.9 48.0001 34.7ZM46.0001 36.2C46.0001 35.9 46.1001 35.7 46.3001 35.5C46.5001 35.3 46.7001 35.2 46.9001 35.2C47.1001 35.2 47.3001 35.3 47.4001 35.5C47.5001 35.7 47.6001 35.9 47.5001 36.2H46.0001ZM51.6001 34.4C51.3001 34.4 51.1001 34.5 50.9001 34.6C50.7001 34.7 50.5001 34.9 50.4001 35.1L50.3001 34.6H49.5001V40.6H50.6001V38.8C50.7001 38.9 50.8001 38.9 50.9001 38.9H51.3001C51.6001 38.9 51.9001 38.8 52.1001 38.7C52.4001 38.6 52.6001 38.4 52.7001 38.2C52.9001 38 53.0001 37.7 53.1001 37.5C53.2001 37.2 53.2001 36.9 53.2001 36.5C53.2001 35.8 53.0001 35.2 52.8001 34.9C52.5001 34.6 52.1001 34.4 51.6001 34.4ZM51.8001 37.6C51.6001 37.8 51.4001 37.9 51.1001 37.9C50.9001 37.9 50.8001 37.9 50.7001 37.8C50.6001 37.7 50.5001 37.7 50.4001 37.6V36C50.5001 35.8 50.6001 35.6 50.7001 35.5C50.8001 35.4 51.0001 35.3 51.2001 35.3C51.5001 35.3 51.7001 35.4 51.8001 35.6C51.9001 35.8 52.0001 36.1 52.0001 36.5C52.0001 37 51.9001 37.4 51.8001 37.6ZM56.2001 36.3C56.1001 36.4 56.0001 36.4 55.9001 36.5C55.8001 36.5 55.6001 36.6 55.5001 36.6C55.4001 36.6 55.3001 36.6 55.2001 36.5C55.1001 36.5 55.1001 36.4 55.0001 36.3C55.0001 36.2 54.9001 36.1 54.9001 36V34.5H53.8001V36C53.8001 36.3 53.8001 36.5 53.9001 36.7C54.0001 36.9 54.1001 37 54.2001 37.1C54.3001 37.2 54.5001 37.3 54.6001 37.3C54.8001 37.4 55.0001 37.4 55.2001 37.4C55.5001 37.4 55.7001 37.4 55.9001 37.3C56.1001 37.2 56.2001 37.1 56.3001 37.1V38.8H57.4001V34.5H56.3001V36.3H56.2001ZM61.3001 34.7C61.1001 34.6 61.0001 34.5 60.8001 34.4C60.6001 34.3 60.4001 34.3 60.2001 34.3C59.6001 34.3 59.1001 34.5 58.7001 34.9C58.3001 35.3 58.2001 35.8 58.2001 36.6C58.2001 37.3 58.4001 37.8 58.7001 38.3C59.0001 38.7 59.5001 38.9 60.2001 38.9C60.5001 38.9 60.8001 38.9 61.1001 38.8C61.4001 38.7 61.6001 38.6 61.8001 38.5L61.4001 37.8C61.3001 37.9 61.2001 37.9 61.0001 38C60.8001 38.1 60.6001 38.1 60.4001 38.1C60.0001 38.1 59.8001 38 59.6001 37.8C59.4001 37.6 59.3001 37.4 59.3001 37H61.9001C61.9001 36.9 61.9001 36.7 62.0001 36.6V36.2C62.0001 35.9 61.9001 35.6 61.8001 35.4C61.5001 35.1 61.4001 34.9 61.3001 34.7ZM59.2001 36.2C59.2001 35.9 59.3001 35.7 59.5001 35.5C59.7001 35.3 59.9001 35.2 60.1001 35.2C60.4001 35.2 60.5001 35.3 60.6001 35.5C60.7001 35.7 60.8001 35.9 60.7001 36.2H59.2001ZM64.9001 37.8C64.8001 37.9 64.6001 37.9 64.4001 37.9C64.2001 37.9 64.1001 37.9 64.0001 37.8L63.7001 37.5C63.6001 37.4 63.6001 37.2 63.5001 37.1C63.5001 37 63.4001 36.8 63.4001 36.6C63.4001 36.2 63.5001 35.9 63.6001 35.6C63.8001 35.4 64.0001 35.3 64.3001 35.3C64.5001 35.3 64.6001 35.3 64.7001 35.4C64.8001 35.5 65.0001 35.5 65.1001 35.6L65.4001 34.7C65.2001 34.6 65.1001 34.5 64.9001 34.5C64.7001 34.4 64.5001 34.4 64.2001 34.4C63.6001 34.4 63.1001 34.6 62.8001 35C62.5001 35.4 62.3001 36 62.3001 36.7C62.3001 37 62.3001 37.3 62.4001 37.6C62.5001 37.9 62.6001 38.1 62.7001 38.3C62.8001 38.5 63.0001 38.7 63.3001 38.8C63.5001 38.9 63.8001 39 64.2001 39C64.5001 39 64.7001 38.9 64.9001 38.9L65.5001 38.6L65.3001 37.7C65.2001 37.7 65.1001 37.7 64.9001 37.8ZM68.3001 36.4L68.7001 36.1L69.8001 34.5H68.6001L67.6001 36.2L67.3001 36.3V34.5H66.2001V38.8H67.3001V37H67.6001L68.7001 38.8H69.9001L68.8001 36.8L68.3001 36.4ZM71.8001 36.6L71.5001 37.1H71.4001L71.5001 36.6V34.5H70.4001V38.8H71.1001L72.6001 36.9L73.0001 36.2L72.9001 36.8V38.8H74.0001V34.5H73.4001L71.8001 36.6ZM76.0001 33.8C76.1001 33.9 76.3001 33.9 76.4001 34C76.6001 34 76.7001 34.1 76.9001 34.1C77.3001 34.1 77.6001 34 77.8001 33.8C78.1001 33.6 78.2001 33.3 78.3001 33L77.4001 32.8C77.4001 33 77.3001 33.2 77.2001 33.3C77.1001 33.4 77.0001 33.4 76.8001 33.4C76.6001 33.4 76.5001 33.4 76.4001 33.3C76.3001 33.2 76.2001 33.1 76.2001 32.8L75.5001 33C75.5001 33.2 75.6001 33.4 75.7001 33.5C75.8001 33.6 75.9001 33.8 76.0001 33.8ZM76.5001 36.6L76.1001 37.1V34.5H75.0001V38.8H75.7001L77.2001 36.9L77.6001 36.2V38.8H78.7001V34.5H78.0001L76.5001 36.6ZM84.0001 34.6C83.7001 34.6 83.4001 34.7 83.2001 34.8C83.0001 34.9 82.8001 35.1 82.6001 35.3C82.6001 35 82.7001 34.8 82.8001 34.6C82.9001 34.4 83.0001 34.3 83.1001 34.2C83.2001 34.1 83.4001 34 83.5001 34C83.7001 33.9 83.9001 33.9 84.1001 33.9C84.5001 33.9 84.7001 33.8 85.0001 33.8C85.2001 33.8 85.4001 33.7 85.5001 33.6L85.4001 32.6C85.3001 32.7 85.1001 32.8 84.9001 32.8C84.7001 32.9 84.4001 32.9 84.2001 32.9C84.0001 32.9 83.8001 32.9 83.6001 33C83.4001 33.1 83.2001 33.1 83.0001 33.2C82.8001 33.3 82.7001 33.4 82.5001 33.5C82.3001 33.6 82.2001 33.8 82.1001 34.1C82.0001 34.3 81.9001 34.6 81.9001 35C81.8001 35.4 81.8001 35.8 81.8001 36.3C81.8001 37.2 82.0001 37.9 82.3001 38.3C82.6001 38.7 83.1001 38.9 83.8001 38.9C84.4001 38.9 84.9001 38.7 85.3001 38.3C85.6001 37.9 85.8001 37.3 85.8001 36.5C85.8001 35.8 85.6001 35.3 85.3001 35C84.9001 34.8 84.5001 34.6 84.0001 34.6ZM84.3001 37.6C84.1001 37.8 83.9001 37.9 83.6001 37.9C83.3001 37.9 83.1001 37.8 83.0001 37.5C82.9001 37.3 82.8001 37 82.8001 36.6C82.8001 36.2 82.9001 36 83.0001 35.7C83.2001 35.5 83.4001 35.4 83.7001 35.4C84.0001 35.4 84.2001 35.5 84.3001 35.7C84.4001 35.9 84.5001 36.2 84.5001 36.6C84.5001 37.1 84.4001 37.4 84.3001 37.6ZM89.6001 37.5V36.1C89.6001 35.9 89.6001 35.7 89.5001 35.5C89.4001 35.3 89.4001 35.2 89.2001 35C89.1001 34.9 88.9001 34.8 88.7001 34.7C88.5001 34.6 88.2001 34.6 88.0001 34.6C87.7001 34.6 87.3001 34.6 87.0001 34.7C86.7001 34.8 86.4001 34.8 86.2001 34.9L86.4001 35.8C86.6001 35.7 86.8001 35.7 87.0001 35.6C87.2001 35.5 87.5001 35.5 87.7001 35.5C88.0001 35.5 88.2001 35.6 88.3001 35.7C88.4001 35.9 88.4001 36.1 88.4001 36.4H87.4001C87.1001 36.5 86.8001 36.5 86.6001 36.6C86.4001 36.7 86.2001 36.9 86.1001 37C86.0001 37.2 85.9001 37.4 85.9001 37.7C85.9001 37.9 86.0001 38.1 86.0001 38.2C86.1001 38.4 86.2001 38.5 86.3001 38.6C86.4001 38.7 86.6001 38.8 86.7001 38.9C86.8001 39 87.0001 39 87.2001 39C87.5001 39 87.8001 38.9 88.0001 38.8C88.2001 38.7 88.4001 38.5 88.5001 38.3H88.6001L88.8001 38.9H89.7001C89.6001 38.7 89.6001 38.5 89.6001 38.3V37.5ZM88.6001 37.5L88.3001 37.8C88.2001 37.9 88.0001 38 87.8001 38C87.6001 38 87.5001 37.9 87.4001 37.9C87.3001 37.8 87.3001 37.7 87.3001 37.5C87.3001 37.4 87.3001 37.3 87.4001 37.2C87.5001 37.1 87.6001 37.1 87.7001 37C87.8001 36.9 88.0001 36.9 88.1001 36.9H88.6001V37.5ZM93.1001 36.1H91.7001V34.5H90.6001V38.8H91.7001V37.1H93.1001V38.8H94.2001V34.5H93.1001V36.1ZM97.3001 36.4L97.7001 36.1L98.7001 34.5H97.5001L96.5001 36.2L96.3001 36.3V34.5H95.2001V38.8H96.3001V37H96.6001L97.6001 38.8H98.9001L97.7001 36.8L97.3001 36.4Z" fill="#0062A4"/>
</svg>
