<svg x="0" y="0" width="250px" height="31px" overflow="inherit" viewBox="0, 0, 250, 31" preserveAspectRatio="xMidYMid" font-size="0" xml:space="default" xmlns="http://www.w3.org/2000/svg" xmlns:xlink="http://www.w3.org/1999/xlink" xmlns:xml="http://www.w3.org/XML/1998/namespace" version="1.1"><title xml:space="default">VostochniiBank</title><desc xml:space="default">Created with Sketch.</desc><defs xml:space="default" /><g fill-rule="evenOdd" id="Page-1" xml:space="default" style="fill:none;"><g transform="translate(0, -34)" id="Artboard" xml:space="default"><g transform="translate(0, 34)" id="VostochniiBank" xml:space="default"><path d="M50.32596 10.59414 C49.65476 9.337829 50.05361 7.735363 51.21489 7.00948 L62.18419 0.1743842 C62.55953 -0.05837613 63.02473 -0.05837613 63.39939 0.1758762 L74.36523 7.00948 C75.52859 7.735363 75.92674 9.337829 75.25485 10.59414 C74.58435 11.84746 73.09818 12.27717 71.93552 11.55278 L62.79041 5.853884 L53.64529 11.55278 C52.48401 12.27717 50.99715 11.84746 50.32596 10.59414" id="Fill-1" xml:space="default" style="fill:#EE3224;" /><g transform="translate(0, 8.333334)" id="Group-5" xml:space="default" style="fill:#215499;"><path d="M205.3694 15.73804 L206.8264 10.69108 L208.2884 15.73804 L205.3694 15.73804 z M209.3912 5.965154 C209.3257 5.783472 209.1567 5.657243 208.9602 5.657243 L204.6975 5.657243 C204.4989 5.657243 204.3313 5.783472 204.2644 5.965154 L198.4933 21.68393 C198.4743 21.73501 198.463 21.79411 198.463 21.85102 C198.463 22.11296 198.6708 22.32748 198.9243 22.32748 L203.1194 22.32748 C203.3285 22.32748 203.5039 22.18374 203.5609 21.99038 L204.2666 19.5395 L209.3891 19.5395 L210.0968 21.99038 C210.156 22.18374 210.3313 22.32748 210.5384 22.32748 L214.7334 22.32748 C214.9863 22.32748 215.1912 22.11296 215.1912 21.85102 C215.1912 21.79411 215.1813 21.73501 215.1644 21.68393 L209.3912 5.965154 z M244.8208 13.99127 L249.6954 6.401482 C249.7468 6.32268 249.7736 6.230745 249.7736 6.131513 C249.7736 5.86957 249.5715 5.657243 249.3173 5.657243 L245.0799 5.657243 C244.913 5.657243 244.7651 5.749178 244.6849 5.887082 L240.5341 12.95225 L240.5341 6.131513 C240.5341 5.86957 240.3292 5.657243 240.0757 5.657243 L236.0961 5.657243 C235.8419 5.657243 235.6356 5.86957 235.6356 6.131513 L235.6356 21.85321 C235.6356 22.11515 235.8419 22.32748 236.0961 22.32748 L240.0757 22.32748 C240.3292 22.32748 240.5341 22.11515 240.5341 21.85321 L240.5341 15.03539 L244.6849 22.09837 C244.7651 22.23555 244.913 22.32748 245.0799 22.32748 L249.3173 22.32748 C249.5715 22.32748 249.7736 22.11296 249.7736 21.85102 C249.7736 21.75252 249.7468 21.66058 249.6954 21.58616 L244.8208 13.99127 z M190.4116 18.54207 L188.5567 18.54207 L188.5567 15.71834 L190.4116 15.71834 C191.8546 15.71834 192.4919 16.23274 192.5151 17.14553 C192.4898 18.03205 191.8546 18.54207 190.4116 18.54207 z M192.0398 11.93585 L188.5567 11.93585 L188.5567 9.460161 L195.8996 9.460161 C196.1525 9.460161 196.3574 9.246375 196.3574 8.981513 L196.3574 6.131513 C196.3574 5.86957 196.1525 5.657243 195.8996 5.657243 L184.1158 5.657243 C183.863 5.657243 183.6602 5.86957 183.6602 6.131513 L183.6602 21.85102 C183.6602 22.11296 183.863 22.32748 184.1158 22.32748 L192.0398 22.32748 C197.1264 22.32748 197.494 18.47349 197.5004 17.11707 C197.494 15.78766 197.1264 11.93585 192.0398 11.93585 z M231.4109 5.657243 L227.4327 5.657243 C227.1799 5.657243 226.9729 5.86957 226.9729 6.131513 L226.9729 11.93585 L222.232 11.93585 L222.232 6.131513 C222.232 5.86957 222.0271 5.657243 221.7743 5.657243 L217.7961 5.657243 C217.5405 5.657243 217.3356 5.86957 217.3356 6.131513 L217.3356 21.85102 C217.3356 22.11296 217.5405 22.32748 217.7961 22.32748 L221.7743 22.32748 C222.0271 22.32748 222.232 22.11296 222.232 21.85102 L222.232 15.73804 L226.9729 15.73804 L226.9729 21.85102 C226.9729 22.11296 227.1799 22.32748 227.4327 22.32748 L231.4109 22.32748 C231.6665 22.32748 231.8715 22.11296 231.8715 21.85102 L231.8715 6.131513 C231.8715 5.86957 231.6665 5.657243 231.4109 5.657243 z M110.1081 5.657243 L106.1292 5.657243 C105.875 5.657243 105.6701 5.86957 105.6701 6.131513 L105.6701 12.97341 C101.8574 13.5688 101.1863 12.17445 101.1863 10.9625 L101.1863 6.131513 C101.1863 5.86957 100.9792 5.657243 100.7271 5.657243 L96.74542 5.657243 C96.53204 5.657243 96.35246 5.810469 96.29964 6.018418 C96.29543 6.650292 96.28275 8.020568 96.28767 9.327366 C96.29543 11.09165 96.32922 13.06097 96.43909 13.75048 C96.79401 15.97882 98.74824 16.84565 100.7398 17.09227 C102.5482 17.32064 104.5039 17.05797 105.6701 16.75371 L105.6701 21.85102 C105.6701 22.11296 105.875 22.32748 106.1292 22.32748 L110.1081 22.32748 C110.3616 22.32748 110.5687 22.11296 110.5687 21.85102 L110.5687 6.131513 C110.5687 5.86957 110.3616 5.657243 110.1081 5.657243 z M139.4158 18.54207 L137.5341 18.54207 L137.5341 15.5279 L139.4158 15.5279 C139.7687 15.5279 140.2609 15.56074 140.6539 15.75993 C141.0215 15.94599 141.3215 16.28309 141.3215 16.96968 C141.3215 18.29181 140.1278 18.54207 139.4158 18.54207 z M139.8384 11.74323 L137.5341 11.74323 L137.5341 6.131513 C137.5341 5.86957 137.3271 5.657243 137.0736 5.657243 L133.0933 5.657243 C132.8398 5.657243 132.6356 5.86957 132.6356 6.131513 L132.6356 21.85102 C132.6356 22.11296 132.8398 22.32748 133.0933 22.32748 L139.8384 22.32748 C144.006 22.32748 146.218 20.45885 146.218 16.96968 C146.218 13.48781 143.9961 11.74323 139.8384 11.74323 z M152.7982 5.657243 L148.818 5.657243 C148.5644 5.657243 148.3623 5.86957 148.3623 6.131513 L148.3623 21.85102 C148.3623 22.11296 148.5644 22.32748 148.818 22.32748 L152.7982 22.32748 C153.0511 22.32748 153.2588 22.11296 153.2588 21.85102 L153.2588 6.131513 C153.2588 5.86957 153.0511 5.657243 152.7982 5.657243 z M85.84753 18.49319 C84.19402 18.49319 82.52289 17.06162 82.52289 13.98981 C82.52289 11.47399 83.73768 9.490807 85.84753 9.490807 C87.9581 9.490807 89.17289 11.47399 89.17289 13.98981 C89.17289 17.06162 87.50176 18.49319 85.84753 18.49319 z M85.84753 5.368303 C81.14542 5.368303 77.64331 8.716651 77.64331 13.98981 C77.64331 17.46001 79.65176 22.61934 85.84753 22.61934 C92.04331 22.61934 94.05247 17.46001 94.05247 13.98981 C94.05247 8.716651 90.54754 5.368303 85.84753 5.368303 z M170.9454 5.657243 L166.7841 5.657243 C166.6109 5.657243 166.4673 5.746989 166.3806 5.906052 L161.9215 14.52099 L161.9215 6.131513 C161.9215 5.86957 161.7144 5.657243 161.463 5.657243 L157.4813 5.657243 C157.2299 5.657243 157.0229 5.86957 157.0229 6.131513 L157.0229 21.85102 C157.0229 22.11296 157.2299 22.32748 157.4813 22.32748 L161.6489 22.32748 C161.818 22.32748 161.9806 22.22095 162.0525 22.07794 L166.5046 13.45279 L166.5046 21.85102 C166.5046 22.11296 166.7116 22.32748 166.9659 22.32748 L170.9454 22.32748 C171.1989 22.32748 171.4039 22.11296 171.4039 21.85102 L171.4039 6.131513 C171.4039 5.86957 171.1989 5.657243 170.9454 5.657243 z M128.4102 5.657243 L124.4327 5.657243 C124.1771 5.657243 123.9722 5.86957 123.9722 6.131513 L123.9722 11.93585 L119.232 11.93585 L119.232 6.131513 C119.232 5.86957 119.025 5.657243 118.7715 5.657243 L114.7919 5.657243 C114.5405 5.657243 114.3335 5.86957 114.3335 6.131513 L114.3335 21.85102 C114.3335 22.11296 114.5405 22.32748 114.7919 22.32748 L118.7715 22.32748 C119.025 22.32748 119.232 22.11296 119.232 21.85102 L119.232 15.73804 L123.9722 15.73804 L123.9722 21.85102 C123.9722 22.11296 124.1771 22.32748 124.4327 22.32748 L128.4102 22.32748 C128.6637 22.32748 128.8687 22.11296 128.8687 21.85102 L128.8687 6.131513 C128.8687 5.86957 128.6637 5.657243 128.4102 5.657243 z M23.9757 18.49319 C22.32148 18.49319 20.65106 17.06162 20.65106 13.98981 C20.65106 11.47399 21.86303 9.490807 23.9757 9.490807 C26.08768 9.490807 27.30106 11.47399 27.30106 13.98981 C27.30106 17.06162 25.62993 18.49319 23.9757 18.49319 z M23.9757 5.368303 C19.27359 5.368303 15.77148 8.716651 15.77148 13.98981 C15.77148 17.46001 17.77782 22.61934 23.9757 22.61934 C30.17148 22.61934 32.18204 17.46001 32.18204 13.98981 C32.18204 8.716651 28.67782 5.368303 23.9757 5.368303 z M42.31303 9.58785 C43.53416 9.58785 44.70035 10.21826 45.49472 11.20037 C45.6743 11.38643 45.96584 11.38643 46.14542 11.20037 L48.37007 8.318264 C48.54894 8.132204 48.54894 7.83232 48.35669 7.622181 C46.76655 6.171644 44.61584 5.368303 42.31303 5.368303 C37.61373 5.368303 34.11092 8.716651 34.11092 13.98981 C34.11092 17.46001 36.12007 22.61934 42.31303 22.61934 C44.95176 22.61934 46.93768 21.67809 48.34401 20.31876 C48.52359 20.13051 48.52359 19.83063 48.32922 19.60079 L46.17711 16.81281 C45.99754 16.62675 45.70599 16.62675 45.52641 16.81281 C44.64753 17.87007 43.33979 18.3976 42.31303 18.3976 C40.65528 18.3976 38.98838 16.99012 38.98838 13.98981 C38.98838 11.53309 40.20106 9.58785 42.31303 9.58785 z M164.2137 4.389846 C166.6489 4.389846 168.2229 3.326021 169.1694 1.940422 C169.3151 1.725906 169.2637 1.42894 169.0574 1.280092 L166.6849 0.04334101 C166.4968 -0.04640553 166.2729 0.01050691 166.0933 0.2483717 C165.6137 0.9532105 164.9123 1.296874 164.2137 1.296874 C163.5158 1.296874 162.8123 0.9532105 162.3313 0.2483717 C162.1539 0.01050691 161.9292 -0.04640553 161.7419 0.04334101 L159.3722 1.280092 C159.163 1.42894 159.1116 1.725906 159.2574 1.940422 C160.2018 3.326021 161.7778 4.389846 164.2137 4.389846 z M6.753169 18.54207 L4.898943 18.54207 L4.898943 15.79495 L6.753169 15.79495 C8.141197 15.79495 8.857394 16.3597 8.857394 17.11707 C8.857394 18.00943 8.223592 18.54207 6.753169 18.54207 z M4.898943 9.443379 L6.571479 9.443379 C6.920071 9.443379 7.372183 9.478402 7.733451 9.666652 C8.069366 9.841766 8.337676 10.14822 8.337676 10.77353 C8.337676 11.54914 7.868662 12.00882 6.571479 12.00882 L4.898943 12.00882 L4.898943 9.443379 z M12.17148 14.0438 C11.74965 13.72859 11.31796 13.52283 10.93345 13.36742 C11.79542 12.88366 12.95739 11.87237 12.95739 10.03439 C12.95739 9.384278 12.93838 5.657243 7.951056 5.657243 L0.4580986 5.657243 C0.2052817 5.657243 -0.0003521127 5.86957 -0.0003521127 6.131513 L-0.0003521127 21.85102 C-0.0003521127 22.11296 0.2052817 22.32748 0.4580986 22.32748 L8.382042 22.32748 C13.50247 22.32748 13.84049 18.3728 13.84049 17.55632 C13.84049 15.75336 13.02923 14.68078 12.17148 14.0438 z M73.53063 5.657243 L52.61162 5.657243 C51.92923 5.657243 51.37571 6.230745 51.37571 6.939232 L51.37571 19.44319 C51.37571 21.03674 52.62218 22.32748 54.15951 22.32748 C55.69754 22.32748 56.94402 21.03674 56.94402 19.44319 L56.94402 10.7852 L60.28556 10.7852 L60.28556 19.44319 C60.28556 21.03674 61.53416 22.32748 63.07218 22.32748 C64.6095 22.32748 65.85599 21.03674 65.85599 19.44319 L65.85599 10.7852 L69.19753 10.7852 L69.19753 19.44319 C69.19753 21.03674 70.44613 22.32748 71.98204 22.32748 C73.52148 22.32748 74.76796 21.03674 74.76796 19.44319 L74.76796 6.939232 C74.76796 6.230745 74.21444 5.657243 73.53063 5.657243 z" id="Fill-3" xml:space="default" /></g></g></g></g></svg>