<?xml version="1.0" encoding="UTF-8"?><svg xmlns="http://www.w3.org/2000/svg" xmlns:xlink="http://www.w3.org/1999/xlink" contentScriptType="text/ecmascript" width="375pt" zoomAndPan="magnify" contentStyleType="text/css" viewBox="0 0 375 374.999991" height="374.999991pt" preserveAspectRatio="xMidYMid meet" version="1.2"><defs><clipPath xml:id="clip1" id="clip1"><path d="M 48.8125 50.625 L 326.3125 50.625 L 326.3125 324.375 L 48.8125 324.375 Z M 48.8125 50.625 "/></clipPath></defs><g xml:id="surface1" id="surface1"><g clip-rule="nonzero" clip-path="url(#clip1)"><path style=" stroke:none;fill-rule:evenodd;fill:rgb(18.429565%,53.329468%,94.119263%);fill-opacity:1;" d="M 637.925781 67.628906 C 615.8125 67.628906 596.96875 71.203125 581.039062 76.609375 L 584.246094 110.136719 C 598.519531 104.851562 613.617188 102.125 628.839844 102.074219 C 680.703125 102.074219 694.265625 134.121094 697.542969 154.480469 L 610.785156 154.480469 L 610.785156 188.921875 L 697.542969 188.921875 C 696.945312 221.21875 675.734375 247.601562 633.261719 247.601562 C 622.542969 247.601562 604.25 246.308594 583.097656 237.332031 L 599.09375 278.425781 C 610.179688 280.824219 620.960938 282.046875 631.75 282.046875 C 701.96875 282.046875 741.777344 238.316406 741.777344 171.519531 C 741.777344 106.566406 699.847656 67.628906 637.925781 67.628906 Z M 797.710938 183.824219 L 823.636719 183.824219 C 847.035156 183.824219 860.535156 194.027344 860.535156 215.25 C 860.535156 236.53125 847.023438 246.683594 823.636719 246.683594 L 797.710938 246.683594 Z M 755.832031 70.027344 L 755.832031 279.648438 L 831.328125 279.648438 C 890.339844 279.648438 904.820312 240.714844 904.820312 218.574219 C 904.820312 191.570312 892.09375 150.847656 831.328125 150.847656 L 797.703125 150.847656 L 797.703125 107.117188 L 887.976562 107.117188 L 887.976562 70.027344 Z M 447.621094 197.910156 L 476.21875 112.226562 L 476.820312 112.226562 L 507.179688 197.902344 L 447.621094 197.902344 Z M 454.410156 70.027344 L 372.125 279.648438 L 416.964844 279.648438 L 434.347656 232.664062 L 519.601562 232.664062 L 536.992188 279.648438 L 584.1875 279.648438 L 502.210938 70.027344 Z M 207.414062 198.683594 L 196.992188 209.101562 L 203.925781 225.835938 L 224.160156 205.617188 Z M 193.128906 210.699219 L 178.359375 210.699219 L 171.433594 227.425781 L 200.003906 227.425781 Z M 209.074219 180.054688 L 209.074219 194.765625 L 225.75 201.6875 L 225.75 173.132812 Z M 174.4375 209.101562 L 164.015625 198.683594 L 147.339844 205.617188 L 167.570312 225.835938 Z M 203.925781 148.984375 L 196.992188 165.71875 L 207.414062 176.136719 L 224.160156 169.207031 Z M 178.359375 164.0625 L 193.128906 164.0625 L 200.003906 147.394531 L 171.433594 147.394531 Z M 162.414062 194.757812 L 162.414062 180.054688 L 145.738281 173.132812 L 145.738281 201.6875 L 162.414062 194.765625 Z M 164.015625 176.136719 L 174.4375 165.71875 L 167.570312 148.984375 L 147.339844 169.207031 Z M 175.050781 136.425781 L 276.085938 136.425781 C 279.574219 136.425781 283.070312 137.769531 285.769531 140.464844 C 287.054688 141.734375 288.074219 143.25 288.773438 144.917969 C 289.46875 146.582031 289.828125 148.375 289.828125 150.179688 C 289.828125 151.988281 289.46875 153.777344 288.773438 155.445312 C 288.074219 157.113281 287.054688 158.625 285.769531 159.894531 L 308.945312 183.058594 C 313.265625 178.734375 316.695312 173.605469 319.03125 167.957031 C 321.367188 162.3125 322.566406 156.261719 322.558594 150.148438 C 322.566406 144.050781 321.367188 138.007812 319.03125 132.371094 C 316.695312 126.734375 313.265625 121.613281 308.945312 117.304688 C 304.636719 112.984375 299.511719 109.558594 293.875 107.222656 C 288.234375 104.890625 282.191406 103.691406 276.085938 103.699219 L 207.789062 103.699219 L 175.050781 136.417969 Z M 214.222656 143.773438 L 285.648438 215.230469 C 287.570312 217.148438 288.878906 219.589844 289.410156 222.25 C 289.941406 224.90625 289.671875 227.664062 288.636719 230.171875 C 287.597656 232.675781 285.839844 234.820312 283.585938 236.324219 C 281.332031 237.835938 278.679688 238.640625 275.964844 238.640625 L 275.964844 271.425781 C 282.070312 271.433594 288.113281 270.234375 293.753906 267.898438 C 299.390625 265.5625 304.515625 262.140625 308.824219 257.824219 C 313.15625 253.507812 316.589844 248.378906 318.925781 242.730469 C 321.265625 237.082031 322.457031 231.027344 322.4375 224.917969 C 322.4375 212.578125 317.542969 200.746094 308.824219 192.011719 L 260.574219 143.773438 L 214.214844 143.773438 Z M 236.726562 176.679688 L 236.726562 277.675781 C 236.726562 281.171875 235.375 284.734375 232.675781 287.421875 C 230.101562 289.980469 226.621094 291.414062 222.988281 291.414062 C 219.359375 291.414062 215.878906 289.980469 213.304688 287.421875 L 190.074219 310.589844 C 198.808594 319.308594 210.648438 324.203125 222.996094 324.195312 C 229.109375 324.203125 235.164062 323.007812 240.8125 320.671875 C 246.464844 318.335938 251.597656 314.910156 255.921875 310.589844 C 260.242188 306.269531 263.671875 301.140625 266.007812 295.492188 C 268.34375 289.847656 269.542969 283.796875 269.535156 277.6875 L 269.464844 209.476562 L 236.726562 176.6875 Z M 229.367188 215.84375 L 157.9375 287.300781 C 155.339844 289.855469 151.839844 291.289062 148.199219 291.289062 C 146.394531 291.292969 144.605469 290.9375 142.941406 290.25 C 141.273438 289.5625 139.757812 288.550781 138.484375 287.277344 C 137.207031 286 136.195312 284.488281 135.507812 282.820312 C 134.816406 281.15625 134.460938 279.371094 134.464844 277.566406 L 101.648438 277.566406 C 101.640625 283.683594 102.847656 289.738281 105.195312 295.386719 C 107.539062 301.035156 110.984375 306.160156 115.320312 310.472656 C 124.046875 319.191406 135.878906 324.085938 148.214844 324.085938 C 160.550781 324.085938 172.382812 319.191406 181.109375 310.472656 L 229.359375 262.175781 L 229.359375 215.84375 Z M 196.4375 238.335938 L 95.414062 238.335938 C 91.769531 238.332031 88.277344 236.886719 85.703125 234.3125 C 83.128906 231.738281 81.683594 228.25 81.679688 224.609375 C 81.679688 221.125 83.03125 217.621094 85.730469 214.925781 L 62.542969 191.773438 C 58.203125 196.070312 54.757812 201.1875 52.410156 206.824219 C 50.066406 212.464844 48.863281 218.511719 48.871094 224.617188 C 48.859375 230.734375 50.0625 236.792969 52.410156 242.441406 C 54.757812 248.089844 58.203125 253.214844 62.542969 257.523438 C 66.855469 261.84375 71.976562 265.269531 77.617188 267.605469 C 83.253906 269.9375 89.300781 271.136719 95.402344 271.128906 L 163.707031 271.128906 L 196.449219 238.34375 Z M 157.078125 230.554688 L 85.660156 159.15625 C 84.382812 157.882812 83.367188 156.367188 82.675781 154.703125 C 81.984375 153.035156 81.625 151.25 81.625 149.445312 C 81.625 147.640625 81.984375 145.855469 82.675781 144.1875 C 83.367188 142.519531 84.382812 141.007812 85.660156 139.734375 C 86.921875 138.445312 88.429688 137.425781 90.09375 136.730469 C 91.753906 136.035156 93.542969 135.679688 95.34375 135.6875 L 95.34375 102.960938 C 89.242188 102.953125 83.195312 104.152344 77.558594 106.488281 C 71.917969 108.824219 66.796875 112.246094 62.484375 116.5625 C 58.144531 120.863281 54.703125 125.980469 52.355469 131.617188 C 50.007812 137.257812 48.804688 143.304688 48.8125 149.410156 C 48.8125 162.285156 54.019531 173.867188 62.484375 182.316406 L 110.726562 230.554688 Z M 134.773438 198.074219 L 134.773438 97.074219 C 134.792969 93.441406 136.246094 89.960938 138.816406 87.390625 C 141.386719 84.820312 144.867188 83.367188 148.503906 83.34375 C 151.992188 83.34375 155.488281 84.703125 158.1875 87.390625 L 181.421875 64.230469 C 172.683594 55.511719 160.84375 50.617188 148.496094 50.625 C 136.152344 50.621094 124.3125 55.511719 115.578125 64.230469 C 111.25 68.546875 107.820312 73.675781 105.484375 79.324219 C 103.148438 84.972656 101.949219 91.023438 101.964844 97.136719 L 101.964844 165.34375 L 134.773438 198.082031 Z M 142.121094 158.917969 L 213.550781 87.519531 C 214.832031 86.242188 216.351562 85.230469 218.023438 84.546875 C 219.699219 83.863281 221.492188 83.515625 223.300781 83.53125 C 227.09375 83.53125 230.472656 85.0625 232.980469 87.519531 C 234.273438 88.792969 235.296875 90.308594 235.992188 91.980469 C 236.6875 93.65625 237.039062 95.449219 237.03125 97.261719 L 269.832031 97.261719 C 269.832031 84.390625 264.558594 72.75 256.160156 64.355469 C 251.847656 60.039062 246.726562 56.617188 241.085938 54.28125 C 235.449219 51.945312 229.402344 50.746094 223.300781 50.75 C 217.1875 50.742188 211.128906 51.9375 205.476562 54.269531 C 199.828125 56.605469 194.695312 60.035156 190.375 64.355469 L 142.132812 112.585938 L 142.132812 158.917969 Z M 193.9375 207.144531 L 205.457031 195.566406 L 205.457031 179.1875 L 193.929688 167.667969 L 177.558594 167.667969 L 165.972656 179.1875 L 165.972656 195.554688 L 177.558594 207.136719 L 193.929688 207.136719 Z M 167.691406 230.980469 L 142.121094 205.488281 L 142.121094 169.332031 L 167.691406 143.773438 L 203.800781 143.773438 L 229.367188 169.332031 L 229.367188 205.488281 L 203.800781 230.980469 Z M 167.691406 230.980469 "/></g></g></svg>