<svg width="160" height="25" viewBox="0 0 160 25" fill="none" xmlns="http://www.w3.org/2000/svg">
<path d="M0 24.7H6.5V6.4H17.9V0H0V24.7ZM21.9 24.7H39V18.7H28.4V15.3H33.7V9.3L28.4 9.4V6H39V0H21.9V24.7ZM55.5 9.1H50.1V0H43.6V24.7H50.1V15.5L55.5 15.4L55.6 24.7H62V0H55.5V9.1ZM67.9 24.7H74.4V15H79.3V19.2H76V24.7H85.7V9.5H74.4V5.5H85.7V0H67.9V24.7ZM100.8 0V6.4L102.2 6.5L102.8 13L98.6 12.9L99.2 0H94.3L91 24.7H97.4L98 19.4H103.5L104.1 24.7H110.4L107.2 0H100.8ZM127.5 9.1H122V0H115.6V24.7H122V15.4L127.5 15.5V24.7H134V0H127.5V9.1ZM153.9 11.9L159.7 0H152.7L148.8 9.1H146.6V0H140.1V24.7H146.6V15.5L148.8 15.4L153 24.7H160L153.9 11.9Z" fill="#001B52"/>
</svg>
