<svg width="40" height="40" viewBox="0 0 40 40" fill="none" xmlns="http://www.w3.org/2000/svg">
<path fill-rule="evenodd" clip-rule="evenodd" d="M30 9.85186C30 15.2929 25.5228 19.7037 20 19.7037C14.4772 19.7037 10 15.2929 10 9.85186C10 4.41083 14.4772 0 20 0C25.5228 0 30 4.41083 30 9.85186ZM30 25.3334C30 26.888 25.5228 28.1482 20 28.1482C14.4772 28.1482 10 26.888 10 25.3334C10 23.7788 14.4772 22.5186 20 22.5186C25.5228 22.5186 30 23.7788 30 25.3334ZM20 33.7778C25.5228 33.7778 30 33.1477 30 32.3704C30 31.5931 25.5228 30.963 20 30.963C14.4772 30.963 10 31.5931 10 32.3704C10 33.1477 14.4772 33.7778 20 33.7778ZM30 37.2963C30 37.6849 25.5228 38 20 38C14.4772 38 10 37.6849 10 37.2963C10 36.9077 14.4772 36.5926 20 36.5926C25.5228 36.5926 30 36.9077 30 37.2963Z" fill="#FF960F"/>
</svg>
