<?xml version="1.0" encoding="UTF-8"?><svg xmlns="http://www.w3.org/2000/svg" xmlns:xlink="http://www.w3.org/1999/xlink" contentScriptType="text/ecmascript" width="375pt" zoomAndPan="magnify" contentStyleType="text/css" viewBox="0 0 375 374.999991" height="374.999991pt" preserveAspectRatio="xMidYMid meet" version="1.2"><defs><clipPath xml:id="clip1" id="clip1"><path d="M 209 35.554688 L 335 35.554688 L 335 195 L 209 195 Z M 209 35.554688 "/></clipPath><clipPath xml:id="clip2" id="clip2"><path d="M 30.707031 35.554688 L 103 35.554688 L 103 195 L 30.707031 195 Z M 30.707031 35.554688 "/></clipPath><clipPath xml:id="clip3" id="clip3"><path d="M 119 35.554688 L 192 35.554688 L 192 195 L 119 195 Z M 119 35.554688 "/></clipPath><clipPath xml:id="clip4" id="clip4"><path d="M 30.707031 212 L 335 212 L 335 231 L 30.707031 231 Z M 30.707031 212 "/></clipPath><clipPath xml:id="clip5" id="clip5"><path d="M 30.707031 247 L 156 247 L 156 335.820312 L 30.707031 335.820312 Z M 30.707031 247 "/></clipPath><clipPath xml:id="clip6" id="clip6"><path d="M 173 247 L 335 247 L 335 335.820312 L 173 335.820312 Z M 173 247 "/></clipPath></defs><g xml:id="surface1" id="surface1"><g clip-rule="nonzero" clip-path="url(#clip1)"><path style=" stroke:none;fill-rule:nonzero;fill:rgb(11.759949%,13.729858%,12.939453%);fill-opacity:1;" d="M 307.710938 35.554688 L 280.9375 62.257812 L 280.9375 35.554688 L 254.164062 35.554688 L 209.539062 79.71875 L 209.539062 194.417969 L 227.390625 194.417969 L 227.390625 88.28125 L 263.085938 53.359375 L 263.085938 194.757812 L 280.9375 194.757812 L 280.9375 88.621094 L 316.632812 53.359375 L 316.632812 194.757812 L 334.484375 194.757812 L 334.484375 35.554688 Z M 307.710938 35.554688 "/></g><g clip-rule="nonzero" clip-path="url(#clip2)"><path style=" stroke:none;fill-rule:nonzero;fill:rgb(11.759949%,13.729858%,12.939453%);fill-opacity:1;" d="M 30.707031 194.757812 L 102.101562 194.757812 L 102.101562 35.554688 L 75.328125 35.554688 L 30.707031 79.71875 Z M 84.253906 53.359375 L 84.253906 176.957031 L 48.554688 176.957031 L 48.554688 88.621094 L 84.253906 53.359375 "/></g><g clip-rule="nonzero" clip-path="url(#clip3)"><path style=" stroke:none;fill-rule:nonzero;fill:rgb(11.759949%,13.729858%,12.939453%);fill-opacity:1;" d="M 191.691406 35.554688 L 119.953125 35.554688 L 119.953125 194.417969 L 191.347656 194.417969 L 191.347656 35.554688 Z M 137.800781 53.359375 L 173.5 53.359375 L 173.5 176.957031 L 137.800781 176.957031 Z M 137.800781 53.359375 "/></g><g clip-rule="nonzero" clip-path="url(#clip4)"><path style=" stroke:none;fill-rule:nonzero;fill:rgb(11.759949%,13.729858%,12.939453%);fill-opacity:1;" d="M 30.707031 230.023438 L 334.484375 230.023438 L 334.484375 212.222656 L 30.707031 212.222656 Z M 30.707031 230.023438 "/></g><g clip-rule="nonzero" clip-path="url(#clip5)"><path style=" stroke:none;fill-rule:nonzero;fill:rgb(11.759949%,13.729858%,12.939453%);fill-opacity:1;" d="M 30.707031 247.828125 L 30.707031 336.160156 L 48.554688 336.160156 L 48.554688 318.359375 L 155.648438 318.359375 L 155.648438 247.828125 Z M 138.144531 300.554688 L 48.898438 300.554688 L 48.898438 265.289062 L 138.144531 265.289062 Z M 138.144531 300.554688 "/></g><g clip-rule="nonzero" clip-path="url(#clip6)"><path style=" stroke:none;fill-rule:nonzero;fill:rgb(11.759949%,13.729858%,12.939453%);fill-opacity:1;" d="M 173.84375 247.828125 L 173.84375 318.359375 L 245.238281 318.359375 L 245.238281 336.160156 L 263.085938 336.160156 L 263.085938 318.359375 L 334.484375 318.359375 L 334.484375 247.828125 Z M 191.691406 265.289062 L 245.238281 265.289062 L 245.238281 300.554688 L 191.691406 300.554688 Z M 316.632812 300.554688 L 263.085938 300.554688 L 263.085938 265.289062 L 316.632812 265.289062 L 316.632812 300.554688 "/></g></g></svg>