<?xml version="1.0" encoding="UTF-8"?><svg xmlns="http://www.w3.org/2000/svg" xmlns:xlink="http://www.w3.org/1999/xlink" width="375pt" zoomAndPan="magnify" viewBox="0 0 375 374.999991" height="374.999991pt" preserveAspectRatio="xMidYMid meet" version="1.2"><defs><clipPath xml:id="clip1" id="clip1"><path d="M 54.417969 101.199219 L 187.167969 101.199219 L 187.167969 272 L 54.417969 272 Z M 54.417969 101.199219 "/></clipPath><clipPath xml:id="clip2" id="clip2"><path d="M 187.5 101.199219 L 330 101.199219 L 330 272 L 187.5 272 Z M 187.5 101.199219 "/></clipPath></defs><g xml:id="surface1" id="surface1"><g clip-rule="nonzero" clip-path="url(#clip1)"><path style=" stroke:none;fill-rule:nonzero;fill:rgb(0%,10.5896%,32.159424%);fill-opacity:1;" d="M 54.417969 271.570312 L 99.269531 271.570312 L 99.269531 145.390625 L 177.929688 145.390625 L 177.929688 101.261719 L 54.417969 101.261719 Z M 205.53125 271.570312 L 323.519531 271.570312 L 323.519531 230.199219 L 250.378906 230.199219 L 250.378906 206.757812 L 286.949219 206.757812 L 286.949219 165.386719 L 250.378906 166.074219 L 250.378906 142.632812 L 323.519531 142.632812 L 323.519531 101.261719 L 205.53125 101.261719 Z M 437.371094 164.007812 L 400.109375 164.007812 L 400.109375 101.261719 L 355.261719 101.261719 L 355.261719 271.570312 L 400.109375 271.570312 L 400.109375 208.136719 L 437.371094 207.445312 L 438.058594 271.570312 L 482.21875 271.570312 L 482.21875 101.261719 L 437.371094 101.261719 Z M 522.929688 271.570312 L 567.78125 271.570312 L 567.78125 204.6875 L 601.589844 204.6875 L 601.589844 233.648438 L 578.820312 233.648438 L 578.820312 271.570312 L 645.75 271.570312 L 645.75 166.765625 L 567.78125 166.765625 L 567.78125 139.183594 L 645.75 139.183594 L 645.75 101.261719 L 522.929688 101.261719 Z M 749.941406 101.261719 L 749.941406 145.390625 L 759.601562 146.078125 L 763.738281 190.898438 L 734.757812 190.207031 L 738.898438 101.261719 L 705.089844 101.261719 L 682.320312 271.570312 L 726.480469 271.570312 L 730.621094 235.027344 L 768.570312 235.027344 L 772.710938 271.570312 L 816.179688 271.570312 L 794.101562 101.261719 Z M 934.167969 164.007812 L 896.21875 164.007812 L 896.21875 101.261719 L 852.058594 101.261719 L 852.058594 271.570312 L 896.21875 271.570312 L 896.21875 207.445312 L 934.167969 208.136719 L 934.167969 271.570312 L 979.019531 271.570312 L 979.019531 101.261719 L 934.167969 101.261719 Z M 1116.328125 183.3125 L 1156.351562 101.261719 L 1108.050781 101.261719 L 1081.140625 164.007812 L 1065.960938 164.007812 L 1065.960938 101.261719 L 1021.109375 101.261719 L 1021.109375 271.570312 L 1065.960938 271.570312 L 1065.960938 208.136719 L 1081.140625 207.445312 L 1110.121094 271.570312 L 1158.417969 271.570312 Z M 1116.328125 183.3125 "/></g><g clip-rule="nonzero" clip-path="url(#clip2)"><path style=" stroke:none;fill-rule:nonzero;fill:rgb(0%,10.5896%,32.159424%);fill-opacity:1;" d="M -269.355469 271.570312 L -224.503906 271.570312 L -224.503906 145.390625 L -145.84375 145.390625 L -145.84375 101.261719 L -269.355469 101.261719 Z M -118.246094 271.570312 L -0.253906 271.570312 L -0.253906 230.199219 L -73.394531 230.199219 L -73.394531 206.757812 L -36.824219 206.757812 L -36.824219 165.386719 L -73.394531 166.074219 L -73.394531 142.632812 L -0.253906 142.632812 L -0.253906 101.261719 L -118.246094 101.261719 Z M 113.59375 164.007812 L 76.335938 164.007812 L 76.335938 101.261719 L 31.484375 101.261719 L 31.484375 271.570312 L 76.335938 271.570312 L 76.335938 208.136719 L 113.59375 207.445312 L 114.285156 271.570312 L 158.445312 271.570312 L 158.445312 101.261719 L 113.59375 101.261719 Z M 199.15625 271.570312 L 244.003906 271.570312 L 244.003906 204.6875 L 277.816406 204.6875 L 277.816406 233.648438 L 255.046875 233.648438 L 255.046875 271.570312 L 321.976562 271.570312 L 321.976562 166.765625 L 244.003906 166.765625 L 244.003906 139.183594 L 321.976562 139.183594 L 321.976562 101.261719 L 199.15625 101.261719 Z M 426.164062 101.261719 L 426.164062 145.390625 L 435.824219 146.078125 L 439.964844 190.898438 L 410.984375 190.207031 L 415.125 101.261719 L 381.316406 101.261719 L 358.546875 271.570312 L 402.707031 271.570312 L 406.84375 235.027344 L 444.796875 235.027344 L 448.933594 271.570312 L 492.40625 271.570312 L 470.324219 101.261719 Z M 610.394531 164.007812 L 572.445312 164.007812 L 572.445312 101.261719 L 528.285156 101.261719 L 528.285156 271.570312 L 572.445312 271.570312 L 572.445312 207.445312 L 610.394531 208.136719 L 610.394531 271.570312 L 655.246094 271.570312 L 655.246094 101.261719 L 610.394531 101.261719 Z M 792.554688 183.3125 L 832.574219 101.261719 L 784.273438 101.261719 L 757.363281 164.007812 L 742.183594 164.007812 L 742.183594 101.261719 L 697.335938 101.261719 L 697.335938 271.570312 L 742.183594 271.570312 L 742.183594 208.136719 L 757.363281 207.445312 L 786.34375 271.570312 L 834.644531 271.570312 Z M 792.554688 183.3125 "/></g></g></svg>