<?xml version="1.0" encoding="UTF-8"?><svg xmlns="http://www.w3.org/2000/svg" xmlns:xlink="http://www.w3.org/1999/xlink" contentScriptType="text/ecmascript" width="375pt" zoomAndPan="magnify" contentStyleType="text/css" viewBox="0 0 375 374.999991" height="374.999991pt" preserveAspectRatio="xMidYMid meet" version="1.2"><g xml:id="surface1" id="surface1"><path style=" stroke:none;fill-rule:nonzero;fill:rgb(51.368713%,16.859436%,26.269531%);fill-opacity:1;" d="M 216.429688 211.679688 C 223.585938 216.457031 231.535156 219.644531 240.28125 221.238281 C 242.667969 221.238281 244.257812 222.035156 246.644531 222.035156 C 250.621094 222.832031 251.414062 226.015625 248.234375 228.40625 C 229.152344 245.136719 209.273438 260.273438 183.832031 264.253906 C 170.3125 266.644531 158.386719 262.660156 147.253906 256.289062 C 134.535156 248.324219 123.402344 238.761719 112.269531 227.609375 C 96.367188 212.476562 79.671875 198.933594 60.589844 187.78125 C 54.226562 183.796875 46.277344 180.609375 38.324219 179.015625 C 31.167969 177.421875 31.167969 175.832031 34.351562 170.253906 C 46.277344 149.542969 59 129.625 77.285156 112.898438 C 101.140625 90.59375 128.96875 82.625 160.773438 92.1875 C 183.035156 98.558594 205.296875 106.523438 227.5625 112.898438 C 256.183594 121.660156 285.605469 124.050781 315.023438 117.675781 C 324.5625 115.289062 326.15625 116.878906 324.5625 126.441406 C 321.382812 139.984375 314.226562 150.339844 304.6875 159.898438 C 283.21875 183 255.390625 199.730469 224.378906 207.695312 C 222.789062 210.085938 220.40625 210.882812 216.429688 211.679688 Z M 295.144531 139.984375 C 294.351562 139.1875 293.554688 139.1875 293.554688 139.1875 C 292.761719 139.1875 291.167969 139.1875 290.375 139.1875 C 268.113281 143.964844 247.4375 139.1875 226.765625 132.015625 C 207.683594 125.644531 190.191406 115.289062 171.109375 109.710938 C 159.183594 105.726562 147.253906 103.339844 135.328125 103.339844 C 118.632812 104.136719 103.523438 110.507812 90.800781 121.660156 C 80.464844 129.625 71.71875 139.1875 65.359375 150.339844 C 68.539062 148.746094 71.71875 147.949219 74.902344 145.558594 C 91.597656 136 109.089844 129.625 128.171875 126.441406 C 150.4375 124.050781 172.699219 128.828125 191.78125 140.777344 C 202.117188 147.152344 211.660156 154.320312 222.789062 159.101562 C 237.101562 165.472656 251.414062 167.863281 266.519531 160.695312 C 276.859375 155.914062 286.398438 148.746094 295.144531 139.984375 Z M 74.902344 159.898438 C 75.695312 160.695312 78.082031 161.492188 79.671875 161.492188 C 89.210938 160.695312 97.957031 161.492188 106.703125 164.675781 C 124.992188 170.253906 138.507812 183 150.4375 197.339844 C 158.386719 206.101562 165.542969 214.863281 174.289062 222.832031 C 188.601562 236.375 204.503906 239.558594 222.789062 231.59375 C 224.378906 230.796875 226.765625 230.796875 226.765625 228.40625 C 226.765625 226.015625 224.378906 226.8125 222.789062 226.015625 C 214.042969 223.628906 205.296875 219.644531 198.140625 214.066406 C 183.832031 202.914062 173.492188 187.78125 162.363281 173.441406 C 146.460938 153.523438 127.378906 141.574219 100.34375 148.746094 C 90.800781 151.933594 82.851562 155.117188 74.902344 159.898438 Z M 74.902344 159.898438 "/></g></svg>