<svg width="40" height="40" viewBox="0 0 40 40" fill="none" xmlns="http://www.w3.org/2000/svg">
<path fill-rule="evenodd" clip-rule="evenodd" d="M4.79999 24.3333C4.79999 30.8916 10.3293 36.2083 17.15 36.2083C23.9707 36.2083 29.5 30.8916 29.5 24.3333C29.5 17.7749 23.9707 12.4583 17.15 12.4583C16.4896 12.4583 15.8353 12.5082 15.1915 12.6069C9.23784 13.5196 4.79999 18.4764 4.79999 24.3333ZM27.9634 23.9839C27.9634 29.7262 23.1221 34.3814 17.15 34.3814C11.1779 34.3814 6.33659 29.7262 6.33659 23.9839C6.33659 18.856 10.2229 14.5152 15.433 13.7166C15.9969 13.6301 16.5704 13.5863 17.15 13.5863C23.1221 13.5863 27.9634 18.2415 27.9634 23.9839Z" fill="#005187"/>
<path fill-rule="evenodd" clip-rule="evenodd" d="M20.7248 26.3581C20.644 23.4276 19.3288 11.3918 19.357 9.81154C19.3719 8.97599 19.7497 8.39642 20.5032 7.9451C23.4678 6.16922 26.4118 4.36103 29.3567 2.55456C29.8937 2.22509 30.3861 1.82754 30.9255 1.50212C31.1563 1.36289 31.4548 1.32787 31.7224 1.24546C31.6929 1.48179 31.6633 1.718 31.6315 1.97209C32.2002 1.6975 32.7927 1.4115 33.3853 1.12536C33.4279 1.18876 33.4705 1.25228 33.5131 1.31568C33.2458 2.15022 32.3989 2.53629 31.7493 3.23025C32.2222 3.10883 32.5842 3.01605 33.0795 2.88893C32.9128 3.62229 32.4071 3.92691 31.9198 4.22008C31.4171 4.52244 30.8833 4.77652 30.2229 5.12599C30.6278 5.10753 30.8849 5.09576 31.2358 5.0798C30.9556 5.77669 30.2318 5.90878 29.74 6.35358C29.97 6.35567 30.1403 6.35713 30.3106 6.35871C30.3398 6.41221 30.3692 6.46581 30.3984 6.51931C29.759 6.90092 29.1198 7.28252 28.4447 7.68541C28.5985 7.69705 28.7351 7.70729 29.0473 7.73061C28.4637 8.05993 28.0107 8.31536 27.6873 8.49786C27.5889 8.78266 27.5774 8.99325 27.4624 9.11308C27.2069 9.37967 26.9148 9.62056 26.6105 9.83662C25.9276 10.3216 25.6615 10.9552 25.8279 11.7365C26.0968 12.9978 26.3887 14.2543 26.6688 15.5136C26.8033 16.1185 26.9276 16.7256 27.0662 17.3296C27.2121 17.9654 27.3857 18.5953 27.5155 19.2339C27.5852 19.5771 27.5817 19.9341 27.6241 20.2833C27.6535 20.5251 28.8384 23.7826 28.8789 24.0231C28.9031 24.1674 28.9494 24.313 28.9432 24.4568C28.9026 25.3912 20.7497 27.2617 20.7248 26.3581Z" fill="#00ADEE"/>
<path fill-rule="evenodd" clip-rule="evenodd" d="M4.26902 20.1241L1.40343 24.2156L5.11443 21.0194L6.64954 25.7583V21.0194L9.20248 22.4214L6.64954 19.6862L10.5 18.7218H6.92847L9.76084 14.8815L5.95171 18.0349L4.56849 12.4583V18.0349L1.82917 16.3494L4.26902 19.1083L1 20.1241H4.26902Z" fill="#00ADEE"/>
<path fill-rule="evenodd" clip-rule="evenodd" d="M20.5641 31.8137C18.9325 30.3231 17.3336 28.8615 15.7332 27.4014C15.498 27.1869 15.1942 27.0174 15.0282 26.7621C14.5179 25.9773 13.7439 25.5852 12.8932 25.278C12.7406 25.223 12.5989 25.14 12.4 25.045C13.0139 24.6441 13.556 24.5655 14.2068 24.8656C14.5891 25.0418 15.085 25.1217 15.5023 25.0625C16.3855 24.9372 17.0594 25.1641 17.6242 25.8297C18.4732 26.8304 20.1751 27.3263 21.4124 26.8816C21.7635 26.7555 22.1677 26.4134 22.2794 26.0847C22.5621 25.252 22.7731 24.379 22.8698 23.5071C23.1837 20.6793 23.4004 17.8412 23.7216 15.0141C23.8943 13.4927 24.2118 11.9869 24.449 10.4718C24.5745 9.67061 25.0099 9.16456 25.7842 8.83252C28.8311 7.52599 31.8627 6.18562 34.895 4.84702C35.4479 4.60287 35.9676 4.28725 36.5223 4.04732C36.7596 3.94466 37.0472 3.95132 37.3119 3.90826C37.2524 4.13144 37.193 4.3545 37.1289 4.59443C37.7046 4.40733 38.3044 4.21245 38.9042 4.01747C38.9362 4.08416 38.9681 4.15097 39 4.21767C38.6354 4.98374 37.7812 5.24043 37.073 5.81973C37.5374 5.7669 37.8929 5.72662 38.3794 5.67135C38.1236 6.35375 37.6037 6.57825 37.1027 6.79421C36.5859 7.01694 36.0461 7.18907 35.3735 7.43577C35.7598 7.47272 36.005 7.49614 36.3398 7.52821C35.9813 8.16022 35.2776 8.18941 34.7522 8.55053C34.9699 8.5836 35.1312 8.60801 35.2924 8.63254C35.3129 8.68792 35.3337 8.7434 35.3542 8.79878C34.6973 9.07922 34.0405 9.35966 33.3469 9.65574C33.4912 9.68771 33.6193 9.716 33.9121 9.78059C33.315 10.0183 32.8516 10.2026 32.5207 10.3344C32.3895 10.5948 32.3505 10.7957 32.2255 10.8954C31.9478 11.1171 31.6388 11.3092 31.3216 11.4758C30.6097 11.8496 30.273 12.4227 30.3266 13.1962C30.4135 14.4449 30.5228 15.6922 30.6205 16.9405C30.6674 17.5401 30.7044 18.1405 30.7553 18.7397C30.8089 19.3706 30.8896 19.9995 30.9275 20.631C30.9479 20.9703 30.897 21.313 30.8907 21.6543C30.8864 21.8907 30.9042 22.1275 30.9105 22.3641C30.9143 22.5062 30.9388 22.6523 30.9137 22.7897C30.7507 23.6824 30.5871 24.5752 30.4017 25.4637C30.3157 25.8756 30.1765 26.2769 30.0684 26.6849C30.0176 26.8769 29.9965 27.0767 29.9384 27.2662C29.8764 27.4685 29.8461 27.7366 29.699 27.8479C28.9816 28.3908 28.9832 29.1328 29.2233 29.8154C29.7533 31.322 30.6706 32.5825 32.169 33.3428C33.1802 33.856 34.2061 34.3449 35.2444 34.8039C36.5335 35.3738 37.4609 36.1758 37.3779 37.7382C36.862 37.8518 36.2806 37.98 35.6991 38.1083H34.4408C33.9136 37.5768 33.3963 37.0355 32.8564 36.5163C32.1209 35.8093 31.2245 35.4854 30.1881 35.4194C27.1367 35.2249 24.2579 34.5047 21.7306 32.73" fill="#005187"/>
</svg>
