<?xml version="1.0" encoding="utf-8"?>
<!-- Generator: Adobe Illustrator 24.0.1, SVG Export Plug-In . SVG Version: 6.00 Build 0)  -->
<svg version="1.1" id="Слой_1" xmlns="http://www.w3.org/2000/svg" xmlns:xlink="http://www.w3.org/1999/xlink" x="0px" y="0px"
	 width="250px" height="36px" viewBox="0 0 250 36" style="enable-background:new 0 0 250 36;" xml:space="preserve">
<style type="text/css">
	.st0{fill:#832B43;}
</style>
<g id="Слой_2_1_">
	<g id="Слой_1-2">
		<g id="Слой_2-2">
			<g id="Слой_1-2-2">
				<g id="_06zt33">
					<path class="st0" d="M23,21c0.9,0.6,1.9,1,3,1.2c0.3,0,0.5,0.1,0.8,0.1c0.5,0.1,0.6,0.5,0.2,0.8c-2.4,2.1-4.9,4-8.1,4.5
						c-1.7,0.3-3.2-0.2-4.6-1c-1.6-1-3-2.2-4.4-3.6c-2-1.9-4.1-3.6-6.5-5c-0.8-0.5-1.8-0.9-2.8-1.1c-0.9-0.2-0.9-0.4-0.5-1.1
						c1.5-2.6,3.1-5.1,5.4-7.2c3-2.8,6.5-3.8,10.5-2.6c2.8,0.8,5.6,1.8,8.4,2.6c3.6,1.1,7.3,1.4,11,0.6c1.2-0.3,1.4-0.1,1.2,1.1
						c-0.4,1.7-1.3,3-2.5,4.2c-2.7,2.9-6.2,5-10.1,6C23.8,20.8,23.5,20.9,23,21z M32.9,12c-0.1-0.1-0.2-0.1-0.2-0.1
						c-0.1,0-0.3,0-0.4,0c-2.8,0.6-5.4,0-8-0.9c-2.4-0.8-4.6-2.1-7-2.8c-1.5-0.5-3-0.8-4.5-0.8c-2.1,0.1-4,0.9-5.6,2.3
						c-1.3,1-2.4,2.2-3.2,3.6c0.4-0.2,0.8-0.3,1.2-0.6c2.1-1.2,4.3-2,6.7-2.4c2.8-0.3,5.6,0.3,8,1.8c1.3,0.8,2.5,1.7,3.9,2.3
						c1.8,0.8,3.6,1.1,5.5,0.2C30.6,14,31.8,13.1,32.9,12L32.9,12z M5.2,14.5c0.1,0.1,0.4,0.2,0.6,0.2c1.2-0.1,2.3,0,3.4,0.4
						c2.3,0.7,4,2.3,5.5,4.1c1,1.1,1.9,2.2,3,3.2c1.8,1.7,3.8,2.1,6.1,1.1c0.2-0.1,0.5-0.1,0.5-0.4c0-0.3-0.3-0.2-0.5-0.3
						c-1.1-0.3-2.2-0.8-3.1-1.5c-1.8-1.4-3.1-3.3-4.5-5.1c-2-2.5-4.4-4-7.8-3.1C7.2,13.5,6.2,13.9,5.2,14.5L5.2,14.5z"/>
				</g>
			</g>
		</g>
		<path class="st0" d="M71.6,7.5h-0.9c-0.1-4.5-1.8-5.6-6-5.6h-0.8c-1,0.1-1.4,0.5-1.4,2v8.8h2.3c5.1,0,8.8,2.1,8.8,7.5
			c0,4.3-3,7.6-8.6,7.6H54.7v-1c2.3-0.3,2.8-0.9,2.8-3.1V4.8c0-2.4-0.6-3.1-2.8-3.3v-1h16.8L71.6,7.5z M62.5,23.8
			c0,1.9,0.6,2.7,2,2.7c2.4,0,3.8-2.2,3.8-6.3S66.6,14,63.3,14h-0.8L62.5,23.8z"/>
		<path class="st0" d="M90.8,26c-1.2,1.6-2.2,2.3-3.5,2.3c-1.5,0-2.2-0.7-2.5-2.8c-1.7,2-3.2,2.8-5,2.8c-2,0-3.4-1.3-3.4-4.2
			c0-1.7,0.7-3.4,2.1-4.5c1.2-1,2.7-1.7,6.3-3.1v-2.7c0-2.6-0.7-3.7-2.5-3.7c-1.1,0-2,0.5-2,1.5c0,0.3,0.1,0.7,0.3,0.9
			c0.4,0.5,0.6,1.1,0.6,1.7c0,1.4-0.9,2.4-2.1,2.4s-2-1-2-2.7c0-3.2,2.4-5.1,6-5.1c3.8,0,6.1,1.9,6.1,5.4v10.5
			c0,0.7,0.2,1.1,0.7,1.1c0.1,0,0.3,0,0.3-0.2l0.3-0.4L90.8,26z M84.7,17.9c-2.5,0.9-3.8,2.5-3.8,4.9c0,1.8,0.7,2.7,1.6,2.7
			c0.8,0,1.5-0.4,2.2-1.6L84.7,17.9z"/>
		<path class="st0" d="M102.2,18.7h-4.3v5.7c0,1.5,0.3,2.2,1.5,2.4v1h-7.5v-1c1.4-0.4,1.7-0.8,1.7-2.5V12.6c0-1.7-0.3-2.2-1.7-2.5
			v-1h7.5v1c-1.4,0.3-1.5,0.7-1.5,2.5v4.8h4.3v-4.8c0-1.7-0.1-2.2-1.5-2.5v-1h7.5v1c-1.4,0.3-1.7,0.7-1.7,2.5v11.6
			c0,1.7,0.3,2.2,1.7,2.5v1h-7.5v-1c1.2-0.2,1.5-0.9,1.5-2.4V18.7z"/>
		<path class="st0" d="M116.7,10.1c-1.3,0.2-1.5,0.8-1.5,2.5v4.7c2.8,0,3.2-3.7,4.2-6c0.6-1.4,1.4-2.3,3.3-2.3
			c1.6,0,2.8,1.2,2.8,3.3c0,1.2-0.5,2.5-1.8,2.5c-2.2,0-1.4-3.1-2.6-3.1c-0.9,0-1.3,2.1-1.7,3.1s-0.8,2.1-1.5,2.9v0.1
			c1.6,0.2,3.1,1.2,3.8,2.7l3.2,5.8c0.3,0.5,0.4,0.6,0.8,0.6v1h-5.1l-4-7.9c-0.4-0.9-0.7-1.2-1.4-1.2v5.7c0,1.9,0.2,2.1,1.6,2.4v1
			h-7.5v-1c1-0.1,1.5-0.8,1.5-2.4V12.5c0-1.5-0.4-2.2-1.5-2.3V9.2h7.3L116.7,10.1z"/>
		<path class="st0" d="M155.4,27.7h-10.1v-1l1-0.1c1-0.1,1.4-0.4,1.4-1.3s-0.4-2.3-1.4-5.5h-7l-0.4,1.4c-0.4,1.2-1,2.9-1,3.9
			c0,1,0.7,1.5,2.5,1.6v1h-6.3v-1c1.4-0.3,1.9-1,3.1-4.8L144.2,0h0.9l6.9,21c1.6,4.9,2.2,5.7,3.4,5.7V27.7z M145.9,18.3l-3.2-9.8
			l-2.9,9.8H145.9z"/>
		<path class="st0" d="M163.1,24.3c0,1.7,0.6,2.3,1.7,2.5v1h-7.7v-1c1.4-0.4,1.7-0.7,1.7-2.6V12.6c0-1.7-0.3-2.2-1.7-2.5v-1h12.8
			l0.1,7h-0.8c-0.6-3.3-0.9-5.7-5.4-5.7c-0.4,0-0.8,0.3-0.8,1.1L163.1,24.3z"/>
		<path class="st0" d="M177.2,12c1.1-2.4,2.3-3.3,4.1-3.3c3.5,0,5.7,3.1,5.7,9c0,6.2-2.3,10.5-6,10.5c-1.4,0-2.2-0.5-3.7-2.4v5.1
			c0,2.7,0.5,4,2.4,4.1v1h-8.5v-1c1.5-0.3,1.8-0.8,1.8-2.5V12.8c0-1.8-0.3-2.3-1.7-2.6v-1h6V12z M177.2,23.4
			c0.5,1.5,1.4,2.6,2.4,2.6c1.7,0,2.7-2.2,2.7-7.7c0-4.9-0.8-7.3-2.4-7.3c-0.7,0-1.5,0.5-2.1,1.5c-0.3,0.4-0.5,0.8-0.6,1.3
			L177.2,23.4z"/>
		<path class="st0" d="M202.8,18.5c0,5.7-3,9.8-7.1,9.8c-3.9,0-7-4-7-9.7c0-5.9,3-9.8,7.2-9.8C199.8,8.7,202.8,12.8,202.8,18.5z
			 M193.3,19c0,5.8,0.7,8.1,2.5,8.1c1.8,0,2.4-2.1,2.4-8.1c0-6.9-0.6-9-2.4-9S193.3,12.1,193.3,19L193.3,19z"/>
		<path class="st0" d="M210.2,12c1.1-2.4,2.3-3.3,4.1-3.3c3.5,0,5.7,3.1,5.7,9c0,6.2-2.3,10.5-6,10.5c-1.4,0-2.2-0.5-3.7-2.4v5.1
			c0,2.7,0.5,4,2.4,4.1v1h-8.5v-1c1.5-0.3,1.8-0.8,1.8-2.5V12.8c0-1.8-0.3-2.3-1.7-2.6v-1h6V12z M210.3,23.4
			c0.5,1.5,1.4,2.6,2.4,2.6c1.7,0,2.7-2.2,2.7-7.7c0-4.9-0.8-7.3-2.4-7.3c-0.7,0-1.5,0.5-2.1,1.5c-0.3,0.4-0.5,0.8-0.6,1.3
			L210.3,23.4z"/>
		<path class="st0" d="M235.8,18.5c0,5.7-3,9.8-7.1,9.8c-3.9,0-7-4-7-9.7c0-5.9,3-9.8,7.2-9.8C232.8,8.7,235.8,12.8,235.8,18.5z
			 M226.3,19c0,5.8,0.7,8.1,2.5,8.1c1.8,0,2.4-2.1,2.4-8.1c0-6.9-0.6-9-2.4-9C226.9,10,226.3,12.1,226.3,19L226.3,19z"/>
		<path class="st0" d="M250,24.1c-1.7,3-3.5,4.2-6,4.2c-3.9,0-6.7-3.7-6.7-9.5c0-6,3.3-10.1,7.4-10.1c2.7,0,4.8,1.8,4.8,4.4
			c0,1.6-0.8,2.6-2,2.6c-1.1,0-1.8-1-1.8-2.9s0-2.8-1.3-2.8c-1.5,0-2.6,2.4-2.6,6.8c0,5.5,1.6,8.8,4.3,8.8c1.3,0,2.2-0.6,3.3-2.3
			L250,24.1z"/>
	</g>
</g>
</svg>
