<svg x="0" y="0" width="250px" height="100px" overflow="inherit" viewBox="0, 0, 250, 100" preserveAspectRatio="xMidYMid" font-size="0" xml="http://www.w3.org/XML/1998/namespace" xmlns="http://www.w3.org/2000/svg" xmlns:xlink="http://www.w3.org/1999/xlink" xmlns:xml="http://www.w3.org/XML/1998/namespace" version="1.1"><title xml:space="default">Artboard</title><desc xml:space="default">Created with Sketch.</desc><g id="Artboard" xml:space="default" fill-rule="evenodd" style="fill:none;"><g transform="translate(15, 0)" id="СоюзAsset-1" xml:space="default"><path d="M82.65741 64.25926 C84.93386 64.31235 87.17123 64.86221 89.21296 65.87037 L90.13889 71.5463 L93.15741 71.5463 L93.15741 63.21296 C89.91611 61.99292 86.48183 61.36566 83.01852 61.36111 C76.43519 61.36111 72.17593 63.57407 69.63889 65.83334 C66.50926 68.61111 63.75926 73.24074 63.75926 79.86111 C63.62201 84.79483 65.4007 89.59 68.72222 93.24074 C72.92593 97.76852 78.10185 98.85185 82.47222 98.85185 C86.11207 98.83213 89.72321 98.20628 93.15741 97 L93.15741 88.48148 L90.15741 88.48148 L88.81481 95.25 C87.03551 95.73235 85.20419 95.99663 83.36111 96.03704 C77.75 96.03704 74.56481 93.44444 72.84259 91.28704 C70.89815 88.88889 69.44444 85.02778 69.44444 79.96296 C69.44444 75.7037 70.52778 71.16666 73.14815 68.25926 C75.59634 65.62213 79.0603 64.16505 82.65741 64.25926 z" id="Path" xml:space="default" style="fill:#002D74;" /><path d="M127.5926 65.4537 C131.213 68.7963 133.5278 73.91666 133.5278 80.12037 C133.6686 85.11069 131.9492 89.97516 128.7037 93.76852 C125.478 97.25735 120.9075 99.19012 116.1574 99.07407 C111.4897 99.16579 106.9945 97.31066 103.75 93.9537 C101.6481 91.74074 98.68519 87.31481 98.68519 80.06481 C98.68519 72.65741 101.8056 67.92593 104.7222 65.34259 C107.9136 62.5521 112.0299 61.05017 116.2685 61.12963 C120.4632 61.03598 124.5279 62.58808 127.5926 65.4537 z M108.5 67.23148 C105.8056 70.00926 104.3426 74.73148 104.3426 80.06481 C104.3426 82.17593 104.5556 87.47222 107.3704 91.55556 C109.2856 94.43096 112.4887 96.18484 115.943 96.24949 C119.3972 96.31414 122.6637 94.68136 124.6852 91.87963 C127.6481 87.88889 127.8611 82.38889 127.8611 80.23148 C127.8611 74.67593 126.3519 70.0463 123.8148 67.33334 C121.7877 65.18797 118.9512 63.99488 116 64.0463 C113.1657 64.01819 110.4479 65.17242 108.5 67.23148 L108.5 67.23148 z" id="Shape" xml:space="default" style="fill:#002D74;" /><path d="M182.0463 65.39815 C178.9975 62.58508 174.9709 61.07344 170.8241 61.18518 C166.6701 61.129 162.646 62.63225 159.5463 65.39815 C155.1019 69.4537 154.1296 75.31481 153.8426 78.67593 L146.2963 78.67593 L146.2963 64.61111 L150.5556 64.25926 L150.5556 62.03704 L137.4352 62.03704 L137.4352 64.25926 L141.4259 64.61111 L141.4259 95.68519 L137.4352 96.03704 L137.4352 98.25 L150.537 98.25 L150.537 96.03704 L146.2778 95.69444 L146.2778 81.15741 L153.7963 81.15741 C153.953 85.84052 155.6301 90.34532 158.5741 93.99074 C161.6434 97.3773 166.0427 99.24867 170.6111 99.11111 C175.3173 99.2518 179.8427 97.2944 182.963 93.76852 C185.8704 90.53704 187.713 85.84259 187.713 80.06481 C187.713 73.75926 185.4444 68.62963 182.0463 65.39815 z M178.9722 91.87963 C177.0394 94.6723 173.8366 96.31169 170.4409 96.24654 C167.0452 96.18137 163.9077 94.42032 162.0833 91.55556 C160.037 88.53704 159.1759 84.00926 159.1759 80.06481 C159.1759 75.91666 160.25 70.41666 163.213 67.23148 C165.1969 65.09087 168.019 63.92682 170.9352 64.0463 C173.7108 63.90615 176.3892 65.08736 178.1574 67.23148 C181.0185 70.51852 182.0463 75.80556 182.0463 80.19444 C182.0463 84.33334 181.1296 88.88889 178.9722 91.87963 L178.9722 91.87963 z" id="Shape#1" xml:space="default" style="fill:#002D74;" /><path d="M199.8611 78.02778 L199.8611 81.26852 L204.4907 80.71296 C206.4352 80.71296 209.6111 80.93519 211.6111 83.03704 C212.8967 84.48902 213.5616 86.38726 213.463 88.32407 C213.6031 90.80122 212.3822 93.15788 210.2778 94.47222 C208.1912 95.696 205.7966 96.29384 203.3796 96.19444 C201.1997 96.22587 199.0512 95.67274 197.1574 94.59259 L196.2315 87.67593 L193.213 87.67593 L193.213 97.16666 C196.5982 98.28745 200.1379 98.87167 203.7037 98.89815 C206.8889 98.89815 211.6389 98.19444 214.713 96.03704 C217.4854 94.15594 219.0782 90.96685 218.9167 87.62037 C219.0176 85.28676 218.0619 83.03185 216.3148 81.48148 C214.366 79.91582 211.9615 79.02547 209.463 78.94444 L209.463 78.83334 C211.4489 78.31852 213.2836 77.33771 214.8148 75.97222 C216.3174 74.52168 217.1379 72.50421 217.0741 70.41666 C217.1935 67.41007 215.635 64.58544 213.0278 63.08333 C210.5463 61.62963 207.3148 61.36111 204.1852 61.36111 C200.8468 61.37769 197.5318 61.91822 194.3611 62.96296 L194.3611 71.2963 L197.3796 71.2963 L198.0463 65.49074 C199.9969 64.62863 202.0993 64.16282 204.2315 64.12037 C206.2077 63.98836 208.1584 64.62534 209.6759 65.89815 C211.0883 67.31956 211.8457 69.26444 211.7667 71.26668 C211.6877 73.26892 210.7793 75.14804 209.2593 76.4537 C207.8886 77.53642 206.2238 78.18168 204.4815 78.30556 L199.8611 78.02778 z" id="Path#1" xml:space="default" style="fill:#002D74;" /><path d="M88.0463 29.49074 C85.26852 27.63889 81.7963 27.34259 78.71296 27.34259 C76.67809 27.34477 74.64463 27.44984 72.62037 27.65741 L72.62037 14.55556 L86.42593 14.55556 L87.35185 19.94444 L90.37963 19.94444 L90.37963 12.03704 L63.77778 12.03704 L63.77778 14.25 L67.76852 14.59259 L67.76852 45.7037 L63.77778 46.05556 L63.77778 48.26852 L78.01852 48.26852 C80.87037 48.26852 85.42593 47.94444 88.64815 45.35185 C90.97493 43.50807 92.27652 40.66041 92.14815 37.69444 C92.14815 33.97222 90.7963 31.33333 88.0463 29.49074 z M84.5463 43.62963 C82.33334 45.67593 78.93519 45.78704 76.55556 45.78704 C75.24084 45.79137 73.92695 45.72027 72.62037 45.57407 L72.62037 30.25 C74.40629 29.9708 76.21091 29.82841 78.01852 29.82407 C80.33334 29.82407 82.92593 30.09259 84.81481 32.02778 C86.16943 33.639 86.86411 35.70317 86.75926 37.80556 C86.8597 39.96956 86.05843 42.07835 84.5463 43.62963 z" id="Shape#2" xml:space="default" style="fill:#002D74;" /><path d="M129.4815 45.37037 L116.5185 11.60185 L112.963 11.60185 L100.3519 45.37037 L95.90741 46.01852 L95.90741 48.23148 L107.7963 48.23148 L107.7963 46.05556 L103.4907 45.72222 L107.5833 34.73148 L120.3148 34.73148 L124.463 45.73148 L120.4722 46.05556 L120.4722 48.26852 L132.7222 48.26852 L132.7222 46.05556 L129.4815 45.37037 z M108.5 32.25 L113.8889 17.30556 L119.4444 32.25 L108.5 32.25 z" id="Shape#3" xml:space="default" style="fill:#002D74;" /><polygon points="175.8148,14.28704 175.8148,12.07407 162.7037,12.07407 162.7037,14.28704 166.963,14.62963 166.963,28.69444 148.4074,28.69444 148.4074,14.62963 152.6667,14.28704 152.6667,12.07407 139.5648,12.07407 139.5648,14.28704 143.5463,14.62963 143.5463,45.7037 139.5648,46.05556 139.5648,48.26852 152.6667,48.26852 152.6667,46.05556 148.4074,45.71296 148.4074,31.17593 166.963,31.17593 166.963,45.71296 162.7037,46.05556 162.7037,48.26852 175.8148,48.26852 175.8148,46.05556 171.8148,45.7037 171.8148,14.62963" id="Path#2" xml:space="default" style="fill:#002D74;" /><polygon points="214.8519,45.78704 202.6019,28.2037 213.9352,14.71296 217.4907,14.28704 217.4907,12.07407 206.2778,12.07407 206.2778,14.28704 210.1759,14.62963 198.4352,28.96296 194.4444,28.96296 194.4444,14.62963 198.7037,14.28704 198.7037,12.07407 185.5926,12.07407 185.5926,14.28704 189.5833,14.62963 189.5833,45.7037 185.5926,46.05556 185.5926,48.26852 198.7037,48.26852 198.7037,46.05556 194.4444,45.71296 194.4444,31.17593 198.8981,31.17593 211.037,48.26852 218.8981,48.26852 218.8981,46.05556" id="Path#3" xml:space="default" style="fill:#002D74;" /><path d="M-4.487737E-16 25.85185 C-0.003744954 36.31338 6.29574 45.7467 15.96021 49.75189 C25.62469 53.75707 36.75026 51.54509 44.14768 44.14768 C51.54509 36.75026 53.75707 25.62469 49.75189 15.96021 C45.7467 6.29574 36.31338 -0.003744954 25.85185 0 C11.57639 0.005110244 0.005110244 11.57639 -4.487737E-16 25.85185 z" id="Path#4" xml:space="default" style="fill:#FF5100;" /><ellipse cx="25.85185" cy="65.5" rx="25.85185" ry="6.898148" id="Oval" xml:space="default" style="fill:#FF5100;" /><path d="M25.85185 79.28704 C44.48148 79.28704 51.71296 81.13889 51.71296 83.60185 C51.71296 86.06481 44.44444 87.90741 25.85185 87.90741 C7.259259 87.90741 0 86.11111 0 83.60185 C0 81.09259 7.231482 79.28704 25.85185 79.28704 z" id="Path#5" xml:space="default" style="fill:#FF5100;" /><path d="M25.85185 94.7963 C48.82407 94.7963 51.71296 95.31481 51.71296 96.52778 C51.71296 97.74074 48.82407 98.25 25.85185 98.25 C2.87963 98.25 0 97.73148 0 96.52778 C0 95.32407 2.888889 94.7963 25.85185 94.7963 z" id="Path#6" xml:space="default" style="fill:#FF5100;" /></g></g></svg>