<svg width="40" height="40" viewBox="0 0 40 40" fill="none" xmlns="http://www.w3.org/2000/svg">
<path fill-rule="evenodd" clip-rule="evenodd" d="M34.326 10.6674C36.8906 12.3868 34.9122 16.5424 31.675 15.234L20.1547 9.85155L8.38172 15.2071C5.02426 16.593 2.85559 12.17 6.09493 10.5579L19.5226 4.08287C19.8692 3.97238 20.3745 3.97238 20.7223 4.08287L34.326 10.6674Z" fill="#D41052"/>
<path fill-rule="evenodd" clip-rule="evenodd" d="M31.4924 18.0936C32.1529 18.2722 32.6899 18.929 32.784 19.5538L32.878 21.075L32.8157 34.2481C32.5948 35.1724 31.6509 35.6474 30.799 35.8581C29.4123 36.0657 27.8068 35.9769 26.956 34.813L26.7351 34.307L26.7044 23.8767L26.641 23.8158H22.7674L22.7039 23.8767L22.6722 34.4557C22.4207 35.2911 21.4441 35.7383 20.6556 35.9159C19.3968 36.0956 18.0746 36.0347 17.1286 35.2602C16.7185 34.843 16.5927 34.4557 16.561 33.8908V23.9345L16.4976 23.8757L12.6545 23.9035L12.5605 34.2471C12.3702 35.0216 11.6156 35.6165 10.7965 35.7961C9.3791 36.1834 7.77256 35.9459 6.79704 34.9029C6.32349 34.3359 6.41754 33.5614 6.41754 32.8457L6.44926 19.7025C6.54331 19.0767 6.88999 18.3899 7.58336 18.1524L8.18158 18.0936L26.7329 18.0337L31.4924 18.0936Z" fill="#154396"/>
</svg>
