<svg width="180" height="72" viewBox="0 0 180 72" fill="none" xmlns="http://www.w3.org/2000/svg">
<path d="M177.684 52.8504H131.727C130.61 52.8504 129.732 51.9462 129.732 50.8558C129.732 49.7654 130.637 48.8611 131.727 48.8611H177.684C178.774 48.8611 179.678 49.7654 179.678 50.8558C179.652 51.9462 178.774 52.8504 177.684 52.8504Z" fill="#ED6F34"/>
<path d="M47.9512 52.8504H1.99464C0.877643 52.8504 0 51.9462 0 50.8558C0 49.7654 0.904239 48.8611 1.99464 48.8611H47.9512C49.0417 48.8611 49.9459 49.7654 49.9459 50.8558C49.9459 51.9462 49.0417 52.8504 47.9512 52.8504Z" fill="#ED6F34"/>
<path d="M172.418 20.5106C173.388 20.5106 174.174 19.7247 174.174 18.7553C174.174 17.7859 173.388 17 172.418 17C171.449 17 170.663 17.7859 170.663 18.7553C170.663 19.7247 171.449 20.5106 172.418 20.5106Z" fill="#595C62"/>
<path d="M179.704 22.8243V36.6273C179.704 37.4783 179.013 38.223 178.162 38.223C177.311 38.223 176.619 37.5049 176.619 36.6273V27.1594L168.029 37.5581C167.71 37.957 167.311 38.223 166.779 38.223C166.008 38.223 165.236 37.5315 165.236 36.6273V22.8243C165.236 21.9467 165.928 21.2552 166.779 21.2552C167.63 21.2552 168.321 21.9733 168.321 22.8243V32.2922L176.965 21.8137C177.204 21.5212 177.683 21.2552 178.162 21.2552C179.013 21.2552 179.704 21.9467 179.704 22.8243Z" fill="#595C62"/>
<path d="M149.199 26.1753H145.21V22.8243C145.21 21.9467 144.519 21.2552 143.668 21.2552C142.816 21.2552 142.125 21.9733 142.125 22.8243V36.6273C142.125 37.5049 142.816 38.223 143.668 38.223H149.199C152.417 38.223 155.05 35.5103 155.05 32.2125C155.024 28.8881 152.417 26.1753 149.199 26.1753ZM149.199 35.0316H145.21V29.3402H149.199C150.715 29.3402 151.965 30.6167 151.965 32.1859C151.965 33.7816 150.715 35.0316 149.199 35.0316Z" fill="#595C62"/>
<path d="M157.843 21.2552C156.992 21.2552 156.301 21.9733 156.301 22.8243V36.6273C156.301 37.4783 156.992 38.223 157.843 38.223C158.694 38.223 159.386 37.5049 159.386 36.6273V22.8243C159.386 21.9733 158.694 21.2552 157.843 21.2552Z" fill="#595C62"/>
<path d="M134.545 28.8615C135.077 28.0902 135.396 27.1328 135.396 26.0956C135.396 23.436 133.269 21.2552 130.689 21.2552C130.689 21.2552 131.035 21.2818 123.987 21.2818C123.136 21.2818 122.444 21.9999 122.444 22.8509V36.6273C122.444 37.5049 123.136 38.223 123.987 38.223H131.434H131.46C134.253 38.1964 136.513 35.8826 136.513 33.0103C136.513 31.3082 135.742 29.8189 134.545 28.8615ZM125.529 24.4466C125.742 24.4466 130.689 24.4466 130.875 24.4466C130.742 24.4201 130.742 24.4466 130.875 24.4466C131.673 24.553 132.311 25.2445 132.311 26.1222C132.311 27.053 131.593 27.7977 130.689 27.7977H125.529V24.4466ZM131.434 35.0316H125.529V30.9625H131.434C132.524 30.9625 133.428 31.8667 133.428 33.0103C133.428 34.1273 132.524 35.0316 131.434 35.0316Z" fill="#595C62"/>
<path d="M117.312 36.6007C117.312 37.4783 116.621 38.1964 115.77 38.1964H106.807C105.956 38.1964 105.265 37.5049 105.265 36.6007V22.8509C105.265 21.9733 105.956 21.2818 106.807 21.2818C106.967 21.2818 106.967 21.2818 106.807 21.2818H115.77C116.621 21.2818 117.312 21.9999 117.312 22.8775C117.312 23.7552 116.621 24.4732 115.77 24.4732H108.35V28.17H114.44C115.291 28.17 115.983 28.888 115.983 29.7657C115.983 30.6433 115.291 31.3614 114.44 31.3614H108.35V35.0847H115.77C116.621 35.0315 117.312 35.7496 117.312 36.6007Z" fill="#595C62"/>
<path d="M99.8919 37.8507C99.2537 38.3826 98.2696 38.3028 97.7111 37.6379L92.4453 31.0423L90.0517 33.5688V36.6273C90.0517 37.5049 89.3602 38.223 88.5092 38.223C87.6581 38.223 86.9667 37.5315 86.9667 36.6273V33.5688L84.5731 31.0157L79.3072 37.6113C78.7487 38.2762 77.7913 38.3826 77.153 37.8241C76.4881 37.2656 76.3817 36.2816 76.9402 35.5901L82.4455 28.7019L77.9775 23.9148C77.3658 23.2765 77.3924 22.2925 78.0041 21.6808C78.6157 21.0691 79.5998 21.0957 80.1583 21.7074L86.9667 28.9679V22.851C86.9667 21.9733 87.6581 21.2818 88.5092 21.2818C89.3602 21.2818 90.0517 21.9999 90.0517 22.851V29.0211L96.8867 21.734C97.4718 21.1223 98.4558 21.0957 99.0675 21.7074C99.6792 22.3191 99.7058 23.3297 99.1207 23.9414L94.6261 28.7285L100.131 35.6167C100.663 36.2816 100.557 37.2922 99.8919 37.8507Z" fill="#595C62"/>
<path d="M72.4191 22.8509V36.6273C72.4191 37.5049 71.7276 38.223 70.8765 38.223C70.0255 38.223 69.334 37.5315 69.334 36.6273V31.3082H61.5948V36.6007C61.5948 37.4783 60.9033 38.1964 60.0523 38.1964C59.2012 38.1964 58.5098 37.5049 58.5098 36.6007V22.8509C58.5098 21.9733 59.2012 21.2552 60.0523 21.2552C60.9033 21.2552 61.5948 21.9733 61.5948 22.8509V28.1434H69.334V22.8509C69.334 21.9733 70.0255 21.2552 70.8765 21.2552C71.7276 21.2552 72.4191 21.9733 72.4191 22.8509Z" fill="#595C62"/>
<path d="M53.6954 35.9092L46.887 22.1329C46.3551 21.0691 44.786 20.9095 44.1477 22.1063C44.2807 21.8137 44.2009 21.9467 44.1211 22.1329L37.3127 35.9092C36.9138 36.6805 37.233 37.6379 37.9776 38.0368C38.8819 38.489 39.7063 38.0102 40.052 37.3454L41.1425 35.1379H49.8391L50.9295 37.3188C51.2752 38.0368 52.1795 38.4358 52.9773 38.0102C53.7752 37.6379 54.0943 36.6805 53.6954 35.9092ZM42.7382 31.9731L45.5307 26.3349L48.3232 31.9731H42.7382Z" fill="#595C62"/>
<path d="M29.4414 21.2552C28.75 21.2552 31.7286 21.2552 23.8033 21.2552C22.9522 21.2552 22.2607 21.9467 22.2607 22.8243V36.6273C22.2607 37.4783 22.9522 38.223 23.8033 38.223C24.6543 38.223 25.3458 37.5049 25.3458 36.6273V33.2763H29.3351C32.5531 33.2763 35.186 30.5902 35.186 27.2923C35.1594 23.9945 32.6063 21.335 29.4414 21.2552ZM29.3085 30.1114H25.3192V24.4466H29.2287C29.2553 24.4466 29.2553 24.4466 29.2819 24.4466H29.3085C30.8244 24.4732 32.0478 25.7232 32.0478 27.2923C32.0744 28.8349 30.851 30.1114 29.3085 30.1114Z" fill="#595C62"/>
<path d="M8.74984 20.7499C3.9361 20.7499 0 24.7658 0 29.7125C0 34.6859 3.9361 38.7017 8.74984 38.7017C13.5636 38.7017 17.4731 34.6859 17.4731 29.7125C17.4731 24.7924 13.5636 20.7499 8.74984 20.7499ZM8.74984 35.5369C5.63819 35.5369 3.08505 32.9306 3.08505 29.7391C3.08505 26.5477 5.6116 23.9414 8.74984 23.9414C11.8615 23.9414 14.388 26.5477 14.388 29.7391C14.388 32.9306 11.8615 35.5369 8.74984 35.5369Z" fill="#595C62"/>
<path d="M85.1055 54.4195L81.196 46.4941C80.9035 45.8824 79.9992 45.776 79.6269 46.4941C79.7067 46.3345 79.6535 46.4143 79.6003 46.4941L75.6908 54.4195C75.478 54.8716 75.6376 55.4301 76.0897 55.6429C76.595 55.9088 77.0737 55.6429 77.2865 55.244L77.8982 53.9674H82.8981L83.5098 55.2174C83.7226 55.6163 84.2279 55.8556 84.7066 55.6163C85.1587 55.4035 85.3183 54.8716 85.1055 54.4195ZM78.8024 52.1589L80.3982 48.9143L81.9939 52.1589H78.8024Z" fill="#595C62"/>
<path d="M63.1015 51.5738H62.2871V53.9142H63.1015V51.5738Z" fill="#595C62"/>
<path d="M118.43 54.3663L115.265 50.4302L115.239 50.4036L117.818 47.6643C118.164 47.292 118.137 46.7335 117.792 46.3878C117.446 46.042 116.887 46.042 116.542 46.4144L112.632 50.5898V47.0526C112.632 46.5473 112.233 46.1484 111.755 46.1484C111.276 46.1484 110.877 46.5473 110.877 47.0526V54.978C110.877 55.4833 111.276 55.8823 111.755 55.8823C112.26 55.8823 112.632 55.4833 112.632 54.978V53.2227L114.015 51.76L117.047 55.5631C117.233 55.7759 117.473 55.8823 117.739 55.8823C117.925 55.8823 118.137 55.8025 118.297 55.6695C118.669 55.3238 118.749 54.7653 118.43 54.3663Z" fill="#595C62"/>
<path d="M100.132 46.0154C99.6532 46.0154 99.2543 46.4143 99.2543 46.9196V49.9781H94.8129V46.9196C94.8129 46.4143 94.414 46.0154 93.9353 46.0154C93.4565 46.0154 93.0576 46.4143 93.0576 46.9196V54.845C93.0576 55.3503 93.4565 55.7492 93.9353 55.7492C94.414 55.7492 94.8129 55.3503 94.8129 54.845V51.7866H94.7863H94.8129H99.2543V54.845C99.2543 55.3503 99.6532 55.7492 100.132 55.7492C100.637 55.7492 101.01 55.3503 101.01 54.845V46.9196C101.036 46.4143 100.637 46.0154 100.132 46.0154Z" fill="#595C62"/>
<path d="M68.5898 52.7706C68.5632 51.1483 67.2601 49.8185 65.691 49.8185H62.2868V47.8505C62.2868 47.8505 67.0473 47.8505 67.0739 47.8505C67.5792 47.8505 67.9781 47.4515 67.9781 46.9462C67.9781 46.4409 67.5792 46.042 67.0739 46.042H61.3825C60.8772 46.042 60.5049 46.4409 60.5049 46.9462C60.5049 47.159 60.5049 47.2654 60.5049 47.2654V54.845C60.5049 55.3503 60.9038 55.7493 61.3825 55.7493H65.6644C67.2601 55.7493 68.5366 54.4195 68.5632 52.7972C68.5898 52.7972 68.5898 52.7706 68.5898 52.7706ZM65.691 53.9142H62.2868V51.627H65.691C66.3026 51.627 66.808 52.1323 66.8346 52.7706C66.808 53.4089 66.3026 53.9142 65.691 53.9142Z" fill="#595C62"/>
</svg>
