<?xml version="1.0" encoding="utf-8"?>
<!-- Generator: Adobe Illustrator 24.0.1, SVG Export Plug-In . SVG Version: 6.00 Build 0)  -->
<svg version="1.1" id="Слой_1" xmlns="http://www.w3.org/2000/svg" xmlns:xlink="http://www.w3.org/1999/xlink" x="0px" y="0px"
	 width="250px" height="49px" viewBox="0 0 250 49" style="enable-background:new 0 0 250 49;" xml:space="preserve">
<style type="text/css">
	.st0{clip-path:url(#SVGID_2_);}
	.st1{clip-path:url(#SVGID_4_);}
	.st2{fill:#1D478C;}
	.st3{fill:#FEFEFE;}
</style>
<g>
	<defs>
		<rect id="SVGID_1_" x="0" y="-24" width="250" height="99.1"/>
	</defs>
	<clipPath id="SVGID_2_">
		<use xlink:href="#SVGID_1_"  style="overflow:visible;"/>
	</clipPath>
	<g class="st0">
		<defs>
			<rect id="SVGID_3_" x="0" y="-24" width="364.1" height="99.1"/>
		</defs>
		<clipPath id="SVGID_4_">
			<use xlink:href="#SVGID_3_"  style="overflow:visible;"/>
		</clipPath>
		<g class="st1">
			<path class="st2" d="M32.4,35h-4.3V15.3H7.2c0,5-0.1,9-0.9,12.9C5.8,30.5,5.1,32.7,4,35H0.1L0,49.1h7.1l0.3-7h17.5l0.5,7h7.1V35
				L32.4,35z M12.2,35c0.7-1.4,1.2-2.9,1.6-4.4c0.7-2.6,1-5.4,1.2-8.3h4.8V35H12.2z M47.4,42.6c3.2,0,5.6-1.1,7.4-3.3l0.1,0.1v2.8
				H63V15.3h-8.6v2.8l-0.1,0.1c-1.9-2.2-4.5-3.3-7.4-3.3c-6.9,0-12.2,5.7-12.2,13.9C34.7,37,40,42.6,47.4,42.6L47.4,42.6z
				 M49.2,35.1c-3.4,0-5.7-2.5-5.7-6.3c0-3.8,2.5-6.4,5.7-6.4c3.2,0,5.6,2.7,5.6,6.4C54.8,32.6,52.2,35.1,49.2,35.1z M73.9,42.1h8.6
				V22.3h7.2v-7H66.7v7h7.3V42.1z M104.8,42.6c3.2,0,5.6-1.1,7.4-3.3l0.1,0.1v2.8h8.1V15.3h-8.6v2.8l-0.1,0.1
				c-1.9-2.2-4.5-3.3-7.4-3.3c-6.9,0-12.2,5.7-12.2,13.9C92.2,37,97.5,42.6,104.8,42.6L104.8,42.6z M106.6,35.1
				c-3.4,0-5.7-2.5-5.7-6.3c0-3.8,2.5-6.4,5.7-6.4c3.2,0,5.6,2.7,5.6,6.4C112.3,32.6,109.7,35.1,106.6,35.1z M140,42.6
				c7.8,0,13.8-5.8,13.8-14c0-7.7-5.4-12.9-11.6-12.9c-4.6,0-7.5,2.3-9.1,5l-0.1-0.1c0.3-6.1,1.6-8.9,7.8-10l11.1-2l-2.1-7.6
				l-10.6,1.9c-11.3,2-13.8,9.4-13.8,21.5C125.3,34.3,129.2,42.6,140,42.6L140,42.6z M139.7,35.1c-3.2,0-5.6-2.6-5.6-6.4
				c0-2.6,1.9-5.6,5.5-5.6c3.2,0,5.7,2.4,5.7,5.9C145.2,32.6,142.6,35.1,139.7,35.1z M169.5,42.6c3.2,0,5.6-1.1,7.4-3.3l0.1,0.1v2.8
				h8.1V15.3h-8.6v2.8l-0.1,0.1c-1.9-2.2-4.5-3.3-7.4-3.3c-6.9,0-12.2,5.7-12.2,13.9C156.9,37,162.2,42.6,169.5,42.6L169.5,42.6z
				 M171.3,35.1c-3.4,0-5.7-2.5-5.7-6.3c0-3.8,2.5-6.4,5.7-6.4c3.2,0,5.6,2.7,5.6,6.4C177,32.6,174.4,35.1,171.3,35.1z M190.9,42.1
				h8.5v-9.6h8.5v9.6h8.6V15.3h-8.6v10.3h-8.5V15.3h-8.5V42.1z M222.3,42.1h8.4v-7.5l2.6-3.1l6.7,10.6h9.7l-10-15.4l9.4-11.4h-10
				L230.9,26h-0.1V15.3h-8.4V42.1z"/>
		</g>
	</g>
</g>
</svg>
