<?xml version="1.0" encoding="UTF-8"?>
<!DOCTYPE svg PUBLIC "-//W3C//DTD SVG 1.1//EN" "http://www.w3.org/Graphics/SVG/1.1/DTD/svg11.dtd">
<!-- Creator: CorelDRAW 2017 -->
<svg xmlns="http://www.w3.org/2000/svg" xml:space="preserve" width="42.3332mm" height="42.3332mm" version="1.1" style="shape-rendering:geometricPrecision; text-rendering:geometricPrecision; image-rendering:optimizeQuality; fill-rule:evenodd; clip-rule:evenodd"
viewBox="0 0 4233.32 4233.32"
 xmlns:xlink="http://www.w3.org/1999/xlink">
 <defs>
  <style type="text/css">
   <![CDATA[
    .fil0 {fill:#205E95}
   ]]>
  </style>
 </defs>
 <g id="Слой_x0020_1">
  <metadata id="CorelCorpID_0Corel-Layer"/>
  <path class="fil0" d="M2411.35 3996.52l0 0zm0 0l185.98 -464.7c26.1,-61.7 52.03,-94.8 58.25,-169.49 -618.03,0 -677.44,10.28 -363.75,-688.55 76.98,-171.49 129.5,-337.76 206.48,-509.27 38.85,-86.53 69.85,-165.59 104.86,-253.5 54.74,-137.47 5.31,-191.12 -142.97,-191.12l-932.82 1458.81c-37.73,63.46 -99.99,147.48 -202.79,131.92 -84.2,-12.78 -156.41,-78.75 -131.11,-203.86 18.17,-89.97 481.5,-1111.87 498.42,-1212.26 49.09,-291.43 -270.48,-239.65 -452.83,-239.65 -15.17,65.02 -55.81,140.81 -79.06,197.48l-209.07 490.45c-10.74,25.39 -10.29,25.58 -20.7,44.38l-33.1 48.26c0,-135.51 0.3,-271.06 -0.02,-406.57 -0.33,-152.06 16.68,-238.18 16.33,-390.24 -0.22,-98.05 -19.68,-319.79 10.54,-396.03 16.69,-42.13 60.57,-72.02 91.5,-103.75 41.49,-42.55 54.58,-69.21 97.4,-114.11l187.06 -219.72c43.65,-44.79 51.43,-58.23 90.45,-104.79l483.66 -541.42 -293.08 715.5c136.4,0 401.99,-22.82 494.42,26.57 148.93,79.55 63.03,245.85 17.2,354.33l-459.75 1119.76c-29.46,75.9 -12.59,133.2 62.92,158.41 131.21,43.78 225.09,-205.14 354.23,-410.07l608.65 -985.74c56.99,-94.63 135.18,-263.7 290.96,-200.05 172.78,70.61 76.44,247.69 26.94,371.19 -102.99,256.83 -194.14,500.99 -297.72,759.67 -180.54,450.85 -211.46,513.4 302.39,513.4 71.28,-134.54 218.89,-568.3 297.58,-743.52l28.06 -53.3c45.27,194.13 16.83,536.13 15.9,764.69 -0.54,130.07 25.87,228.81 17.89,374.86 -4.92,89.81 -104.11,175.18 -168.33,238.42 -125.33,123.43 -691.7,782.94 -760.97,833.61zm-407.05 211.41c420.99,0 665.91,-15.41 1047.66,-205.81 571.16,-284.83 979.79,-787.36 1124.35,-1413.84 134.61,-583.39 20.73,-1168.63 -293.03,-1639.24l-230.21 -290.46c-190.78,-189.59 -339.77,-309.14 -590.37,-434.82 -695.6,-348.89 -1547.96,-265.77 -2175,185.77 -186.44,134.27 -373.74,331.1 -501.86,523.26 -172.11,258.13 -318.12,619.33 -349.36,935.74 -10.57,107.04 -21.26,236.24 -6.77,343.69 18.37,136.43 -10.73,100.66 43.86,346.51 31.51,141.95 71.99,265.64 123.65,380.62 264.61,588.89 728.65,1018.11 1357.88,1196.85 131.66,37.4 290.14,71.73 449.2,71.73z"/>
 </g>
</svg>
