<?xml version="1.0" encoding="UTF-8"?><svg xmlns="http://www.w3.org/2000/svg" xmlns:xlink="http://www.w3.org/1999/xlink" contentScriptType="text/ecmascript" width="375pt" zoomAndPan="magnify" contentStyleType="text/css" viewBox="0 0 375 374.999991" height="374.999991pt" preserveAspectRatio="xMidYMid meet" version="1.2"><defs><clipPath xml:id="clip1" id="clip1"><path d="M 60 37.5 L 340.472656 37.5 L 340.472656 276 L 60 276 Z M 60 37.5 "/></clipPath><clipPath xml:id="clip2" id="clip2"><path d="M 144 103 L 340.472656 103 L 340.472656 276 L 144 276 Z M 144 103 "/></clipPath><clipPath xml:id="clip3" id="clip3"><path d="M 95 185 L 340.472656 185 L 340.472656 341 L 95 341 Z M 95 185 "/></clipPath></defs><g xml:id="surface1" id="surface1"><g clip-rule="nonzero" clip-path="url(#clip1)"><path style=" stroke:none;fill-rule:nonzero;fill:rgb(0.779724%,67.449951%,88.62915%);fill-opacity:1;" d="M 88.417969 41.226562 C 88.417969 39.734375 87.675781 38.992188 86.929688 37.5 C 80.234375 48.679688 74.28125 59.113281 68.328125 70.292969 C 65.351562 76.253906 63.863281 82.960938 61.632812 88.925781 C 60.886719 91.90625 60.144531 94.140625 60.144531 97.121094 L 60.144531 109.792969 C 60.144531 110.539062 60.886719 111.28125 60.886719 112.027344 C 62.375 123.207031 65.351562 132.894531 71.304688 142.585938 C 88.417969 172.398438 105.53125 202.207031 123.390625 232.765625 C 124.132812 233.511719 124.878906 234.253906 125.621094 235.746094 C 130.828125 226.800781 136.039062 218.605469 140.503906 209.660156 C 155.382812 183.574219 155.382812 156.746094 140.503906 130.660156 C 122.644531 100.105469 105.53125 70.292969 88.417969 41.226562 Z M 1060.160156 255.867188 L 1060.160156 211.898438 C 1060.160156 205.1875 1055.695312 200.71875 1049 200.71875 L 1025.1875 200.71875 C 1017.75 200.71875 1011.796875 205.933594 1010.308594 213.386719 C 1008.820312 221.585938 1008.074219 229.785156 1006.585938 237.980469 C 1005.101562 245.433594 1004.355469 252.886719 1002.867188 260.339844 L 993.9375 260.339844 L 993.9375 275.246094 L 1067.601562 275.246094 L 1067.601562 260.339844 L 1060.160156 260.339844 Z M 1019.238281 259.59375 C 1019.980469 253.632812 1020.726562 248.414062 1021.46875 242.453125 C 1022.214844 235.746094 1023.703125 228.292969 1024.445312 221.585938 C 1025.1875 216.367188 1026.675781 215.621094 1031.140625 215.621094 L 1043.789062 215.621094 L 1043.789062 259.59375 Z M 1127.871094 199.972656 C 1124.894531 199.972656 1122.660156 200.71875 1121.171875 203.699219 C 1112.246094 217.113281 1104.058594 230.527344 1095.132812 243.945312 C 1094.386719 244.6875 1093.644531 246.179688 1092.898438 246.925781 L 1092.15625 246.925781 L 1092.15625 201.460938 L 1075.785156 201.460938 L 1075.785156 275.992188 L 1087.691406 275.992188 C 1089.921875 275.992188 1090.667969 275.246094 1092.15625 273.753906 C 1101.082031 260.339844 1109.269531 246.925781 1118.195312 234.253906 C 1118.941406 233.511719 1118.941406 232.765625 1119.683594 232.019531 L 1120.429688 232.019531 L 1120.429688 275.992188 L 1136.796875 275.992188 L 1136.796875 201.460938 C 1133.078125 199.972656 1130.101562 200.71875 1127.871094 199.972656 Z M 848.101562 236.492188 C 853.3125 233.511719 856.289062 229.039062 857.777344 223.074219 C 859.265625 218.605469 860.753906 214.132812 861.496094 209.660156 C 862.242188 206.679688 863.730469 203.699219 864.472656 200.71875 L 851.824219 200.71875 C 849.589844 200.71875 848.847656 201.460938 848.101562 203.699219 C 846.613281 209.660156 844.382812 215.621094 842.894531 220.839844 C 841.40625 225.3125 837.6875 229.039062 832.476562 229.785156 L 822.0625 229.785156 L 822.0625 199.972656 L 805.691406 199.972656 L 805.691406 274.5 L 822.0625 274.5 L 822.0625 244.6875 L 826.527344 244.6875 C 837.6875 244.6875 840.664062 246.925781 843.640625 258.105469 C 845.128906 263.320312 846.613281 268.539062 848.101562 273.011719 C 848.101562 273.753906 849.589844 275.246094 850.335938 275.246094 C 855.542969 275.992188 860.007812 275.246094 865.214844 275.246094 C 862.984375 267.046875 860.753906 258.847656 857.777344 250.652344 C 857.03125 244.6875 854.800781 239.472656 848.101562 236.492188 Z M 952.273438 244.6875 L 982.777344 244.6875 L 982.777344 230.527344 L 952.273438 230.527344 L 952.273438 215.621094 L 987.988281 215.621094 L 987.988281 200.71875 L 953.015625 200.71875 C 942.597656 200.71875 935.902344 207.425781 935.902344 217.859375 L 935.902344 258.105469 C 935.902344 268.539062 942.597656 275.246094 953.015625 275.246094 L 987.988281 275.246094 L 987.988281 260.339844 L 952.273438 260.339844 Z M 909.117188 200.71875 C 902.417969 199.972656 895.722656 199.972656 889.027344 199.972656 C 879.355469 199.972656 872.65625 205.933594 872.65625 215.621094 L 872.65625 273.753906 L 889.027344 273.753906 L 889.027344 246.179688 C 895.722656 246.179688 901.675781 246.925781 908.371094 246.179688 C 920.277344 244.6875 929.207031 235 929.949219 223.820312 C 929.949219 211.898438 921.765625 202.207031 909.117188 200.71875 Z M 904.652344 232.765625 L 889.027344 232.765625 L 889.027344 215.621094 C 894.980469 215.621094 900.1875 214.878906 906.140625 215.621094 C 910.605469 216.367188 912.835938 219.347656 912.835938 224.566406 C 912.835938 229.039062 909.117188 232.765625 904.652344 232.765625 Z M 1143.496094 200.71875 L 1143.496094 215.621094 L 1163.585938 215.621094 L 1163.585938 275.246094 L 1179.953125 275.246094 L 1179.953125 215.621094 L 1200.042969 215.621094 L 1200.042969 200.71875 Z M 1143.496094 200.71875 "/></g><g clip-rule="nonzero" clip-path="url(#clip2)"><path style=" stroke:none;fill-rule:nonzero;fill:rgb(99.609375%,44.709778%,3.919983%);fill-opacity:1;" d="M 318.332031 143.332031 C 302.707031 117.246094 279.640625 103.832031 249.878906 103.832031 L 144.222656 103.832031 C 144.96875 105.320312 145.710938 106.066406 145.710938 106.8125 C 150.175781 115.007812 154.640625 122.460938 159.105469 130.660156 C 173.984375 156 197.050781 169.414062 226.070312 169.414062 L 333.214844 169.414062 C 332.46875 167.925781 331.726562 167.179688 331.726562 166.433594 C 327.261719 158.234375 322.796875 150.785156 318.332031 143.332031 Z M 317.589844 199.972656 L 304.9375 199.972656 C 296.011719 199.226562 289.3125 203.699219 284.851562 211.898438 C 273.6875 232.019531 262.527344 251.398438 251.367188 271.519531 C 250.625 272.265625 249.878906 273.753906 249.136719 275.246094 L 267.738281 275.246094 L 275.921875 259.59375 C 275.921875 259.59375 300.476562 260.339844 308.660156 260.339844 L 308.660156 275.246094 L 325.773438 275.246094 L 326.519531 274.5 L 326.519531 209.660156 C 327.261719 203.699219 323.539062 199.972656 317.589844 199.972656 Z M 309.40625 245.433594 L 284.105469 245.433594 C 285.59375 243.199219 286.335938 240.960938 287.828125 237.980469 C 290.804688 233.511719 292.292969 229.039062 295.265625 223.820312 C 298.242188 217.113281 302.707031 215.621094 309.40625 217.113281 Z M 516.996094 228.292969 C 516.996094 211.898438 507.324219 200.71875 490.210938 199.226562 C 473.097656 197.734375 459.703125 208.914062 458.960938 226.058594 L 458.960938 246.925781 C 459.703125 262.574219 468.632812 272.265625 484.257812 274.5 C 500.628906 275.992188 513.277344 267.046875 516.253906 251.398438 C 516.996094 246.925781 516.253906 241.707031 516.253906 236.492188 L 516.996094 236.492188 Z M 499.882812 248.414062 C 499.140625 255.867188 494.675781 259.59375 487.234375 259.59375 C 480.539062 259.59375 475.328125 255.125 475.328125 247.671875 L 475.328125 225.3125 C 476.074219 218.605469 480.539062 214.132812 487.234375 214.132812 C 494.675781 214.132812 499.882812 218.605469 499.882812 225.3125 C 500.625 233.511719 500.625 240.960938 499.882812 248.414062 Z M 432.175781 201.460938 C 423.988281 200.71875 416.550781 200.71875 409.109375 200.71875 C 400.921875 200.71875 396.457031 205.1875 396.457031 213.386719 L 396.457031 274.5 L 412.828125 274.5 L 412.828125 247.671875 L 417.292969 247.671875 C 421.757812 247.671875 426.964844 247.671875 431.429688 246.925781 C 443.335938 245.433594 452.261719 235.746094 452.261719 224.566406 C 453.007812 211.898438 444.824219 202.207031 432.175781 201.460938 Z M 428.453125 232.765625 L 412.828125 232.765625 L 412.828125 215.621094 L 428.453125 215.621094 C 433.664062 216.367188 435.894531 219.347656 435.894531 223.820312 C 435.894531 228.292969 432.917969 232.019531 428.453125 232.765625 Z M 351.070312 199.972656 C 342.140625 199.972656 337.679688 204.445312 337.679688 213.386719 L 337.679688 274.5 L 354.046875 274.5 L 354.046875 214.878906 L 389.761719 214.878906 L 389.761719 199.972656 Z M 351.070312 199.972656 "/></g><g clip-rule="nonzero" clip-path="url(#clip3)"><path style=" stroke:none;fill-rule:nonzero;fill:rgb(0%,38.42926%,64.309692%);fill-opacity:1;" d="M 247.648438 185.8125 L 217.140625 185.8125 C 187.378906 186.558594 164.3125 199.226562 148.6875 225.3125 C 131.574219 254.378906 114.460938 284.1875 97.347656 314 C 96.605469 314.746094 95.859375 316.238281 95.117188 317.726562 L 125.621094 317.726562 C 156.128906 317.726562 178.449219 304.3125 194.074219 278.226562 C 211.1875 249.160156 228.304688 219.347656 245.417969 189.539062 C 246.902344 188.046875 246.902344 187.300781 247.648438 185.8125 Z M 782.625 199.972656 C 780.394531 199.972656 779.652344 200.71875 778.164062 202.953125 C 774.441406 211.898438 769.976562 221.585938 766.257812 230.527344 C 764.023438 235 762.539062 239.472656 760.304688 244.6875 C 759.5625 243.199219 758.816406 242.453125 758.074219 240.960938 C 752.863281 228.292969 746.910156 215.621094 740.960938 202.953125 C 740.214844 202.207031 739.472656 200.71875 738.726562 200.71875 C 734.261719 199.972656 729.796875 200.71875 725.335938 200.71875 L 725.335938 275.246094 L 741.703125 275.246094 L 741.703125 240.960938 C 744.679688 246.179688 747.65625 252.140625 750.632812 258.105469 C 752.863281 262.574219 755.097656 264.8125 760.304688 264.8125 C 764.769531 264.8125 767.746094 261.832031 769.976562 258.105469 C 772.953125 252.140625 775.1875 246.179688 778.164062 240.960938 L 778.90625 240.960938 L 778.90625 275.246094 L 795.277344 275.246094 L 795.277344 200.71875 C 790.8125 199.972656 787.089844 200.71875 782.625 199.972656 Z M 543.039062 215.621094 L 567.59375 215.621094 L 567.59375 274.5 L 583.21875 274.5 L 583.21875 211.152344 C 583.21875 203.699219 579.5 200.71875 572.800781 200.71875 L 538.574219 200.71875 C 530.390625 200.71875 526.671875 204.445312 526.671875 212.640625 L 526.671875 275.246094 L 543.039062 275.246094 Z M 682.921875 275.246094 C 700.035156 277.480469 712.683594 267.792969 714.917969 250.652344 C 715.660156 246.179688 714.917969 241.707031 714.917969 237.234375 L 715.660156 237.234375 L 715.660156 228.292969 C 715.660156 211.898438 705.246094 200.71875 688.132812 199.226562 C 672.507812 197.734375 659.855469 208.171875 658.367188 223.074219 C 657.625 232.019531 657.625 240.21875 658.367188 249.160156 C 659.113281 264.8125 668.042969 273.753906 682.921875 275.246094 Z M 673.996094 227.546875 C 673.996094 219.347656 679.203125 215.621094 686.644531 215.621094 C 694.082031 215.621094 698.546875 220.09375 699.292969 228.292969 L 699.292969 247.671875 C 699.292969 255.867188 694.828125 260.339844 686.644531 260.339844 C 679.203125 260.339844 674.738281 255.867188 674.738281 247.671875 C 673.996094 240.960938 673.996094 234.253906 673.996094 227.546875 Z M 631.582031 200.71875 C 623.398438 199.972656 615.214844 199.972656 607.027344 199.972656 C 598.84375 199.972656 595.125 203.699219 595.125 211.152344 L 595.125 273.753906 L 611.492188 273.753906 L 611.492188 246.925781 L 615.957031 246.925781 C 620.421875 246.925781 625.628906 246.925781 630.09375 246.179688 C 642 244.6875 650.929688 235 650.929688 223.820312 C 652.417969 211.898438 644.230469 202.207031 631.582031 200.71875 Z M 627.863281 232.765625 L 612.238281 232.765625 L 612.238281 215.621094 L 627.863281 215.621094 C 633.070312 216.367188 636.046875 219.347656 636.046875 223.820312 C 635.304688 228.292969 632.328125 232.019531 627.863281 232.765625 Z M 259.554688 308.785156 L 262.53125 306.546875 L 269.96875 294.625 L 261.042969 294.625 L 253.601562 307.292969 L 252.113281 308.039062 L 252.113281 294.625 L 243.929688 294.625 L 243.929688 326.671875 L 252.113281 326.671875 L 252.113281 313.253906 L 254.34375 313.253906 L 261.785156 326.671875 L 271.457031 326.671875 L 262.53125 311.765625 Z M 298.246094 298.351562 C 296.757812 296.859375 295.269531 295.367188 293.78125 294.625 C 292.292969 293.878906 290.058594 293.132812 287.082031 293.132812 C 282.617188 293.132812 278.898438 294.625 275.921875 297.605469 C 273.691406 300.585938 272.203125 305.058594 272.203125 310.273438 C 272.203125 312.511719 272.945312 314.746094 272.945312 316.980469 C 273.691406 319.21875 274.433594 320.707031 275.921875 322.199219 C 277.410156 323.6875 278.898438 325.179688 280.386719 325.925781 C 281.875 326.671875 284.105469 327.414062 287.082031 327.414062 C 291.546875 327.414062 295.269531 325.925781 298.246094 322.945312 C 300.476562 319.964844 301.964844 315.492188 301.964844 310.273438 C 301.964844 308.039062 301.21875 305.800781 301.21875 303.566406 C 300.476562 301.332031 298.988281 299.839844 298.246094 298.351562 Z M 292.292969 318.472656 C 291.546875 319.964844 289.316406 320.707031 287.828125 320.707031 C 286.339844 320.707031 285.59375 320.707031 284.851562 319.964844 L 282.617188 317.726562 C 281.875 316.980469 281.875 315.492188 281.132812 314.746094 C 281.132812 313.253906 280.386719 312.511719 280.386719 311.019531 C 280.386719 307.292969 281.132812 305.058594 281.875 303.566406 C 283.363281 302.074219 284.851562 301.332031 286.339844 301.332031 C 288.570312 301.332031 290.058594 302.074219 291.546875 304.3125 C 292.292969 306.546875 293.035156 308.785156 293.035156 311.765625 C 293.78125 314 293.035156 316.980469 292.292969 318.472656 Z M 327.261719 306.546875 L 325.773438 311.019531 L 323.542969 306.546875 L 316.101562 294.625 L 307.917969 294.625 L 307.917969 326.671875 L 315.359375 326.671875 L 315.359375 311.765625 L 314.613281 305.800781 L 316.847656 311.019531 L 323.542969 320.707031 L 326.519531 320.707031 L 332.472656 311.019531 L 335.449219 305.800781 L 334.703125 311.765625 L 334.703125 326.671875 L 342.886719 326.671875 L 342.886719 295.367188 L 333.960938 295.367188 Z M 369.675781 306.546875 L 368.1875 311.019531 L 367.441406 311.019531 L 365.953125 306.546875 L 358.511719 294.625 L 350.328125 294.625 L 350.328125 326.671875 L 357.023438 326.671875 L 357.023438 311.765625 L 356.28125 305.800781 L 357.023438 305.800781 L 359.257812 311.019531 L 365.953125 320.707031 L 368.929688 320.707031 L 374.882812 311.019531 L 377.113281 305.800781 L 377.859375 305.800781 L 377.113281 311.765625 L 377.113281 326.671875 L 385.300781 326.671875 L 385.300781 295.367188 L 376.371094 295.367188 Z M 414.316406 296.113281 C 412.828125 295.367188 412.085938 294.625 410.597656 293.878906 C 409.109375 293.132812 407.621094 293.132812 406.132812 293.132812 C 401.667969 293.132812 397.949219 294.625 394.972656 297.605469 C 391.996094 300.585938 391.25 304.3125 391.25 310.273438 C 391.25 315.492188 392.738281 319.21875 394.972656 322.945312 C 397.203125 325.925781 400.925781 327.414062 406.132812 327.414062 C 408.363281 327.414062 410.597656 327.414062 412.828125 326.671875 C 415.0625 325.925781 416.550781 325.179688 418.039062 324.433594 L 415.0625 319.21875 C 414.316406 319.964844 413.574219 319.964844 412.085938 320.707031 C 410.597656 319.964844 409.109375 320.707031 406.875 320.707031 C 403.902344 320.707031 402.414062 319.964844 400.925781 318.472656 C 399.4375 316.980469 398.691406 315.492188 398.691406 312.511719 L 418.039062 312.511719 C 418.039062 311.765625 418.039062 310.273438 418.78125 309.527344 L 418.78125 306.546875 C 418.78125 304.3125 418.039062 302.074219 417.292969 300.585938 C 416.550781 299.09375 415.804688 297.605469 414.316406 296.113281 Z M 399.4375 307.292969 C 399.4375 305.058594 400.179688 303.566406 401.667969 302.074219 C 403.15625 300.585938 404.644531 299.839844 406.132812 299.839844 C 407.621094 299.839844 409.109375 300.585938 409.851562 302.074219 C 410.597656 303.566406 411.339844 305.058594 410.597656 307.292969 Z M 441.105469 293.878906 C 438.871094 293.878906 437.382812 294.625 435.894531 295.367188 C 434.40625 296.113281 432.917969 297.605469 432.175781 299.09375 L 431.429688 295.367188 L 425.476562 295.367188 L 425.476562 340.085938 L 433.664062 340.085938 L 433.664062 326.671875 C 434.40625 327.414062 435.152344 327.414062 435.894531 327.414062 L 438.871094 327.414062 C 441.105469 327.414062 443.335938 326.671875 444.824219 325.925781 C 447.054688 325.179688 448.542969 323.6875 449.289062 322.199219 C 450.777344 320.707031 451.519531 318.472656 452.265625 316.980469 C 453.007812 314.746094 453.007812 312.511719 453.007812 309.527344 C 453.007812 304.3125 451.519531 299.839844 450.03125 297.605469 C 447.800781 295.367188 444.824219 293.878906 441.105469 293.878906 Z M 442.589844 317.726562 C 441.105469 319.21875 439.617188 319.964844 437.382812 319.964844 C 435.894531 319.964844 435.152344 319.964844 434.40625 319.21875 C 433.664062 318.472656 432.917969 318.472656 432.175781 317.726562 L 432.175781 305.800781 C 432.917969 304.3125 433.664062 302.820312 434.40625 302.074219 C 435.152344 301.332031 436.640625 300.585938 438.128906 300.585938 C 440.359375 300.585938 441.847656 301.332031 442.589844 302.820312 C 443.335938 304.3125 444.078125 306.546875 444.078125 309.527344 C 444.078125 313.253906 443.335938 316.238281 442.589844 317.726562 Z M 475.332031 308.039062 C 474.585938 308.785156 473.84375 308.785156 473.097656 309.527344 C 472.355469 309.527344 470.867188 310.273438 470.121094 310.273438 C 469.378906 310.273438 468.632812 310.273438 467.890625 309.527344 C 467.144531 309.527344 467.144531 308.785156 466.402344 308.039062 C 466.402344 307.292969 465.65625 306.546875 465.65625 305.800781 L 465.65625 294.625 L 457.472656 294.625 L 457.472656 305.800781 C 457.472656 308.039062 457.472656 309.527344 458.21875 311.019531 C 458.960938 312.511719 459.707031 313.253906 460.449219 314 C 461.191406 314.746094 462.679688 315.492188 463.425781 315.492188 C 464.914062 316.238281 466.402344 316.238281 467.890625 316.238281 C 470.121094 316.238281 471.609375 316.238281 473.097656 315.492188 C 474.585938 314.746094 475.332031 314 476.074219 314 L 476.074219 326.671875 L 484.257812 326.671875 L 484.257812 294.625 L 476.074219 294.625 L 476.074219 308.039062 Z M 513.277344 296.113281 C 511.789062 295.367188 511.046875 294.625 509.558594 293.878906 C 508.070312 293.132812 506.582031 293.132812 505.09375 293.132812 C 500.628906 293.132812 496.90625 294.625 493.933594 297.605469 C 490.957031 300.585938 490.210938 304.3125 490.210938 310.273438 C 490.210938 315.492188 491.699219 319.21875 493.933594 322.945312 C 496.164062 325.925781 499.882812 327.414062 505.09375 327.414062 C 507.324219 327.414062 509.558594 327.414062 511.789062 326.671875 C 514.019531 325.925781 515.507812 325.179688 516.996094 324.433594 L 514.019531 319.21875 C 513.277344 319.964844 512.535156 319.964844 511.046875 320.707031 C 509.558594 321.453125 508.070312 321.453125 506.582031 321.453125 C 503.605469 321.453125 502.117188 320.707031 500.628906 319.21875 C 499.140625 317.726562 498.394531 316.238281 498.394531 313.253906 L 517.742188 313.253906 C 517.742188 312.511719 517.742188 311.019531 518.484375 310.273438 L 518.484375 307.292969 C 518.484375 305.058594 517.742188 302.820312 516.996094 301.332031 C 514.765625 299.09375 514.019531 297.605469 513.277344 296.113281 Z M 497.652344 307.292969 C 497.652344 305.058594 498.394531 303.566406 499.882812 302.074219 C 501.371094 300.585938 502.859375 299.839844 504.347656 299.839844 C 506.582031 299.839844 507.324219 300.585938 508.070312 302.074219 C 508.8125 303.566406 509.558594 305.058594 508.8125 307.292969 Z M 540.0625 319.21875 C 539.320312 319.964844 537.832031 319.964844 536.34375 319.964844 C 534.855469 319.964844 534.109375 319.964844 533.367188 319.21875 L 531.136719 316.980469 C 530.390625 316.238281 530.390625 314.746094 529.648438 314 C 529.648438 313.253906 528.902344 311.765625 528.902344 310.273438 C 528.902344 307.292969 529.648438 305.058594 530.390625 302.820312 C 531.878906 301.332031 533.367188 300.585938 535.597656 300.585938 C 537.085938 300.585938 537.832031 300.585938 538.574219 301.332031 C 539.320312 302.074219 540.808594 302.074219 541.550781 302.820312 L 543.785156 296.113281 C 542.296875 295.367188 541.550781 294.625 540.0625 294.625 C 538.574219 293.878906 537.085938 293.878906 534.855469 293.878906 C 530.390625 293.878906 526.671875 295.367188 524.4375 298.351562 C 522.207031 301.332031 520.71875 305.800781 520.71875 311.019531 C 520.71875 313.253906 520.71875 315.492188 521.460938 317.726562 C 522.207031 319.964844 522.949219 321.453125 523.695312 322.945312 C 524.4375 324.433594 525.925781 325.925781 528.160156 326.671875 C 529.648438 327.414062 531.878906 328.160156 534.855469 328.160156 C 537.085938 328.160156 538.574219 327.414062 540.0625 327.414062 L 544.527344 325.179688 L 543.039062 318.472656 C 542.296875 318.472656 541.550781 318.472656 540.0625 319.21875 Z M 565.363281 308.785156 L 568.335938 306.546875 L 576.523438 294.625 L 567.59375 294.625 L 560.152344 307.292969 L 557.921875 308.039062 L 557.921875 294.625 L 549.738281 294.625 L 549.738281 326.671875 L 557.921875 326.671875 L 557.921875 313.253906 L 560.152344 313.253906 L 568.335938 326.671875 L 577.265625 326.671875 L 569.082031 311.765625 Z M 591.402344 310.273438 L 589.171875 314 L 588.425781 314 L 589.171875 310.273438 L 589.171875 294.625 L 580.988281 294.625 L 580.988281 326.671875 L 586.195312 326.671875 L 597.355469 312.511719 L 600.332031 307.292969 L 599.589844 311.765625 L 599.589844 326.671875 L 607.773438 326.671875 L 607.773438 294.625 L 603.308594 294.625 Z M 622.652344 289.40625 C 623.398438 290.152344 624.886719 290.152344 625.628906 290.898438 C 627.117188 290.898438 627.863281 291.640625 629.351562 291.640625 C 632.328125 291.640625 634.558594 290.898438 636.046875 289.40625 C 638.28125 287.914062 639.023438 285.679688 639.765625 283.445312 L 633.070312 281.953125 C 633.070312 283.445312 632.328125 284.933594 631.582031 285.679688 C 630.839844 286.425781 630.09375 286.425781 628.605469 286.425781 C 627.117188 286.425781 626.375 286.425781 625.628906 285.679688 C 624.886719 284.933594 624.140625 284.1875 624.140625 281.953125 L 618.933594 283.445312 C 618.933594 284.933594 619.679688 286.425781 620.421875 287.171875 C 621.164062 287.914062 621.910156 289.40625 622.652344 289.40625 Z M 626.375 310.273438 L 623.398438 314 L 623.398438 294.625 L 615.214844 294.625 L 615.214844 326.671875 L 620.421875 326.671875 L 631.582031 312.511719 L 634.558594 307.292969 L 634.558594 326.671875 L 642.742188 326.671875 L 642.742188 294.625 L 637.535156 294.625 Z M 682.179688 295.367188 C 679.945312 295.367188 677.714844 296.113281 676.226562 296.859375 C 674.738281 297.605469 673.25 299.09375 671.761719 300.585938 C 671.761719 298.351562 672.507812 296.859375 673.25 295.367188 C 673.996094 293.878906 674.738281 293.132812 675.480469 292.386719 C 676.226562 291.640625 677.714844 290.898438 678.457031 290.898438 C 679.945312 290.152344 681.433594 290.152344 682.921875 290.152344 C 685.898438 290.152344 687.386719 289.40625 689.621094 289.40625 C 691.109375 289.40625 692.59375 288.660156 693.339844 287.914062 L 692.59375 280.460938 C 691.851562 281.207031 690.363281 281.953125 688.875 281.953125 C 687.386719 282.699219 685.15625 282.699219 683.667969 282.699219 C 682.179688 282.699219 680.691406 282.699219 679.203125 283.445312 C 677.714844 284.1875 676.226562 284.1875 674.738281 284.933594 C 673.25 285.679688 672.507812 286.425781 671.019531 287.171875 C 669.53125 287.914062 668.785156 289.40625 668.042969 291.640625 C 667.296875 293.132812 666.554688 295.367188 666.554688 298.351562 C 665.808594 301.332031 665.808594 304.3125 665.808594 308.039062 C 665.808594 314.746094 667.296875 319.964844 669.53125 322.945312 C 671.761719 325.925781 675.480469 327.414062 680.691406 327.414062 C 685.15625 327.414062 688.875 325.925781 691.851562 322.945312 C 694.082031 319.964844 695.570312 315.492188 695.570312 309.527344 C 695.570312 304.3125 694.082031 300.585938 691.851562 298.351562 C 688.875 296.859375 685.898438 295.367188 682.179688 295.367188 Z M 684.410156 317.726562 C 682.921875 319.21875 681.433594 319.964844 679.203125 319.964844 C 676.96875 319.964844 675.480469 319.21875 674.738281 316.980469 C 673.996094 315.492188 673.25 313.253906 673.25 310.273438 C 673.25 307.292969 673.996094 305.800781 674.738281 303.566406 C 676.226562 302.074219 677.714844 301.332031 679.945312 301.332031 C 682.179688 301.332031 683.667969 302.074219 684.410156 303.566406 C 685.15625 305.058594 685.898438 307.292969 685.898438 310.273438 C 685.898438 314 685.15625 316.238281 684.410156 317.726562 Z M 723.847656 316.980469 L 723.847656 306.546875 C 723.847656 305.058594 723.847656 303.566406 723.101562 302.074219 C 722.359375 300.585938 722.359375 299.839844 720.871094 298.351562 C 720.125 297.605469 718.636719 296.859375 717.148438 296.113281 C 715.660156 295.367188 713.429688 295.367188 711.941406 295.367188 C 709.710938 295.367188 706.734375 295.367188 704.5 296.113281 C 702.269531 296.859375 700.035156 296.859375 698.546875 297.605469 L 700.035156 304.3125 C 701.523438 303.566406 703.011719 303.566406 704.5 302.820312 C 705.988281 302.074219 708.222656 302.074219 709.710938 302.074219 C 711.941406 302.074219 713.429688 302.820312 714.171875 303.566406 C 714.917969 305.058594 714.917969 306.546875 714.917969 308.785156 L 707.476562 308.785156 C 705.246094 309.527344 703.011719 309.527344 701.523438 310.273438 C 700.035156 311.019531 698.546875 312.511719 697.804688 313.253906 C 697.058594 314.746094 696.316406 316.238281 696.316406 318.472656 C 696.316406 319.964844 697.058594 321.453125 697.058594 322.199219 C 697.804688 323.6875 698.546875 324.433594 699.292969 325.179688 C 700.035156 325.925781 701.523438 326.671875 702.269531 327.414062 C 703.011719 328.160156 704.5 328.160156 705.988281 328.160156 C 708.222656 328.160156 710.453125 327.414062 711.941406 326.671875 C 713.429688 325.925781 714.917969 324.433594 715.660156 322.945312 L 716.40625 322.945312 L 717.894531 327.414062 L 724.589844 327.414062 C 723.847656 325.925781 723.847656 324.433594 723.847656 322.945312 Z M 716.40625 316.980469 L 714.171875 319.21875 C 713.429688 319.964844 711.941406 320.707031 710.453125 320.707031 C 708.964844 320.707031 708.222656 319.964844 707.476562 319.964844 C 706.734375 319.21875 706.734375 318.472656 706.734375 316.980469 C 706.734375 316.238281 706.734375 315.492188 707.476562 314.746094 C 708.222656 314 708.964844 314 709.710938 313.253906 C 710.453125 312.511719 711.941406 312.511719 712.683594 312.511719 L 716.40625 312.511719 Z M 749.886719 306.546875 L 739.472656 306.546875 L 739.472656 294.625 L 731.285156 294.625 L 731.285156 326.671875 L 739.472656 326.671875 L 739.472656 314 L 749.886719 314 L 749.886719 326.671875 L 758.074219 326.671875 L 758.074219 294.625 L 749.886719 294.625 Z M 781.140625 308.785156 L 784.113281 306.546875 L 791.554688 294.625 L 782.625 294.625 L 775.1875 307.292969 L 773.699219 308.039062 L 773.699219 294.625 L 765.511719 294.625 L 765.511719 326.671875 L 773.699219 326.671875 L 773.699219 313.253906 L 775.929688 313.253906 L 783.371094 326.671875 L 793.042969 326.671875 L 784.113281 311.765625 Z M 781.140625 308.785156 "/></g><path style=" stroke:none;fill-rule:nonzero;fill:rgb(100%,100%,100%);fill-opacity:1;" d="M 210.46875 410.4375 L 258.566406 187.566406 L 493.167969 238.195312 Z M 210.46875 410.4375 "/></g></svg>