<?xml version="1.0" encoding="utf-8"?>
<!-- Generator: Adobe Illustrator 24.0.1, SVG Export Plug-In . SVG Version: 6.00 Build 0)  -->
<svg version="1.1" id="Layer_1" xmlns="http://www.w3.org/2000/svg" xmlns:xlink="http://www.w3.org/1999/xlink" x="0px" y="0px"
	 width="250px" height="30px" viewBox="0 0 250 30" style="enable-background:new 0 0 250 30;" xml:space="preserve">
<style type="text/css">
	.st0{fill:#7A66A8;}
	.st1{fill:#1A1717;}
</style>
<g>
	<path class="st0" d="M149.4,7.2c0-1.1-0.9-2.2-2-2.2c-1.1,0-2,0.9-2,2.2c0,1.1,0.9,2.2,2,2.2C148.5,9.4,149.4,8.3,149.4,7.2
		 M144.4,6.9c0-1.8,0.1-3.6,2.2-4.1l3.2-0.8l0.1,0.7l-3.1,0.8c-1.1,0.3-1.6,0.9-1.7,2c0.3-0.7,1.1-1.2,2.4-1.2
		c1.5,0,2.7,1.2,2.7,2.8s-1.2,2.9-2.9,2.9C145.6,10,144.4,8.9,144.4,6.9"/>
	<path class="st0" d="M156.1,7.9V7.3c-0.5-0.1-1-0.2-1.7-0.2c-1,0-1.7,0.5-1.7,1.1c0,0.7,0.7,1.1,1.5,1.1
		C155.2,9.4,156.1,8.8,156.1,7.9 M151.9,8.3c0-1.2,1-1.8,2.4-1.8c0.7,0,1.2,0.1,1.7,0.2V6.5c0-1-0.6-1.6-1.7-1.6
		c-0.7,0-1.2,0.1-1.7,0.5l-0.2-0.7c0.7-0.3,1.2-0.5,2-0.5s1.5,0.2,1.8,0.7c0.3,0.3,0.6,0.9,0.6,1.7v3.5H156v-1c-0.3,0.5-1,1-2,1
		C152.9,10,151.9,9.5,151.9,8.3"/>
	<polygon class="st0" points="159.2,4.3 160,4.3 160,6.7 163.3,6.7 163.3,4.3 164.2,4.3 164.2,9.9 163.3,9.9 163.3,7.4 160,7.4 
		160,9.9 159.2,9.9 	"/>
	<polygon class="st0" points="166.6,4.3 167.5,4.3 167.5,7.5 170.6,4.3 171.6,4.3 169.2,6.7 171.7,9.9 170.7,9.9 168.7,7.3 
		167.5,8.6 167.5,9.9 166.6,9.9 	"/>
	<path class="st0" d="M148.4,22.5v-0.6c-0.5-0.1-1-0.2-1.7-0.2c-1,0-1.7,0.5-1.7,1.1s0.7,1.1,1.5,1.1
		C147.6,24,148.4,23.4,148.4,22.5 M144.2,23c0-1.2,1-1.8,2.4-1.8c0.7,0,1.2,0.1,1.7,0.2v-0.2c0-1-0.6-1.6-1.7-1.6
		c-0.7,0-1.2,0.1-1.7,0.5l-0.2-0.7c0.7-0.3,1.2-0.5,2-0.5s1.5,0.2,1.8,0.7c0.3,0.3,0.6,0.9,0.6,1.7v3.5h-0.8v-1c-0.3,0.5-1,1-2,1
		C145.3,24.8,144.2,24.1,144.2,23"/>
	<path class="st0" d="M150.6,24.6l0.1-0.7c0.1,0,0.3,0.1,0.5,0.1c0.7,0,1.2-0.3,1.2-4.5V19h4v5.7h-0.8v-4.9h-2.4v0.1
		c0,4.4-0.8,4.9-1.9,4.9C151.1,24.7,150.7,24.7,150.6,24.6"/>
	<path class="st0" d="M163,21.4c-0.1-1-0.7-1.9-1.8-1.9c-1,0-1.7,0.8-1.8,1.9H163z M158.4,21.7c0-1.7,1.1-2.9,2.7-2.9
		c1.7,0,2.6,1.4,2.6,3.1c0,0.1,0,0.1,0,0.3h-4.5c0.1,1.2,1,1.9,2,1.9c0.8,0,1.4-0.3,1.8-0.8l0.6,0.5c-0.6,0.7-1.2,1-2.4,1
		C159.7,24.8,158.4,23.5,158.4,21.7"/>
	<polygon class="st0" points="165.8,18.9 166.7,18.9 166.7,22.2 169.8,18.9 170.9,18.9 168.5,21.4 170.9,24.6 169.9,24.6 
		167.9,21.9 166.7,23.2 166.7,24.6 165.8,24.6 	"/>
	<path class="st0" d="M172.3,21.7c0-1.6,1.2-2.9,2.9-2.9c1,0,1.7,0.5,2.3,1l-0.6,0.6c-0.5-0.5-1-0.8-1.7-0.8c-1.1,0-2,1-2,2.3
		c0,1.2,0.9,2.2,2,2.2c0.7,0,1.2-0.3,1.7-0.9l0.6,0.6c-0.6,0.7-1.2,1.1-2.3,1.1C173.5,24.8,172.3,23.4,172.3,21.7"/>
	<path class="st0" d="M183.2,22.5v-0.6c-0.5-0.1-1-0.2-1.7-0.2c-1,0-1.7,0.5-1.7,1.1s0.7,1.1,1.5,1.1
		C182.4,24,183.2,23.4,183.2,22.5 M179.1,23c0-1.2,1-1.8,2.4-1.8c0.7,0,1.2,0.1,1.7,0.2v-0.2c0-1-0.6-1.6-1.7-1.6
		c-0.7,0-1.2,0.1-1.7,0.5l-0.2-0.7c0.7-0.3,1.2-0.5,2-0.5c0.8,0,1.5,0.2,1.8,0.7c0.3,0.3,0.6,0.9,0.6,1.7v3.5h-0.8v-1
		c-0.3,0.5-1,1-2,1C180.1,24.8,179.1,24.1,179.1,23"/>
	<polygon class="st0" points="186.3,18.9 187.2,18.9 187.2,21.4 190.5,21.4 190.5,18.9 191.3,18.9 191.3,24.6 190.5,24.6 
		190.5,22.2 187.2,22.2 187.2,24.6 186.3,24.6 	"/>
	<path class="st0" d="M197.6,23.9v-4.2h-2.4v0.8c0,1.4-0.2,2.6-0.7,3.4H197.6z M192.9,23.9h0.6c0.5-0.8,0.8-2,0.8-4v-1h4.1v4.9h0.9
		l-0.1,2.2h-0.7v-1.4h-4.5l-0.1,1.4h-0.7v-2H192.9z"/>
	<path class="st0" d="M205.8,21.7c0-1.4-0.9-2.2-2-2.2c-1,0-2,0.9-2,2.2c0,1.4,1,2.2,2,2.2C204.9,24,205.8,23.2,205.8,21.7
		 M201,18.9h0.8V20c0.5-0.7,1.1-1.2,2.2-1.2c1.4,0,2.7,1,2.7,2.9c0,1.8-1.4,2.9-2.7,2.9c-1,0-1.7-0.6-2.2-1.2v2.8H201V18.9z"/>
	<path class="st0" d="M213.4,21.7c0-1.2-0.9-2.3-2.2-2.3c-1.2,0-2,1-2,2.3c0,1.2,0.9,2.2,2,2.2C212.6,24,213.4,23,213.4,21.7
		 M208.5,21.7c0-1.6,1.2-2.9,2.9-2.9c1.7,0,2.9,1.4,2.9,2.9c0,1.6-1.2,2.9-2.9,2.9C209.7,24.8,208.5,23.4,208.5,21.7"/>
	<path class="st0" d="M219.2,23.9c0.8,0,1.4-0.3,1.4-0.9s-0.5-0.9-1.4-0.9h-1.8v1.8C217.4,23.9,219.2,23.9,219.2,23.9z M219,21.4
		c0.7,0,1.1-0.3,1.1-0.9c0-0.5-0.3-0.8-1.1-0.8h-1.8v1.7H219z M216.4,18.9h2.7c1.1,0,1.8,0.6,1.8,1.4c0,0.8-0.5,1.1-0.9,1.4
		c0.7,0.2,1.2,0.6,1.2,1.4c0,0.9-0.8,1.6-2,1.6h-2.8V18.9z"/>
	<path class="st0" d="M223.1,21.7c0-1.6,1.2-2.9,2.9-2.9c1,0,1.7,0.5,2.3,1l-0.6,0.6c-0.5-0.5-1-0.8-1.7-0.8c-1.1,0-2,1-2,2.3
		c0,1.2,0.9,2.2,2,2.2c0.7,0,1.2-0.3,1.7-0.9l0.6,0.6c-0.6,0.7-1.2,1.1-2.3,1.1C224.3,24.8,223.1,23.4,223.1,21.7"/>
	<polygon class="st0" points="230.2,18.9 231.1,18.9 231.1,22.2 234.2,18.9 235.2,18.9 232.8,21.4 235.3,24.6 234.3,24.6 
		232.3,21.9 231.1,23.2 231.1,24.6 230.2,24.6 	"/>
	<polygon class="st0" points="237,18.9 237.9,18.9 237.9,23.4 241.2,18.9 242.1,18.9 242.1,24.6 241.2,24.6 241.2,20.1 237.8,24.6 
		237,24.6 	"/>
	<path class="st0" d="M245.4,16.7l0.6-0.1c0.1,0.5,0.5,0.8,1,0.8s0.8-0.3,1-0.8l0.6,0.1c-0.1,0.8-0.7,1.4-1.6,1.4
		C246.2,18.1,245.6,17.5,245.4,16.7 M244.5,18.9h0.8v4.5l3.4-4.5h0.8v5.7h-0.8V20l-3.4,4.5h-0.8V18.9z"/>
	<path class="st0" d="M10.1,19.2v-0.8c-0.7-0.3-1.7-0.6-2.7-0.6c-1.8,0-2.9,0.7-2.9,2c0,1.1,0.9,1.8,2.3,1.8
		C8.9,21.8,10.1,20.7,10.1,19.2 M0.5,20.1c0-3.2,2.5-4.6,6-4.6c1.5,0,2.6,0.2,3.6,0.6v-0.2c0-1.7-1.1-2.7-3.2-2.7
		c-1.6,0-2.7,0.3-4.1,0.8l-1.1-3.2C3.3,10,5,9.6,7.5,9.6c2.3,0,4,0.6,5,1.7c1.1,1.1,1.6,2.7,1.6,4.6v8.5h-4v-1.6
		c-1,1.1-2.4,1.8-4.5,1.8C2.8,24.7,0.5,23.1,0.5,20.1"/>
	<path class="st0" d="M18.4,25.6c3.7-2.6,5.3-5.1,5.3-9s-1.6-6.3-5.3-9l1.8-2.7c5.1,2.7,7.7,6.5,7.7,11.8c0,5.2-2.6,9-7.7,11.8
		L18.4,25.6z"/>
	<path class="st1" d="M53.6,17.4c0-2.2-1.6-3.9-3.6-3.9c-2.2,0-3.5,1.7-3.5,3.9c0,2,1.6,3.7,3.6,3.7C52.1,21.1,53.6,19.4,53.6,17.4
		 M42.1,15.9c0-4.4,0.7-9.1,6.2-10.1l7.9-1.5L57,7.7l-8.2,1.6c-2.7,0.6-3.5,2-3.6,3.5c0.6-1,2.4-2.5,5.4-2.5c3.7,0,7,3.1,7,7
		c0,4.1-3.3,7.5-7.8,7.5C44.9,24.8,42.1,21.6,42.1,15.9"/>
	<path class="st1" d="M70.8,19.2v-0.8c-0.7-0.3-1.7-0.6-2.7-0.6c-1.8,0-2.9,0.7-2.9,2c0,1.1,0.9,1.8,2.3,1.8
		C69.6,21.8,70.8,20.7,70.8,19.2 M61.2,20.1c0-3.2,2.5-4.6,6-4.6c1.5,0,2.6,0.2,3.6,0.6v-0.2c0-1.7-1.1-2.7-3.2-2.7
		c-1.6,0-2.7,0.3-4.1,0.8l-1-3.2c1.6-0.7,3.3-1.1,5.8-1.1c2.3,0,4,0.6,5,1.7c1.1,1.1,1.6,2.7,1.6,4.6v8.5h-4.1v-1.6
		c-1,1.1-2.5,1.8-4.5,1.8C63.4,24.7,61.2,23.1,61.2,20.1"/>
	<polygon class="st1" points="93.5,24.4 89.3,24.4 89.3,18.8 84.1,18.8 84.1,24.4 79.9,24.4 79.9,9.7 84.1,9.7 84.1,15.4 89.3,15.4 
		89.3,9.7 93.5,9.7 	"/>
	<polygon class="st1" points="98.6,9.7 102.8,9.7 102.8,15.7 108.1,9.7 113,9.7 107.5,15.7 113.7,24.4 108.7,24.4 104.7,18.8 
		102.8,20.9 102.8,24.4 98.6,24.4 	"/>
	<rect x="129.1" y="0.1" class="st0" width="0.9" height="29.3"/>
</g>
</svg>
