<?xml version="1.0" encoding="utf-8"?>
<!-- Generator: Adobe Illustrator 24.0.1, SVG Export Plug-In . SVG Version: 6.00 Build 0)  -->
<svg version="1.1" id="Слой_1" xmlns="http://www.w3.org/2000/svg" xmlns:xlink="http://www.w3.org/1999/xlink" x="0px" y="0px"
	 width="250px" height="88px" viewBox="0 0 250 88" style="enable-background:new 0 0 250 88;" xml:space="preserve">
<style type="text/css">
	.st0{clip-path:url(#SVGID_2_);}
	.st1{fill:#1E2321;}
	.st2{fill:#7FCB2C;}
</style>
<g>
	<defs>
		<rect id="SVGID_1_" y="0.1" width="250" height="87.7"/>
	</defs>
	<clipPath id="SVGID_2_">
		<use xlink:href="#SVGID_1_"  style="overflow:visible;"/>
	</clipPath>
	<g class="st0">
		<path class="st1" d="M80.7,0.1L80.7,0.1l-7.8,7.8V0.1h-7.8v0v0L52.1,13v33.5h5.2v-31L67.7,5.3v41.3h5.2v-31L83.3,5.3v41.3h5.2V0.1
			H80.7z"/>
		<path class="st1" d="M0,46.6h20.8V0.1H13v0l0,0L0,13l0,0V46.6z M15.6,5.3v36.1H5.2V15.6L15.6,5.3"/>
		<path class="st1" d="M46.9,0.1H26v46.4h20.8V0.1z M31.2,5.3h10.4v36.1H31.2V5.3z"/>
		<path class="st1" d="M0,56.9h88.5v-5.2H0V56.9z"/>
		<path class="st1" d="M0,62.1v25.8h5.2v-5.2h31.2V62.1H0z M31.3,77.5h-26V67.2h26V77.5z"/>
		<path class="st1" d="M41.7,62.1v20.6h20.8v5.2h5.2v-5.2h20.8V62.1H41.7z M46.9,67.2h15.6v10.3H46.9V67.2z M83.3,77.5H67.7V67.2
			h15.6V77.5"/>
		<path class="st1" d="M170.8,58.2h-9.4V35h15.5v4H166v4.7h4.8c4.7,0,7.6,3,7.6,7.2C178.4,55.2,175.5,58.2,170.8,58.2L170.8,58.2z
			 M170.6,47.8H166v6.4h4.6c2,0,3.2-1.3,3.2-3.2C173.8,49.1,172.6,47.8,170.6,47.8z"/>
		<path class="st1" d="M197.9,58.2l-1.4-4.1h-8.3l-1.4,4.1h-4.8l8.5-23.2h3.6l8.5,23.2H197.9z M192.5,41.8l-3,8.4h5.8L192.5,41.8z"
			/>
		<path class="st1" d="M219.9,58.2v-9.7H212v9.7h-4.6V35h4.6v9.5h7.9V35h4.6v23.2H219.9z"/>
		<path class="st1" d="M231.6,58.2V35h4.6v11l7.6-11h5.5l-7.8,10.9l8.6,12.3h-5.6l-8.2-12.1v12.1H231.6z"/>
		<path class="st2" d="M130.2,87.9H125V0.2h5.2V87.9z"/>
	</g>
</g>
</svg>
