<svg width="160" height="28" viewBox="0 0 160 28" fill="none" xmlns="http://www.w3.org/2000/svg">
<path d="M27.1897 0H0V27.0968H27.1897V0Z" fill="white"/>
<path d="M119.713 13.2154C117.742 11.5457 115.027 12.0206 112.653 11.9638C112.635 10.5161 112.64 9.06831 112.64 7.62061C114.955 7.53281 117.27 7.59991 119.587 7.57671C119.688 6.79991 119.812 6.02571 119.912 5.24901C118.142 4.99091 116.353 5.15351 114.575 5.13801C112.983 5.15611 111.37 4.95731 109.793 5.24121C109.84 10.8361 109.778 16.4335 109.824 22.0283C111.664 22.0335 113.507 22.0231 115.347 22.0335C116.498 22.0541 119.246 21.667 120.263 20.3431C121.75 18.4077 121.628 15.0115 119.713 13.2154ZM117.061 19.2102C116.617 19.458 116.121 19.6593 115.618 19.698C114.601 19.778 113.623 19.7444 112.637 19.6154C112.671 17.8502 112.614 16.0825 112.65 14.3173C114.082 14.3277 115.781 14.1496 116.761 14.627C118.452 15.4993 118.482 18.4206 117.061 19.2102ZM133.05 19.6489C132.924 17.3134 133.045 14.9754 133.032 12.6373C133.076 11.3444 132.211 9.93801 130.89 9.66441C128.531 8.97021 125.85 9.57921 123.912 11.0502C124.072 11.7367 124.531 12.2915 124.877 12.8928C125.535 12.7147 126.137 12.3896 126.743 12.085C127.613 11.6257 128.645 11.6489 129.595 11.778C130.565 12.2528 130.165 13.4967 130.25 14.356C128.973 14.2992 127.703 14.436 126.459 14.7199C125.102 15.1612 123.78 16.085 123.52 17.5096C123.378 18.2915 123.357 19.1173 123.515 19.8967C123.765 21.1379 124.955 22.0515 126.162 22.2812C126.929 22.4257 127.729 22.3792 128.508 22.2889C129.419 22.1831 130.209 21.6334 130.841 20.9908C131.195 21.476 131.486 22.0979 132.041 22.3302C132.268 22.4257 132.534 22.356 132.784 22.3715C133.179 21.8889 133.561 21.396 133.935 20.8954C133.577 20.5263 133.282 20.1031 133.05 19.6489ZM130.168 19.2205C129.83 19.7005 129.352 20.1108 128.808 20.2812C128.312 20.436 127.721 20.4463 127.254 20.227C126.98 20.1005 126.753 19.8605 126.611 19.5973C126.271 18.965 126.294 18.1289 126.529 17.4528C127.011 16.0592 128.903 16.2528 130.219 16.3379C130.209 17.2979 130.302 18.2657 130.168 19.2205ZM136.645 9.93041C137.515 9.73691 138.395 9.58981 139.27 9.40141C139.522 11.0479 139.321 12.733 139.411 14.3975C140.748 14.4027 142.085 14.4078 143.422 14.4001C143.481 12.9033 143.53 11.4091 143.546 9.90981C144.415 9.70081 145.295 9.52271 146.183 9.39881C146.188 13.6078 146.206 17.8169 146.175 22.0259C145.316 22.0285 144.454 22.0311 143.597 22.0362C143.37 20.2246 143.479 18.3924 143.442 16.5704C142.098 16.5395 140.753 16.5059 139.409 16.573C139.352 18.3975 139.306 20.2246 139.257 22.0491C138.392 22.044 137.528 22.0362 136.663 22.0311C136.63 17.9975 136.661 13.964 136.645 9.93041ZM149.768 9.88641C150.64 9.71351 151.517 9.57161 152.395 9.41931C152.395 10.9935 152.472 12.978 152.472 14.5909C153.396 14.5909 154.196 14.7096 154.81 14.2245C155.714 13.5096 155.6 11.6077 156.126 10.5703C156.81 9.50701 158.222 9.58961 159.321 9.40901C159.466 10.0799 159.597 10.7535 159.677 11.4348C159.456 11.4399 158.996 11.3574 158.792 11.4477C157.44 12.0516 158.152 14.4928 156.89 15.2412C156.769 15.3135 156.483 15.3703 156.341 15.3935C157.646 16.338 157.881 17.969 158.441 19.3625C158.658 20.0438 159.425 20.1806 160 20.4309C160 20.4309 159.696 21.9457 159.543 22.3174C158.426 22.1187 157.025 22.2812 156.23 21.3006C155.345 20.1135 155.551 18.5083 154.901 17.2206C154.441 16.2916 153.311 16.6167 152.421 16.6167C152.416 18.4206 152.441 20.227 152.395 22.0335C151.525 22.0361 150.658 22.0438 149.794 22.0412C149.724 17.9896 149.776 13.938 149.768 9.88641Z" fill="#F78F1E"/>
<path d="M27.2 0H0V27.0968H27.1897C27.2 18.0645 27.1793 9.0323 27.2 0ZM13.1406 21.9922H8.2684L13.9613 13.5819L8.2684 5.1742H13.1406L18.8335 13.5819L13.1406 21.9922Z" fill="#F78F1E"/>
<path d="M31.6079 5.17671C34.9989 5.14841 38.3924 5.14841 41.7834 5.17671C41.626 5.96641 41.5098 6.76131 41.386 7.55611C39.0737 7.53551 36.7615 7.55611 34.4492 7.54321C34.4544 9.00901 34.4492 10.4722 34.4595 11.938C36.3615 12.0103 38.3615 11.6826 40.1756 12.4155C41.484 12.9084 42.5421 14.0645 42.8363 15.44C43.2673 17.1329 43.1176 19.1535 41.8763 20.4851C40.7769 21.569 39.1821 21.9509 37.6853 22C35.6595 22.0103 33.6337 21.9793 31.6105 22.0103C31.6157 16.4 31.6157 10.7871 31.6079 5.17671ZM34.4492 14.2709C34.4595 16.0696 34.4389 17.8709 34.4621 19.6722C35.7498 19.6155 37.0815 19.8451 38.3305 19.4322C40.1498 18.8129 40.3821 16.0258 38.9937 14.8619C37.6647 13.9458 35.9589 14.338 34.4492 14.2709ZM46.0027 9.89671C46.906 9.74711 47.8014 9.56131 48.7021 9.39091C48.7253 11.0167 48.6969 12.6451 48.7202 14.2709C50.1808 14.2993 51.7395 14.0413 53.115 14.6761C55.6827 15.7574 55.9434 19.8864 53.6543 21.3832C52.9627 21.8038 52.1421 21.9664 51.3421 21.9974C49.5692 22.0232 47.7937 21.9613 46.0208 22.0258C45.9692 17.9845 46.0079 13.9406 46.0027 9.89671ZM48.7176 16.1884C48.7021 17.4813 48.7176 18.7767 48.7021 20.0696C49.5769 20.0309 50.4931 20.178 51.3343 19.8813C52.4905 19.36 52.5782 17.7109 51.884 16.7871C51.0556 15.9406 49.7731 16.2606 48.7176 16.1884ZM86.155 10.7122C87.755 9.01421 90.73 8.89551 92.4 10.5522C93.84 12.0464 94.106 14.2529 94.052 16.2348C93.949 18.1858 93.45 20.3974 91.758 21.5896C90.124 22.7251 87.889 22.4748 86.261 21.458C86.367 23.1638 86.31 24.8722 86.32 26.578C85.659 26.7587 84.996 26.9419 84.33 27.0967H83.675C83.68 22.3664 83.672 17.6361 83.68 12.9058C83.688 11.8658 83.592 10.8284 83.453 9.79871C84.292 9.65671 85.13 9.50451 85.969 9.36001C86.034 9.80901 86.098 10.2606 86.155 10.7122ZM86.338 12.8464C86.302 14.9032 86.323 16.9574 86.33 19.0142C87.314 19.8219 88.906 20.5109 90.016 19.5535C91.275 18.3845 91.105 16.5135 91.094 14.9496C91.022 13.8529 90.898 12.4438 89.783 11.8916C88.565 11.3213 87.272 12.0748 86.338 12.8464ZM56.955 9.92771C57.8634 9.74451 58.7692 9.56641 59.6801 9.39351C59.675 13.5974 59.6724 17.8013 59.6801 22.0051C58.7769 22.0077 57.8711 21.9974 56.9679 22.0025C56.9627 17.9767 56.9937 13.9509 56.955 9.92771ZM62.8156 14.1625C63.1589 12.1496 64.5085 10.1909 66.5421 9.61551C68.2453 9.03481 70.1808 9.46061 71.533 10.6296C71.1898 11.3264 70.6918 11.9303 70.1885 12.5161C69.3343 11.8787 68.1472 11.2 67.115 11.8529C65.693 12.689 65.755 14.5651 65.675 16.0025C65.6905 17.4245 65.7214 19.3032 67.1924 20.0335C68.4105 20.6658 69.6905 19.809 70.5989 19.0245C71.0453 19.5896 71.4866 20.16 71.933 20.7251C70.8801 21.6567 69.5692 22.4 68.1189 22.3329C66.4027 22.4671 64.604 21.7187 63.6801 20.2296C62.5885 18.4284 62.475 16.1961 62.8156 14.1625ZM72.3821 9.68261C75.5614 9.66711 78.7408 9.68001 81.923 9.67221C81.827 10.3638 81.709 11.0503 81.605 11.7393C80.534 11.7445 79.4608 11.7471 78.3898 11.7445C78.395 15.1613 78.3821 18.5754 78.395 21.9896C77.4892 22.0025 76.5859 21.9922 75.6827 22.0051C75.6724 18.5884 75.675 15.169 75.6776 11.7496C74.5782 11.7419 73.4788 11.7342 72.3769 11.7393C72.3898 11.0529 72.3872 10.369 72.3821 9.68261ZM99.435 9.68771C101.198 9.07091 103.334 9.30841 104.782 10.5419C106.279 11.8013 106.792 13.8425 106.836 15.7238C106.829 17.458 106.501 19.3264 105.316 20.6684C103.262 23.0425 98.934 22.9161 97.143 20.2916C95.861 18.4464 95.724 16.0567 96.109 13.9045C96.478 12.0955 97.605 10.2864 99.435 9.68771ZM100.527 11.5509C99.352 11.9896 99.099 13.378 98.994 14.4748C98.947 16.0619 98.841 17.7522 99.541 19.2284C100.119 20.4722 102.054 20.658 102.909 19.6103C103.44 19.0554 103.551 18.2555 103.706 17.5329C103.889 15.8993 103.902 14.1677 103.262 12.6271C102.823 11.5948 101.543 11.1664 100.527 11.5509Z" fill="#010101"/>
</svg>
