<?xml version="1.0" encoding="utf-8"?>
<!-- Generator: Adobe Illustrator 24.0.1, SVG Export Plug-In . SVG Version: 6.00 Build 0)  -->
<svg version="1.1" id="Слой_1" xmlns="http://www.w3.org/2000/svg" xmlns:xlink="http://www.w3.org/1999/xlink" x="0px" y="0px"
	 width="250px" height="32px" viewBox="0 0 250 32" style="enable-background:new 0 0 250 32;" xml:space="preserve">
<style type="text/css">
	.st0{fill:#00AFAA;}
	.st1{fill:#F39A00;}
	.st2{fill:#00539B;}
</style>
<g id="Layer_2">
	<g id="Layer_1-2">
		<path class="st0" d="M10.4,1.2C4.6,1.2,0,5.9,0,11.6v13.6h6.1V11.6c0-2.4,1.9-4.3,4.3-4.3c2.4,0,4.3,1.9,4.3,4.3v13.6h6.1V11.6
			C20.7,5.9,16.1,1.2,10.4,1.2z"/>
		<path class="st1" d="M10.4,21.2c1.8,0,3.2,1.4,3.2,3.2c0,1.8-1.4,3.2-3.2,3.2c-1.8,0-3.2-1.4-3.2-3.2C7.2,22.7,8.6,21.2,10.4,21.2
			C10.4,21.2,10.4,21.2,10.4,21.2z"/>
		<path class="st2" d="M41.9,25.3v-6.7l0.1-3.8l-1.9,3l-5,7.5h-3.4V8.6h3.9v6.7l-0.1,3.8l1.9-3l4.9-7.5h3.4v16.7H41.9z"/>
		<path class="st2" d="M59.9,25.3v-7.2h-6.1v7.2h-3.9V8.6h3.9V15h6.1V8.6h3.9v16.7H59.9z"/>
		<path class="st2" d="M74,25.6c-2,0-4-0.1-6.1-0.3V8.6c2-0.2,3.9-0.3,5.9-0.3c4.3,0,6.7,1.5,6.7,4.4c0,1.6-1.1,3.1-2.6,3.6
			c2.1,0.2,3.6,1.9,3.7,4C81.5,23.9,78.1,25.6,74,25.6z M73.5,11c-0.6,0-1.1,0-1.8,0.1v4.4h2.1c1.9,0,2.6-1,2.6-2.3S75.6,11,73.5,11
			z M73.9,17.9h-2.2v4.9c0.8,0.1,1.7,0.1,2.6,0.1c1.9,0,3.1-0.9,3.1-2.5S76.3,17.9,73.9,17.9L73.9,17.9z"/>
		<path class="st2" d="M97.8,17.8h-10c0,3.1,1.1,4.9,4.1,4.9c1.7,0,3.4-0.2,5-0.7l0.4,2.9c-1.9,0.6-3.9,0.9-6,0.9
			c-5.1,0-7.5-2.8-7.5-8.6c0-5.6,2.6-9,7.5-9c4.6,0,6.5,2.9,6.5,7.7C97.8,16.3,97.8,17.2,97.8,17.8z M93.9,15.2
			c0.1-2.6-0.9-4.2-2.9-4.2c-2.2,0-3.2,2.1-3.3,4.2H93.9z"/>
		<path class="st2" d="M111.7,24.8c-1.4,0.6-2.9,1-4.4,0.9c-4.8,0-7-3.3-7-8.4c0-5.9,3-9,7.5-9c1.3,0,2.7,0.3,3.9,0.8l-0.8,3
			c-0.9-0.4-1.8-0.6-2.7-0.7c-2.5,0-3.7,2.2-3.7,5.6c0,3.7,1.2,5.5,3.8,5.5c1,0,2-0.2,2.9-0.6L111.7,24.8z"/>
		<path class="st2" d="M120.2,11.6v13.7h-3.9V11.6h-3.6v-3h11.1v3H120.2z"/>
		<path class="st2" d="M132.2,11.6v13.7h-3.9V11.6h-3.6v-3h11.1v3H132.2z"/>
		<path class="st2" d="M144.3,25.8c-5,0-7.6-3.2-7.6-8.6c0-5.6,2.8-9.1,7.9-9.1s7.6,3.3,7.6,8.7S149.4,25.8,144.3,25.8z M144.3,11.3
			c-2.4,0-3.6,2.3-3.6,5.6c0,3.7,1.1,5.8,3.7,5.8s3.6-2.3,3.6-5.5C148.1,13.4,146.9,11.3,144.3,11.3z"/>
		<path class="st2" d="M162,25.6c-0.9,0-1.9-0.1-2.8-0.3V32h-3.9V8.6h3l0.3,2.2c1.4-1.8,2.9-2.7,5.1-2.7c4.3,0,6.1,3.6,6.1,8.2
			C169.8,21.5,167.4,25.6,162,25.6z M162.8,11.3c-1.2,0-2.2,0.6-3.6,2.5V22c0.8,0.4,1.8,0.7,2.7,0.6c2.4,0,3.7-2.1,3.7-5.8
			C165.7,13.8,165,11.3,162.8,11.3L162.8,11.3z"/>
		<path class="st2" d="M182,8.6v3.2h-5.1v13.5H173V8.6H182z"/>
		<path class="st2" d="M187.2,11.4c1-1.9,3-3,5.1-2.9c4.1,0,6.3,3.2,6.3,8.2c0,5.7-2.8,9.1-7.7,9.1c-4.6,0-7.2-3-7.2-10.4
			c0-6.3,0.9-9.6,2.9-11.7c1.2-1.3,3.2-2,5.6-2.4l3.6-0.6c0.6-0.1,1.1-0.2,1.7-0.4v3.5c-0.5,0.2-1,0.4-1.5,0.5l-3.6,0.6
			c-1.9,0.3-3,0.8-3.7,1.5C187.8,7.3,187.3,8.9,187.2,11.4z M191.2,22.6c2.1,0,3.3-2,3.3-5.5c0-3.2-1-5.5-3.3-5.5
			c-2.1,0-3.5,2-3.5,5C187.8,19.3,188.3,22.6,191.2,22.6z"/>
		<path class="st2" d="M211.1,25.3l-0.3-1.7c-1.2,1.4-2.9,2.2-4.8,2.2c-3.1,0-5.2-1.8-5.2-5.1c0-3.8,2.8-5.4,7.5-5.4h1.8v-1.1
			c0-2.1-0.7-3.1-3.1-3.1c-1.5,0-3.1,0.4-4.5,1L202,9.2c1.8-0.7,3.7-1.1,5.6-1.1c4.6,0,6.4,2.2,6.4,5.7v11.5H211.1z M210.2,17.9h-2
			c-2.4,0-3.5,0.9-3.5,2.6c0,1.4,0.8,2.4,2.3,2.4c1.3,0,2.3-0.8,3.2-1.8L210.2,17.9z"/>
		<path class="st2" d="M228.2,25.3v-7.2H222v7.2h-3.9V8.6h3.9V15h6.1V8.6h3.9v16.7H228.2z"/>
		<path class="st2" d="M245.4,25.3l-4.2-7.8l-1.2,1.3v6.5h-3.9V8.6h3.9v6.2c1.6-2,3.3-4.1,4.9-6.2h4.7l-5.6,6.1l5.9,10.7H245.4z"/>
	</g>
</g>
</svg>
