<svg width="40" height="40" viewBox="0 0 40 40" fill="none" xmlns="http://www.w3.org/2000/svg">
<path fill-rule="evenodd" clip-rule="evenodd" d="M12.5381 27.292C9.59737 27.1702 7.25118 25.2097 7.25118 22.8204V13.7804C7.25118 13.1836 7.83631 12.6986 8.55315 12.6986C6.57291 12.6986 4.85607 13.6304 4 14.9957V22.8204V22.822V22.8236V22.8251V22.8267V22.8283V22.8314V22.8329V22.8345V22.8361V22.8376V22.8392V22.8407V22.8423V22.8454V22.847V22.8486V22.8501V22.8517V22.8532V22.8548V22.8564V22.8579V22.8595V22.8611V22.8626V22.8642V22.8657V22.8673V22.8689V22.8704V22.872V22.8736V22.8751V22.8767V22.8782V22.8798V22.8814V22.8845V22.8861V22.8876V22.8892V22.8907V22.8923V22.8939V22.8954V22.897V22.8985V22.9001V22.9017V22.9032V22.9048V22.9064V22.9079V22.9095V22.911V22.9126V22.9142V22.9157V22.9173V22.9189V22.9204V22.922V22.9235C5.65193 25.4604 8.84384 27.2038 12.5381 27.292Z" fill="#CE181E"/>
<path fill-rule="evenodd" clip-rule="evenodd" d="M4 14.9965V13.7803C4 13.5976 4.01599 13.4156 4.0461 13.2391H4.04798V13.2266C4.05456 13.1899 4.06209 13.1547 4.06961 13.118H4.07244V13.1055C4.08655 13.0415 4.10254 12.979 4.12041 12.9149H4.12135V12.9118C4.12888 12.886 4.13641 12.8603 4.14393 12.8353H4.14487V12.829C4.17874 12.7204 4.21825 12.6158 4.26246 12.5119H4.26623V12.5025C4.27375 12.4861 4.28128 12.4674 4.28881 12.451H4.29069V12.4478C4.32738 12.3666 4.36783 12.2877 4.41016 12.2081H4.41204V12.2049L4.43274 12.1682H4.43556V12.162L4.45532 12.1268H4.45908V12.1206L4.47883 12.087H4.48354V12.0792C4.50612 12.0409 4.53057 12.0026 4.55503 11.9651H4.55597C4.57761 11.9316 4.60113 11.898 4.62465 11.8644H4.62935V11.8581C4.65193 11.8261 4.67545 11.7957 4.69897 11.7636H4.70179V11.7589C4.74788 11.6996 4.79586 11.6402 4.84572 11.5816H4.84666V11.5801C4.86924 11.5527 4.89276 11.527 4.91722 11.5004H4.92004V11.4973C4.9445 11.4715 4.96802 11.4457 4.99342 11.4192C5.03293 11.3778 5.07338 11.338 5.11477 11.2989L5.13547 11.2794H5.13829V11.2747L5.15616 11.2583H5.16275V11.2536C5.27564 11.1482 5.39605 11.049 5.52211 10.956H5.52775V10.9513L5.55033 10.9357H5.55221V10.9341C5.62841 10.8779 5.70743 10.824 5.78739 10.774H5.79492V10.7678C5.82502 10.7498 5.85513 10.7311 5.88523 10.7131H5.89182V10.7084C5.9238 10.6904 5.95579 10.6701 5.98871 10.6522C6.01223 10.6381 6.03669 10.6248 6.06115 10.6123C6.09878 10.5913 6.13735 10.5709 6.17592 10.5514H6.1825V10.5483C6.22107 10.5288 6.26058 10.5085 6.29915 10.4905H6.3048V10.4889C6.51929 10.3866 6.74506 10.2999 6.97931 10.2281H6.98589V10.2265C7.00565 10.2202 7.02634 10.214 7.0461 10.2085H7.05833V10.2054C7.12982 10.1843 7.20132 10.1656 7.27376 10.1476H7.27752C7.3048 10.1414 7.33302 10.1335 7.3603 10.1281H7.37535V10.125C7.40169 10.1187 7.42898 10.1125 7.45532 10.1086H7.47225V10.1039C7.5842 10.0828 7.69709 10.0625 7.81091 10.0476H7.83631V10.0445C7.88429 10.0383 7.93227 10.032 7.97931 10.0281H7.98213C8.06303 10.0187 8.14487 10.0125 8.22766 10.0086H11.968C12.0517 10.0164 12.1345 10.0297 12.2136 10.0484C12.238 10.0547 12.2615 10.0609 12.286 10.0664V10.0679H12.2926C12.3151 10.0742 12.3368 10.082 12.3584 10.0875V10.089H12.3594C12.4262 10.1101 12.4911 10.1351 12.5532 10.1624V10.1703H12.5673L12.6021 10.1859V10.1906H12.6087C12.6566 10.2132 12.7027 10.239 12.7469 10.2671V10.2718H12.7526C12.793 10.296 12.8316 10.3233 12.8692 10.3515V10.353H12.8702L12.8937 10.371V10.3726H12.8965C12.9125 10.385 12.9276 10.3968 12.9426 10.4108V10.4124H12.9454L12.9671 10.4319V10.4335H12.968C13.0019 10.4624 13.0339 10.4944 13.064 10.5264V10.5342H13.0696C13.0931 10.56 13.1148 10.5858 13.1364 10.6123V10.6155H13.1383C13.1637 10.6475 13.1872 10.6811 13.2098 10.7162C13.2183 10.7287 13.2258 10.742 13.2333 10.7561H13.2342C13.2728 10.8217 13.3048 10.8904 13.3311 10.9623V10.9787H13.3368C13.3434 10.9966 13.35 11.0169 13.3556 11.0365V11.0396H13.3565C13.3659 11.0716 13.3735 11.1052 13.3801 11.1388V11.1802H13.3866C13.3951 11.2364 13.3998 11.2934 13.3998 11.3512C13.3998 11.409 13.3951 11.4668 13.3866 11.5238H13.3801V11.5621C13.3697 11.6184 13.3547 11.6738 13.3358 11.7269H13.3311V11.7394C13.3255 11.7558 13.3189 11.7714 13.3133 11.7871H13.3067V11.8027C13.2756 11.8745 13.238 11.9448 13.1929 12.0105H13.1844V12.0229L13.1646 12.0503H13.1609V12.0565C13.1308 12.0964 13.0988 12.1362 13.0649 12.1721H13.064V12.1737L13.0461 12.1917H13.0395V12.1995C12.9699 12.2713 12.8918 12.3354 12.8072 12.3932H12.7959V12.401L12.7771 12.415H12.7723V12.4182C12.7046 12.4611 12.6322 12.5002 12.5569 12.5353H12.5532V12.5369C12.539 12.5431 12.5249 12.5494 12.5108 12.5549H12.5052V12.558C12.4901 12.5642 12.476 12.5705 12.4619 12.5759H12.4572V12.5775C12.4205 12.5916 12.3838 12.6033 12.3462 12.6158H12.3358V12.6189C12.3161 12.6251 12.2963 12.6314 12.2766 12.6353H12.2625V12.64C12.2399 12.6462 12.2164 12.6509 12.1938 12.6556H12.19V12.6572C12.0997 12.6767 12.0066 12.6908 11.9116 12.697H11.8495V12.7001C11.826 12.7017 11.8006 12.7017 11.7761 12.7017H8.54751C6.57291 12.6994 4.85607 13.6312 4 14.9965Z" fill="#ED1C24"/>
<path fill-rule="evenodd" clip-rule="evenodd" d="M12.317 29.9852V29.9774H12.1636C12.0188 29.9695 11.8758 29.9578 11.7328 29.9422V29.9375H11.681C11.6415 29.9328 11.602 29.9281 11.5625 29.9235V29.9172H11.5032C11.4666 29.9125 11.4299 29.9063 11.3922 29.9016V29.8953H11.3508C11.316 29.8907 11.2812 29.886 11.2464 29.8813V29.875H11.2107C11.1326 29.8625 11.0554 29.8508 10.9783 29.8368V29.8352H10.9633C10.936 29.8305 10.9078 29.8258 10.8814 29.8196V29.8133H10.8494C10.8278 29.8102 10.8062 29.8055 10.7845 29.8008V29.793H10.7469L10.6867 29.7805V29.7727H10.6443C10.6255 29.7696 10.6077 29.7649 10.5888 29.7602V29.7524H10.5512L10.492 29.7383V29.7305H10.459L10.3951 29.7165V29.7102H10.3734L10.2982 29.6923V29.6907H10.2897C10.2116 29.6712 10.1326 29.6509 10.0554 29.6313V29.6298H10.0536L9.98207 29.6102H9.98019L9.93409 29.5962V29.5899H9.90964L9.86166 29.5759V29.5696H9.83908L9.78922 29.554V29.5478H9.77229L9.71584 29.5314V29.5282H9.7055L9.64247 29.5087H9.63965L9.59355 29.4931V29.4884H9.57662L9.52017 29.4689V29.4673H9.51547C9.41951 29.4369 9.32356 29.4033 9.22854 29.3681V29.3666H9.22384L9.18057 29.3502V29.347H9.17116L9.13165 29.3314V29.3267H9.1166L9.08273 29.3127V29.3064H9.06297C9.02911 29.2924 8.99524 29.2791 8.96138 29.265L8.9134 29.2455H8.91058L8.86448 29.2275V29.226H8.85978L8.81556 29.2064V29.2049H8.8118L8.76664 29.1869V29.1853H8.76382L8.71773 29.1658H8.71584L8.66881 29.1463C8.61142 29.1205 8.55498 29.0963 8.49948 29.0697V29.0651H8.48913L8.45056 29.0471V29.0455H8.44585C8.42328 29.0346 8.4007 29.0229 8.37812 29.012V29.0041H8.36119L8.3292 28.9885V28.9838H8.31885L8.28028 28.9659V28.9643H8.27652C8.25394 28.9518 8.23043 28.9401 8.20691 28.9292V28.9229H8.19562L8.15799 28.9049V28.9034H8.15517L8.08461 28.8667V28.862H8.07615C8.03758 28.8425 7.99995 28.8222 7.96232 28.8026L7.88988 28.7628V28.7612H7.88894L7.81744 28.7214H7.8165C7.78452 28.7034 7.75253 28.6847 7.71961 28.6667V28.6605H7.7102L7.64717 28.6238V28.6206H7.64153L7.62271 28.6081V28.5988H7.60672L7.57379 28.5792H7.57285L7.54933 28.5652V28.5589H7.53993L7.47596 28.5191V28.5175H7.47408L7.4515 28.5035V28.4972H7.44115L7.37906 28.4574H7.37812C7.29628 28.4043 7.21537 28.3504 7.13541 28.2957H7.13447L7.11095 28.2793V28.2746H7.10437L7.08649 28.2621V28.2543H7.07614C7.03852 28.2285 7.00183 28.2028 6.96514 28.1746V28.1731H6.96326L6.94162 28.1575V28.1528H6.93598L6.9181 28.1387V28.1325H6.90869L6.89364 28.12V28.1122H6.88141C6.82779 28.0723 6.77511 28.0309 6.72337 27.9919V27.9903L6.69985 27.9724V27.9708H6.69797C6.64153 27.9263 6.58508 27.881 6.53052 27.8349V27.8286H6.52299L6.50606 27.8146V27.8083H6.49853L6.4816 27.7943V27.788H6.47502L6.45714 27.7724V27.7677H6.4515L6.43362 27.7513V27.7466H6.42798L6.40916 27.731V27.7263H6.40446L6.38471 27.7099V27.7068H6.38094L6.36025 27.6888V27.6873H6.35742L6.33579 27.6677H6.33485C6.26899 27.6099 6.20502 27.5506 6.142 27.4889V27.4842H6.13729L6.11754 27.4662V27.4647H6.11566C6.0752 27.4264 6.03569 27.3881 5.99618 27.3491V27.3444H5.99148L5.97172 27.3248V27.3233H5.97078C5.94632 27.2991 5.9228 27.2756 5.89835 27.2499V27.2421H5.89082L5.87389 27.2257V27.2225H5.87201L5.82591 27.1741V27.1632H5.81462L5.80145 27.1491V27.1413H5.79487L5.77699 27.1233V27.1218L5.72901 27.0702V27.0608H5.72243L5.70455 27.0429V27.0413H5.70361L5.65658 26.9882V26.9804H5.64999C5.57756 26.8984 5.50606 26.814 5.43739 26.7289V26.718H5.42892C5.41575 26.7016 5.40258 26.6844 5.38941 26.668V26.6586H5.38188L5.34049 26.6055V26.5977H5.33485C5.32073 26.5797 5.30662 26.5594 5.29251 26.5414V26.5368H5.28969L5.26899 26.5079V26.4969H5.26053C5.24642 26.479 5.23325 26.4602 5.22008 26.4438V26.436H5.21067C5.18715 26.404 5.16551 26.3719 5.14294 26.3399V26.3352H5.14011C5.10813 26.2892 5.07614 26.2423 5.0451 26.1962V26.1931H5.04416L5.02158 26.1595V26.1532H5.01782L4.99806 26.1212V26.1118H4.99242L4.9736 26.083V26.072H4.96702L4.94914 26.0431V26.0306H4.94162L4.92469 26.0048V25.9908H4.91622L4.90023 25.965V25.9494H4.89176L4.87577 25.9236V25.9096H4.8673L4.85037 25.8822V25.8682H4.84378L4.82591 25.8408V25.8283H4.81932L4.80145 25.7963V25.7885H4.79675L4.77699 25.7533V25.7471H4.77417L4.75347 25.7088V25.7073H4.75253C4.72807 25.6612 4.70361 25.6159 4.6801 25.5698V25.5651H4.67727C4.66128 25.5346 4.64623 25.5042 4.63118 25.4737V25.4643H4.62647L4.60672 25.4229V25.4034H4.59731L4.58226 25.373V25.3636H4.57756L4.5578 25.3206V25.3027H4.54933L4.53334 25.2675V25.2628H4.53146L4.50982 25.2128V25.2019H4.50418C4.45338 25.0863 4.40634 24.9684 4.36401 24.8512V24.8387H4.3593C4.35272 24.8192 4.34613 24.8004 4.33955 24.7809V24.7583H4.33202L4.31603 24.7122V24.6966H4.31133L4.29157 24.6372V24.6161H4.28499L4.26711 24.5614V24.5357H4.25865L4.24265 24.4825V24.4747H4.24077C4.23325 24.449 4.22572 24.4232 4.21819 24.3951V24.3935C4.20126 24.3326 4.18527 24.2717 4.17022 24.2107V24.1928H4.16551C4.15893 24.1639 4.15234 24.1365 4.14576 24.1076V24.0725H4.13823C4.13259 24.0467 4.12694 24.0225 4.1213 23.9959V23.9499H4.11283C4.10719 23.9225 4.10248 23.8952 4.09684 23.8686V23.8288H4.08931C4.08367 23.7936 4.07803 23.7585 4.07238 23.7233V23.7069H4.06956C4.06203 23.657 4.05451 23.6046 4.04792 23.5546V23.5062H4.04228C4.03569 23.4484 4.02911 23.389 4.0244 23.3305V23.2039H4.01406C4.00747 23.1063 4.00277 23.0087 4.00089 22.911C5.65093 25.4495 8.84378 27.1928 12.5371 27.2819C12.6331 27.285 12.73 27.2881 12.8278 27.2881C15.9021 27.2881 18.4035 25.2792 18.4035 22.8111V10H27.0395C27.142 10.0047 27.2445 10.0109 27.3452 10.0195H27.3461C27.4026 10.0242 27.459 10.0305 27.5155 10.0359V10.0391H27.5522C27.5964 10.0437 27.6415 10.05 27.6867 10.0555V10.0586H27.7196C27.8476 10.075 27.9746 10.0953 28.0997 10.1179V10.1195H28.1091L28.1966 10.1359V10.139H28.2173C28.2427 10.1453 28.2681 10.15 28.2944 10.1554V10.1601H28.316C28.4317 10.1828 28.5465 10.2101 28.6594 10.2382V10.2398H28.6651L28.7328 10.2578V10.2609H28.7422L28.8052 10.2773V10.2804H28.8165L28.8786 10.2984V10.2999H28.888L28.952 10.3179V10.3195H28.9567C29.0197 10.339 29.0827 10.3593 29.1458 10.3788V10.3804H29.1505C29.19 10.3944 29.2286 10.4062 29.2681 10.4202V10.4218H29.2709L29.317 10.4374V10.4421H29.3302C29.3668 10.4546 29.4026 10.4679 29.4383 10.4819H29.4412L29.4873 10.4999V10.5014H29.4948C29.6246 10.5514 29.7516 10.6038 29.8767 10.6584V10.6631H29.8871L29.9256 10.6811V10.6842H29.9322L29.9746 10.7022V10.7037H29.9764C30.0997 10.76 30.2201 10.8193 30.3386 10.8834V10.8849H30.3424C30.365 10.8974 30.3885 10.9092 30.4111 10.9217V10.9263H30.4167C30.4393 10.9388 30.4619 10.9506 30.4844 10.9631V10.9662H30.4901L30.5569 11.0045V11.006H30.5616L30.6302 11.0474C30.6632 11.0669 30.6952 11.0857 30.7281 11.1052V11.1083H30.7318C30.7629 11.1263 30.7939 11.1466 30.8259 11.1661V11.1677H30.8297C30.8692 11.1935 30.9087 11.2192 30.9473 11.2458V11.2489H30.9529C30.9924 11.2747 31.031 11.3005 31.0696 11.3286V11.3302H31.0714C31.1279 11.37 31.1843 11.4098 31.2389 11.4504V11.452H31.2398L31.2634 11.4684V11.4715H31.2671L31.2869 11.4872V11.4918H31.2935L31.3113 11.5059V11.5121H31.3198C31.4694 11.6262 31.6124 11.7457 31.7497 11.8707V11.8769H31.7554L31.7732 11.8925V11.8972H31.777L31.7968 11.9152V11.9167H31.7977C31.8899 12.0019 31.9783 12.0894 32.0639 12.1792C32.0884 12.205 32.1128 12.2292 32.1364 12.2557V12.2604H32.1401C32.1636 12.2862 32.1862 12.3104 32.2097 12.337V12.3416H32.2135C32.237 12.3674 32.2596 12.3932 32.2822 12.4197V12.4229H32.2841C32.3508 12.4994 32.4148 12.5783 32.4769 12.658V12.6658H32.4826L32.5258 12.722V12.7251H32.5286C32.6227 12.8501 32.7102 12.9766 32.793 13.1079V13.1094H32.7939L32.8165 13.1461V13.1493H32.8184L32.84 13.1844V13.1907H32.8429L32.8635 13.2258V13.2305H32.8664L32.888 13.2672V13.2719H32.8908C32.9068 13.2977 32.9219 13.325 32.9369 13.3516V13.3531C32.9614 13.3961 32.9858 13.4398 33.0094 13.4843V13.4937H33.015L33.0338 13.532V13.5351H33.0357C33.0517 13.5656 33.0677 13.596 33.0827 13.6265V13.6359H33.0865C33.1194 13.7015 33.1495 13.7686 33.1796 13.8358V13.8374H33.1806C33.1881 13.8553 33.1966 13.8741 33.2032 13.8921V13.8983H33.206L33.2276 13.9483V13.9592H33.2314C33.238 13.9756 33.2455 13.9928 33.2511 14.0092V14.0186H33.2549C33.2615 14.0366 33.2681 14.0537 33.2746 14.0701V14.0795H33.2775L33.2982 14.1357V14.1404H33.2991C33.3433 14.2607 33.3838 14.3833 33.4186 14.5068V14.5232H33.4233C33.4299 14.5474 33.4365 14.5708 33.443 14.595V14.6044H33.4449C33.4619 14.6669 33.4769 14.7294 33.491 14.7918C31.746 13.4937 29.4186 12.6916 26.9162 12.6916C26.857 12.6916 26.7977 12.6931 26.7375 12.6947C26.7064 12.6931 26.6763 12.6916 26.6434 12.6916H21.6491V22.8134V22.8423V22.8665C21.6481 22.9868 21.6434 23.1079 21.6349 23.2266H21.6246V23.3562C21.618 23.4281 21.6095 23.5 21.6011 23.5695V23.5726C21.5954 23.6187 21.5889 23.6655 21.5813 23.7101H21.5766V23.7421C21.5719 23.7726 21.5663 23.8015 21.5616 23.8319H21.5522V23.8819C21.5465 23.9124 21.5409 23.9428 21.5343 23.9717H21.5286V24.0037C21.5221 24.0342 21.5164 24.0631 21.5098 24.0936H21.5042V24.1178C21.4976 24.1498 21.4891 24.1818 21.4816 24.2139H21.4807V24.2201C21.4731 24.2521 21.4647 24.2842 21.4571 24.3146V24.3162C21.4496 24.342 21.443 24.3693 21.4355 24.3958H21.4336V24.4068C21.427 24.4294 21.4195 24.4544 21.4129 24.4771H21.4092V24.4911L21.3941 24.5388H21.3838V24.5724L21.3687 24.62H21.3593V24.6489L21.3414 24.7005H21.3349V24.72C21.3283 24.7395 21.3217 24.7614 21.3151 24.7809H21.3113V24.7918C21.2953 24.8364 21.2793 24.8785 21.2634 24.9215H21.2624V24.9246L21.2398 24.9824H21.238V24.9871L21.2154 25.0434H21.2135V25.048C21.206 25.066 21.1984 25.0847 21.1909 25.1043H21.189V25.109L21.174 25.1441H21.1646V25.1652L21.1476 25.205H21.1401V25.2207C21.1335 25.2363 21.1279 25.2511 21.1204 25.2667H21.1157V25.2777L21.1025 25.3066H21.0912V25.3292L21.0733 25.3675H21.0667V25.3816C21.0592 25.3972 21.0526 25.412 21.0451 25.4276H21.0423V25.4339C21.0263 25.4659 21.0103 25.4979 20.9943 25.53H20.9934V25.5315C20.9698 25.5792 20.9463 25.6245 20.9209 25.6705V25.6721L20.8993 25.7119H20.8965V25.7166L20.8777 25.7518H20.872V25.7627L20.8551 25.7932H20.8476V25.8057L20.8316 25.833H20.8231V25.8486L20.808 25.8728H20.7986V25.8892L20.7845 25.9135H20.7742V25.9314L20.7601 25.9525H20.7497V25.9705L20.7356 25.9931H20.7253V26.0095C20.6575 26.1197 20.587 26.229 20.5117 26.336H20.507V26.3438L20.4844 26.3759H20.4825V26.379C20.4684 26.3985 20.4543 26.4172 20.4402 26.4368H20.4336V26.4461L20.4111 26.4782H20.4101V26.4797L20.3969 26.4977H20.3857V26.5133L20.3668 26.5375H20.3612V26.5453C20.348 26.5633 20.3339 26.5805 20.3207 26.5985H20.3123V26.6094L20.2897 26.6399H20.2888V26.6414C20.2737 26.6594 20.2587 26.6797 20.2427 26.6992H20.2408V26.7023C20.2257 26.7219 20.2097 26.7406 20.1947 26.7601H20.1928V26.7633C20.1382 26.8289 20.0818 26.896 20.0244 26.9617H20.0225V26.9648L20.0075 26.9812H19.9981V26.9921L19.9529 27.0421H19.9501V27.0468L19.935 27.0624H19.9256V27.0733L19.8795 27.1233H19.8767V27.1265L19.8607 27.1429H19.8523V27.1522C19.8297 27.1764 19.8071 27.2007 19.7845 27.2241H19.7798V27.2303C19.7488 27.2624 19.7168 27.2944 19.6848 27.3248H19.682V27.328C19.6425 27.3678 19.602 27.4076 19.5616 27.4467H19.5606V27.4483L19.5409 27.4662H19.5362V27.4709L19.5192 27.4865H19.5117V27.4943C19.4637 27.5404 19.4148 27.5842 19.3668 27.6287H19.3659L19.3443 27.6482H19.3424V27.6498L19.3217 27.6693H19.3189V27.6709L19.2991 27.6888H19.2953V27.6919L19.2765 27.7084H19.2709V27.713L19.2539 27.7287H19.2474V27.7349L19.2304 27.749H19.2229V27.7568L19.2069 27.7708H19.1984V27.7786C19.1288 27.8364 19.0573 27.8942 18.9849 27.9528H18.9793V27.9575L18.9595 27.9731H18.9548V27.9763L18.9341 27.9927H18.9313V27.9958L18.9087 28.0137H18.9068C18.8635 28.0473 18.8193 28.0809 18.7751 28.1145H18.7601V28.1254L18.7469 28.1348H18.7356V28.1426L18.7187 28.1551H18.7111V28.1614L18.6914 28.1754H18.6867V28.1786L18.6632 28.1965C18.6255 28.2239 18.5879 28.2496 18.5493 28.2762H18.5418V28.2824L18.5202 28.2981H18.5174V28.2996C18.4487 28.3473 18.3791 28.3941 18.3085 28.4386H18.2991V28.4465L18.2784 28.4605H18.2756V28.4621C18.2558 28.4761 18.2351 28.4879 18.2144 28.5004H18.2022V28.5082L18.1815 28.5207H18.1787V28.5238C18.158 28.5363 18.1382 28.5496 18.1175 28.5621H18.1063V28.5699L18.0846 28.5824H18.0827V28.5839C18.0611 28.598 18.0385 28.6097 18.0169 28.6238H18.0094V28.6269C17.9896 28.6394 17.9689 28.6511 17.9492 28.6636H17.9369V28.6714L17.9143 28.6839H17.9134V28.6855C17.8899 28.698 17.8664 28.7112 17.8438 28.7253H17.841V28.7269C17.7939 28.7526 17.745 28.78 17.697 28.8065H17.6952C17.6575 28.8276 17.6208 28.8479 17.5841 28.8659H17.5738V28.8721C17.5512 28.8846 17.5277 28.8948 17.5042 28.9073H17.5004V28.9089L17.4647 28.9268H17.4515V28.9331L17.3838 28.9682H17.3781V28.9698L17.3414 28.9877H17.3301V28.994L17.2577 29.0276H17.2568L17.2154 29.0487H17.2088V29.0518C17.1373 29.0838 17.0649 29.1174 16.9915 29.1494H16.9896L16.9444 29.1689H16.9416V29.1705L16.8983 29.1885H16.8936V29.19C16.8795 29.1963 16.8664 29.2041 16.8513 29.208H16.8457V29.2111L16.8024 29.2291H16.7968V29.2306L16.7525 29.2486H16.7488V29.2502L16.7027 29.2681H16.6999V29.2697L16.6528 29.2877H16.6519V29.2892C16.6349 29.2955 16.6171 29.3017 16.6001 29.3088H16.5794V29.3166L16.5475 29.3291H16.5305V29.3353L16.4938 29.3494H16.4816V29.3541L16.4393 29.3697H16.4336V29.3728C16.3386 29.4064 16.2445 29.44 16.1486 29.4704H16.142V29.4736L16.0874 29.4915H16.0686V29.4978C16.0536 29.5025 16.0385 29.5071 16.0235 29.5118H16.0197V29.5134L15.9586 29.5314H15.9473V29.5345L15.8936 29.5509H15.8739V29.5571L15.825 29.5728H15.8015V29.579L15.7554 29.5931H15.729V29.6009L15.6848 29.6134H15.681V29.6149C15.6575 29.6212 15.634 29.6274 15.6105 29.6329H15.6077V29.6345C15.5305 29.654 15.4524 29.6743 15.3744 29.6938H15.364V29.6969L15.2906 29.7134H15.2662V29.7196L15.2031 29.7337H15.1693V29.7415L15.111 29.7555H15.0714V29.7633L15.0169 29.7758H14.9981V29.779C14.9708 29.7852 14.9426 29.7915 14.9153 29.7954H14.9002V29.7985C14.8711 29.8047 14.8419 29.811 14.8118 29.8149H14.8033V29.8165C14.6867 29.8391 14.5691 29.8578 14.4515 29.8758H14.4139V29.8821C14.3791 29.8867 14.3452 29.8914 14.3104 29.8961H14.2671V29.9024C14.2314 29.9071 14.1947 29.9133 14.158 29.918H14.0968V29.9242C14.0583 29.9289 14.0197 29.9336 13.9802 29.9383H13.9266V29.943C13.7845 29.9586 13.6406 29.9703 13.4967 29.9781H13.3424V29.9859C13.173 29.9953 13.0037 30 12.8325 30C12.6566 29.9984 12.4854 29.9938 12.317 29.9852Z" fill="#0089CF"/>
<path fill-rule="evenodd" clip-rule="evenodd" d="M35.9981 23.0298C35.9709 20.9935 34.8937 19.1674 33.2042 17.9192C33.477 17.2905 33.6228 16.6133 33.6228 15.9057C33.6228 15.5276 33.5795 15.1582 33.4977 14.7997C31.7526 13.5015 29.4252 12.6994 26.9229 12.6994C26.8636 12.6994 26.8043 12.7009 26.7441 12.7025C28.7526 12.7455 30.3716 14.1654 30.3716 15.9064C30.3716 16.1228 30.3462 16.3352 30.2982 16.5399C30.2004 16.964 30.0028 17.3577 29.73 17.7037C29.2437 18.341 29.366 19.0416 30.1148 19.3955C30.5946 19.6103 31.0301 19.893 31.3989 20.2242C32.2333 20.9779 32.7479 21.9941 32.7479 23.1133C32.7479 25.266 30.8467 27.0429 28.4102 27.2733C31.9135 27.146 34.7837 25.4433 35.9981 23.0298Z" fill="#CE181E"/>
<path fill-rule="evenodd" clip-rule="evenodd" d="M28.4111 27.2725C28.2361 27.2881 28.0583 27.2967 27.8777 27.2967H22.6218C21.7244 27.2967 20.9953 27.9021 20.9953 28.6472C20.9953 29.3931 21.7244 29.9984 22.6218 29.9984H27.8777C32.3556 29.9984 36 26.9078 36 23.1126C36 23.0837 35.9991 23.0579 35.9991 23.0305C34.7836 25.4433 31.9135 27.146 28.4111 27.2725Z" fill="#ED1C24"/>
</svg>
