<?xml version="1.0" encoding="utf-8"?>
<!-- Generator: Adobe Illustrator 24.0.1, SVG Export Plug-In . SVG Version: 6.00 Build 0)  -->
<svg version="1.1" id="Слой_1" xmlns="http://www.w3.org/2000/svg" xmlns:xlink="http://www.w3.org/1999/xlink" x="0px" y="0px"
	 width="250px" height="33px" viewBox="0 0 250 33" style="enable-background:new 0 0 250 33;" xml:space="preserve">
<style type="text/css">
	.st0{clip-path:url(#SVGID_2_);}
	.st1{fill:#DB0334;}
	.st2{fill-rule:evenodd;clip-rule:evenodd;fill:#DB0334;}
</style>
<g>
	<defs>
		<rect id="SVGID_1_" x="-0.2" width="250" height="32.6"/>
	</defs>
	<clipPath id="SVGID_2_">
		<use xlink:href="#SVGID_1_"  style="overflow:visible;"/>
	</clipPath>
	<g class="st0">
		<path class="st1" d="M208,7.4h2.1c0.9,0,1.4-0.6,1.4-1.3c0-0.8-0.6-1.2-1.4-1.2H208V7.4z M212.8,0v1.5H208v1.9h2.3
			c1.7,0,3.1,1,3.1,2.8c0,1.8-1.3,2.7-3.1,2.7h-4.2V0H212.8z"/>
		<path class="st1" d="M220,5.6h2.4L221.2,2h0L220,5.6z M222.3,0l3.1,8.9h-2l-0.6-1.8h-3.3l-0.6,1.8h-2l3.2-8.9H222.3z"/>
		<path class="st1" d="M231,3.4h3.5V0h1.9v8.9h-1.9v-4H231v4h-1.9V0h1.9V3.4z"/>
		<path class="st1" d="M242.2,3.6l3.4-3.6h2.4l-3.6,3.7l3.9,5.3h-2.4L243.1,5l-0.9,0.9v3h-1.9V0h1.9V3.6z"/>
		<path class="st2" d="M74,28.9l0.3,0.1l-0.5,2c-1.3,0.7-2.8,1-4.6,1c-1.2,0-2.4-0.2-3.4-0.5c-1.1-0.4-2-0.9-2.8-1.6
			c-0.8-0.7-1.4-1.5-1.8-2.5c-0.4-0.9-0.7-2-0.7-3.2c0-1.5,0.3-2.8,0.7-3.9c0.5-1.1,1.1-2,2-2.8c0.8-0.7,1.8-1.3,2.9-1.6
			c1.1-0.4,2.3-0.5,3.6-0.5c0.8,0,1.6,0.1,2.5,0.3c0.9,0.2,1.6,0.5,2.2,0.8c-0.1,0.4-0.2,0.8-0.3,1.2c-0.1,0.5-0.2,0.9-0.3,1.1h-0.3
			c-0.4-0.6-1-1.2-1.7-1.5c-0.7-0.4-1.4-0.6-2.1-0.6c-0.9,0-1.7,0.2-2.4,0.6c-0.7,0.4-1.3,0.9-1.7,1.6c-0.5,0.7-0.8,1.4-1,2.3
			c-0.2,0.8-0.3,1.7-0.3,2.6c0,1.3,0.2,2.5,0.6,3.5c0.4,1,1.1,1.8,1.9,2.4c0.8,0.6,1.8,0.9,3,0.9c0.7,0,1.4-0.2,2.2-0.5
			C72.8,29.8,73.5,29.4,74,28.9z"/>
		<path class="st2" d="M92.8,20.8c-0.3-1-0.8-1.8-1.4-2.6c-0.6-0.8-1.5-1.5-2.6-2c-1.1-0.5-2.4-0.7-4-0.7c-1.4,0-2.7,0.2-3.8,0.6
			c-1.1,0.4-2.1,1-2.9,1.8c-0.8,0.8-1.4,1.7-1.8,2.7c-0.4,1-0.6,2.1-0.6,3.2c0,1.7,0.3,3.2,1.1,4.5c0.7,1.2,1.7,2.2,3,2.9
			c1.3,0.6,2.8,1,4.5,1c1.4,0,2.6-0.2,3.8-0.7c1.1-0.4,2.1-1,2.9-1.8c0.8-0.8,1.4-1.7,1.8-2.7c0.4-1,0.6-2.1,0.6-3.2
			C93.3,22.7,93.1,21.7,92.8,20.8z M86.8,17.4c0.6,0.4,1.1,0.9,1.5,1.5c0.4,0.6,0.7,1.3,0.9,2.1c0.2,0.7,0.3,1.5,0.3,2.3
			c0,1.3-0.2,2.6-0.6,3.7c-0.4,1.1-1,2.1-1.7,2.7c-0.8,0.7-1.7,1-2.9,1c-1.1,0-2-0.3-2.7-0.9c-0.7-0.6-1.3-1.4-1.6-2.3
			c-0.3-0.9-0.5-1.9-0.5-3c0-1.7,0.2-3.1,0.6-4.3c0.4-1.1,1-2,1.8-2.5c0.8-0.5,1.7-0.8,2.8-0.8C85.4,16.8,86.2,17,86.8,17.4z"/>
		<path class="st2" d="M100,15.8c0,0,0.2,0,0.4,0.1c0.2,0,0.4,0.1,0.6,0.1c0.1,0,0.1,0,0.2,0c0.1,0,0.2,0,0.3,0c0.1,0,0.2,0,0.2,0
			c0.1,0,0.2,0,0.3,0c0.5,1.4,1,2.7,1.4,3.7c0.4,1.1,0.9,2.4,1.5,4c0.6,1.6,1.1,2.8,1.4,3.7c0.4,0.9,1,2.4,1.8,4.5
			c-0.3,0-0.6-0.1-0.8-0.1c-0.2,0-0.5,0-0.7-0.1c-0.2,0-0.4,0-0.6,0c-0.2,0-0.3,0-0.6,0c-0.2,0-0.5,0-0.7,0.1c-0.2,0-0.5,0-0.8,0.1
			c-0.3-0.9-0.5-1.8-0.9-2.7c-0.3-1-0.6-1.8-0.9-2.5c-0.3-0.7-0.7-1.7-1.1-3c-0.5-1.3-0.9-2.3-1.2-3.3c-1.9,4.6-3.3,8.4-4.3,11.5
			c-0.4-0.1-0.7-0.1-1.1-0.1c-0.4,0-0.7,0-1.1,0.1c0.7-1.5,1.3-3,1.8-4.2c0.5-1.3,1.1-2.5,1.6-3.8c0.5-1.2,1-2.5,1.5-3.8
			C99,18.5,99.5,17.2,100,15.8z"/>
		<path class="st2" d="M110.8,31.8V15.9c0.3,0,0.5,0,0.7,0.1c0.2,0,0.4,0,0.6,0.1c0.2,0,0.3,0,0.5,0c0.1,0,0.3,0,0.5,0
			c0.2,0,0.4,0,0.6-0.1c0.2,0,0.4,0,0.7-0.1v10.9c0.7-0.7,1.5-1.6,2.3-2.5c0.8-0.9,1.6-1.9,2.3-2.8c0.7-0.9,1.5-1.9,2.2-2.9
			c0.8-1,1.4-1.9,2-2.7c0.2,0,0.4,0,0.7,0c0.5,0,0.8,0,1,0v15.9c-0.2,0-0.5,0-0.9,0c-0.4,0-0.7,0-0.9,0c-0.2,0-0.5,0-0.8,0
			c-0.4,0-0.6,0-0.9,0v-11c-0.7,0.8-1.4,1.6-2,2.4c-0.7,0.8-1.5,1.8-2.4,2.9c-0.9,1.1-1.7,2.1-2.4,3.1c-0.7,0.9-1.4,1.8-2,2.6
			c-0.2,0-0.4,0-0.7,0C111.3,31.7,111,31.8,110.8,31.8z"/>
		<path class="st2" d="M127.5,31.2c0,0.5,0,0.9-0.1,1.2h0.4c0.3-0.3,0.8-0.6,1.4-0.6c0.7-0.1,1.5-0.2,2.5-0.2h6.8
			c0.9,0,1.7,0,2.4,0.2c0.6,0.1,1.1,0.3,1.4,0.6h0.4c-0.1-0.4-0.1-0.9-0.1-1.2c0-0.1,0-0.5,0.1-1.2h-1.1c-2.1-5.2-4-10-5.5-14.2
			c-0.1,0-0.3,0-0.5,0c-0.2,0-0.4,0-0.5,0c-0.1,0-0.3,0-0.5,0c-0.2,0-0.4,0-0.5,0c-0.3,1-0.8,2.1-1.2,3.3c-0.5,1.2-1,2.5-1.5,3.7
			c-0.5,1.3-1,2.4-1.4,3.4c-0.4,0.9-0.9,2.2-1.6,3.8h-1C127.5,30.5,127.5,30.9,127.5,31.2z M132,30c-0.7,0-1.2,0-1.6-0.1
			c0.8-2.2,2-5.5,3.7-9.8c0.8,2.2,1.5,4,2.1,5.5c0.6,1.5,1,2.9,1.5,4.3c-0.4,0-1,0-1.7,0.1c-0.7,0-1.4,0-2.1,0
			C133.3,30,132.7,30,132,30z"/>
		<path class="st2" d="M154.7,31.7c0.2,0,0.5,0,1,0c0.4,0,0.8,0,1,0c0.2,0,0.6,0,1,0c0.5,0,0.8,0,1,0l-6.5-16.1
			c-0.3,0-0.6,0.1-0.9,0.1c-0.3,0-0.6,0-0.9-0.1l-6.6,16c0.1,0,0.3,0,0.6,0c0.2,0,0.4,0,0.5,0c0.1,0,0.3,0,0.6,0c0.3,0,0.4,0,0.5,0
			c0.1-0.4,0.3-0.9,0.4-1.4c0.2-0.5,0.4-1.1,0.6-1.8c0.3-0.7,0.5-1.2,0.6-1.6h5.4C153.4,27.9,154,29.5,154.7,31.7z M150.5,20.1
			l2.1,5.4h-4.2L150.5,20.1z"/>
		<path class="st2" d="M167.4,24.4c1-0.3,1.9-0.8,2.5-1.5c0.6-0.7,0.9-1.8,0.9-3.1c0-1.3-0.4-2.3-1.3-2.9c-0.9-0.6-2.1-1-3.7-1h-5.7
			v15.9c0.2,0,0.5,0,0.9,0c0.4,0,0.7,0,0.9,0c0.2,0,0.5,0,0.9,0c0.4,0,0.7,0,0.9,0l0-6.9C165.1,24.8,166.3,24.6,167.4,24.4z
			 M165,17.1c0.6,0,1.1,0.3,1.6,0.8c0.4,0.6,0.6,1.3,0.6,2.2c0,0.8-0.2,1.4-0.5,2c-0.3,0.6-0.9,0.9-1.6,1.1
			c-0.3,0.1-0.9,0.1-1.5,0.2l0-6.4L165,17.1z"/>
		<path class="st2" d="M173,31.7V15.8c0.3,0,0.5,0,0.7,0.1c0.2,0,0.4,0,0.6,0.1c0.2,0,0.4,0,0.5,0c0.1,0,0.3,0,0.5,0
			c0.2,0,0.4,0,0.6-0.1c0.2,0,0.4,0,0.7-0.1v6.3c1.9,0.1,3.1,0.1,3.5,0.1c0.4,0,1.5,0,3.6-0.1v-6.3c0.3,0,0.5,0,0.7,0.1
			c0.2,0,0.4,0,0.6,0.1c0.2,0,0.4,0,0.5,0c0.1,0,0.3,0,0.5,0c0.2,0,0.4,0,0.6-0.1c0.2,0,0.4,0,0.7-0.1v15.9c-0.2,0-0.5,0-0.9,0
			c-0.4,0-0.7,0-0.9,0c-0.2,0-0.5,0-0.8,0c-0.4,0-0.7,0-0.9,0V24c-1.6-0.1-2.8-0.1-3.6-0.1c-0.8,0-2,0-3.5,0.1v7.7
			c-0.2,0-0.5,0-0.9,0c-0.4,0-0.7,0-0.9,0c-0.2,0-0.5,0-0.9,0C173.5,31.7,173.2,31.7,173,31.7z"/>
		<path class="st2" d="M207,20.8c-0.3-1-0.8-1.8-1.4-2.6c-0.6-0.8-1.5-1.5-2.6-2c-1.1-0.5-2.5-0.7-4-0.7c-1.4,0-2.7,0.2-3.8,0.6
			c-1.1,0.4-2.1,1-2.9,1.8c-0.8,0.8-1.4,1.7-1.8,2.7c-0.4,1-0.6,2.1-0.6,3.2c0,1.7,0.4,3.2,1.1,4.5c0.7,1.2,1.7,2.2,3,2.9
			c1.3,0.6,2.8,1,4.5,1c1.4,0,2.6-0.2,3.8-0.7c1.1-0.4,2.1-1,2.9-1.8c0.8-0.8,1.4-1.7,1.8-2.7c0.4-1,0.6-2.1,0.6-3.2
			C207.5,22.7,207.3,21.7,207,20.8z M201,17.4c0.6,0.4,1.1,0.9,1.5,1.5c0.4,0.6,0.7,1.3,0.9,2.1c0.2,0.7,0.3,1.5,0.3,2.3
			c0,1.3-0.2,2.6-0.6,3.7c-0.4,1.1-1,2.1-1.7,2.7c-0.8,0.7-1.7,1-2.9,1c-1.1,0-2-0.3-2.7-0.9c-0.7-0.6-1.3-1.4-1.6-2.3
			c-0.4-0.9-0.5-1.9-0.5-3c0-1.7,0.2-3.1,0.6-4.3c0.4-1.1,1-2,1.8-2.5c0.8-0.5,1.7-0.8,2.8-0.8C199.6,16.8,200.3,17,201,17.4z"/>
		<path class="st2" d="M222.6,28.7l0.3,0.1l-0.5,2c-1.3,0.7-2.8,1-4.6,1c-2.2,0-4.5-0.6-6.2-2.1c-0.8-0.7-1.4-1.5-1.8-2.5
			c-0.4-1-0.6-2-0.6-3.2c0-1.5,0.2-2.8,0.7-3.9c0.5-1.1,1.1-2.1,2-2.8c0.9-0.7,1.8-1.3,2.9-1.6c1.1-0.3,2.3-0.5,3.6-0.5
			c0.8,0,1.6,0.1,2.5,0.3c0.9,0.2,1.6,0.5,2.2,0.8c-0.1,0.4-0.2,0.8-0.3,1.2c-0.1,0.5-0.2,0.9-0.3,1.2h-0.3c-0.5-0.7-1-1.2-1.7-1.6
			c-0.7-0.4-1.4-0.6-2.1-0.6c-0.9,0-1.7,0.2-2.4,0.6c-0.7,0.4-1.2,1-1.7,1.6c-0.4,0.7-0.8,1.4-1,2.3c-0.2,0.8-0.3,1.7-0.3,2.6
			c0,1.3,0.2,2.5,0.6,3.5c0.4,1,1.1,1.8,1.9,2.4c0.8,0.6,1.8,0.9,3,0.9c0.7,0,1.4-0.2,2.2-0.5C221.4,29.6,222,29.2,222.6,28.7z"/>
		<path class="st2" d="M232.8,17.5v14.2c-0.2,0-0.5,0-0.9,0c-0.4,0-0.7,0-0.9,0c-0.2,0-0.5,0-0.9,0c-0.4,0-0.7,0-0.9,0V17.5
			c-1.3,0-2.7,0.1-4.3,0.3c0.1-0.5,0.1-0.9,0.1-1c0-0.1,0-0.4-0.1-1h11.9c0,0.2,0,0.3-0.1,0.4c0,0.1,0,0.2,0,0.3c0,0.1,0,0.2,0,0.3
			c0,0.1,0,0.2,0,0.3c0,0.1,0,0.2,0,0.3c0,0.1,0,0.2,0.1,0.4C235.1,17.6,233.7,17.5,232.8,17.5z"/>
		<path class="st2" d="M241.8,15.9c-0.4,0-0.7,0-0.9,0c-0.2,0-0.5,0-0.9,0c-0.3,0-0.6,0-0.8-0.1v15.9h4.6c1.8,0,3.2-0.4,4.3-1.1
			c1.1-0.7,1.7-2,1.7-3.9c0-1.3-0.4-2.3-1.3-2.9c-0.8-0.7-2.1-1-3.7-1h-2.2v-6.9C242.4,15.8,242.2,15.8,241.8,15.9z M244.1,24
			c0.6,0,1.1,0.3,1.5,0.9c0.4,0.6,0.6,1.3,0.6,2.2c0,0.8-0.2,1.4-0.5,2c-0.3,0.6-0.9,0.9-1.6,1.2c-0.4,0.1-0.9,0.2-1.5,0.2V24H244.1
			z"/>
		<path class="st2" d="M42.4,11.9c0.3,0,0.6-0.1,1-0.2l10.8-4.1C52.6,5.2,48.6,0.5,42.5,0c-0.5,0-1,0-1.4,0
			c-5.9,0-10.5,2.7-13.5,7.4c-1.9,3.1-2.4,6.3-2.4,8.7c0,1.6,0.2,2.8,0.3,3.4c0.2,1.4,0.9,2.8,1.3,3c0.3,0.2,0.7,0.3,1.1,0.3
			c0.3,0,0.5,0,0.8-0.1l10.7-4c-0.3-0.5-1-1.7-2.2-4.3c-1.9-4.2-2.6-6.6-2.8-8.5c0-0.2,0-0.3,0-0.5c0-0.5,0.3-1.1,0.8-1.1
			c0.7,0,1.4,0.7,2.1,1.4c1.4,1.4,3.3,4.7,4,5.5C41.6,11.7,41.9,11.9,42.4,11.9z"/>
		<path class="st2" d="M40.2,20.6c-0.3,0-0.6,0.1-1,0.2l-10.7,4.1c1.5,2.3,5.5,7,11.6,7.4c0.5,0,0.9,0,1.4,0
			c5.9,0,10.5-2.7,13.5-7.4c1.9-3.1,2.4-6.3,2.4-8.7c0-1.6-0.2-2.8-0.3-3.4c-0.2-1.4-0.9-2.8-1.3-3.1c-0.3-0.2-0.6-0.3-1.1-0.3
			c-0.3,0-0.5,0-0.8,0.1l-10.7,4.1c0.3,0.5,1,1.7,2.2,4.3c1.9,4.2,2.6,6.6,2.8,8.5c0,0.2,0,0.3,0,0.4c0,0.5-0.3,1.1-0.8,1.1
			c-0.7-0.1-1.4-0.7-2.1-1.4c-1.4-1.4-3.3-4.7-3.9-5.5C40.9,20.7,40.6,20.6,40.2,20.6z"/>
		<path class="st1" d="M64.8,0.6h0.1l0.1,0l0.1,0l0.1,0c0.1,0.3,0.2,0.7,0.4,1c0.1,0.4,0.3,0.7,0.3,0.9l0.8,2l0.7,1.8l0.9,2.2
			l-0.4,0l-0.3,0l-0.3,0l-0.3,0c-0.1,0-0.1,0-0.2,0c0,0-0.1,0-0.2,0l-0.4,0c-0.1-0.4-0.3-0.9-0.4-1.4c-0.2-0.5-0.3-0.9-0.4-1.3
			l-0.6-1.5l-0.6-1.6c-0.9,2.3-1.7,4.2-2.2,5.7c-0.2,0-0.4,0-0.5,0c-0.2,0-0.4,0-0.5,0L62,6.3l0.8-1.9l0.8-1.9
			c0.1-0.3,0.2-0.6,0.4-1c0.1-0.4,0.3-0.7,0.4-1l0.2,0C64.6,0.6,64.7,0.6,64.8,0.6z"/>
		<path class="st1" d="M73.9,0.5c0,0.3-0.1,0.4-0.1,0.5s0,0.2,0.1,0.5c-0.8-0.1-1.7-0.2-2.7-0.2v2.5h1.2c0.3,0,0.8,0,1.4-0.1
			c0,0.2-0.1,0.4-0.1,0.5c0,0.1,0,0.3,0.1,0.5c-0.5-0.1-0.9-0.1-1.4-0.1h-1.2v2.9c1,0,1.9-0.1,2.7-0.2c0,0.3-0.1,0.4-0.1,0.5
			l0.1,0.5h-4.4V0.5H73.9z"/>
		<path class="st1" d="M78.4,8.4l-0.4,0l-0.4,0l-0.4,0l-0.4,0V1.4c-0.6,0-1.3,0.1-2.1,0.2c0-0.3,0.1-0.4,0.1-0.5
			c0-0.1,0-0.2-0.1-0.5h5.9l0,0.2l0,0.2l0,0.1l0,0.1l0,0.2l0,0.2c-0.9-0.1-1.6-0.2-2.1-0.2L78.4,8.4z"/>
		<path class="st1" d="M20.1,1.6l-9,11.1c1.1,0,2.3,0.3,3.5,0.7c1.2,0.4,2.2,1,3.2,1.8c1,0.8,1.7,1.7,2.3,3c0.6,1.2,0.9,2.6,0.9,4.2
			c0,1.6-0.3,3.1-0.9,4.3c-0.6,1.3-1.4,2.3-2.4,3.2c-1,0.9-2.1,1.6-3.4,2c-1.3,0.5-2.7,0.7-4.1,0.7c-1.3,0-2.4-0.2-3.5-0.5
			c-1-0.4-2-0.8-2.9-1.4c-0.9-0.6-1.6-1.2-2.3-2c-0.6-0.7-1.2-1.5-1.7-2.2l1.8-1.3C2,25.7,2.5,26.4,3,27c0.5,0.6,1.2,1.2,1.9,1.7
			c0.7,0.5,1.5,0.9,2.3,1.2c0.9,0.3,1.9,0.5,3,0.5c1.2,0,2.3-0.2,3.3-0.6c1-0.4,1.9-0.9,2.6-1.6c0.7-0.7,1.3-1.5,1.7-2.5
			c0.4-1,0.6-2.1,0.6-3.3c0-2.3-0.8-4.1-2.3-5.4c-1.5-1.3-3.7-2-6.5-2H7.3V14l8.8-11H1.8V0.9h18.3V1.6z"/>
	</g>
</g>
</svg>
