<?xml version="1.0" encoding="utf-8"?>
<!-- Generator: Adobe Illustrator 24.0.1, SVG Export Plug-In . SVG Version: 6.00 Build 0)  -->
<svg version="1.1" id="Слой_1" xmlns="http://www.w3.org/2000/svg" xmlns:xlink="http://www.w3.org/1999/xlink" x="0px" y="0px"
	 width="250px" height="100px" viewBox="0 0 250 100" style="enable-background:new 0 0 250 100;" xml:space="preserve">
<style type="text/css">
	.st0{fill-rule:evenodd;clip-rule:evenodd;fill:#A3003A;}
</style>
<g>
	<path class="st0" d="M197,99.2h-7.6c0,0-0.1,0-0.1-0.1c0,0,0-0.1,0-0.1c0.1-0.1,0.1-0.2,0.2-0.2c0.1-0.1,0.2-0.2,0.3-0.3
		c0.5-0.3,0.9-0.7,1.1-1.2c0.4-1.2,0.6-2.4,0.5-3.6c0-9.3,0-17.9,0-26.2c0-1.3-0.2-2.5-0.4-3.8c-0.1-0.8-0.6-1.4-1.3-1.8
		c-0.1-0.1-0.2-0.2-0.3-0.3c0-0.1-0.1-0.2-0.1-0.2c0,0,0-0.1,0-0.1c0,0,0.1-0.1,0.1-0.1h7.4c0,0,0.1,0,0.1,0.1
		c0.1,0.1,0.1,0.3,0,0.4c-0.1,0.1-0.2,0.2-0.3,0.3c-0.5,0.2-0.9,0.5-1,1c-0.4,0.9-0.6,1.9-0.5,2.9c0,1.4,0,2.9,0,4.3
		c0,0.5,0,1,0,1.4c0,0,0,0.1,0,0.1c0,0,0,0,0,0h9v-0.1c0-0.1,0-0.2,0-0.3c0-0.6,0-1.1,0-1.7c0-1.4,0-2.8-0.1-4.2
		c-0.1-0.8-0.2-1.5-0.4-2.2l0-0.2c-0.2-0.5-0.5-0.9-1.1-1.1c-0.1-0.1-0.2-0.2-0.3-0.3c0-0.1-0.1-0.1-0.1-0.2c0,0,0-0.1,0-0.1
		c0,0,0,0,0.1,0h7.6c0,0,0.1,0,0.1,0.1c0,0,0,0.1,0,0.1c-0.1,0.1-0.1,0.2-0.2,0.2c-0.1,0.1-0.2,0.2-0.3,0.3
		c-0.7,0.2-1.2,0.9-1.3,1.6L208,64c-0.2,1.5-0.3,2.9-0.3,4.4c0,7.5,0,15.6,0,24.9c0,1.2,0.2,2.3,0.4,3.5c0.1,0.8,0.6,1.5,1.3,1.8
		c0.1,0.1,0.2,0.2,0.2,0.3c0,0.1,0.1,0.1,0.1,0.2c0,0.1,0,0.1,0,0.1c0,0,0,0,0,0H202c-0.1,0-0.1,0-0.1-0.1c0,0,0,0,0-0.1
		c0.1-0.1,0.1-0.2,0.1-0.2c0.1-0.1,0.2-0.2,0.3-0.3c0.7-0.2,1.2-0.8,1.2-1.5l0-0.1c0.2-1.2,0.3-2.3,0.4-3.5c0-4.5,0-9.1,0-13.6
		c0-1.6,0-3.3,0-4.9c0-0.1,0-0.1,0-0.2c0,0,0,0,0,0h-9v5.5c0,4.4,0,8.8,0,13.3c-0.1,1.3,0.1,2.5,0.5,3.7c0.2,0.7,0.6,1.2,1.2,1.5
		c0.1,0.1,0.2,0.2,0.2,0.3c0,0.1,0.1,0.1,0.1,0.2C197.1,99.1,197.1,99.1,197,99.2C197.1,99.2,197.1,99.2,197,99.2z M219.2,99.2h-7.5
		c0,0-0.1,0-0.1,0c0,0,0-0.1,0-0.1c0-0.1,0.1-0.1,0.1-0.2c0-0.1,0.1-0.3,0.2-0.4c0.7-0.3,1.2-1,1.3-1.8c0.2-1,0.3-1.9,0.4-2.9
		c0-9.5,0-18.2,0-26.6c0-1.2-0.2-2.4-0.4-3.5l0-0.1c-0.1-0.8-0.6-1.4-1.3-1.7c-0.1-0.1-0.2-0.2-0.3-0.3c0-0.1-0.1-0.1-0.1-0.2
		c0,0,0-0.1,0-0.1c0,0,0.1-0.1,0.1-0.1h7.5c0,0,0.1,0,0.1,0.1c0,0,0,0.1,0,0.1c0,0.1-0.1,0.1-0.1,0.2c0,0.1-0.1,0.2-0.3,0.3
		c-0.7,0.2-1.2,0.8-1.3,1.6c-0.2,1.1-0.3,2.3-0.4,3.5c0,1.9,0,3.9,0,5.7c0,0.8,0,1.6,0,2.3c0,0,0,0.1,0,0.1c0,0,0,0,0,0l0.3-0.5
		c2-2.9,3.8-5.8,5.5-8.9c0.5-0.8,0.7-1.7,0.7-2.7c0-0.5-0.2-0.9-0.6-1.2c-0.1-0.1-0.2-0.2-0.2-0.3c0-0.1-0.1-0.1-0.1-0.2
		c0,0,0-0.1,0-0.1c0,0,0.1,0,0.1,0h7.5c0,0,0.1,0,0.1,0.1c0,0,0,0.1,0,0.1c0,0.1-0.1,0.1-0.1,0.2c-0.1,0.1-0.2,0.2-0.3,0.3
		c-1.3,0.3-2.4,1.1-3.1,2.2c-1.2,1.7-2.4,3.6-3.6,5.3c-0.3,0.5-0.6,0.9-0.9,1.4c0,0.1,0,0.3,0,0.4c3.5,6.5,5.4,13.5,6.8,20
		c0.4,1.9,0.9,3.9,1.4,5.7l0,0c0.1,0.7,0.5,1.3,1.1,1.5c0.1,0.1,0.2,0.2,0.2,0.3c0,0.1,0.1,0.1,0.1,0.2c0,0,0,0.1,0,0.1c0,0,0,0,0,0
		h-6.8c0,0-0.1,0-0.1,0c0,0,0-0.1,0-0.1c0-0.1,0-0.1,0-0.2c0-0.1,0.1-0.3,0.2-0.4c0.7-0.4,1-1.2,0.9-1.9c-0.1-1.5-0.2-3-0.5-4.5
		c-1.1-5.9-3-11.6-5.6-16.9c-0.1-0.1-0.1-0.2-0.2-0.4c-0.2,0.3-0.4,0.6-0.6,0.9c-0.5,0.8-1.1,1.6-1.6,2.4c-0.4,0.6-0.6,1.3-0.6,2
		c0,2,0,4.1,0,6c0,2.3,0,4.7,0,7.1c0,1.2,0.2,2.4,0.4,3.5c0.1,0.8,0.6,1.5,1.3,1.8c0.1,0.1,0.2,0.2,0.2,0.3c0,0.1,0.1,0.1,0.1,0.2
		C219.3,99.1,219.3,99.2,219.2,99.2C219.2,99.2,219.2,99.2,219.2,99.2L219.2,99.2z M166.1,81.6c-1.5-4.1-5.2-6.9-9.5-7.3
		c-0.4,0-0.7-0.1-1.1-0.1l-0.4,0v-0.1c0-0.1,0-0.2,0-0.4l0-2.1c0-1.7,0-3.4,0-5.2c0-0.3,0-0.7,0-1c0-0.5,0.4-1,0.9-1
		c0,0,0.1,0,0.1,0c0.9-0.1,1.7-0.1,2.6-0.1c1.8,0,3.6,0.9,4.6,2.4c1,1.4,1.6,3,1.9,4.7c0,0.1,0.1,0.2,0.1,0.3l0.1,0.2
		c0,0,0.1,0.1,0.1,0.1c0.1,0,0.1,0,0.2,0c0.1,0,0.1-0.1,0.1-0.1c-0.3-2.5-0.6-5-1-7.4c-0.2-1.2-0.3-2.4-0.5-3.7c0,0,0-0.1,0-0.1
		c0,0-0.1,0-0.1,0c-0.1,0-0.3,0.1-0.4,0.1c-0.2,0.1-0.5,0.2-0.7,0.2c-0.3,0-0.7,0.1-1,0.1H162c-2.9,0-5.7,0-8.6,0h-3.7
		c0,0-0.1,0-0.1,0l-0.1,0.1c0,0,0,0.1,0,0.1c0,0,0.1,0.1,0.1,0.1c0.1,0.1,0.1,0.2,0.3,0.3c0.7,0.3,1.2,0.9,1.3,1.7l0,0.2
		c0.2,1.1,0.3,2.3,0.4,3.5c0,9.4,0,18.6,0,26.4c0,0.8-0.1,1.6-0.2,2.4c0,1-0.6,2-1.5,2.5c-0.1,0.1-0.2,0.2-0.2,0.4
		c0,0.1,0,0.1-0.1,0.2c0,0.1,0,0.1,0.1,0.1c0,0,0,0,0,0h1.6h1.5c0.7,0,1.3,0,2,0c0.5,0,0.9,0,1.4,0c1.3,0,2.7,0,4.1-0.1
		c2.4-0.1,4.6-1.5,5.7-3.7c0.6-1.2,1.1-2.6,1.2-3.9C167.7,88.2,167.4,84.7,166.1,81.6z M163,92.3c-0.3,0.8-0.8,1.6-1.3,2.3
		c-1,1.3-2.7,2.1-4.4,1.9l-0.3,0c-0.3,0-0.6,0-1-0.1c-0.5,0-0.8-0.4-0.8-0.9c-0.1-0.5-0.1-1-0.1-1.6c0-4.6,0-9.3,0-13.9v-2.7
		c0-0.1,0-0.2,0-0.3V77h0.1c2.7-0.1,5.2,1.3,6.5,3.5c1,1.6,1.6,3.3,1.8,5.2C163.9,87.9,163.7,90.2,163,92.3L163,92.3z M70.3,99.3
		h-6.4c-0.1,0-0.1,0-0.2-0.1c0-0.1,0-0.1,0-0.2c0-0.1,0-0.1,0.1-0.2c0-0.2,0.1-0.3,0.3-0.4c0.7-0.3,1.1-0.9,1.1-1.7l0-0.1
		c0.1-1.1,0.2-2.2,0.3-3.3c0-4.8,0-9.7,0-14.5v-3.9c0-0.1,0-0.1,0-0.2H58v0.3c0,1.6,0,3.1,0,4.7c0,4.5,0,9.1,0,13.6
		c0,1.3,0.2,2.5,0.4,3.7c0.1,0.6,0.4,1.1,1,1.3c0.1,0.1,0.2,0.2,0.3,0.4c0,0.1,0.1,0.1,0.1,0.2c0.1,0.1,0,0.2-0.1,0.3
		c0,0-0.1,0-0.1,0h-6.4c-0.1,0-0.1,0-0.2-0.1c0-0.1,0-0.1,0-0.2c0-0.1,0-0.1,0-0.2c0-0.2,0.1-0.3,0.2-0.4c0.8-0.5,1.3-1.5,1.3-2.5
		c0.1-1.4,0.2-2.7,0.2-4.1c0-8.2,0-15.5,0-23c0-1.6-0.2-3.3-0.3-4.9l0-0.4c-0.1-0.6-0.4-1.2-1-1.5c-0.1-0.1-0.2-0.2-0.3-0.4
		c0-0.1-0.1-0.1-0.1-0.2c-0.1-0.1,0-0.2,0.1-0.3c0,0,0.1,0,0.1,0h6.4c0.1,0,0.2,0.1,0.2,0.2c0,0,0,0,0,0.1c0,0.1,0,0.1,0,0.2
		c0,0.2-0.1,0.3-0.2,0.4c-0.8,0.4-1.2,1.2-1.2,2.1c-0.1,1-0.2,2.1-0.2,3.1c0,1,0,2.1,0,3.2c0,0.4,0,0.8,0,1.2h7.5l0-1.6
		c0-1.9-0.1-3.8-0.2-5.7c-0.1-0.5-0.2-1.1-0.4-1.5c-0.1-0.2-0.3-0.3-0.4-0.5c-0.1-0.1-0.2-0.2-0.3-0.3c-0.1-0.1-0.2-0.2-0.3-0.3
		c0-0.1-0.1-0.1-0.2-0.2c-0.1-0.1-0.1-0.2,0-0.3c0,0,0.1,0,0.1,0h6.5c0.1,0,0.2,0.1,0.2,0.2c0,0,0,0.1,0,0.1c0,0.1-0.1,0.1-0.1,0.2
		c0,0.2-0.1,0.3-0.3,0.4c-0.7,0.3-1.1,1-1.1,1.8l0,0.4c-0.1,1.4-0.3,2.8-0.3,4.2c0,7.9,0,15.7,0,23.2c0,1.6,0.1,3.3,0.3,4.9
		c0,0.8,0.4,1.6,1.1,1.9c0.1,0.1,0.2,0.2,0.2,0.4c0,0.1,0,0.1,0.1,0.2C70.5,99.2,70.5,99.3,70.3,99.3C70.4,99.3,70.3,99.3,70.3,99.3
		z M188.6,99.1c0-0.1,0-0.1-0.1-0.2c0-0.1-0.1-0.3-0.2-0.4c-0.7-0.5-1.1-1.3-1.2-2.2c-0.7-3.4-1.5-7.8-2.4-12.3
		c-1.2-6.4-2.2-11.6-3-16.5c-0.2-1.2-0.4-2.5-0.5-4.2c-0.1-0.6,0.2-1.2,0.7-1.5c0.1-0.1,0.2-0.2,0.2-0.4c0-0.1,0-0.1,0.1-0.2
		c0,0,0-0.1,0-0.1c0,0-0.1,0-0.1,0h-1.3c-1.8,0-3.5,0-5.2,0c-0.2,0-0.3,0.1-0.3,0.2c0,0.2,0,0.3,0.2,0.4c0.6,0.4,0.9,1.1,0.7,1.8
		c-0.1,1-0.2,2.1-0.4,3.1l0,0.1c-1.7,8.3-3.4,16.9-5.1,25.3c-0.3,1.3-0.7,2.6-1,3.9c-0.1,0.4-0.2,0.7-0.3,1.1
		c-0.2,0.6-0.6,1-1.1,1.3c-0.1,0.1-0.2,0.2-0.3,0.4c0,0.1-0.1,0.2-0.1,0.2c0,0,0,0.1,0,0.1c0,0,0,0,0.1,0h6.4c0,0,0.1,0,0.1-0.1
		c0,0,0-0.1,0-0.1c0-0.1-0.1-0.1-0.1-0.2c0-0.1-0.1-0.2-0.2-0.3c-0.6-0.3-1-0.8-1.2-1.5c-0.3-1-0.3-2-0.1-3c0.5-2.8,1-5.7,1.5-8.5
		c0.2-1.1,0.4-2.1,0.6-3.2l0.2,0c0.2,0,0.4,0,0.5,0.1c1.3,0.2,2.5,0.9,3.4,1.8c3,3.1,4.5,7.3,4.1,11.6c0,1-0.4,2-1.3,2.6
		c-0.1,0.1-0.2,0.2-0.2,0.4c0,0.1,0,0.1,0,0.2c0,0,0,0.1,0,0.1c0,0,0,0,0.1,0h7C188.5,99.2,188.6,99.2,188.6,99.1
		C188.6,99.1,188.6,99.1,188.6,99.1z M175.1,79.3l2.7-13.3l0.8,4.5c0.8,4.3,1.6,8.6,2.4,12.9C179.7,81.4,178,79.5,175.1,79.3z
		 M104.5,99.1c0-0.1,0-0.1-0.1-0.2c0-0.2-0.1-0.3-0.2-0.4c-0.4-0.4-0.7-0.9-0.8-1.5c-0.4-2-0.7-3.9-1-5.7c-0.4-2.6-0.8-5.2-1.2-7.8
		c-0.2-1.3-0.4-2.5-0.6-3.8l-0.5-3.3c-0.4-2.8-0.9-5.5-1.3-8.3c-0.2-1.5-0.4-2.9-0.5-4.3c-0.1-0.6,0.1-1.3,0.6-1.7
		c0.1-0.1,0.2-0.3,0.2-0.4c0-0.1,0-0.1,0-0.2c0-0.1,0-0.2-0.1-0.3c0,0,0,0-0.1,0h-5.9c-0.1,0-0.2,0.1-0.2,0.2c0,0,0,0.1,0,0.1
		c0,0.1,0.1,0.1,0.1,0.2c0,0.2,0.1,0.3,0.2,0.4c0.3,0.3,0.5,0.7,0.5,1.1c0,0.6,0,1.2-0.1,1.8c-0.4,2.5-0.8,5-1.3,7.6l-0.4,2.4
		c-1,5.7-2,11.7-3.1,17.5c-0.3,1.6-0.7,3.3-1.2,4.9c-0.1,0.3-0.3,0.5-0.5,0.7c-0.1,0.1-0.2,0.3-0.3,0.4c-0.1,0.1-0.2,0.2-0.3,0.4
		L86.2,99c-0.1,0.1,0,0.2,0.1,0.3c0,0,0.1,0,0.1,0h5.6c0.1,0,0.2-0.1,0.2-0.2c0,0,0-0.1,0-0.1c0-0.1-0.1-0.1-0.1-0.2
		c0-0.2-0.1-0.3-0.3-0.4c-0.5-0.3-0.9-0.9-1-1.5c-0.3-1.4-0.2-2.8,0.1-4.1c0.3-2.1,0.7-4.2,1-6.2c0.1-0.7,0.2-1.4,0.3-2.1
		c0.1-0.5,0.2-1,0.3-1.5l0.1-0.6c1,0.1,2,0.5,2.7,1.3c1.5,1.4,2.5,3.2,3.1,5.1c0.9,2.3,1.2,4.8,1,7.2c0,0.9-0.4,1.8-1,2.4
		c-0.1,0.1-0.2,0.3-0.2,0.4c0,0.1,0,0.1,0,0.2c0,0.1,0,0.2,0.1,0.3c0,0,0,0,0.1,0h6C104.5,99.3,104.6,99.2,104.5,99.1
		C104.6,99.1,104.6,99.1,104.5,99.1z M97.6,82.7c-0.5-0.7-1-1.3-1.5-1.9c-0.8-0.9-1.9-1.4-3.1-1.5l2.2-12.5l2.6,16.2L97.6,82.7z
		 M52.4,99.1c0-0.1,0-0.1-0.1-0.2c0-0.2-0.1-0.3-0.2-0.4c-0.5-0.5-0.9-1.1-0.9-1.8c-0.3-1.5-0.6-3.1-0.8-4.7
		c-0.5-2.9-0.9-5.9-1.4-8.8l-0.5-3.3c-0.2-1.3-0.4-2.5-0.6-3.8c-0.4-2.8-0.9-5.7-1.3-8.5c-0.2-1.4-0.4-2.9-0.4-4
		C46,63,46.2,62.4,46.6,62c0.1-0.1,0.2-0.3,0.2-0.5c0-0.1,0-0.1,0-0.2c0-0.1,0-0.2-0.1-0.3c0,0,0,0-0.1,0h-5.9
		c-0.1,0-0.2,0.1-0.2,0.2c0,0,0,0.1,0,0.1l0.1,0.2c0.1,0.1,0.1,0.3,0.2,0.4c0.1,0.1,0.1,0.2,0.2,0.3c0.1,0.1,0.2,0.3,0.3,0.5
		c0.1,0.6,0.1,1.2,0,1.8c-0.4,2.4-0.8,5-1.3,7.8l-0.4,2.4c-1,5.7-2,11.7-3.1,17.5c-0.3,1.7-0.7,3.3-1.3,5.2
		c-0.1,0.3-0.3,0.5-0.5,0.7c-0.1,0.1-0.2,0.3-0.3,0.4c-0.1,0.1-0.2,0.3-0.3,0.4L34.1,99c-0.1,0.1,0,0.2,0.1,0.3c0,0,0.1,0,0.1,0h5.5
		c0.1,0,0.2-0.1,0.2-0.2c0,0,0-0.1,0-0.1c0-0.1-0.1-0.1-0.1-0.2c0-0.2-0.1-0.3-0.3-0.4c-0.5-0.3-0.9-0.9-1-1.5
		c-0.3-1.4-0.3-2.8,0-4.2l0-0.2c0.3-1.8,0.6-3.5,0.8-5.3c0.1-0.6,0.2-1.2,0.3-1.8c0.1-0.8,0.3-1.6,0.4-2.3l0.1-0.7c0,0,0.1,0,0.1,0
		c0.1,0,0.2,0,0.3,0c1.4,0.3,2.7,1.2,3.5,2.5c2.3,3.2,3.3,7.2,3,11.1c0,0.9-0.3,1.7-1,2.3c-0.1,0.1-0.2,0.3-0.2,0.5
		c0,0.1,0,0.1,0,0.2c0,0.1,0.1,0.2,0.2,0.2c0,0,0,0,0,0h6c0.1,0,0.1,0,0.2-0.1C52.4,99.2,52.5,99.1,52.4,99.1z M40.9,79.2
		c0.7-4.2,1.5-8.4,2.2-12.5l2.6,16.1C44.7,80.9,42.9,79.6,40.9,79.2L40.9,79.2z M22.6,99.3h-4.7c-0.1,0-0.2-0.1-0.2-0.2
		c0-0.4,0-0.7,0-1.1c0-0.8,0-1.6,0-2.4l0-0.7c0.1-2.1,0.2-4.3,0.4-6.4c0.4-3.6,0.8-7,1.3-10.3C20.1,74.1,21,70,22.2,66
		c0.3-1,0.4-2.2,0.1-3.2c-0.1-0.2-0.2-0.4-0.3-0.5c-0.1-0.1-0.1-0.2-0.2-0.3s-0.1-0.2-0.2-0.3l-0.1-0.2c0-0.1,0-0.2,0.1-0.3
		c0,0,0.1,0,0.1,0h11.7c0.1,0,0.2,0.1,0.2,0.2c0,0,0,0.1,0,0.1c0,0.1-0.1,0.1-0.1,0.2c0,0.2-0.1,0.3-0.3,0.4c-0.7,0.4-1.1,1.2-1.1,2
		c-0.2,1.2-0.3,2.4-0.3,3.7c0,9.3,0,17.7,0,25.5c0,1.2,0.2,2.5,0.4,3.7c0.1,0.6,0.5,1.2,1,1.5c0.1,0.1,0.2,0.2,0.3,0.4
		c0,0.1,0,0.1,0.1,0.2c0,0.1,0,0.2-0.1,0.3c0,0-0.1,0-0.1,0h-6.4c-0.1,0-0.2-0.1-0.2-0.2c0,0,0,0,0,0c0,0,0-0.1,0-0.1
		c0-0.2,0.1-0.3,0.2-0.4c0.8-0.5,1.3-1.4,1.3-2.3c0.1-0.9,0.2-1.7,0.2-2.6c0-9.5,0-18,0-25.7c0-0.8-0.1-1.7-0.3-2.5
		c-0.1-0.5-0.5-1-1-1.2c-0.6-0.2-1.2-0.1-1.7,0.2c-0.6,0.4-1.1,1-1.3,1.7c-0.5,1.6-1.2,3.4-1.6,5.2c-1,4.1-1.7,8.3-2,12.5
		c-0.2,3.4-0.4,6.2-0.4,8.9c0,1.2,0.2,2.3,0.5,3.5c0,0.2,0.1,0.4,0.1,0.6c0.1,0.7,0.6,1.4,1.3,1.7c0.1,0.1,0.2,0.2,0.3,0.4
		c0,0.1,0.1,0.2,0.1,0.2c0.1,0.1,0,0.2-0.1,0.3C22.7,99.3,22.6,99.3,22.6,99.3z M82.5,99.3h-6.4c-0.1,0-0.2-0.1-0.2-0.2
		c0,0,0-0.1,0-0.1c0-0.1,0.1-0.1,0.1-0.2c0-0.2,0.2-0.3,0.3-0.4c0.5-0.2,0.9-0.7,1-1.2l0-0.3c0.2-1.2,0.3-2.4,0.3-3.6
		c0-7.3,0-14.8,0-22v-6.6c0-0.1,0-0.2,0-0.2c-0.9,0-1.8,0.3-2.5,0.7c-1.2,0.9-2.1,2.1-2.5,3.5c-0.2,0.7-0.4,1.3-0.6,2
		c-0.1,0.3-0.2,0.6-0.2,0.9c0,0.1,0,0.2-0.1,0.3l0,0.1c0,0.1-0.1,0.2-0.2,0.1c-0.1,0-0.1,0-0.2,0c-0.1,0-0.2-0.1-0.2-0.2
		c0.4-3.7,0.8-7.4,1.2-11c0-0.1,0-0.1,0.1-0.1c0.1,0,0.1,0,0.2,0c0.1,0,0.3,0.1,0.4,0.1c0.2,0.1,0.5,0.2,0.7,0.2c3.8,0,7.4,0,10.9,0
		c0.3,0,0.5-0.1,0.7-0.2c0.1-0.1,0.3-0.1,0.4-0.1c0.1,0,0.2,0,0.3,0.1c0,0,0,0,0,0l1.2,11c0,0.1-0.1,0.2-0.2,0.2l-0.2,0
		c-0.1,0-0.2-0.1-0.2-0.2l-0.1-0.5c-0.1-0.3-0.1-0.7-0.2-1c-0.3-1.5-0.9-2.9-1.8-4.2c-0.9-1.2-2.2-1.9-3.7-1.9c0,0.1,0,0.2,0,0.3
		v6.6c0,7.3,0,14.8,0,22.2c0,1.1,0.1,2.3,0.3,3.4c0,0.7,0.4,1.3,1.1,1.5c0.1,0.1,0.3,0.2,0.3,0.4c0,0.1,0,0.1,0.1,0.2
		C82.7,99.2,82.6,99.3,82.5,99.3C82.5,99.3,82.5,99.3,82.5,99.3z"/>
	<path id="Shape_49_copy_2" class="st0" d="M135.5,99.1c0,0.1,0,0.1,0.1,0.2c0.5-0.1,1.1-0.1,1.6-0.2c0.4-0.1,0.7-0.4,0.7-0.9
		c0-0.7,0-1.4-0.2-2c-0.3-1.2-0.7-2.3-1.2-3.4c-0.6-1.3-0.6-2.8-0.1-4.2c0.9-2.8,1.8-5.6,2.7-8.4c0.9-2.6,1.8-5.2,2.6-7.8
		c0.7-1.6,0.6-3.4-0.3-4.9c-0.8-1.5-1.7-2.9-2.5-4.4c0-0.1-0.1-0.2-0.1-0.3c-0.1,0.1-0.2,0.3-0.3,0.4c-0.2,1-0.3,1.9-0.5,2.9
		c-0.5,3-0.9,6-1.5,8.9c-1,4.9-2,9.8-3.1,14.7c-0.5,1.5,0,3.1,1.1,4.2c0.6,0.6,1.1,1.3,1.4,2c0.5,0.9,0.4,2.1-0.3,2.9
		C135.6,99,135.6,99,135.5,99.1 M117.7,99.1c-0.2-0.4-0.5-0.9-0.6-1.3c-0.2-1,0-2,0.7-2.8c0.5-0.7,1.1-1.3,1.6-2
		c0.6-0.6,0.8-1.5,0.6-2.4c-0.6-2.6-1.1-5.1-1.6-7.7c-0.7-3.5-1.4-7-2.1-10.6c-0.6-3-1-6.1-1.5-9.1c0-0.2-0.1-0.3-0.2-0.6
		c-0.1,0.1-0.2,0.2-0.3,0.4c-0.8,1.4-1.6,2.8-2.4,4.2c-0.3,0.5-0.5,1.1-0.7,1.7c-0.2,1.1-0.1,2.3,0.3,3.4c1.7,5.3,3.4,10.6,5.2,15.8
		c0.6,1.5,0.5,3.3-0.2,4.7c-0.2,0.3-0.3,0.7-0.4,1c-0.5,1.1-0.8,2.3-0.9,3.6c-0.2,0.7,0.2,1.4,0.9,1.6c0.1,0,0.3,0.1,0.4,0
		C117,99.2,117.4,99.2,117.7,99.1 M135,4.7c-0.5,0.7-0.9,1.3-1.4,1.9c-0.9,0.9-1.5,2-2,3.2c-0.1,0.4-0.3,0.4-0.6,0.3
		c-0.5-0.2-1.1-0.4-1.6-0.6c-1.8-0.7-3.7-0.8-5.5,0c-0.5,0.2-1.1,0.4-1.6,0.6c-0.2,0.1-0.5,0.1-0.6-0.1c0-0.1-0.1-0.1-0.1-0.2
		c-0.2-0.5-0.4-0.9-0.6-1.4c-0.9-1.2-1.8-2.4-2.7-3.6c-0.5,0.8-1.1,1.6-1.6,2.4c-0.4,0.6-0.5,1.3-0.3,2c0.7,2.3,1.8,2.9,3.6,3
		c0.4,0,0.8,0,1.2,0.1c0.1,0.1,0.2,0.1,0.3,0.3c-0.1,0.1-0.2,0.2-0.3,0.2c-0.1,0.1-0.3,0.1-0.4,0.1c-0.9-0.1-1.8-0.1-2.6-0.3
		c-0.8-0.1-1.1,0-1.2,0.8c-0.2,1.4,0,2.9,0.5,4.2c0.3,0.7,0.5,1.4,0.7,2.2c0.1,0.4,0,0.9-0.4,1.2c-0.4,0.3-0.7,0.6-1,0.9
		s-0.3,0.5,0.1,0.7c1.1,0.7,2,1.6,2.5,2.8c0.3,0.7,0.7,1.3,1,2c1.3,2.8,3.4,4.4,6.6,4.3c2.3,0,4.4-1.2,5.5-3.2
		c0.6-1,1.1-2.1,1.7-3.2c0.6-1.1,1.4-2.1,2.5-2.7c0.4-0.2,0.4-0.4,0.1-0.7c-0.3-0.3-0.7-0.6-1-0.8c-0.4-0.3-0.6-0.7-0.4-1.2
		c0.2-0.7,0.4-1.5,0.7-2.2c0.5-1.3,0.7-2.7,0.5-4.1c-0.1-0.9-0.3-1-1.3-0.8c-0.9,0.1-1.9,0.2-2.8,0.2c-0.2-0.1-0.3-0.2-0.4-0.3
		c0.1-0.1,0.3-0.2,0.5-0.2c0.4-0.1,0.8-0.1,1.2-0.1c1.6-0.1,3-1.2,3.4-2.8c0.2-0.6,0.2-1.3-0.1-1.8C136.2,6.5,135.6,5.6,135,4.7
		 M119.7,27.9c-0.3,0.5-0.6,0.9-0.9,1.4c-1.4,2.7-2.6,5.5-3.3,8.5c-0.8,2.4-1.2,4.9-1.3,7.4c-0.1,4.2,0.1,8.4,0.7,12.5
		c0.6,4,1.1,7.9,1.8,11.9c1.3,6.9,2.8,13.7,4.2,20.6c0.4,1.3,0,2.7-0.9,3.7c-0.5,0.5-1,1.2-1.5,1.7c-0.5,0.5-0.7,1.3-0.5,2
		c0.2,0.9,1,1.6,1.9,1.6c1.7,0,3.4,0,5.1,0c1.1,0,1.3-0.2,1.3-1.3c0-0.1,0-0.2,0-0.3c0-1.3,0-2.6,0-3.9c0-10.2,0-20.4,0-30.6
		c0-0.6,0.1-0.7,0.6-0.6c0.4,0.1,0.3,0.3,0.3,0.6c0,11.5,0,23,0,34.5c0,0.3,0,0.7,0.1,1c0,0.3,0.3,0.6,0.7,0.6c0,0,0,0,0,0
		c2,0,4,0,6,0c0.2,0,0.4,0,0.5-0.1c1.1-0.7,1.4-2.2,0.7-3.2c0,0-0.1-0.1-0.1-0.1c-0.6-0.7-1.2-1.4-1.8-2.1c-0.7-0.8-1-2-0.7-3
		c0.2-1,0.5-2.1,0.7-3.1c1.5-7.5,3.3-14.9,4.3-22.4c0.8-4.7,1.4-9.5,1.7-14.3c0.1-2.4,0.1-4.8-0.1-7.2c-0.6-4.5-1.9-8.8-3.8-12.9
		c-0.4-0.9-1-1.7-1.5-2.7c-1.6,2.9-3.8,4.5-7,4.5C123.4,32.4,121.2,30.8,119.7,27.9 M135.3,0C135.3,0,135.3,0.1,135.3,0
		c1.5,0.5,1.3,2,0.7,2.9c-0.3,0.4-0.4,0.9-0.1,1.4c0.5,0.8,0.9,1.5,1.3,2.3c0.6,1,0.8,2.2,0.4,3.3c0,0.2-0.1,0.4-0.2,0.5
		c-0.5,0.6-0.6,1.4-0.3,2.1c0.5,1.8,0.4,3.6-0.4,5.3c-0.2,0.4-0.3,0.8-0.5,1.3c-0.1,0.4-0.1,0.9,0.2,1.2c0.2,0.5,0.8,0.8,1.3,0.6
		c0,0,0,0,0,0c1-0.2,1.3,0,1.1,1c0,0.2,0,0.5,0,0.7c0,0.3-0.2,0.6-0.5,0.6c-0.1,0-0.1,0-0.2,0c-0.9-0.3-1.8,0.1-2.2,0.9
		c-0.6,0.9-1.2,1.8-1.6,2.7c-0.1,0.1,0,0.3,0,0.4c2.6,3.5,3.7,7.6,4.9,11.8c0.8,3.3,1.2,6.7,1,10.1c-0.1,3.9-0.5,7.8-1.1,11.7
		c-0.1,0.4,0,0.8,0.3,1.1c1,1.6,1.9,3.2,2.9,4.8c1,1.7,1.2,3.8,0.5,5.6c-1.8,5.5-3.6,10.9-5.4,16.4c-0.1,0.2-0.1,0.4-0.2,0.6
		c-0.3,0.9-0.3,1.8,0.1,2.6c0.6,1.5,1.1,3.1,1.5,4.6c0.1,0.6,0.1,1.2,0,1.8c-0.1,0.9-0.8,1.6-1.7,1.5c0,0-0.1,0-0.1,0
		c-1.9,0-3.9,0-5.8,0c-1,0-1.9,0-2.9,0c-0.6,0-1.2-0.3-1.5-0.9c-0.2,0.5-0.7,0.8-1.2,0.8c-3,0-6,0-9,0c-1,0.1-1.9-0.6-1.9-1.6
		c0-0.1,0-0.2,0-0.3c0-1.3,0.2-2.7,0.7-3.9c0.3-0.9,0.6-1.7,1-2.5c0.2-0.5,0.3-1.1,0.1-1.7c-0.8-2.6-1.7-5.2-2.5-7.8
		c-1.1-3.2-2.1-6.5-3.2-9.7c-0.7-1.9-0.5-4,0.5-5.7c1-1.6,1.9-3.2,2.9-4.8c0.2-0.4,0.3-0.8,0.2-1.2c-0.9-5.3-1.2-10.7-1-16.1
		c0.2-2.6,0.7-5.2,1.6-7.7c0.7-2.6,1.7-5.1,2.9-7.4c0.4-0.7,0.9-1.3,1.3-2c0.1-0.1,0.1-0.3,0.1-0.4c-0.4-1.3-1.2-2.4-2.2-3.3
		c-0.4-0.4-1-0.5-1.5-0.4c-0.3,0.1-0.6-0.1-0.7-0.4c0-0.1,0-0.2,0-0.3c0-0.4-0.1-0.7-0.1-1.1c-0.1-0.4,0.1-0.7,0.5-0.8
		c0.1,0,0.2,0,0.3,0c0.1,0,0.2,0,0.3,0.1c0.7,0.2,1.4-0.1,1.6-0.8c0.1-0.3,0.1-0.5,0-0.8c-0.1-0.5-0.3-0.9-0.5-1.4
		c-0.8-1.7-1-3.6-0.4-5.4c0.2-0.7,0.1-1.4-0.3-2c-0.6-1-0.7-2.2-0.1-3.2c0.4-0.9,0.9-1.7,1.4-2.5c0.4-0.6,0.4-1.4,0-1.9
		c-0.6-0.9-0.7-2.1,0.7-2.6c0,0,0.1-0.1,0.1-0.1h1c0.7,0.3,1.1,1.1,1,1.9c0,0.3-0.1,0.5-0.3,0.8c-0.7,0.9-0.6,2.2,0.3,2.9
		c0.2,0.2,0.4,0.5,0.6,0.8c0.4,0.5,0.7,1.1,1.1,1.6c0.1,0.4,0.4,0.8,0.7,1c0.4,0,0.9-0.2,1.2-0.4c1.7-0.7,3.7-0.8,5.4-0.2
		c0.5,0.2,1,0.4,1.6,0.6c0.2,0.1,0.4,0.1,0.5-0.1c0.6-1.2,1.3-2.4,2.2-3.3c0.8-0.7,0.9-1.9,0.3-2.8c-0.6-0.8-0.4-1.9,0.3-2.5
		c0.1-0.1,0.2-0.1,0.3-0.2H135.3z M130.6,19.4c0.6,0,1.2-0.3,1.5-0.7c0.1-0.1,0.1-0.3,0.1-0.4c-0.1-0.1-0.3-0.2-0.4-0.2
		c-0.5,0.1-0.9,0.3-1.4,0.5c-0.2,0.2-0.3,0.4-0.4,0.6L130.6,19.4 M122.6,19.4c0.1-0.1,0.3-0.2,0.5-0.3c-0.1-0.2-0.2-0.4-0.4-0.6
		c-0.5-0.2-0.9-0.4-1.4-0.5c-0.2,0-0.3,0.1-0.4,0.2c0,0.1,0,0.3,0.1,0.4C121.4,19.1,122,19.4,122.6,19.4 M121.4,16.6
		c0.6,0,1.2,0,1.8,0c0.2,0,0.4,0.1,0.5,0.3c0.7,1.4,1.2,3,1.4,4.6c0,0.4,0,0.9-0.2,1.3c-0.3,1.1-0.1,1.6,1.1,1.8
		c0.6,0.1,1.2,0,1.8-0.1c0.5-0.1,0.8-0.5,0.7-1c0-0.1,0-0.2-0.1-0.3c-0.6-1.9,0.2-3.6,0.8-5.4c0.4-1.2,0.5-1.2,1.8-1.2
		c0.9,0,1.8,0,2.7,0c0.5,0,0.7,0.2,0.7,0.7c0,1.3-0.8,2.5-2.1,2.9c-0.5,0.2-1.1,0.3-1.6,0.5c-0.9,0.1-1.5,0.9-1.4,1.8
		c0,0.1,0,0.2,0.1,0.3c0,0.3,0.1,0.7,0.2,1c0.1,0.5-0.1,1-0.6,1.3c-0.4,0.2-0.8,0.3-1.2,0.6c-0.2,0.1-0.4,0.3-0.4,0.5
		c0,0.3,0.2,0.5,0.4,0.6c0.3,0.2,0.7,0.3,1.1,0.4c0.3,0,0.6-0.1,0.9-0.2c0.2-0.2,0.6-0.3,0.9-0.1c0.2,0.3,0.2,0.7-0.1,1
		c-0.5,0.7-1.4,0.8-2.1,0.4c-1-0.8-2.4-0.8-3.3,0c-0.7,0.4-1.6,0.3-2.1-0.4c-0.3-0.2-0.4-0.7-0.1-1c0.3-0.3,0.6-0.1,0.9,0.1
		c0.2,0.2,0.5,0.2,0.8,0.2c0.4-0.1,0.8-0.2,1.1-0.4c0.2-0.1,0.4-0.3,0.4-0.6c-0.1-0.2-0.2-0.4-0.4-0.6c-0.4-0.2-0.8-0.4-1.2-0.6
		c-0.4-0.2-0.7-0.6-0.6-1.1c0-0.4,0.1-0.8,0.2-1.2c0.3-0.8-0.2-1.7-1-1.9c0,0-0.1,0-0.1,0c-0.7-0.2-1.4-0.4-2.1-0.7
		c-1.2-0.5-1.9-1.7-1.8-2.9c0-0.3,0.1-0.5,0.4-0.6c0.1,0,0.1,0,0.2,0C120.1,16.6,120.8,16.6,121.4,16.6L121.4,16.6L121.4,16.6z"/>
</g>
</svg>
