<?xml version="1.0" encoding="utf-8"?>
<!-- Generator: Adobe Illustrator 25.2.1, SVG Export Plug-In . SVG Version: 6.00 Build 0)  -->
<svg version="1.1" id="Слой_1" xmlns="http://www.w3.org/2000/svg" xmlns:xlink="http://www.w3.org/1999/xlink" x="0px" y="0px"
	 width="1002.582px" height="198.927px" viewBox="0 0 1002.582 198.927" style="enable-background:new 0 0 1002.582 198.927;"
	 xml:space="preserve">
<style type="text/css">
	.st0{fill:#FFFFFF;}
	.st1{fill:#FE5000;}
</style>
<g>
	<path class="st1" d="M1002.582,124.187c-2.801,11.861-11.253,18.104-21.787,22.73c-9.081,3.988-17.824,8.745-27.506,13.555
		c-0.132-2.457-0.306-4.186-0.307-5.915c-0.016-37.447,0.024-74.893-0.032-112.34c-0.018-12.001,4.926-20.67,16.012-25.82
		c11.282-5.241,22.42-10.793,33.621-16.208C1002.582,41.521,1002.582,82.854,1002.582,124.187z"/>
	<path class="st1" d="M927.316,106.166c0,18.686,0.249,36.511-0.12,54.323c-0.152,7.323-3.643,13.916-10.041,17.535
		c-12.26,6.935-24.986,13.046-38.295,19.898c-0.163-2.449-0.354-4.002-0.356-5.555c-0.022-15.163,0.128-30.328-0.06-45.488
		c-0.139-11.224,4.87-19.061,14.711-24.024c9.955-5.021,19.938-9.986,29.922-14.951C924.216,107.337,925.437,106.93,927.316,106.166
		z"/>
	<path class="st1" d="M688.691,0c2.205,12.724-1.546,20.575-11.899,25.795c-8.714,4.393-17.472,8.699-26.225,13.05
		c-3.161-7.448-0.784-17.687,6.47-22.113C667.137,10.57,677.961,5.595,688.691,0z"/>
	<g>
		<path class="st1" d="M33.979,72.086H22.228v29.587H5.336V28.229h16.892v29.692h12.171l19.305-29.692h17.941L47.619,63.692
			l24.761,37.98H53.074L33.979,72.086z"/>
		<path class="st1" d="M133.441,85.62c0,9.968-7.449,16.053-22.978,16.053H80.353V45.226h28.853
			c14.164,0,22.558,5.351,22.558,14.583c0,5.666-3.042,9.968-8.288,12.381C130.084,74.393,133.441,78.905,133.441,85.62z
			 M95.355,68.413h12.381c5.666,0,8.604-2.098,8.604-6.085c0-4.092-2.938-5.98-8.604-5.98H95.355V68.413z M118.123,84.361
			c0-4.302-2.728-6.295-8.708-6.295h-14.06v12.485h13.745C115.081,90.552,118.123,88.557,118.123,84.361z"/>
		<path class="st1" d="M194.714,69.463v32.21h-8.289c-3.882,0-7.029-3.147-7.029-7.029v0c-3.043,5.141-8.919,7.868-17.207,7.868
			c-13.22,0-21.089-7.344-21.089-17.102c0-9.967,7.029-16.892,24.236-16.892h13.01c0-7.03-4.196-11.122-13.01-11.122
			c-3.6,0-7.276,0.723-10.525,2.007c-3.498,1.383-7.472-0.137-9.191-3.483l-2.422-4.714c6.19-4.407,15.318-6.82,24.341-6.82
			C184.746,44.387,194.714,52.36,194.714,69.463z M178.346,83.837v-5.771h-11.227c-7.658,0-10.072,2.832-10.072,6.609
			c0,4.092,3.463,6.82,9.233,6.82C171.736,91.496,176.457,88.977,178.346,83.837z"/>
		<path class="st1" d="M208.981,45.226h16.263V67.26h24.551V45.226h16.367v56.446h-16.367V80.584h-24.551v21.089h-16.263V45.226z"/>
		<path class="st1" d="M329.218,58.656h-19.096v43.017h-16.263V58.656h-19.096v-13.43h54.454V58.656z"/>
		<path class="st1" d="M393.006,101.673V67.889l-16.892,28.328h-6.925l-16.473-28.433v33.889h-14.793V45.226h17.102l18.046,32.63
			l19.2-32.63h15.318l0.21,56.446H393.006z"/>
		<path class="st1" d="M418.815,73.449c0-16.997,13.114-29.062,31.056-29.062s30.951,12.065,30.951,29.062
			s-13.01,29.062-30.951,29.062S418.815,90.446,418.815,73.449z M464.245,73.449c0-9.757-6.19-15.633-14.374-15.633
			s-14.479,5.876-14.479,15.633c0,9.758,6.295,15.633,14.479,15.633S464.245,83.207,464.245,73.449z"/>
		<path class="st1" d="M551.537,75.548c0,16.473-12.905,27.384-30.847,27.384c-19.2,0-31.686-12.275-31.686-37.352
			c0-22.452,9.442-36.196,30.112-40.394l26.859-5.351l0.754,4.812c0.81,5.167-2.601,10.053-7.73,11.074l-14.533,2.894
			c-12.905,2.519-18.676,7.974-19.83,18.78c4.826-5.246,11.751-8.288,20.04-8.288C540.94,49.108,551.537,59.705,551.537,75.548z
			 M534.75,75.758c0-8.604-5.561-13.954-13.954-13.954s-14.164,5.351-14.164,13.954c0,8.498,5.875,14.479,14.164,14.479
			C529.399,90.236,534.75,83.941,534.75,75.758z"/>
		<path class="st1" d="M610.817,69.463v32.21h-15.318v-7.029c-3.043,5.141-8.919,7.868-17.207,7.868
			c-13.22,0-21.089-7.344-21.089-17.102c0-9.967,7.029-16.892,24.236-16.892h13.01c0-7.03-4.196-11.122-13.01-11.122
			c-5.98,0-12.171,1.994-16.263,5.246l-5.875-11.436c6.19-4.407,15.318-6.82,24.341-6.82
			C600.85,44.387,610.817,52.36,610.817,69.463z M594.449,83.837v-5.771h-11.227c-7.658,0-10.072,2.832-10.072,6.609
			c0,4.092,3.463,6.82,9.233,6.82C587.84,91.496,592.561,88.977,594.449,83.837z"/>
		<path class="st1" d="M625.085,45.226h16.263v33.574l27.488-33.574h15.004v56.446h-16.263V68.098l-27.384,33.574h-15.108V45.226z"
			/>
		<path class="st1" d="M753.715,45.226v56.446h-16.368V58.656h-17.836l-0.524,9.967c-0.84,20.145-4.092,34.204-18.047,34.204
			c-0.025,0-0.05,0-0.076,0c-4.631-0.015-8.249-4.029-7.96-8.651l0.378-6.037c0.839,0.104,1.679,0.209,2.413,0.209
			c7.764,0,8.394-9.757,8.918-20.459l0.839-22.662H753.715z"/>
	</g>
	<g>
		<path class="st1" d="M60.208,169.715c0,17.282-12.042,29.212-29.546,29.212C10.927,198.927,0,184.209,0,160.349
			c0-25.533,9.7-37.798,29.658-42.48l17.313-4.021l0.38,2.057c0.536,2.902-1.309,5.711-4.185,6.372l-10.608,2.505
			c-16.613,3.679-24.195,12.041-24.975,30.772c4.683-9.031,13.491-14.494,24.529-14.494
			C48.612,141.06,60.208,152.767,60.208,169.715z M52.18,169.937c0-13.045-8.697-21.741-21.295-21.741
			c-12.599,0-21.407,8.696-21.407,21.741c0,13.157,8.919,22.411,21.407,22.411C43.372,192.348,52.18,183.095,52.18,169.937z"/>
		<path class="st1" d="M115.841,161.91v36.348h-7.582v-9.143c-3.567,6.021-10.48,9.7-20.181,9.7
			c-13.268,0-21.407-6.913-21.407-17.059c0-9.031,5.797-16.613,22.633-16.613h18.62v-3.568c0-10.034-5.687-15.497-16.613-15.497
			c-7.581,0-14.717,2.676-19.512,6.912l-3.568-5.909c5.91-5.018,14.606-7.916,23.86-7.916
			C107.256,139.165,115.841,146.747,115.841,161.91z M107.925,180.641v-9.589H89.528c-11.373,0-15.052,4.46-15.052,10.48
			c0,6.802,5.463,11.038,14.829,11.038C98.225,192.571,104.803,188.335,107.925,180.641z"/>
		<path class="st1" d="M132.003,139.611h7.917v25.979h36.904v-25.979h7.917v58.646h-7.917V172.39H139.92v25.867h-7.917V139.611z"/>
		<path class="st1" d="M223.647,172.168h-13.379v26.09h-7.917v-58.646h7.917v25.755h13.49l20.627-25.755h8.585l-23.079,28.431
			l24.752,30.216h-9.365L223.647,172.168z"/>
	</g>
</g>
</svg>
