<?xml version="1.0" encoding="utf-8"?>
<!-- Generator: Adobe Illustrator 24.0.1, SVG Export Plug-In . SVG Version: 6.00 Build 0)  -->
<svg version="1.1" id="Слой_1" xmlns="http://www.w3.org/2000/svg" xmlns:xlink="http://www.w3.org/1999/xlink" x="0px" y="0px"
	 width="250px" height="64px" viewBox="0 0 250 64" style="enable-background:new 0 0 250 64;" xml:space="preserve">
<style type="text/css">
	.st0{clip-path:url(#SVGID_2_);}
	.st1{clip-path:url(#SVGID_4_);fill-rule:evenodd;clip-rule:evenodd;}
	.st2{clip-path:url(#SVGID_6_);fill-rule:evenodd;clip-rule:evenodd;}
	.st3{clip-path:url(#SVGID_8_);fill-rule:evenodd;clip-rule:evenodd;}
	.st4{clip-path:url(#SVGID_10_);fill-rule:evenodd;clip-rule:evenodd;}
	.st5{clip-path:url(#SVGID_12_);fill-rule:evenodd;clip-rule:evenodd;}
	.st6{clip-path:url(#SVGID_14_);fill-rule:evenodd;clip-rule:evenodd;}
	.st7{clip-path:url(#SVGID_16_);fill-rule:evenodd;clip-rule:evenodd;}
	.st8{clip-path:url(#SVGID_18_);fill-rule:evenodd;clip-rule:evenodd;}
	.st9{clip-path:url(#SVGID_20_);fill-rule:evenodd;clip-rule:evenodd;}
	.st10{clip-path:url(#SVGID_22_);fill-rule:evenodd;clip-rule:evenodd;}
	.st11{clip-path:url(#SVGID_24_);fill-rule:evenodd;clip-rule:evenodd;}
	.st12{clip-path:url(#SVGID_26_);fill-rule:evenodd;clip-rule:evenodd;}
	.st13{clip-path:url(#SVGID_28_);fill-rule:evenodd;clip-rule:evenodd;}
	.st14{clip-path:url(#SVGID_30_);fill-rule:evenodd;clip-rule:evenodd;}
	.st15{clip-path:url(#SVGID_32_);fill-rule:evenodd;clip-rule:evenodd;fill:#FFB400;}
	.st16{clip-path:url(#SVGID_34_);fill-rule:evenodd;clip-rule:evenodd;fill:#FFB400;}
	.st17{clip-path:url(#SVGID_36_);fill-rule:evenodd;clip-rule:evenodd;}
</style>
<g>
	<g>
		<defs>
			<rect id="SVGID_1_" y="0.1" width="250" height="63.8"/>
		</defs>
		<clipPath id="SVGID_2_">
			<use xlink:href="#SVGID_1_"  style="overflow:visible;"/>
		</clipPath>
		<path class="st0" d="M93.1,50.5h-4.9v3h2.5c1.1,0,1.9,0.3,2.5,0.8c0.6,0.5,0.9,1.3,0.9,2.2c0,0.9-0.3,1.7-0.9,2.2
			c-0.6,0.5-1.4,0.8-2.5,0.8h-3.9V49.4h6.3V50.5z M88.2,54.6v3.8h2.5c0.7,0,1.2-0.2,1.6-0.5c0.4-0.4,0.6-0.8,0.6-1.4
			c0-0.6-0.2-1-0.5-1.4c-0.4-0.3-0.9-0.5-1.5-0.5H88.2z M100.4,59.6c-0.1-0.1-0.1-0.4-0.2-0.8c-0.6,0.6-1.3,0.9-2.2,0.9
			c-0.7,0-1.4-0.2-1.8-0.6c-0.5-0.4-0.7-1-0.7-1.6c0-0.8,0.3-1.4,0.9-1.8c0.6-0.4,1.4-0.7,2.5-0.7h1.3v-0.6c0-0.5-0.1-0.8-0.4-1.1
			c-0.3-0.3-0.7-0.4-1.2-0.4c-0.5,0-0.8,0.1-1.2,0.4c-0.3,0.2-0.5,0.5-0.5,0.8h-1.3c0-0.4,0.1-0.7,0.4-1.1c0.3-0.4,0.6-0.6,1.1-0.8
			c0.5-0.2,1-0.3,1.5-0.3c0.9,0,1.6,0.2,2,0.7c0.5,0.4,0.8,1,0.8,1.8v3.5c0,0.7,0.1,1.2,0.3,1.7v0.1H100.4z M98.2,58.6
			c0.4,0,0.8-0.1,1.2-0.3c0.4-0.2,0.6-0.5,0.8-0.8v-1.6h-1c-1.6,0-2.4,0.5-2.4,1.4c0,0.4,0.1,0.7,0.4,1
			C97.4,58.5,97.8,58.6,98.2,58.6 M109.7,59.6h-1.3v-3.2h-3.5v3.2h-1.3V52h1.3v3.3h3.5V52h1.3V59.6z M114.1,56.3h-0.9v3.2h-1.3V52
			h1.3v3.2h0.8l2.5-3.2h1.6l-3,3.6l3.2,3.9h-1.6L114.1,56.3z M119,55.7c0-0.7,0.1-1.4,0.4-2c0.3-0.6,0.7-1,1.2-1.4
			c0.5-0.3,1.1-0.5,1.8-0.5c1,0,1.9,0.4,2.5,1.1c0.6,0.7,1,1.7,1,2.8v0.1c0,0.7-0.1,1.4-0.4,2c-0.3,0.6-0.7,1-1.2,1.4
			c-0.5,0.3-1.1,0.5-1.8,0.5c-1,0-1.9-0.4-2.5-1.1C119.3,57.9,119,57,119,55.7L119,55.7z M120.3,55.9c0,0.8,0.2,1.5,0.6,2
			c0.4,0.5,0.9,0.8,1.6,0.8c0.7,0,1.2-0.3,1.6-0.8c0.4-0.5,0.6-1.2,0.6-2.2c0-0.8-0.2-1.5-0.6-2c-0.4-0.5-0.9-0.8-1.6-0.8
			c-0.6,0-1.2,0.3-1.5,0.8C120.5,54.2,120.3,54.9,120.3,55.9 M127.6,59.6V52h3c1,0,1.8,0.2,2.3,0.5c0.5,0.3,0.8,0.9,0.8,1.5
			c0,0.3-0.1,0.7-0.3,1c-0.2,0.3-0.5,0.5-0.9,0.6c0.5,0.1,0.8,0.3,1.1,0.6c0.3,0.3,0.4,0.7,0.4,1.1c0,0.7-0.3,1.2-0.8,1.6
			c-0.5,0.4-1.2,0.6-2.2,0.6H127.6z M128.9,56.2v2.3h2.1c0.5,0,0.9-0.1,1.2-0.3c0.3-0.2,0.4-0.5,0.4-0.8c0-0.8-0.6-1.1-1.7-1.1
			H128.9z M128.9,55.2h1.7c1.2,0,1.8-0.4,1.8-1.1c0-0.7-0.6-1.1-1.7-1.1h-1.8V55.2z M138.7,58.6c0.5,0,0.9-0.1,1.2-0.4
			c0.3-0.3,0.5-0.6,0.6-1h1.2c0,0.4-0.2,0.8-0.4,1.2c-0.3,0.4-0.6,0.7-1.1,0.9c-0.5,0.2-0.9,0.4-1.5,0.4c-1,0-1.9-0.3-2.5-1
			c-0.6-0.7-0.9-1.6-0.9-2.8v-0.2c0-0.7,0.1-1.4,0.4-2c0.3-0.6,0.7-1,1.2-1.3c0.5-0.3,1.1-0.5,1.8-0.5c0.8,0,1.6,0.3,2.1,0.8
			c0.6,0.5,0.9,1.2,0.9,2h-1.2c0-0.5-0.2-0.9-0.6-1.2c-0.3-0.3-0.7-0.5-1.2-0.5c-0.7,0-1.2,0.2-1.5,0.7c-0.4,0.5-0.5,1.2-0.5,2v0.2
			c0,0.9,0.2,1.5,0.5,2C137.5,58.4,138.1,58.6,138.7,58.6 M145.5,56.3h-0.9v3.2h-1.3V52h1.3v3.2h0.8L148,52h1.6l-3,3.6l3.2,3.9h-1.6
			L145.5,56.3z M155.6,59.6c-0.1-0.1-0.1-0.4-0.2-0.8c-0.6,0.6-1.3,0.9-2.2,0.9c-0.7,0-1.4-0.2-1.8-0.6c-0.5-0.4-0.7-1-0.7-1.6
			c0-0.8,0.3-1.4,0.9-1.8c0.6-0.4,1.4-0.7,2.5-0.7h1.3v-0.6c0-0.5-0.1-0.8-0.4-1.1c-0.3-0.3-0.7-0.4-1.2-0.4c-0.5,0-0.8,0.1-1.2,0.4
			c-0.3,0.2-0.5,0.5-0.5,0.8h-1.3c0-0.4,0.1-0.7,0.4-1.1c0.3-0.4,0.6-0.6,1.1-0.8c0.5-0.2,1-0.3,1.5-0.3c0.9,0,1.6,0.2,2,0.7
			c0.5,0.4,0.8,1,0.8,1.8v3.5c0,0.7,0.1,1.2,0.3,1.7v0.1H155.6z M153.4,58.6c0.4,0,0.8-0.1,1.2-0.3c0.4-0.2,0.6-0.5,0.8-0.8v-1.6h-1
			c-1.6,0-2.4,0.5-2.4,1.4c0,0.4,0.1,0.7,0.4,1C152.7,58.5,153,58.6,153.4,58.6 M164.5,52v7.6h-1.3v-2.9h-2l-1.8,2.9h-1.4l1.9-3.1
			c-0.5-0.2-0.9-0.5-1.1-0.8c-0.3-0.4-0.4-0.8-0.4-1.3c0-0.7,0.3-1.2,0.8-1.7c0.5-0.4,1.2-0.6,2.1-0.6H164.5z M159.8,54.3
			c0,0.4,0.1,0.7,0.4,0.9c0.3,0.2,0.6,0.3,1,0.3h2.1V53h-1.9c-0.5,0-0.9,0.1-1.1,0.4C159.9,53.6,159.8,53.9,159.8,54.3 M175,53.1
			h-3.5v6.5h-1.3V52h4.8V53.1z M182.5,55.9c0,1.2-0.3,2.1-0.8,2.8c-0.5,0.7-1.2,1.1-2.1,1.1c-0.9,0-1.6-0.3-2.2-0.9v3.6h-1.3V52h1.2
			l0.1,0.8c0.5-0.7,1.3-1,2.2-1c0.9,0,1.6,0.3,2.2,1c0.5,0.7,0.8,1.6,0.8,2.9V55.9z M181.2,55.7c0-0.9-0.2-1.5-0.5-2
			c-0.4-0.5-0.9-0.7-1.5-0.7c-0.8,0-1.4,0.3-1.8,1v3.6c0.4,0.7,1,1,1.8,1c0.6,0,1.1-0.2,1.5-0.7C181,57.4,181.2,56.7,181.2,55.7
			 M186.6,57.7l1.8-5.7h1.4l-3,8.7c-0.5,1.3-1.2,1.9-2.2,1.9l-0.2,0l-0.5-0.1v-1l0.3,0c0.4,0,0.8-0.1,1-0.3c0.2-0.2,0.5-0.5,0.6-1
			l0.3-0.8l-2.7-7.5h1.4L186.6,57.7z M197.1,59.6h-1.3v-6.5h-3.5v6.5H191V52h6.1V59.6z M205.3,59.6H204v-6.5h-3.5v6.5h-1.3V52h6.1
			V59.6z M212.1,59.6c-0.1-0.1-0.1-0.4-0.2-0.8c-0.6,0.6-1.3,0.9-2.2,0.9c-0.7,0-1.4-0.2-1.8-0.6c-0.5-0.4-0.7-1-0.7-1.6
			c0-0.8,0.3-1.4,0.9-1.8c0.6-0.4,1.4-0.7,2.5-0.7h1.3v-0.6c0-0.5-0.1-0.8-0.4-1.1c-0.3-0.3-0.7-0.4-1.2-0.4c-0.5,0-0.8,0.1-1.2,0.4
			c-0.3,0.2-0.5,0.5-0.5,0.8h-1.3c0-0.4,0.1-0.7,0.4-1.1c0.3-0.4,0.6-0.6,1.1-0.8c0.5-0.2,1-0.3,1.5-0.3c0.9,0,1.6,0.2,2,0.7
			c0.5,0.4,0.8,1,0.8,1.8v3.5c0,0.7,0.1,1.2,0.3,1.7v0.1H212.1z M209.9,58.6c0.4,0,0.8-0.1,1.2-0.3s0.6-0.5,0.8-0.8v-1.6h-1
			c-1.6,0-2.4,0.5-2.4,1.4c0,0.4,0.1,0.7,0.4,1C209.2,58.5,209.5,58.6,209.9,58.6 M220.7,49.4l3.3,8.3l3.3-8.3h1.7v10.2h-1.3v-4
			l0.1-4.3l-3.3,8.2h-1l-3.3-8.2l0.1,4.3v4H219V49.4H220.7z M234.1,55h-1.2v4.6h-1.3V49.4h1.3v4.5h1l3.6-4.5h1.7l-3.9,4.9l4.2,5.2
			h-1.6L234.1,55z M246.9,50.5H242v3h2.5c1.1,0,1.9,0.3,2.5,0.8c0.6,0.5,0.9,1.3,0.9,2.2c0,0.9-0.3,1.7-0.9,2.2
			c-0.6,0.5-1.4,0.8-2.5,0.8h-3.9V49.4h6.3V50.5z M242,54.6v3.8h2.5c0.7,0,1.2-0.2,1.6-0.5c0.4-0.4,0.6-0.8,0.6-1.4
			c0-0.6-0.2-1-0.5-1.4c-0.4-0.3-0.9-0.5-1.5-0.5H242z"/>
	</g>
	<g>
		<defs>
			<rect id="SVGID_3_" y="0.1" width="250" height="63.8"/>
		</defs>
		<clipPath id="SVGID_4_">
			<use xlink:href="#SVGID_3_"  style="overflow:visible;"/>
		</clipPath>
		<path class="st1" d="M153.3,21.6c-0.6,0-1.3,0.2-1.3,0.2v-7.2h-2.7v19.6h3.7c3.3,0,5.5-2.7,5.5-6.5
			C158.6,23.8,156.8,21.6,153.3,21.6 M153.3,31.8h-1.2v-7.6c0,0,0.5-0.2,1-0.2c1.6,0,2.7,1.1,2.7,3.8
			C155.8,30.2,154.8,31.8,153.3,31.8"/>
	</g>
	<g>
		<defs>
			<rect id="SVGID_5_" y="0.1" width="250" height="63.8"/>
		</defs>
		<clipPath id="SVGID_6_">
			<use xlink:href="#SVGID_5_"  style="overflow:visible;"/>
		</clipPath>
		<path class="st2" d="M138.6,14.5c0,0-0.5,8.8-0.8,12.1c-0.2,3-0.4,4.1-0.7,4.5c-0.2,0.4-0.6,0.7-1.1,0.8c-0.6,0.1-1.1,0-1.1,0
			l0.8,2.6h0.2c0.9,0,1.8-0.3,2.4-0.7c0.9-0.7,1.4-1.8,1.6-3.1c0.2-1,0.4-2.4,0.6-5.3c0.1-0.8,0.6-8.5,0.6-8.5h2.2v17.2h2.7V14.5
			H138.6z"/>
	</g>
	<g>
		<defs>
			<rect id="SVGID_7_" y="0.1" width="250" height="63.8"/>
		</defs>
		<clipPath id="SVGID_8_">
			<use xlink:href="#SVGID_7_"  style="overflow:visible;"/>
		</clipPath>
		<path class="st3" d="M228,14.5c0,0-0.5,8.8-0.8,12.1c-0.2,3-0.5,4.1-0.7,4.5c-0.2,0.4-0.6,0.7-1.1,0.8c-0.6,0.1-1.1,0-1.1,0
			l0.8,2.6h0.2c0.9,0,1.9-0.3,2.4-0.7c0.9-0.7,1.4-1.8,1.6-3.1c0.2-1,0.4-2.4,0.6-5.3c0.1-0.8,0.6-8.5,0.6-8.5h2.2v17.2h2.7V14.5
			H228z"/>
	</g>
	<g>
		<defs>
			<rect id="SVGID_9_" y="0.1" width="250" height="63.8"/>
		</defs>
		<clipPath id="SVGID_10_">
			<use xlink:href="#SVGID_9_"  style="overflow:visible;"/>
		</clipPath>
		<polygon class="st4" points="117.1,21.3 122.9,9.6 119.8,9.6 114.5,21.1 114.5,9.5 111.8,9.5 111.8,34.1 114.5,34.1 114.5,21.9 
			120.4,34.2 123.5,34 		"/>
	</g>
	<g>
		<defs>
			<rect id="SVGID_11_" y="0.1" width="250" height="63.8"/>
		</defs>
		<clipPath id="SVGID_12_">
			<use xlink:href="#SVGID_11_"  style="overflow:visible;"/>
		</clipPath>
		<polygon class="st5" points="170.4,31.8 170.4,14.5 167.6,14.5 167.6,31.8 163.6,31.8 163.6,14.5 160.9,14.5 160.9,34.1 
			169.8,34.1 169.8,38.3 172.5,38.3 172.5,31.8 		"/>
	</g>
	<g>
		<defs>
			<rect id="SVGID_13_" y="0.1" width="250" height="63.8"/>
		</defs>
		<clipPath id="SVGID_14_">
			<use xlink:href="#SVGID_13_"  style="overflow:visible;"/>
		</clipPath>
		<path class="st6" d="M197.5,9.4l-2.7,14.4c-0.4-2.6-0.7-4.4-1.2-6.7c-0.1-0.6-1.7-7.7-1.7-7.7H189l4.7,18.5c0,0-0.1,0.6-0.4,1.8
			c-0.3,1.3-0.7,2.3-2.8,2.3c-0.3,0-0.6,0-0.6,0l0.8,2.6c0,0,0.2,0,0.8,0c1.1,0,2.2-0.4,2.8-1.1c0.5-0.6,1-1.4,1.4-3.2
			c0.3-1.4,4.5-20.9,4.5-20.9L197.5,9.4L197.5,9.4z"/>
	</g>
	<g>
		<defs>
			<rect id="SVGID_15_" y="0.1" width="250" height="63.8"/>
		</defs>
		<clipPath id="SVGID_16_">
			<use xlink:href="#SVGID_15_"  style="overflow:visible;"/>
		</clipPath>
		<path class="st7" d="M206.7,14.2c-0.9,0-2,0.5-2.8,1.2l-0.1-0.9h-2.6c0,0,0.5,3.7,0.5,4.3v21.9h2.7v-6.9c0.4,0.3,1.1,0.7,2,0.7
			c4.8,0,5.1-6.8,5.1-10.9C211.5,18.8,210.8,14.2,206.7,14.2 M206.3,32.1c-0.7,0-1.5-0.3-1.9-0.8V17.3c0.5-0.5,1.2-0.8,1.8-0.8
			c1.6,0,2.4,1.5,2.4,7.1C208.6,30.4,207.8,32.1,206.3,32.1"/>
	</g>
	<g>
		<defs>
			<rect id="SVGID_17_" y="0.1" width="250" height="63.8"/>
		</defs>
		<clipPath id="SVGID_18_">
			<use xlink:href="#SVGID_17_"  style="overflow:visible;"/>
		</clipPath>
		<path class="st8" d="M247.1,30.8V19.1c0-3-1-4.9-4-4.9c-1.2,0-3,0.5-4.3,1.1c0.1,0.3,0.7,2,0.8,2.2c0.8-0.3,2.2-0.9,2.9-0.9
			c1.4,0,1.9,1.2,1.9,2.7v2.4c-0.5-0.1-1.1-0.2-1.7-0.2c-1.4,0-2.8,0.6-3.6,1.7c-0.8,1.1-1.2,3.1-1.2,4.9c0,3.8,1.4,6.2,4.1,6.2
			c0.9,0,2.2-0.6,2.8-1.5c0,0.2,0.1,1.1,0.1,1.1h2.5C247.5,34.1,247.1,31.9,247.1,30.8 M242.7,32.2c-1.1,0-2-0.8-2-4.1
			c0-2.5,0.7-4.1,2.3-4.1c0.6,0,0.9,0.1,1.4,0.1v7.1C244,31.8,243.4,32.2,242.7,32.2"/>
	</g>
	<g>
		<defs>
			<rect id="SVGID_19_" y="0.1" width="250" height="63.8"/>
		</defs>
		<clipPath id="SVGID_20_">
			<use xlink:href="#SVGID_19_"  style="overflow:visible;"/>
		</clipPath>
		<path class="st9" d="M134.3,24.3c0,7.4-2,10.2-5.2,10.2s-5-2.1-5-10.1c0-8,1.9-10.2,5.1-10.2C132.6,14.2,134.3,16.9,134.3,24.3
			 M127.1,24.3c0,3.2,0.2,7.9,2.3,7.9c1.9,0,2.1-3.5,2.1-7.9s-0.2-7.8-2.2-7.8C127.1,16.5,127.1,21.1,127.1,24.3"/>
	</g>
	<g>
		<defs>
			<rect id="SVGID_21_" y="0.1" width="250" height="63.8"/>
		</defs>
		<clipPath id="SVGID_22_">
			<use xlink:href="#SVGID_21_"  style="overflow:visible;"/>
		</clipPath>
		<path class="st10" d="M184.2,24.3c0,7.4-2,10.2-5.1,10.2c-3.2,0-5-2.1-5-10.1c0-8,1.9-10.2,5.1-10.2
			C182.5,14.2,184.2,16.9,184.2,24.3 M176.9,24.3c0,3.2,0.2,7.9,2.3,7.9c1.9,0,2.1-3.5,2.1-7.9s-0.2-7.8-2.2-7.8
			C177,16.5,176.9,21.1,176.9,24.3"/>
	</g>
	<g>
		<defs>
			<rect id="SVGID_23_" y="0.1" width="250" height="63.8"/>
		</defs>
		<clipPath id="SVGID_24_">
			<use xlink:href="#SVGID_23_"  style="overflow:visible;"/>
		</clipPath>
		<path class="st11" d="M78.9,30.8V19.2c0-3-1-4.9-4-4.9c-1.2,0-3,0.5-4.3,1.1c0.1,0.3,0.7,2,0.8,2.2c0.8-0.3,2.2-0.9,2.9-0.9
			c1.4,0,1.9,1.1,1.9,2.7v2.4c-0.5-0.1-1-0.1-1.7-0.1c-1.4,0-2.8,0.6-3.6,1.7c-0.8,1.1-1.2,3.1-1.2,4.9c0,3.8,1.4,6.2,4.1,6.2
			c0.9,0,2.2-0.6,2.8-1.5c0,0.2,0.1,1.1,0.1,1.1h2.5C79.2,34.1,78.9,31.9,78.9,30.8 M74.5,32.2c-1.1,0-2-0.8-2-4
			c0-2.5,0.7-4.1,2.3-4.1c0.6,0,0.9,0.1,1.4,0.1v7.1C75.8,31.8,75.2,32.2,74.5,32.2"/>
	</g>
	<g>
		<defs>
			<rect id="SVGID_25_" y="0.1" width="250" height="63.8"/>
		</defs>
		<clipPath id="SVGID_26_">
			<use xlink:href="#SVGID_25_"  style="overflow:visible;"/>
		</clipPath>
		<path class="st12" d="M61.3,18.3c-1.1,0-1.8,0.2-1.8,0.2v-6.6h6.8V9.6h-9.5v24.6h4.5c3.1,0,6.2-2.2,6.2-8.2
			C67.5,20.1,64.9,18.3,61.3,18.3 M60.7,31.8h-1.3V20.9c0,0,0.6-0.2,1.6-0.2c2.3,0,3.5,1.8,3.5,5.2C64.6,29.4,63.5,31.8,60.7,31.8"
			/>
	</g>
	<g>
		<defs>
			<rect id="SVGID_27_" y="0.1" width="250" height="63.8"/>
		</defs>
		<clipPath id="SVGID_28_">
			<use xlink:href="#SVGID_27_"  style="overflow:visible;"/>
		</clipPath>
		<polygon class="st13" points="89.5,14.6 89.1,14.6 89.1,15 89.1,22.5 84.9,22.5 84.9,15 84.9,14.6 84.5,14.6 82.6,14.6 82.2,14.6 
			82.2,15 82.2,34.1 84.9,34.1 84.9,24.9 89.1,24.9 89.1,34.1 91.8,34.1 91.8,15 91.8,14.6 91.4,14.6 		"/>
	</g>
	<g>
		<defs>
			<rect id="SVGID_29_" y="0.1" width="250" height="63.8"/>
		</defs>
		<clipPath id="SVGID_30_">
			<use xlink:href="#SVGID_29_"  style="overflow:visible;"/>
		</clipPath>
		<polygon class="st14" points="100.2,23.5 105.1,14.7 102.2,14.5 97.8,23.3 97.8,14.6 95.1,14.6 95.1,34.1 97.8,34.1 97.8,24.2 
			102.6,34.2 105.6,34 		"/>
	</g>
	<g>
		<defs>
			<rect id="SVGID_31_" y="0.1" width="250" height="63.8"/>
		</defs>
		<clipPath id="SVGID_32_">
			<use xlink:href="#SVGID_31_"  style="overflow:visible;"/>
		</clipPath>
		<path class="st15" d="M28.3,4.1V0.3l-2.4,2.1l-1.8-2.1l-1.8,2.1L20,0.3v3.8c1.4-0.3,2.8-0.4,4.2-0.4C25.6,3.7,26.9,3.8,28.3,4.1"
			/>
	</g>
	<g>
		<defs>
			<rect id="SVGID_33_" y="0.1" width="250" height="63.8"/>
		</defs>
		<clipPath id="SVGID_34_">
			<use xlink:href="#SVGID_33_"  style="overflow:visible;"/>
		</clipPath>
		<path class="st16" d="M47,23l0.1-0.5h-0.9h-0.4h-0.1c-0.6,0-0.9,0.2-1,0.9c-0.1,0.7-0.2,1.4-0.4,2.5c-0.2,1-0.8,1.1-1.7,1.1
			c0.4-6.7-3.4-12.9-9.4-16c-0.7-0.4-1.3-0.6-2.1-0.9L31,10.3c0.7,0.3,1.4,0.7,2.1,1.1c5.5,3.5,8.2,9.7,7.1,15.6c-1,0-1.7,0-1.9-1.1
			c-0.2-1.1-0.3-1.9-0.4-2.5c-0.1-0.7-0.4-0.9-1-0.9h-0.1h-0.4h-0.9l0.1,0.5h0.9c0,0.1,0,0.2,0.1,0.3h-0.9l0.1,0.5h0.9
			c0,0.1,0,0.2,0.1,0.3h-0.9l0.1,0.5h0.9c0.2,0.9,0.3,1.8,0.4,2.1c0.2,0.8,0.5,1.9,2.6,2v0c-0.4,1.2-0.9,2.3-1.6,3.5
			c-4.2,6.7-13.1,8.6-19.8,4.3c-2.8-1.8-4.7-4.6-5.5-7.7c0,0,0,0,0,0c2.1-0.1,2.4-1.2,2.6-2c0.1-0.4,0.2-1.2,0.4-2.1h0.9l0.1-0.5
			h-0.9c0-0.1,0-0.2,0.1-0.3h0.9l0.1-0.5H16c0-0.1,0-0.2,0.1-0.3h0.9l0.1-0.5h-0.9h-0.4h-0.1c-0.6,0-0.9,0.2-1,0.9
			c-0.1,0.7-0.2,1.4-0.4,2.5c-0.2,1-0.8,1.1-1.7,1.1c-0.3-2.9,0.3-5.8,2-8.5c3.2-4.7,8.9-6.3,13.8-4.8l-4.1-4.3l4.1-4.2
			c-3.2-0.7-6.4-0.5-9.4,0.3c-2.9,0.9-5.5,2.5-7.4,4.9C7.2,15,5.8,22.3,7.5,28.3c1.6,6,6.5,11.1,12.7,12.5c2.8,0.7,5.8,0.7,8.6-0.1
			l0,0.2c-2.8,0.8-5.8,0.9-8.7,0.2c-6.3-1.4-11.5-6.3-13.3-12.5c-1.5-4.9-1.1-10.4,1.3-15l-0.2-0.1c-1.2,1.8-2.1,3.8-2.7,6
			c-0.6,2.5-0.7,5-0.4,7.4c-1,0-1.7,0-1.9-1.1c-0.2-1.1-0.3-1.9-0.4-2.5c-0.1-0.7-0.4-0.9-1-0.9H1.5H1H0.1l0.1,0.5h0.9
			c0,0.1,0,0.2,0.1,0.3H0.3l0.1,0.5h0.9c0,0.1,0,0.2,0.1,0.3H0.4l0.1,0.5h0.9c0.1,0.9,0.3,1.8,0.4,2.1c0.2,0.8,0.5,2,2.8,2h0.6
			c0,0.1,0,0.1,0.1,0.2c1.7,6.9,7.1,12.7,14.7,14.4c9.9,2.3,19.8-3.8,22.1-13.6c0.1-0.2,0.1-0.6,0.2-1h0.3c2.3,0,2.7-1.2,2.8-2
			c0.1-0.4,0.2-1.2,0.4-2.1h0.9l0.1-0.5h-0.9c0-0.1,0-0.2,0.1-0.3h0.9l0.1-0.5H46c0-0.1,0-0.2,0.1-0.3H47z M24.1,5.7l0.9,1l-0.9,1
			l-0.9-1L24.1,5.7z"/>
	</g>
	<g>
		<defs>
			<rect id="SVGID_35_" y="0.1" width="250" height="63.8"/>
		</defs>
		<clipPath id="SVGID_36_">
			<use xlink:href="#SVGID_35_"  style="overflow:visible;"/>
		</clipPath>
		<path class="st17" d="M222.8,30.8V19.1c0-3-1-4.9-4-4.9c-1.2,0-3,0.5-4.3,1.1c0.1,0.3,0.7,2,0.8,2.2c0.8-0.3,2.2-0.9,2.9-0.9
			c1.4,0,1.9,1.2,1.9,2.7v2.4c-0.5-0.1-1.1-0.2-1.7-0.2c-1.4,0-2.8,0.6-3.6,1.7c-0.8,1.1-1.2,3.1-1.2,4.9c0,3.8,1.4,6.2,4.1,6.2
			c0.9,0,2.2-0.6,2.8-1.5c0,0.2,0.1,1.1,0.1,1.1h2.5C223.2,34.1,222.8,31.9,222.8,30.8 M218.4,32.2c-1.1,0-2-0.8-2-4.1
			c0-2.5,0.7-4.1,2.3-4.1c0.6,0,0.9,0.1,1.4,0.1v7.1C219.7,31.8,219.1,32.2,218.4,32.2"/>
	</g>
</g>
</svg>
