<svg width="250" height="49" viewBox="0 0 250 49" fill="none" xmlns="http://www.w3.org/2000/svg">
<path d="M38.9038 22.1532H25.0819V10.1841H21.2008V37.5031H25.0819V25.8037H38.9038V37.5031H42.7849V10.1841H38.9038V22.1532Z" fill="#02205F"/>
<path d="M55.5382 17.8833C49.4672 17.8833 45.2274 22.0285 45.2274 27.9635C45.2274 33.9441 49.4672 38.1205 55.5382 38.1205C61.6092 38.1205 65.8493 33.9438 65.8493 27.9635C65.8493 22.0285 61.6092 17.8833 55.5382 17.8833ZM55.5382 34.5857C51.6693 34.5857 49.0701 31.9247 49.0701 27.9635C49.0701 24.0719 51.6693 21.4569 55.5382 21.4569C59.4071 21.4569 62.0063 24.0719 62.0063 27.9635C62.0063 31.9247 59.4071 34.5857 55.5382 34.5857Z" fill="#02205F"/>
<path d="M68.2941 19.0849V37.5031H72.0224V33.0931H76.1604C76.1604 33.0931 77.1544 33.0957 77.6275 33.035C77.6275 33.035 78.2441 33.0428 79.4251 32.8129C80.5822 32.5875 81.6916 32.1733 81.6916 32.1733C82.845 31.577 83.2671 31.3517 84.2796 30.2478C85.5506 28.8618 85.8949 26.8467 85.8949 25.5915C85.8949 19.9098 80.9839 18.1256 78.0694 18.1289C74.688 18.1276 68.2941 19.0849 68.2941 19.0849ZM72.0221 21.8411C74.0198 21.5484 76.1232 21.4239 78.2523 21.5294C80.0451 21.6181 82.2629 22.6953 82.2629 25.6174C82.2629 26.694 81.9511 27.735 80.9255 28.6466C79.9518 29.5123 78.4429 29.7133 76.7297 29.7133C75.866 29.7133 72.0224 29.7133 72.0224 29.7133V21.8411H72.0221Z" fill="#02205F"/>
<path d="M215.92 26.1926H205.685V18.6138H201.986V37.5027H205.685V29.7245H215.92V37.5027H219.619V18.6138H215.92V26.1926Z" fill="#02205F"/>
<path d="M120.952 18.6128L110.717 31.6276V18.6138H107.018V37.5031H110.717L120.952 24.4883V37.5031H124.651V18.6138H120.952V18.6128Z" fill="#02205F"/>
<path d="M232.815 27.1098L241.271 18.6128H236.389L228.887 26.1926H227.175V18.6128H223.445V37.5027H227.175V29.7307H230.228L237.693 37.5027H242.436L232.815 27.1098Z" fill="#02205F"/>
<path d="M137.846 27.1102L146.302 18.6138H141.421L133.918 26.1929H132.207V18.6138H128.476V37.5027H132.207V29.7311H135.26L142.723 37.5027H147.467L137.846 27.1102Z" fill="#02205F"/>
<path d="M166.122 20.237H160.569V13.8391H174.065V10.1841H160.569H156.683V13.8391V37.5037L157.221 37.5392C160.384 37.7472 163.296 37.8483 166.122 37.8483C172.722 37.8483 176.987 34.7337 176.987 29.0231C176.987 23.4236 172.62 20.237 166.122 20.237ZM166.391 34.1545C164.335 34.1545 162.516 34.1148 160.569 34.0267V23.8536H166.391C170.427 23.8536 173.138 25.5714 173.138 28.9847C173.138 32.5822 170.616 34.1545 166.391 34.1545Z" fill="#02205F"/>
<path d="M188.648 34.6808C185.016 34.6808 182.669 32.0777 182.669 28.0491C182.669 23.8964 184.976 21.4171 188.842 21.4171C190.762 21.4171 192.4 21.5399 194.434 21.8385V32.7824C192.335 34.1299 190.649 34.6808 188.648 34.6808ZM188.494 18.0356C182.734 18.0356 178.985 21.9345 178.944 27.9716C178.944 34.0061 182.72 38.0603 188.341 38.0603C190.502 38.0603 192.4 37.5301 194.434 36.3497V37.4841H198.16V19.0938L197.71 19.0064C193.865 18.2623 191.711 18.0356 188.494 18.0356Z" fill="#02205F"/>
<path d="M101.695 27.1295C103.229 25.9084 103.489 24.6423 103.486 23.4534C103.487 22.6078 103.272 21.8368 102.956 21.162C102.484 20.1475 101.412 19.3719 100.353 18.8759C99.2925 18.3769 97.5523 18.1384 96.076 18.1377C93.7461 18.1377 88.2668 19.0851 88.2668 19.0851V37.5033C88.2668 37.5033 93.8726 37.843 96.1036 37.843C98.2974 37.8414 100.999 37.6416 102.336 36.6623C103.002 36.1732 104.646 34.9994 104.646 32.1827C104.646 29.3696 103.102 27.9366 101.695 27.1295ZM91.9699 21.841C91.9699 21.841 94.4962 21.4091 95.8871 21.4091C97.2212 21.4068 98.3736 21.4787 98.9837 21.9159C99.8378 22.528 99.9866 23.0947 99.9866 23.5917C99.9866 24.9711 99.1722 25.5661 98.5566 25.8575C97.9426 26.1469 97.0947 26.1939 96.098 26.1932H91.9699V21.841ZM91.9699 29.7313H97.4439C98.8365 29.7293 99.328 29.6479 100.11 30.1788C101.054 30.8194 101.056 31.7116 101.056 32.1571C101.056 33.3933 100.262 34.0227 99.6762 34.1972C98.8625 34.4396 97.5215 34.6111 96.1082 34.6111C94.6814 34.6111 93.2376 34.5263 91.9699 34.4094V29.7313V29.7313Z" fill="#02205F"/>
<path d="M7.6019 23.189C7.57496 23.6167 7.55591 24.0756 7.55591 24.5194C7.55591 24.7014 7.55919 24.8719 7.56445 25.0342H17.3765V23.189H7.6019Z" fill="#02205F"/>
<path d="M17.3765 10.1841H9.27596L7.77563 21.3362H17.3765V10.1841Z" fill="#D91A35"/>
<path d="M13.209 35.0892C14.6777 36.1937 16.1748 36.9756 17.3765 37.5041V26.8892H7.77466C8.40639 30.0603 10.2494 32.8609 13.209 35.0892Z" fill="#D91A35"/>
<path d="M7.77478 26.8887H17.3769V25.0342H7.56519C7.60526 26.2168 7.77478 26.8887 7.77478 26.8887Z" fill="white"/>
<path d="M17.3766 21.3364H7.77571C7.77571 21.3364 7.66697 22.1718 7.60193 23.1892H17.3769V21.3364H17.3766Z" fill="white"/>
</svg>
