<?xml version="1.0" encoding="utf-8"?>
<!-- Generator: Adobe Illustrator 24.0.1, SVG Export Plug-In . SVG Version: 6.00 Build 0)  -->
<svg version="1.1" id="Layer_1" xmlns="http://www.w3.org/2000/svg" xmlns:xlink="http://www.w3.org/1999/xlink" x="0px" y="0px"
	 width="250px" height="29.8px" viewBox="0 0 250 29.8" style="enable-background:new 0 0 250 29.8;" xml:space="preserve">
<style type="text/css">
	.st0{fill:#FDA329;}
	.st1{display:none;fill:#004259;}
	.st2{fill:none;}
	.st3{enable-background:new    ;}
	.st4{fill:#004259;}
</style>
<g>
	<g id="Layer_2">
		<g id="Layer_1-2">
			<path class="st0" d="M15,9.6c0-4.6,3.8-8.4,8.4-8.4s8.4,3.8,8.4,8.4S28,18,23.4,18l0,0C18.8,18,15,14.3,15,9.6z"/>
			<rect x="0.3" y="21.2" class="st0" width="46.3" height="6.3"/>
			<path class="st0" d="M3.4,1.2c-1.1,0-2.1,0.2-3.1,0.6v15.6c4.3,1.8,9.2-0.4,11-4.7S10.9,3.5,6.6,1.8C5.6,1.4,4.5,1.2,3.4,1.2z"/>
			<path class="st0" d="M43.4,1.2c1.1,0,2.1,0.2,3.1,0.6v15.6c-4.3,1.8-9.2-0.3-11-4.6s0.3-9.2,4.6-11C41.2,1.4,42.3,1.2,43.4,1.2
				L43.4,1.2z"/>
			<path class="st1" d="M69.6,27.9c-2.4-0.1-4.8-0.4-7.1-1l0.8-4.1c1.8,0.4,3.5,0.6,5.3,0.8c5.2,0,7.3-2.6,7.6-7.9l-9,0.1v-4.1
				l9,0.1c-0.4-4.1-2.6-6.6-7.2-6.6c-1.8,0-3.5,0.2-5.2,0.6l-0.9-4.1c2.1-0.6,4.3-0.9,6.4-0.9C78,0.6,82,4.9,82,13.5
				C82,21.7,78.6,27.9,69.6,27.9z M108.3,18c0,3.5,1.1,5.7,4.4,5.7c2,0,3.2-0.4,5.2-1l1.1,3.8c-2.3,1-4.8,1.4-7.3,1.4
				c-6.3,0-9-3.4-9-9.6c0-5.9,2.8-10.1,9.1-10.1c2-0.1,4.1,0.2,6,0.7l-0.9,3.9c-1.4-0.4-2.8-0.6-4.2-0.5
				C109.6,12.3,108.3,14.7,108.3,18z M121.4,8.6v18.9h5.3v-15h6.9v15h5.3V8.6H121.4z M160.4,18c0,6.1-3.2,9.9-9.7,9.9
				c-6.3,0-9.3-3.6-9.3-9.8c0-5.8,3.2-9.8,9.5-9.8S160.4,12,160.4,18L160.4,18z M154.9,18.1c0-2.8-0.8-5.9-4-5.9
				c-2.9,0-3.9,2.9-3.9,5.9c0,3.3,0.8,5.9,3.9,5.9C154,23.9,154.9,21.3,154.9,18.1z M171.8,0.9c2.3-0.6,4.7-1.1,7-1.4l0.8,4.1
				c0,0-2.5,0.5-6.5,1.3c-1.6,0.3-3.1,0.9-4.4,1.9c-1.5,1.3-1.9,2.7-1.9,5.1c0.1,0,0.1,0.1,0.1,0.1c1.2-2.1,4.3-3.3,6.6-3.3
				c5.6,0,8.1,3.9,8.1,9.7s-3.3,9.6-9.5,9.6c-5.9,0-9-4.2-9.3-10.5c-0.3-6.9,0.4-9.9,2.2-12.5C166.8,2.9,169.2,1.5,171.8,0.9z
				 M172.4,12.6c-2.8,0-4.1,3.1-4.1,5.9s0.8,5.4,3.9,5.4c2.9,0,3.8-2.5,3.8-5.6C176.1,15.5,175.4,12.6,172.4,12.6L172.4,12.6z
				 M200.6,23.8h2.5l0.3,3.2c-1.5,0.6-3.1,0.9-4.6,0.9c-1.6,0-2.8-0.6-3-2.3h-0.1c-1.8,1.6-4.2,2.4-6.6,2.3c-3.5,0-5.7-2.1-5.7-5.5
				c0-3.9,2.9-5.9,6.9-6.3c0.7-0.1,4.4-0.1,5.1-0.1v-0.4c0-2.5-0.8-3.4-3.5-3.4c-1.9,0.1-3.9,0.4-5.7,1.2l-1.2-3.7
				c2.6-0.9,5.4-1.4,8.1-1.4c4.6,0,7.4,1.8,7.4,6.7L200.6,23.8z M191.6,19.4c-1.8,0.1-2.7,0.9-2.7,2.6c0,1.6,0.9,2.3,2.6,2.3
				c1.3,0,2.8-0.8,3.9-1.6v-3.5L191.6,19.4z M217.7,27.5v-7.9h-6.9v7.9h-5.3V8.6h5.3v7h6.9v-7h5.3v18.9H217.7z M84.9,27.5V8.6h5.3
				v7.9h0.7l5.5-7.9h5.8L95.4,17l7.3,10.5h-6.4l-5.6-8.3h-0.6v8.3H84.9z M226.6,27.5V8.6h5.3v7.9h0.7l5.5-7.9h5.8l-6.7,8.5l7.3,10.5
				h-6.4l-5.6-8.3h-0.6v8.3H226.6z"/>
		</g>
	</g>
	<rect x="60.4" y="2.6" class="st2" width="189.8" height="74.7"/>
	<g class="st3">
		<path class="st4" d="M81.2,5.3c2.5,2.5,3.8,5.6,3.8,9.4s-1.3,6.9-3.8,9.4c-2.5,2.6-5.6,3.8-9.5,3.8c-4.6,0-8.7-2.3-10.9-6l4.3-2.5
			c1.2,2.2,3.7,3.6,6.6,3.6c4.1,0,7.1-2.3,7.9-6H68.3v-4.7h11.3c-0.9-3.7-3.8-6-7.9-6c-2.9,0-5.3,1.3-6.6,3.6l-4.3-2.5
			c2.2-3.7,6.3-6,10.9-6C75.5,1.4,78.7,2.7,81.2,5.3z"/>
		<path class="st4" d="M105,27.4h-5.4l-6.6-8.3v8.3h-4.7V9.2h4.7v8l6.3-8h5.6l-7.3,9L105,27.4z"/>
		<path class="st4" d="M107.8,25.1c-1.8-1.9-2.7-4.1-2.7-6.8s0.9-4.9,2.7-6.8c1.9-1.9,4.1-2.8,6.9-2.8c3.5,0,6.6,1.8,8.1,4.7l-4,2.4
			c-0.8-1.5-2.3-2.4-4.1-2.4c-2.8,0-4.9,2.1-4.9,4.9c0,1.4,0.5,2.6,1.4,3.6c0.9,0.9,2.1,1.4,3.5,1.4c1.9,0,3.4-0.9,4.2-2.4l4.1,2.3
			c-1.6,2.9-4.7,4.7-8.2,4.7C111.9,27.9,109.6,27,107.8,25.1z"/>
		<path class="st4" d="M142.1,9.2v18.2h-4.7V13.6h-7.2v13.8h-4.7V9.2H142.1z"/>
		<path class="st4" d="M155,27.9c-2.7,0-4.9-0.9-6.8-2.8c-1.9-1.9-2.8-4.1-2.8-6.8s0.9-4.9,2.8-6.8c1.9-1.9,4.1-2.8,6.8-2.8
			s4.9,0.9,6.8,2.8c1.9,1.9,2.8,4.1,2.8,6.8s-0.9,4.9-2.8,6.8C159.9,27,157.7,27.9,155,27.9z M155,23.3c1.4,0,2.6-0.5,3.5-1.4
			c0.9-0.9,1.4-2.1,1.4-3.6s-0.5-2.6-1.4-3.6c-0.9-0.9-2.1-1.4-3.5-1.4c-1.4,0-2.6,0.5-3.5,1.4c-0.9,0.9-1.4,2.1-1.4,3.6
			s0.5,2.6,1.4,3.6C152.4,22.8,153.5,23.3,155,23.3z"/>
		<path class="st4" d="M169.5,25.1c-1.8-1.9-2.6-4.2-2.6-7c0-3.1,0.5-5.5,1.4-7.1c0.9-1.7,2.8-3.3,5.6-4.6c0.4-0.2,1-0.5,1.8-0.8
			l1.5-0.8c0.3-0.1,0.7-0.4,1.2-0.6c1.3-0.8,1.7-1.4,2.3-2.9l3.8,2.2c-0.3,1.5-1,2.6-2.1,3.4c-1.1,0.8-2.7,1.6-4.9,2.4
			c-3.1,1.2-4.3,2.3-4.9,4c1.3-1.4,3.1-2.1,5.4-2.1c2,0,3.8,0.8,5.4,2.2s2.4,3.4,2.4,5.8c0,2.5-0.8,4.5-2.6,6.1
			c-1.7,1.6-3.9,2.4-6.6,2.4C173.6,27.9,171.4,27,169.5,25.1z M173.2,16.1c-0.9,0.8-1.4,1.8-1.4,3c0,1.3,0.4,2.3,1.3,3.1
			c0.9,0.8,2,1.3,3.3,1.3c1.3,0,2.4-0.4,3.3-1.2c0.8-0.8,1.3-1.8,1.3-3.1c0-2.4-1.9-4.3-4.5-4.3C175.2,15,174.2,15.4,173.2,16.1z"/>
		<path class="st4" d="M202.3,9.2h4.7v18.2h-4.7v-2.1c-1.4,1.8-3.4,2.6-5.9,2.6c-2.4,0-4.5-0.9-6.3-2.8c-1.7-1.9-2.6-4.1-2.6-6.8
			s0.9-4.9,2.6-6.8c1.8-1.9,3.8-2.8,6.3-2.8c2.6,0,4.5,0.9,5.9,2.6V9.2z M197.2,23.4c1.4,0,2.6-0.5,3.6-1.4c1-1,1.4-2.2,1.4-3.7
			s-0.5-2.7-1.4-3.7c-0.9-1-2.1-1.4-3.6-1.4c-1.4,0-2.6,0.5-3.6,1.4s-1.4,2.2-1.4,3.7s0.5,2.8,1.4,3.7S195.8,23.4,197.2,23.4z"/>
		<path class="st4" d="M223.1,9.2h4.7v18.2h-4.7v-6.9h-7.2v6.9h-4.7V9.2h4.7v6.9h7.2V9.2z"/>
		<path class="st4" d="M248.8,27.4h-5.4l-6.6-8.3v8.3H232V9.2h4.7v8l6.3-8h5.6l-7.3,9L248.8,27.4z"/>
	</g>
</g>
</svg>
