<svg width="40" height="40" viewBox="0 0 40 40" fill="none" xmlns="http://www.w3.org/2000/svg">
<path fill-rule="evenodd" clip-rule="evenodd" d="M4.5 20.0005C4.5 11.1706 11.4293 4.00997 19.9817 4.00001V9.78131C14.5228 9.79128 10.1008 14.3617 10.1008 20.0005C10.1008 25.6443 14.5334 30.2177 20 30.2177C25.4348 30.2177 29.8982 25.6881 29.8982 19.9606L35.5 19.9656C35.5 28.8364 28.561 36 19.999 36C11.4371 36 4.5 28.8364 4.5 20.0005Z" fill="#006F53"/>
<path d="M13.1614 20.0005C13.1614 16.0799 16.2394 12.9027 20.0367 12.9027C23.834 12.9027 26.912 16.0799 26.912 20.0005C26.912 23.9192 23.834 27.0983 20.0367 27.0983C16.2404 27.0983 13.1614 23.9192 13.1614 20.0005Z" fill="#62BB46"/>
<path d="M24.8062 11.0092C24.8062 8.7638 26.5702 6.943 28.7464 6.943C30.9226 6.943 32.6866 8.7638 32.6866 11.0092C32.6866 13.2555 30.9226 15.0783 28.7464 15.0783C26.5702 15.0783 24.8062 13.2555 24.8062 11.0092Z" fill="#006F53"/>
</svg>
