<?xml version="1.0" encoding="utf-8"?>
<!-- Generator: Adobe Illustrator 21.0.2, SVG Export Plug-In . SVG Version: 6.00 Build 0)  -->
<svg version="1.1" id="Слой_1" xmlns="http://www.w3.org/2000/svg" xmlns:xlink="http://www.w3.org/1999/xlink" x="0px" y="0px"
	 width="266.7px" height="167.2px" viewBox="0 0 266.7 167.2" style="enable-background:new 0 0 266.7 167.2;" xml:space="preserve"
	>
<style type="text/css">
	.st0{fill:#198E5D;}
</style>
<g>
	<path class="st0" d="M118.7,163.4H84.2V95.5H34.5v67.9H0V6h34.5v59.3h49.7V6h34.5V163.4z"/>
	<path class="st0" d="M203.2,167.2c-41.2,0-71.8-19.2-71.8-82.7S161,0,204.4,0c34,0,58.9,26.1,61.3,58.6h-34.1
		c-3.2-17.3-11.1-27.4-27.8-27.4c-27.3,0-36.7,27.2-36.7,53.5c0,32.5,13.4,53.3,36.3,53.3c13.7,0,26.2-8.7,28.8-31.7h34.5
		C263.5,144.8,242,167.2,203.2,167.2z"/>
</g>
</svg>
