<svg width="40" height="40" viewBox="0 0 40 40" fill="none" xmlns="http://www.w3.org/2000/svg">
<path fill-rule="evenodd" clip-rule="evenodd" d="M12.3521 24.9876L13.6891 27.0189H15.7333L14.0748 24.5634C14.8076 24.1263 15.2576 23.3934 15.2576 22.4678C15.2576 20.9508 14.0877 19.9994 12.3392 19.9994H9.26659V27.0189H11.015V24.9876H12.3392H12.3521ZM12.3007 23.4192H11.015V21.5421H12.3007C12.9692 21.5421 13.4963 21.9021 13.4963 22.4678C13.4963 23.0463 12.9692 23.4192 12.3007 23.4192Z" fill="#E31837"/>
<path d="M18.3174 21.5164V22.8021H21.4415V24.2934H18.3174V25.5147H21.8786V27.0318H16.5689V19.9994H21.8786V21.5164H18.3174Z" fill="#E31837"/>
<path fill-rule="evenodd" clip-rule="evenodd" d="M25.8898 27.0189C28.101 27.0189 29.6824 25.5662 29.6824 23.4834C29.6824 21.4264 28.101 19.9994 25.8898 19.9994H23.0614V27.0189H25.8898ZM25.8769 21.555C27.034 21.555 27.9082 22.3907 27.9082 23.4834C27.9082 24.6019 27.034 25.4504 25.8769 25.4376H24.797V21.555H25.8769Z" fill="#E31837"/>
<path d="M32.3822 19.9994V27.0318H30.6337V19.9994H32.3822Z" fill="#E31837"/>
<path d="M39.0803 21.555H37.0618V27.0189H35.3263V21.555H33.3078V19.9994H39.0803V21.555Z" fill="#E31837"/>
<path d="M6.42534 24.4862C6.15536 25.1291 5.58968 25.5147 4.80545 25.5147C3.66124 25.5147 2.86415 24.6662 2.86415 23.4963C2.86415 22.3264 3.66124 21.4779 4.80545 21.4779C5.58968 21.4779 6.15536 21.8636 6.42534 22.5064H8.27664C7.91667 20.8993 6.59247 19.8451 4.81831 19.8451C2.69702 19.8451 1.10284 21.375 1.10284 23.4963C1.10284 25.6176 2.70988 27.1475 4.81831 27.1475C6.59247 27.1475 7.91667 26.0933 8.27664 24.4862H6.42534Z" fill="#E31837"/>
<path d="M7.86525 11.3214V18.3538H6.1168V15.7183H3.2627V18.3538H1.51425V11.3214H3.2627V14.1498H6.12965V11.3214H7.86525Z" fill="#E31837"/>
<path d="M27.9467 18.3538H26.1983V14.8312L24.6427 17.2353V17.2482H23.6656V17.2353L22.0971 14.8055L22.11 18.3538H20.3615V11.3214H21.66L24.1541 15.0754L26.6483 11.3214H27.9467V18.3538Z" fill="#E31837"/>
<path d="M31.1351 12.8385V14.1241H34.2592V15.6154H31.1351V16.8368H34.6963V18.3538H29.3867V11.3214H34.6963V12.8385H31.1351Z" fill="#E31837"/>
<path d="M14.1134 11.0128C11.3364 11.0128 9.08659 13.1598 9.08659 15.8082C9.08659 16.7467 9.36943 17.6081 9.85797 18.3538H12.2878C11.555 17.801 11.0665 16.9139 11.0665 15.9239C11.0665 14.2398 12.4292 12.8642 14.1263 12.8642C15.8104 12.8642 17.186 14.2269 17.186 15.9239C17.186 16.9139 16.7104 17.801 15.9776 18.3538H18.4074C18.8959 17.621 19.1659 16.7467 19.1659 15.8082C19.1402 13.1598 16.8904 11.0128 14.1134 11.0128Z" fill="#E31837"/>
<path d="M12.4549 16.5925C12.6864 17.2996 13.342 17.801 14.1005 17.801C14.8719 17.801 15.5147 17.2996 15.7461 16.5925H12.4549V16.5925Z" fill="#E31837"/>
</svg>
