<svg width="200" height="25" viewBox="0 0 200 25" fill="none" xmlns="http://www.w3.org/2000/svg">
<g clip-path="url(#clip0)">
<path d="M10.2378 6.39868V11.5095H5.11893V6.39868H0.00805668V21.7393H5.11893V16.6204H10.2378V21.7393H15.3487V6.39868H10.2378ZM5.11892 2.55938C5.11892 2.05288 4.9686 1.55768 4.68701 1.13668C4.40541 0.715577 4.0052 0.387478 3.53706 0.194078C3.06891 0.00057821 2.55387 -0.0496223 2.05717 0.0497777C1.56046 0.149178 1.10443 0.393677 0.746802 0.752477C0.389177 1.11128 0.14605 1.56808 0.048203 2.06508C-0.0496435 2.56208 0.00219215 3.07698 0.197146 3.54448C0.3921 4.01198 0.721405 4.41118 1.14336 4.69148C1.56532 4.97168 2.06096 5.12048 2.56751 5.11888C2.90324 5.11888 3.23568 5.05258 3.54575 4.92388C3.85583 4.79518 4.13745 4.60648 4.37448 4.36878C4.61151 4.13098 4.79927 3.84878 4.92702 3.53828C5.05477 3.22778 5.11998 2.89518 5.11892 2.55938ZM15.3487 2.55938C15.3486 2.05388 15.1989 1.55968 14.9184 1.13918C14.6379 0.718578 14.2391 0.390577 13.7723 0.196378C13.3056 0.00217752 12.7918 -0.0494218 12.2958 0.0479782C11.7997 0.145478 11.3436 0.387678 10.9851 0.743978C10.6265 1.10038 10.3815 1.55488 10.2809 2.05028C10.1803 2.54568 10.2287 3.05978 10.42 3.52778C10.6112 3.99578 10.9368 4.39658 11.3556 4.67968C11.7743 4.96288 12.2676 5.11568 12.7731 5.11888C13.1106 5.12098 13.4451 5.05638 13.7575 4.92868C14.0699 4.80098 14.3539 4.61278 14.5933 4.37498C14.8327 4.13708 15.0227 3.85418 15.1523 3.54258C15.2819 3.23108 15.3487 2.89688 15.3487 2.55938Z" fill="#0DB14B"/>
<path d="M28.6532 3.29987H26.3674V1.00607H30.1985V0.201172H25.6028V7.86347H28.6532C29.2637 7.86347 29.8492 7.62097 30.2809 7.18927C30.7126 6.75757 30.9551 6.17207 30.9551 5.56157C30.9551 4.95107 30.7126 4.36557 30.2809 3.93387C29.8492 3.50217 29.2637 3.25967 28.6532 3.25967V3.29987ZM28.6532 7.13907H26.3674V4.06447H28.6532C29.0609 4.06447 29.4519 4.22647 29.7402 4.51477C30.0285 4.80307 30.1905 5.19407 30.1905 5.60177C30.1905 6.00947 30.0285 6.40057 29.7402 6.68877C29.4519 6.97707 29.0609 7.13907 28.6532 7.13907ZM41.6114 4.82107H38.6898V2.65597H37.9252V7.90367H38.6898V5.58567H41.6114V7.90367H42.3761V2.65597H41.6114V4.82107ZM34.3595 2.53537C33.6692 2.55607 32.9925 2.73217 32.3796 3.05047L32.7498 3.71847C33.2491 3.46227 33.7987 3.31937 34.3595 3.29997C34.5292 3.29237 34.6985 3.32117 34.8561 3.38447C35.0137 3.44767 35.1559 3.54387 35.2733 3.66657C35.3907 3.78927 35.4805 3.93567 35.5367 4.09597C35.5928 4.25617 35.6141 4.42667 35.599 4.59577V4.86137C35.0406 4.72847 34.4655 4.67967 33.8927 4.71647C33.425 4.73197 32.9801 4.92257 32.6462 5.25057C32.3123 5.57847 32.1138 6.01977 32.0898 6.48717C32.0865 6.68997 32.1239 6.89137 32.2 7.07947C32.276 7.26747 32.3891 7.43837 32.5325 7.58177C32.7099 7.75137 32.9196 7.88367 33.1491 7.97077C33.3786 8.05787 33.6233 8.09797 33.8685 8.08887C34.4967 8.06347 35.1002 7.83787 35.591 7.44497V7.91987H36.3556V4.59577C36.3713 4.32657 36.3309 4.05697 36.237 3.80417C36.1431 3.55137 35.9977 3.32087 35.8101 3.12717C35.6224 2.93347 35.3966 2.78087 35.1469 2.67897C34.8972 2.57707 34.6291 2.52817 34.3595 2.53537ZM33.8364 7.32427C33.6902 7.33357 33.5436 7.31337 33.4054 7.26497C33.2671 7.21657 33.14 7.14097 33.0315 7.04257C32.9601 6.97077 32.9041 6.88527 32.8668 6.79117C32.8294 6.69707 32.8115 6.59637 32.8142 6.49527C32.8142 5.84327 33.4098 5.54547 33.9571 5.48107C34.4987 5.45217 35.0416 5.50647 35.5668 5.64207V6.29407C35.378 6.58817 35.1234 6.83437 34.8231 7.01317C34.5227 7.19197 34.1849 7.29847 33.8364 7.32427ZM47.5755 7.90367H48.5252L46.2313 4.82917L48.3481 2.65597H47.2777L44.6779 5.32817V2.65597H43.9133V7.90367H44.6779V6.43077L45.6921 5.38447L47.5755 7.90367ZM116.81 16.7089H114.991V14.5197H113.453V21.7634H116.826C117.468 21.7271 118.072 21.4462 118.514 20.9785C118.956 20.5108 119.203 19.8917 119.203 19.2482C119.203 18.6047 118.956 17.9856 118.514 17.5179C118.072 17.0502 117.468 16.7694 116.826 16.7331L116.81 16.7089ZM116.81 20.2101H114.991V18.2462H116.826C117.086 18.2462 117.336 18.3496 117.52 18.5338C117.704 18.7179 117.808 18.9677 117.808 19.2281C117.808 19.4885 117.704 19.7383 117.52 19.9225C117.336 20.1066 117.086 20.2101 116.826 20.2101H116.81ZM109.622 17.3608H106.113V14.5197H104.584V21.7393H106.113V18.8981H109.622V21.7393H111.151V14.5197H109.622V17.3608ZM39.2451 14.3668C38.2857 14.3974 37.3452 14.6421 36.4925 15.0831L37.241 16.4272C37.8619 16.1062 38.5465 15.9275 39.2451 15.904C39.4349 15.8937 39.6246 15.9246 39.8013 15.9948C39.9779 16.0649 40.1371 16.1726 40.268 16.3104C40.3989 16.4482 40.4983 16.6128 40.5593 16.7928C40.6204 16.9727 40.6415 17.1638 40.6214 17.3528V17.4011C39.9893 17.2642 39.3446 17.1941 38.6978 17.1918C38.3609 17.1633 38.0216 17.2025 37.7 17.307C37.3784 17.4116 37.081 17.5795 36.8253 17.8007C36.5695 18.022 36.3606 18.2921 36.2109 18.5953C36.0611 18.8985 35.9735 19.2286 35.9532 19.5662C35.953 19.8908 36.0183 20.2122 36.1451 20.5111C36.272 20.81 36.4578 21.0802 36.6915 21.3056C36.9252 21.531 37.2019 21.707 37.5051 21.823C37.8084 21.939 38.1319 21.9927 38.4564 21.9807C39.2269 21.9611 39.9766 21.7269 40.6214 21.3047V21.7473H42.1507V17.3528C42.172 16.9619 42.112 16.5708 41.9746 16.2043C41.8371 15.8377 41.6252 15.5036 41.3522 15.2231C41.0792 14.9425 40.7511 14.7216 40.3884 14.5742C40.0257 14.4268 39.6365 14.3562 39.2451 14.3668ZM38.4403 20.4918C38.3083 20.5053 38.175 20.4895 38.0499 20.4456C37.9247 20.4016 37.8108 20.3306 37.7163 20.2376C37.6217 20.1446 37.5488 20.0319 37.5029 19.9075C37.4569 19.783 37.4389 19.65 37.4503 19.5179C37.4986 18.9625 38.1103 18.6486 38.7542 18.6486C39.3825 18.6604 40.0069 18.7496 40.6134 18.9142V19.5179C40.344 19.8329 40.0076 20.0838 39.6289 20.2523C39.2501 20.4208 38.8386 20.5026 38.4242 20.4918H38.4403ZM32.3395 15.5338H27.132V11.26H25.6028V21.7393H27.132V17.0631H32.3395V21.7393H33.8768V11.26H32.3395V15.5338ZM50.8029 14.5197H49.2737V20.202H45.9416V14.5197H44.4043V21.7312H50.0464V22.9385H51.5837V20.202H50.8029V14.5197ZM55.0364 19.1798V14.5197H53.5072V21.7393H55.0364L58.5215 17.0791V21.7393H60.0507V14.5197H58.5215L55.0364 19.1798ZM65.7412 14.3829C64.9914 14.3829 64.2585 14.6052 63.6351 15.0218C63.0117 15.4383 62.5258 16.0304 62.2389 16.7231C61.952 17.4158 61.8769 18.178 62.0232 18.9133C62.1694 19.6487 62.5305 20.3242 63.0607 20.8543C63.5908 21.3845 64.2663 21.7456 65.0016 21.8918C65.737 22.0381 66.4992 21.963 67.1919 21.6761C67.8846 21.3892 68.4767 20.9033 68.8932 20.2799C69.3098 19.6565 69.5321 18.9235 69.5321 18.1738C69.53 17.169 69.1299 16.206 68.4194 15.4955C67.709 14.7851 66.746 14.385 65.7412 14.3829ZM65.7412 20.4274C65.2958 20.4258 64.8609 20.2923 64.4914 20.0437C64.1218 19.7951 63.8342 19.4426 63.6649 19.0306C63.4956 18.6187 63.4521 18.1658 63.5399 17.7292C63.6278 17.2926 63.8431 16.8918 64.1586 16.5774C64.4741 16.263 64.8756 16.0492 65.3126 15.9629C65.7495 15.8766 66.2022 15.9217 66.6135 16.0925C67.0249 16.2633 67.3764 16.5521 67.6236 16.9226C67.8709 17.293 68.0029 17.7284 68.0029 18.1738C68.0029 18.4704 67.9443 18.7641 67.8306 19.0381C67.7168 19.312 67.5501 19.5608 67.34 19.7702C67.1298 19.9795 66.8805 20.1454 66.6061 20.2582C66.3318 20.3709 66.0378 20.4284 65.7412 20.4274ZM93.2593 14.5197H89.3719L89.3075 15.2119C89.3075 15.2119 89.0499 17.7874 88.8085 19.2362C88.6636 20.041 88.2129 20.2422 87.8587 20.2422H87.3195V21.7795H87.8587C88.4696 21.755 89.0509 21.5099 89.4948 21.0896C89.9388 20.6693 90.2154 20.1023 90.2733 19.4937C90.4504 18.4796 90.6274 16.9584 90.716 16.0811H93.2593V21.7715H94.7886V14.5277H93.2593V14.5197ZM100.415 16.7089H98.5795V14.5197H97.0503V21.7634H100.415C100.757 21.7828 101.099 21.7321 101.421 21.6145C101.743 21.4968 102.038 21.3147 102.287 21.0792C102.536 20.8438 102.735 20.5599 102.871 20.2451C103.006 19.9303 103.076 19.5911 103.076 19.2482C103.076 18.9054 103.006 18.5662 102.871 18.2514C102.735 17.9366 102.536 17.6527 102.287 17.4173C102.038 17.1818 101.743 16.9997 101.421 16.882C101.099 16.7644 100.757 16.7137 100.415 16.7331V16.7089ZM100.415 20.2101H98.5795V18.2462H100.415C100.675 18.2462 100.925 18.3496 101.109 18.5338C101.293 18.7179 101.397 18.9677 101.397 19.2281C101.397 19.4885 101.293 19.7383 101.109 19.9225C100.925 20.1066 100.675 20.2101 100.415 20.2101ZM121.558 14.5197H120.029V21.7393H121.558V14.5197ZM128.818 14.5197L125.333 19.1798V14.5197H123.804V21.7393H125.333L128.818 17.0791V21.7393H130.347V14.5197H128.818ZM127.063 13.3768C127.614 13.3747 128.141 13.1552 128.529 12.7663C128.918 12.3773 129.138 11.8503 129.14 11.3003H128.07C128.082 11.4394 128.065 11.5796 128.021 11.712C127.976 11.8443 127.904 11.9659 127.81 12.069C127.716 12.1721 127.601 12.2545 127.473 12.3108C127.345 12.3671 127.207 12.3962 127.068 12.3962C126.928 12.3962 126.79 12.3671 126.662 12.3108C126.534 12.2545 126.419 12.1721 126.325 12.069C126.231 11.9659 126.159 11.8443 126.114 11.712C126.07 11.5796 126.053 11.4394 126.065 11.3003H124.995C124.995 11.8496 125.213 12.3766 125.6 12.7658C125.988 13.155 126.514 13.3747 127.063 13.3768ZM76.3653 17.3608H72.8642V14.5197H71.335V21.7393H72.8642V18.8981H76.3653V21.7393H77.9026V14.5197H76.3653V17.3608ZM83.0294 14.3668C82.07 14.3974 81.1295 14.6421 80.2768 15.0831L81.0253 16.4272C81.6468 16.1077 82.3311 15.9291 83.0294 15.904C83.2188 15.895 83.408 15.9269 83.5839 15.9976C83.7599 16.0682 83.9186 16.1759 84.0492 16.3134C84.1798 16.4509 84.2792 16.6149 84.3408 16.7942C84.4023 16.9736 84.4244 17.1641 84.4057 17.3528V17.4011C83.7708 17.2647 83.1235 17.1946 82.4741 17.1918C82.1371 17.1633 81.7979 17.2025 81.4763 17.3071C81.1547 17.4116 80.8573 17.5795 80.6015 17.8007C80.3458 18.022 80.1369 18.2921 79.9871 18.5953C79.8373 18.8985 79.7498 19.2286 79.7295 19.5662C79.7293 19.8908 79.7945 20.2122 79.9214 20.5111C80.0482 20.81 80.234 21.0802 80.4677 21.3056C80.7014 21.531 80.9781 21.707 81.2814 21.823C81.5846 21.939 81.9082 21.9927 82.2326 21.9808C83.0057 21.9613 83.7581 21.7272 84.4057 21.3047V21.7473H85.935V17.3528C85.9575 16.9616 85.8984 16.57 85.7614 16.2029C85.6244 15.8358 85.4125 15.5012 85.1393 15.2204C84.866 14.9396 84.5374 14.7187 84.1741 14.5717C83.8109 14.4247 83.4211 14.355 83.0294 14.3668ZM82.2246 20.4918C82.0957 20.5026 81.966 20.4854 81.8444 20.4412C81.7228 20.397 81.6123 20.327 81.5205 20.2359C81.4286 20.1448 81.3577 20.0349 81.3125 19.9137C81.2673 19.7925 81.2489 19.6629 81.2587 19.534C81.307 18.9786 81.9187 18.6647 82.5546 18.6647C83.1855 18.6772 83.8125 18.7663 84.4218 18.9303V19.5179C84.1487 19.8348 83.8082 20.0867 83.4253 20.2552C83.0424 20.4237 82.6266 20.5045 82.2085 20.4918H82.2246ZM140.142 15.8719C140.718 15.8728 141.271 16.0947 141.688 16.4916L142.742 15.3809C142.042 14.7123 141.11 14.3403 140.142 14.3426C139.63 14.319 139.119 14.3995 138.639 14.5792C138.159 14.7588 137.72 15.0339 137.35 15.3879C136.979 15.7419 136.684 16.1673 136.482 16.6386C136.281 17.1098 136.177 17.617 136.177 18.1295C136.177 18.6421 136.281 19.1493 136.482 19.6205C136.684 20.0917 136.979 20.5172 137.35 20.8711C137.72 21.2251 138.159 21.5002 138.639 21.6799C139.119 21.8595 139.63 21.94 140.142 21.9164C141.11 21.9188 142.042 21.5468 142.742 20.8781L141.688 19.7674C141.273 20.1672 140.719 20.3896 140.142 20.3872C139.835 20.4055 139.526 20.3608 139.236 20.2556C138.947 20.1505 138.681 19.9872 138.457 19.7757C138.232 19.5643 138.053 19.3092 137.931 19.0261C137.809 18.743 137.746 18.4379 137.746 18.1295C137.746 17.8212 137.809 17.516 137.931 17.233C138.053 16.9499 138.232 16.6947 138.457 16.4833C138.681 16.2719 138.947 16.1085 139.236 16.0034C139.526 15.8983 139.835 15.8535 140.142 15.8719ZM164.514 17.3528H161.012V14.5116H159.475V21.7312H161.012V18.882H164.514V21.7312H166.043V14.5116H164.514V17.3528ZM143.869 16.0409H146.211V21.7312H147.748V16.0409H150.099V14.5116H143.869V16.0409ZM200 14.5116H193.77V16.0409H196.121V21.7312H197.65V16.0409H200V14.5116ZM174.784 14.5116H169.576L169.512 15.2038C169.512 15.2038 169.254 17.7794 169.013 19.2281C168.876 20.033 168.417 20.2422 168.063 20.2422H167.532V22.9868H169.061V21.7393H174.035V22.9546H175.564V20.21H174.76L174.784 14.5116ZM170.526 19.4535C170.695 18.4394 170.872 16.9182 170.961 16.0409H173.254V20.21H170.301C170.405 19.9675 170.481 19.7136 170.526 19.4535ZM189.183 14.3506C188.356 14.361 187.555 14.6439 186.905 15.1555V14.5438H185.376V24.5482H186.905V21.1276C187.553 21.643 188.355 21.9264 189.183 21.9324C189.695 21.9561 190.206 21.8756 190.686 21.6959C191.166 21.5163 191.605 21.2412 191.975 20.8872C192.346 20.5332 192.641 20.1078 192.843 19.6365C193.044 19.1653 193.148 18.6581 193.148 18.1456C193.148 17.633 193.044 17.1258 192.843 16.6546C192.641 16.1834 192.346 15.7579 191.975 15.404C191.605 15.05 191.166 14.7749 190.686 14.5952C190.206 14.4155 189.695 14.3351 189.183 14.3587V14.3506ZM189.183 20.3952C188.737 20.3936 188.302 20.26 187.933 20.0114C187.563 19.7629 187.276 19.4103 187.106 18.9984C186.937 18.5865 186.894 18.1336 186.981 17.697C187.069 17.2603 187.285 16.8595 187.6 16.5452C187.916 16.2308 188.317 16.017 188.754 15.9307C189.191 15.8444 189.644 15.8895 190.055 16.0603C190.466 16.2311 190.818 16.5199 191.065 16.8903C191.312 17.2608 191.444 17.6962 191.444 18.1415C191.442 18.74 191.203 19.3132 190.779 19.7356C190.355 20.158 189.781 20.3952 189.183 20.3952ZM180.249 14.3265C179.289 14.3571 178.349 14.6018 177.496 15.0428L178.237 16.3869C178.859 16.0697 179.543 15.8912 180.241 15.8638C180.431 15.8534 180.62 15.8843 180.797 15.9545C180.973 16.0247 181.133 16.1324 181.264 16.2702C181.395 16.4079 181.494 16.5725 181.555 16.7525C181.616 16.9325 181.637 17.1236 181.617 17.3125V17.3608C180.985 17.2214 180.34 17.1486 179.693 17.1435C179.358 17.1183 179.021 17.16 178.702 17.266C178.382 17.372 178.087 17.5403 177.834 17.7611C177.58 17.982 177.372 18.2509 177.223 18.5525C177.074 18.854 176.986 19.1821 176.965 19.5179C176.965 19.8418 177.03 20.1625 177.156 20.4609C177.282 20.7592 177.468 21.029 177.7 21.2543C177.933 21.4796 178.209 21.6558 178.511 21.7723C178.814 21.8888 179.136 21.9432 179.46 21.9324C180.233 21.9143 180.986 21.6801 181.633 21.2564V21.699H183.17V17.3125C183.192 16.9203 183.131 16.5278 182.993 16.1601C182.855 15.7924 182.641 15.4575 182.367 15.1767C182.092 14.8959 181.762 14.6753 181.397 14.529C181.033 14.3826 180.641 14.3136 180.249 14.3265ZM179.444 20.4515C179.316 20.4643 179.186 20.4493 179.064 20.4077C178.942 20.3661 178.83 20.2988 178.736 20.2103C178.642 20.1218 178.569 20.0142 178.52 19.8947C178.471 19.7753 178.449 19.6467 178.454 19.5179C178.502 18.9625 179.114 18.6486 179.758 18.6486C180.385 18.6626 181.009 18.749 181.617 18.9062V19.4937C181.345 19.8045 181.008 20.0515 180.629 20.217C180.251 20.3826 179.841 20.4626 179.428 20.4515H179.444ZM154.429 14.3426C153.469 14.3691 152.527 14.614 151.676 15.0589L152.424 16.395C153.047 16.0777 153.731 15.8992 154.429 15.8718C154.618 15.8614 154.808 15.8924 154.985 15.9626C155.161 16.0327 155.321 16.1404 155.451 16.2782C155.582 16.416 155.682 16.5806 155.743 16.7605C155.804 16.9405 155.825 17.1316 155.805 17.3206V17.3689C155.173 17.2325 154.528 17.1623 153.881 17.1596C153.541 17.1311 153.199 17.1716 152.875 17.2786C152.55 17.3857 152.251 17.5571 151.995 17.7825C151.739 18.008 151.53 18.2829 151.383 18.5908C151.236 18.8987 151.152 19.2332 151.137 19.5742C151.144 19.8927 151.214 20.2066 151.343 20.4978C151.473 20.7891 151.658 21.0519 151.889 21.2711C152.12 21.4903 152.393 21.6616 152.69 21.7751C152.988 21.8886 153.305 21.9421 153.624 21.9324C154.395 21.9166 155.146 21.6822 155.789 21.2564V21.7071H157.326V17.3206C157.347 16.9307 157.288 16.5407 157.151 16.1752C157.014 15.8096 156.802 15.4764 156.53 15.1965C156.258 14.9167 155.93 14.6964 155.569 14.5494C155.207 14.4024 154.819 14.332 154.429 14.3426ZM153.624 20.4676C153.494 20.4771 153.364 20.4586 153.242 20.4136C153.12 20.3685 153.009 20.2978 152.917 20.2063C152.825 20.1148 152.753 20.0045 152.707 19.883C152.661 19.7615 152.641 19.6315 152.65 19.5018C152.698 18.9544 153.31 18.6325 153.954 18.6325C154.582 18.6443 155.206 18.7335 155.813 18.8981V19.5179C155.54 19.8272 155.203 20.0726 154.824 20.2368C154.446 20.4009 154.036 20.4797 153.624 20.4676Z" fill="#303E50"/>
</g>
<defs>
<clipPath id="clip0">
<rect width="200" height="25" fill="white"/>
</clipPath>
</defs>
</svg>
