<svg width="200" height="24" viewBox="0 0 200 24" fill="none" xmlns="http://www.w3.org/2000/svg">
<path d="M89.8836 11.716C89.8836 18.1232 84.6664 23.432 78.1676 23.432C71.6689 23.432 66.4517 18.2147 66.4517 11.716C66.4517 5.2173 71.6689 0 78.1676 0C84.6664 0 89.8836 5.2173 89.8836 11.716Z" fill="white"/>
<path d="M2.37981 11.899C2.28828 11.716 2.37981 11.4414 2.37981 11.3499C2.47134 11.1668 2.56287 10.9837 2.74593 10.8922C2.74593 10.8922 3.84431 10.4345 4.75962 8.97008C5.85799 7.23098 7.32249 5.49188 10.7091 5.49188V6.31558C10.7091 6.31558 10.7091 7.04788 10.0684 7.13938C9.24465 7.23098 7.50555 7.87168 6.49871 9.79378C5.67493 11.2583 4.57656 11.5329 4.57656 11.5329L10.8007 18.0316C9.33618 18.0316 8.42087 17.9401 8.14627 17.8486C7.78015 17.757 7.32249 17.3909 6.68177 16.6587L2.56287 12.0821C2.47134 12.1736 2.37981 12.0821 2.37981 11.899ZM21.4183 13.089C21.4183 16.5671 19.9538 18.3062 17.1163 18.3062C15.3772 18.3062 14.2789 17.8486 13.7297 16.9333V22.059C12.7228 22.059 12.0821 21.9675 11.899 21.8759C11.716 21.7844 11.6245 21.2352 11.6245 20.4114V8.05468C12.4482 8.05468 12.9059 8.14628 12.9974 8.23778C13.089 8.32928 13.1805 8.78698 13.1805 9.51918C13.8212 8.51238 15.1026 7.96318 17.0248 7.96318C19.9538 7.87168 21.4183 9.61078 21.4183 13.089ZM19.3131 13.089C19.3131 11.9906 19.13 11.0753 18.7639 10.6176C18.3062 9.97688 17.574 9.70228 16.4756 9.70228C15.1026 9.70228 14.2789 9.88538 14.0043 10.16C13.7297 10.4345 13.6381 11.4414 13.6381 13.1805C13.6381 14.2789 13.8212 15.1026 14.0958 15.6518C14.5535 16.2925 15.2857 16.6587 16.3841 16.6587C17.757 16.6587 18.5808 16.4756 18.8554 16.201C19.2215 15.8349 19.3131 14.828 19.3131 13.089ZM31.8528 12.2652C31.8528 13.089 31.7613 13.6381 31.5782 13.7297C31.3952 13.8212 30.7545 13.9127 29.6561 13.9127H24.3473C24.3473 14.645 24.6219 15.2857 25.0795 15.7434C25.5372 16.201 26.2694 16.4756 27.1848 16.4756H29.3815C30.2053 16.4756 30.6629 16.5671 30.846 16.6587C31.0291 16.7502 31.0291 17.2994 31.0291 18.1232H27.2763C23.9812 18.1232 22.2421 16.3841 22.2421 12.9974C22.2421 9.61078 23.8896 7.87168 27.2763 7.87168C28.7408 7.87168 29.8392 8.32928 30.6629 9.15308C31.4867 9.97688 31.8528 10.9837 31.8528 12.2652ZM29.6561 12.2652C29.6561 10.4345 28.8323 9.51918 27.0932 9.51918C25.7203 9.51918 24.988 9.61078 24.7134 9.88538C24.4388 10.16 24.3473 10.8922 24.3473 12.2652H29.6561ZM42.745 18.1232V18.6724C42.745 19.4961 42.6535 20.0453 42.4705 20.1369C42.2874 20.3199 41.6467 20.3199 40.6398 20.3199V18.0316H34.1411V20.3199C33.1343 20.3199 32.4936 20.2284 32.3105 20.1369C32.1274 20.0453 32.0359 19.4961 32.0359 18.6724V18.1232C32.0359 17.2079 32.1274 16.7502 32.219 16.6587C32.3105 16.5671 32.5851 16.4756 33.0427 16.4756C34.3242 15.1942 34.6903 11.716 34.7818 9.70228V9.51918C34.7818 8.78698 34.8734 8.42088 34.9649 8.23778C35.0564 8.05468 35.6056 8.05468 36.4294 8.05468H39.9076C40.7314 8.05468 41.189 8.14628 41.3721 8.23778C41.5551 8.32928 41.5551 8.69548 41.5551 9.51918V16.4756C42.0128 16.4756 42.3789 16.5671 42.4705 16.6587C42.6535 16.8417 42.745 17.2994 42.745 18.1232ZM39.5415 15.8349V9.70228H36.6125C36.6125 10.343 36.5209 11.4414 36.4294 12.6313C36.2463 13.8212 35.9717 15.2857 35.331 16.4756H38.8092C39.3584 16.4756 39.4499 16.201 39.4499 16.0179L39.5415 15.8349ZM2.19675 18.2147C1.09837 18.2147 0.457656 18.1232 0.274593 18.0316C0.0915312 17.8486 0 17.3909 0 16.4756V5.58338C1.09837 5.58338 1.73909 5.67488 1.92215 5.76648C2.10522 5.94948 2.19675 6.40718 2.19675 7.23098V18.2147ZM43.7519 18.1232V7.96318C44.8503 7.96318 45.491 8.05468 45.674 8.14628C45.8571 8.23778 45.9486 8.69548 45.9486 9.42768V15.3772L49.7014 9.24458C50.1591 8.60388 50.4337 8.23778 50.7083 8.14628C50.8913 8.05468 51.4405 7.96318 52.2643 7.96318H53.3627V16.3841C53.3627 17.2994 53.2711 17.757 53.0881 17.9401C52.905 18.1232 52.2643 18.1232 51.1659 18.1232V10.6176L47.4131 16.7502C46.9555 17.4824 46.5894 17.8486 46.4063 17.9401C46.2232 18.0316 45.674 18.1232 44.9418 18.1232H43.7519ZM63.7057 7.96318C63.7057 8.87848 63.6141 9.42768 63.5226 9.51918C63.4311 9.70228 62.8819 9.70228 62.0581 9.70228H60.136V18.0316C59.1291 18.0316 58.4884 17.9401 58.3053 17.8486C58.1223 17.6655 58.0307 17.2079 58.0307 16.2925V9.70228H54.3695C54.3695 8.78698 54.461 8.23778 54.5526 8.14628C54.6441 7.96318 55.1017 7.96318 55.9255 7.96318H63.7057Z" fill="#005BAA"/>
<path d="M111.485 15.1026C111.485 14.2789 110.936 13.7297 109.471 13.7297H105.352V16.4756H109.471C110.57 16.4756 111.21 16.3841 111.302 16.2925C111.302 16.2925 111.485 15.9264 111.485 15.1026ZM109.288 9.51918H105.261V12.0821H109.38C110.387 12.0821 110.844 11.9906 110.936 11.899C111.027 11.8075 111.119 11.5329 111.119 10.8007C111.21 9.97688 110.661 9.51918 109.288 9.51918ZM105.078 18.1232C104.254 18.1232 103.796 18.0316 103.613 17.9401C103.522 17.8486 103.43 17.3909 103.43 16.6587V9.33618C103.43 8.60388 103.522 8.14628 103.613 8.05468C103.796 7.96318 104.254 7.87168 105.078 7.87168H109.288C111.851 7.87168 113.132 8.78698 113.132 10.5261C113.132 11.6245 112.766 12.3567 111.943 12.6313L111.76 12.7228L111.943 12.8144C112.4 12.9974 112.766 13.272 113.041 13.7297C113.316 14.1873 113.499 14.645 113.499 15.1942C113.499 17.2079 112.126 18.2147 109.471 18.2147C109.288 18.1232 105.078 18.1232 105.078 18.1232ZM124.299 12.9974C124.299 16.4756 122.926 18.2147 119.997 18.2147C118.258 18.2147 117.16 17.757 116.611 16.8417V21.9675C115.604 21.9675 114.963 21.8759 114.78 21.7844C114.597 21.6929 114.505 21.1437 114.505 20.3199V7.96318C115.329 7.96318 115.787 8.05468 115.878 8.14628C115.97 8.23778 116.061 8.69548 116.061 9.42768C116.702 8.42088 117.984 7.87168 119.906 7.87168C122.926 7.78008 124.299 9.51918 124.299 12.9974ZM122.194 12.9974C122.194 11.899 122.011 10.9837 121.645 10.5261C121.187 9.88538 120.455 9.61078 119.448 9.61078C118.075 9.61078 117.251 9.79378 116.977 10.0684C116.702 10.343 116.611 11.3499 116.611 13.089C116.611 14.1873 116.794 15.0111 117.068 15.5603C117.526 16.201 118.258 16.5671 119.357 16.5671C120.73 16.5671 121.553 16.3841 121.828 16.1095C122.103 15.7434 122.194 14.7365 122.194 12.9974ZM135.466 12.9974C135.466 16.4756 133.819 18.1232 130.432 18.1232C127.137 18.1232 125.489 16.3841 125.489 12.9974C125.489 9.61078 127.137 7.87168 130.523 7.87168C133.819 7.87168 135.466 9.51918 135.466 12.9974ZM133.361 12.9974C133.361 11.899 133.178 11.0753 132.812 10.6176C132.354 9.97688 131.622 9.61078 130.523 9.61078C129.059 9.61078 128.235 9.79378 128.052 10.0684C127.777 10.343 127.686 11.3499 127.686 13.089C127.686 15.3772 128.601 16.5671 130.523 16.5671C131.988 16.5671 132.812 16.3841 132.995 16.1095C133.178 15.7434 133.361 14.7365 133.361 12.9974ZM145.718 17.757C145.535 17.9401 144.894 17.9401 143.795 17.9401V9.97688H138.761V17.9401C137.663 17.9401 137.022 17.8486 136.839 17.757C136.656 17.574 136.564 17.1163 136.564 16.201V9.79378C136.564 8.78698 136.656 8.23778 136.748 8.05468C136.931 7.87168 137.388 7.78008 138.304 7.78008H144.162C145.077 7.78008 145.535 7.87168 145.718 8.05468C145.901 8.23778 145.901 8.78698 145.901 9.79378V16.201C145.992 17.1163 145.901 17.6655 145.718 17.757ZM156.518 18.0316C155.694 18.0316 155.237 17.9401 155.145 17.8486C155.054 17.757 154.962 17.2994 154.962 16.4756C154.688 16.9333 154.23 17.2994 153.589 17.574C152.857 17.9401 152.033 18.1232 151.026 18.1232C149.836 18.1232 148.921 17.8486 148.28 17.3909C147.548 16.8417 147.091 16.1095 147.091 15.1026C147.091 14.0958 147.457 13.272 148.097 12.7228C148.83 12.0821 149.928 11.8075 151.301 11.8075H154.505C154.505 11.0753 154.322 10.5261 153.864 10.2515C153.406 9.97688 152.765 9.79378 151.759 9.79378H149.562C148.83 9.79378 148.372 9.70228 148.189 9.61078C148.097 9.42768 148.006 8.97008 148.006 8.14628H151.576C153.498 8.14628 154.779 8.51238 155.511 9.33618C156.152 9.97688 156.427 10.9837 156.427 12.4482L156.518 18.0316ZM154.413 13.7297V13.4551H151.576C150.386 13.4551 149.745 13.5466 149.562 13.6381C149.379 13.7297 149.287 14.2789 149.287 15.1026C149.287 16.1095 150.02 16.5671 151.576 16.5671C153.04 16.5671 153.864 16.4756 154.138 16.201C154.322 15.9264 154.413 15.1026 154.413 13.7297ZM102.057 18.1232H95.3755C94.2771 18.1232 93.6364 18.0316 93.4533 17.9401C93.2702 17.757 93.1787 17.2994 93.1787 16.3841V7.23098C93.1787 6.31558 93.2702 5.76648 93.4533 5.67488C93.6364 5.49188 94.2771 5.49188 95.3755 5.49188H100.227C101.142 5.49188 101.6 5.58338 101.783 5.67488C101.966 5.85798 101.966 6.31558 101.966 7.23098H95.2839V10.7091H99.5859C100.501 10.7091 100.959 10.8007 101.142 10.8922C101.325 11.0753 101.325 11.5329 101.325 12.4482H95.2839V16.201H100.044C101.05 16.201 101.6 16.2925 101.691 16.3841C101.966 16.7502 102.057 17.2079 102.057 18.1232Z" fill="#005BAA"/>
<path d="M72.859 11.716L78.2594 17.1164L83.6597 11.716L78.2594 6.31569L72.859 11.716ZM67.3672 11.716C67.3672 5.67499 72.2183 0.823792 78.2594 0.823792C84.3004 0.823792 89.1516 5.67499 89.1516 11.716C89.1516 17.7571 84.3004 22.6082 78.2594 22.6082C72.2183 22.5167 67.3672 17.6655 67.3672 11.716Z" fill="#ED1C24"/>
<path d="M192.948 18.1232C191.849 18.1232 191.209 18.0317 191.025 17.9401C190.842 17.7571 190.751 17.2994 190.751 16.3841V7.78019C191.849 7.78019 192.49 7.87169 192.673 7.96319C192.856 8.05479 192.948 8.60389 192.948 9.33619V18.1232ZM199.996 18.0317C198.806 18.0317 197.89 18.0317 197.616 17.9401C197.341 17.8486 196.975 17.574 196.426 17.0248L193.222 13.3636C193.131 13.1805 193.039 12.9974 193.039 12.8144C193.039 12.8144 193.039 12.2652 193.405 12.0821C193.405 12.0821 194.412 11.6245 195.236 10.4346C196.151 9.06159 197.25 7.87169 199.996 7.87169V8.69549C199.996 8.69549 200.087 9.51929 199.446 9.61079C198.806 9.70229 197.89 9.88539 196.609 11.6245C195.877 12.6313 195.419 12.8144 195.419 12.8144L199.996 18.0317ZM178.486 18.0317C177.662 18.0317 177.204 17.9401 177.113 17.8486C177.021 17.7571 176.93 17.2994 176.93 16.4756C176.655 16.9333 176.197 17.2994 175.557 17.574C174.824 17.9401 174.001 18.1232 172.994 18.1232C171.804 18.1232 170.889 17.8486 170.248 17.3909C169.516 16.8418 169.058 16.1095 169.058 15.1027C169.058 14.0958 169.424 13.272 170.065 12.7229C170.797 12.0821 171.895 11.8075 173.268 11.8075H176.472C176.472 11.0753 176.289 10.5261 175.831 10.2515C175.374 9.97689 174.733 9.79389 173.726 9.79389H171.621C170.889 9.79389 170.431 9.70229 170.248 9.61079C170.156 9.42769 170.065 8.97009 170.065 8.14629H173.635C175.557 8.14629 176.838 8.51239 177.57 9.33619C178.211 9.97689 178.486 10.9838 178.486 12.4483V18.0317ZM176.472 13.7297V13.4551H173.635C172.445 13.4551 171.804 13.5466 171.621 13.6382C171.438 13.7297 171.346 14.2789 171.346 15.1027C171.346 16.1095 172.079 16.5672 173.635 16.5672C175.099 16.5672 175.923 16.4756 176.197 16.201C176.289 15.9264 176.472 15.1027 176.472 13.7297ZM167.594 12.2652C167.685 12.3567 167.685 12.4483 167.777 12.5398L167.868 12.7229C167.868 12.5398 167.777 12.4483 167.594 12.2652ZM168.326 14.3704C168.326 16.8418 166.678 18.0317 163.292 18.0317H160.363C159.356 18.0317 158.715 17.9401 158.532 17.8486C158.349 17.6655 158.257 17.2079 158.257 16.2926V7.13949C158.257 6.22409 158.349 5.76649 158.532 5.58339C158.715 5.40039 159.356 5.40039 160.363 5.40039H167.594C167.594 5.40039 167.502 6.40719 167.41 6.68179C167.319 6.95639 167.227 7.13949 166.587 7.13949H160.454V10.7092H163.749C166.037 10.7092 167.136 11.716 167.594 12.2652C167.777 12.4483 167.868 12.6313 167.868 12.7229C168.143 13.272 168.326 13.7297 168.326 14.3704ZM166.037 14.3704C166.037 13.089 165.122 12.5398 163.383 12.5398H160.454V16.3841H163.383C164.756 16.3841 165.58 16.2926 165.763 16.1095C165.946 15.8349 166.037 15.2857 166.037 14.3704ZM189.286 18.0317C188.188 18.0317 187.547 17.9401 187.364 17.8486C187.181 17.6655 187.09 17.2079 187.09 16.2926V13.5466H182.055V18.1232C180.957 18.1232 180.316 18.0317 180.133 17.9401C179.95 17.7571 179.859 17.2994 179.859 16.3841V7.87169C180.957 7.87169 181.598 7.96319 181.781 8.05479C181.964 8.23779 182.055 8.69549 182.055 9.61079V11.716H187.09V7.87169C188.188 7.87169 188.829 7.96319 189.012 8.05479C189.195 8.23779 189.286 8.69549 189.286 9.61079V18.0317Z" fill="#ED1C24"/>
</svg>
