<svg xmlns="http://www.w3.org/2000/svg" width="499" height="66" viewBox="0 0 499 66"><defs><style>.cls-1,.cls-3{fill:#00345e;}.cls-1{fill-rule:evenodd;}.cls-2{fill:#a58a57;}</style></defs><title>Main Logo TSB RUS H</title><g id="Main_Logo_RUS_H" data-name="Main Logo RUS H"><polygon id="синяя_полоска" data-name="синяя полоска" class="cls-1" points="123.73 65.96 498.86 65.92 492.42 59.4 130.33 59.4 123.73 65.96"/><polygon class="cls-2" points="100.5 52.54 62.51 14.67 61.86 14.03 61.21 14.68 23.65 52.54 26.23 52.54 61.88 16.62 97.89 52.54 100.5 52.54 100.5 52.54"/><polygon class="cls-2" points="16.69 52.54 62.01 7.26 107.42 52.54 110.61 52.54 61.98 4.09 13.54 52.54 16.69 52.54 16.69 52.54"/><polygon class="cls-2" points="0.21 65.94 123.93 65.9 117.41 59.27 6.9 59.27 0.21 65.94 0.21 65.94"/><path id="ТСБ" class="cls-3" d="M84.08,29.4H81.24v-14c2.45-.22,7-.33,8.13-.33,1.66,0,7,.33,10.23.77,0-.61-.16-1.5-.16-1.89a16.87,16.87,0,0,1,.16-2c-3.61.22-10,.5-13.07.5-1.28,0-7.18-.33-10.74-.5.39,3.06.44,12.57.44,18.86,0,4.14,0,8.77-.14,13.13-4.29,4.25-8.4,5.81-11.89,5.81-11.13,0-16-11.76-16-22.64,0-11.29,4.62-23.44,16-23.44,3.48,0,7.25,1.89,11.48,6.47h.91L78,4.43c-4.29-2.66-9.31-3.35-13.48-3.35C56,1.08,49.2,5.15,45.4,12.21c-2.52.12-5.56.22-8.69.22-5,0-11.84-.27-14.61-.44,0,.66.17,1.55.17,2s-.12,1.21-.17,1.82A83,83,0,0,1,33,15.36h1c.16,3,.22,11.33.22,15.64,0,7-.12,15.36-.44,21.44.88-.06,2.43-.17,3.09-.17.45,0,1.88.11,2.77.17C39.31,46.36,39.2,38,39.2,31c0-4.31,0-12.6.22-15.64h1c1.42,0,2.56,0,3.5,0a33.82,33.82,0,0,0-2,11.83c0,15.67,8.62,25.25,21.24,25.25A22.31,22.31,0,0,0,76,48.83c0,1.26-.1,2.48-.16,3.61A29.34,29.34,0,0,1,79,52.27c2.39,0,6.17.17,7.18.17,9,.05,15.85-3.67,15.85-11.86C102.05,30.52,89.87,29.4,84.08,29.4ZM86,49.32c-1.56,0-3.28-.06-4.73-.11V32.35c10.57,0,15.13,2,15.13,8.18C96.37,46.26,92.54,49.32,86,49.32Z"/><path id="Трасстройбанк" class="cls-2" d="M366.08,9.65l1-1.59a12.47,12.47,0,0,0,6.86,1.9,13,13,0,0,0,7-1.9l.92,1.55a15.25,15.25,0,0,1-7.9,2.22A15.5,15.5,0,0,1,366.08,9.65ZM480,24.88c4-4.09,9-8.81,12.53-12-.52,0-1.37.11-1.92.11s-1.32-.07-1.94-.11c-2.69,3.06-9,9.91-12.12,12.26,0-3.94,0-10.23.28-12.26-.58,0-1.47.11-1.79.11-.49,0-1.44-.07-2.1-.11.25,2,.29,8.33.29,12.49,0,4.63-.07,10.23-.29,14.28.59,0,1.61-.11,2.06-.11.29,0,1.25.07,1.83.11-.21-4-.28-9.65-.28-13.51A173.92,173.92,0,0,1,488,39.64c.64-.07,1.84-.11,2.48-.11.8,0,1.62,0,2.39.11C489.51,35.92,483.18,28.67,480,24.88ZM466.45,39.64c-.22-4-.3-9.65-.3-14.28,0-4.17,0-10.46.3-12.49-.59,0-1.48.11-1.81.11s-1.43-.07-2.09-.11c.25,2,.29,8.33.29,11.19-3.09.22-5.66.3-7.25.3s-4.75-.07-8.62-.26c0-2.91,0-9.2.3-11.23-.59,0-1.47.11-1.81.11s-1.44-.07-2.1-.11c.26,2,.3,8.33.3,12.49,0,4.63-.07,10.23-.3,14.28.6,0,1.62-.11,2.06-.11s1.26.07,1.85.11c-.22-4-.3-10-.3-13,3.87-.22,6.26-.3,8.44-.3,2,0,4.34.08,7.43.3,0,2.9-.07,9-.29,13,.59,0,1.61-.11,2.06-.11C464.9,39.53,465.86,39.6,466.45,39.64ZM427.31,13h0c1.33,3.31,9,21.43,11.74,26.62-.59,0-1.59-.07-2.05-.07s-1.55,0-2.14.07c-1-2.47-3.13-8-4.09-10a33.49,33.49,0,0,0-5.12-.33,27.83,27.83,0,0,0-4.56.33c-1.22,2.47-3.24,8.1-3.91,10-.41,0-.95-.07-1.4-.07s-1.17,0-1.54.07C417,34.82,425.17,15.71,426.39,13ZM429.59,27c-.77-2.05-1.51-3.75-3.64-8.57L422.23,27a34.39,34.39,0,0,0,3.72.27A33.24,33.24,0,0,0,429.59,27Zm-32.8-2.64h1.87c3.84,0,11.9.73,11.9,7.4,0,5.41-4.53,7.88-10.49,7.84-.67,0-3.17-.11-4.76-.11a20.24,20.24,0,0,0-2.14.11c.23-4,.31-9.65.31-14.28,0-4.16-.05-10.46-.31-12.49,2.36.11,6.26.33,7.12.33,2,0,6.25-.18,8.65-.33a10.19,10.19,0,0,0-.12,1.33c0,.26.08.84.12,1.25-2.14-.3-5.67-.51-6.78-.51-.77,0-3.75.07-5.37.21V24.4Zm0,13.11c.95,0,2.09.07,3.13.07,4.34,0,6.88-2,6.88-5.82,0-4.08-3-5.41-10-5.41Zm-10.46,2.13c-.22-4-.3-9.65-.3-14.28,0-4.17,0-10.46.3-12.49a4.62,4.62,0,0,1-1,.11,2.54,2.54,0,0,1-.78-.11c-4.49,6-14.25,16.1-18.88,20.73V25.36c0-4.17,0-10.46.29-12.49-.59,0-1.46.11-1.8.11s-1.44-.07-2.1-.11c.26,2,.29,8.33.29,12.49,0,4.63-.07,10.23-.29,14.28a2.31,2.31,0,0,1,.74-.11,2.76,2.76,0,0,1,.8.11c4.5-5.26,13.3-15,19.08-20.36v6.08c0,4.63-.07,10.23-.29,14.28.58,0,1.61-.11,2.06-.11C384.78,39.53,385.74,39.6,386.33,39.64ZM341.85,12.43h0c8.26,0,14.48,5,14.48,13.44,0,8.1-6.11,14.21-14.73,14.21-8.14,0-14.25-5.08-14.25-13.62,0-8.36,6.19-14,14.51-14ZM352.34,26c0-7.14-3.61-11.82-10.42-11.82-6.55,0-10.6,4.61-10.6,12.3,0,6.33,3.42,11.89,10.42,11.89C348.08,38.35,352.34,33.64,352.34,26Zm-38-13.11h0c6.81,0,9.47,2.07,9.47,6.7,0,6-5.05,7.92-11.05,7.92-.33,0-1.73-.07-2.42-.15v6.37a53.5,53.5,0,0,0,.28,5.93,16.75,16.75,0,0,0-1.87-.11,18.56,18.56,0,0,0-2,.11c.22-4,.3-9.65.3-14.28,0-4.16,0-10.46-.3-12.49,1.22,0,2.87.11,3.72.11,1.29,0,2.95-.11,3.9-.11Zm5.71,6.7c0-3.64-2.88-4.63-6.44-4.63-.63,0-2.76,0-3.27.1V25.39a12.53,12.53,0,0,0,1.53.15C317,25.54,320.05,23.47,320.05,19.57Zm-18-4.34c0-.4-.12-1-.12-1.22s.08-.88.12-1.32c-1.84.11-6.34.29-9.73.29s-7.88-.18-9.72-.29c0,.44.12,1,.12,1.32s-.08.82-.12,1.22a53.67,53.67,0,0,1,7.22-.29h.7c.11,2,.14,7.54.14,10.42,0,4.63-.06,10.23-.29,14.28.59,0,1.62-.11,2.06-.11s1.25.07,1.85.11c-.23-4-.29-9.65-.29-14.28,0-2.88,0-8.4.14-10.42h.7A53.67,53.67,0,0,1,302.05,15.23Zm-24.22,2.1.92-3.1a19.18,19.18,0,0,0-8.69-1.8c-8.69,0-14.51,5.45-14.51,14.06,0,8.44,5.56,13.59,13.7,13.59a16.63,16.63,0,0,0,8.62-2.17l.36-2.32-.29-.41a11.77,11.77,0,0,1-8.06,3.17c-7.18,0-10.35-6-10.35-11.89,0-6.08,3-12.3,10.31-12.3a10.6,10.6,0,0,1,7.4,3.17Zm-26.18,0,.92-3.1a19.17,19.17,0,0,0-8.68-1.8c-8.7,0-14.51,5.45-14.51,14.06,0,8.44,5.56,13.59,13.69,13.59a16.63,16.63,0,0,0,8.62-2.17l.36-2.32-.29-.41a11.77,11.77,0,0,1-8.06,3.17c-7.18,0-10.35-6-10.35-11.89,0-6.08,3-12.3,10.31-12.3a10.6,10.6,0,0,1,7.4,3.17ZM224,39.64c-.21-4-.29-9.65-.29-14.28,0-4.17,0-10.46.29-12.49-.59,0-1.47.11-1.8.11s-1.44-.07-2.1-.11c.26,2,.3,8.33.3,11.19-3.1.22-5.67.3-7.26.3s-4.75-.07-8.61-.26c0-2.91,0-9.2.29-11.23-.59,0-1.47.11-1.81.11s-1.43-.07-2.1-.11c.27,2,.3,8.33.3,12.49,0,4.63-.08,10.23-.3,14.28.6,0,1.63-.11,2.07-.11.29,0,1.25.07,1.84.11-.22-4-.29-10-.29-13,3.86-.22,6.26-.3,8.43-.3s4.34.08,7.44.3c0,2.9-.08,9-.3,13,.59,0,1.63-.11,2.06-.11S223.37,39.6,224,39.64ZM184.82,13h0c1.33,3.31,9,21.43,11.75,26.62-.59,0-1.58-.07-2.06-.07s-1.55,0-2.14.07c-1-2.47-3.13-8-4.09-10a33.57,33.57,0,0,0-5.12-.33,28,28,0,0,0-4.57.33c-1.2,2.47-3.23,8.1-3.9,10-.4,0-.95-.07-1.39-.07s-1.18,0-1.55.07c2.8-4.78,10.94-23.89,12.15-26.62ZM187.11,27c-.78-2.05-1.52-3.75-3.65-8.57L179.74,27a34.59,34.59,0,0,0,3.72.27A33.58,33.58,0,0,0,187.11,27ZM163.17,12.87h0c6.81,0,9.47,2.07,9.47,6.7,0,6-5,7.92-11,7.92-.34,0-1.73-.07-2.43-.15v6.37a53.51,53.51,0,0,0,.29,5.93,16.75,16.75,0,0,0-1.87-.11,18.56,18.56,0,0,0-2,.11c.22-4,.29-9.65.29-14.28,0-4.16,0-10.46-.29-12.49,1.21,0,2.87.11,3.71.11,1.3,0,3-.11,3.91-.11Zm5.71,6.7c0-3.64-2.88-4.63-6.44-4.63-.63,0-2.76,0-3.28.1V25.39a12.84,12.84,0,0,0,1.55.15C165.86,25.54,168.88,23.47,168.88,19.57Zm-18.54-4.34c0-.4-.11-1-.11-1.22s.07-.88.11-1.32c-1.84.11-6.33.29-9.73.29s-7.87-.18-9.71-.29c0,.44.11,1,.11,1.32s-.08.82-.11,1.22a53.37,53.37,0,0,1,7.21-.29h.7c.11,2,.15,7.54.15,10.42,0,4.63-.08,10.23-.3,14.28.6,0,1.62-.11,2.07-.11.29,0,1.25.07,1.83.11-.21-4-.29-9.65-.29-14.28,0-2.88,0-8.4.15-10.42h.7A53.77,53.77,0,0,1,150.34,15.23Z"/><path id="АКБ" class="cls-3" d="M130.77,52.33l-.3.6h.89l.17-.58c.08-.25.16-.5.24-.72l.13-.36.44-.05a4.37,4.37,0,0,1,.56,0l.57,0,.45.05.11.36.27.74.17.56H136l-.31-.62c-.49-1-1-2.23-1.49-3.57l-.4-1.07-.2-.57-.38,0-.29,0-.2.57-.42,1.09c-.55,1.35-1,2.52-1.53,3.57Zm1.4-1.73.13-.33.41-1,.2-.48.19.48.42,1,.13.33-.27,0a2.68,2.68,0,0,1-.42,0,4,4,0,0,1-.51,0l-.28,0Zm12.35-3.47-.68,0,0,.46v.65l0,1,0,1.66v1.56l0,.5h1.36l0-.51c0-.22,0-.46,0-.74V50.31l.36.56.52.8c.24.37.41.64.51.82l.26.44h1.65l-.35-.46-.59-.86-.91-1.31-.48-.77.3-.35.8-.89.64-.69.49-.5-.57,0-.54,0-.32.48c-.17.24-.42.56-.74,1l-.54.67-.5.56v-.58l0-1v-.65l0-.47-.68,0Zm16.62,5.8c.48,0,.48.51.43,1.29h.48l.14-1.61.07-.37-.74.09h-.16V50.18c0-.55,0-1,0-1.35l0-1.19,0-.54-.67,0-.69,0,0,.54c0,.33,0,.69,0,1.06v2h0V51l0,.73v.49l-.46.09H158l-.5-.07V51l0-.35v-.77l0-.42v-.75l0-1,0-.56-.72,0-.64,0,0,.6,0,1.18v2.17c0,.61,0,1.05,0,1.35l0,.53.65,0,.71,0h2.52l.67,0,.49,0ZM175.3,47.1l-.63,0a39.89,39.89,0,0,1-3.33,4V50c0-1.09,0-2.06.07-2.94l-.67,0-.7,0c.07.84.09,1.84.09,2.95l-.08,2.88h.72c1-1.35,2.15-2.72,3.28-4,0,.31,0,.76,0,1.14,0,1,0,1.93-.07,2.89a5.77,5.77,0,0,1,.72,0,4.66,4.66,0,0,1,.64,0c-.08-.93-.07-2.22-.07-3.25,0-1.19,0-2.09.07-2.59Zm9,.73a3,3,0,0,0-.92,2.28,2.78,2.78,0,0,0,.89,2.17,3.2,3.2,0,0,0,2.24.76,3.32,3.32,0,0,0,2.31-.84,3,3,0,0,0,.92-2.27,3.35,3.35,0,0,0-.28-1.37,2.48,2.48,0,0,0-.65-.84,3.26,3.26,0,0,0-2.17-.72,3.35,3.35,0,0,0-2.34.83Zm.45,2.3a3.4,3.4,0,0,1,.38-1.72,1.61,1.61,0,0,1,1.46-.86,1.58,1.58,0,0,1,.88.22,1.39,1.39,0,0,1,.52.56,3.18,3.18,0,0,1,.38,1.62,3.65,3.65,0,0,1-.41,1.7,1.57,1.57,0,0,1-1.43.85,1.39,1.39,0,0,1-.82-.22,1.61,1.61,0,0,1-.58-.55,2.82,2.82,0,0,1-.38-1.6Zm13.79-3-.68,0,0,.54c0,.24,0,.69,0,1.35v.87c0,.56,0,1,0,1.35l0,1.19v.53h1.36l0-.52c0-.35,0-.7,0-1.07V50.18l.53,0h.77l.75,0,.56,0v.42l0,.75,0,1,0,.56H203l0-.59,0-1.19V49c0-.61,0-1.06,0-1.35l0-.54-.66,0-.7,0,0,.54,0,.68v1.09l-.53,0c-.21,0-.46,0-.74,0s-.55,0-.77,0l-.57,0v-.34l0-.75,0-.68,0-.54-.68,0Zm13,5.43-.05.43.72-.06h1l1,0,.54,0v-.77l-.58,0-.91,0h-.45v-2h.48c.33,0,.64,0,.9,0l.5,0,0-.38,0-.38-.48,0c-.29,0-.59,0-.91,0h-.49V47.75h.44l1,0,.5,0v-.76l-.48,0c-.25,0-.65,0-1.23,0l-.82,0-.72,0,.05.44v4.25c0,.31,0,.59,0,.81Zm12-5.43-.68,0,0,.34c0,.25,0,.57,0,1l0,1V50.8l0,1.09,0,.68,0,.36h1.37l0-.39,0-.73v-1.4h.38c1.49,0,2.23-.6,2.23-1.77a1.83,1.83,0,0,0-.13-.71,1.07,1.07,0,0,0-.26-.4,2,2,0,0,0-1.41-.44l-.72,0Zm.63,2.73V48.79l0-.64,0-.47.29,0c.59,0,.89.33.91,1,0,.82-.38,1.24-1.1,1.25l-.15,0Zm11.31-2.73-.68,0,0,.54q0,.36,0,1.35v.87c0,.56,0,1,0,1.35l0,1.19v.53h1.36l0-.52c0-.35,0-.7,0-1.07V50.18l.54,0h.75l.76,0,.57,0,0,.42v.75l0,1,0,.56h1.37l0-.59,0-1.19V49q0-.91,0-1.35l0-.54-.66,0-.71,0,0,.54,0,.68v.75l0,.34-.53,0c-.22,0-.47,0-.75,0s-.54,0-.78,0l-.56,0v-.34l0-.75v-.68l0-.54-.68,0Zm18.05,5.38,0,.42h1.37l0-.36c0-.25,0-.54,0-.88V48.54c0-.53,0-.89,0-1.08l0-.36-.67,0-.7,0,0,.36a10.52,10.52,0,0,1,0,1.06v3.13l0,.86Zm-4.34.41h1.23c1.13,0,2-.47,2-1.87,0-1.2-1.31-1.61-2.25-1.61h-.47v-.89l0-.42,0-.6,0-.43-.79,0-.58,0,0,.43V51.8c0,.34,0,.57,0,.72l0,.41h.77Zm.53-2.9.28,0a1.06,1.06,0,0,1,1.13,1.11c0,.73-.36,1.28-1.08,1.28l-.3,0,0-.54V50Zm18.92-2.92-.64,0a38.49,38.49,0,0,1-3.32,4V50c0-1.09,0-2.06.07-2.94l-.68,0-.7,0c.08.86.1,1.84.1,2.95l-.09,2.88H264c1-1.35,2.15-2.72,3.28-4,0,.31,0,.76,0,1.14,0,1,0,1.93-.06,2.89a5.61,5.61,0,0,1,.71,0,4.71,4.71,0,0,1,.65,0c-.09-.93-.07-2.22-.07-3.25,0-1.19,0-2.09.07-2.59Zm-.95-1.88h-.14a1.11,1.11,0,0,1-.36.51,1.88,1.88,0,0,1-1,.24,1.48,1.48,0,0,1-.88-.24,1.18,1.18,0,0,1-.34-.51h-.15l0,.5a1.43,1.43,0,0,1-.11.4l.35.13a2.85,2.85,0,0,0,1.17.18,6.31,6.31,0,0,0,1.33-.19l.29-.12-.1-.39-.05-.51Zm17.55,1.91-.67,0,0,.46,0,.65,0,1V51.7l0,.73,0,.5h1.36l0-.51c0-.22,0-.46,0-.74V50.31l.37.56.51.8c.24.37.41.64.51.82l.26.44h1.64l-.34-.46-.6-.86-.9-1.31-.48-.77.3-.35.81-.89.63-.69.49-.5-.57,0-.54,0-.32.48c-.17.24-.41.56-.74,1l-.54.67-.5.56v-.58l0-1v-.65l0-.47-.69,0Zm12.31.7a3,3,0,0,0-.92,2.28,2.78,2.78,0,0,0,.89,2.17,3.24,3.24,0,0,0,2.25.76A3.29,3.29,0,0,0,302,52.2a3,3,0,0,0,.93-2.27,3.35,3.35,0,0,0-.28-1.37,2.39,2.39,0,0,0-.66-.84,3.2,3.2,0,0,0-2.16-.72,3.37,3.37,0,0,0-2.34.83Zm.46,2.3a3.3,3.3,0,0,1,.38-1.72,1.72,1.72,0,0,1,2.33-.64,1.49,1.49,0,0,1,.53.56,3.4,3.4,0,0,1,.36,1.62,3.53,3.53,0,0,1-.4,1.7,1.57,1.57,0,0,1-1.43.85,1.46,1.46,0,0,1-.83-.22,1.79,1.79,0,0,1-.58-.55,2.92,2.92,0,0,1-.36-1.6ZM311,52.92h.41v-.51l.11-1.44.14-1.18.08-.68.33.65,1,2,.36.76.16.39h.34l.28-.63.69-1.47.53-1,.34-.71.06.69L316,51l.12,1.47,0,.51h1.42l-.14-.74-.35-2.35-.25-2.15-.06-.59-.34,0-.33,0-.26.61c-.16.36-.39.87-.71,1.51l-.7,1.35-.3.56-.31-.59-.66-1.32L312.55,48l-.39-.87-.32,0-.35,0-.09.78-.25,1.94-.15,1-.25,1.55-.11.53Zm14.62,0h.4v-.51l.12-1.44.13-1.18.08-.68.33.65,1,2,.35.76.16.39h.35l.26-.63.7-1.47.52-1,.35-.71.07.69.13,1.16.11,1.47,0,.51h1.42l-.15-.74-.33-2.35-.26-2.15-.07-.59-.32,0-.35,0-.25.61c-.16.36-.4.87-.72,1.51L329,50.57l-.3.56-.31-.59-.65-1.32L327.16,48l-.39-.87-.32,0-.35,0-.09.78-.25,1.94-.15,1-.25,1.55-.11.53Zm14.6-.36,0,.43.72-.06h1l1,0,.55,0,0-.38,0-.39-.59,0-.9,0h-.47v-2H342c.34,0,.64,0,.89,0l.52,0,0-.38,0-.38-.48,0c-.3,0-.6,0-.92,0h-.5V47.75H342l1,0,.51,0,0-.38,0-.38-.49,0c-.25,0-.65,0-1.23,0l-.82,0-.72,0,0,.44,0,.73v3.52c0,.31,0,.59,0,.81Zm12-5.43-.67,0,0,.34c0,.25,0,.57,0,1V50.8l0,1.09,0,.68,0,.36h1.37l0-.39,0-.73v-1.4h.38c1.49,0,2.23-.6,2.24-1.77a1.83,1.83,0,0,0-.14-.71,1.09,1.09,0,0,0-.27-.4,2,2,0,0,0-1.41-.44l-.71,0Zm.64,2.73,0-.37,0-.7,0-.64,0-.47.29,0c.59,0,.89.33.9,1,0,.82-.37,1.24-1.1,1.25l-.14,0Zm14.81-2.74-.6,0,.05.59,0,1.2c0,1.26-.72,1.26-1.16,1.26-.74,0-1.14-.68-1.15-1.93v-.7l0-.42-.64,0-.72,0,.07,1.68a2,2,0,0,0,2,2,3.39,3.39,0,0,0,1.5-.36v1l0,1.05,0,.51h1.36l-.05-.51,0-1.05v-2c0-1.42,0-1.67,0-1.82l0-.42-.36,0Zm9.08,5.44,0,.43.71-.06h1l1,0,.54,0v-.77l-.58,0-.9,0H378v-2h.48c.34,0,.65,0,.91,0l.51,0,0-.38,0-.38-.49,0c-.29,0-.6,0-.91,0H378V47.75h.44l1,0,.51,0v-.76l-.48,0q-.37,0-1.23,0l-.83,0-.71,0,0,.44,0,.73v3.52c0,.31,0,.59,0,.81Zm16-.64-.11-.05-.25.2a2,2,0,0,1-1.29.43,2,2,0,0,1-1.06-.31,1.67,1.67,0,0,1-.68-.88,3.4,3.4,0,0,1-.24-1.32,2.85,2.85,0,0,1,.45-1.66,1.7,1.7,0,0,1,1.47-.78,1.51,1.51,0,0,1,1.14.43l.29.33h.07l.11-.53.11-.43-.32-.11a4,4,0,0,0-1.38-.24,3.53,3.53,0,0,0-2.38.8,2.92,2.92,0,0,0-.95,2.31,3.19,3.19,0,0,0,.22,1.24,2.25,2.25,0,0,0,.55.81,2.71,2.71,0,0,0,.92.6,4,4,0,0,0,1.48.28,3.54,3.54,0,0,0,1.45-.28l.2-.09.09-.34.11-.41Zm8.73-4.79-.68,0,0,.46,0,.65V51.7l0,.73,0,.5h1.36l0-.51c0-.22,0-.46,0-.74V50.31l.37.56.51.8c.24.37.41.64.51.82l.26.44h1.64l-.33-.46-.6-.86-.91-1.31-.48-.77.3-.35.81-.89.63-.69.49-.5-.57,0-.53,0-.33.48c-.16.24-.42.56-.74,1l-.53.67-.5.56v-.58l0-1v-.65l0-.47-.68,0Zm17,0-.63,0a37.38,37.38,0,0,1-3.33,4V50c0-1.09,0-2.06.08-2.94l-.67,0-.71,0c.08.84.09,1.84.09,2.95l-.08,2.88h.72c1.05-1.35,2.15-2.72,3.28-4,0,.31,0,.76,0,1.14,0,1,0,1.93-.07,2.89a5.72,5.72,0,0,1,.71,0,4.71,4.71,0,0,1,.65,0c-.08-.93-.07-2.22-.07-3.25,0-1.19,0-2.09.07-2.59Zm13.67,0-.64,0a39.79,39.79,0,0,1-3.32,4V50c0-1.09,0-2.06.07-2.94l-.67,0-.7,0c.06.86.08,1.84.08,2.95l-.08,2.88h.73c1-1.35,2.14-2.72,3.27-4,0,.31,0,.76,0,1.14,0,1,0,1.93-.05,2.89a5.56,5.56,0,0,1,.71,0,4.75,4.75,0,0,1,.65,0c-.09-.93-.07-2.22-.07-3.25,0-1.19,0-2.09.07-2.59Zm-.95-1.88H431a1,1,0,0,1-.36.51,1.88,1.88,0,0,1-1,.24,1.52,1.52,0,0,1-.88-.24,1.1,1.1,0,0,1-.33-.51h-.16l0,.5a1.72,1.72,0,0,1-.1.4l.34.13a2.82,2.82,0,0,0,1.17.18,6.31,6.31,0,0,0,1.33-.19l.29-.12-.1-.39-.05-.51Zm18.16,4.38V48.07l0-.36h.41c.39,0,1,0,1.34,0l.59,0,0-.34,0-.33-.58.06h-1.34l-1.12,0-.59,0,.05.43v5l-.05.41h2a4.08,4.08,0,0,0,.69,0A1.57,1.57,0,0,0,452,51.25c0-1.3-1.3-1.66-2.25-1.66Zm0,.55.28,0a1,1,0,0,1,1.14,1.06c0,.8-.37,1.19-1.07,1.19l-.32,0,0-.54V50.15ZM460,52.33l-.3.6h.9l.16-.58c.08-.25.16-.5.24-.72l.14-.36.43-.05a4.28,4.28,0,0,1,.55,0l.58,0,.44.05.13.36.25.74.18.56h1.51l-.3-.62c-.49-1-1-2.23-1.49-3.57L463,47.67l-.22-.57-.36,0-.31,0-.19.57-.42,1.09c-.54,1.35-1.05,2.52-1.53,3.57Zm1.39-1.73.14-.33.41-1,.2-.48.19.48.42,1,.14.33-.27,0a2.89,2.89,0,0,1-.43,0,4.12,4.12,0,0,1-.51,0l-.29,0Zm12.38-3.47-.69,0,0,.54q0,.36,0,1.35v.87c0,.56,0,1,0,1.35l0,1.19v.53h1.36l0-.52c0-.35,0-.7,0-1.07V50.18l.54,0h.75l.77,0,.55,0v.42l0,.75,0,1,0,.56h1.36l0-.59,0-1.19V49c0-.61,0-1.06,0-1.35l0-.54-.64,0-.72,0,0,.54,0,.68v1.09l-.52,0c-.21,0-.47,0-.75,0s-.54,0-.77,0l-.57,0v-.34l0-.75v-.68l0-.54-.67,0Zm13.65,0-.67,0,0,.46,0,.65V51.7l0,.73,0,.5h1.35l0-.51a5.38,5.38,0,0,1,0-.74v-.81l0-.56.36.56.52.8c.25.37.41.64.51.82l.27.44h1.63l-.34-.46-.59-.86-.9-1.31-.49-.77.3-.35.8-.89.64-.69.49-.5-.57,0-.54,0-.31.48c-.17.24-.43.56-.75,1l-.54.67-.51.56v-.58l0-1v-.65l0-.47Z"/></g></svg>