<svg width="40" height="40" viewBox="0 0 40 40" fill="none" xmlns="http://www.w3.org/2000/svg">
<path fill-rule="evenodd" clip-rule="evenodd" d="M13.8184 16.3972C13.8184 12.8632 16.587 9.99892 19.9995 10C23.4182 10 26.1826 12.8643 26.1826 16.4005C26.1826 19.9356 23.4171 22.8009 19.9995 22.8009C16.587 22.8009 13.8184 19.9356 13.8184 16.3972Z" fill="#F58220"/>
<path fill-rule="evenodd" clip-rule="evenodd" d="M37 30H3.00104V25.2H37V30Z" fill="#F58220"/>
<path fill-rule="evenodd" clip-rule="evenodd" d="M5.3192 10C4.4998 10 3.71698 10.1666 3 10.4664L3.00105 22.3335C3.71802 22.6343 4.49875 22.8009 5.3192 22.8009C8.73582 22.8009 11.5013 19.9356 11.5013 16.4005C11.5013 12.8653 8.73373 10 5.3192 10Z" fill="#F58220"/>
<path fill-rule="evenodd" clip-rule="evenodd" d="M34.6829 10C35.5023 10 36.283 10.1666 36.9989 10.4664L37 22.3335C36.2841 22.6343 35.5012 22.8009 34.6818 22.8009C31.2642 22.8009 28.4987 19.9356 28.4987 16.4005C28.4997 12.8653 31.2652 10 34.6829 10Z" fill="#F58220"/>
</svg>
