<svg width="40" height="40" viewBox="0 0 40 40" fill="none" xmlns="http://www.w3.org/2000/svg">
<path d="M30.6122 38H9.38595C5.31335 38 2 34.6845 2 30.6105V9.3883C2 5.31549 5.31273 2 9.38595 2H30.6122C34.6866 2 38 5.31549 38 9.3883V30.6105C38 34.6845 34.6866 38 30.6122 38Z" fill="white"/>
<path d="M18.1417 7.24267C18.6937 6.92344 19.2924 6.76165 19.8861 6.74298C18.6371 6.78094 17.4378 7.44367 16.7682 8.60172L6.00104 27.2483C4.97417 29.028 5.58531 31.3061 7.36583 32.3335C9.14573 33.364 11.4247 32.7536 12.4529 30.9726L20 17.9004L16.7812 12.3261C15.7513 10.547 16.3624 8.26881 18.1417 7.24267Z" fill="#00A1DE"/>
<path d="M33.9971 27.2483L23.2287 8.60239C22.5622 7.44434 21.3598 6.78099 20.1139 6.74365C20.7076 6.7617 21.3057 6.92411 21.8546 7.24334C23.6357 8.26948 24.2462 10.5476 23.2194 12.328L20.0006 17.9023L27.5471 30.9751C28.574 32.7542 30.8524 33.3659 32.6323 32.3354C34.4141 31.3074 35.0258 29.0293 33.9971 27.2483Z" fill="#0039A6"/>
<path d="M21.854 7.24274C21.3051 6.92351 20.707 6.76171 20.1133 6.74305C20.107 6.74305 20.099 6.74305 20.0915 6.74305C20.061 6.7418 20.0305 6.74305 20 6.74305C19.9683 6.74305 19.9371 6.7418 19.9066 6.74305C19.9004 6.74305 19.8942 6.74305 19.8861 6.74305C19.2924 6.76109 18.6937 6.92351 18.1417 7.24274C16.3624 8.26887 15.7513 10.547 16.7812 12.3274L20 17.9017L23.2188 12.3274C24.2456 10.547 23.6351 8.26887 21.854 7.24274Z" fill="#002C77"/>
<path d="M23.833 29.135C23.833 31.2514 22.1178 32.9664 20.0031 32.9664C17.8865 32.9664 16.1689 31.2514 16.1689 29.135C16.1689 27.0205 17.8865 25.303 20.0031 25.303C22.1172 25.3024 23.833 27.0187 23.833 29.135Z" fill="#EEAF30"/>
</svg>
