<?xml version="1.0" encoding="utf-8"?>
<!-- Generator: Adobe Illustrator 24.0.1, SVG Export Plug-In . SVG Version: 6.00 Build 0)  -->
<svg version="1.1" id="Layer_1" xmlns="http://www.w3.org/2000/svg" xmlns:xlink="http://www.w3.org/1999/xlink" x="0px" y="0px"
	 width="250px" height="49px" viewBox="0 0 250 49" style="enable-background:new 0 0 250 49;" xml:space="preserve">
<style type="text/css">
	.st0{fill:#164883;}
</style>
<g>
	<path class="st0" d="M81,43.3c-2,0.1-3.9-0.4-5.7-1.2c-1.6-0.6-3.1-1.6-4.1-2.9c-1.3-1.3-2.2-2.8-2.7-4.5c-0.6-1.8-0.8-3.6-0.8-5.5
		c0-1.9,0.2-3.8,0.8-5.7c0.6-1.7,1.5-3.2,2.7-4.5c1.1-1.3,2.5-2.3,4.1-2.9c1.8-0.8,3.7-1.2,5.7-1.2c1.4,0,2.8,0.2,4.1,0.6
		c1.3,0.5,2.6,1.1,3.7,2c1,0.8,1.9,1.8,2.5,2.9c0.7,1.4,1.1,2.8,1.4,4.3h-5.9c-0.1-0.7-0.3-1.3-0.6-2c-0.4-0.5-0.9-1-1.4-1.4
		c-0.5-0.5-1.1-0.9-1.8-1.2H81c-1.2-0.1-2.4,0.2-3.5,0.8c-0.9,0.4-1.6,1.1-2.2,2c-0.6,0.9-1.1,1.9-1.4,2.9c-0.2,1.2-0.4,2.3-0.4,3.5
		c0,1.1,0.2,2.2,0.4,3.3c0.2,1.1,0.7,2.1,1.4,2.9c0.6,0.9,1.3,1.6,2.2,2.2c1.1,0.5,2.3,0.8,3.5,0.8c1.6,0.1,3.2-0.6,4.3-1.8
		c1-1.3,1.7-2.9,1.8-4.5h5.9c-0.2,1.6-0.6,3.2-1.2,4.7c-0.7,1.3-1.5,2.5-2.5,3.5c-1.1,0.9-2.4,1.7-3.7,2.2
		C84,43.2,82.5,43.4,81,43.3z"/>
	<path class="st0" d="M93.1,37.6h2.4c0.8-1,1.4-2.2,2-3.3l1.2-4.1c0.2-1.6,0.4-3.3,0.4-4.9c0.2-1.8,0.2-3.7,0.2-5.5v-4.3H119v22.2
		h2.9v11.2h-5.5v-6.1H98.6v6.1h-5.5L93.1,37.6z M112.9,37.6V20.4h-8V21c0,1.7,0,3.4-0.2,5.1c0,1.4-0.1,2.9-0.4,4.3
		c-0.2,1.3-0.5,2.6-1,3.9c-0.3,1.2-0.8,2.3-1.4,3.3L112.9,37.6z"/>
	<path class="st0" d="M124.3,15.5h8.4l6.3,18.8h0.2l6.1-18.8h8.2v27.3H148V23.5l0,0l-6.7,19.2h-4.7l-6.7-19l0,0v19h-5.7L124.3,15.5z
		"/>
	<path class="st0" d="M156.5,15.5h18.8v2.4h-16.1V27h10.2c2.2-0.2,4.3,0.6,5.9,2.2c1.5,1.5,2.3,3.6,2.2,5.7c0.1,2.1-0.7,4.2-2.2,5.7
		c-1.6,1.5-3.7,2.3-5.9,2.2h-12.9V15.5z M168.8,40.6c1.6,0.1,3.3-0.5,4.5-1.6c2.1-2.4,2.1-5.9,0-8.2c-1.3-1.1-2.9-1.6-4.5-1.6h-9.6
		v11.4H168.8z"/>
	<path class="st0" d="M188,15.5h2.9l10.6,27.3h-2.7l-3.3-8.4h-12.4l-3.3,8.4h-2.7L188,15.5z M194.5,32L189.4,18L183.9,32H194.5z"/>
	<path class="st0" d="M203.5,15.5h2.5v11.8h16.1V15.5h2.5v27.3h-2.5V29.6h-16.1v13.1h-2.5V15.5z"/>
	<path class="st0" d="M227.6,15.5h2.5v14.7l15.7-14.7h3.5l-12.2,11.4L250,42.7h-3.3l-11.4-14.1l-5.1,4.7v9.4h-2.5L227.6,15.5z"/>
	<path class="st0" d="M0,38.6l8,5.5c4.9-1,25.3-5.1,25.3-12.4s-6.1-9-11.4-12.2s-7.8-4.7-7.8-7.5s2.5-5.3,7.5-6.9l3.1-0.8
		c-4.3,0.6-12.5,2.4-12.5,7.8S29,22.9,29,31S0,38.6,0,38.6z"/>
	<path class="st0" d="M16.9,12c0-3.7,3.9-5.9,7.1-7.1c-4.1,1-9.2,3.1-9.2,7.3s3.5,4.7,7.6,7.1s11.4,6.9,11.4,12.5s-4.5,6.9-13.3,9.8
		L8.6,44.5l6.7,4.3c0,0,22.4-6.5,22.4-15.5C37.6,18.2,16.9,17,16.9,12z"/>
	<path class="st0" d="M37.5,8.2c0,2.2-1.8,3.9-3.9,3.9h-1v2h1c3.1,0.1,5.8-2.3,5.9-5.5c0-0.1,0-0.3,0-0.4c0-3.1-2.5-5.7-5.7-5.7
		h-5.9v13.9h2v-5.7l0,0V4.5h3.9C35.8,4.5,37.5,6.2,37.5,8.2z"/>
	<path class="st0" d="M33.7,0.2h-8.2v16.3h2V2.1h6.3c3.4,0,6.1,2.7,6.1,6.1l0,0c0,3.5-2.8,6.3-6.3,6.3h0h-1v2h1
		c4.5-0.6,7.6-4.8,7-9.3C40,3.6,37.3,0.8,33.7,0.2L33.7,0.2z"/>
	<path class="st0" d="M48,29V18.8c0-2-1.5-3.7-3.5-3.9c-2.1,0.1-3.8,1.8-3.9,3.9V29h1.8V18.6c0.1-1.1,1.1-1.9,2.1-1.8c0,0,0,0,0,0
		c1,0.1,1.7,1,1.6,1.9c0,0,0,0,0,0V29L48,29z"/>
	<path class="st0" d="M56.1,29V18.8c-0.1-2.1-1.7-3.7-3.7-3.9c-1,0-2,0.4-2.7,1.2c-0.7,0.7-1.1,1.7-1.2,2.7V29h2V18.6
		c0.1-1.1,1.1-1.9,2.1-1.8c0,0,0,0,0,0c0.9,0.2,1.6,1,1.6,2V29L56.1,29z"/>
	<path class="st0" d="M52.4,12.7c-1.5-0.1-3,0.4-4.1,1.4c-2.7-2.2-6.7-1.7-8.8,1C38.5,16.2,38,17.6,38,19v10h2V18.8
		c0-2.3,1.8-4.2,4.1-4.3c1.6,0,3.1,0.9,3.9,2.4l0,0c0.7-1.4,2.1-2.3,3.7-2.4c2.3-0.1,4.2,1.6,4.3,3.9c0,0.1,0,0.3,0,0.4V29h2V19
		C58.2,15.7,55.6,12.9,52.4,12.7z"/>
</g>
</svg>
