<svg width="129" height="42" viewBox="0 0 129 42" fill="none" xmlns="http://www.w3.org/2000/svg">
<path d="M16.0103 15.141L20.6945 15.1363C21.5998 15.1363 22.4025 14.8855 23.0185 14.4655C23.6742 14.0431 24.1653 13.4155 24.457 12.7026L26.8673 6.11914L22.3477 6.12154C21.447 6.12154 20.6467 6.28834 19.9933 6.71184C19.2945 7.13184 18.7053 7.92514 18.5268 8.51434L16.0103 15.141Z" fill="#FDB913"/>
<path d="M27.9963 11.3763L27.028 13.8088C26.6138 14.7317 25.8613 15.7385 25.3748 16.0745C24.4275 16.7862 23.0718 17.4162 21.5936 17.4197L12.6371 17.4278L15.0591 9.89L16.0275 7.4575C16.4416 6.5347 17.193 5.52784 17.676 5.19067C18.6291 4.48017 19.979 3.84784 21.4583 3.84784L29.8945 3.8385L27.9963 11.3763ZM42.0021 0.13901H13.651C12.0876 0.13901 9.9958 0.58817 8.2598 1.80617C6.665 2.981 6.3593 4.06834 5.7445 5.3295C5.6406 5.57917 5.4446 5.91517 5.356 6.2103L1.5071 17.4348L0.2145 21.1273H29.4045C30.9643 21.125 33.0585 20.6793 34.7956 19.4602C36.3834 18.2853 36.6984 17.1945 37.3051 15.938C37.4113 15.6848 37.6096 15.3488 37.6983 15.0572L42.0021 0.20901H41.9764L42.0021 0.13901ZM57.0139 21.112C53.704 21.112 51.4897 20.6605 49.7607 18.5196C48.482 16.9505 47.8147 14.8668 47.8147 10.8278C47.8147 7.2975 48.1484 4.64449 49.6674 2.74283C51.6099 0.27067 54.7062 0 57.1037 0H66.092V4.011H60.4124C58.1677 4.011 56.4994 3.98183 55.5555 5.66883C54.9454 6.7258 54.8579 9.6798 54.8579 10.7053C54.8579 13.0585 55.1915 15.0826 55.3712 15.4431C56.2847 17.101 58.2575 17.101 60.5325 17.101H66.427V21.112H57.0139ZM82.176 0V8.3055H75.408V0H68.546V21.112H75.408V12.313H82.176V21.112H89.034V0H82.176ZM92.897 21.112V3.85816C92.897 2.92366 92.926 1.89933 93.746 1.0255C94.293 0.4515 95.235 0 96.27 0H107.526V4.011H101.185C100.76 4.011 100.212 3.98183 99.939 4.30966C99.757 4.55233 99.757 5.00499 99.757 5.36666V21.112H92.897ZM115.716 16.1256C115.716 17.6015 116.199 17.5128 117.173 17.5128H119.321C119.713 17.5128 120.473 17.5128 120.9 17.1208C121.295 16.7603 121.295 15.3603 121.295 14.9986C121.295 14.5145 121.295 12.4752 120.835 12.1438C120.382 11.7798 119.713 11.7798 119.321 11.7798H115.716V16.1256ZM127.091 4.01099H117.02C115.744 4.01099 115.716 4.49283 115.716 5.27683V8.0232H123.627C125.267 8.0232 126.483 8.687 127.119 9.4115C128.243 10.7053 128.333 12.9663 128.333 14.385C128.333 16.1945 128.181 18.1568 127.152 19.481C126.876 19.845 125.784 21.1096 123.687 21.1096H111.829C110.067 21.1096 108.854 19.8718 108.854 18.1568V3.3775C108.854 0.18083 111.406 0 112.161 0H127.089V4.01099H127.091ZM0 31.6074V39.9549C0.1867 39.97 0.414201 39.984 0.683701 40.0015C0.954301 40.019 1.253 40.0272 1.5797 40.0295C1.9565 40.0307 2.3228 40.0015 2.6822 39.9385C3.038 39.8767 3.3705 39.7775 3.6762 39.6364C3.9842 39.4964 4.2525 39.3085 4.4777 39.0752C4.676 38.8675 4.8323 38.6155 4.949 38.3239C5.0657 38.0322 5.1252 37.6927 5.1263 37.3042C5.1252 36.9402 5.0703 36.6229 4.9618 36.3464C4.8545 36.0699 4.704 35.8342 4.5138 35.637C4.3213 35.4387 4.0973 35.2765 3.8418 35.1494C3.5443 35.0012 3.2177 34.8939 2.8607 34.8285C2.5048 34.7585 2.1397 34.727 1.7628 34.7282C1.6975 34.7282 1.6123 34.7305 1.5097 34.7317C1.4058 34.7375 1.2962 34.741 1.1818 34.7457C1.0663 34.7527 0.9578 34.7585 0.854 34.7667C0.7537 34.7737 0.6662 34.7807 0.6008 34.7912V32.1149H4.466V31.6074H0ZM0.599701 35.2987C0.716301 35.2859 0.840001 35.2742 0.974201 35.2649C1.1095 35.2567 1.2425 35.2485 1.3697 35.2439C1.498 35.238 1.6123 35.2357 1.7115 35.2357C2.0615 35.2334 2.3963 35.2637 2.716 35.329C3.0333 35.3932 3.3238 35.4982 3.5828 35.6452C3.773 35.7525 3.9352 35.8844 4.0752 36.0419C4.2128 36.1994 4.3213 36.3849 4.396 36.5995C4.4742 36.8154 4.5127 37.0615 4.5127 37.3439C4.5115 37.6402 4.4648 37.9039 4.375 38.1337C4.284 38.3647 4.1592 38.563 3.9993 38.731C3.8255 38.913 3.6155 39.0635 3.3728 39.1814C3.129 39.3015 2.8677 39.3902 2.5888 39.4497C2.31 39.5069 2.0288 39.536 1.7488 39.536C1.5003 39.536 1.2845 39.5302 1.1002 39.5174C0.917001 39.5045 0.751299 39.4859 0.598499 39.4614V35.2987H0.599701ZM11.4858 37.0195L12.649 39.9549H13.2731L9.9703 31.6074H9.3823L6.055 39.9549H6.6792L7.8167 37.0195H11.4858ZM8.0243 36.512L9.198 33.5394C9.2633 33.3725 9.3228 33.2209 9.3765 33.0774C9.429 32.9339 9.4768 32.7951 9.5223 32.6621C9.5678 32.5279 9.611 32.3891 9.6518 32.2502H9.6763C9.7172 32.3832 9.758 32.5186 9.7988 32.6516C9.8408 32.7846 9.8887 32.9257 9.9412 33.0739C9.9937 33.2244 10.0555 33.3912 10.129 33.5755L11.291 36.512H8.0243ZM14.5926 31.6074V39.9549H15.1923V35.7689H20.3536V39.9549H20.9533V31.6074H20.3536V35.2614H15.1923V31.6074H14.5926ZM23.1058 31.6074V39.9549H23.7043V35.9299H24.0951C24.5408 35.9299 24.9235 35.9754 25.2455 36.0652C25.5675 36.1539 25.8428 36.2869 26.0726 36.4572C26.3001 36.631 26.4996 36.8422 26.663 37.0895C26.8286 37.338 26.9756 37.6204 27.104 37.9377C27.1985 38.1617 27.2941 38.3915 27.3933 38.6249C27.4925 38.8605 27.5975 39.0904 27.7036 39.3167C27.8098 39.543 27.9206 39.7565 28.0338 39.956H28.6696C28.5495 39.732 28.4375 39.5045 28.3325 39.277C28.231 39.0542 28.1283 38.815 28.0233 38.57C27.9171 38.3239 27.8028 38.0602 27.6791 37.7767C27.5403 37.4594 27.3921 37.1689 27.23 36.9052C27.0678 36.6427 26.88 36.4117 26.663 36.2134C26.4471 36.015 26.1893 35.854 25.886 35.7327C25.585 35.6114 25.2233 35.532 24.8033 35.497L28.4608 31.6086H27.7515L24.2048 35.448H23.7031V31.6086H23.1058V31.6074ZM32.8055 31.6074V39.9549H33.4051V35.7689H38.5664V39.9549H39.1661V31.6074H38.5664V35.2614H33.4051V31.6074H32.8055ZM46.0389 37.0195L47.2009 39.9549H47.8251L44.5223 31.6074H43.9354L40.6081 39.9549H41.2323L42.3709 37.0195H46.0389ZM42.5774 36.512L43.7523 33.5394C43.8176 33.3725 43.8759 33.2209 43.9296 33.0774C43.9833 32.9339 44.0311 32.7951 44.0754 32.6621C44.1209 32.5279 44.1641 32.3891 44.2038 32.2502H44.2283C44.2691 32.3832 44.3088 32.5186 44.3508 32.6516C44.3928 32.7846 44.4394 32.9257 44.4931 33.0739C44.5456 33.2244 44.6063 33.3912 44.6798 33.5755L45.8418 36.512H42.5774ZM49.1458 31.6074V39.9549H57.7943V31.6074H57.1946V39.4485H53.7693V31.6074H53.1696V39.4485H49.7443V31.6074H49.1458ZM64.216 35.2987H60.5453V32.1149H64.423V31.6074H59.9456V39.9549H64.631V39.4474H60.5453V35.8062H64.216V35.2987ZM66.197 31.6074V39.9549H66.796V32.1137H70.588V31.6062H66.197V31.6074ZM74.917 40.1042C75.348 40.1042 75.768 40.0424 76.174 39.921C76.58 39.7974 76.959 39.6154 77.313 39.3727C77.663 39.1335 77.973 38.8349 78.238 38.4767C78.505 38.1185 78.711 37.7079 78.861 37.2377C79.01 36.7699 79.087 36.246 79.089 35.6674C79.087 35.063 78.987 34.5065 78.788 33.9955C78.59 33.4845 78.312 33.04 77.948 32.6597C77.583 32.2817 77.153 31.9854 76.652 31.7754C76.153 31.5642 75.599 31.4581 74.991 31.4557C74.521 31.4581 74.074 31.5257 73.654 31.6646C73.233 31.8022 72.85 32.0006 72.504 32.2619C72.157 32.5197 71.857 32.8312 71.605 33.1952C71.349 33.5604 71.156 33.9699 71.017 34.4214C70.878 34.8764 70.81 35.3652 70.806 35.8914C70.811 36.505 70.912 37.0662 71.118 37.5784C71.321 38.0894 71.605 38.5362 71.975 38.913C72.343 39.2899 72.777 39.5804 73.272 39.788C73.771 39.9957 74.314 40.1019 74.903 40.1042H74.917ZM74.917 39.6084C74.489 39.606 74.09 39.5395 73.73 39.4077C73.366 39.2782 73.044 39.0939 72.761 38.8594C72.478 38.6237 72.238 38.3484 72.039 38.0357C71.841 37.7207 71.69 37.38 71.587 37.0137C71.484 36.6462 71.431 36.2624 71.431 35.8669C71.431 35.4539 71.478 35.0549 71.574 34.671C71.667 34.286 71.811 33.9291 72 33.6012C72.186 33.2734 72.423 32.9864 72.707 32.7379C72.99 32.4929 73.32 32.3004 73.695 32.1627C74.073 32.0262 74.497 31.9562 74.966 31.9527C75.432 31.9562 75.853 32.0274 76.228 32.1709C76.6 32.3132 76.928 32.5092 77.206 32.7601C77.485 33.0074 77.719 33.292 77.906 33.6117C78.093 33.9325 78.232 34.2744 78.325 34.6337C78.416 34.993 78.464 35.3535 78.464 35.721C78.462 36.2775 78.38 36.792 78.218 37.2622C78.056 37.7347 77.819 38.1454 77.513 38.4965C77.205 38.8489 76.834 39.1207 76.401 39.3144C75.964 39.508 75.475 39.6072 74.929 39.6095H74.917V39.6084ZM83.565 31.6074V39.9549H84.164V32.1137H87.957V31.6062H83.565V31.6074ZM92.287 40.1042C92.717 40.1042 93.137 40.0424 93.543 39.921C93.948 39.7974 94.328 39.6154 94.681 39.3727C95.032 39.1335 95.341 38.8349 95.606 38.4767C95.873 38.1185 96.081 37.7079 96.23 37.2377C96.378 36.7699 96.455 36.246 96.458 35.6674C96.455 35.063 96.357 34.5065 96.158 33.9955C95.959 33.4845 95.681 33.04 95.318 32.6597C94.953 32.2817 94.522 31.9854 94.022 31.7754C93.522 31.5642 92.968 31.4581 92.36 31.4557C91.889 31.4581 91.443 31.5257 91.023 31.6646C90.604 31.8022 90.221 32.0006 89.874 32.2619C89.526 32.5197 89.228 32.8312 88.975 33.1952C88.719 33.5604 88.525 33.9699 88.387 34.4214C88.249 34.8764 88.179 35.3652 88.177 35.8914C88.181 36.505 88.283 37.0662 88.487 37.5784C88.692 38.0894 88.977 38.5362 89.344 38.913C89.714 39.2899 90.147 39.5804 90.644 39.788C91.141 39.9957 91.685 40.1019 92.274 40.1042H92.287ZM92.287 39.6084C91.857 39.606 91.46 39.5395 91.098 39.4077C90.735 39.2782 90.413 39.0939 90.13 38.8594C89.846 38.6237 89.607 38.3484 89.409 38.0357C89.21 37.7207 89.06 37.38 88.956 37.0137C88.853 36.6462 88.801 36.2624 88.801 35.8669C88.801 35.4539 88.847 35.0549 88.943 34.671C89.036 34.286 89.18 33.9291 89.369 33.6012C89.556 33.2734 89.794 32.9864 90.076 32.7379C90.359 32.4929 90.688 32.3004 91.065 32.1627C91.442 32.0262 91.867 31.9562 92.335 31.9527C92.801 31.9562 93.221 32.0274 93.597 32.1709C93.969 32.3132 94.297 32.5092 94.576 32.7601C94.855 33.0074 95.088 33.292 95.275 33.6117C95.462 33.9325 95.6 34.2744 95.695 34.6337C95.786 34.993 95.833 35.3535 95.833 35.721C95.831 36.2775 95.749 36.792 95.586 37.2622C95.425 37.7347 95.189 38.1454 94.883 38.4965C94.575 38.8489 94.204 39.1207 93.77 39.3144C93.333 39.508 92.844 39.6072 92.298 39.6095H92.287V39.6084ZM97.999 39.9549H98.598V36.4C98.769 36.4537 98.955 36.4887 99.154 36.5039C99.351 36.5202 99.56 36.5272 99.773 36.5249C100.138 36.5249 100.48 36.4899 100.806 36.421C101.127 36.3522 101.421 36.2519 101.685 36.12C101.951 35.9859 102.178 35.8179 102.367 35.6195C102.576 35.4095 102.733 35.161 102.842 34.874C102.948 34.5894 103.003 34.2627 103.003 33.8975C103 33.5569 102.943 33.2501 102.83 32.9782C102.713 32.7087 102.552 32.4719 102.342 32.2736C102.098 32.0367 101.778 31.8547 101.381 31.7241C100.983 31.5969 100.508 31.5327 99.958 31.5304C99.576 31.5327 99.221 31.5467 98.891 31.5782C98.561 31.6086 98.266 31.6471 98 31.6914V39.9549H97.999ZM98.598 32.1522C98.722 32.1254 98.901 32.0997 99.128 32.0787C99.358 32.0542 99.631 32.0437 99.944 32.0414C100.281 32.0391 100.597 32.0717 100.89 32.1406C101.186 32.2094 101.447 32.3179 101.673 32.4684C101.899 32.6189 102.079 32.8172 102.207 33.0645C102.335 33.313 102.401 33.6152 102.403 33.9734C102.403 34.405 102.303 34.7737 102.105 35.0759C101.907 35.3792 101.618 35.6125 101.239 35.7735C100.858 35.9357 100.394 36.015 99.847 36.0174C99.612 36.0174 99.389 36.0069 99.176 35.9847C98.964 35.9614 98.772 35.924 98.6 35.868V32.1522H98.598ZM108.2 40.1042C108.629 40.1042 109.051 40.0424 109.455 39.921C109.861 39.7974 110.241 39.6154 110.593 39.3727C110.945 39.1335 111.253 38.8349 111.519 38.4767C111.786 38.1185 111.993 37.7079 112.142 37.2377C112.292 36.7699 112.367 36.246 112.371 35.6674C112.367 35.063 112.268 34.5065 112.07 33.9955C111.873 33.4845 111.594 33.04 111.23 32.6597C110.865 32.2817 110.435 31.9854 109.935 31.7754C109.434 31.5642 108.881 31.4581 108.272 31.4557C107.802 31.4581 107.355 31.5257 106.935 31.6646C106.515 31.8022 106.133 32.0006 105.785 32.2619C105.439 32.5197 105.139 32.8312 104.886 33.1952C104.63 33.5604 104.436 33.9699 104.299 34.4214C104.16 34.8764 104.09 35.3652 104.089 35.8914C104.092 36.505 104.195 37.0662 104.399 37.5784C104.603 38.0894 104.888 38.5362 105.257 38.913C105.625 39.2899 106.058 39.5804 106.555 39.788C107.052 39.9957 107.597 40.1019 108.185 40.1042H108.2ZM108.2 39.6084C107.77 39.606 107.373 39.5395 107.011 39.4077C106.647 39.2782 106.326 39.0939 106.043 38.8594C105.759 38.6237 105.519 38.3484 105.322 38.0357C105.124 37.7207 104.973 37.38 104.868 37.0137C104.765 36.6462 104.713 36.2624 104.713 35.8669C104.713 35.4539 104.76 35.0549 104.855 34.671C104.949 34.286 105.092 33.9291 105.282 33.6012C105.469 33.2734 105.705 32.9864 105.988 32.7379C106.272 32.4929 106.601 32.3004 106.977 32.1627C107.354 32.0262 107.779 31.9562 108.248 31.9527C108.713 31.9562 109.135 32.0274 109.509 32.1709C109.882 32.3132 110.208 32.5092 110.488 32.7601C110.767 33.0074 111.001 33.292 111.188 33.6117C111.375 33.9325 111.513 34.2744 111.608 34.6337C111.699 34.993 111.746 35.3535 111.746 35.721C111.743 36.2775 111.663 36.792 111.499 37.2622C111.337 37.7347 111.102 38.1454 110.795 38.4965C110.487 38.8489 110.117 39.1207 109.682 39.3144C109.247 39.508 108.757 39.6072 108.211 39.6095H108.2V39.6084ZM114.903 31.6074V33.7622C114.903 34.3595 114.886 34.9032 114.856 35.3909C114.823 35.8797 114.771 36.3242 114.698 36.7255C114.625 37.1257 114.53 37.4932 114.414 37.8245C114.339 38.031 114.252 38.2282 114.152 38.416C114.053 38.6062 113.954 38.7847 113.85 38.9574C113.746 39.1277 113.647 39.291 113.556 39.4485H112.957L113.032 42H113.521L113.583 39.9549H119.588L119.65 42H120.139L120.212 39.4474H119.49V31.6062H114.903V31.6074ZM115.466 32.1137H118.891V39.4474H114.196C114.274 39.326 114.359 39.1884 114.448 39.032C114.54 38.878 114.63 38.71 114.716 38.5327C114.803 38.3554 114.882 38.1734 114.953 37.9855C115.074 37.6624 115.172 37.3042 115.248 36.9157C115.324 36.5295 115.381 36.1025 115.416 35.6382C115.45 35.1762 115.467 34.6629 115.467 34.1075V32.1137H115.466ZM126.547 37.0195L127.709 39.9549H128.333L125.03 31.6074H124.443L121.116 39.9549H121.739L122.878 37.0195H126.547ZM123.085 36.512L124.26 33.5394C124.326 33.3725 124.384 33.2209 124.438 33.0774C124.49 32.9339 124.539 32.7951 124.584 32.6621C124.629 32.5279 124.671 32.3891 124.712 32.2502H124.736C124.776 32.3832 124.817 32.5186 124.858 32.6516C124.9 32.7846 124.947 32.9257 125 33.0739C125.054 33.2244 125.114 33.3912 125.188 33.5755L126.35 36.512H123.085Z" fill="#004282"/>
</svg>
