<?xml version="1.0" encoding="utf-8"?>
<!-- Generator: Adobe Illustrator 24.0.1, SVG Export Plug-In . SVG Version: 6.00 Build 0)  -->
<svg version="1.1" id="Layer_1" xmlns="http://www.w3.org/2000/svg" xmlns:xlink="http://www.w3.org/1999/xlink" x="0px" y="0px"
	 width="250px" height="50px" viewBox="0 0 250 50" style="enable-background:new 0 0 250 50;" xml:space="preserve">
<style type="text/css">
	.st0{fill:#323E48;}
	.st1{fill:url(#SVGID_1_);}
</style>
<g>
	<g>
		<g>
			<path class="st0" d="M56.2,0.4h11.6c6,0,9.9,4.8,9.9,9.5c0,4.8-4,9.8-9.9,9.8h-7.2v7.9h-4.4V0.4z M67.5,15.7
				c3.8,0,5.8-2.9,5.8-5.6c0-2.7-2-5.6-5.8-5.6h-6.8v11.2H67.5z"/>
			<path class="st0" d="M79,17.7c0-5.8,4-10.4,10.1-10.4c6.3,0,9.4,5.3,9.4,10.5v1.1H83.4c0.5,3.4,3.5,5.3,7.5,5.3
				c2.4,0,4.6-0.7,6.4-1.8v3.7c-1.6,1.1-4.3,1.9-7.3,1.9C83.9,28.1,79,24,79,17.7z M94.2,15.7c0-2.1-1.7-4.7-5.2-4.7
				c-3.3,0-5.3,2.3-5.5,4.7C83.5,15.7,94.2,15.7,94.2,15.7z"/>
			<path class="st0" d="M102.5,7.8h4.4v7.7h10V7.8h4.4v19.7h-4.4v-8.2h-10v8.2h-4.4V7.8z"/>
			<path class="st0" d="M125,17.7c0-5.8,4-10.4,10.1-10.4c6.3,0,9.4,5.3,9.4,10.5v1.1h-15.1c0.5,3.4,3.5,5.3,7.5,5.3
				c2.4,0,4.6-0.7,6.4-1.8v3.7c-1.6,1.1-4.3,1.9-7.3,1.9C129.9,28.1,125,24,125,17.7z M140.1,15.7c0-2.1-1.7-4.7-5.2-4.7
				c-3.3,0-5.3,2.3-5.5,4.7C129.4,15.7,140.1,15.7,140.1,15.7z"/>
			<path class="st0" d="M147.1,17.6c0-6.2,4.9-10.3,10.7-10.3c2.4,0,4.2,0.4,6,1.4v3.7c-1.7-0.8-3.4-1.3-5.3-1.3c-3.9,0-7,2.7-7,6.5
				s3.1,6.6,7,6.6c2.2,0,3.9-0.5,5.6-1.5v3.7c-1.9,1.1-3.8,1.6-6.3,1.6C152,28.1,147.1,23.9,147.1,17.6z"/>
			<path class="st0" d="M166.3,17.6c0-6.2,4.9-10.3,10.7-10.3c2.4,0,4.2,0.4,6,1.4v3.7c-1.7-0.8-3.4-1.3-5.3-1.3c-3.9,0-7,2.7-7,6.5
				s3.1,6.6,7,6.6c2.2,0,3.9-0.5,5.6-1.5v3.7c-1.9,1.1-3.8,1.6-6.3,1.6C171.2,28.1,166.3,23.9,166.3,17.6z"/>
			<path class="st0" d="M207.3,23.9v3.3c-0.6,0.4-1.7,0.7-2.5,0.7c-1.9,0-3.6-0.8-4.1-2.8c-1.4,1.6-3.8,3.1-7.3,3.1
				c-4.1,0-7.4-2.4-7.4-6.7c0-4.4,3.3-5.8,7.5-5.8c3,0,6.8,0,6.8,0v-0.3c0-3.4-2.7-4.3-5.8-4.3c-2.3,0-4.8,0.8-6.3,1.8V9
				c1.4-0.8,3.7-1.7,7.2-1.7c5.3,0,9.1,2.6,9.1,7.6v7.3c0,1.2,0.7,2,1.6,2C206.5,24.2,206.9,24.1,207.3,23.9z M200.2,18.9
				c0,0-3.1,0-5.2,0c-2.9,0-4.7,0.6-4.7,2.5c0,2.2,1.9,2.9,4.3,2.9c2.4,0,4.5-1.1,5.6-2.4L200.2,18.9L200.2,18.9z"/>
			<path class="st0" d="M210.5,7.8h4.4v7.7h10V7.8h4.4v19.7h-4.4v-8.2h-10v8.2h-4.4L210.5,7.8L210.5,7.8z"/>
			<path class="st0" d="M233,17.6c0-6.2,4.9-10.3,10.7-10.3c2.4,0,4.2,0.4,6,1.4v3.7c-1.7-0.8-3.4-1.3-5.3-1.3c-3.9,0-7,2.7-7,6.5
				s3.1,6.6,7,6.6c2.2,0,3.9-0.5,5.6-1.5v3.7c-1.9,1.1-3.8,1.6-6.3,1.6C237.9,28.1,233,23.9,233,17.6z"/>
		</g>
		<g>
			<path class="st0" d="M56.2,37.9h2v3.8l3.6-3.8h2.4l-4.1,4.5l4.8,5.3h-2.6l-4.2-4.5v4.5h-2V37.9z"/>
			<path class="st0" d="M67.7,37.9H72c2.1,0,3.4,1.2,3.4,2.9s-1.2,2.9-3.4,2.9h-2.2v3.8h-2V37.9z M71.8,42.1c1,0,1.5-0.4,1.5-1.2
				c0-0.8-0.6-1.2-1.5-1.2h-2.1v2.4C69.7,42.1,71.8,42.1,71.8,42.1z"/>
			<path class="st0" d="M78.4,37.9h7.1v1.8h-5.1v1.9h4.1v1.8h-4.1v2.5h5.3v1.8h-7.3V37.9z"/>
			<path class="st0" d="M88.3,45.8h1c0.8-1.3,1.3-3.1,1.3-6.4v-1.5h6.8v7.9h1.3v3.8h-1.9v-2h-6.7v2h-1.9L88.3,45.8L88.3,45.8z
				 M95.3,45.8v-6.1h-2.9c0,2-0.1,4.2-1.1,6.1H95.3z"/>
			<path class="st0" d="M101.7,37.9h2v6.3l4.7-6.3h1.7v9.7h-2v-6.4l-4.8,6.4h-1.7V37.9z"/>
			<path class="st0" d="M121.3,37.9v1.8h-3.1v7.9h-2v-7.9h-3.1v-1.8C113.1,37.9,121.3,37.9,121.3,37.9z"/>
		</g>
	</g>
	
		<radialGradient id="SVGID_1_" cx="1.3944" cy="2.6668" r="40.5526" gradientTransform="matrix(1 0 0 -1 0 50)" gradientUnits="userSpaceOnUse">
		<stop  offset="0" style="stop-color:#D6005E"/>
		<stop  offset="1" style="stop-color:#E3448A"/>
	</radialGradient>
	<path class="st1" d="M7,49.3H0V19.2C0,8.8,8.4,0.4,18.8,0.4h23.1V19c0,10.3-8.4,18.8-18.8,18.8H11.4l2.7-7h9
		c6.5,0,11.8-5.3,11.8-11.8V7.4H18.8C12.2,7.4,7,12.7,7,19.2V49.3z"/>
</g>
</svg>
