<svg x="0px" y="0px" width="250px" height="88.2px" overflow="inherit" viewBox="0, 0, 250, 88.2" preserveAspectRatio="xMidYMid" font-size="0" id="Слой_1" xml:space="preserve" enable-background="new 0 0 250 88.2" xmlns="http://www.w3.org/2000/svg" xmlns:xlink="http://www.w3.org/1999/xlink" xmlns:xml="http://www.w3.org/XML/1998/namespace" version="1.1"><style xml:space="preserve" type="text/css">
	.st0{fill:#DB082B;}
</style><path d="M121.9 3.2 L120.9 7.8 L113.2 7.8 L112.7 11.4 L114.7 11.4 C116.7 11.4 118.4 11.6 119.6 12.2 C120.8 12.9 122 14.1 122.1 16.6 C122.3 19.1 121.4 21.7 119.6 23.1 C117.8 24.6 115.1 24.8 113.7 24.8 L105.6 24.8 L108.1 3.200001 L121.9 3.200001 z M111.8 20.2 L113.6 20.2 C114.3 20.2 114.8 20 115.1 19.7 C115.6 19.2 115.9 18.5 115.9 17.5 C115.9 17.2 115.7 16.7 115.4 16.3 C114.9 15.8 114.4 15.8 114.1 15.8 L112.3 15.8 L111.8 20.2 z" xml:space="preserve" class="st0" style="fill:#DB082B;" /><path d="M135.2 24.8 L134.5 20.7 L129.5 20.7 L127.8 24.8 L121.8 24.8 L131.2 3.199999 L136.9 3.199999 L140.8 24.8 L135.2 24.8 z M133.8 16.3 L133.3 12.4 C133.1 11.7 133.1 10.9 133.3 9.299999 C132.6 12 132.6 11.7 132.3 12.7 L131.1 16.3 L133.8 16.3 z" xml:space="preserve" class="st0" style="fill:#DB082B;" /><path d="M157.5 24.8 L152 24.8 L153 15.8 L148.6 15.8 L147.6 24.8 L142.1 24.8 L144.6 3.199999 L150.1 3.199999 L149.3 11.2 L153.7 11.2 L154.5 3.199999 L160 3.199999 L157.5 24.8 z" xml:space="preserve" class="st0" style="fill:#DB082B;" /><path d="M168.4 11 L169.6 11 C170.3 11 170.9 11 171.6 10.3 C172.1 10 172.4 9.3 172.6 8.6 L173.3 6.400001 C173.8 5 174.3 4.400001 175 3.900001 C175.8 3.200001 176.8 3.100001 178.2 2.900001 L179.9 2.700001 L180.7 6.3 L179.4 6.6 C179.1 6.6 178.7 6.8 178.4 6.900001 C178.1 7.200001 177.7 7.700001 177.6 8.1 L176.8 10 C176.1 11.5 175.6 12 175.5 12.2 C175.3 12.2 174.8 12.9 173.7 13 L173.7 13.2 C174.4 13.4 175 13.9 175.4 14.4 C175.7 14.9 175.9 15.6 176.1 16.3 L176.8 18.7 C177 19.4 177 20.1 177.6 20.6 C177.9 20.9 178.3 20.9 178.6 21.1 L179.4 21.4 L177.9 25 L176.4 24.8 C175.2 24.6 173.5 24.6 172.5 23.3 C171.7 22.3 171.7 21.6 171.7 20.6 L171.4 18.1 C171.2 17.4 171.2 16.6 170.7 16.1 C170.2 15.6 169.4 15.4 169 15.4 L168.2 15.4 L167.2 24.6 L161.7 24.6 L164.2 2.999996 L169.7 2.999996 L168.4 11 z" xml:space="preserve" class="st0" style="fill:#DB082B;" /><path d="M111.7 31.2 C115.1 31.2 116.7 32 117.4 32.4 C119.1 33.6 119.4 34.9 119.6 36.1 C119.8 38.3 119.1 40.7 117.9 42.2 C115.9 44.6 112.9 45.1 110.7 45.1 L108.5 45.1 L107.7 52.7 L102.2 52.7 L104.7 31.1 L111.7 31.1 z M109.2 40.8 L110.7 40.8 C111.2 40.8 112.2 40.8 113.1 40 C113.6 39.3 113.8 38.1 113.6 37.3 C113.6 37 113.4 36.6 113.1 36.3 C112.6 36 111.9 36 111.6 36 L109.8 36 L109.2 40.8 z" xml:space="preserve" class="st0" style="fill:#DB082B;" /><path d="M131.7 53 L131 48.9 L126 48.9 L124.3 53 L118.3 53 L127.7 31.4 L133.4 31.4 L137.4 53 L131.7 53 z M130.3 44.5 L129.8 40.6 C129.6 39.9 129.6 39.1 129.8 37.5 C129.1 40.2 129.1 39.9 128.8 40.9 L127.6 44.5 L130.3 44.5 z" xml:space="preserve" class="st0" style="fill:#DB082B;" /><path d="M142.9 44 L143.4 39.9 L144.9 39.9 C145.7 39.9 146.7 39.7 147.4 39.4 C148.1 39.1 148.4 38.4 148.2 37.4 C148.2 37.1 148 36.6 147.7 36.2 C147.2 35.7 146.5 35.7 146 35.7 C145 35.7 143.6 35.9 142.1 36.9 L140.1 32.8 C140.8 32.3 141.6 32.1 142.5 31.8 C144 31.3 145.4 31.1 147.2 31.1 C148.7 31.1 150.6 31.3 151.9 32.3 C152.7 33 153.7 34.2 153.9 36 C154.1 37.5 153.6 38.90001 152.9 39.7 C152.4 40.40001 151.2 41.10001 150.2 41.60001 C151.9 41.90001 152.7 43.10001 152.7 43.10001 C153.2 43.80001 153.5 44.60001 153.5 45.50001 C153.7 47.70001 152.8 50.10001 151 51.60001 C149.5 52.80001 147.3 53.60001 144.1 53.60001 C142.9 53.60001 141.2 53.40001 139.9 52.80001 C139.1 52.50001 138.2 52.00001 137.5 51.40001 L140 47.7 C140.5 48.2 141.2 48.5 141.7 48.7 C142.4 48.90001 143 49 143.9 49 C144.9 49 145.7 48.8 146.4 48.3 C147.1 47.8 147.4 47.1 147.4 45.9 C147.4 45.6 147.2 44.9 146.6 44.4 C146.1 44.1 145.4 44.1 144.4 44.1 L142.7 44.1 L142.7 44 z" xml:space="preserve" class="st0" style="fill:#DB082B;" /><path d="M168.3 31.2 C171 31.2 173 32.9 173.2 35.4 C173.4 37.4 172.5 40.3 169.5 41.3 C171.2 41.8 172.7 43.3 172.9 45.4 C173.1 47.8 172.1 52.9 165 52.9 L156.3 52.9 L158.8 31.3 L168.4 31.3 L168.4 31.2 z M164.4 48.2 C165.9 48.2 166.8 46.8 166.6 45.3 C166.6 44.5 166.1 43.9 164.8 43.9 L162.8 43.9 L162.3 48.1 L164.4 48.1 z M165.4 39.6 C166.6 39.6 167.6 38.6 167.4 37.1 C167.4 36.3 166.9 35.9 165.7 35.9 L163.5 35.9 L163.2 39.6 L165.4 39.6 z" xml:space="preserve" class="st0" style="fill:#DB082B;" /><path d="M186.2 53 L187.2 44 C187.2 43.5 187.4 42.8 187.9 39.9 C187.7 40.4 186.9 41.9 186.1 43.6 L181.1 52.9 L175.4 52.9 L177.9 31.3 L183.4 31.3 L182.4 40.3 C182.2 41.3 181.9 43.9 181.7 44.4 C182.4 43 182.9 42 183.5 40.7 L188.5 31.4 L194.2 31.4 L191.8 53 L186.2 53 z" xml:space="preserve" class="st0" style="fill:#DB082B;" /><path d="M211.9 35.8 L206.9 35.8 L204.9 52.8 L199.5 52.8 L201.5 35.8 L196.5 35.8 L197 31.2 L213.1 31.2 L211.9 35.8 z" xml:space="preserve" class="st0" style="fill:#DB082B;" /><path d="M223.7 53 L224.7 44 C224.7 43.5 224.9 42.8 225.4 39.9 C225.2 40.4 224.4 41.9 223.6 43.6 L218.6 52.9 L212.9 52.9 L215.4 31.3 L220.9 31.3 L219.9 40.3 C219.7 41.3 219.4 43.9 219.2 44.4 C219.9 43 220.4 42 221 40.7 L226 31.4 L231.7 31.4 L229.2 53 L223.7 53 z" xml:space="preserve" class="st0" style="fill:#DB082B;" /><path d="M247.7 35.8 L241.1 35.8 L240.6 39.4 L246 39.4 L245.5 43.8 L240.1 43.8 L239.6 48.2 L247 48.2 L246.5 52.8 L233.7 52.8 L236.2 31.2 L248.6 31.2 L247.7 35.8 z" xml:space="preserve" class="st0" style="fill:#DB082B;" /><path d="M114.4 64.5 C113.4 63.7 112 63.5 111.2 63.5 C109.9 63.5 108.8 64.2 108.2 64.9 C107.5 65.6 107.2 66.8 106.9 68 C106.7 68.8 106.6 69.9 106.4 70.7 C106.4 71.5 106.2 72.89999 106.4 73.8 C106.4 74.49999 106.7 75.49999 107.4 76.2 C107.9 76.7 108.7 77 109.6 77 C111.3 77 112.6 76.2 113.3 75.5 L115.3 79.4 C113.1 81.3 110.4 81.6 108.4 81.6 C106.9 81.6 104.5 81.3 102.5 79.6 C100.7 77.9 100.1 75.9 100.1 74.5 C99.79999 70.3 100.8 65.3 103.8 62.3 C105 61.1 107.3 59.4 111.5 59.4 C114.5 59.4 116 60.2 116.9 60.9 L114.4 64.5 z" xml:space="preserve" class="st0" style="fill:#DB082B;" /><path d="M132.8 64 L127.8 64 L125.8 81 L120.3 81 L122.3 64 L117.3 64 L117.8 59.4 L134 59.4 L132.8 64 z" xml:space="preserve" class="st0" style="fill:#DB082B;" /><path d="M150.5 61.3 C151.5 62.5 152.5 64.2 152.9 67.1 C153.2 71 152.2 75.6 149.7 78.3 C147.9 80.3 145.3 81.49999 141.8 81.49999 C140 81.49999 137.8 81.19999 135.8 79.49999 C134 77.8 133.4 75.59999 133.4 74.09999 C133.1 70.49999 133.9 65.99999 136.3 63.09999 C138.1 60.69999 140.8 59.19999 144.7 59.19999 C146.4 59.1 148.8 59.4 150.5 61.3 z M145.8 64 C145.3 63.5 144.5 63.5 144.1 63.5 C142.6 63.5 141.2 64.2 140.2 66.7 C139.5 68.6 139 71.8 139.2 74.2 C139.2 74.7 139.4 76.1 140.2 76.7 C140.5 77 141.2 77.2 141.9 77.2 C142.7 77.2 144.4 77 145.6 73.8 C146.3 71.89999 146.8 69.2 146.4 66.3 C146.6 65.7 146.4 64.7 145.8 64 z" xml:space="preserve" class="st0" style="fill:#DB082B;" /><path d="M164.2 81.2 L166.2 63.9 L162.8 63.9 L162 69 C161.7 70.9 161.3 73.1 160.8 75.1 C160.5 76.3 160 78.2 159 79.3 C157.8 80.49999 156.1 80.99999 154.3 81.2 L152.6 81.39999 L151.9 77.49999 L152.7 77.3 C153.2 77.1 153.9 76.8 154.2 76.6 C154.9 76.3 155.2 75.8 155.5 75.1 C155.8 74.3 156.3 72.7 156.5 71.7 C157 69.5 157.7 65.2 158 63.2 L158.5 59.3 L172.1 59.3 L169.6 80.89999 L164.1 80.89999 L164.1 81.2 z" xml:space="preserve" class="st0" style="fill:#DB082B;" /><path d="M185.2 81.2 L186.2 72.2 C186.2 71.7 186.4 71 186.9 68.1 C186.7 68.6 185.9 70.1 185.1 71.8 L180.1 81.1 L174.4 81.1 L176.9 59.5 L182.4 59.5 L181.4 68.5 C181.2 69.5 180.9 72.1 180.7 72.6 C181.4 71.2 181.9 70.2 182.5 68.9 L187.5 59.6 L193.2 59.6 L190.7 81.2 L185.2 81.2 z" xml:space="preserve" class="st0" style="fill:#DB082B;" /><path d="M203.4 59.4 L201.4 76.4 L205.6 76.4 L207.6 59.4 L213.1 59.4 L211.1 76.4 L213.3 76.4 L212.1 86.2 L207.1 86.2 L207.8 80.9 L195.5 80.9 L198 59.3 L203.4 59.3 z" xml:space="preserve" class="st0" style="fill:#DB082B;" /><path d="M226.7 81.2 L226 77.1 L221 77.1 L219.3 81.2 L213.3 81.2 L222.7 59.6 L228.4 59.6 L232.3 81.2 L226.7 81.2 z M225.4 72.7 L224.9 68.8 C224.7 68.1 224.7 67.3 224.9 65.7 C224.2 68.39999 224.2 68.1 223.9 69.1 L222.7 72.7 L225.4 72.7 z" xml:space="preserve" class="st0" style="fill:#DB082B;" /><path d="M91.9 3.2 C91.7 3 91.4 2.9 91.1 2.9 L77.8 2.9 C77 2.9 76.10001 3.6 76 4.4 L71.7 44 C71.5 44.8 69 65 48.5 65 L27.9 65 C27.1 65 26.2 65.7 26.1 66.5 L24.7 80 C24.7 80.3 24.7 80.7 25 80.8 C25.2 81 25.5 81.10001 25.8 81.10001 L46.5 81.10001 C83.4 81.10001 87.6 44.80001 87.8 43.2 L92 4.1 C92 3.7 92 3.4 91.9 3.2 z M45.7 19.2 L66.4 19.2 C67.2 19.2 68.1 18.5 68.2 17.7 L69.50001 4.300001 C69.50001 4.000001 69.50001 3.600001 69.2 3.500001 C69.00001 3.300001 68.7 3.200001 68.4 3.200001 L47.7 3.200001 C10.7 2.9 6.4 39.1 6.2 40.6 L2.2 80.2 C2.2 80.5 2.2 80.89999 2.5 81 C2.7 81.2 3 81.3 3.3 81.3 L16.6 81.3 C17.4 81.3 18.3 80.60001 18.4 79.8 L22.6 40.2 C22.7 39.4 25.2 19.2 45.7 19.2 z M44.8 39.1 L57.4 39.1 C60.8 39.1 63.8 36.4 64.1 33.2 L64.6 28.3 C64.6 28 64.6 27.6 64.3 27.5 C64.1 27.3 63.8 27.2 63.5 27.2 L58.8 27.2 C58.8 27.2 58.8 27.2 58.59999 27.2 L46 27.2 C40 27.2 30.6 31.3 29.4 42.5 C28.2 53.7 36.8 57.8 42.8 57.8 L53.4 57.8 C56.8 57.8 59.8 55.1 60.1 51.9 L60.6 47.1 C60.6 46.8 60.6 46.4 60.3 46.3 C60.1 46.1 59.8 46 59.5 46 L54.6 46 C54.6 46 46.2 46 44.2 46 C42.2 46 41.3 44 41.5 42.9 C41.6 41.4 41.8 39.1 44.8 39.1 z" xml:space="preserve" class="st0" style="fill:#DB082B;" /></svg>