<svg x="0px" y="0px" width="250px" height="100px" overflow="inherit" viewBox="0, 0, 250, 100" preserveAspectRatio="xMidYMid" font-size="0" xml:space="preserve" id="Layer_1" xml="http://www.w3.org/XML/1998/namespace" enable-background="new 0 0 250 100" xmlns="http://www.w3.org/2000/svg" xmlns:xlink="http://www.w3.org/1999/xlink" xmlns:xml="http://www.w3.org/XML/1998/namespace" version="1.1"><style xml:space="preserve" type="text/css">
	.st0{fill:#00AFAA;}
	.st1{fill:#00539B;}
	.st2{fill:#F39A00;}
</style><title xml:space="preserve">logo</title><path d="M0.4 28.4 L24.9 28.4 C35.9 45.1 51.8 58.9 71 68.5 L71 89.8 C37.8 79.9 11.7 57.2 0.4 28.4 z" xml:space="preserve" class="st0" style="fill:#00AFAA;" /><path d="M71 28.4 L71 68.5 C51.9 58.9 36 45 25 28.4 L71 28.4 z" xml:space="preserve" class="st1" style="fill:#00539B;" /><path d="M71 28.4 L24.9 28.4 C19.1 19.6 14.7 10.1 11.9 0.2999992 L38.6 0.2999992 C56.5 0.2 71 12.8 71 28.4 C71 28.4 71 28.4 71 28.4 z" xml:space="preserve" class="st0" style="fill:#00AFAA;" /><path d="M103.4 56.5 L103.4 79.7 C92.1 77.3 81.2 73.5 71 68.4 L71 28.4 C88.9 28.4 103.4 41 103.4 56.5 z" xml:space="preserve" class="st2" style="fill:#F39A00;" /><path d="M70.8 0.2 C74.4 14.4 87.10001 25.4 103.4 28.6 L103.4 0.2 L70.8 0.2 z" xml:space="preserve" class="st0" style="fill:#00AFAA;" /><path d="M157.2 35 L157.2 63.6 L147.1 63.6 L147.1 35 L136.4 35 L136.4 28.3 L167.8 28.3 L167.8 35 L157.2 35 z M220.3 31.5 C223.7 29.1 227.9 27.8 232.2 27.7 C243.8 27.7 249.4 34.9 249.4 45.1 C249.4 58 241 64.6 229 64.6 C217.1 64.6 210.6 58 210.6 42.8 C210.6 30.1 213.9 21.4 219 17.4 C224.8 12.7 226.6 12.8 233.4 11.4 C237.5 10.5 241.6 9.9 243.2 9.4 L246.9 16.7 C244.9 17.8 241.2 18.5 233.8 19.8 C225.1 21.1 221.2 23.7 220.3 31.5 L220.3 31.5 z M229.6 57.5 C236.2 57.5 238.7 52.8 238.7 46.1 C238.7 40.1 236.7 35.1 229.9 35.1 C226.2 35.1 223.4 35.9 221.4 37.4 C221 39.7 221.1 43.3 221.1 45.6 C221.1 52.7 223.7 57.5 229.6 57.5 L229.6 57.5 z M197.1 63.6 L183.5 47.1 L183.5 63.6 L173.3 63.6 L173.3 28.3 L183.5 28.3 L183.5 43.8 L195.6 28.3 L206.8 28.3 L193.7 44.3 L209 63.7 L197.1 63.6 C197.1 63.7 197.1 63.6 197.1 63.6 z" xml:space="preserve" class="st1" style="fill:#00539B;" /></svg>