<?xml version="1.0" encoding="utf-8"?>
<!-- Generator: Adobe Illustrator 24.0.1, SVG Export Plug-In . SVG Version: 6.00 Build 0)  -->
<svg version="1.1" id="Слой_1" xmlns="http://www.w3.org/2000/svg" xmlns:xlink="http://www.w3.org/1999/xlink" x="0px" y="0px"
	 width="250px" height="20px" viewBox="0 0 250 20" style="enable-background:new 0 0 250 20;" xml:space="preserve">
<style type="text/css">
	.st0{fill-rule:evenodd;clip-rule:evenodd;fill:#E61C41;}
</style>
<g>
	<path class="st0" d="M108,9.8h3c1.6,0,2.8-0.9,2.8-2.2c0-1.3-1.2-2.1-2.8-2.1h-3V9.8z M114.3,18.1l-3.1-4.7h0H108v4.7h-4.1V1.9h7.2
		c4.1,0,6.8,2.2,6.8,5.7c0,2.1-1,3.8-2.8,4.8l3.9,5.7H114.3z"/>
	<path class="st0" d="M125.1,5.4v3h7v3.4h-7v2.8h8v3.5h-11.9V1.9h11.9v3.5H125.1z"/>
	<path class="st0" d="M146.4,10c0-2.5-2-4.4-4.6-4.4h-2.5v9h2.5C144.4,14.5,146.4,12.5,146.4,10z M150.4,10c0,4.8-3.6,8.2-8.7,8.2
		h-6.5V1.9h6.5C146.8,1.9,150.4,5.2,150.4,10z"/>
	<path class="st0" d="M153.7,18.1h4.3V1.9h-4.3V18.1z"/>
	<path class="st0" d="M173.2,5.5h-4.5v12.6h-3.9V5.5h-4.5V1.9h13V5.5z"/>
	<path class="st0" d="M97.5,12.2c-0.6,1.4-1.9,2.3-3.7,2.3c-2.6,0-4.4-1.9-4.4-4.5c0-2.6,1.8-4.5,4.4-4.5c1.8,0,3,0.9,3.7,2.3h4.2
		c-0.8-3.6-3.8-5.9-7.8-5.9c-4.8,0-8.4,3.4-8.4,8.1c0,4.7,3.6,8.1,8.4,8.1c4,0,7-2.4,7.8-5.9H97.5z"/>
	<path class="st0" d="M191.9,13.1c0-1-0.8-1.6-2.4-1.6h-3.7v3.3h3.6C191.2,14.8,191.9,14,191.9,13.1z M185.9,5.2v3.4h3.1
		c1.5,0,2.4-0.8,2.4-1.8c0-1-0.8-1.6-2.4-1.6H185.9z M195.9,13.6c0,2.7-2.2,4.5-5.9,4.5h-8.2V1.9h7.7c3.6,0,5.6,1.7,5.6,4.3
		c0,1.5-0.8,3.1-2.3,3.6C194.9,10.2,195.9,11.9,195.9,13.6z"/>
	<path class="st0" d="M207.7,12l-2.1-5.5l-2.1,5.5H207.7z M209,15.3h-6.7l-1.1,2.8H197l6.8-16.2h3.8l6.7,16.2h-4.2L209,15.3z"/>
	<path class="st0" d="M230.5,1.9v16.2h-3.2l-7.9-8.9v8.9h-4.1V1.9h3.1l8,9.1V1.9H230.5z"/>
	<path class="st0" d="M240.4,12.1l-2.5,2.8v3.3h-4.1V1.9h4.1v7.4l6.6-7.4h4.9L243.1,9l6.9,9.1h-5.2L240.4,12.1z"/>
	<path class="st0" d="M15.2,1.9v16.2H11V12H4.2v6.1H0V1.9h4.2v6.5H11V1.9H15.2z"/>
	<path class="st0" d="M60.6,18.1h-4V10l-3.6,5.6v0h-2.2v0l-3.6-5.6l0,8.2h-4V1.9h3l5.7,8.7l5.7-8.7h3V18.1z"/>
	<path class="st0" d="M67.8,5.4v3h7v3.4h-7v2.8h8v3.5H63.9V1.9h11.9v3.5H67.8z"/>
	<path class="st0" d="M28.7,1.9c-6.3,0-11.4,4.7-11.4,10.6c0,2.1,0.6,4,1.7,5.6h5.5c-1.7-1.2-2.7-3.2-2.7-5.4C21.8,9,24.9,6,28.7,6
		c3.8,0,6.9,3,6.9,6.8c0,2.2-1.1,4.2-2.7,5.4h5.5c1.1-1.6,1.7-3.6,1.7-5.6C40,6.6,35,1.9,28.7,1.9z"/>
	<path class="st0" d="M24.9,13.8c0.5,1.9,2,3.2,3.8,3.2c1.8,0,3.2-1.4,3.8-3.2H24.9z"/>
</g>
</svg>
