<?xml version="1.0" encoding="utf-8"?>
<!-- Generator: Adobe Illustrator 24.0.1, SVG Export Plug-In . SVG Version: 6.00 Build 0)  -->
<svg version="1.1" id="Слой_1" xmlns="http://www.w3.org/2000/svg" xmlns:xlink="http://www.w3.org/1999/xlink" x="0px" y="0px"
	 width="250px" height="42px" viewBox="0 0 250 42" style="enable-background:new 0 0 250 42;" xml:space="preserve">
<style type="text/css">
	.st0{fill:#9C2259;}
</style>
<g>
	<path class="st0" d="M30.7,12c-0.3,1.2-1,2.3-1.8,3.3l0,0l-0.1,0.1L12.2,31.9l0,9.8l16.5-16.5c1.5-1.5,2.2-3.5,2-5.5h0
		C30.7,19.7,30.7,12,30.7,12z"/>
	<path class="st0" d="M0.9,11.6L0.9,11.6C1,11.8,1,12,1,12.1l0,0.1c0,0.1,0.1,0.3,0.2,0.4l0,0.1c0.2,0.4,0.4,0.8,0.6,1.1l0,0.1
		C2,13.9,2,14,2.1,14.1l0,0c0.1,0.1,0.2,0.3,0.4,0.4L7,10.1c0,0,0-9.8,0-9.8C5.5,1.8,4,3.3,2.6,4.7C1.4,5.9,0.8,8.3,0.7,9.9l0,0.1
		l0,0.2c0,0,0,0.1,0,0.1c0,0,0,0.1,0,0.1l0,0.2c0,0.1,0,0.3,0,0.4c0,0,0,0.1,0,0.1l0,0C0.8,11.3,0.9,11.4,0.9,11.6
		C0.9,11.6,0.9,11.6,0.9,11.6z M48.3,10.5c3.3,0,4.9,1.5,4.9,3.8c0,1.5-0.9,2.7-2.2,3.2c1.7,0.4,2.8,1.7,2.8,3.7
		c0,2.7-1.9,4.4-4.8,4.4h-7.7V10.5L48.3,10.5L48.3,10.5L48.3,10.5z M44,16.8h3.6c2,0,3-0.5,3-2.1c0-1.9-1.4-2.1-2.9-2.1H44L44,16.8
		L44,16.8L44,16.8z M44,23.4h4c1.8,0,3.3-0.4,3.3-2.3c0-2.1-1.6-2.4-3.3-2.4H44V23.4z M65.4,25.6V12.8h-4.7L60.5,20
		c-0.2,4.2-1.9,5.9-4,5.9c-0.6,0-1.2-0.1-1.6-0.3v-2c0.3,0.1,0.8,0.2,1,0.2c1.1,0,1.9-0.6,2-4.5l0.3-8.7H68v15.1L65.4,25.6
		L65.4,25.6L65.4,25.6z M84.2,25.6h-2.8l-1.4-4h-6l-1.5,4h-2.7l5.8-15.1h2.8L84.2,25.6L84.2,25.6z M77,13.2l-2.3,6.3h4.6L77,13.2
		L77,13.2z M97.8,29.3v-3.7H88v3.7h-2.6v-6h1.5c1.1-2,2-6.3,2-10.4v-2.3h9.8v12.8h1.7v6H97.8L97.8,29.3z M96,12.8h-4.6v0.9
		c0,3.7-0.8,7.7-1.7,9.6H96C96,23.3,96,12.8,96,12.8z M109.8,25.6h-7.1V10.5h11.1v2.3h-8.4v3.5h4.5c3.3,0,5.1,1.7,5.1,4.6
		C114.9,23.9,113,25.6,109.8,25.6z M109.6,18.4h-4.4v5h4.4c1.7,0,2.6-0.8,2.6-2.5C112.3,19.4,111.3,18.4,109.6,18.4z M117.4,10.5
		h2.6v11.5l6.5-11.5h3.1v15.1H127V14l-6.5,11.5h-3.1L117.4,10.5C117.5,10.5,117.4,10.5,117.4,10.5z M138.6,25.9
		c-3.6,0-6.3-1.7-6.3-5.3h2.6c0,2.3,1.8,3.2,3.9,3.2c1.9,0,3-0.9,3-2.6c0-1.6-1.1-2.4-2.8-2.4h-1.8v-2.1h1.8c1.4,0,2.4-0.9,2.4-2.3
		c0-1.3-1-2.1-2.7-2.1c-1.9,0-3.1,0.8-3.3,2.6h-2.5c0.1-3.4,2.6-4.7,5.6-4.7c3,0,5.4,1.2,5.4,4.1c0,1.6-1.2,2.9-2.4,3.2v0.1
		c1.7,0.3,2.9,1.8,2.9,3.7C144.4,23.1,142.8,25.9,138.6,25.9L138.6,25.9z M159.4,25.6h-2.6v-6.8h-6.9v6.8h-2.6V10.5h2.6v6h6.9v-6
		h2.6V25.6z M173.8,12.7h-8.2v4h7.6v2.1h-7.6v4.4h8.4v2.3h-11V10.5h10.8L173.8,12.7L173.8,12.7L173.8,12.7z M183.1,25.9
		c-4.2,0-7-3.1-7-7.9c0-4.3,2.6-7.9,7.2-7.9c3,0,5.8,1.6,6.3,5.1h-2.6c-0.4-1.8-1.8-2.9-3.7-2.9c-3.2,0-4.5,2.9-4.5,5.6
		c0,2.8,1.2,5.6,4.4,5.6c2.5,0,3.6-1.6,3.8-3.8h2.6C189.3,23.5,186.8,25.9,183.1,25.9L183.1,25.9z M204.5,10.5v0.8H195v5.9h5.6
		c3,0,4.8,1.5,4.8,4.2c0,3.4-3.2,4.2-4.9,4.2h-6.4V10.5L204.5,10.5C204.5,10.5,204.5,10.5,204.5,10.5z M195,18v6.8h5.2
		c3.2,0,4.2-1.7,4.2-3.4c0-1.6-1-3.4-3.7-3.4H195z M219.3,25.6h-1l-1.9-4.9h-7.3l-1.9,4.9h-1l6.1-15.1h1L219.3,25.6z M213.4,13
		c-0.2-0.5-0.4-1.1-0.6-1.6c-0.2,0.5-0.4,1-0.6,1.5l-2.8,7h6.7C216.1,20,213.4,13,213.4,13z M233.2,25.6h-0.9v-7.5h-9.7v7.5h-0.9
		V10.5h0.9v6.8h9.7v-6.8h0.9C233.2,10.5,233.2,25.6,233.2,25.6z M241.8,16.8l7.4,8.8H248l-6.8-8.2l-3.1,2.9v5.3h-0.9V10.5h0.9v8.6
		l9.5-8.6h1.2L241.8,16.8L241.8,16.8z M102.6,28.1H250l-0.4-0.4h-147V28.1z M0,0.3"/>
	<g>
		<path class="st0" d="M12.1,20.9c0-2.8,0-6,0-8.8c0-0.4,0.3-0.4,0.6-0.8c2-2.1,4-4.1,6.1-6.1c2.6-2.4,6.8-2.8,9.5,0
			c2.7,2.8,2,7.7-0.1,9.5c-2.5-1.7-3.9-1.6-5.7-1.5C21.3,13.3,20,14.1,19,15c-2.1,2-5,4.8-6.9,6.9C12.2,21.6,12.1,21.4,12.1,20.9z"
			/>
		<path class="st0" d="M11.4,34.5c-2.9-2.9-6.7-6.6-9.6-9.9c-0.9-1-1.4-2.8-1.6-4.2C-0.1,18,0,14.8,0,12.7c4.6,6,9.8,10.5,14.7,15.6
			c-0.9,0.9-1.9,1.7-2.7,2.5C11.4,31.4,11.5,32.3,11.4,34.5z"/>
	</g>
</g>
</svg>
