<svg width="40" height="40" viewBox="0 0 40 40" fill="none" xmlns="http://www.w3.org/2000/svg">
<path fill-rule="evenodd" clip-rule="evenodd" d="M18.396 16.0986C18.396 16.276 18.3903 16.4521 18.3789 16.6268H21.604V11.8732C21.604 9.73411 23.3594 8 25.5248 8C27.6901 8 29.4455 9.73411 29.4455 11.8732V16.1061C29.5637 16.1011 29.6826 16.0986 29.802 16.0986C34.3296 16.0986 38 19.7244 38 24.1972C38 28.6699 34.3296 32.2958 29.802 32.2958C25.3339 32.2958 21.7007 28.7647 21.6059 24.3732H18.396V29.1268V29.3028H18.3921C18.2989 31.3602 16.5809 33 14.4752 33C12.3696 33 10.6516 31.3602 10.5584 29.3028H10.5545V29.1268V24.3732V24.1897C10.4363 24.1946 10.3174 24.1972 10.198 24.1972C5.67038 24.1972 2 20.5713 2 16.0986C2 11.6259 5.67038 8 10.198 8C14.7257 8 18.396 11.6259 18.396 16.0986ZM8.77228 16.0986C8.77228 16.8765 9.4106 17.507 10.198 17.507C10.9854 17.507 11.6238 16.8765 11.6238 16.0986C11.6238 15.3207 10.9854 14.6901 10.198 14.6901C9.4106 14.6901 8.77228 15.3207 8.77228 16.0986ZM28.3762 24.1972C28.3762 24.9751 29.0146 25.6056 29.802 25.6056C30.5894 25.6056 31.2277 24.9751 31.2277 24.1972C31.2277 23.4193 30.5894 22.7887 29.802 22.7887C29.0146 22.7887 28.3762 23.4193 28.3762 24.1972ZM38 11.3451C38 13.1925 36.484 14.6901 34.6139 14.6901C32.7437 14.6901 31.2277 13.1925 31.2277 11.3451C31.2277 9.49764 32.7437 8 34.6139 8C36.484 8 38 9.49764 38 11.3451Z" fill="#4797D0"/>
</svg>
