<?xml version="1.0" encoding="utf-8"?>
<!-- Generator: Adobe Illustrator 24.0.1, SVG Export Plug-In . SVG Version: 6.00 Build 0)  -->
<svg version="1.1" id="Слой_1" xmlns="http://www.w3.org/2000/svg" xmlns:xlink="http://www.w3.org/1999/xlink" x="0px" y="0px"
	 width="250px" height="50px" viewBox="0 0 250 50" style="enable-background:new 0 0 250 50;" xml:space="preserve">
<style type="text/css">
	.st0{fill-rule:evenodd;clip-rule:evenodd;fill:#1D1D1B;}
	.st1{fill-rule:evenodd;clip-rule:evenodd;fill:#0063AB;}
	.st2{fill:#F19000;}
</style>
<g>
	<path class="st0" d="M92.6,36.2l0,1.3h1.3c0.5,0,0.9,0.1,1.3,0.3C95.7,38.3,96,39,96,40c0,0.6-0.1,1-0.3,1.4
		c-0.3,0.6-1,0.9-1.9,0.9h-2.7l0-7.6h4.4v1.5H92.6L92.6,36.2z M92.6,39L92.6,39l0,1.8h1c0.3,0,0.5-0.1,0.7-0.2
		c0.1-0.1,0.2-0.4,0.2-0.7c0-0.4-0.1-0.7-0.3-0.8C94,39.1,93.9,39,93.6,39L92.6,39L92.6,39z M98.2,34.7L98.2,34.7h1.5l2.1,7.6h-1.5
		l-0.4-1.4h-1.9l-0.3,1.4h-1.5L98.2,34.7L98.2,34.7z M98.2,39.6L98.2,39.6h1.3l-0.7-2.8L98.2,39.6L98.2,39.6z M103.5,39.1
		L103.5,39.1l0,3.3H102l0-7.6h1.4l0,2.9h1.9l0-2.9h1.4l0,7.6h-1.4l0-3.3H103.5L103.5,39.1z M109.5,37.9L109.5,37.9l1.8-3.2h1.7
		l-2.2,3.5l2.4,4.1h-1.7l-1.8-3.7h0l0,3.7H108l0-7.6h1.4L109.5,37.9L109.5,37.9L109.5,37.9z"/>
	<path class="st0" d="M92.5,26.2l2.1-4.8l1.4,0l0,7.6h-1.4l0-4.9l-2.1,4.9h-1.4l0-7.6h1.4L92.5,26.2L92.5,26.2z M98.7,25.7
		L98.7,25.7l0,3.3h-1.4l0-7.6h1.4l0,2.9h1.9l0-2.9h1.4l0,7.6h-1.4v-3.3L98.7,25.7L98.7,25.7z M103.2,21.3L103.2,21.3h2.8
		c0.7,0,1.2,0.2,1.5,0.6c0.2,0.3,0.3,0.7,0.3,1.3c0,0.4-0.1,0.8-0.3,1c-0.2,0.3-0.4,0.4-0.7,0.5v0c0.3,0.1,0.5,0.2,0.7,0.4
		c0.4,0.4,0.5,0.9,0.5,1.5c0,0.8-0.2,1.4-0.7,1.7c-0.3,0.3-0.8,0.4-1.5,0.4h-2.7L103.2,21.3L103.2,21.3z M104.7,22.8L104.7,22.8v1.5
		h1.1c0.2,0,0.3-0.1,0.4-0.2c0-0.1,0.1-0.1,0.1-0.2c0-0.1,0.1-0.2,0.1-0.3c0-0.2,0-0.4-0.1-0.5c-0.1-0.1-0.3-0.2-0.5-0.2L104.7,22.8
		L104.7,22.8z M104.7,25.7L104.7,25.7v1.7h1.3c0.2,0,0.4-0.1,0.5-0.2c0.1-0.1,0.2-0.4,0.2-0.6c0-0.3-0.1-0.5-0.2-0.7
		c-0.1-0.1-0.3-0.2-0.6-0.2H104.7L104.7,25.7z M110.5,24.3L110.5,24.3h2.7v1.4h-2.7l0,1.7h3.1v1.5h-4.6l0-7.6h4.5l0,1.5h-3.1
		L110.5,24.3L110.5,24.3z M118,26.2L118,26.2h1.4c-0.1,1-0.3,1.7-0.7,2.2c-0.4,0.5-1,0.7-1.9,0.7c-0.9,0-1.6-0.3-2-0.9
		c-0.5-0.6-0.7-1.6-0.7-3c0-1.2,0.2-2.1,0.5-2.8c0.5-0.9,1.2-1.4,2.2-1.4c1,0,1.7,0.4,2.2,1.1c0.3,0.5,0.4,1,0.4,1.7h-1.4
		c0-0.5-0.2-0.8-0.4-1.1c-0.2-0.2-0.4-0.3-0.7-0.3c-0.3,0-0.6,0.1-0.8,0.4c-0.3,0.4-0.5,1.2-0.5,2.2c0,1,0.2,1.7,0.5,2.1
		c0.2,0.3,0.5,0.4,0.8,0.4c0.3,0,0.6-0.1,0.7-0.3C117.8,27.1,117.9,26.8,118,26.2L118,26.2z M121.2,22.8L121.2,22.8h-1.7l0-1.5h4.8
		l0,1.5h-1.7l0,6.1h-1.4L121.2,22.8L121.2,22.8z M126.3,26.2L126.3,26.2l2.1-4.8l1.4,0l0,7.6h-1.4l0-4.9l-2.1,4.9h-1.4l0-7.6h1.4
		L126.3,26.2L126.3,26.2z M132.5,27.4L132.5,27.4h2l0-6.1h1.4l0,6.1h0.8l-0.1,3.2h-1.3v-1.7h-4.3l0-7.6h1.4L132.5,27.4L132.5,27.4z
		 M138.8,26.2L138.8,26.2l2.1-4.8l1.4,0l0,7.6h-1.4l0-4.9l-2.1,4.9h-1.4l0-7.6h1.4L138.8,26.2L138.8,26.2z M146,29.1L146,29.1
		c-0.8,0-1.4-0.3-1.9-0.8c-0.4-0.4-0.6-1-0.8-1.7c-0.1-0.3-0.1-0.5-0.1-0.7c0-0.2,0-0.5,0-0.8c0-0.6,0.1-1.1,0.2-1.5
		c0.2-0.7,0.4-1.3,0.8-1.7c0.5-0.5,1.1-0.8,1.9-0.8c1.1,0,1.8,0.4,2.3,1.3c0.4,0.7,0.6,1.6,0.6,2.7c0,1.1-0.2,2-0.5,2.7
		C147.9,28.7,147.1,29.1,146,29.1L146,29.1z M146,27.7L146,27.7c0.4,0,0.7-0.1,0.9-0.4c0.3-0.4,0.4-1.1,0.4-2.1c0-1-0.1-1.7-0.5-2.1
		c-0.2-0.3-0.5-0.4-0.9-0.4c-0.4,0-0.7,0.1-0.9,0.4c-0.3,0.4-0.4,1.1-0.4,2.1c0,1,0.1,1.7,0.4,2.1C145.4,27.5,145.6,27.7,146,27.7
		L146,27.7z M151.2,25.7L151.2,25.7l0,3.3h-1.4l0-7.6h1.4l0,2.9h1.9l0-2.9h1.4l0,7.6h-1.4l0-3.3L151.2,25.7L151.2,25.7z M157.2,25.7
		L157.2,25.7l0,3.3h-1.4l0-7.6h1.4l0,2.9h1.9v-2.9h1.4l0,7.6h-1.4l0-3.3L157.2,25.7L157.2,25.7z M164.3,29.1L164.3,29.1
		c-0.8,0-1.4-0.3-1.9-0.8c-0.4-0.4-0.6-1-0.8-1.7c-0.1-0.3-0.1-0.5-0.1-0.7c0-0.2,0-0.5,0-0.8c0-0.6,0.1-1.1,0.2-1.5
		c0.2-0.7,0.4-1.3,0.8-1.7c0.5-0.5,1.1-0.8,1.9-0.8c1.1,0,1.8,0.4,2.3,1.3c0.4,0.7,0.6,1.6,0.6,2.7c0,1.1-0.2,2-0.5,2.7
		C166.1,28.7,165.4,29.1,164.3,29.1L164.3,29.1z M164.3,27.7L164.3,27.7c0.4,0,0.7-0.1,0.9-0.4c0.3-0.4,0.4-1.1,0.4-2.1
		c0-1-0.1-1.7-0.5-2.1c-0.2-0.3-0.5-0.4-0.9-0.4c-0.4,0-0.7,0.1-0.9,0.4c-0.3,0.4-0.4,1.1-0.4,2.1c0,1,0.1,1.7,0.4,2.1
		C163.6,27.5,163.9,27.7,164.3,27.7L164.3,27.7z M168.1,26.7L168.1,26.7v-1.4h2.4l0,1.4H168.1L168.1,26.7z M173.2,22.8L173.2,22.8
		l0,6.1h-1.4l0-7.6h4.8l0,7.6h-1.4l0-6.1H173.2L173.2,22.8z M177.9,21.3L177.9,21.3h2.7c0.6,0,1.2,0.2,1.5,0.5
		c0.4,0.4,0.6,1,0.6,1.9c0,1-0.3,1.7-0.8,2.1c-0.3,0.3-0.8,0.4-1.4,0.4h-1.2l0,2.6h-1.4L177.9,21.3L177.9,21.3z M179.3,22.8
		L179.3,22.8l0,2h0.9c0.3,0,0.5-0.1,0.7-0.2c0.1-0.2,0.2-0.4,0.2-0.8c0-0.4-0.1-0.7-0.3-0.9c-0.1-0.1-0.3-0.1-0.5-0.1L179.3,22.8
		L179.3,22.8z M185.9,29.1L185.9,29.1c-0.8,0-1.4-0.3-1.9-0.8c-0.4-0.4-0.6-1-0.8-1.7c-0.1-0.3-0.1-0.5-0.1-0.7c0-0.2,0-0.5,0-0.8
		c0-0.6,0.1-1.1,0.2-1.5c0.2-0.7,0.4-1.3,0.8-1.7c0.5-0.5,1.1-0.8,1.9-0.8c1.1,0,1.8,0.4,2.3,1.3c0.4,0.7,0.6,1.6,0.6,2.7
		c0,1.1-0.2,2-0.5,2.7C187.8,28.7,187,29.1,185.9,29.1L185.9,29.1z M185.9,27.7L185.9,27.7c0.4,0,0.7-0.1,0.9-0.4
		c0.3-0.4,0.4-1.1,0.4-2.1c0-1-0.2-1.7-0.5-2.1c-0.2-0.3-0.5-0.4-0.9-0.4c-0.4,0-0.7,0.1-0.9,0.4c-0.3,0.4-0.4,1.1-0.4,2.1
		c0,1,0.1,1.7,0.4,2.1C185.2,27.5,185.5,27.7,185.9,27.7L185.9,27.7z M192.4,28.9L192.4,28.9l-1.2-4.9l0,4.9h-1.4l0-7.6h2l1.3,5
		l1.3-5h2l0,7.6h-1.4l0-4.9l-1.3,4.9H192.4L192.4,28.9z M198.8,21.3L198.8,21.3l0,2.8h1.2c0.7,0,1.3,0.2,1.7,0.7
		c0.3,0.4,0.5,1,0.5,1.8c0,0.8-0.2,1.4-0.5,1.8c-0.3,0.4-0.9,0.6-1.6,0.6h-2.7l0-7.6L198.8,21.3L198.8,21.3z M198.8,25.6L198.8,25.6
		v1.9h1c0.3,0,0.5-0.1,0.6-0.3c0.1-0.2,0.2-0.4,0.2-0.7c0-0.3-0.1-0.5-0.2-0.7c-0.1-0.2-0.3-0.3-0.7-0.3H198.8L198.8,25.6z
		 M202.5,21.3L202.5,21.3h1.4l0,7.6h-1.4L202.5,21.3L202.5,21.3z M206.6,27.4L206.6,27.4h1.6l0-6.1h1.5l0,6.1h1.6l0-6.1h1.5l0,7.6
		h-7.5l0-7.6h1.5L206.6,27.4L206.6,27.4z M213.3,28.9L213.3,28.9v-1.5l0.3,0c0.4,0,0.7-0.3,0.9-0.9c0.1-0.3,0.1-0.9,0.1-1.6l0-3.6
		h4.2l0,7.6h-1.4l0-6.1H216l0,2.6c0,0.9-0.1,1.7-0.3,2.2c-0.3,0.9-0.9,1.3-1.7,1.3C213.7,29,213.5,29,213.3,28.9L213.3,28.9z
		 M221.5,24.3L221.5,24.3h2.7l0,1.4h-2.7v1.7h3.1v1.5H220l0-7.6h4.5v1.5h-3.1L221.5,24.3L221.5,24.3z M226.8,25.7L226.8,25.7v3.3
		h-1.4l0-7.6h1.4l0,2.9h1.9l0-2.9h1.4l0,7.6h-1.4l0-3.3L226.8,25.7L226.8,25.7z M232.8,25.7L232.8,25.7l0,3.3h-1.4l0-7.6h1.4l0,2.9
		h1.9v-2.9h1.4l0,7.6h-1.4v-3.3L232.8,25.7L232.8,25.7z M238.7,21.3L238.7,21.3l0,2.8h1.2c0.7,0,1.3,0.2,1.7,0.7
		c0.3,0.4,0.5,1,0.5,1.8c0,0.8-0.2,1.4-0.5,1.8c-0.3,0.4-0.9,0.6-1.6,0.6h-2.7l0-7.6L238.7,21.3L238.7,21.3z M238.7,25.6L238.7,25.6
		v1.9h1c0.3,0,0.5-0.1,0.6-0.3c0.1-0.2,0.2-0.4,0.2-0.7c0-0.3-0.1-0.5-0.2-0.7c-0.1-0.2-0.4-0.3-0.7-0.3H238.7L238.7,25.6z
		 M242.4,21.3L242.4,21.3h1.4l0,7.6h-1.4L242.4,21.3L242.4,21.3z M246.5,26.2L246.5,26.2l2.1-4.8l1.4,0l0,7.6h-1.4l0-4.9l-2.1,4.9
		H245l0-7.6h1.4L246.5,26.2L246.5,26.2z M245.9,19.5L245.9,19.5h1c0,0.2,0,0.3,0.1,0.5c0.1,0.2,0.3,0.3,0.5,0.3
		c0.2,0,0.4-0.1,0.5-0.3c0.1-0.1,0.1-0.3,0.1-0.5h1c0,0.5-0.2,0.9-0.5,1.1c-0.3,0.3-0.7,0.4-1.2,0.4c-0.5,0-0.9-0.1-1.2-0.4
		C246,20.3,245.9,19.9,245.9,19.5z"/>
	<path class="st0" d="M92.4,12.6l0,3.3H91l0-7.6h1.4l0,2.9h1.9l0-2.9h1.4l0,7.6h-1.4l0-3.3H92.4L92.4,12.6z M98.4,8.3L98.4,8.3h1.5
		l2.1,7.6h-1.5l-0.4-1.4h-1.9l-0.4,1.4h-1.5L98.4,8.3L98.4,8.3z M98.5,13.2L98.5,13.2h1.3l-0.6-2.8L98.5,13.2L98.5,13.2z
		 M103.9,14.4L103.9,14.4h2l0-6.1h1.4l0,6.1h0.8l-0.1,3.2h-1.3l0-1.7h-4.3l0-7.6h1.4L103.9,14.4L103.9,14.4z M110.3,13.1L110.3,13.1
		l2.1-4.8l1.4,0l0,7.6h-1.4l0-4.9l-2.1,4.9h-1.4l0-7.6h1.4L110.3,13.1L110.3,13.1z M117.8,16.1L117.8,16.1c-0.8,0-1.4-0.3-1.9-0.8
		c-0.4-0.4-0.6-1-0.8-1.7c-0.1-0.3-0.1-0.5-0.1-0.7c0-0.2,0-0.5,0-0.8c0-0.6,0.1-1.1,0.2-1.5c0.2-0.7,0.4-1.3,0.8-1.7
		c0.5-0.5,1.1-0.8,1.9-0.8c1.1,0,1.8,0.4,2.3,1.3c0.4,0.7,0.6,1.6,0.6,2.7c0,1.1-0.2,2-0.5,2.7C119.6,15.7,118.9,16.1,117.8,16.1
		L117.8,16.1z M117.8,14.6L117.8,14.6c0.4,0,0.7-0.1,0.9-0.4c0.3-0.4,0.4-1.1,0.4-2.1c0-1-0.2-1.7-0.5-2.1c-0.2-0.3-0.5-0.4-0.9-0.4
		c-0.4,0-0.7,0.1-0.9,0.4c-0.3,0.4-0.4,1.1-0.4,2.1c0,1,0.1,1.7,0.4,2.1C117.1,14.5,117.4,14.6,117.8,14.6L117.8,14.6z M123.2,12.6
		L123.2,12.6l0,3.3h-1.4l0-7.6h1.4l0,2.9h1.9l0-2.9h1.4l0,7.6H125l0-3.3H123.2L123.2,12.6z M129.1,8.3L129.1,8.3h1.5l2.1,7.6h-1.5
		l-0.4-1.4h-1.9l-0.3,1.4h-1.5L129.1,8.3L129.1,8.3z M129.2,13.2L129.2,13.2h1.3l-0.6-2.8L129.2,13.2L129.2,13.2z M133.2,15.9
		L133.2,15.9v-1.5l0.3,0c0.4,0,0.7-0.3,0.9-0.9c0.1-0.3,0.1-0.9,0.1-1.6l0-3.6h4.2l0,7.6h-1.4l0-6.1h-1.4l0,2.6
		c0,0.9-0.1,1.7-0.3,2.2c-0.3,0.9-0.9,1.3-1.7,1.3C133.6,15.9,133.4,15.9,133.2,15.9L133.2,15.9z M141.1,8.3L141.1,8.3l0,2.8h1.2
		c0.8,0,1.4,0.3,1.7,0.8c0.3,0.4,0.4,1,0.4,1.7c0,0.8-0.2,1.4-0.5,1.8c-0.3,0.4-0.9,0.6-1.6,0.6h-2.7l0-7.6H141.1L141.1,8.3z
		 M141.1,12.5L141.1,12.5l0,1.9h1c0.3,0,0.5-0.1,0.7-0.2c0.1-0.2,0.2-0.4,0.2-0.7c0-0.4-0.1-0.7-0.3-0.8c-0.1-0.1-0.4-0.1-0.7-0.1
		L141.1,12.5L141.1,12.5z M146.8,12.6L146.8,12.6l0,3.3h-1.4l0-7.6h1.4l0,2.9h1.9l0-2.9h1.4l0,7.6h-1.4l0-3.3H146.8L146.8,12.6z
		 M153,8.3L153,8.3l0,2.8h1.2c0.7,0,1.3,0.2,1.7,0.7c0.3,0.4,0.5,1,0.5,1.8c0,0.8-0.2,1.4-0.5,1.8c-0.3,0.4-0.9,0.6-1.6,0.6h-2.7
		l0-7.6H153L153,8.3z M153,12.5L153,12.5v1.9h1c0.3,0,0.5-0.1,0.6-0.3c0.1-0.2,0.2-0.4,0.2-0.7c0-0.3-0.1-0.5-0.2-0.7
		c-0.1-0.2-0.4-0.3-0.7-0.3H153L153,12.5z M156.6,8.3L156.6,8.3h1.4l0,7.6h-1.4L156.6,8.3L156.6,8.3z M160.9,13.1L160.9,13.1
		l2.1-4.8l1.4,0l0,7.6H163l0-4.9l-2.1,4.9h-1.4l0-7.6h1.4L160.9,13.1L160.9,13.1z M160.3,6.4L160.3,6.4h1c0,0.2,0,0.3,0.1,0.5
		c0.1,0.2,0.3,0.3,0.5,0.3c0.2,0,0.4-0.1,0.5-0.3c0.1-0.1,0.1-0.3,0.1-0.5h1c0,0.5-0.2,0.9-0.5,1.1c-0.3,0.3-0.7,0.4-1.2,0.4
		c-0.5,0-0.9-0.1-1.2-0.4C160.4,7.3,160.3,6.9,160.3,6.4z"/>
	<g>
		<polygon class="st1" points="55.6,14.1 58.2,14.1 52.8,30.7 50.3,30.7 		"/>
		<polygon class="st1" points="59.9,18.5 62.3,18.5 57,34.8 54.6,34.8 		"/>
		<polygon class="st1" points="44.5,30.7 45.6,30.7 48,22.8 50,29.1 51.3,24.9 48.9,17.5 		"/>
		<polygon class="st1" points="49.3,15.9 49.9,14.5 52.2,22.3 51.7,23.8 		"/>
		<path class="st1" d="M74.5,21.1c0.1,0.4,0.1,0.5,0.1,1c2.4,0,5.1,0,7.5-0.1c0-0.3,0-0.4-0.1-0.9C79.5,21.1,77,21.1,74.5,21.1z"/>
		<path class="st1" d="M81.9,20.2h-7.6c-0.1-0.3-0.3-0.6-0.5-0.9c-0.1-0.2-0.6-0.8-0.6-0.8c0.3,0,1.9,0,2.5,0
			c-0.1-0.3-0.1-0.5-0.2-0.7c-2.7-7.1-7.9-14.1-19.2-14.5c-14.2,0-22.9,10.4-23.2,21.9h-0.5c0.1-13.5,9.9-24.6,23.7-25
			C68.2-0.1,79.1,7.1,81.9,20.2z"/>
		<polygon class="st1" points="53.7,30.7 59.1,14.1 59.9,14.1 54.6,30.7 		"/>
		<polygon class="st1" points="58,34.8 63.2,18.5 64.1,18.5 58.8,34.8 		"/>
		<path class="st1" d="M64.3,20.6c0.2-0.5,0.4-1.3,0.7-2.1c2.1,0,3.9,0,6,0c3.8,0.6,3.4,7.4-0.8,8.2c3.2,2.4,0.4,8.2-3,8.2
			c-2.4,0-5,0-7.4,0c0.1-0.4,0.3-1.1,0.5-1.4c2.2-0.1,4.4,0,6.6-0.1c2.9-1.7,3.4-4.7,1.7-6.8c4.4-1.4,3-6.1,1.5-6.1
			C67.9,20.5,66.5,20.6,64.3,20.6z"/>
		<path class="st1" d="M60.5,32.5c0.1-0.3,0.2-0.7,0.3-1c1.8,0,3,0,4.7,0c1.2-0.5,1.4-1.7,1.1-2.6c-1.9,0-3.2,0-5.1,0
			c0.2-0.7,0.5-1.5,0.7-2.2c2,0,3.3,0,5.3,0c1.7,1,0.8,5.2-1.1,5.7L60.5,32.5L60.5,32.5z"/>
		<path class="st1" d="M62.6,25.9c1.7,0,3.6,0,5.3,0c1.5-0.2,2.5-1.8,2.6-2.9c0-0.5-0.3-1.4-0.8-1.5l-5.7,0l-0.2,0.7
			c1.9,0,3.4,0,5.3,0c0.7,0.7,0,2.7-1.4,2.9h-4.8L62.6,25.9z"/>
		<polygon class="st1" points="40.4,30.7 45.8,14.1 49,14.1 43.7,30.7 		"/>
		<polygon class="st1" points="60.6,16.2 61.3,14.1 63.7,14.1 63.1,16.2 		"/>
		<polygon class="st1" points="63.9,16.2 64.6,14.1 65.6,14.1 64.9,16.2 		"/>
		<polygon class="st1" points="60.1,17.6 60.4,16.9 62.8,16.9 62.6,17.6 		"/>
		<polygon class="st1" points="63.5,17.6 63.7,16.9 64.7,16.9 64.4,17.6 		"/>
		<polygon class="st1" points="56.5,11.9 57.1,9.8 59.6,9.8 58.9,11.9 		"/>
		<polygon class="st1" points="59.8,11.9 60.4,9.8 61.3,9.8 60.6,11.9 		"/>
		<polygon class="st1" points="56,13.3 56.2,12.6 58.7,12.6 58.5,13.3 		"/>
		<polygon class="st1" points="59.3,13.3 59.5,12.6 60.3,12.6 60.1,13.3 		"/>
		<path class="st1" d="M40.5,27.5c0.1-0.5,0.2-0.5,0.3-0.9c-1.1,0-7.9,0-8.2,0c0,0.5,0,0.4,0,1C35.2,27.5,38,27.4,40.5,27.5z"/>
		<path class="st1" d="M32.8,28.4c2.2,0,5.3,0,7.4,0c-0.2,0.9-0.5,1.8-0.7,2.2c-0.3,0,0,0-0.6,0C39,31,39,31.1,39,31.2
			c2.3,7.2,7.2,14.5,18.4,15.5c14.2,0.8,23.4-9.1,24.3-20.6c0.2,0,0.3,0,0.5,0C81.4,39.6,71,50.2,57.2,49.8
			C45.4,49.5,34.9,41.7,32.8,28.4z"/>
	</g>
	<path class="st2" d="M25.2,0.5L0,0.5v49l25.2,0c-5.3-6.2-8.5-14.9-8.5-24.5S19.9,6.7,25.2,0.5z"/>
</g>
</svg>
