<?xml version="1.0" encoding="utf-8"?>
<!-- Generator: Adobe Illustrator 24.0.1, SVG Export Plug-In . SVG Version: 6.00 Build 0)  -->
<svg version="1.1" id="Слой_1" xmlns="http://www.w3.org/2000/svg" xmlns:xlink="http://www.w3.org/1999/xlink" x="0px" y="0px"
	 width="250px" height="43px" viewBox="0 0 250 43" style="enable-background:new 0 0 250 43;" xml:space="preserve">
<style type="text/css">
	.st0{fill:#0999D5;}
</style>
<g id="iLayer_2">
	<g id="iLayer_1-2">
		<circle class="st0" cx="54.7" cy="6.6" r="5.5"/>
		<path class="st0" d="M46.6,14.8V8c0-3.7-3-6.8-6.8-6.8c-3.7,0-6.6,3.1-6.6,6.8v6.8h-5.5c0-7.4-6.1-13.4-13.4-13.4
			C6.7,1.2,0.7,7.2,0.7,14.8c0,7.4,6.1,13.4,13.4,13.4V35c0,3.7,3,6.8,6.8,6.8s6.8-3,6.8-6.8v-6.8h5.5c0,7.4,6.1,13.4,13.4,13.4
			S60,35.6,60,28.2S53.9,14.8,46.6,14.8L46.6,14.8L46.6,14.8z M11.5,14.8c0-1.5,1.2-2.7,2.7-2.7s2.8,1,2.8,2.7s-1.2,2.7-2.7,2.7l0,0
			C12.6,17.4,11.5,16.2,11.5,14.8z M46.6,30.8c-1.5,0-2.7-1.2-2.7-2.7c0-1.5,1.2-2.7,2.7-2.7s2.7,1.2,2.7,2.7
			C49.2,29.7,48,30.8,46.6,30.8L46.6,30.8z"/>
		<path class="st0" d="M82.6,12.1c-1.9-0.1-3.8,0.7-5,2.2v-1.8h-4v21.5h4v-8c1.2,1.5,3.1,2.4,5,2.2c2.1,0,4-0.9,5.3-2.4
			c1.5-1.6,2.2-3.7,2.2-5.8c0-2.2-0.7-4.3-2.2-5.8C86.4,13,84.5,12.1,82.6,12.1z M84.8,23.3c-1.8,1.6-4.4,1.6-6.1,0
			c-0.7-0.9-1.2-1.9-1.2-3.1s0.4-2.2,1.2-3.1c1.8-1.6,4.4-1.6,6.1,0c0.9,0.9,1.3,1.9,1.2,3.1C86.1,21.4,85.7,22.6,84.8,23.3z
			 M115,24.4c-1,0-2.2-0.4-3-1.2c-0.7-0.7-1.2-1.9-1.2-3c-0.1-2.2,1.6-4.1,3.8-4.3c0.1,0,0.1,0,0.3,0c1.5,0,2.8,0.7,3.5,2.1l3.4-2.1
			c-1.3-2.5-4-4-6.9-4c-4.4-0.1-8.1,3.2-8.3,7.7c0,0.1,0,0.3,0,0.4c0,4.4,3.7,8.1,8.1,8.1c3,0,5.6-1.5,7.1-4l-3.4-1.9
			C117.8,23.6,116.5,24.5,115,24.4z M134.4,18.3h-6.2v-5.9h-4v15.5h4V22h6.2v5.9h4V12.6h-4V18.3z M153.7,14.3
			c-1.2-1.5-3.1-2.4-5-2.2c-2.1,0-4,0.9-5.3,2.4c-1.5,1.6-2.2,3.7-2.2,5.8c0,2.2,0.7,4.3,2.2,5.8c1.3,1.5,3.2,2.4,5.3,2.4
			c1.9,0.1,3.8-0.7,5-2.2v1.8h4V12.6h-4V14.3z M152.5,23.3c-1.8,1.6-4.4,1.6-6.1,0c-0.7-0.9-1.2-1.9-1.2-3.1s0.4-2.2,1.2-3.1
			c1.8-1.6,4.4-1.6,6.1,0c0.9,0.9,1.3,1.9,1.2,3.1C153.8,21.4,153.4,22.6,152.5,23.3z M170.4,12.1c-1.9-0.1-3.8,0.7-5,2.2v-1.8h-4
			v21.5h4v-8c1.2,1.5,3.1,2.4,5,2.2c2.1,0,4-0.9,5.3-2.4c1.5-1.6,2.2-3.7,2.2-5.8c0-2.2-0.7-4.3-2.2-5.8
			C174.4,13,172.4,12.1,170.4,12.1z M172.7,23.3c-1.8,1.6-4.4,1.6-6.1,0c-0.7-0.9-1.2-1.9-1.2-3.1s0.4-2.2,1.2-3.1
			c1.8-1.6,4.4-1.6,6.1,0c0.9,0.9,1.3,1.9,1.2,3.1C173.9,21.4,173.5,22.6,172.7,23.3L172.7,23.3z M189.1,14.3
			c-1.8-0.1-3.4,0.6-4.6,1.8c0.6-1.5,1.5-2.4,4.1-3.4c1.5-0.4,3-1.2,4.1-2.1c0.9-0.7,1.6-1.8,1.8-3l-3.1-1.9c-0.3,1-1,1.9-1.9,2.4
			c-0.4,0.3-0.7,0.4-1,0.6l-1.3,0.6c-0.6,0.3-1.2,0.6-1.5,0.7c-1.9,0.7-3.5,2.2-4.7,3.8c-0.9,1.9-1.3,4-1.2,6.1
			c0,2.2,0.7,4.3,2.2,5.9c3.2,3,8.1,3.1,11.5,0.3c1.5-1.3,2.2-3.2,2.2-5.2C195.8,17.4,193,14.3,189.1,14.3L189.1,14.3L189.1,14.3z
			 M190.6,23.8c-0.7,0.7-1.8,1-2.8,1s-2.1-0.3-2.8-1c-0.7-0.7-1.2-1.6-1.2-2.7c0-1,0.4-1.9,1.2-2.5c0.7-0.6,1.8-1,2.7-0.9
			c2.1-0.1,3.7,1.3,3.8,3.4c0,0.1,0,0.1,0,0.3C191.8,22.1,191.3,23,190.6,23.8L190.6,23.8z M209.8,14.3c-1.2-1.5-3.1-2.4-5-2.2
			c-2.1,0-4,0.9-5.3,2.4c-1.5,1.6-2.2,3.7-2.2,5.8c0,2.2,0.7,4.3,2.2,5.8c1.3,1.5,3.2,2.4,5.3,2.4c1.9,0.1,3.8-0.7,5-2.2v1.8h4V12.6
			h-4V14.3z M208.6,23.3c-1.8,1.6-4.4,1.6-6.1,0c-0.7-0.9-1.2-1.9-1.2-3.1s0.4-2.2,1.2-3.1c1.8-1.6,4.4-1.6,6.1,0
			c0.9,0.9,1.3,1.9,1.2,3.1C209.9,21.4,209.5,22.6,208.6,23.3z M227.5,18.3h-6.2v-5.9h-4v15.5h4V22h6.2v5.9h4V12.6h-4V18.3z
			 M243,20.1l6.2-7.7h-4.7l-5.3,6.8v-6.6h-4v15.3h4V21l5.6,6.9h4.6L243,20.1z M98.8,22.9l-4.1-10.3h-4.3l6.2,15.2l-2.1,6.3h4
			l7.8-21.5h-4.3L98.8,22.9z"/>
	</g>
</g>
</svg>
