<?xml version="1.0" encoding="utf-8"?>
<!-- Generator: Adobe Illustrator 24.0.1, SVG Export Plug-In . SVG Version: 6.00 Build 0)  -->
<svg version="1.1" id="Слой_1" xmlns="http://www.w3.org/2000/svg" xmlns:xlink="http://www.w3.org/1999/xlink" x="0px" y="0px"
	 width="250px" height="57px" viewBox="0 0 250 57" style="enable-background:new 0 0 250 57;" xml:space="preserve">
<style type="text/css">
	.st0{fill:#C11F3E;}
</style>
<path class="st0" d="M20.4,30.3c0,3.7-3.4,7.8-9,7.8c-1.7,0-3.2-0.2-5.4-0.2C4,37.9,2.3,38,0.8,38c-0.2-0.7-0.3-1.4-0.3-2.1
	c1-0.1,2-0.3,3-0.6c0.1-0.6,0.2-1.4,0.2-2.1V22.1c0-2-0.1-3.5-0.2-4.8c-1-0.3-2-0.6-3-0.6c0-0.7,0.1-1.4,0.3-2.1
	c1.5,0,3.2,0.1,5,0.1h4.1c2.5,0,6.1,0,8.2-0.1l0.3,0.3c0.1,2.3-0.1,4.1-0.4,6c-1,0.2-1.8,0.2-2.6,0c-0.1-1.1-0.3-2.3-0.5-3.4H8.1
	v6.9c1.4-0.3,2.9-0.3,4.3-0.3C17.4,24.1,20.4,26.9,20.4,30.3z M10.4,35.1c2.6,0,3.9-0.4,4.1-0.6c0.8-0.6,1.4-1.7,1.4-3.4
	c0-2.5-2-4-5.3-4c-0.9,0-1.7,0.1-2.5,0.1v7.9H10.4z M31.3,27.1c-0.1-2.3-0.6-3.9-2.5-3.9c-0.8,0-1.6,0.1-2.5,0.2
	c-0.3,0.8-0.3,1.8-0.3,2.8c-0.9,0.5-1.8,0.6-2.7,0.4c-0.6-1.1-1-2.5-1-4.1c1.9-1.2,4.6-1.9,7.2-1.9c2.2,0,6,0.8,6,5.8v6.4
	c0,0.8,0.1,1.8,0.1,2.6c0.8-0.1,1.6-0.3,2.3-0.5c0.4,0.3,0.6,0.8,0.6,1.4c-1.2,1.2-3.1,2.3-4.8,2.3c-0.8,0-1.6-1-2.1-2.5
	c-1.7,1.4-3.8,2.5-5.5,2.5c-2.9,0-4.7-1.6-4.7-4.4C21.6,30.1,27.1,28,31.3,27.1z M31.3,34v-4c-2.2,0.3-4.2,0.8-4.6,1.1
	C26.3,31.4,26,32.3,26,33c0,1.2,0.8,2.2,2.4,2.2C29.3,35.2,30.4,34.7,31.3,34z M56.9,32.7c0,1,0.1,1.8,0.1,2.6c1,0.1,2,0.3,2.6,0.6
	c0,0.6-0.1,1.6-0.2,2c-1-0.1-3.3-0.1-4.6-0.1c-1.7,0-3.3,0.1-4.7,0.1c-0.2-0.6-0.3-1.4-0.3-2c0.9-0.1,1.8-0.3,2.7-0.6
	c0.1-0.5,0.1-1.3,0.1-1.9v-2.7c-1.8-0.1-3.6-0.1-5.2-0.1h-2v2.1c0,1,0.1,1.8,0.1,2.6c0.9,0.1,1.9,0.3,2.5,0.6c0,0.6-0.1,1.6-0.2,2
	c-1-0.1-3.2-0.1-4.5-0.1c-1.8,0-3.4,0.1-4.8,0.1c-0.2-0.6-0.3-1.4-0.3-2c0.9-0.1,1.9-0.3,2.8-0.6c0.1-0.5,0.2-1.3,0.2-1.9v-7.6
	c0-0.6-0.1-1.3-0.1-1.9c-1-0.3-1.9-0.5-2.8-0.6c0-0.6,0.1-1.4,0.3-2c1.4,0,2.8,0.1,4.7,0.1c1.6,0,3.5-0.1,4.7-0.1
	c0.2,0.6,0.2,1.3,0.2,2c-0.7,0.3-1.6,0.5-2.5,0.6c-0.1,0.8-0.1,1.7-0.1,2.6v1.6h7.2v-2.3c0-0.6-0.1-1.3-0.1-1.9
	c-0.9-0.3-1.8-0.5-2.7-0.6c0-0.6,0.1-1.4,0.3-2c1.4,0,2.8,0.1,4.5,0.1c1.6,0,3.6-0.1,4.8-0.1c0.1,0.6,0.2,1.3,0.2,2
	c-0.7,0.3-1.6,0.5-2.6,0.6c-0.1,0.8-0.1,1.7-0.1,2.6V32.7L56.9,32.7z M68,28.3h0.5c1.4,0,2.5-0.1,2.8-0.5c1.6-2.3,1.9-6.8,4.8-6.8
	c1.3,0,2.6,0.5,3.7,1.2c0.1,0.8-0.2,1.9-0.8,2.6c-1-0.1-1.9-0.2-2.8-0.1L73.9,29c1.1,2.1,2.5,4.2,3.4,5.3c0.9,1,1.6,1.2,2.6,1.2
	c0.3,0,0.6-0.1,1-0.1c0.3,0.5,0.5,1.2,0.3,1.8c-0.7,0.4-3,1-5,1c-1.9,0-4-3.3-5.6-7.6H68v1.9c0,1,0.1,1.8,0.1,2.6
	c0.9,0.1,1.9,0.3,2.6,0.6c0,0.6-0.1,1.6-0.2,2c-1-0.1-3.3-0.1-4.6-0.1c-1.8,0-3.4,0.1-4.8,0.1c-0.2-0.6-0.3-1.4-0.3-2
	c0.9-0.1,1.9-0.3,2.8-0.6c0.1-0.5,0.2-1.3,0.2-1.9v-7.5c0-0.6-0.1-1.3-0.1-1.9c-1-0.3-1.9-0.5-2.8-0.6c0-0.6,0.1-1.4,0.3-2
	c1.4,0,2.8,0.1,4.7,0.1c1.6,0,3.6-0.1,4.8-0.1c0.2,0.6,0.2,1.3,0.2,2c-0.8,0.3-1.6,0.5-2.6,0.6c-0.1,0.8-0.1,1.7-0.1,2.6L68,28.3
	C68,28.3,68,28.3,68,28.3z M249,10.9c-0.8,2.1-5,13.2-5.6,14.4c-0.5,1-1.1,2.1-2.6,1.7c-1.4-0.4-1.4-2.3-1.2-3.3
	c0.2-1.2,0.8-3.4,1.4-5c0.7-2.1,1.4-4.2,2.1-6.3c0.8-2.3,0.6-4.8,3.6-5.8C248.9,5.9,250.3,7.7,249,10.9z M238.1,32
	c-1.6,0.5-3.1,2.4-3.1,4.3c0,1.2,0.7,1.9,1.4,2.1c1,0.4,1.9,0.2,2.8-0.5c0.9-0.7,1.7-2.3,1.9-3.5C241,32.9,240.1,31.4,238.1,32z
	 M231.4,31.9c0.8,1.2-0.2,3.1-1.8,4.4c-2.5,1.9-5.5,2.8-7.5,2.9c-5.8,0.3-5.7-4.3-5.7-4.3s-3.2,3.8-6.8,3.9c-1.9,0-3.4-1.9-3.4-1.9
	s-2.2,3.7-5.9,3.2c-2.6-0.4-4.1-3.4-4.1-5.8c0-0.6,0.1-1,0.2-1.5c-0.8,0.3-1.6,0.5-2.5,0.6c-1.8,0.3-4.1,0.3-5.2,0.3
	c-0.2,0-0.3,0-0.5,0c0,0.3,0.2,1.3,1.2,1.7c0.6,0.3,1.5,0.5,2.3,0.5c0.8,0.1,1.6,0.3,2.1,0.6c0.6,0.5,1,1.2,1.2,2
	c0.1,0.7-0.1,1.4-0.6,1.8c-0.6,0.6-1.9,1-3.4,1c-1,0-3-0.2-4.7-1.4c-1-0.6-2.3-2.1-2.8-4.9c0,0.5-0.1,0.9-0.1,1.2
	c-0.1,1.6-0.1,6-0.6,10.7c-0.5,4.7-2,9-6.1,8c-3-0.8-4.7-3.9-4.4-8.9c0.2-2.8,1.4-6.1,2.5-8.4c0.5-1,1.4-2.5,1.4-2.5
	s-2.3,1.7-5.5,1.3c-0.9-0.1-1.6-0.4-2.2-0.8c0.6,1.2,0.8,2.6-0.5,3.9c-1.4,1.3-3.2,0.6-3.7,0.3c-1.1-0.7-1.9-1.7-2.6-2.8
	c-0.7-1.1-1.6-3.7-1.6-3.7s-1.4,1.5-2.6,2.5c-1.6,1.4-4.1,3.2-5.7,3.2s-2.5-1-3.1-2.1c-0.6-1-0.7-2.5-0.7-2.5s-1.4,3.6-3.7,5.8
	c-1.6,1.4-3.6,2-5.6,1.6c-2.8-0.6-4-2.8-4.6-5c-0.6-2.1-0.5-3.7-0.5-3.7s-2,1-5.2,5c-0.9,1.2-1.7,2.1-3,1.9c-1.2-0.2-2.3-1-2.7-2.3
	c-0.3-1.1-0.5-4.7,0.1-9.1c0.5-3.3,1.4-8.4,1.4-8.4s-1.9,5.2-4.1,10.9c-2.3,6-4.7,10.9-7.5,13.3c-2,1.7-4.7,2.6-7.7,2.8
	c-3.4,0.2-8.5-1.3-11.4-5.4c-3.2-4.5-3.2-10.7-1.7-14.2c1.6-3.6,5.4-5.8,10.4-5.9c3.2,0,6.5,0.8,7.6,3.4c1,2.6-0.5,6-2.5,7.4
	c-1.9,1.4-5.7,1.9-7.7-0.3c-1.3-1.5-0.5-2.9,0.5-3.2c0.3-0.1,1.9-0.5,2.4-0.6c0.8-0.3,1-1,1-1s-2.8-1-5.2,0.1
	c-2.6,1.2-3.4,4.6-2.5,7.8c1.1,3.8,3.8,6.7,8.2,6.7c3.7-0.1,5.6-1.6,7-4.1c2.5-4.5,4.9-11,6.1-14.2c2.8-7.5,5.5-15.6,5.5-15.6
	s-2.5,0.2-8.1,0.9c-3.9,0.5-9.7,1.6-11.7,2c-2.5,0.5-5.2,0.6-5.6-1.7c-0.3-1.9,1.8-3,6.4-4.3c2.6-0.8,12.1-2.5,21-3
	c8.1-0.5,14.5-1.8,15.6,1.4c0.6,2-0.4,3.7-3.6,3.9c-1.8,0.1-4.6,0.3-6,0.5c-2.1,0.3-2.6,2.6-2.6,2.6s1.7-0.2,3.2,0.1
	c3.9,0.8,0.8,6.5-0.7,10.7c-0.9,2.6-1.7,5.2-2.1,7.9c-0.1,0.5-0.2,1.4-0.2,1.4s3.2-2.1,4.8-3.4c1.4-1,2.1-2.3,2.5-3
	c0.8-1.4,2.5-3.3,5.7-3.6c3.2-0.3,5.8,1.6,7,3.7c0.7,1.2,0.8,2.3,0.8,2.3s0.9-3.2,1.4-3.9c0.5-0.8,1.2-1,1.9-0.8
	c1,0.3,1.7,1.4,1.9,2.3c0.3,1,0.3,2.1-0.1,3.2c-0.3,1-1.2,4.5-1.2,4.5s2.1-0.6,5.2-4.5c0.6-0.8,2.6-3.5,3-4c0.7-1,2.1-0.8,3.2,0.1
	c0.8,0.6,1.4,1.4,1.4,2.4c0,1.1-0.2,2.2-0.2,3.4c-0.1,2.1,0.6,3.4,1.3,4.4c-0.4-1-0.5-2.2-0.4-3.4c0.5-4.3,2.3-6.8,4.7-8.7
	c1.6-1.2,3.6-2.3,6.2-2.2c2.5,0.1,4.9,1.2,6.1,3.2c1.3,2.1,0.7,4.6,0.7,5c-0.1,0.4-0.1,0.8-0.1,1.2c1.4-3.9,5.2-6.7,9.6-6.7
	c3.9,0,6.5,1.8,6.8,4.8c0.2,1.5-0.3,2.7-1,3.7c0.6,0.1,1.2,0.6,1.5,1.2c1.5,2.6,2.5,0.6,3-0.3c0.4-0.7,1.6-5.4,2.2-8.5
	c0.5-2.6,2.6-2.9,3.9-2.5c1.3,0.4,1.9,1.5,1.4,4.1c-0.3,1.2-1.1,4.7-1.5,6.4c-0.2,0.8,0.1,1.2,1.1,1.1c2.5-0.3,4.6-2.8,5.8-7.8
	c0.6-2.6,2.1-3.6,3.8-3.2c1.2,0.3,2.3,1.4,1.7,3.7c-0.3,1.4-1.7,5-1.4,6.5c0.6,2.4,2.9,2.1,5,1.4C227.8,32.1,230.4,30.5,231.4,31.9z
	 M141.9,26.3c-1.4,0-2.3,1.8-2.8,4.1s-0.9,6.1,0.8,6.2c1,0.1,3-2.5,3.7-5.3C144.2,29.4,144.1,26.3,141.9,26.3z M178.5,39.3
	c0,0-1.6,3.2-2.1,5.8c-0.5,2.7-0.3,4.3,0.4,4.4c1.2,0.3,1.3-3.4,1.4-4.1C178.2,44,178.5,39.3,178.5,39.3z M178.3,25
	c-0.6-0.8-2.8-0.3-4.4,1.1c-1.6,1.4-2.7,3.7-2.3,4.5c0.5,1.2,3.1,0.6,5-1.3C178,27.9,179.1,25.9,178.3,25z M195.8,27.7
	c0-0.6-1.3-0.9-2.5-0.9c-2,0-4.3,1.5-4.8,2.5h0.1c1.7,0,3.2-0.1,4.5-0.3C194.8,28.8,195.8,28.1,195.8,27.7z M200.8,16.6
	c1.4-0.8,2.4-3.2,1.9-4.8c-0.3-1.1-1.2-1.9-2.5-1.9c-0.8,0-1.4,0.5-1.9,1.2c-0.6,0.8-1.3,2.9-0.5,4.7
	C198.7,17.4,200,17.1,200.8,16.6z M192.3,16.1c0.7-0.7,1.2-2.1,1.2-3.3s-0.7-2.9-2.5-3c-1.5-0.1-2.3,1.4-2.7,2.9s0.1,2.8,0.4,3.4
	C189.2,16.8,190.3,18.1,192.3,16.1z M156.6,17.5c2.5-1.2,5.9-0.7,7-0.8c1.5-0.1,2.3-0.8,2.6-2.2c0.1-0.8-0.1-1.3-0.8-1.8
	c-0.5-0.3-2.6-1.4-6.3-1.4c-3,0-5.2,0.7-6.2,1.2c-0.8,0.4-1.7,1.2-1.6,2.9C151.8,17.9,154.6,18.6,156.6,17.5z"/>
</svg>
