<svg width="180" height="72" viewBox="0 0 180 72" fill="none" xmlns="http://www.w3.org/2000/svg">
<path fill-rule="evenodd" clip-rule="evenodd" d="M177.327 29.1214H178.147L179.563 34.3796L178.498 34.6776C178.138 33.8289 177.711 33.0103 177.22 32.2295C176.294 30.8347 174.72 30.0081 173.045 30.0368C170.914 30.0036 168.975 31.2671 168.146 33.23C167.594 34.3327 167.317 35.5523 167.337 36.7851C167.317 37.9732 167.56 39.1511 168.05 40.2338C168.526 41.3203 169.316 42.2396 170.319 42.8735C171.206 43.4399 172.238 43.7392 173.29 43.7356C174.447 43.7299 175.579 43.4018 176.56 42.7883C177.55 42.195 178.415 41.414 179.105 40.4892L180 41.1066C179.566 41.7549 179.054 42.3482 178.477 42.8735C176.92 44.3214 174.874 45.1275 172.747 45.13C170.437 45.1894 168.231 44.1751 166.772 42.3838C165.515 40.8783 164.846 38.9691 164.887 37.0086C164.885 35.5707 165.252 34.1562 165.952 32.9C166.638 31.6554 167.651 30.6213 168.881 29.9091C170.088 29.1905 171.471 28.8219 172.875 28.8447C174.346 28.8471 175.779 29.3085 176.975 30.1645L177.337 29.1001L177.327 29.1214ZM155.472 30.3136V36.9235H157.901C158.616 36.9545 159.331 36.8937 160.031 36.7425C160.699 36.5644 161.274 36.138 161.639 35.5504C162.001 34.9584 162.186 34.275 162.171 33.5813C162.341 32.1677 161.426 30.8508 160.041 30.5158C159.172 30.3452 158.285 30.2773 157.4 30.3136H155.472ZM151.308 29.0576H157.549C158.863 29.004 160.178 29.1293 161.458 29.4301C163.348 29.8838 164.646 31.6196 164.546 33.56C164.566 34.3972 164.332 35.2207 163.875 35.9229C163.301 36.8036 162.439 37.4581 161.437 37.775C160.415 38.0394 159.36 38.1506 158.305 38.105H155.419V42.1497C155.392 42.5326 155.428 42.9173 155.526 43.2886C155.685 43.6824 156.133 43.874 156.857 43.8847H157.4V44.832H151.308V43.874H151.681C152.501 43.874 152.991 43.7037 153.172 43.3418C153.272 42.9964 153.312 42.6363 153.289 42.2774V31.495C153.289 30.718 153.119 30.2603 152.778 30.1113C152.432 30.0142 152.072 29.9747 151.713 29.9942H151.308V29.0363V29.0576ZM135.738 29.0576H148.518L149.998 33.2087L148.997 33.5813C148.553 31.9081 147.162 30.6553 145.451 30.3881C144.845 30.3295 144.237 30.3046 143.629 30.3136H139.806V36.0932H141.723C142.689 36.2473 143.64 35.7437 144.055 34.8585C144.184 34.4092 144.238 33.9417 144.215 33.4748V33.2194H145.28V40.138H144.215V39.5419C144.292 38.8694 144.079 38.1961 143.629 37.6898C143.075 37.3071 142.405 37.1301 141.734 37.1896H139.838V42.32C139.838 43.0438 139.944 43.4482 140.147 43.5547C140.45 43.6255 140.762 43.6506 141.073 43.6292H143.438C144.38 43.6567 145.322 43.5382 146.228 43.2779C147.11 42.9621 147.896 42.423 148.507 41.7133C149.03 41.0663 149.46 40.3498 149.785 39.5845L150.85 39.9464L149.082 44.8852H135.769V43.9379H136.217C136.55 43.9604 136.885 43.9281 137.207 43.8421C137.407 43.7352 137.567 43.5674 137.665 43.3631C137.76 43.0459 137.796 42.714 137.772 42.3838V31.527C137.786 31.251 137.757 30.9745 137.687 30.7074C137.588 30.4519 137.381 30.2532 137.122 30.1645C136.676 30.0832 136.222 30.0546 135.769 30.0794V29.1108L135.738 29.0576ZM123.181 37.147V42.3306C123.162 42.6413 123.188 42.953 123.255 43.2567C123.32 43.4013 123.451 43.5048 123.607 43.5334C123.959 43.5911 124.316 43.6125 124.672 43.5973H126.206C127.091 43.6268 127.978 43.5877 128.857 43.4802C129.658 43.3831 130.406 43.0282 130.988 42.469C131.55 41.9054 131.858 41.1363 131.84 40.3402C131.91 39.0077 131.011 37.8177 129.709 37.5195C128.555 37.2493 127.369 37.1383 126.184 37.1896L123.181 37.147ZM123.181 30.2816V36.0613H126.067C126.994 36.0961 127.923 36.0319 128.836 35.8697C130.268 35.6583 131.308 34.3984 131.243 32.9533C131.316 31.7089 130.422 30.6164 129.188 30.4413C128.35 30.3006 127.501 30.2471 126.653 30.2816H123.181ZM119.081 29.0256H126.536C127.794 28.9909 129.053 29.0765 130.295 29.2811C131.162 29.4719 131.958 29.8994 132.596 30.5158C133.226 31.1431 133.572 32.0006 133.554 32.8894C133.55 34.1553 132.851 35.3166 131.733 35.9123C131.251 36.1878 130.731 36.3887 130.189 36.5084C130.838 36.6144 131.471 36.8003 132.074 37.0619C133.415 37.6189 134.266 38.9537 134.204 40.4041C134.221 41.8794 133.394 43.2351 132.074 43.8953C130.464 44.6172 128.7 44.9281 126.94 44.8H119.027V43.8527H119.56C119.931 43.8934 120.305 43.8111 120.625 43.6186C120.918 43.3451 121.07 42.9536 121.04 42.5542V31.6015C121.04 30.7925 120.88 30.3029 120.55 30.1433C120.243 30.0366 119.917 29.9932 119.592 30.0155H119.059V29.0576L119.081 29.0256ZM107.131 37.7644H111.987L109.58 30.9841L107.131 37.7537V37.7644ZM109.133 28.9511H110.997L115.864 42.139C115.988 42.5538 116.179 42.9456 116.429 43.2992C116.719 43.6267 117.141 43.8064 117.579 43.7889H117.824V44.7362H112.2V43.7782H112.733C112.976 43.8021 113.221 43.7655 113.447 43.6718C113.648 43.5656 113.775 43.3569 113.777 43.1289C113.715 42.729 113.611 42.3366 113.468 41.9581L112.403 38.9033H106.694L105.512 42.2881C105.41 42.5212 105.345 42.7691 105.32 43.0225C105.302 43.3103 105.482 43.5737 105.757 43.6611C105.965 43.7359 106.186 43.7685 106.407 43.7569H106.907V44.7042H102.189V43.7569C102.733 43.819 103.274 43.6125 103.638 43.2034C103.877 42.8272 104.07 42.4234 104.213 42.0007L109.133 28.9511Z" fill="#579559"/>
<path fill-rule="evenodd" clip-rule="evenodd" d="M49.1935 29.015H55.1577V29.9623H54.7423C53.9329 29.9623 53.443 30.1965 53.2832 30.6861C53.2083 30.9853 53.1725 31.293 53.1767 31.6015V37.4344L59.0024 31.3034C59.2956 31.0563 59.5134 30.7317 59.6308 30.3668C59.6308 30.1007 59.2793 29.9729 58.5658 29.9623H58.2143V29.0256H63.7524V29.9729C62.6106 29.9587 61.5188 30.4403 60.7597 31.2928L56.6061 35.5504L61.3135 41.841C61.7511 42.5372 62.3745 43.0975 63.1134 43.4589C63.5173 43.5584 63.9331 43.6014 64.3489 43.5866V44.5233H57.7883V43.5972H58.1717C58.4305 43.6173 58.6904 43.6173 58.9492 43.5972C59.1853 43.5752 59.3656 43.3766 59.3645 43.1396C59.2001 42.6527 58.9393 42.2038 58.5977 41.8197L55.1151 37.0725L53.1448 39.1055V42.0219C53.1448 42.8202 53.3578 43.3099 53.7731 43.4802C54.2144 43.5699 54.6655 43.6021 55.1151 43.576V44.5126H49.1509V43.5866H49.6195C50.3438 43.5866 50.8017 43.3844 50.9721 42.9905C51.0788 42.6207 51.1255 42.2362 51.1106 41.8516V31.644C51.1106 30.7925 50.9402 30.2816 50.5887 30.1219C50.2425 30.0243 49.8832 29.9812 49.5237 29.9942H49.1829V29.0575L49.1935 29.015ZM31.3863 29.015H37.3505V29.9623H36.9457C36.1363 29.9623 35.6464 30.1539 35.4973 30.5477C35.4068 30.8948 35.3709 31.2539 35.3908 31.6121V35.8697H43.4104V31.6121C43.4277 31.256 43.4063 30.8992 43.3465 30.5477C43.2294 30.0794 42.8034 29.8452 42.0792 29.8452H41.4721V28.8979H47.3936V29.8452H46.8611C46.1511 29.8452 45.7358 30.0155 45.6151 30.3561C45.5163 30.7018 45.4767 31.0617 45.4979 31.4205V41.9581C45.4787 42.2451 45.4787 42.5332 45.4979 42.8202C45.5444 43.0996 45.7474 43.3274 46.0198 43.4057C46.4607 43.4673 46.9063 43.4887 47.351 43.4695V44.4062H41.4295V43.4695H41.8555C42.7182 43.4695 43.1974 43.3205 43.3039 43.0118C43.3645 42.6175 43.386 42.2182 43.3678 41.8197V37.0193H35.3589V42.0219C35.339 42.309 35.339 42.5971 35.3589 42.8841C35.3962 43.1714 35.6087 43.4051 35.8914 43.4695C36.349 43.5422 36.813 43.5672 37.2759 43.544V44.4807H31.3011V43.5547H31.6845C32.1318 43.5547 32.4087 43.5547 32.4939 43.5547C32.7593 43.528 32.9924 43.3673 33.1116 43.1289C33.2175 42.8249 33.261 42.5027 33.2395 42.1816V31.5376C33.2395 30.7712 33.0904 30.3029 32.7708 30.1326C32.5059 30.0317 32.2235 29.9846 31.9401 29.9942H31.3224V29.0575L31.3863 29.015ZM19.4793 37.626H24.24L21.8756 30.9841L19.4793 37.6153V37.626ZM21.4283 28.9937H23.2602L28.0315 41.9261C28.1625 42.3282 28.3528 42.7084 28.5959 43.0544C28.8748 43.378 29.2875 43.5547 29.7142 43.5334H29.9592V44.4701H24.4423V43.5334H24.9642C25.2002 43.5568 25.4384 43.5202 25.6565 43.4269C25.8509 43.3198 25.9729 43.1166 25.976 42.8947C25.921 42.5049 25.8209 42.1227 25.6778 41.7558L24.6127 38.7542H19.0107L17.8498 42.0219C17.7549 42.2532 17.694 42.497 17.6688 42.7457C17.6501 43.0279 17.8256 43.2866 18.0948 43.3737C18.2991 43.4485 18.5165 43.4811 18.7338 43.4695H19.245V44.3955H14.6228V43.4695C15.1549 43.5271 15.6822 43.3251 16.0393 42.9267C16.2773 42.5601 16.4637 42.1626 16.5931 41.7452L21.4496 28.9724L21.4283 28.9937ZM4.03645 35.7846V41.9261C4.01717 42.2292 4.03866 42.5335 4.10035 42.8309C4.16458 42.9755 4.29611 43.079 4.45181 43.1076C4.80342 43.1677 5.16056 43.1891 5.51683 43.1715H7.76404C9.58523 43.1715 12.3649 43.0863 12.3756 39.6057C12.3756 36.5296 10.2455 35.8058 7.39128 35.7952L4.03645 35.7846ZM12.7377 28.9085H0.0319508V29.8452H0.564464C0.882351 29.8224 1.2015 29.8659 1.50169 29.9729C1.82119 30.1326 1.9916 30.6116 1.9916 31.3992V42.139C2.02622 42.5369 1.87719 42.9289 1.58689 43.2034C1.26655 43.3945 0.892866 43.4767 0.521863 43.4376H0V44.3636H7.75339C10.9485 44.3636 14.8678 43.8208 14.8678 39.7122C14.8678 36.519 11.4384 34.6989 7.41258 34.7414H4.03645V30.1326H7.91314C8.50717 30.1255 9.1011 30.154 9.69173 30.2177C11.3765 30.474 12.7464 31.7091 13.1744 33.3577L14.1542 32.9958L12.7377 28.9085Z" fill="#579559"/>
<path fill-rule="evenodd" clip-rule="evenodd" d="M90.7934 33.9644L85.1701 25.6621C84.7102 24.6646 83.8061 23.9426 82.7312 23.7143C85.1202 23.2909 87.5371 24.297 88.919 26.2901L92.8489 32.123L90.7934 33.9644Z" fill="#579559"/>
<path fill-rule="evenodd" clip-rule="evenodd" d="M82.8271 22.4476C88.2901 22.4562 93.2098 25.7535 95.2914 30.8014C97.3731 35.8493 96.2066 41.6534 92.336 45.5065C88.4655 49.3595 82.6534 50.5025 77.6107 48.4021C72.5681 46.3018 69.2883 41.372 69.3012 35.9122C69.3306 28.4632 75.3842 22.4417 82.8377 22.4476H82.8271ZM82.8271 21C74.602 21 67.9306 27.6567 67.9169 35.8769C67.9033 44.0971 74.5526 50.7757 82.7776 50.8032C91.0026 50.8305 97.6963 44.1962 97.7374 35.9761C97.7434 27.7316 91.0763 21.0352 82.8271 21Z" fill="#579559"/>
<path fill-rule="evenodd" clip-rule="evenodd" d="M93.4879 33.0172L85.1062 40.5638C82.1774 43.2035 78.3646 47.5356 75.7446 42.799C74.0299 39.6909 74.4453 34.2838 76.5008 31.8037C77.0039 31.0363 77.8787 30.5958 78.7952 30.6485C79.7117 30.7013 80.5303 31.2391 80.9419 32.0592L85.4683 38.7756L87.5451 36.8916L84.35 32.1656C81.5277 27.908 77.2995 28.1741 74.3494 30.5158C70.4301 33.6345 70.2597 40.2977 73.4016 44.1295C77.0013 48.5361 82.0496 47.0992 85.8624 43.6612L93.0087 37.2215L95.9268 41.5962C96.2433 40.5248 96.4047 39.4137 96.4061 38.2966C96.4061 37.9453 96.4061 37.6047 96.4061 37.2322L93.4879 33.0172Z" fill="#579559"/>
<path fill-rule="evenodd" clip-rule="evenodd" d="M93.1259 45.2151L90.3888 41.1278L88.2587 43.033L91.0491 47.1523C91.8036 46.588 92.4898 45.9379 93.0939 45.2151H93.1259ZM88.1416 36.4125L81.6556 26.7052C80.8525 25.2989 79.279 24.5168 77.6724 24.7254C79.6001 23.661 82.8484 23.48 84.3501 25.7366L90.2184 34.5391L88.1416 36.4125ZM95.1068 41.8196C94.7352 42.7956 94.2375 43.7188 93.6265 44.5658L90.9852 40.6381L93.0513 38.7222L95.1068 41.8196Z" fill="#579559"/>
</svg>
