<svg x="0px" y="0px" width="250px" height="41.5px" overflow="inherit" viewBox="0, 0, 250, 41.5" preserveAspectRatio="xMidYMid" font-size="0" id="Слой_1" xml:space="preserve" enable-background="new 0 0 250 41.5" xmlns="http://www.w3.org/2000/svg" xmlns:xlink="http://www.w3.org/1999/xlink" xmlns:xml="http://www.w3.org/XML/1998/namespace" version="1.1"><style xml:space="preserve" type="text/css">
	.st0{fill-rule:evenodd;clip-rule:evenodd;fill:#EA212E;}
</style><path d="M1.1 25.4 C1.1 33.2 5.5 41 15.3 41 C25 41 29.4 33.2 29.4 25.4 C29.4 20.1 27.6 14 24.6 9.1 C21.7 4.3 18.2 1.5 15.3 1.5 C12.4 1.5 8.900002 4.3 6.000002 9.1 C2.9 14 1.1 20.1 1.1 25.4 z M101.3 13.1 L91.4 13.1 L91.4 3.6 L121.7 3.6 L121.7 13.1 L111.8 13.1 L111.8 38.9 L101.2 38.9 L101.2 13.1 z M144.4 13.1 L159.9 13.1 L159.9 3.6 L144.4 3.6 C130.1 3.6 122.5 10.7 122.5 21.2 C122.5 31.7 130.1 38.8 144.4 38.8 L159.9 38.8 L159.9 29.3 L144.4 29.3 C137.8 29.3 133.5 26.9 133.5 21.2 C133.4 15.5 137.8 13.1 144.4 13.1 z M64.3 24.7 L69.9 3.6 L88.60001 3.6 L88.60001 38.9 L78 38.9 L78 10.2 L70.3 38.9 L58.2 38.9 L50.5 10.2 L50.5 38.9 L39.9 38.9 L39.9 3.6 L58.6 3.6 L64.3 24.7 z M186.2 13.8 L182.5 13.8 L182.5 17.3 L186.2 17.3 C187.1 17.3 187.7 16.8 187.7 15.9 L187.7 15.3 C187.8 14.3 187.3 13.8 186.2 13.8 z M187.2 21.2 L177.5 21.2 L177.5 3.6 L191.7 3.6 L191.7 7.8 L182.5 7.8 L182.5 10.1 L187.2 10.1 C191.1 10.1 193 12 193 15.5 C193 19.1 191.1 21.2 187.2 21.2 z M204.5 14 L200.6 14 L202.6 7.5 L204.5 14 z M212.1 21.2 L206.7 3.6 L199.3 3.6 L193.9 21.2 L198.6 21.2 L199.6 17.8 L205.8 17.8 L206.8 21.2 L212.1 21.2 z M224.7 21.2 L224.7 14.4 L219 14.4 L219 21.2 L213.9 21.2 L213.9 3.6 L219 3.6 L219 10.1 L224.7 10.1 L224.7 3.6 L229.8 3.6 L229.8 21.2 L224.7 21.2 z M238.8 10.1 L237.9 10.1 L237.9 3.6 L232.8 3.6 L232.8 21.2 L237.9 21.2 L237.9 14.4 L238.6 14.4 L243.3 21.2 L249.2 21.2 L242.8 12 L248.7 3.600001 L243.3 3.600001 L238.8 10.1 z" clip-rule="evenOdd" fill-rule="evenOdd" xml:space="preserve" class="st0" style="fill:#EA212E;" /></svg>