<?xml version="1.0" encoding="utf-8"?>
<!-- Generator: Adobe Illustrator 25.4.1, SVG Export Plug-In . SVG Version: 6.00 Build 0)  -->
<svg version="1.1" id="logo" xmlns="http://www.w3.org/2000/svg" xmlns:xlink="http://www.w3.org/1999/xlink" x="0px" y="0px"
	 width="250px" height="43.2px" viewBox="0 0 250 43.2" style="enable-background:new 0 0 250 43.2;" xml:space="preserve">
<style type="text/css">
	.st0{clip-path:url(#SVGID_00000119797142428049584240000013665936073598131846_);}
	.st1{fill:#1B4692;}
	.st2{fill:url(#SVGID_00000142865219590917725330000012364873646174328992_);}
	.st3{fill:#54BEE3;}
	.st4{fill:url(#SVGID_00000023271290399090118580000003589852667673445777_);}
	.st5{fill:#4B9BD2;}
	.st6{fill:#D0D5D6;}
	.st7{fill:#FFFFFF;}
</style>
<g>
	<g>
		<defs>
			<rect id="SVGID_1_" x="0" width="250" height="43.2"/>
		</defs>
		<clipPath id="SVGID_00000055699650382307839490000017142634898114854570_">
			<use xlink:href="#SVGID_1_"  style="overflow:visible;"/>
		</clipPath>
		<g style="clip-path:url(#SVGID_00000055699650382307839490000017142634898114854570_);">
			<path class="st1" d="M71.6,12.8c-1.5-1.4-3.4-2.1-5.5-2.1H55.8v22.4h3.8v-7.7h6.4c2.2,0,4.1-0.7,5.5-2.1c1.5-1.4,2.2-3.2,2.2-5.2
				C73.8,16,73.1,14.2,71.6,12.8z M68.8,20.8c-0.7,0.7-1.7,1.1-2.8,1.1h-6.4v-7.8H66c1.1,0,2,0.4,2.8,1.1c0.7,0.7,1.1,1.7,1.1,2.8
				S69.6,20.1,68.8,20.8z"/>
			<path class="st1" d="M82.1,16.7c-2.5,0-4.5,0.8-6.2,2.4c-1.7,1.6-2.6,3.6-2.6,6c0,2.4,0.9,4.3,2.6,6c1.7,1.6,3.8,2.4,6.2,2.4
				c2.5,0,4.5-0.8,6.3-2.4c1.7-1.6,2.6-3.6,2.6-6c0-2.4-0.9-4.4-2.6-6C86.7,17.5,84.5,16.7,82.1,16.7z M85.8,28.7
				c-1,1-2.2,1.4-3.7,1.4c-1.5,0-2.7-0.4-3.7-1.4c-1-1-1.5-2.2-1.5-3.6c0-1.5,0.5-2.7,1.5-3.6c1-1,2.2-1.4,3.7-1.4
				c1.5,0,2.7,0.4,3.7,1.4c1,1,1.5,2.2,1.5,3.6C87.3,26.5,86.8,27.7,85.8,28.7z"/>
			<path class="st1" d="M104.2,29.5c-0.8,0.4-1.7,0.7-2.7,0.7c-1.5,0-2.7-0.4-3.7-1.4c-1-1-1.5-2.2-1.5-3.6c0-1.4,0.4-2.7,1.5-3.6
				c1-1,2.2-1.4,3.7-1.4c1,0,1.9,0.2,2.7,0.6c0.8,0.4,1.3,1.1,1.7,1.8l3.1-1.7c-0.7-1.2-1.7-2.2-3-3c-1.3-0.7-2.8-1.1-4.4-1.1
				c-2.5,0-4.6,0.8-6.3,2.4c-1.7,1.6-2.6,3.6-2.6,6c0,2.4,0.9,4.3,2.6,6c1.7,1.6,3.8,2.4,6.3,2.4c1.6,0,3.1-0.4,4.4-1.1
				c1.3-0.7,2.4-1.8,3.1-3l-3.1-1.7C105.6,28.4,104.9,29.1,104.2,29.5z"/>
			<path class="st1" d="M130.7,10.7h-16.1v11.2c0,3.4-0.7,6-2,7.7h-2.1v7.8h3.8V33h15.1v4.3h3.8v-7.8h-2.5V10.7z M126.8,29.6h-10.1
				c1.1-1.8,1.7-4.3,1.7-7.7v-7.8h8.4V29.6z"/>
			<path class="st1" d="M143.2,16.7c-2.5,0-4.5,0.8-6.2,2.4c-1.7,1.6-2.6,3.6-2.6,6c0,2.4,0.9,4.3,2.6,6c1.7,1.6,3.8,2.4,6.2,2.4
				c2.5,0,4.5-0.8,6.3-2.4c1.7-1.6,2.6-3.6,2.6-6c0-2.4-0.9-4.4-2.6-6C147.8,17.5,145.7,16.7,143.2,16.7z M146.9,28.7
				c-1,1-2.2,1.4-3.7,1.4s-2.7-0.4-3.7-1.4c-1-1-1.5-2.2-1.5-3.6c0-1.5,0.5-2.7,1.5-3.6c1-1,2.2-1.4,3.7-1.4s2.7,0.4,3.7,1.4
				c1.1,1,1.5,2.2,1.5,3.6C148.4,26.5,147.9,27.7,146.9,28.7z"/>
			<path class="st1" d="M164.2,16.7c-2.6,0-4.5,0.9-5.8,2.7v-2.3h-3.6v22.3h3.6v-8.7c1.3,1.8,3.3,2.7,5.8,2.7c2.3,0,4.2-0.8,5.8-2.4
				s2.4-3.6,2.4-6c0-2.4-0.8-4.3-2.4-6C168.5,17.4,166.5,16.7,164.2,16.7z M167.4,28.8c-1,1-2.3,1.5-3.8,1.5c-1.5,0-2.7-0.5-3.8-1.5
				c-1-1-1.5-2.2-1.5-3.6c0-1.5,0.5-2.7,1.5-3.7c1-1,2.3-1.5,3.8-1.5c1.5,0,2.7,0.5,3.8,1.5c1,1,1.5,2.2,1.5,3.7
				C168.9,26.6,168.5,27.8,167.4,28.8z"/>
			<path class="st1" d="M186,19.3h-6.6v-5.1h12.1v-3.5h-16v22.4h10.4c2.1,0,4-0.6,5.4-1.9c1.4-1.3,2.1-2.9,2.1-4.9s-0.7-3.6-2.1-4.9
				C189.8,20,188.1,19.3,186,19.3z M188.5,28.7c-0.7,0.6-1.6,1-2.7,1h-6.6v-6.9h6.6c1.1,0,1.9,0.4,2.7,1c0.7,0.6,1.1,1.4,1.1,2.5
				C189.6,27.2,189.2,28.1,188.5,28.7z"/>
			<path class="st1" d="M209.3,19.3c-1.3-1.8-3.3-2.7-5.8-2.7c-2.3,0-4.2,0.8-5.8,2.4c-1.6,1.6-2.4,3.6-2.4,6c0,2.4,0.8,4.3,2.4,6
				c1.6,1.6,3.5,2.5,5.8,2.5c2.6,0,4.5-0.9,5.8-2.7v2.3h3.6v-16h-3.6V19.3z M207.8,28.8c-1,1-2.3,1.5-3.8,1.5s-2.7-0.5-3.8-1.5
				c-1-1-1.5-2.2-1.5-3.6c0-1.5,0.5-2.7,1.5-3.7c1-1,2.3-1.5,3.8-1.5s2.7,0.5,3.8,1.5c1,1,1.5,2.2,1.5,3.7
				C209.3,26.6,208.7,27.8,207.8,28.8z"/>
			<path class="st1" d="M227.9,23.5h-7.7V17h-3.6v16.1h3.6v-6.4h7.7v6.4h3.5v-16h-3.5V23.5z"/>
			<path class="st1" d="M242.4,24.9l7.3-7.8h-4.4l-6.4,7.1v-7.1h-3.6v16h3.6v-7.4l6.8,7.4h4.3L242.4,24.9z"/>
			
				<linearGradient id="SVGID_00000159437955158735862170000010927848677728382908_" gradientUnits="userSpaceOnUse" x1="43.1099" y1="26.2209" x2="-0.2225" y2="26.2209" gradientTransform="matrix(1 0 0 -1 0 44.1979)">
				<stop  offset="0.1592" style="stop-color:#57C8E8"/>
				<stop  offset="0.784" style="stop-color:#478ECC"/>
			</linearGradient>
			<path style="fill:url(#SVGID_00000159437955158735862170000010927848677728382908_);" d="M35.1,19.3h-7.6l4.8,2.3l-4.8,2.3h9.4
				l6.3-5.7v-6.1L35.1,19.3z"/>
			<path class="st3" d="M28.9,19.3h-3.1l4.8,2.3l-4.8,2.3h3.1l4.8-2.3L28.9,19.3z"/>
			
				<linearGradient id="SVGID_00000055666820409025077770000008469769476704551326_" gradientUnits="userSpaceOnUse" x1="43.0734" y1="17.9169" x2="-4.001436e-02" y2="17.9169" gradientTransform="matrix(1 0 0 -1 0 44.1979)">
				<stop  offset="0.1592" style="stop-color:#57C8E8"/>
				<stop  offset="0.784" style="stop-color:#478ECC"/>
			</linearGradient>
			<path style="fill:url(#SVGID_00000055666820409025077770000008469769476704551326_);" d="M15.6,19.3H6.3L0,26.4v6.9l8.3-9.5h7.3
				l0.7-2.3L15.6,19.3z"/>
			<path class="st5" d="M16.2,19.3h-1.4l0.7,2.3l-0.7,2.3h1.4l0.7-2.3L16.2,19.3z"/>
			<path class="st6" d="M14.6,29.2l16-7.7H16.9L14.6,29.2z"/>
			<path class="st1" d="M0,0v26.4l6.3-7.2h9.6l-1.3-5.6l11.9,5.6h8.6l8-7.2V0H0z"/>
			<path class="st1" d="M36.7,23.9H26.5l-12.4,5.7l1.8-5.7H8.3L0,33.3v9.9h43.1v-25L36.7,23.9z"/>
			<path class="st7" d="M14.6,13.9l16,7.7H16.9L14.6,13.9z"/>
			<path class="st1" d="M14.8,19.3h1.4l-1.6-5.4l11.2,5.4h3.1l-16.5-8L14.8,19.3z"/>
			<path class="st1" d="M25.8,23.9l-11.2,5.4l1.6-5.4h-1.4l-2.4,8l16.5-8H25.8z"/>
		</g>
	</g>
</g>
</svg>
