<svg x="0px" y="0px" width="250px" height="60.9px" overflow="inherit" viewBox="0, 0, 250, 60.9" preserveAspectRatio="xMidYMid" font-size="0" id="Layer_1" xml:space="preserve" enable-background="new 0 0 250 60.9" xmlns="http://www.w3.org/2000/svg" xmlns:xlink="http://www.w3.org/1999/xlink" xmlns:xml="http://www.w3.org/XML/1998/namespace" version="1.1"><style xml:space="preserve" type="text/css">
	.st0{fill-rule:evenodd;clip-rule:evenodd;fill:#006C3F;}
	.st1{fill:#50B848;}
	.st2{fill:#006C3F;}
	.st3{display:none;}
	.st4{display:inline;fill-rule:evenodd;clip-rule:evenodd;fill:#006C3F;}
	.st5{fill-rule:evenodd;clip-rule:evenodd;fill:#50B848;}
</style><path d="M1.7 24.4 C1.7 11.9 12.2 1.799999 25.1 1.799999 L25.1 10 C16.8 10 10.1 16.5 10.1 24.5 C10.1 32.5 16.9 39 25.1 39 C33.3 39 40.1 32.6 40.1 24.5 L48.6 24.5 C48.7 36.9 38.2 47 25.1 47 C12.2 47.1 1.7 36.9 1.7 24.4 z" clip-rule="evenOdd" fill-rule="evenOdd" xml:space="preserve" class="st0" style="fill:#006C3F;" /><path d="M14.8 24.4 C14.8 18.9 19.5 14.4 25.2 14.4 C30.9 14.4 35.6 18.9 35.6 24.4 C35.6 29.9 30.9 34.4 25.2 34.4 C19.5 34.4 14.8 30 14.8 24.4 z" xml:space="preserve" class="st1" style="fill:#50B848;" /><path d="M32.5 11.7 C32.5 8.5 35.2 5.9 38.5 5.9 C41.8 5.9 44.5 8.5 44.5 11.7 C44.5 14.9 41.8 17.5 38.5 17.5 C35.2 17.5 32.5 14.9 32.5 11.7 z" xml:space="preserve" class="st2" style="fill:#006C3F;" /><g display="none" xml:space="preserve" class="st3"><path d="M156.1 62.8 L156.3 61.9 C156.4 61.5 156.5 61.1 156.5 60.6 C156.5 59.2 155.4 59 154.9 59 C154.5 59 153.9 59.1 153.2 59.5 C152.9 59.6 152.8 59.8 152.6 59.9 C152.5 59.6 152.2 59 151.2 59 C150.3 59 149.7 59.4 149.2 59.8 L149.4 59.2 L149.3 59.1 L148 59.3 L147.9 59.4 C147.7 60.6 147.7 60.8 147.4 62.2 L147.1 63.4 L146.6 65.6 L146.7 65.7 L147.9 65.7 L148 65.6 C148.2 64.5 148.3 64.2 148.6 62.7 L149 60.9 C149.3 60.7 149.6 60.4 150.1 60.3 C150.2 60.3 150.4 60.2 150.5 60.2 C151.3 60.2 151.4 60.8 151.4 61.1 C151.4 61.4 151.2 62.4 151.1 62.7 L150.9 63.5 L150.4 65.6 L150.5 65.7 L151.7 65.7 L151.8 65.6 L152.2 63.8 L152.5 62.5 C152.7 61.7 152.7 61.5 152.8 60.9 C153.1 60.6 153.7 60.2 154.4 60.2 C155.1 60.2 155.3 60.6 155.3 61 C155.3 61.3 155.1 62.1 155.1 62.4 L154.9 63.3 L154.4 65.5 L154.5 65.6 L155.7 65.6 L155.8 65.5 L156.1 62.8 z" clip-rule="evenOdd" display="inline" fill-rule="evenOdd" xml:space="preserve" class="st4" style="fill:#006C3F;" /><path d="M159 61.6 C159.1 61.3 159.2 61 159.5 60.6 C159.9 60.1 160.4 59.9 161 59.9 C162 59.9 162.3 60.5 162.3 61.1 C162.3 61.3 162.3 61.5 162.2 61.7 L159 61.6 L159 61.6 z M162.7 64 L162.7 64 C162.1 64.3 161.6 64.7 160.6 64.7 C159.5 64.7 158.8 64.2 158.8 63.1 C158.8 62.9 158.8 62.7 158.8 62.6 C159.4 62.6 159.8 62.6 160.3 62.6 C160.8 62.6 162.7 62.6 163.1 62.6 L163.2 62.5 C163.3 62.1 163.3 61.8 163.3 61.4 C163.3 60.6 163.1 60.1 162.6 59.6 C162.1 59.2 161.5 59.1 160.9 59.1 C158.5 59.1 157.4 61.3 157.4 63.1 C157.4 64.3 158 65.4 159.4 65.7 C159.7 65.7 159.9 65.8 160.2 65.8 C160.9 65.8 161.6 65.7 162.2 65.3 L162.3 65.2 L162.7 64 z" clip-rule="evenOdd" display="inline" fill-rule="evenOdd" xml:space="preserve" class="st4" style="fill:#006C3F;" /><path d="M173.4 62.8 L173.6 61.9 C173.7 61.5 173.8 61.1 173.8 60.6 C173.8 59.2 172.7 59 172.2 59 C171.8 59 171.2 59.1 170.5 59.5 C170.2 59.6 170.1 59.8 169.9 59.9 C169.8 59.6 169.5 59 168.5 59 C167.6 59 167 59.4 166.5 59.8 L166.7 59.2 L166.6 59.1 L165.3 59.3 L165.2 59.4 C165 60.6 165 60.8 164.7 62.2 L164.4 63.4 L163.9 65.6 L164 65.7 L165.2 65.7 L165.3 65.6 C165.5 64.5 165.6 64.2 165.9 62.7 L166.3 60.9 C166.6 60.7 166.9 60.4 167.4 60.3 C167.5 60.3 167.7 60.2 167.8 60.2 C168.6 60.2 168.7 60.8 168.7 61.1 C168.7 61.4 168.5 62.4 168.4 62.7 L168.2 63.5 L167.7 65.6 L167.8 65.7 L169 65.7 L169.1 65.6 L169.5 63.8 L169.8 62.5 C170 61.7 170 61.5 170.1 60.9 C170.4 60.6 171 60.2 171.7 60.2 C172.4 60.2 172.6 60.6 172.6 61 C172.6 61.3 172.4 62.1 172.4 62.4 L172.2 63.3 L171.7 65.5 L171.8 65.6 L173 65.6 L173.1 65.5 L173.4 62.8 z" clip-rule="evenOdd" display="inline" fill-rule="evenOdd" xml:space="preserve" class="st4" style="fill:#006C3F;" /><path d="M176.9 60.5 C177.3 60.3 177.7 60 178.4 60 C179.2 60 179.9 60.4 179.9 61.5 C179.9 62.3 179.5 63.4 178.6 64 C177.8 64.5 176.9 64.5 176.3 64.5 L176.1 64.5 L176.9 60.5 z M174.5 65.5 L175.4 65.5 L176.1 65.5 C177.7 65.4 179 65.4 180.1 64.1 C180.9 63.2 181.1 62 181.1 61.4 C181.1 59.9 180.1 59 178.9 59 C178.1 59 177.6 59.3 177.1 59.5 L177.7 57.2 L178 55.8 L177.9 55.7 L176.6 55.9 L176.5 56 C176.4 56.59999 176.4 56.8 176.2 57.59999 C176 58.5 175.8 59.39999 175.6 60.3 L175.1 62.5 L174.5 65.5 L174.5 65.5 z" clip-rule="evenOdd" display="inline" fill-rule="evenOdd" xml:space="preserve" class="st4" style="fill:#006C3F;" /><path d="M183.4 61.6 C183.5 61.3 183.6 61 183.9 60.6 C184.3 60.1 184.8 59.9 185.4 59.9 C186.4 59.9 186.7 60.5 186.7 61.1 C186.7 61.3 186.7 61.5 186.6 61.7 L183.4 61.6 L183.4 61.6 z M187.1 64 L187.1 64 C186.5 64.3 186 64.7 185 64.7 C183.9 64.7 183.2 64.2 183.2 63.1 C183.2 62.9 183.2 62.7 183.2 62.6 C183.8 62.6 184.2 62.6 184.7 62.6 C185.2 62.6 187.1 62.6 187.5 62.6 L187.6 62.5 C187.7 62.1 187.7 61.8 187.7 61.4 C187.7 60.6 187.5 60.1 187 59.6 C186.5 59.2 185.9 59.1 185.3 59.1 C182.9 59.1 181.8 61.3 181.8 63.1 C181.8 64.3 182.4 65.4 183.8 65.7 C184.1 65.7 184.3 65.8 184.6 65.8 C185.3 65.8 186 65.7 186.6 65.3 L186.7 65.2 L187.1 64 z" clip-rule="evenOdd" display="inline" fill-rule="evenOdd" xml:space="preserve" class="st4" style="fill:#006C3F;" /><path d="M189.8 64.3 L190.1 63.1 C190.4 61.9 190.6 61.2 191 60.8 C191.2 60.6 191.5 60.4 191.8 60.4 C192 60.4 192.1 60.5 192.3 60.6 L192.4 60.6 L192.9 59.4 L192.9 59.3 C192.7 59.2 192.5 59.2 192.3 59.2 C191.9 59.2 191.4 59.40001 191 59.90001 C190.9 60 190.8 60.2 190.7 60.40001 L191 59.30001 L190.9 59.20001 C190.3 59.30001 190.2 59.30001 189.6 59.40001 L189.5 59.50001 C189.3 60.80001 189.3 61.10001 188.9 62.70001 L188.6 63.90001 L188.1 65.70001 L188.2 65.80001 L189.5 65.80001 L189.6 65.70001 L189.8 64.3 z" clip-rule="evenOdd" display="inline" fill-rule="evenOdd" xml:space="preserve" class="st4" style="fill:#006C3F;" /><path d="M200.9 62.4 C200.7 63.4 200.2 64.7 198.9 64.7 C198.2 64.7 197.7 64.3 197.7 63.3 C197.7 62.8 197.9 59.9 199.9 59.9 C200.4 59.9 201.1 60.1 201.1 61.3 C201.1 61.7 201 62 200.9 62.4 z M202.2 62.8 C202.3 62.4 202.4 61.9 202.4 61.5 C202.4 59.9 201.4 59 199.9 59 C197.2 59 196.4 61.6 196.4 63.1 C196.4 64.8 197.3 65.6 198.9 65.6 C201.2 65.6 201.9 63.8 202.2 62.8 z" clip-rule="evenOdd" display="inline" fill-rule="evenOdd" xml:space="preserve" class="st4" style="fill:#006C3F;" /><path d="M206.8 60 C206.9 59.7 206.9 59.6 207 59.2 L206.9 59.1 C206.5 59.1 206.3 59.1 205.7 59.1 L205.8 58.5 C206 57.8 206.1 57.40001 206.3 57.1 C206.5 56.9 206.7 56.8 207 56.8 C207.2 56.8 207.4 56.8 207.5 56.9 L207.6 56.8 C207.7 56.4 207.7 56.3 207.8 56 L207.7 55.90001 C207.5 55.90001 207.2 55.80001 206.8 55.80001 C206.5 55.80001 205.8 55.80001 205.4 56.30001 C204.9 56.70001 204.8 57.30001 204.6 58.30001 L204.4 59.10001 C204 59.10001 203.9 59.10001 203.5 59.10001 L203.4 59.2 C203.3 59.60001 203.3 59.60001 203.2 60 L203.3 60.1 C203.4 60.1 204.1 60.1 204.2 60.1 L203.5 63.2 C203.4 63.8 203.1 64.9 203 65.5 L203.1 65.6 C203.6 65.6 203.8 65.6 204.3 65.6 L204.4 65.5 C204.5 65 204.6 64.3 204.9 62.9 C205 62.5 205.4 60.6 205.5 60.2 C206.1 60.1 206.2 60.1 206.8 60 L206.8 60 z" clip-rule="evenOdd" display="inline" fill-rule="evenOdd" xml:space="preserve" class="st4" style="fill:#006C3F;" /><path d="M238.2 60.1 L237.3 64.1 C237 64.3 236.8 64.5 236.4 64.6 C236.2 64.6 236 64.7 235.9 64.7 C235.6 64.7 234.5 64.6 234.5 63.1 C234.5 62.3 234.9 61.5 235.2 61.1 C236 60.2 237 60.1 237.9 60.1 L238.2 60.1 z M239.6 59.1 L237.9 59.1 C236.5 59.1 234.8 59.2 233.7 61.1 C233.4 61.6 233.1 62.4 233.1 63.3 C233.1 64.8 234.1 65.6 235.3 65.6 C236.1 65.6 236.6 65.3 237.1 65 L236.9 65.6 C236.7 66.3 236.4 67.6 234.9 67.6 C233.8 67.6 233.2 67 233 66.7 L232.9 66.7 L232.4 67.5 L232.4 67.6 C232.6 67.8 232.8 68 233.1 68.1 C233.6 68.3 234.3 68.5 234.9 68.5 C235.8 68.5 236.7 68.3 237.3 67.6 C237.8 67 238 66.1 238.3 64.8 L238.7 63.2 C239.2 61.3 239.3 60.8 239.6 59.1 L239.6 59.1 z" clip-rule="evenOdd" display="inline" fill-rule="evenOdd" xml:space="preserve" class="st4" style="fill:#006C3F;" /><path d="M241.6 64.3 L241.9 63.1 C242.2 61.9 242.4 61.2 242.8 60.8 C243 60.6 243.3 60.4 243.6 60.4 C243.8 60.4 243.9 60.5 244.1 60.6 L244.2 60.6 L244.7 59.4 L244.7 59.3 C244.5 59.2 244.3 59.2 244.1 59.2 C243.7 59.2 243.2 59.40001 242.8 59.90001 C242.7 60 242.6 60.2 242.5 60.40001 L242.8 59.30001 L242.7 59.20001 C242.1 59.30001 242 59.30001 241.4 59.40001 L241.3 59.50001 C241.1 60.80001 241.1 61.10001 240.7 62.70001 L240.4 63.90001 L239.9 65.70001 L240 65.80001 L241.3 65.80001 L241.4 65.70001 L241.6 64.3 z" clip-rule="evenOdd" display="inline" fill-rule="evenOdd" xml:space="preserve" class="st4" style="fill:#006C3F;" /><path d="M249.1 62.4 C248.9 63.4 248.4 64.7 247.1 64.7 C246.4 64.7 245.9 64.3 245.9 63.3 C245.9 62.8 246.1 59.9 248.1 59.9 C248.6 59.9 249.3 60.1 249.3 61.3 C249.2 61.7 249.2 62 249.1 62.4 z M250.3 62.8 C250.4 62.4 250.5 61.9 250.5 61.5 C250.5 59.9 249.5 59 248 59 C245.3 59 244.5 61.6 244.5 63.1 C244.5 64.8 245.4 65.6 247 65.6 C249.3 65.6 250.1 63.8 250.3 62.8 z" clip-rule="evenOdd" display="inline" fill-rule="evenOdd" xml:space="preserve" class="st4" style="fill:#006C3F;" /><path d="M256.9 63.5 L257.2 62.2 L257.9 59.2 L257.9 59.1 L256.7 59.2 L256.6 59.3 C256.4 60.2 256.4 60.4 256.1 61.8 L255.6 63.9 C255.3 64.2 254.7 64.6 253.9 64.6 C253.6 64.6 252.9 64.5 252.9 63.6 C252.9 63.2 253.1 62.3 253.2 62 C253.3 61.8 253.8 59.7 253.9 59.3 L253.8 59.2 L252.6 59.2 L252.5 59.3 C252.4 60 252.4 60.1 252.2 60.9 L251.9 62.1 C251.7 63 251.6 63.5 251.6 63.9 C251.6 65.2 252.6 65.6 253.4 65.6 C254 65.6 254.9 65.3 255.4 64.8 L255.3 65.39999 L255.4 65.49999 L256.6 65.49999 L256.7 65.39999 L256.9 63.5 z" clip-rule="evenOdd" display="inline" fill-rule="evenOdd" xml:space="preserve" class="st4" style="fill:#006C3F;" /><path d="M260.6 60.7 C260.8 60.5 261.3 60.1 262 60.1 C262.7 60.1 263.4 60.5 263.4 61.7 C263.4 63.1 262.3 64.7 260.2 64.7 C260 64.7 259.9 64.7 259.7 64.7 L260.6 60.7 z M260.9 59.1 L260.9 59.1 L259.5 59.2 L259.4 59.3 C259.3 59.89999 259.2 60.3 259 61.39999 C258.8 62.39999 258.5 63.49999 258.3 64.59999 L258.1 65.59999 L257.4 68.39999 L257.5 68.49999 L258.8 68.49999 L258.9 68.39999 C259.2 66.89999 259.2 66.59999 259.5 65.49999 C259.7 65.49999 260 65.49999 260.2 65.49999 C260.8 65.49999 262.7 65.49999 263.9 63.89999 C264.4 63.3 264.7 62.3 264.7 61.49999 C264.7 59.99999 263.7 59.09999 262.5 59.09999 C261.7 59.09999 261.2 59.39999 260.8 59.69999 L260.9 59.1 z" clip-rule="evenOdd" display="inline" fill-rule="evenOdd" xml:space="preserve" class="st4" style="fill:#006C3F;" /><path d="M214.7 62.3 C214.5 63.4 214.2 63.8 214 63.9 C213.8 64.2 213.4 64.39999 213.1 64.39999 C212.7 64.39999 212.3 64.2 212.2 63.8 C212.2 63.7 212.1 63.5 212.1 63.2 C212.1 62.6 212.4 61.2 212.9 60.5 C213 60.3 213.3 60 213.9 60 C214.7 60 214.8 60.7 214.8 61.09999 C214.8 61.6 214.8 62 214.7 62.3 z M216.8 62.8 C216.9 62.4 217 61.9 217 61.5 C217 60.7 216.8 60 216.2 59.4 C215.6 58.9 214.8 58.7 214 58.7 C210.7 58.7 210.1 61.8 210.1 63 C210.1 64 210.4 64.7 210.9 65.1 C211.5 65.6 212.4 65.8 213.1 65.8 C214.1 65.8 214.9 65.6 215.6 64.99999 C216.2 64.5 216.6 63.7 216.8 62.8 z" clip-rule="evenOdd" display="inline" fill-rule="evenOdd" xml:space="preserve" class="st4" style="fill:#006C3F;" /><path d="M221.3 64 L221.3 64 C221 64 220.8 64.1 220.5 64.1 C220.2 64.1 219.9 64 219.9 63.6 C219.9 63.4 220.1 62.7 220.1 62.4 L220.6 60.2 L221.8 60.2 L221.9 60.1 C222.1 59.5 222.1 59.4 222.3 58.8 L222.2 58.7 L220.9 58.7 L221.2 57.5 L221.5 56.4 L221.4 56.3 C220.5 56.6 220.3 56.6 219.3 56.8 L219.2 56.9 L218.8 58.5 L218 58.5 L217.9 58.6 L217.5 59.9 L217.6 60 L218.5 60 L218.1 61.8 C217.9 62.5 217.7 63.5 217.7 64 C217.7 65.1 218.5 65.5 219.6 65.5 C220 65.5 220.3 65.4 220.7 65.4 L220.8 65.3 L221.3 64 z" clip-rule="evenOdd" display="inline" fill-rule="evenOdd" xml:space="preserve" class="st4" style="fill:#006C3F;" /><path d="M225.1 60.6 C225.4 60.4 225.6 60.2 226 60.2 C226.3 60.2 226.9 60.3 226.9 61.4 C226.9 62.4 226.4 63.3 225.9 63.7 C225.5 64.1 224.9 64.2 224.5 64.2 C224.4 64.2 224.3 64.2 224.2 64.2 L225.1 60.6 z M225.5 58.8 L225.5 58.8 L223.2 59.1 L223.1 59.2 C223 59.9 223 60.2 222.7 61.4 C222.5 62.5 222.2 63.7 222 64.8 L221.8 65.8 L221.1 68.8 L221.2 68.89999 C221.7 68.89999 222.1 68.89999 222.5 68.89999 C222.8 68.89999 223.1 68.89999 223.4 68.89999 L223.5 68.8 L224.1 65.7 C225.5 65.7 227 65.7 228.3 64.2 C229 63.4 229.3 62.3 229.3 61.4 C229.3 59.8 228.4 58.8 227.2 58.8 C226.4 58.8 225.8 59.2 225.5 59.4 L225.5 58.8 z" clip-rule="evenOdd" display="inline" fill-rule="evenOdd" xml:space="preserve" class="st4" style="fill:#006C3F;" /></g><path d="M222.8 17.1 L222 20.6 C220.2 28.2 219.6 30.7 218.1 38.3 L217.8 38.5 L213 38.7 L212.7 38.40001 L214.6 30.50001 L215.2 27.90001 C213.1 27.8 211 27.8 208.9 27.8 C207.3 27.8 206.1 27.8 204.8 27.90001 C204.1 31.00001 203.5 33.7 202.6 38.3 L202.3 38.5 L197.5 38.7 L197.2 38.40001 L199.1 30.50001 L199.9 27.00001 C201.2 21.60001 201.4 20.40001 202.2 15.40001 L202.5 15.10001 C204.8 14.90001 205.3 14.70001 207.5 14.3 L207.8 14.60001 L207.3 16.8 L206.5 20.3 L205.7 23.7 C207.5 23.7 209.2 23.8 211 23.8 C212.8 23.8 214.1 23.8 216.1 23.7 C216.8 20.8 217 19.2 217.6 15.4 L217.9 15.1 C220.2 14.9 220.7 14.7 222.9 14.3 L223.2 14.6 L222.8 17.1 z" xml:space="preserve" class="st1" style="fill:#50B848;" /><path d="M162.7 27.3 C163 25.9 163.3 24.6 163.3 23.4 C163.3 18.7 160.2 18 158.5 18 C151 18 150.1 29.2 150.1 30.8 C150.1 34.5 152.4 36.1 154.9 36.1 C159.9 36.1 161.9 31 162.7 27.3 z M167.6 28.7 C166.5 32.6 163.7 39.5 154.7 39.5 C148.4 39.5 144.9 36.4 144.9 30.1 C144.9 29.3 145 28.4 145.1 27.4 C145.1 27.2 145.2 26.9 145.2 26.7 C147 16.4 151.7 6.599998 162 6.499998 C163.3 6.499998 166.1 6.299998 168 5.899998 L167.3 9.999998 C165.4 10.5 162.4 10.7 160.7 10.7 C158.5 10.7 157 11.5 156 12.5 C155.5 13 155.1 13.5 154.7 13.9 C154.4 14.4 154.2 14.8 154 15.1 C155.3 14.7 156.8 14.5 158.5 14.5 C164.8 14.5 168.4 17.9 168.4 23.7 C168.4 25.4 168.1 27.1 167.6 28.7 z" xml:space="preserve" class="st1" style="fill:#50B848;" /><path d="M187.5 32.7 C187 33.1 186.5 33.6 185.9 33.9 C184.6 34.6 183.1 34.9 181.8 34.9 C177.5 34.9 176.3 31.4 176.3 29.2 C176.3 29 176.4 23.1 181.4 19.8 C184.2 18 187.2 17.9 188.8 17.9 C189.6 17.9 190.2 18 191 18 L187.5 32.7 z M196.6 14.9 L196.3 14.5 L189.8 14.4 C185.5 14.4 179.3 14.6 175 19.6 C173 21.8 171.2 25.8 171.2 29.4 C171.2 35.1 175.1 38.4 180 38.4 C184 38.4 186.1 36.7 186.9 36.1 L186.6 37.9 L186.9 38.2 L191.3 38.1 L191.6 37.8 C192.5 32.3 192.9 30.7 194.5 23.6 L196.6 14.9 z" clip-rule="evenOdd" fill-rule="evenOdd" xml:space="preserve" class="st5" style="fill:#50B848;" /><path d="M78.5 26.2 C77.6 30.2 76.6 31.4 76.1 32.1 C75.3 33.1 74.1 33.9 72.7 33.9 C71.1 33.9 69.89999 33.2 69.39999 31.7 C69.2 31.4 69.09999 30.8 69.09999 29.7 C69.09999 27.6 70.09999 22.5 71.89999 20.2 C72.39999 19.6 73.59999 18.4 75.7 18.4 C78.5 18.4 79 20.7 79 22.4 C79 23.8 78.8 25.1 78.5 26.2 z M86.3 28 C86.7 26.5 86.9 24.9 86.9 23.4 C86.9 20.7 86.3 18.1 83.9 16 C81.6 14.1 78.6 13.4 75.7 13.4 C63.40001 13.4 61.10001 24.3 61.10001 28.5 C61.10001 31.9 62.10001 34.4 64.2 36.1 C66.50001 38 69.8 38.4 72.2 38.4 C75.8 38.4 78.9 37.7 81.50001 35.5 C84 33.8 85.5 31 86.3 28 z" clip-rule="evenOdd" fill-rule="evenOdd" xml:space="preserve" class="st0" style="fill:#006C3F;" /><path d="M105.5 19.8 L105 19.8 C104.6 21.6 104.1 23.7 103.2 27 L102.4 30.4 C101.6 34.3 101.4 35.2 100.9 38.4 L100.6 38.6 L92.39999 38.8 L92.09999 38.5 C93.49999 33.1 93.79999 32.1 95.19999 26.3 L95.69999 24.1 C96.09999 22.3 96.39999 21 96.59999 19.9 L96.29999 19.9 L93.69999 19.9 L88.4 20 L88.1 19.6 L89.7 14.2 L90.1 14 L106.2 14 L114.4 13.8 L114.7 14 L113.2 19.4 L112.8 19.7 L108.1 19.5 L105.5 19.5 L105.5 19.8 z" xml:space="preserve" class="st2" style="fill:#006C3F;" /><path d="M133.5 19.7 L124.5 19.8 C124.5 19.8 123.4 23.3 122.4 27.1 C121.4 31 120.3 35.2 119.6 38.3 L119.3 38.5 L111.6 38.7 L111.3 38.40001 C113 33 113.3 32 114.9 26.2 L115.5 24 C116 22.1 116.3 20.9 116.6 19.7 L117.9 14.3 L118.2 14.10001 L133.7 14.10001 L141.9 13.90001 L142.2 14.10001 C142.2 14.10001 140.6 21.60001 139.6 26.5 C138.6 31.6 137.5 38.10001 137.5 38.10001 L137.2 38.30001 L129.2 38.50001 L128.9 38.20001 C130.2 32.90001 131.1 29.00001 131.7 26.00001 C132.7 23.2 133.2 21 133.5 19.7 z" xml:space="preserve" class="st2" style="fill:#006C3F;" /><path d="M232.4 24.4 C233.6 23.4 234.2 22.9 235.7 21.4 C237.4 19.9 241.4 15.9 242.1 15.1 L242.6 14.9 L248 14.9 L248.2 15.3 C247.7 15.7 247.4 15.9 245.6 17.5 C244.8 18.1 244.3 18.5 243.4 19.3 L237.2 24.8 L244.5 38.3 L244.2 38.7 L238.9 38.9 L238.5 38.7 C237.2 35.9 236.9 35.2 235.2 31.9 L231.9 25.4 C230.9 29.9 230.2 32.7 229.1 38.6 L228.8 38.8 L224 39 L223.7 38.7 L225.6 30.8 L226.4 27.3 C227.7 21.90001 227.9 20.7 228.7 15.7 L229 15.4 C231.3 15.2 231.8 15 234 14.6 L234.3 14.9 L233.8 17.1 L233 20.6 L232.4 24.4 z" xml:space="preserve" class="st1" style="fill:#50B848;" /><g xml:space="preserve"><path d="M62.2 43.6 L68.9 43.6 L68.6 45.1 L63.8 45.1 L63.3 48 L64.6 48 C65.9 48 66.9 48.2 67.5 48.7 C68.2 49.2 68.5 49.9 68.5 50.9 C68.5 51.8 68.2 52.6 67.8 53.2 C67.4 53.8 66.8 54.4 66 54.7 C65.2 55 64.3 55.3 63.2 55.3 L60 55.3 L62.2 43.6 z M63.5 53.9 C64.5 53.9 65.3 53.7 65.8 53.2 C66.3 52.7 66.60001 52.1 66.60001 51.3 C66.60001 50.7 66.40001 50.3 66.10001 50 C65.8 49.8 65.2 49.6 64.40001 49.6 L63.00001 49.6 L62.20001 53.9 L63.5 53.9 z" xml:space="preserve" class="st2" style="fill:#006C3F;" /><path d="M70.4 54.8 C70.1 54.3 69.9 53.6 69.9 52.6 C69.9 51.5 70.2 50.4 70.6 49.5 C71 48.6 71.7 47.9 72.4 47.3 C73.2 46.7 74.1 46.5 75.1 46.5 C75.5 46.5 76 46.5 76.5 46.6 C77.1 46.7 77.6 46.8 78.1 46.9 L76.6 55.3 L75 55.3 L75.1 53.89999 L75 53.89999 C74.2 54.89999 73.1 55.39999 71.8 55.39999 C71.2 55.5 70.7 55.3 70.4 54.8 z M73.8 53.8 C74.2 53.5 74.60001 53.2 74.9 52.7 C75.2 52.2 75.4 51.7 75.5 51.2 L76 48.4 C75.7 48.3 75.3 48.3 75 48.3 C74.3 48.3 73.8 48.5 73.3 48.9 C72.8 49.3 72.4 49.8 72.10001 50.5 C71.8 51.2 71.7 51.9 71.7 52.7 C71.7 53.8 72.00001 54.4 72.60001 54.4 C72.9 54.2 73.4 54 73.8 53.8 z" xml:space="preserve" class="st2" style="fill:#006C3F;" /><path d="M87.7 46.9 L86.1 55.4 L84.3 55.4 L84.99999 51.7 L81.59999 51.7 L80.89999 55.5 L79.09999 55.5 L80.69999 47 L82.49999 47 L81.8 50.4 L85.2 50.4 L85.89999 46.9 C86 46.9 87.7 46.9 87.7 46.9 z" xml:space="preserve" class="st2" style="fill:#006C3F;" /><path d="M93.3 51 L96.4 55.3 L94.3 55.3 L92.5 52.7 L91.4 51.2 L91.4 51.2 L91.2 52.2 C91.2 52.4 91.10001 52.6 91.00001 53 L90.60001 55.3 L89 55.3 L90.6 46.8 L92.4 46.8 L92 49 C91.9 49.2 91.9 49.6 91.8 50 L91.7 50.5 L91.7 50.5 C92.2 50 92.7 49.5 93.10001 49.1 L95.60001 46.7 L97.90001 46.7 L93.3 51 z" xml:space="preserve" class="st2" style="fill:#006C3F;" /><path d="M102 55 C101.5 54.6 101.2 54 101.2 53.3 C101.2 52.5 101.5 51.8 102 51.4 C102.6 50.9 103.5 50.5 104.8 50.2 C105.3 50 105.7 49.9 106 49.6 C106.3 49.4 106.4 49.1 106.4 48.8 C106.4 48.5 106.3 48.3 106.1 48.2 C105.8 48 105.5 48 105 48 C104.2 48 103.4 48.2 102.7 48.6 L103 47.2 C103.3 47 103.8 47 104.2 46.9 C104.6 46.8 105.1 46.7 105.5 46.7 C106.3 46.7 107 46.9 107.5 47.3 C108 47.7 108.3 48.2 108.3 48.89999 C108.3 49.59999 108 50.19999 107.6 50.59999 C107.1 51 106.4 51.3 105.4 51.59999 C104.6 51.8 104.1 52 103.6 52.3 C103.3 52.5 103.1 52.89999 103.1 53.3 C103.1 53.89999 103.6 54.3 104.7 54.3 C105.5 54.3 106.4 54.09999 107.1 53.7 L106.8 55.1 C106 55.4 105.1 55.6 104.1 55.6 C103.2 55.6 102.5 55.4 102 55 z" xml:space="preserve" class="st2" style="fill:#006C3F;" /><path d="M110.1 54.8 C109.6 54.2 109.3 53.4 109.3 52.3 C109.3 51.2 109.5 50.2 109.9 49.3 C110.3 48.4 110.9 47.8 111.6 47.3 C112.4 46.8 113.2 46.6 114.1 46.6 C115.2 46.6 115.9 46.9 116.4 47.5 C116.9 48.1 117.2 48.9 117.2 50 C117.2 51.1 117 52.1 116.6 53 C116.2 53.9 115.6 54.5 114.9 55 C114.2 55.5 113.3 55.7 112.4 55.7 C111.3 55.6 110.6 55.4 110.1 54.8 z M114 53.7 C114.4 53.3 114.8 52.8 115 52.2 C115.3 51.6 115.3 50.8 115.3 50 C115.3 49.4 115.2 48.8 115 48.6 C114.8 48.4 114.4 48.1 113.9 48.1 C113.4 48.1 112.9 48.3 112.5 48.7 C112.1 49.1 111.7 49.6 111.5 50.2 C111.2 50.8 111.2 51.6 111.2 52.4 C111.2 53 111.3 53.5 111.5 53.8 C111.7 54.1 112.1 54.3 112.6 54.3 C113.1 54.2 113.6 54.1 114 53.7 z" xml:space="preserve" class="st2" style="fill:#006C3F;" /><path d="M120.1 46.9 L121.6 46.9 L121.5 48.3 L121.6 48.3 C122 47.8 122.5 47.4 123 47.1 C123.5 46.8 124.1 46.7 124.6 46.7 C125.7 46.7 126.3 47.3 126.4 48.3 L126.5 48.3 C126.9 47.7 127.4 47.3 128 47.1 C128.5 46.9 129.1 46.7 129.6 46.7 C130.2 46.7 130.6 46.9 130.9 47.2 C131.2 47.5 131.4 48.1 131.4 48.7 C131.4 49 131.4 49.3 131.3 49.7 L130.2 55.4 L128.4 55.4 L129.4 50.1 C129.5 49.7 129.5 49.3 129.5 49 C129.5 48.7 129.4 48.4 129.3 48.4 C129.2 48.3 129 48.2 128.8 48.2 C128.4 48.2 128 48.4 127.6 48.6 C127.2 48.9 126.8 49.3 126.6 49.8 C126.3 50.3 126.1 50.8 126 51.5 L125.2 55.5 L123.4 55.5 L124.4 50.2 C124.5 49.8 124.5 49.40001 124.5 49.10001 C124.5 48.80001 124.4 48.50001 124.3 48.40001 C124.2 48.2 124 48.2 123.8 48.2 C123.4 48.2 123 48.40001 122.6 48.60001 C122.2 48.90001 121.8 49.30001 121.6 49.80001 C121.3 50.30001 121.1 50.80001 121 51.50001 L120.2 55.50001 L118.2 55.50001 L120.1 46.9 z" xml:space="preserve" class="st2" style="fill:#006C3F;" /><path d="M133.7 54.8 C133.2 54.2 132.9 53.4 132.9 52.3 C132.9 51.2 133.1 50.2 133.5 49.3 C133.9 48.4 134.5 47.8 135.2 47.3 C136 46.8 136.8 46.6 137.7 46.6 C138.8 46.6 139.5 46.9 140 47.5 C140.5 48.1 140.8 48.9 140.8 50 C140.8 51.1 140.6 52.1 140.2 53 C139.8 53.9 139.2 54.5 138.5 55 C137.7 55.5 136.9 55.7 136 55.7 C134.9 55.6 134.2 55.4 133.7 54.8 z M137.6 53.7 C138 53.3 138.4 52.8 138.6 52.2 C138.9 51.6 138.9 50.8 138.9 50 C138.9 49.4 138.8 48.8 138.6 48.6 C138.4 48.4 138 48.1 137.5 48.1 C137 48.1 136.5 48.3 136.1 48.7 C135.7 49.1 135.3 49.6 135.1 50.2 C134.8 50.8 134.8 51.6 134.8 52.4 C134.8 53 134.9 53.5 135.1 53.8 C135.4 54.1 135.7 54.3 136.2 54.3 C136.7 54.2 137.2 54.1 137.6 53.7 z" xml:space="preserve" class="st2" style="fill:#006C3F;" /><path d="M149.2 51.4 C149.5 51.7 149.5 52.1 149.5 52.6 C149.5 53.2 149.3 53.8 148.9 54.2 C148.6 54.7 148.1 55 147.4 55.2 C146.7 55.4 146.1 55.6 145.2 55.6 C144 55.6 142.9 55.4 141.9 55 L143.3 47.2 C143.8 47 144.4 46.90001 145 46.7 C145.6 46.60001 146.2 46.5 146.8 46.5 C147.8 46.5 148.6 46.7 149.1 47 C149.6 47.3 149.9 47.8 149.9 48.40001 C149.9 48.90001 149.7 49.40001 149.5 49.80001 C149.2 50.20001 148.8 50.50001 148.4 50.80001 C148.7 50.9 148.9 51.1 149.2 51.4 z M147 53.9 C147.4 53.7 147.7 53.3 147.7 52.7 C147.7 52.3 147.6 52 147.4 51.8 C147.1 51.6 146.7 51.5 146.2 51.5 C145.8 51.5 145.2 51.6 144.5 51.7 L144.1 54.1 C144.4 54.3 144.9 54.3 145.5 54.3 C146.1 54.3 146.6 54.2 147 53.9 z M145.1 48.2 L144.7 50.5 L146.4 50.3 C147 50.2 147.4 50.1 147.7 49.8 C148 49.6 148.1 49.2 148.1 48.8 C148.1 48.5 148 48.2 147.8 48.2 C147.5 48 147.2 48 146.8 48 C146.2 48 145.6 48.1 145.1 48.2 z" xml:space="preserve" class="st2" style="fill:#006C3F;" /><path d="M152.7 55.5 C152.3 55.4 151.7 55.3 151.1 55 L152.6 46.8 L154.4 46.8 L153.9 49.5 C153.9 49.6 153.8 49.8 153.7 50.1 L153.7 50.1 C154 49.7 154.5 49.3 155 49.1 C155.5 48.9 156 48.7 156.6 48.7 C157.4 48.7 157.9 48.9 158.3 49.3 C158.6 49.7 158.9 50.3 158.9 51.09999 C158.9 52 158.7 52.69999 158.3 53.39999 C157.9 53.99999 157.4 54.59999 156.6 54.99999 C155.9 55.39999 155.1 55.59999 154.2 55.59999 C153.6 55.6 153.1 55.6 152.7 55.5 z M155.6 53.8 C156 53.6 156.3 53.2 156.5 52.7 C156.7 52.2 156.8 51.7 156.8 51.3 C156.8 51 156.7 50.7 156.5 50.4 C156.3 50.2 156.1 50.1 155.7 50.1 C155.3 50.1 154.9 50.3 154.5 50.5 C154.1 50.7 153.8 51.1 153.6 51.5 C153.3 51.9 153.2 52.4 153.1 52.8 L152.8 54 C153.1 54.1 153.5 54.2 154 54.2 C154.8 54.2 155.2 54.1 155.6 53.8 z M161.4 46.9 L163.2 46.9 L161.6 55.4 L159.8 55.4 L161.4 46.9 z" xml:space="preserve" class="st2" style="fill:#006C3F;" /><path d="M166.7 50.8 L164.9 46.9 L166.7 46.9 L167.5 48.7 C167.7 49 167.8 49.3 167.9 49.7 L167.9 49.7 L168.2 49.3 C168.4 49.09999 168.5 48.8 168.6 48.7 L169.9 46.9 L172 46.9 L168.7 50.9 L170.7 55.4 L169 55.4 L167.9 52.8 L167.6 52 L167.6 52 L167.1 52.7 L165 55.4 L162.9 55.4 L166.7 50.8 z" xml:space="preserve" class="st2" style="fill:#006C3F;" /><path d="M183.6 47.3 C183.9 47.8 184.2 48.4 184.2 49.3 C184.2 50.4 183.9 51.5 183.5 52.4 C183.1 53.4 182.5 54.1 181.7 54.6 C180.9 55.2 180.1 55.4 179.2 55.4 C178.7 55.4 178.2 55.3 177.6 55.2 L176.9 58.8 L175.1 58.8 L177.3 46.8 L178.8 46.8 L178.7 48.2 L178.8 48.2 C179.7 47.2 180.7 46.6 181.9 46.6 C182.8 46.7 183.3 46.9 183.6 47.3 z M180.8 53.6 C181.3 53.2 181.7 52.6 182 52 C182.3 51.3 182.4 50.6 182.4 49.8 C182.4 48.8 182.1 48.2 181.4 48.2 C181 48.2 180.6 48.4 180.1 48.6 C179.7 48.9 179.3 49.2 179 49.7 C178.7 50.2 178.5 50.7 178.4 51.3 L178 54 C178.3 54.2 178.7 54.2 179.1 54.2 C179.7 54.2 180.3 54 180.8 53.6 z" xml:space="preserve" class="st2" style="fill:#006C3F;" /><path d="M191.4 51.5 C190.4 52.1 189 52.4 187.1 52.4 C187.1 53 187.3 53.4 187.6 53.8 C187.9 54.1 188.4 54.3 189 54.3 C189.5 54.3 189.9 54.2 190.3 54.1 C190.6 54 191.1 53.9 191.4 53.7 L191.1 55.1 C190.4 55.3 189.6 55.5 188.6 55.5 C187.5 55.5 186.7 55.2 186.1 54.6 C185.5 54 185.2 53.2 185.2 52.1 C185.2 51.1 185.5 50.1 185.9 49.3 C186.3 48.4 186.9 47.8 187.7 47.3 C188.5 46.8 189.3 46.6 190.2 46.6 C191 46.6 191.7 46.8 192.1 47.2 C192.5 47.6 192.8 48.2 192.8 48.9 C192.9 50 192.4 50.9 191.4 51.5 z M188.9 48.5 C188.5 48.8 188.1 49.1 187.8 49.6 C187.5 50.1 187.3 50.6 187.2 51.2 C188.5 51.2 189.5 51 190.1 50.6 C190.8 50.2 191.1 49.7 191.1 49 C191.1 48.4 190.8 48 190.1 48 C189.8 48.1 189.3 48.1 188.9 48.5 z" xml:space="preserve" class="st2" style="fill:#006C3F;" /><path d="M205.5 55.4 L204 55.4 L204.1 54 L204 54 C203.6 54.5 203.1 54.9 202.6 55.2 C202.1 55.5 201.5 55.6 201 55.6 C199.9 55.6 199.3 55 199.2 54 L199.1 54 C198.7 54.6 198.2 55 197.6 55.2 C197.1 55.40001 196.5 55.60001 196 55.60001 C195.4 55.60001 194.9 55.40001 194.6 55.10001 C194.3 54.80001 194.1 54.2 194.1 53.60001 C194.1 53.30001 194.1 53.00001 194.2 52.60001 L195.3 46.90001 L197.1 46.90001 L196.1 52.2 C196 52.60001 196 53 196 53.3 C196 53.6 196.1 53.9 196.2 54 C196.3 54.2 196.5 54.2 196.7 54.2 C197.1 54.2 197.5 54 198 53.8 C198.4 53.5 198.8 53.1 199 52.6 C199.3 52.1 199.5 51.6 199.6 50.9 L200.4 46.9 L202.2 46.9 L201.3 52.2 C201.2 52.6 201.2 53 201.2 53.3 C201.2 53.6 201.3 53.9 201.4 53.9 C201.5 54.1 201.7 54.1 201.9 54.1 C202.3 54.1 202.7 53.9 203.2 53.7 C203.6 53.4 204 53 204.2 52.5 C204.5 52 204.7 51.5 204.8 50.8 L205.6 46.8 L207.4 46.8 L205.5 55.4 z" xml:space="preserve" class="st2" style="fill:#006C3F;" /><path d="M214.3 51.5 C213.3 52.1 211.9 52.4 210 52.4 C210 53 210.2 53.4 210.5 53.8 C210.8 54.1 211.3 54.3 211.9 54.3 C212.4 54.3 212.8 54.2 213.2 54.1 C213.5 54 214 53.9 214.3 53.7 L214 55.1 C213.3 55.3 212.5 55.5 211.5 55.5 C210.4 55.5 209.6 55.2 209 54.6 C208.4 54 208.1 53.2 208.1 52.1 C208.1 51.1 208.4 50.1 208.8 49.3 C209.2 48.4 209.8 47.8 210.6 47.3 C211.4 46.8 212.2 46.6 213.1 46.6 C213.9 46.6 214.6 46.8 215 47.2 C215.4 47.6 215.7 48.2 215.7 48.9 C215.8 50 215.3 50.9 214.3 51.5 z M211.8 48.5 C211.4 48.8 211 49.1 210.7 49.6 C210.4 50.1 210.2 50.6 210.1 51.2 C211.4 51.2 212.4 51 213 50.6 C213.7 50.2 214 49.7 214 49 C214 48.4 213.7 48 213 48 C212.7 48.1 212.2 48.1 211.8 48.5 z" xml:space="preserve" class="st2" style="fill:#006C3F;" /><path d="M225.3 46.9 L223.7 55.4 L221.9 55.4 L222.6 51.7 L219.2 51.7 L218.5 55.4 L216.7 55.4 L218.3 46.9 L220.1 46.9 L219.4 50.3 L222.8 50.3 L223.5 46.8 L225.3 46.9 L225.3 46.9 z" xml:space="preserve" class="st2" style="fill:#006C3F;" /><path d="M227.3 55.1 C227 54.8 226.8 54.2 226.8 53.6 C226.8 53.3 226.8 53 226.9 52.6 L228 46.9 L229.8 46.9 L228.8 52.3 C228.7 52.7 228.7 53 228.7 53.3 C228.7 53.6 228.8 53.9 228.9 54 C229.1 54.2 229.2 54.2 229.5 54.2 C230.2 54.2 230.8 53.9 231.4 53.2 C232 52.6 232.3 51.8 232.5 50.8 L233.3 46.8 L235.1 46.8 L233.5 55.3 L232 55.3 L232.2 53.9 L232.1 53.9 C231.7 54.5 231.2 54.8 230.7 55.1 C230.2 55.4 229.6 55.5 228.9 55.5 C228 55.6 227.6 55.4 227.3 55.1 z" xml:space="preserve" class="st2" style="fill:#006C3F;" /><path d="M236.8 55.1 C236.5 54.8 236.3 54.2 236.3 53.6 C236.3 53.3 236.3 53 236.4 52.6 L237.5 46.9 L239.3 46.9 L238.3 52.3 C238.2 52.7 238.2 53 238.2 53.3 C238.2 53.6 238.3 53.9 238.4 54 C238.6 54.2 238.7 54.2 239 54.2 C239.7 54.2 240.3 53.9 240.9 53.2 C241.5 52.5 241.8 51.8 242 50.8 L242.8 46.8 L244.6 46.8 L243 55.3 L241.5 55.3 L241.6 53.9 L241.5 53.9 C241.1 54.5 240.6 54.8 240.1 55.1 C239.6 55.4 239 55.5 238.3 55.5 C237.6 55.6 237.1 55.4 236.8 55.1 z M239.3 45.1 L239.5 43.9 C240.1 44.2 240.8 44.3 241.5 44.3 C242.2 44.3 242.9 44.1 243.5 43.9 L243.3 45.1 C242.7 45.3 242 45.5 241.2 45.5 C240.4 45.6 239.8 45.4 239.3 45.1 z" xml:space="preserve" class="st2" style="fill:#006C3F;" /></g></svg>