<?xml version="1.0" encoding="utf-8"?>
<!-- Generator: Adobe Illustrator 24.0.1, SVG Export Plug-In . SVG Version: 6.00 Build 0)  -->
<svg version="1.1" id="Слой_1" xmlns="http://www.w3.org/2000/svg" xmlns:xlink="http://www.w3.org/1999/xlink" x="0px" y="0px"
	 width="250px" height="44px" viewBox="0 0 250 44" style="enable-background:new 0 0 250 44;" xml:space="preserve">
<style type="text/css">
	.st0{fill-rule:evenodd;clip-rule:evenodd;fill:#B30064;}
	.st1{fill-rule:evenodd;clip-rule:evenodd;fill:#010101;}
	.st2{fill:#010101;}
</style>
<g>
	<path class="st0" d="M0.5,10.4v18.3l0,0.2c3.1,5.7,8.9,9.3,15.4,9.5c-5.3-0.3-9.5-4.5-9.5-9.7v-21c0-1.3,1.1-2.4,2.3-2.4
		C5.1,5.4,2,6.1,0.5,9.1"/>
	<path class="st0" d="M8.7,0.2c-4.5,0-8.2,3.7-8.2,8.2v2.6c1.6-3.1,4.8-5,8.2-5h5.8c1.6,0,2.9-1.3,2.9-2.9c0-1.6-1.3-2.9-2.9-2.9
		C14.5,0.2,8.7,0.2,8.7,0.2z M48.1,13.6c0,1.4-0.4,2.7-1.2,3.9c-0.9,1.4-0.7,2.9,0.7,3.7c0.9,0.5,1.7,1.1,2.3,1.8
		c1.6,1.7,2.4,4,2.4,6.3c0,4.7-3.4,8.5-7.8,9.1c6.3-0.3,11.5-4,13.7-9.2c0-4.3-1.9-8.3-5-11.1c0.5-1.4,0.8-2.8,0.8-4.4
		c0-0.8-0.2-2.4-0.3-3.2c-3.3-2.9-7.5-4.6-11.9-4.6c-0.1,0-0.2,0-0.3,0C45.1,6,48.1,9.9,48.1,13.6z"/>
	<path class="st0" d="M41.4,0.2c6.1,0,11.2,4.5,12.4,10.4c-3.3-2.9-7.5-4.6-11.9-4.6c-0.1,0-0.2,0-0.3,0c-0.1,0-0.1,0-0.2,0h-9v22
		c0,8.6-7.1,15.6-15.9,15.6c-8.7,0-15.8-6.9-15.9-15.4c3.1,5.7,8.9,9.3,15.4,9.5c0.2,0,0.3,0,0.5,0c5.5,0,10.1-4.4,10.1-9.7V0.2
		H41.4L41.4,0.2z M44.7,37.7c-0.3,0-0.6,0.1-1,0.1h-9.5c-1.6,0-2.9,1.3-2.9,2.9c0,1.6,1.3,2.9,2.9,2.9h9.5c8.1,0,14.6-6.7,14.6-15
		v-0.2C56.2,33.7,51,37.4,44.7,37.7z"/>
	<path class="st1" d="M74,40.5c0.2,0,0.3,0,0.3-0.2l0-2.4c0.5,0.1,1,0.2,1.5,0.2c2.1,0,3-1.5,3-3.5s-0.8-3.5-3.3-3.5
		c-1,0-1.9,0.2-2.8,0.5c-0.2,0.1-0.3,0.2-0.3,0.4v8.3c0,0.2,0.1,0.2,0.3,0.2C72.7,40.5,74,40.5,74,40.5z M74.3,32.8
		c0.3-0.1,0.6-0.1,1-0.1l0,0c1,0,1.5,0.5,1.5,1.8c0,1.4-0.6,1.9-1.5,1.9c-0.4,0-0.7-0.1-1.1-0.1C74.3,36.3,74.3,32.8,74.3,32.8z
		 M85.3,35.1c0.6,0,1-0.3,1-1.1l0,0c0-1.8-1.1-2.9-3-2.9c-2,0-3.2,1.3-3.2,3.5c0,2.4,1.1,3.5,3.3,3.5c0.8,0,1.6-0.2,2.3-0.6
		c0.1-0.1,0.2-0.2,0.1-0.3l-0.4-0.9c-0.1-0.1-0.1-0.2-0.3-0.1c-0.5,0.2-1,0.3-1.5,0.3c-0.9,0-1.5-0.3-1.5-1.4
		C82,35.1,85.3,35.1,85.3,35.1z M84.5,33.9h-2.4c0-0.7,0.5-1.3,1.2-1.3C84.2,32.6,84.5,33.1,84.5,33.9L84.5,33.9z"/>
	<path class="st2" d="M89.4,37.7H88c-0.2,0-0.2,0-0.2-0.2v-6.3c0-0.2,0.1-0.2,0.2-0.2h1.4c0.2,0,0.2,0,0.2,0.2v2.2h0.6
		c0.5,0,0.8-0.1,1.1-0.9l0.5-1.4c0-0.1,0.1-0.2,0.2-0.2h1.4c0.2,0,0.2,0.1,0.2,0.2l-0.5,1.7c-0.1,0.5-0.4,1-0.9,1.2
		c0.6,0.1,1,0.6,1.1,1.2l0.7,2.2c0,0.1,0,0.2-0.2,0.2h-1.5c-0.1,0-0.2-0.1-0.2-0.2l-0.6-2c-0.1-0.5-0.6-0.8-1.1-0.7h-0.8v2.6
		C89.7,37.7,89.6,37.7,89.4,37.7"/>
	<path class="st1" d="M95.5,34.6c0,2.2,1,3.5,3.2,3.5l0,0c2.2,0,3.3-1.4,3.3-3.5c0-2.2-1.1-3.5-3.3-3.5
		C96.7,31.1,95.5,32.3,95.5,34.6z M97.4,34.5c0-1.2,0.4-1.9,1.3-1.9l0,0c1,0,1.3,0.9,1.3,1.9c0,1.1-0.4,1.9-1.3,1.9
		C97.8,36.5,97.4,35.8,97.4,34.5z"/>
	<path class="st2" d="M104.8,37.7h-1.3c-0.2,0-0.3-0.1-0.3-0.3v-6.2c0-0.2,0.1-0.2,0.3-0.2h1.3c0.2,0,0.3,0,0.3,0.2v2.2h2.4v-2.2
		c0-0.2,0.1-0.2,0.3-0.2h1.3c0.2,0,0.3,0,0.3,0.2v6.2c0,0.2,0,0.3-0.3,0.3h-1.3c-0.2,0-0.3-0.1-0.3-0.3v-2.5h-2.4v2.6
		C105.1,37.7,105,37.8,104.8,37.7 M115.8,36.1c0.2-0.1,0.3-0.1,0.3,0.1l0.4,1c0.1,0.2,0.1,0.3-0.1,0.4c-0.7,0.4-1.6,0.5-2.4,0.5
		c-2,0-3.1-1.2-3.1-3.5c0-2.2,1.2-3.5,3.2-3.5c0.7,0,1.4,0.1,2,0.4c0.2,0.1,0.2,0.2,0.1,0.4l-0.4,1c-0.1,0.2-0.2,0.2-0.4,0.1
		c-0.4-0.1-0.8-0.2-1.3-0.2c-1,0-1.4,0.9-1.4,1.9c0,1,0.3,1.8,1.4,1.8C114.8,36.4,115.3,36.3,115.8,36.1 M121.3,32.6v4.9
		c0,0.2-0.1,0.3-0.3,0.3h-1.3c-0.2,0-0.3-0.1-0.3-0.3v-4.9h-1.8c-0.2,0-0.3-0.1-0.3-0.3v-0.9c0-0.2,0-0.3,0.3-0.3h5.6
		c0.2,0,0.3,0.1,0.3,0.3v0.9c0,0.2-0.1,0.3-0.3,0.3C123.1,32.6,121.3,32.6,121.3,32.6z"/>
	<path class="st1" d="M126.6,40.5c0.2,0,0.3,0,0.3-0.2v-2.4c0.5,0.1,1,0.2,1.5,0.2c2.1,0,3-1.5,3-3.5s-0.8-3.5-3.3-3.5
		c-1,0-1.9,0.2-2.9,0.5c-0.2,0.1-0.3,0.2-0.3,0.4v8.3c0,0.2,0.1,0.2,0.3,0.2H126.6z M126.9,32.8c0.3-0.1,0.6-0.1,1-0.1l0,0
		c1,0,1.5,0.5,1.5,1.8c0,1.4-0.6,1.9-1.5,1.9c-0.4,0-0.7,0-1.1-0.1C126.9,36.3,126.9,32.8,126.9,32.8z"/>
	<path class="st2" d="M137.1,38.8c-0.2,1.1-1.2,1.8-2.3,1.6c-0.4,0-0.9-0.1-1.3-0.2c-0.2-0.1-0.3-0.1-0.2-0.3l0.2-1
		c0.1-0.2,0.1-0.2,0.3-0.2c0.2,0,0.4,0.1,0.6,0.1c0.6,0,0.9-0.1,1.1-0.7l0.2-0.7h-0.4c-0.4,0-0.5-0.1-0.7-0.5l-2-5.7
		c-0.1-0.2,0-0.2,0.2-0.2h1.5c0.3,0,0.3,0,0.4,0.2l0.7,2.6l0.6,2.2h0.1l0.7-2.3l0.8-2.5c0.1-0.2,0.1-0.3,0.4-0.3h1.5
		c0.1,0,0.2,0.1,0.1,0.2L137.1,38.8C137.1,38.9,137.1,38.8,137.1,38.8z M142.1,37.7h-1.4c-0.2,0-0.2,0-0.2-0.2v-6.3
		c0-0.2,0.1-0.2,0.2-0.2h1.4c0.2,0,0.2,0,0.2,0.2v2.2h0.6c0.4,0,0.8-0.1,1.1-0.9l0.5-1.4c0-0.1,0.1-0.2,0.2-0.2h1.4
		c0.2,0,0.2,0.1,0.2,0.2l-0.5,1.7c-0.1,0.5-0.4,1-0.9,1.2c0.6,0.1,1,0.6,1.1,1.2l0.7,2.2c0,0.1,0,0.2-0.2,0.2H145
		c-0.1,0-0.2-0.1-0.2-0.2l-0.6-2c-0.1-0.5-0.6-0.8-1.1-0.7h-0.7v2.6C142.3,37.7,142.3,37.7,142.1,37.7 M154.3,36.2l0.6,0.1
		c0.4,0,0.4,0.2,0.4,0.5l-0.1,2.7c0,0.1,0,0.1-0.1,0.1c0,0-0.1,0.1-0.1,0h-1.1c-0.2,0-0.2-0.1-0.2-0.2l-0.1-1.8h-4.7
		c-0.6,0-0.8-0.3-0.8-0.8v-5.7c0-0.2,0.1-0.2,0.3-0.2h1.3c0.2,0,0.3,0,0.3,0.2v5h2.4v-5c0-0.2,0.1-0.2,0.3-0.2h1.3
		c0.2,0,0.3,0,0.3,0.2C154.3,31.3,154.3,36.2,154.3,36.2z M157.1,31.3c0-0.2,0.1-0.2,0.2-0.2h1.4c0.2,0,0.2,0,0.2,0.2v3.9h0.1
		c0.7-1.1,0.8-1.3,1-1.6c0.3-0.5,0.7-1.1,1.3-2.1c0.1-0.3,0.5-0.5,0.8-0.4h0.6c0.5,0,0.7,0.2,0.7,0.7v5.8c0,0.2-0.1,0.2-0.2,0.2
		h-1.4c-0.2,0-0.2,0-0.2-0.2v-3.8h-0.1c-0.4,0.6-0.7,1.2-1.1,1.8c-0.4,0.6-0.8,1.2-1.2,1.8c-0.1,0.3-0.5,0.5-0.8,0.4h-0.6
		c-0.6,0-0.7-0.2-0.7-0.7C157.1,37,157.1,31.3,157.1,31.3z M164.8,31.3c0-0.2,0.1-0.2,0.2-0.2h1.4c0.2,0,0.2,0,0.2,0.2v3.9h0.1
		c0.7-1.1,0.8-1.3,1-1.6c0.3-0.5,0.7-1.1,1.3-2.1c0.1-0.3,0.5-0.5,0.8-0.4h0.6c0.5,0,0.7,0.2,0.7,0.7v5.8c0,0.2-0.1,0.2-0.2,0.2
		h-1.4c-0.2,0-0.2,0-0.2-0.2v-3.8h-0.1c-0.4,0.6-0.7,1.2-1.1,1.8c-0.4,0.6-0.8,1.2-1.2,1.8c-0.1,0.3-0.5,0.5-0.8,0.4h-0.6
		c-0.6,0-0.7-0.2-0.7-0.7L164.8,31.3L164.8,31.3z M177.7,31.3c0-0.2,0.1-0.2,0.2-0.2h1.4c0.2,0,0.2,0,0.2,0.2v3.9h0.1
		c0.7-1.1,0.8-1.3,1-1.6c0.3-0.5,0.7-1.1,1.3-2.1c0.1-0.3,0.5-0.5,0.8-0.4h0.6c0.5,0,0.7,0.2,0.7,0.7v5.8c0,0.2-0.1,0.2-0.2,0.2
		h-1.4c-0.2,0-0.2,0-0.2-0.2v-3.8h-0.1c-0.4,0.6-0.7,1.2-1.1,1.8c-0.4,0.6-0.8,1.2-1.2,1.8c-0.1,0.3-0.5,0.5-0.8,0.4h-0.6
		c-0.6,0-0.7-0.2-0.7-0.7C177.7,37,177.7,31.3,177.7,31.3z"/>
	<path class="st1" d="M190.8,40.5c0.2,0,0.3,0,0.3-0.2v-2.4c0.5,0.1,1,0.2,1.5,0.2c2.1,0,3-1.5,3-3.5s-0.8-3.5-3.3-3.5
		c-1,0-1.9,0.2-2.8,0.5c-0.2,0.1-0.3,0.2-0.3,0.4v8.3c0,0.2,0.1,0.2,0.3,0.2H190.8z M191.1,32.8c0.3-0.1,0.6-0.1,1-0.1l0,0
		c1,0,1.5,0.5,1.5,1.8c0,1.4-0.6,1.9-1.5,1.9c-0.4,0-0.7-0.1-1.1-0.1C191.1,36.3,191.1,32.8,191.1,32.8z M199.9,38
		c0.9,0,1.9-0.1,2.7-0.5l0,0c0.2-0.1,0.3-0.3,0.3-0.5v-3.7c0-1.5-0.9-2.3-2.7-2.3c-0.8,0-1.7,0.1-2.5,0.4c-0.1,0-0.2,0.1-0.1,0.3
		l0.2,0.9c0,0.2,0.1,0.2,0.3,0.2c0.6-0.1,1.2-0.2,1.8-0.2c1,0,1.1,0.4,1.1,0.9v0.2h-1.4c-1.8,0-2.7,1-2.7,2.3
		C196.9,37.1,197.6,38,199.9,38z M200,34.9h1l0,1.5c-0.3,0.1-0.7,0.2-1.1,0.2c-0.7,0-1.1-0.2-1.1-0.8C198.9,35,199.6,34.9,200,34.9z
		"/>
	<path class="st2" d="M205.6,32.9c-0.2,0.1-0.3,0-0.3-0.1l-0.3-0.9c-0.1-0.2-0.1-0.3,0.1-0.4c0.8-0.4,1.6-0.5,2.5-0.5
		c1.6,0,2.6,0.6,2.6,1.8c0,0.6-0.4,1.2-1,1.5v0.1c0.7,0.2,1.2,0.8,1.2,1.5c0,1.4-1.4,2.1-3,2.1c-0.9,0-1.8-0.1-2.6-0.4
		c-0.2-0.1-0.2-0.2-0.1-0.3l0.3-0.9c0.1-0.1,0.1-0.2,0.3-0.1c0.6,0.2,1.2,0.3,1.8,0.3c1,0,1.3-0.4,1.3-0.8c0-0.4-0.4-0.7-1.5-0.7
		c-0.3,0-0.5-0.1-0.5-0.4v-0.4c0-0.3,0.2-0.4,0.5-0.4c0.8-0.1,1.2-0.3,1.2-0.7c0-0.4-0.5-0.6-1.1-0.6
		C206.7,32.6,206.2,32.7,205.6,32.9"/>
	<path class="st1" d="M217.5,34.1c0.7,0.2,1.1,0.9,1.1,1.6c0,1.2-1.1,2.1-2.5,2.1h-3c-0.6,0-0.8-0.2-0.8-0.6v-5.3
		c0-0.4,0.1-0.7,0.7-0.7h3c1.2,0,2.2,0.4,2.2,1.7C218.3,33.3,218,33.8,217.5,34.1C217.5,34,217.5,34.1,217.5,34.1z M214.2,33.6h1.6
		c0.3,0,0.6-0.2,0.6-0.5c0,0,0,0,0-0.1c0-0.3-0.2-0.5-0.5-0.5c0,0,0,0,0,0h-1.6C214.2,32.5,214.2,33.6,214.2,33.6z M214.2,34.8h1.6
		c0.2,0,0.4,0,0.6,0.2c0.2,0.1,0.2,0.3,0.2,0.6c0,0.2-0.1,0.4-0.2,0.6c-0.2,0.1-0.4,0.2-0.6,0.2h-1.6L214.2,34.8L214.2,34.8z"/>
	<path class="st2" d="M220.1,31.3c0-0.2,0.1-0.2,0.2-0.2h1.4c0.2,0,0.2,0,0.2,0.2v3.9h0.1c0.7-1.1,0.8-1.3,1-1.6
		c0.3-0.5,0.7-1.1,1.3-2.1c0.1-0.3,0.5-0.5,0.8-0.4h0.6c0.5,0,0.7,0.2,0.7,0.7v5.8c0,0.2-0.1,0.2-0.2,0.2h-1.4c-0.2,0-0.2,0-0.2-0.2
		v-3.8h0c-0.4,0.6-0.7,1.2-1.1,1.8c-0.4,0.6-0.8,1.2-1.2,1.8c-0.1,0.3-0.5,0.5-0.8,0.4h-0.6c-0.6,0-0.7-0.2-0.7-0.7L220.1,31.3
		L220.1,31.3z M231.7,32.6v4.9c0,0.2-0.1,0.3-0.3,0.3h-1.3c-0.2,0-0.3-0.1-0.3-0.3v-4.9H228c-0.2,0-0.3-0.1-0.3-0.3v-0.9
		c0-0.2,0-0.3,0.3-0.3h5.6c0.2,0,0.3,0.1,0.3,0.3v0.9c0,0.2-0.1,0.3-0.3,0.3C233.6,32.6,231.7,32.6,231.7,32.6z M235.5,31.3
		c0-0.2,0.1-0.2,0.2-0.2h1.4c0.2,0,0.2,0,0.2,0.2v3.9h0.1c0.7-1.1,0.8-1.3,1-1.6c0.3-0.5,0.7-1.1,1.3-2.1c0.1-0.3,0.5-0.5,0.8-0.4
		h0.6c0.5,0,0.7,0.2,0.7,0.7v5.8c0,0.2-0.1,0.2-0.2,0.2h-1.4c-0.2,0-0.2,0-0.2-0.2v-3.8h-0.1c-0.4,0.6-0.7,1.2-1.1,1.8
		c-0.4,0.6-0.8,1.2-1.2,1.8c-0.1,0.3-0.5,0.5-0.8,0.4h-0.6c-0.6,0-0.7-0.2-0.7-0.7L235.5,31.3L235.5,31.3z"/>
	<path class="st1" d="M246.7,35.2h1l0,2.3c0,0.2,0,0.2,0.3,0.2h1.3c0.2,0,0.3-0.1,0.3-0.2v-6c0-0.3-0.3-0.5-0.7-0.5h-2.9
		c-1.5,0-2.3,0.9-2.3,2c-0.1,0.8,0.4,1.5,1.2,1.7c-0.5,0.1-0.9,0.5-1,1c-0.2,0.6-0.4,1.2-0.6,1.7c0,0,0,0,0,0.1v0
		c0,0.1,0,0.1,0.2,0.1h1.3c0.2,0,0.4,0,0.4-0.3l0.2-0.5c0.1-0.3,0.2-0.7,0.3-1C245.7,35.3,246.1,35.2,246.7,35.2L246.7,35.2z
		 M247.7,34h-1.3l0,0c-0.6,0-0.9-0.3-0.9-0.7c0-0.4,0.4-0.8,0.8-0.8c0,0,0.1,0,0.1,0h1.4L247.7,34L247.7,34z"/>
	<path class="st2" d="M85,6.7c0.3,0,0.4,0.2,0.3,0.4l-4.6,12.5c-0.8,2.2-2,3-4.3,3c-0.7,0-1.4-0.1-2.1-0.3c-0.4-0.1-0.5-0.2-0.4-0.5
		l0.4-1.8c0.1-0.3,0.2-0.3,0.5-0.2c0.4,0.1,0.8,0.1,1.2,0.1c1,0,1.5-0.1,1.8-1.1l0.4-1h-0.6c-0.7,0-0.9-0.2-1.2-0.9l-3.9-9.6
		c-0.1-0.3,0-0.4,0.3-0.4h2.6c0.5,0,0.6,0.1,0.7,0.4l1.6,4.5l1.2,3.6h0.2l1.2-3.8l1.4-4.3c0.1-0.4,0.2-0.5,0.7-0.5L85,6.7L85,6.7z"
		/>
	<path class="st1" d="M89.3,26.8c0.4,0,0.5,0,0.5-0.4l0-4.2c0.8,0.2,1.7,0.3,2.5,0.3c3.6,0,5.2-2.6,5.2-6c0-3.4-1.4-6-5.6-6
		c-1.7,0-3.3,0.3-4.9,0.9c-0.3,0.1-0.5,0.4-0.4,0.7v14.3c0,0.3,0.1,0.4,0.5,0.4C87,26.8,89.3,26.8,89.3,26.8z M89.7,13.5
		c0.5-0.2,1.1-0.2,1.7-0.2l0,0c1.7,0,2.7,0.8,2.7,3.2s-1,3.3-2.5,3.3c-0.6,0-1.2-0.1-1.8-0.2V13.5L89.7,13.5z M104.5,22.6
		c1.6,0,3.2-0.2,4.7-0.8l0,0c0.3-0.1,0.5-0.5,0.5-0.9v-6.4c0-2.7-1.5-4-4.7-4c-1.4,0-2.9,0.2-4.3,0.7c-0.2,0.1-0.3,0.2-0.2,0.5
		l0.4,1.5c0,0.3,0.2,0.4,0.5,0.3c1-0.3,2.1-0.4,3.1-0.4c1.6,0,1.9,0.8,1.9,1.6V15H104c-3.2,0-4.7,1.7-4.7,3.9
		C99.3,21,100.5,22.6,104.5,22.6z M104.7,17.1h1.8l0,2.7c-0.6,0.2-1.2,0.3-1.8,0.3c-1.2,0-1.9-0.4-1.9-1.4
		C102.7,17.3,103.9,17.1,104.7,17.1z"/>
	<path class="st2" d="M122.4,10.5c1.1,0,1.3,0.4,1.3,1.3v9.8c0,0.4-0.1,0.4-0.5,0.4H121c-0.4,0-0.5-0.1-0.5-0.4v-8.5h-2.7l-0.1,1.1
		c-0.3,5.1-0.7,7.2-4.2,8.3c-0.4,0.1-0.5,0-0.7-0.3l-0.6-1.5c-0.1-0.4-0.1-0.5,0.2-0.7c1.6-0.7,1.9-1.4,2.2-5.9l0.2-2.4
		c0-1,0.4-1.3,1.4-1.3L122.4,10.5z"/>
	<path class="st1" d="M126.3,20.8c0,0.8,0.2,1.3,1.4,1.3l4.9,0c2.5,0,4.4-1.7,4.4-4c0-1.2-0.4-4-4.7-4h-2.7v-3.2
		c0-0.4-0.1-0.4-0.5-0.4h-2.2c-0.3,0-0.5,0.1-0.5,0.4L126.3,20.8L126.3,20.8z M129.5,16.6h2.6c0.4,0,0.8,0.1,1.1,0.4
		c0.3,0.3,0.5,0.7,0.4,1.1c0,0.4-0.1,0.8-0.4,1.1c-0.3,0.3-0.7,0.4-1.2,0.4h-2.6L129.5,16.6L129.5,16.6z"/>
	<path class="st2" d="M147.6,19.2c0.4-0.1,0.5-0.1,0.6,0.2l0.6,1.6c0.1,0.3,0.2,0.4-0.2,0.6c-1.3,0.6-2.7,0.9-4.1,0.9
		c-3.5,0-5.3-2-5.3-6c0-3.8,2.1-6.1,5.5-6.1c1.2,0,2.4,0.2,3.5,0.7c0.4,0.2,0.4,0.3,0.2,0.6l-0.6,1.7c-0.1,0.3-0.3,0.3-0.7,0.2
		c-0.7-0.2-1.4-0.4-2.2-0.4c-1.8,0-2.4,1.5-2.4,3.2c0,1.7,0.5,3.1,2.5,3.1C145.9,19.7,146.7,19.5,147.6,19.2 M153.5,22h-2.4
		c-0.3,0-0.4,0-0.4-0.4V10.9c0-0.3,0.1-0.3,0.4-0.3h2.4c0.3,0,0.4,0,0.4,0.3v3.8h1.1c0.8,0,1.4-0.2,1.8-1.5l0.7-2.4
		c0-0.2,0.2-0.3,0.4-0.3h2.5c0.3,0,0.3,0.2,0.3,0.4l-0.8,2.9c-0.2,0.9-0.8,1.7-1.6,2v0c1.3,0.3,1.6,1.1,1.9,2l1.1,3.8
		c0,0.1,0.1,0.4-0.3,0.4h-2.6c-0.2,0-0.3-0.1-0.4-0.3l-1.1-3.4c-0.2-0.8-1-1.4-1.9-1.3h-1.3v4.5C153.9,22,153.8,22.1,153.5,22
		 M163.6,10.9c0-0.3,0.1-0.3,0.4-0.3h2.4c0.4,0,0.4,0.1,0.4,0.3v6.7h0.1c1.2-1.9,1.4-2.2,1.7-2.8c0.5-0.9,1.2-2,2.2-3.5
		c0.3-0.5,0.8-0.8,1.4-0.7h1.1c0.8,0,1.2,0.3,1.2,1.2v9.9c0,0.3-0.1,0.4-0.4,0.4h-2.4c-0.3,0-0.4,0-0.4-0.4v-6.6h-0.1
		c-0.7,1-1.3,2-1.9,3s-1.4,2.1-2.1,3.2c-0.2,0.5-0.8,0.8-1.4,0.7h-1.1c-1,0-1.2-0.4-1.2-1.2C163.5,20.8,163.6,10.9,163.6,10.9z"/>
	<path class="st1" d="M179,6.8L179,6.8L179,6.8c0.9,1.3,2.4,2.6,4.1,2.6c1.6,0,3-0.8,4.4-2.6l0,0c0.1-0.1,0.2-0.3-0.1-0.5l-0.8-0.7
		l0,0c-0.2-0.1-0.2-0.2-0.5,0.1c-1.4,1.3-2.1,1.5-2.8,1.5c-0.9,0-1.8-0.5-2.8-1.5c0,0,0,0-0.1-0.1c-0.1-0.1-0.2-0.2-0.5,0l-0.9,0.8
		C178.8,6.6,178.9,6.7,179,6.8L179,6.8z M178.1,10.4c-0.3,0-0.4,0.1-0.4,0.4l-0.1,9.9c0,0.8,0.2,1.2,1.2,1.2h1.1
		c0.6,0.1,1.1-0.2,1.4-0.7c0.5-0.7,0.9-1.4,1.4-2.1l0.7-1.1c0.3-0.5,0.6-1,0.9-1.5c0.3-0.5,0.6-1.1,1-1.6h0.1v6.6
		c0,0.3,0.1,0.4,0.4,0.4h2.4c0.3,0,0.4-0.1,0.4-0.4v-9.9c0-1-0.4-1.2-1.2-1.2h-1.1c-0.6-0.1-1.1,0.2-1.4,0.7
		c-0.7,1.2-1.5,2.4-2.2,3.5c-0.3,0.4-0.5,0.7-1,1.6l-0.8,1.2h-0.1v-6.7c0-0.3-0.1-0.4-0.4-0.4H178.1L178.1,10.4z M196.9,8.2v12.6
		c0,0.9,0.3,1.3,1.3,1.3h5.6c3,0,5.3-2,5.3-4.8c0-1.5-0.4-5-5.6-5h-3.2V9.5h6.7c0.3,0,0.4-0.1,0.4-0.4v-2c0-0.4-0.1-0.5-0.4-0.5
		h-8.7C197.3,6.7,196.9,7.1,196.9,8.2z M200.3,15h3.2v0c0.6-0.1,1.1,0.1,1.5,0.5c0.4,0.4,0.6,0.9,0.6,1.5c0,0.6-0.2,1.1-0.6,1.5
		c-0.4,0.4-1,0.6-1.6,0.6h-3.2C200.3,19.1,200.3,15,200.3,15z M216.2,22.6c1.6,0,3.2-0.2,4.7-0.8l0,0c0.3-0.1,0.5-0.5,0.5-0.9v-6.4
		c0-2.7-1.5-4-4.7-4c-1.4,0-2.9,0.2-4.3,0.7c-0.2,0.1-0.3,0.2-0.2,0.5l0.4,1.5c0,0.3,0.2,0.4,0.5,0.3c1-0.3,2.1-0.4,3.1-0.4
		c1.6,0,1.9,0.8,1.9,1.6V15h-2.4c-3.2,0-4.7,1.7-4.7,3.9C211.1,21,212.2,22.6,216.2,22.6L216.2,22.6z M216.4,17.1h1.8l0,2.7
		c-0.6,0.2-1.2,0.3-1.8,0.3c-1.2,0-1.9-0.4-1.9-1.4C214.4,17.3,215.6,17.1,216.4,17.1z"/>
	<path class="st2" d="M227.9,22h-2.2c-0.3,0-0.5-0.1-0.5-0.4V10.9c0-0.3,0.2-0.4,0.5-0.4h2.2c0.4,0,0.5,0.1,0.5,0.4v3.8h4.2v-3.8
		c0-0.3,0.1-0.4,0.5-0.4h2.2c0.4,0,0.5,0.1,0.5,0.4v10.7c0,0.4-0.1,0.4-0.5,0.4h-2.2c-0.4,0-0.5-0.1-0.5-0.4v-4.4h-4.2v4.4
		C228.4,22,228.3,22,227.9,22L227.9,22z M240.8,22.1h-2.4c-0.3,0-0.4,0-0.4-0.4V10.9c0-0.3,0.1-0.3,0.4-0.3h2.4c0.3,0,0.4,0,0.4,0.3
		v3.8h1.1c0.8,0,1.4-0.2,1.8-1.5l0.8-2.4c0-0.2,0.2-0.3,0.4-0.3h2.5c0.3,0,0.3,0.2,0.3,0.4l-0.8,2.9c-0.2,0.9-0.8,1.7-1.6,2v0
		c1.3,0.3,1.6,1.1,1.9,2l1.1,3.8c0,0.1,0.1,0.4-0.3,0.4h-2.6c-0.2,0-0.3-0.1-0.4-0.3l-1.1-3.4c-0.2-0.8-1-1.4-1.9-1.3h-1.3v4.5
		C241.2,22,241.1,22.1,240.8,22.1"/>
</g>
</svg>
