<svg width="113" height="39" fill="none" xmlns="http://www.w3.org/2000/svg"><g clip-path="url(#clip0)"><path d="M44.19 4.185h24.628v.862c-1.215 0-2.021.17-2.419.51-.398.34-.597 1.031-.597 2.073v16.077c0 1.02.199 1.707.597 2.057.398.351 1.204.527 2.419.527v.861H57.446v-.861c1.215 0 2.02-.17 2.42-.51.397-.34.596-1.032.596-2.074V5.685h-7.917v18.022c0 1.02.2 1.707.597 2.057.398.351 1.204.527 2.42.527v.861H44.188v-.861c1.215 0 2.021-.17 2.42-.51.397-.34.596-1.032.596-2.074V7.63c0-1.02-.2-1.706-.597-2.057-.398-.351-1.204-.526-2.419-.526v-.862zm34.246 19.522V5.397h-.346c-1.738 0-3.125.495-4.162 1.484-1.037.988-1.639 2.408-1.806 4.258h-.817V4.185h19.602v6.954h-.816c-.335-3.828-2.336-5.742-6-5.742h-.315v18.31c0 1.02.2 1.707.597 2.057.398.351 1.205.527 2.42.527v.861H75.42v-.861c1.215 0 2.02-.17 2.42-.51.397-.34.596-1.032.596-2.074zm14.71-19.522h17.906v6.954h-.816c-.168-1.701-.775-3.036-1.823-4.003-1.046-.968-2.324-1.451-3.832-1.451h-3.078V14.2c.628-.106 1.612-.16 2.953-.16 3.079 0 5.35.756 6.817 2.266 1.151 1.17 1.727 2.626 1.727 4.37 0 2.169-.748 3.79-2.245 4.864-1.498 1.074-3.87 1.611-7.116 1.611H93.146v-.861c1.215 0 2.021-.17 2.42-.51.397-.34.596-1.032.596-2.074V7.63c0-1.02-.199-1.706-.597-2.057-.398-.351-1.204-.526-2.419-.526v-.862zm8.357 11.547v7.688c0 .616.094 1.095.282 1.435.294.532.838.798 1.633.798 1.048 0 1.948-.32 2.702-.957 1.027-.872 1.54-2.19 1.54-3.956 0-1.892-.565-3.274-1.696-4.146-.838-.638-1.907-.957-3.205-.957l-1.256.095z" fill="#164194"/><path fill-rule="evenodd" clip-rule="evenodd" d="M14.62.65c8.074 0 14.621 6.648 14.621 14.846 0 8.196-6.547 14.845-14.62 14.845S0 23.692 0 15.496C0 7.298 6.548.65 14.62.65zm9.15 26.424h8.768l1.8-4.708h-6.756a14.866 14.866 0 01-3.813 4.708zm5.272-9.13h6.986l1.8-4.706h-8.754a15.296 15.296 0 01-.032 4.707zM27.68 8.818h11.838l1.8-4.707h-17.32a14.86 14.86 0 013.682 4.707zM9.447 27.074h14.322a14.866 14.866 0 003.814-4.708H11.247l-1.801 4.708zM23.999 4.11a14.86 14.86 0 013.681 4.707H16.428l1.799-4.707h5.772zm5.075 9.128a15.296 15.296 0 01-.032 4.707H12.937l1.8-4.707h14.337z" fill="#EC6608"/><path d="M1.283 33.51h5.385v.188c-.266 0-.442.037-.529.111-.087.075-.13.226-.13.454v3.515c0 .223.043.373.13.45.087.076.263.115.529.115v.188H4.18v-.188c.266 0 .442-.037.53-.112.086-.074.13-.225.13-.453v-3.94H3.11v3.94c0 .223.043.373.13.45.087.076.264.115.53.115v.188H1.282v-.188c.265 0 .442-.037.529-.112.087-.074.13-.225.13-.453v-3.515c0-.224-.043-.374-.13-.45-.087-.077-.264-.115-.53-.115v-.188zM12.473 36h.213c.352 0 .603-.085.752-.255.148-.17.223-.452.223-.848 0-.4-.062-.687-.185-.86-.124-.175-.335-.262-.632-.262-.156 0-.257.028-.303.083-.046.056-.069.19-.069.405v1.736zm-1.827-2.302v-.188h2.273c.618 0 1.09.088 1.415.265.403.218.604.583.604 1.095 0 .428-.156.767-.47 1.018-.314.25-.761.377-1.343.377h-.652v1.513c0 .223.043.373.13.45.087.076.263.115.529.115v.188h-2.486v-.188c.265 0 .441-.037.528-.112.088-.074.13-.225.13-.453v-3.515c0-.224-.043-.374-.13-.45-.086-.077-.263-.115-.528-.115zm12.151 2.322c0-.762-.116-1.346-.347-1.75-.23-.405-.55-.607-.958-.607-.838 0-1.257.786-1.257 2.357 0 .763.114 1.348.344 1.755.229.406.546.61.954.61.843 0 1.264-.788 1.264-2.365zm-3.84 0c0-.744.246-1.367.735-1.869.49-.502 1.106-.753 1.848-.753.728 0 1.333.247 1.814.74.48.492.72 1.12.72 1.882 0 .75-.244 1.375-.734 1.877s-1.106.753-1.848.753c-.723 0-1.327-.25-1.81-.75-.483-.5-.724-1.126-.724-1.88zm8.986-2.51h1.846l1.436 3.45 1.436-3.45h1.869v.188c-.266 0-.442.037-.53.111-.086.075-.13.226-.13.454v3.515c0 .223.044.373.13.45.088.076.264.115.53.115v.188h-2.466v-.188c.265 0 .442-.037.529-.112.087-.074.13-.225.13-.453V34.13l-1.813 4.401h-.192l-1.786-4.29v3.537c0 .247.039.402.117.467.077.065.258.098.542.098v.188h-1.648v-.188c.265 0 .441-.037.528-.112.087-.074.13-.225.13-.453v-3.515c0-.224-.043-.374-.13-.45-.087-.077-.263-.115-.528-.115v-.188zm12.062 4.268v-4.003h-.076c-.38 0-.683.108-.91.324-.227.216-.358.527-.395.931h-.178v-1.52h4.286v1.52h-.179c-.073-.837-.51-1.255-1.312-1.255h-.069v4.003c0 .223.044.373.131.45.087.076.263.115.529.115v.188h-2.486v-.188c.265 0 .441-.037.528-.112.087-.074.131-.225.131-.453zm8.47-1.779h.213c.352 0 .603-.084.752-.254.149-.17.223-.452.223-.848 0-.4-.062-.687-.186-.86-.123-.175-.334-.262-.631-.262-.156 0-.257.028-.302.083-.046.056-.07.19-.07.405v1.736zm-1.828-2.301v-.188h2.274c.618 0 1.09.088 1.415.265.403.218.605.583.605 1.095 0 .428-.157.767-.47 1.018-.314.25-.762.377-1.344.377h-.652v1.513c0 .223.043.373.13.45.087.076.264.115.53.115v.188h-2.487v-.188c.265 0 .441-.037.529-.112.087-.074.13-.225.13-.453v-3.515c0-.224-.044-.374-.13-.45-.088-.077-.264-.115-.53-.115zm8.947 3.062h1.392l-.708-1.75-.684 1.75zm1.007-3.376h.2l1.73 4.192c.092.228.163.383.214.467.114.2.258.3.432.3v.188h-2.328v-.188c.393 0 .59-.107.59-.32 0-.066-.038-.196-.117-.392l-.22-.565H55.49l-.22.545c-.032.079-.056.15-.072.212a.698.698 0 00-.025.171c0 .233.177.35.53.35h.047v.188h-1.483v-.189a.471.471 0 00.35-.14c.091-.093.181-.253.268-.48l1.717-4.339zm8.244 2.713v1.681c0 .223.043.373.13.45.087.076.263.115.53.115v.188h-2.488v-.188c.266 0 .442-.037.53-.112.086-.074.13-.225.13-.453v-3.515c0-.224-.044-.374-.13-.45-.088-.077-.264-.115-.53-.115v-.188h2.487v.188c-.266 0-.442.037-.529.111-.087.075-.13.226-.13.454v1.506h1.73v-1.506c0-.224-.043-.374-.13-.45-.087-.077-.263-.115-.53-.115v-.188h2.488v.188c-.266 0-.442.037-.529.111-.088.075-.13.226-.13.454v3.515c0 .223.042.373.13.45.087.076.263.115.529.115v.188h-2.487v-.188c.266 0 .442-.037.53-.112.086-.074.13-.225.13-.453v-1.681h-1.731zm11.876-2.7v1.73h-.178c-.16-.446-.387-.802-.68-1.066a1.445 1.445 0 00-.996-.398c-.88 0-1.32.79-1.32 2.371 0 1.493.487 2.24 1.457 2.24.298 0 .589-.078.872-.234.284-.156.539-.383.763-.68l.199.195a2.52 2.52 0 01-.9.816 2.47 2.47 0 01-1.167.279c-.724 0-1.321-.244-1.793-.733-.472-.488-.707-1.123-.707-1.904 0-.762.234-1.389.703-1.88.47-.49 1.077-.735 1.824-.735.238 0 .472.037.7.111.23.075.46.15.694.224.175 0 .289-.112.344-.335h.185zm4.033.113h3.915v1.52h-.178c-.037-.372-.17-.664-.399-.875a1.19 1.19 0 00-.838-.318h-.673V35.7c.138-.023.353-.034.647-.034.672 0 1.168.165 1.49.495.251.256.377.574.377.955 0 .475-.164.83-.491 1.064-.327.235-.846.352-1.555.352h-2.295v-.188c.266 0 .442-.037.53-.112.086-.074.13-.225.13-.453v-3.515c0-.224-.044-.374-.13-.45-.088-.077-.264-.115-.53-.115v-.188zm1.827 2.524v1.681c0 .135.021.24.062.314.064.116.184.175.357.175.23 0 .426-.07.59-.21.225-.19.338-.479.338-.865 0-.413-.124-.716-.371-.906-.184-.14-.417-.21-.7-.21l-.276.021zm7.648.726h1.392l-.707-1.75-.685 1.75zm1.008-3.376h.2l1.73 4.192c.091.228.162.383.212.467.115.2.259.3.434.3v.188h-2.33v-.188c.395 0 .592-.107.592-.32 0-.066-.04-.196-.117-.392l-.22-.565h-1.614l-.22.545c-.032.079-.056.15-.072.212a.7.7 0 00-.024.171c0 .233.176.35.529.35h.048v.188H88.9v-.189a.47.47 0 00.35-.14c.092-.093.182-.253.268-.48l1.718-4.339zm8.243 2.713v1.681c0 .223.043.373.13.45.087.076.264.115.529.115v.188h-2.486v-.188c.265 0 .442-.037.529-.112.087-.074.13-.225.13-.453v-3.515c0-.224-.043-.374-.13-.45-.087-.077-.264-.115-.529-.115v-.188h2.486v.188c-.265 0-.442.037-.528.111-.088.075-.13.226-.13.454v1.506h1.73v-1.506c0-.224-.044-.374-.13-.45-.088-.077-.264-.115-.529-.115v-.188h2.486v.188c-.266 0-.442.037-.529.111-.087.075-.13.226-.13.454v3.515c0 .223.043.373.13.45.087.076.263.115.529.115v.188h-2.486v-.188c.265 0 .441-.037.529-.112.086-.074.13-.225.13-.453v-1.681h-1.73zm9.363-.147l1.504-1.534c.096-.098.171-.191.223-.282a.474.474 0 00.079-.22c0-.144-.21-.216-.632-.216v-.188h2.116v.188h-.096c-.407 0-.884.283-1.429.85l-.814.841 2.098 2.633a.97.97 0 00.265.248.681.681 0 00.34.073v.188h-2.59v-.188c.216 0 .366-.013.45-.039.085-.025.127-.075.127-.15 0-.079-.061-.195-.185-.348l-1.271-1.632-.185.174v1.43c0 .223.043.373.13.45.087.076.263.115.528.115v.188h-2.486v-.188c.266 0 .443-.037.529-.112.087-.074.131-.225.131-.453v-3.515c0-.224-.044-.374-.131-.45-.086-.077-.263-.115-.529-.115v-.188h2.486v.188c-.265 0-.441.037-.528.111-.087.075-.13.226-.13.454v1.688z" fill="#164194"/></g><defs><clipPath id="clip0"><path fill="#fff" transform="translate(0 .65)" d="M0 0h113v38H0z"/></clipPath></defs></svg>