<svg width="40" height="40" viewBox="0 0 40 40" fill="none" xmlns="http://www.w3.org/2000/svg">
<path fill-rule="evenodd" clip-rule="evenodd" d="M16.5 35.5C9.34682 33.9156 4 27.5776 4 20C4 12.4224 9.34682 6.08436 16.5 4.5V6.79825C10.6013 8.33478 6.25 13.663 6.25 20C6.25 26.337 10.6013 31.6652 16.5 33.2017V35.5ZM23.5 4.5C30.6532 6.08436 36 12.4224 36 20C36 27.5776 30.6532 33.9156 23.5 35.5V33.2017C29.3987 31.6652 33.75 26.337 33.75 20C33.75 13.663 29.3987 8.33478 23.5 6.79825V4.5ZM15.25 24.6164C12.2657 24.089 10 21.5006 10 18.387C10 14.8923 12.8542 12.0593 16.375 12.0593C16.7589 12.0593 17.1348 12.093 17.5 12.1575V22.3272C18.5186 22.0412 19.3771 21.3766 19.9113 20.4962L22.3873 20.4962C21.6331 22.6139 19.7754 24.2142 17.5 24.6164V27.6923H15.25V24.6164ZM15.25 22.3272V14.4467C13.5186 14.9328 12.25 16.5128 12.25 18.3869C12.25 20.2611 13.5186 21.8411 15.25 22.3272Z" fill="#0D5740"/>
<path opacity="0.639509" fill-rule="evenodd" clip-rule="evenodd" d="M21.7297 14.9519C22.6789 13.7668 24.1054 12.9218 25.75 12.6538H28V27.7905H25.75V14.7642C24.0186 15.2123 22.75 16.6689 22.75 18.3967C22.75 18.4349 22.7506 18.473 22.7519 18.511H20.4981C20.4994 18.4698 20.5 18.4285 20.5 18.387C20.5 16.5128 19.2314 14.9328 17.5 14.4467V12.1575C19.2705 12.4704 20.7881 13.5088 21.7297 14.9519Z" fill="#43AC34"/>
</svg>
