<svg width="171" height="72" viewBox="0 0 171 72" fill="none" xmlns="http://www.w3.org/2000/svg">
<g clip-path="url(#clip0)">
<path d="M71.1376 14.7819L57.2474 56.3492H65.1847L66.7483 51.694C66.8236 51.3673 67.0146 51.0789 67.2859 50.8819C67.5573 50.685 67.8907 50.5928 68.2246 50.6225H80.8885C81.2226 50.592 81.5565 50.6838 81.828 50.8809C82.0995 51.0779 82.2903 51.3669 82.3648 51.694L83.9523 56.3492H91.8895L77.9993 14.7819H71.1376ZM78.3883 43.3559H70.7368C69.9431 43.3559 69.4827 42.8638 69.7526 42.0582L73.7768 29.9777C74.1339 28.9062 75.0308 28.9062 75.388 29.9777L79.3566 42.0582C79.6225 42.9075 79.178 43.3559 78.3724 43.3559" fill="black"/>
<path d="M117.043 39.3913C117.043 40.824 116.015 41.0899 115.344 39.7881L102.593 14.7858H92.8816V56.3492H100.553V31.7437C100.553 30.3111 101.581 30.0452 102.252 31.3469L115.451 56.3492H124.714V14.7819H117.062L117.043 39.3913Z" fill="black"/>
<path d="M39.2377 47.6222V14.7819H31.5862V56.3492H56.152V49.1065H40.714C40.5187 49.1119 40.3242 49.0775 40.1427 49.0052C39.9611 48.933 39.7961 48.8244 39.6579 48.6863C39.5197 48.5481 39.4112 48.3831 39.3389 48.2015C39.2667 48.0199 39.2322 47.8255 39.2377 47.6301" fill="black"/>
<path d="M23.2204 34.5575C24.5428 33.6148 25.6136 32.3619 26.3387 30.9088C27.0639 29.4557 27.4213 27.8468 27.3795 26.2233C27.3795 19.4767 22.9505 14.7699 15.7951 14.7699H0V56.3491H16.5968C23.2641 56.3491 28.2328 51.2455 28.2328 44.2687C28.2644 42.3619 27.8231 40.477 26.9485 38.7824C26.0738 37.0878 24.793 35.6362 23.2204 34.5575V34.5575ZM7.65149 22.7032C7.63812 22.5589 7.65664 22.4135 7.7057 22.2772C7.75477 22.141 7.83319 22.0171 7.93543 21.9145C8.03766 21.8119 8.16121 21.733 8.29731 21.6834C8.43342 21.6339 8.57874 21.6148 8.72302 21.6277H14.3624C17.2238 21.6277 19.2399 23.866 19.2399 26.6837C19.2399 29.5014 17.2238 31.7397 14.3624 31.7397H8.72302C8.57706 31.744 8.43183 31.7176 8.29671 31.6622C8.16158 31.6068 8.03957 31.5237 7.93858 31.4182C7.83759 31.3128 7.75985 31.1873 7.7104 31.0499C7.66095 30.9125 7.64088 30.7662 7.65149 30.6206V22.7032ZM14.4974 49.412H8.81432C8.66027 49.417 8.50684 49.3903 8.36351 49.3336C8.22019 49.2769 8.09002 49.1914 7.98104 49.0825C7.87206 48.9735 7.78658 48.8433 7.7299 48.7C7.67322 48.5567 7.64653 48.4032 7.65149 48.2492V39.7921C7.64439 39.6362 7.6694 39.4805 7.72496 39.3347C7.78052 39.1889 7.86544 39.056 7.97447 38.9444C8.08351 38.8327 8.21432 38.7447 8.35879 38.6857C8.50326 38.6267 8.65831 38.5981 8.81432 38.6015H14.4974C17.8509 38.6015 19.9542 40.9271 19.9542 43.971C19.9542 47.0149 17.8509 49.4279 14.4974 49.4279" fill="black"/>
<path d="M163.325 35.5655C163.325 38.3127 162.51 40.9982 160.984 43.2825C159.458 45.5667 157.288 47.347 154.75 48.3983C152.212 49.4496 149.419 49.7247 146.725 49.1888C144.03 48.6528 141.555 47.3299 139.613 45.3873C137.67 43.4447 136.347 40.9698 135.811 38.2753C135.275 35.5809 135.55 32.788 136.602 30.2499C137.653 27.7119 139.433 25.5425 141.718 24.0162C144.002 22.49 146.687 21.6753 149.435 21.6753V21.6753V14C145.169 14 141 15.2648 137.453 17.6344C133.907 20.0041 131.143 23.3722 129.511 27.3127C127.878 31.2533 127.451 35.5894 128.283 39.7727C129.116 43.956 131.169 47.7986 134.185 50.8146C137.201 53.8306 141.044 55.8845 145.227 56.7166C149.411 57.5487 153.747 57.1216 157.687 55.4894C161.628 53.8572 164.996 51.0931 167.366 47.5466C169.735 44.0002 171 39.8307 171 35.5655H163.325Z" fill="black"/>
</g>
<defs>
<clipPath id="clip0">
<rect width="171" height="43.131" fill="white" transform="translate(0 14)"/>
</clipPath>
</defs>
</svg>
