<?xml version="1.0" encoding="utf-8"?>
<!-- Generator: Adobe Illustrator 24.0.1, SVG Export Plug-In . SVG Version: 6.00 Build 0)  -->
<svg version="1.1" id="HSBC_MASTERBRAND_LOGO_WW_RGB"
	 xmlns="http://www.w3.org/2000/svg" xmlns:xlink="http://www.w3.org/1999/xlink" x="0px" y="0px" width="250px" height="68px"
	 viewBox="0 0 250 68" style="enable-background:new 0 0 250 68;" xml:space="preserve">
<style type="text/css">
	.st0{fill:#FFFFFF;}
	.st1{fill:#DB0011;}
</style>
<g>
	<rect x="33.7" y="0.3" class="st0" width="67.3" height="67.3"/>
	<polygon class="st1" points="134.6,34 101,0.3 101,67.7 	"/>
	<polygon class="st1" points="67.3,34 101,0.3 33.7,0.3 	"/>
	<polygon class="st1" points="0,34 33.7,67.7 33.7,0.3 	"/>
	<polygon class="st1" points="67.3,34 33.7,67.7 101,67.7 	"/>
	<path d="M164.1,36h-12.2v12h-6.1V19.9h6.1v11.6h12.2V19.9h6.1V48h-6.1V36z"/>
	<path d="M184.9,48.6c-6.1,0-11.1-2.5-11.2-9.2h6.1c0.1,3,1.8,4.8,5.1,4.8c2.5,0,5.3-1.3,5.3-4c0-2.2-1.9-2.8-5.1-3.8l-2.1-0.6
		c-4.4-1.3-8.9-3-8.9-8.1c0-6.3,5.9-8.4,11.2-8.4c5.5,0,10.2,1.9,10.3,8.2h-6.1c-0.2-2.5-1.7-4-4.6-4c-2.3,0-4.5,1.2-4.5,3.7
		c0,2.1,1.9,2.7,5.9,4l2.4,0.7c4.8,1.5,7.9,3.2,7.9,7.9C196.7,46.1,190.5,48.6,184.9,48.6z"/>
	<path d="M200.1,20h9.8c1.8-0.1,3.7,0,5.5,0.3c3.4,0.8,6,3,6,6.8c0,3.6-2.3,5.5-5.6,6.3c3.8,0.7,6.6,2.6,6.6,6.8
		c0,6.4-6.3,7.8-11.2,7.8h-11.1L200.1,20z M210,31.7c2.7,0,5.5-0.6,5.5-3.8c0-2.9-2.5-3.7-5.1-3.7h-4.3v7.5H210z M210.5,43.9
		c2.8,0,5.6-0.6,5.6-4.1s-2.4-4.1-5.3-4.1H206v8.2H210.5z"/>
	<path d="M238.4,48.6c-9.1,0-13.1-5.8-13.1-14.4s4.5-14.9,13.5-14.9c5.6,0,11.1,2.5,11.2,8.9h-6.3c-0.3-2.8-2.2-4.3-4.9-4.3
		c-5.5,0-7.2,5.9-7.2,10.4s1.7,9.7,7,9.7c2.8,0,4.8-1.5,5.2-4.4h6.3C249.4,46.2,244.2,48.6,238.4,48.6z"/>
</g>
</svg>
