<svg width="96" height="51" viewBox="0 0 96 51" fill="none" xmlns="http://www.w3.org/2000/svg">
<path d="M93.5003 32.7H87.9003C87.6003 32.8 87.5003 33.1 87.2003 33.4C83.9003 37.4 78.9003 40.6 71.9003 43.2C65.8003 45.5 58.8003 46.9 50.8003 47.4C42.8003 47.9 35.1003 47.4 27.6003 45.8C21.9003 44.6 16.0003 42.7 11.3003 39.9C8.00032 38 5.40032 36 3.80032 33.9C3.30032 33.4 3.80032 33.2 4.20032 33.5C6.50032 35.9 9.70032 38.1 13.4003 39.8C17.0003 41.5 21.7003 43 28.0003 44.2C32.5003 45 38.5003 45.4 46.0003 45C54.0003 44.5 61.5003 42.7 67.7003 39.8C71.3003 38.1 73.8003 36.4 75.8003 34.6C76.5003 33.8 75.9003 32.9 75.2003 32.7H72.4003C67.5003 38.1 56.4003 43.7 38.4003 43.8C20.4003 44 1.00032 36.5 1.10032 25.1C1.30032 13.7 19.4003 6.2 37.3003 6.2C55.2003 6.2 66.8003 10.9 72.7003 17.4H75.6003C76.2003 17.1 76.6003 16.2 76.0003 15.6C74.0003 13.7 71.5003 12.1 67.9003 10.4C61.6003 7.5 54.2003 5.7 46.2003 5.2C38.7003 4.8 32.7003 5.2 28.2003 6C21.6003 7.2 17.0003 8.7 13.3003 10.4C9.50032 12.1 6.50032 14.4 4.20032 16.8C3.80032 17.1 3.30032 16.9 3.80032 16.4C5.40032 14.4 7.80032 12.3 11.1003 10.4C15.8003 7.6 21.7003 5.6 27.5003 4.4C35.0003 2.8 42.7003 2.2 50.7003 2.7C58.7003 3.2 65.8003 4.7 71.8003 6.9C78.8003 9.5 83.9003 12.9 87.1003 16.9C87.3003 17.2 87.6003 17.4 87.8003 17.5H93.5003C94.9003 17.6 96.0003 16.2 95.2003 14.6C87.5003 6.1 70.9003 0 48.3003 0C23.4003 0 0.100321 10.6 0.000320709 24.9C-0.0996793 39.3 23.2003 50.3 49.8003 50C72.8003 49.8 86.4003 43.7 94.2003 36.7C96.8003 34.5 95.3003 32.7 93.5003 32.7Z" fill="#2A426C"/>
<path d="M32.1005 29.7001H32.5005V20.4H30.5005V23.7001C30.5005 24.0001 30.4005 24.3 30.1005 24.3H26.4005C26.2005 24.3 26.0005 24.1 26.0005 23.8V22.3C26.0005 20.6 24.9005 20.5 24.4005 20.5H24.0005V29.8H26.0005V26.6C26.0005 26.2 26.2005 26.1 26.6005 26.1H30.0005C30.5005 26.1 30.6005 26.3001 30.6005 26.7001V28.1C30.6005 29.6 31.7005 29.7001 32.1005 29.7001ZM35.3005 20.3H35.0005V29.6H37.0005L40.9005 24.2001C41.1005 23.9001 41.6005 23.8 41.5005 24.4V27.9C41.5005 29.6 42.6005 29.7001 43.1005 29.7001H43.5005V20.4H41.5005L37.6005 25.9C37.3005 26.3 36.9005 26.3 36.9005 25.8V22.2001C36.9005 20.5001 35.8005 20.3 35.3005 20.3ZM59.0005 29.7001V22.5C59.0005 22.2 59.2005 22 59.6005 22H61.1005C61.8005 22 62.4005 21.1 62.4005 20.5H55.3005C54.3005 20.5 53.9005 21.2 53.7005 22H56.5005C56.9005 22 57.0005 22.2 57.0005 22.5V29.8L59.0005 29.7001ZM74.2005 20.3H73.8005V29.6H75.8005L79.7005 24.2001C79.9005 23.9001 80.4005 23.8 80.3005 24.4V27.9C80.3005 29.6 81.4005 29.7001 81.9005 29.7001H82.3005V20.4H80.3005L76.4005 25.9C76.1005 26.3 75.7005 26.3 75.7005 25.8V22.2001C75.8005 20.4001 74.6005 20.3 74.2005 20.3ZM17.1005 29.8H18.5005C20.1005 29.8 21.4005 28.5 21.4005 26.9V23.2001C21.4005 21.6001 20.1005 20.3 18.5005 20.3H17.1005C15.5005 20.3 14.2005 21.6001 14.2005 23.2001V23.8C14.2005 24.2 14.0005 24.4 13.6005 24.4H12.3005C12.1005 24.4 11.9005 24.2 11.9005 23.9V22.2001C11.9005 20.5001 10.8005 20.4 10.3005 20.4H10.0005V29.7001H12.0005V26.4C12.0005 26 12.2005 25.9 12.6005 25.9H13.7005C14.1005 25.9 14.2005 26.1 14.2005 26.5V27C14.2005 28.5 15.5005 29.8 17.1005 29.8ZM16.0005 23.4C16.0005 22.5 16.7005 21.8 17.6005 21.8H18.0005C18.9005 21.8 19.6005 22.5 19.6005 23.4V26.7001C19.6005 27.6001 18.9005 28.3 18.0005 28.3H17.7005C16.8005 28.3 16.1005 27.6001 16.1005 26.7001V23.4H16.0005ZM48.8005 21.9H51.3005C51.9005 21.7 52.3005 21.1 52.4005 20.4H48.6005C47.0005 20.4 45.7005 21.7 45.7005 23.3V26.7001C45.7005 28.3001 47.0005 29.6 48.6005 29.6H52.6005C52.5005 28.9001 52.0005 28.3 51.4005 28.1H48.8005C48.2005 28.1 47.8005 27.6 47.8005 27.1V23C47.8005 22.4 48.2005 21.9 48.8005 21.9ZM69.0005 20.4H64.1005V29.7001H66.2005V26.7001H68.9005C70.2005 26.6001 71.1005 26.1001 71.6005 25.2001C72.0005 24.3001 71.9005 23.3001 71.7005 22.2001C71.3005 21.1001 70.3005 20.5 69.0005 20.4ZM68.7005 25.2001H66.3005C66.2005 25.2001 66.0005 25.1 66.0005 24.9V22.2001C66.0005 22.1001 66.1005 21.9 66.3005 21.9H68.9005C69.5005 21.9 69.9005 22.3 69.9005 22.9V24.2001C70.0005 24.6001 69.4005 25.2001 68.7005 25.2001ZM93.4005 27.9C93.4005 29.6 94.5005 29.7001 95.0005 29.7001H95.4005V20.4H93.1005C92.7005 20.4 92.5005 20.6 92.4005 20.9L90.6005 25.8C90.4005 26.5 90.0005 26.5001 89.7005 25.7001C89.1005 24.1001 88.5005 22.6 88.0005 21C87.9005 20.7 87.7005 20.5 87.3005 20.5H85.0005V29.8H85.4005C85.8005 29.8 87.0005 29.7 87.0005 28V24.5C87.0005 23.9 87.5005 23.9 87.6005 24.3L89.3005 28.5H91.1005L92.8005 24.3C93.0005 23.9 93.5005 23.9 93.4005 24.5V27.9Z" fill="#2A426C"/>
</svg>
