<svg width="155" height="41" fill="none" xmlns="http://www.w3.org/2000/svg"><path d="M148.685 27.658V6.924L155 .612v27.046h-6.315z" fill="#FA0000"/><path d="M127.942 6.924V.612H155l-6.315 6.312h-20.743z" fill="#C00000"/><path d="M127.942 27.658l20.743-20.734v20.734h-20.743z" fill="#C6C6C6"/><path d="M127.942 27.658V6.924h20.743l-20.743 20.734z" fill="#008ECF"/><path d="M3.062 36.228c1.301 0 2.258.65 2.258 2.027 0 1.415-.957 2.066-2.335 2.066H0v-6.389h4.746v1.148H1.378v1.148h1.684zm-.192 1.109H1.378v1.836H2.87c.69 0 1.072-.23 1.072-.918.038-.689-.421-.918-1.072-.918zM11.902 40.32h-1.454l-.497-1.415H7.578l-.536 1.415H5.588l2.449-6.427h1.454l2.412 6.427zm-3.138-4.858l-.842 2.372h1.684l-.842-2.372zM17.873 40.32h-1.416v-2.754h-2.603v2.754h-1.416v-6.388h1.416v2.41h2.603v-2.41h1.416v6.388zM22.274 36.456l2.756 3.864h-1.76l-1.953-2.869-.803.803v2.066h-1.378v-6.388h1.378v2.64l2.525-2.64h1.76l-2.525 2.524zM33.832 40.32h-1.416v-2.754h-2.602v2.754h-1.416v-6.388h1.416v2.41h2.602v-2.41h1.416v6.388zM39.879 35.08h-3.406v1.377h3.138v1.109h-3.138v1.568h3.482v1.186h-4.898v-6.388h4.784v1.147h.038zM46.309 40.32h-1.416v-5.202H42.29v5.202h-1.416v-6.388h5.435v6.388zM50.327 33.932c1.378 0 2.335.65 2.335 2.065 0 1.378-.995 2.028-2.258 2.028h-1.455v2.295h-1.377v-6.388h2.755zm-1.378 2.983h1.263c.613 0 1.11-.19 1.11-.918 0-.688-.46-.918-1.072-.918h-1.262v1.837h-.039zM59.55 37.107c0 1.989-1.263 3.328-3.138 3.328-1.913 0-3.176-1.339-3.176-3.328 0-2.028 1.263-3.367 3.176-3.367 1.875.039 3.138 1.378 3.138 3.367zm-4.86 0c0 1.377.65 2.18 1.76 2.219 1.072 0 1.723-.842 1.723-2.22 0-1.338-.651-2.18-1.723-2.18-1.11 0-1.76.842-1.76 2.18zM64.41 39.593v.689h-1.377v-.689c-1.645-.076-2.755-.956-2.755-2.563 0-1.53 1.11-2.448 2.755-2.486v-.612h1.378v.612c1.684.038 2.794.956 2.794 2.486-.038 1.607-1.148 2.525-2.794 2.563zm-1.377-4.016c-.918.038-1.416.574-1.416 1.492 0 .841.536 1.491 1.416 1.53v-3.022zm1.378 0v2.983c.88-.038 1.416-.65 1.416-1.53s-.498-1.415-1.416-1.453zM73.558 40.32h-1.416v-4.437h-.038l-2.412 4.437h-1.569v-6.388h1.416v4.437h.039l2.41-4.437h1.57v6.388zM80.064 40.32h-1.416v-5.202h-1.722l-.077 2.716c-.076 1.798-.689 2.6-1.76 2.6-.268 0-.612-.037-.804-.114v-1.148c.115.039.306.115.498.115.382 0 .689-.191.727-1.492l.115-3.902h4.44v6.427zM84.083 40.32H81.25v-6.388h1.377v2.295h1.493c1.301 0 2.258.65 2.258 2.027.038 1.416-.919 2.066-2.296 2.066zm-.115-2.984h-1.302v1.837h1.34c.689 0 1.072-.23 1.072-.919 0-.688-.46-.918-1.11-.918zM92.694 40.32h-1.416v-2.754h-2.603v2.754H87.26v-6.388h1.416v2.41h2.603v-2.41h1.416v6.388zM96.406 40.32h-2.488v-6.388h1.378v2.295h1.148c1.302 0 2.258.65 2.258 2.027.039 1.416-.918 2.066-2.296 2.066zm-.115-2.984h-.995v1.837h.995c.69 0 1.072-.23 1.072-.919.038-.688-.421-.918-1.072-.918zm4.555-3.404v6.388H99.43v-6.388h1.416zM105.247 36.954l2.258 3.328h-1.684l-1.416-2.219-1.416 2.219h-1.608l2.258-3.328-2.066-3.06h1.645l1.263 2.065 1.302-2.066h1.53l-2.066 3.06zM117.188 40.245h-1.455l-.497-1.416h-2.373l-.536 1.416h-1.454l2.449-6.389h1.454l2.412 6.389zm-3.177-4.82l-.842 2.371h1.684l-.842-2.371zM120.9 36.38l2.756 3.864h-1.761l-1.952-2.87-.804.804v2.066h-1.377v-6.389h1.377v2.64l2.526-2.64h1.761L120.9 36.38zM128.975 35.041h-1.913v5.203h-1.416V35.04h-1.914v-1.186h5.243v1.186zM135.099 40.244h-1.416v-4.438h-.039l-2.411 4.438h-1.569v-6.389h1.416v4.438h.038l2.411-4.438h1.57v6.389zM139.385 33.855c1.11 0 2.029.46 2.029 1.607 0 .612-.345 1.071-.881 1.3.651.192 1.148.69 1.148 1.569 0 1.262-.956 1.913-2.181 1.913h-3.215v-6.389h3.1zm-1.684 2.602h1.263c.498 0 1.072-.115 1.072-.727 0-.65-.536-.765-1.072-.765h-1.263v1.491zm0 2.677h1.416c.613 0 1.187-.114 1.187-.88 0-.765-.613-.88-1.263-.88h-1.34v1.76zM148.685 37.069c0 1.989-1.263 3.328-3.138 3.328-1.914 0-3.177-1.34-3.177-3.328 0-2.028 1.263-3.367 3.177-3.367 1.875 0 3.138 1.377 3.138 3.367zm-4.86-.039c0 1.377.65 2.18 1.76 2.219 1.072 0 1.722-.842 1.722-2.219 0-1.339-.65-2.18-1.722-2.18-1.11 0-1.76.88-1.76 2.18zM152.665 33.855c1.11 0 2.029.46 2.029 1.607 0 .612-.345 1.071-.881 1.3.651.192 1.149.69 1.149 1.569 0 1.262-.957 1.913-2.182 1.913h-3.138v-6.389h3.023zm-1.645 2.602h1.263c.497 0 1.071-.115 1.071-.727 0-.65-.536-.765-1.071-.765h-1.263v1.491zm0 2.677h1.416c.612 0 1.186-.114 1.186-.88 0-.765-.612-.88-1.263-.88h-1.339v1.76zM22.35 5.662H14.2v21.996h-5.97V5.662H.114V.612H22.35v5.05zM37.162.612c5.855 0 9.912 2.716 9.912 8.684 0 5.89-4.172 8.645-9.606 8.645h-6.085v9.717h-5.894V.612h11.673zm-5.78 12.662h5.282c2.68 0 4.63-.88 4.63-3.863 0-2.87-1.99-3.902-4.592-3.902h-5.32v7.765zM71.76 27.658h-6.24l-2.142-6.044H53.312l-2.22 6.044h-6.085L55.302.574h6.124l10.333 27.084zM58.363 7.23l-3.597 10.061h7.195l-3.598-10.06zM86.073 28.308c-7.884 0-13.09-5.661-13.09-14.192C72.984 6.236 77.998 0 86.304 0c6.506 0 11.251 4.093 11.71 9.678h-5.817c-.612-2.945-2.794-4.705-6.008-4.705-5.205 0-7.234 4.667-7.234 9.181 0 5.585 2.756 9.143 7.157 9.143 3.56 0 5.703-2.142 6.2-6.082h5.894c-.612 6.617-4.707 11.093-12.132 11.093zM121.589 5.662h-8.152v21.996h-5.97V5.662h-8.152V.612h22.235v5.05h.039z" fill="#00426D"/></svg>