<svg width="40" height="40" viewBox="0 0 40 40" fill="none" xmlns="http://www.w3.org/2000/svg">
<path fill-rule="evenodd" clip-rule="evenodd" d="M26.952 29.6359C26.6401 29.8852 26.303 30.0913 25.8877 30.1053C24.986 30.1357 24.5182 29.5577 24.1643 28.8583C23.8023 28.1427 23.7335 27.3596 23.717 26.5754C23.6708 24.3808 24.1381 22.2601 24.6817 20.1506C24.7503 19.8845 24.87 19.6206 24.802 19.3313C24.6928 19.4756 24.618 19.6268 24.5549 19.7828C23.8223 21.5938 23.1108 23.4134 22.3548 25.2148C21.4445 27.3844 20.4166 29.4926 18.8538 31.3003C17.3226 33.0715 15.4579 34.2254 13.0334 34.1996C8.94193 34.1558 5.12571 31.0545 4.22554 27.1182C4.14494 26.7655 4.19947 26.3849 4.00219 26.0571C4.00143 25.7519 4.00067 25.4193 4 25.1141C4.19756 24.7843 4.14132 24.4013 4.22744 24.047C4.62238 22.4237 5.53977 21.1688 7.00275 20.3517C9.27834 19.0809 11.7169 18.8125 14.2065 19.5513C16.252 20.1586 16.9705 21.8211 16.1853 23.784C15.3941 25.7621 13.2168 26.8973 11.2685 26.344C10.5368 26.136 9.95506 25.7313 9.60438 25.0478C9.22352 24.3052 9.50835 23.6819 10.3307 23.4647C10.6818 23.3719 11.043 23.3164 11.3955 23.2277C11.7186 23.1464 12.0181 23.0113 12.2949 22.7494C12.0015 22.5383 11.6819 22.4801 11.3649 22.4489C10.383 22.3524 9.42803 22.4834 8.55632 22.9476C7.3087 23.6118 6.86267 24.8559 7.22134 26.5239C7.73961 28.9341 9.55632 30.7221 11.8848 31.0636C13.1003 31.2417 14.2134 30.9242 15.1902 30.1941C16.69 29.0728 17.7093 27.5695 18.5616 25.9472C20.2169 22.7967 21.4735 19.4747 22.833 16.1975C23.4256 14.7687 23.9794 13.3243 24.5638 11.8921C24.6963 11.5674 24.6474 11.4702 24.2712 11.4734C22.046 11.4922 19.8524 11.8145 17.6532 12.0972C15.5325 12.3699 13.4426 12.8185 11.3294 13.1314C10.8509 13.2023 10.3799 13.1564 9.91043 13.0816C9.34248 12.9912 8.93746 12.6855 8.75617 12.1288C8.58877 11.6147 8.73847 11.0484 9.1158 10.6575C9.57126 10.1857 10.1548 9.92613 10.7628 9.72205C12.6114 9.10115 14.5173 8.70876 16.4405 8.40259C21.1717 7.64918 25.9445 7.35155 30.7266 7.15592C31.6596 7.11779 32.5873 6.98386 33.5244 7.00161C34.2913 7.01617 34.9498 7.27125 35.4755 7.82734C36.4247 8.83133 36.0375 10.2654 34.7016 10.6391C33.7619 10.9019 32.7845 10.8384 31.8212 10.8875C30.9679 10.931 30.108 10.8638 29.2617 11.0186C28.574 11.1444 27.8805 11.8913 27.7889 12.5608C27.7587 12.7818 27.9222 12.7442 28.0256 12.7504C28.4496 12.7757 28.8772 12.7589 29.2986 12.8028C30.4746 12.9255 31.0872 13.9104 30.663 15C29.8572 17.0701 28.8692 19.0707 28.2205 21.2008C27.9254 22.17 27.6911 23.1514 27.6011 24.2228C28.572 23.7261 29.3583 23.0748 30.155 22.4394C30.9556 21.801 30.8717 21.003 31.8833 21.3575C33.2661 21.8421 28.8909 27.5274 28.2043 28.3551C27.8225 28.8154 27.4224 29.2599 26.952 29.6359Z" fill="#CC0E2F"/>
</svg>
