<?xml version="1.0" encoding="UTF-8" standalone="no"?>
<!-- Created with Inkscape (http://www.inkscape.org/) -->

<svg
   width="94.22554mm"
   height="30.615469mm"
   viewBox="0 0 94.22554 30.615469"
   version="1.1"
   id="svg127"
   inkscape:version="1.1 (ce6663b3b7, 2021-05-25)"
   sodipodi:docname="logo.svg"
   xmlns:inkscape="http://www.inkscape.org/namespaces/inkscape"
   xmlns:sodipodi="http://sodipodi.sourceforge.net/DTD/sodipodi-0.dtd"
   xmlns="http://www.w3.org/2000/svg"
   xmlns:svg="http://www.w3.org/2000/svg">
  <sodipodi:namedview
     id="namedview129"
     pagecolor="#ffffff"
     bordercolor="#666666"
     borderopacity="1.0"
     inkscape:pageshadow="2"
     inkscape:pageopacity="0.0"
     inkscape:pagecheckerboard="0"
     inkscape:document-units="mm"
     showgrid="false"
     inkscape:zoom="0.77771465"
     inkscape:cx="-312.45393"
     inkscape:cy="350.38558"
     inkscape:window-width="2488"
     inkscape:window-height="1376"
     inkscape:window-x="0"
     inkscape:window-y="0"
     inkscape:window-maximized="1"
     inkscape:current-layer="layer1" />
  <defs
     id="defs124" />
  <g
     inkscape:label="Слой 1"
     inkscape:groupmode="layer"
     id="layer1"
     transform="translate(-42.701663,-56.135564)">
    <path
       id="path80"
       style="fill:#040606;fill-opacity:1;fill-rule:nonzero;stroke:none;stroke-width:0.0352778"
       d="m 84.564746,70.157388 h -2.158647 v -8.204553 h 5.420784 v 1.827812 h -3.262137 v 6.376741" />
    <path
       id="path82"
       style="fill:#040606;fill-opacity:1;fill-rule:nonzero;stroke:none;stroke-width:0.0352778"
       d="m 88.575124,70.292573 c -0.04127,0 -0.343958,-0.02438 -0.907697,-0.07373 V 68.24424 c 0.220486,0.04135 0.388056,0.06149 0.503061,0.06149 0.425097,0 0.735542,-0.204223 0.931333,-0.613092 0.155575,-0.302366 0.253648,-0.754345 0.294923,-1.355443 0.04057,-0.600816 0.06138,-1.506326 0.06138,-2.715966 v -1.668004 h 6.414206 v 8.204589 h -2.158647 v -6.377588 h -2.122312 v 1.27568 c 0,0.498828 -0.006,0.895279 -0.01799,1.189496 -0.01235,0.294358 -0.04269,0.6725 -0.09172,1.134287 -0.04904,0.462456 -0.1397,0.867057 -0.269523,1.21419 -0.13088,0.347945 -0.303036,0.64382 -0.515055,0.889388 -0.466725,0.539362 -1.173692,0.809308 -2.121959,0.809308" />
    <path
       id="path84"
       style="fill:#040606;fill-opacity:1;fill-rule:nonzero;stroke:none;stroke-width:0.0352778"
       d="m 105.03256,70.157388 h -2.25672 l -0.41628,-1.398023 h -2.956274 l -0.428625,1.398023 H 96.6936 l 2.906536,-8.204553 h 2.587624 z m -5.114218,-3.175952 h 1.962498 l -0.98107,-3.225871 z" />
    <path
       id="path86"
       style="fill:#040606;fill-opacity:1;fill-rule:nonzero;stroke:none;stroke-width:0.0352778"
       d="m 111.7043,65.742409 c 0.41698,0.130916 0.74612,0.363679 0.98707,0.699241 0.2413,0.335421 0.36159,0.752123 0.36159,1.250986 0,0.768244 -0.25929,1.371564 -0.77822,1.808938 -0.51964,0.437127 -1.27388,0.655814 -2.26272,0.655814 h -4.13314 v -8.204553 h 4.31658 c 0.80963,0 1.43122,0.204364 1.86408,0.613481 0.43357,0.408869 0.65017,0.927841 0.65017,1.557196 0,0.376485 -0.0875,0.705132 -0.26317,0.987355 -0.17639,0.282363 -0.42333,0.492936 -0.74224,0.631542 m -1.91347,-2.097228 h -1.79 v 1.643591 h 1.74132 c 0.26987,0 0.49036,-0.07122 0.66216,-0.214841 0.17145,-0.14291 0.25753,-0.341207 0.25753,-0.594748 0,-0.245287 -0.0819,-0.445241 -0.24518,-0.600816 -0.16369,-0.155328 -0.37218,-0.233186 -0.62583,-0.233186 m -1.79,4.807585 h 1.91241 c 0.30269,0 0.5461,-0.08354 0.73025,-0.251107 0.1838,-0.16757 0.27587,-0.382376 0.27587,-0.64382 0,-0.245568 -0.0882,-0.449791 -0.26387,-0.61348 -0.17569,-0.163301 -0.39476,-0.245146 -0.65582,-0.245146 h -1.99884 v 1.753553" />
    <path
       id="path88"
       style="fill:#040606;fill-opacity:1;fill-rule:nonzero;stroke:none;stroke-width:0.0352778"
       d="m 89.592888,73.361034 c 0.874184,0 1.583972,0.302648 2.127956,0.907733 0.543278,0.604943 0.815622,1.389874 0.815622,2.354791 0,0.948232 -0.272344,1.725013 -0.815622,2.329992 -0.543984,0.605084 -1.2573,0.907415 -2.140303,0.907415 -0.359833,0 -0.797278,-0.08184 -1.312333,-0.245286 v 1.170658 h -2.011187 v -1.170658 c -0.515055,0.163442 -0.9525,0.245286 -1.312333,0.245286 -0.874536,0 -1.586442,-0.302331 -2.1336,-0.907415 -0.548217,-0.604979 -0.821973,-1.38176 -0.821973,-2.329992 0,-0.956768 0.271639,-1.73743 0.815976,-2.342797 0.543277,-0.60512 1.256594,-0.90745 2.139597,-0.90745 0.359833,0 0.797278,0.08184 1.312333,0.245145 v -1.036673 h 2.011187 v 1.036673 c 0.531283,-0.171697 0.972961,-0.257422 1.32468,-0.257422 m -5.144558,2.07257 c -0.2413,0.302648 -0.361951,0.698817 -0.361951,1.189954 0,0.490291 0.126648,0.884697 0.379942,1.183182 0.252942,0.298767 0.592667,0.447569 1.01847,0.447569 0.253294,0 0.518936,-0.0489 0.796925,-0.147426 v -2.955219 c -0.343959,-0.114653 -0.621595,-0.171697 -0.833967,-0.171697 -0.42545,0 -0.758825,0.151306 -0.999419,0.453637 m 4.653844,2.820705 c 0.40887,0 0.736248,-0.148802 0.981075,-0.447569 0.245181,-0.298485 0.367948,-0.692891 0.367948,-1.183182 0,-0.491137 -0.12065,-0.889388 -0.361598,-1.195987 -0.241652,-0.306634 -0.570794,-0.460022 -0.987425,-0.460022 -0.212372,0 -0.498828,0.05747 -0.857955,0.171873 v 2.955467 c 0.301977,0.106257 0.58808,0.15942 0.857955,0.15942" />
    <path
       id="path90"
       style="fill:#040606;fill-opacity:1;fill-rule:nonzero;stroke:none;stroke-width:0.0352778"
       d="m 95.761561,77.450787 3.323872,-4.869004 h 2.047527 v 8.204554 h -2.072574 v -4.917794 l -3.38455,4.917794 h -1.986845 v -8.204554 h 2.07257 v 4.869004" />
    <path
       id="path92"
       style="fill:#040606;fill-opacity:1;fill-rule:nonzero;stroke:none;stroke-width:0.0352778"
       d="m 107.97614,75.880503 v -3.29872 h 2.18299 v 8.204836 h -2.18299 v -2.919237 h -3.09033 v 2.919237 h -2.18299 v -8.204836 h 2.18299 v 3.29872 h 3.09033" />
    <path
       id="path94"
       style="fill:#040606;fill-opacity:1;fill-rule:nonzero;stroke:none;stroke-width:0.0352778"
       d="m 119.33241,80.786337 h -2.25672 l -0.41663,-1.398165 h -2.95593 l -0.42897,1.398165 h -2.28106 l 2.90688,-8.204554 h 2.58763 z m -5.11422,-3.176094 h 1.9625 l -0.98143,-3.225871 z" />
    <path
       id="path96"
       style="fill:#040606;fill-opacity:1;fill-rule:nonzero;stroke:none;stroke-width:0.0352778"
       d="m 125.45205,75.880503 v -3.29872 h 2.18299 v 8.204836 h -2.18299 v -2.919237 h -3.09034 v 2.919237 h -2.18299 v -8.204836 h 2.18299 v 3.29872 h 3.09034" />
    <path
       id="path98"
       style="fill:#040606;fill-opacity:1;fill-rule:nonzero;stroke:none;stroke-width:0.0352778"
       d="m 133.0149,80.933374 c -1.23473,0 -2.25672,-0.402519 -3.066,-1.20784 -0.80927,-0.805075 -1.21461,-1.817229 -1.21461,-3.035406 0,-1.218072 0.40323,-2.232025 1.20862,-3.041615 0.80504,-0.809343 1.82915,-1.213909 3.07199,-1.213909 0.87453,0 1.6577,0.212761 2.34844,0.637893 0.69109,0.424992 1.1878,0.99755 1.49048,1.716617 l -1.85208,0.944351 c -0.1718,-0.400438 -0.43744,-0.721537 -0.79728,-0.962837 -0.35983,-0.240876 -0.76799,-0.361844 -1.22625,-0.361844 -0.62124,0 -1.13912,0.216888 -1.55152,0.650134 -0.4131,0.433529 -0.61912,0.977195 -0.61912,1.63121 0,0.646006 0.20884,1.187838 0.62512,1.624965 0.41733,0.437409 0.93662,0.656096 1.55786,0.656096 0.45756,0 0.87066,-0.122802 1.23861,-0.367947 0.36794,-0.245146 0.63359,-0.576439 0.79692,-0.992999 l 1.90112,0.870232 c -0.30233,0.743973 -0.80539,1.338898 -1.50883,1.784668 -0.70273,0.445664 -1.50389,0.668231 -2.40347,0.668231" />
    <path
       id="path100"
       style="fill:#254aa5;fill-opacity:1;fill-rule:nonzero;stroke:none;stroke-width:0.0352778"
       d="M 68.200901,86.75062 H 47.817894 c -2.825655,0 -5.116231,-2.290575 -5.116231,-5.115959 V 61.251548 c 0,-2.825397 2.290576,-5.115984 5.116231,-5.115984 h 20.383007 c 2.825644,0 5.116231,2.290587 5.116231,5.115984 v 20.383113 c 0,2.825384 -2.290587,5.115959 -5.116231,5.115959" />
    <path
       id="path102"
       style="fill:#00adef;fill-opacity:1;fill-rule:nonzero;stroke:none;stroke-width:0.0352778"
       d="m 58.009186,71.443228 v 15.307805 h 10.191292 c 2.825926,0 5.116371,-2.290576 5.116371,-5.116372 V 71.443228 H 58.009186" />
  </g>
</svg>
