<svg width="40" height="40" viewBox="0 0 40 40" fill="none" xmlns="http://www.w3.org/2000/svg">
<circle cx="19" cy="20" r="17" fill="#F58220"/>
<path d="M12.74 13.16C14.54 13.16 15.9333 13.5333 16.92 14.28C17.92 15.0267 18.42 16.14 18.42 17.62C18.42 19.1667 17.9267 20.3333 16.94 21.12C15.9533 21.8933 14.6333 22.28 12.98 22.28H11.4V27H8.46V13.16H12.74ZM12.74 20.12C13.5933 20.12 14.2467 19.9267 14.7 19.54C15.1533 19.1533 15.38 18.5133 15.38 17.62C15.38 16.06 14.4867 15.28 12.7 15.28H11.4V20.12H12.74ZM27.8745 27V20.94H23.2945V27H20.3545V13.16H23.2945V18.62H27.8745V13.16H30.8145V27H27.8745Z" fill="white"/>
</svg>
