<svg width="180" height="72" viewBox="0 0 180 72" fill="none" xmlns="http://www.w3.org/2000/svg">
<path fill-rule="evenodd" clip-rule="evenodd" d="M147.927 41.8111V39.1818H149.207L147.927 34.9778V31.94H150.047L154.279 43.8759H150.523L149.876 41.8111H147.927ZM155.306 43.8759V31.94H158.824V36.2331H162.714V31.94H166.232V43.8759H162.714V39.1001H158.824V43.8759H155.306ZM168.315 43.8759V31.94H171.833V36.7159L175.262 31.94H179.36L174.816 37.7186L179.479 43.8759H175.128L171.833 38.9961V43.8759H168.285H168.315ZM147.927 31.94V34.9778L146.648 39.1818H147.927V41.8111H145.971L145.302 43.8759H141.545L145.8 31.94H147.912H147.927ZM136.078 43.8759V41.4917C136.429 41.485 136.773 41.396 137.083 41.2318C137.415 41.0121 137.593 40.6236 137.544 40.2291C137.588 39.8433 137.413 39.4652 137.09 39.2486C136.779 39.0828 136.431 38.9961 136.078 38.9961V36.6045H136.369C136.607 36.6045 136.919 36.6045 137.306 36.6045C137.717 36.6305 138.124 36.7053 138.518 36.8273C139.176 37.0179 139.776 37.3674 140.266 37.8448C140.851 38.4653 141.141 39.3065 141.062 40.1548C141.138 41.0252 140.85 41.8881 140.266 42.539C139.783 43.0235 139.188 43.3808 138.533 43.5788C138.136 43.7101 137.723 43.7899 137.306 43.8165C136.912 43.8165 136.562 43.8537 136.369 43.8537H136.078V43.8759ZM136.078 34.807V31.94H140.088V34.807H136.078ZM136.078 31.94V34.807H134.591V36.597H136.078V38.9887H134.591V41.4917H136.078V43.8834H131.095V31.94H136.078ZM119.276 40.4296V35.2304L121.426 31.9103H124.869V43.8462H121.478V36.9535L119.246 40.3999L119.276 40.4296ZM119.276 31.2938V27.8698C120.593 26.7779 122.497 26.1837 125.226 26.7259C122.655 27.2753 120.469 28.9535 119.276 31.2938ZM119.276 27.8698V31.2938C119.157 31.5241 119.038 31.7617 118.934 32.0366C117.803 29.5261 115.959 28.5159 113.727 28.9839C115.111 27.5429 116.792 27.6915 118.755 28.4268C118.928 28.238 119.115 28.0617 119.313 27.8995L119.276 27.8698ZM119.276 35.2972L116.97 38.8847V31.9771H113.571V43.9131H117.089L119.276 40.4667V35.2675V35.2972ZM105.441 44.2102V41.358H105.783C105.912 41.3364 106.039 41.3041 106.163 41.2615C106.747 41.0854 107.265 40.7388 107.65 40.2662C108.151 39.5962 108.392 38.7676 108.327 37.934C108.392 37.1015 108.148 36.2743 107.643 35.6092C107.258 35.1366 106.74 34.7899 106.155 34.6139L105.783 34.5248C105.667 34.5138 105.55 34.5138 105.434 34.5248V31.6578H105.523C107.65 31.6578 109.252 32.2916 110.328 33.5592C112.479 36.1026 112.479 39.8248 110.328 42.3682C109.247 43.616 107.645 44.2448 105.523 44.2547L105.441 44.2102ZM105.441 31.5835V34.4505C105.31 34.44 105.178 34.44 105.047 34.4505C104.915 34.4728 104.786 34.5076 104.66 34.5545C104.089 34.7433 103.587 35.0975 103.217 35.572C102.731 36.2318 102.497 37.0428 102.555 37.8597C102.498 38.6787 102.733 39.4916 103.217 40.1548C103.589 40.6271 104.09 40.9808 104.66 41.1723C104.784 41.2158 104.911 41.2481 105.04 41.2689C105.167 41.292 105.297 41.3044 105.426 41.306V44.1582H105.345C103.545 44.2833 101.786 43.5867 100.562 42.2642C98.3961 39.7205 98.3961 35.984 100.562 33.4404C101.633 32.1703 103.24 31.5389 105.367 31.5389L105.441 31.5835ZM69.5008 39.932V37.2878C69.7299 37.2652 69.9511 37.1916 70.1479 37.0724C70.3423 36.9429 70.5009 36.7667 70.6091 36.5599C70.6523 36.4453 70.6798 36.3254 70.6909 36.2034C70.6963 36.1118 70.6963 36.0201 70.6909 35.9286C70.6946 35.8618 70.6946 35.7948 70.6909 35.728C70.6986 35.6589 70.6986 35.5892 70.6909 35.52C70.6211 35.2634 70.4729 35.0349 70.2669 34.8664C70.0532 34.7007 69.7935 34.6047 69.5231 34.5916V31.94H69.9992C71.0183 31.8641 72.0311 32.1538 72.8554 32.757C73.4357 33.232 73.8755 33.856 74.1273 34.5619C74.2096 34.803 74.267 35.0519 74.2983 35.3046C74.333 35.5208 74.3504 35.7394 74.3504 35.9583C74.3507 36.1772 74.3333 36.3958 74.2983 36.6119C74.2682 36.8649 74.2108 37.1139 74.1273 37.3546C73.8871 38.0647 73.4514 38.6928 72.8702 39.1669C72.0424 39.775 71.024 40.0674 69.9992 39.9914L69.5008 39.932ZM85.3959 43.3263C85.1623 43.483 84.913 43.6149 84.6521 43.72C84.4105 43.8219 84.1619 43.9063 83.9082 43.9725C83.6106 44.0662 83.304 44.1284 82.9934 44.1582C82.6959 44.1582 82.3983 44.1582 82.1157 44.1582H81.9446C80.343 44.1742 78.7962 43.576 77.6231 42.487C76.3845 41.2693 75.7313 39.5777 75.8306 37.8448C75.8306 35.7652 76.4578 34.1955 77.7124 33.1358C78.8634 32.1112 80.3505 31.5431 81.8926 31.5389H82.0636C82.2742 31.5281 82.4853 31.5281 82.6959 31.5389C82.9116 31.5389 83.1347 31.5909 83.3653 31.6355C83.7112 31.7087 84.0498 31.8132 84.3768 31.9474C84.7161 32.0842 85.0402 32.256 85.3438 32.4599V35.9211H85.1727C85.1058 35.8394 85.024 35.7503 84.9347 35.6612L84.6223 35.3715C84.3407 35.1324 84.0279 34.9325 83.6926 34.7773C83.2966 34.5843 82.8613 34.4852 82.4206 34.4876C81.5672 34.473 80.7567 34.8611 80.2339 35.5349C79.7115 36.216 79.4362 37.054 79.4529 37.9117C79.3819 38.7424 79.6637 39.5647 80.2296 40.1777C80.7954 40.7908 81.5932 41.1382 82.4281 41.1352C82.9875 41.1248 83.5361 40.9795 84.0273 40.7118C84.451 40.4754 84.8391 40.1803 85.1801 39.8354H85.3512V43.2298L85.3959 43.3263ZM87.3446 43.8759V31.94H90.8628V36.7159L94.2917 31.94H98.3678L93.8306 37.7186L98.4868 43.8759H94.1355L90.8405 38.9961V43.8759H87.3223H87.3446ZM56.6107 41.3506H56.9529C57.0795 41.3298 57.204 41.2975 57.3248 41.254C57.9094 41.0788 58.4277 40.732 58.8124 40.2588C59.7195 38.8386 59.7195 37.022 58.8124 35.6017C58.4265 35.1298 57.9086 34.7833 57.3248 34.6065C57.2051 34.5698 57.0834 34.54 56.9603 34.5173C56.844 34.5066 56.727 34.5066 56.6107 34.5173V31.6503H56.7149C58.8421 31.6503 60.4438 32.2841 61.5198 33.5518C63.6711 36.0952 63.6711 39.8173 61.5198 42.3607C60.4438 43.6086 58.8421 44.2374 56.7149 44.2473H56.6256V41.3952L56.6107 41.3506ZM69.5008 31.94V34.5916C69.3573 34.5798 69.213 34.5798 69.0694 34.5916H68.2884V37.3398H69.0694C69.2131 37.3478 69.3571 37.3478 69.5008 37.3398V39.984H68.2884V43.9279H64.7702V31.94H69.5008ZM56.5959 41.3506V44.2028H56.514C54.7148 44.3279 52.9558 43.6313 51.7314 42.3087C50.646 41.0805 50.062 39.49 50.095 37.8523C50.0752 36.2377 50.6465 34.6714 51.7016 33.4478C52.7802 32.1777 54.3793 31.5464 56.514 31.5464H56.5959V34.4134C56.4647 34.4029 56.3328 34.4029 56.2016 34.4134C56.0675 34.4366 55.9356 34.4714 55.8074 34.5173C55.2383 34.7066 54.7386 35.0609 54.3719 35.5349C53.886 36.1947 53.6514 37.0057 53.7099 37.8226C53.6528 38.6416 53.8873 39.4544 54.3719 40.1176C54.7407 40.5894 55.2397 40.9431 55.8074 41.1352C55.9332 41.1789 56.0627 41.2112 56.1942 41.2318C56.3219 41.2548 56.4512 41.2672 56.581 41.2689L56.5959 41.3506ZM34.5645 43.8759L36.3049 31.94H39.8231L41.8388 38.9293L43.8545 31.94H47.3727L49.1132 43.8759H45.7289L44.8959 37.3621L42.9992 43.8759H40.6785L38.7818 37.3621L37.9488 43.8759H34.5645Z" fill="#4D5BA3"/>
<path fill-rule="evenodd" clip-rule="evenodd" d="M147.927 41.4917V39.5606H149.69L147.942 33.8117V32.3262H149.817L153.803 43.564H150.791L150.144 41.4991L147.927 41.4917ZM155.64 43.5268V32.2891H158.459V36.5822H163.078V32.2891H165.898V43.5268H163.078V38.751H158.489V43.5268H155.64ZM168.65 43.5268V32.2891H171.469V37.778L175.426 32.2742H178.631L174.362 37.7037L178.765 43.512H175.299L171.469 37.8523V43.512L168.65 43.5268ZM147.912 32.2891V33.7746L146.164 39.5234H147.912V41.4917H145.718L145.049 43.5565H142.074L146.083 32.3188L147.912 32.2891ZM136.078 43.5268V41.8259H136.302H136.391H136.488H136.577H136.666H136.748H136.83H136.912H136.993H137.075L137.15 41.7888H137.224L137.298 41.7442L137.373 41.6997L137.447 41.6403L137.514 41.5808L137.581 41.514L137.64 41.4471L137.693 41.3729L137.745 41.2912L137.782 41.2095L137.819 41.1203V41.0312V40.9421V40.8455V40.749V40.6524V40.0062V39.9097V39.8131V39.724V39.6348V39.5457V39.464L137.774 39.3823L137.73 39.3006L137.678 39.2263L137.618 39.1595L137.551 39.0926L137.484 39.0332L137.41 38.9812L137.336 38.9292H137.261L137.194 38.8921L137.112 38.855H137.038H136.956H136.874H136.793H136.703H136.614H136.525H136.428H136.145V37.1541H137.693H137.767H137.789H137.864H137.931H138.005H138.072H138.146H138.221H138.295H138.369H138.444H138.555H138.659L138.771 37.1912L138.875 37.2358L138.979 37.2803L139.083 37.3323L139.18 37.3843L139.284 37.4437L139.381 37.5032L139.478 37.5626L139.582 37.6294L139.679 37.7037L139.775 37.778L139.864 37.8523L139.961 37.934L140.05 38.0231H140.095L140.132 38.0602L140.169 38.1048L140.207 38.1493V38.1939L140.244 38.2385V38.2905L140.281 38.335V38.387V38.439V38.491V38.5504V38.6099V38.6693V38.7287V38.7881V38.855V38.9218V38.9887V39.0629V39.1298V39.2041V39.2783V39.36V39.4343V40.6673V40.749V40.8307V40.9049V40.9866V41.0609V41.1278V41.202V41.2689V41.3357V41.4026V41.4694V41.5288V41.5883V41.6477V41.6997V41.7591V41.8111V41.8631L140.244 41.9076V41.9596V42.0042L140.207 42.0488L140.169 42.0933L140.125 42.1379H140.088L139.991 42.227L139.902 42.3087L139.805 42.3904L139.708 42.4721L139.612 42.539L139.515 42.6133L139.418 42.6727L139.321 42.7395L139.217 42.7915L139.121 42.8509L139.017 42.8955L138.92 42.9475L138.816 42.9846L138.712 43.0292H138.607H138.496H138.414H138.34H138.265H138.191H138.124H138.05H137.975H137.908H137.834H137.767H137.693H136.078V43.5268ZM136.078 34.4579V32.2891H139.745V34.4579H136.078ZM136.078 32.2891V34.4579H134.264V36.9387H136.078V38.6396H134.264V41.8408H136.078V43.5417H131.437V32.2891H136.078ZM105.441 43.8536V41.6997H105.888H105.947H105.999H106.059H106.111H106.17H106.222H106.267H106.364L106.483 41.6625L106.594 41.618L106.706 41.5734L106.817 41.5214L106.921 41.462L107.033 41.3952L107.137 41.3283L107.241 41.2615L107.338 41.1798L107.442 41.0981L107.539 41.0164L107.636 40.9272L107.732 40.8307L107.821 40.7341L107.918 40.6301L107.963 40.5707L108.015 40.5187L108.059 40.4519L108.097 40.3924L108.141 40.3256L108.179 40.2662L108.223 40.1993L108.26 40.1251V40.0582L108.298 39.9839V39.9171V39.8428V39.7685V39.6868V39.6126V39.5309V39.4492V39.3675V39.2858V39.1966V39.1149V39.0258V38.9367V38.8475V37.31V37.2135V37.1244V37.0427V36.9535V36.8718V36.7827V36.701V36.6193V36.545V36.4633V36.389V36.3148L108.26 36.2405V36.1662V36.0919V36.0251L108.223 35.9582L108.186 35.8914L108.141 35.8246L108.097 35.7577L108.037 35.5497L107.993 35.4903L107.948 35.4309L107.896 35.3715L107.807 35.2675L107.71 35.1709L107.621 35.0818L107.524 34.9927L107.42 34.9035L107.323 34.8218L107.219 34.7476L107.122 34.6733L107.018 34.6064L106.907 34.547L106.802 34.4876L106.691 34.4356L106.579 34.3836L106.475 34.3465L106.356 34.3019H106.245H106.193H106.148H106.096H106.044H105.999H105.895H105.85H105.434V32.1331H106.088H106.267H106.445H106.617H106.795H106.959H107.122H107.286L107.442 32.1702L107.598 32.2074L107.755 32.2519L107.903 32.2965L108.045 32.3485L108.193 32.4005L108.327 32.4599L108.469 32.5193L108.602 32.5862L108.729 32.653L108.855 32.7273L108.982 32.8016L109.101 32.8758L109.22 32.9576L109.339 33.0393L109.45 33.1284L109.555 33.2249L109.666 33.3141L109.77 33.4181L109.867 33.5146L109.964 33.6186L110.06 33.73L110.157 33.8414L110.246 33.9603L110.336 34.0791L110.425 34.1905L110.507 34.3093L110.581 34.4282L110.663 34.547L110.73 34.6733L110.804 34.7921L110.871 34.9184L110.938 35.0372L110.998 35.1635L111.057 35.2898L111.109 35.4235L111.161 35.5497L111.213 35.676L111.258 35.8097L111.302 35.9434L111.34 36.0771L111.377 36.2108L111.414 36.3445V36.4782V36.6193V36.7604V36.8941V37.0352V37.1838V37.3249V38.5207V38.6618V38.8104V38.9515V39.0926V39.2338V39.3675V39.5086L111.377 39.6423L111.34 39.776L111.302 39.9097L111.258 40.0434L111.213 40.1696L111.161 40.3033L111.109 40.4296L111.057 40.5558L110.998 40.6821L110.938 40.8084L110.871 40.9272L110.804 41.0535L110.737 41.1723L110.663 41.2912L110.581 41.41L110.507 41.5288L110.425 41.6477L110.336 41.7591L110.246 41.8779L110.157 41.9894L110.06 42.1008L109.971 42.2122L109.867 42.3162L109.77 42.4127L109.666 42.5093L109.562 42.6058L109.45 42.695L109.339 42.7841L109.22 42.8658L109.101 42.9475L108.982 43.0218L108.855 43.096L108.729 43.1629L108.602 43.2372L108.469 43.2966L108.327 43.356L108.193 43.4154L108.045 43.4674L107.903 43.5194L107.755 43.564L107.598 43.6085L107.442 43.6531L107.286 43.6902H107.122H106.959H106.788H106.617H106.445H106.267H106.081H105.434L105.441 43.8536ZM116.598 32.2891V40.0062L121.589 32.2742H124.505V43.512H121.798V35.7948L116.874 43.5268H113.898V32.2891H116.598ZM121.946 26.9859L122.155 26.9487H122.37H122.593H122.817H123.047H123.657H123.575L123.293 27.075L123.017 27.2013L122.757 27.335L122.497 27.4761L122.251 27.6172L122.013 27.7658L121.783 27.9217L121.559 28.0851L121.351 28.2485L121.143 28.4194L120.942 28.5902L120.749 28.7685L120.57 28.9541L120.392 29.1398L120.221 29.3329L120.057 29.5335L119.893 29.7266L119.745 29.9346L119.603 30.1425L119.462 30.3505L119.328 30.5659L119.194 30.7813L119.075 31.0041L118.956 31.2195V31.2641V31.2121L118.83 30.9967L118.703 30.7962L118.569 30.5956L118.428 30.4099L118.279 30.2242L118.131 30.0534L117.982 29.89L117.826 29.7415L117.662 29.5929L117.498 29.4592L117.327 29.3329L117.149 29.2141L116.97 29.1101L116.792 29.0061L116.606 28.917L116.412 28.8353L116.219 28.7685L116.026 28.709L115.825 28.657L115.617 28.6125H115.416H115.207H114.992H114.932H114.984L115.118 28.5605L115.245 28.5085L115.378 28.4639L115.512 28.4268H115.646H115.788H115.929H116.07H116.509H116.658H116.814H116.97H117.126H117.29H117.454L117.617 28.4714L117.781 28.5159L117.952 28.5679L118.123 28.6199L118.302 28.6793L118.48 28.7387L118.874 28.8799L119.15 28.5902L119.269 28.4714L119.395 28.3525L119.529 28.2411L119.663 28.1297L119.804 28.0257L119.945 27.9217L120.094 27.8252L120.243 27.736L120.399 27.6469L120.563 27.5578L120.726 27.4835L120.898 27.4018L121.076 27.335L121.255 27.2681L121.44 27.2087L121.634 27.1567L121.827 27.1121L121.946 26.9859ZM105.419 31.9474V34.1162H104.973H104.913H104.854H104.794H104.742H104.683H104.623H104.571H104.526H104.422L104.311 34.1608L104.207 34.2054L104.095 34.2574L103.991 34.3093L103.887 34.3688L103.783 34.4356L103.679 34.5025L103.582 34.5767L103.485 34.651L103.388 34.7327L103.292 34.8218L103.202 34.911L103.106 35.0001L103.017 35.1041L102.927 35.2006L102.883 35.2601L102.838 35.3195L102.831 35.5497L102.786 35.6092L102.749 35.676L102.704 35.7429L102.667 35.8097L102.63 35.8765V35.9434L102.593 36.0102V36.0845V36.1588V36.2331V36.3073V36.389V36.4633V36.545V36.6267V36.7084V36.7901V36.8718V36.961V37.0501V37.1392V38.6247V38.7138V38.803V38.8847V38.9738V39.0555V39.1372V39.2189V39.2932V39.3749V39.4492V39.5309V39.6051V39.672V39.7463L102.63 39.8205V39.8874L102.667 39.9542L102.704 40.0211L102.749 40.0879L102.786 40.1473L102.831 40.2068L102.875 40.2736L102.92 40.333L102.964 40.385L103.054 40.489L103.143 40.5856L103.232 40.6821L103.329 40.7712L103.426 40.8529L103.522 40.9346L103.619 41.0164L103.716 41.0906L103.82 41.1575L103.924 41.2169L104.028 41.2763L104.132 41.3357L104.244 41.3877L104.348 41.4323L104.459 41.4694H104.564H104.608H104.66H104.72H104.772H104.831H104.883H104.943H104.995H105.055H105.456V43.6234H105.359H104.817H104.638H104.459H104.288H104.117H103.954H103.79H103.634L103.47 43.5863H103.321L103.165 43.5417L103.024 43.4897L102.875 43.4451L102.734 43.3857L102.593 43.3337L102.459 43.2743L102.325 43.2075L102.198 43.1406L102.072 43.0663L101.945 42.9921L101.826 42.9178L101.707 42.8361L101.588 42.7544L101.477 42.6652L101.365 42.5761L101.261 42.4796L101.157 42.383L101.053 42.279L100.949 42.175L100.852 42.0636L100.755 41.9522L100.666 41.8408L100.577 41.722L100.488 41.6031L100.406 41.4843L100.324 41.3654L100.25 41.2466L100.175 41.1278L100.101 41.0089L100.034 40.8827L99.9669 40.7564L99.9074 40.6376L99.8479 40.5113L99.7884 40.3776L99.7363 40.2513L99.6917 40.1251L99.6397 39.9914L99.595 39.8577L99.5578 39.724L99.5206 39.5903V39.4566V39.3155V39.1818V39.0406V38.8995V38.7584V38.6099V38.5207V38.3722V37.4883V37.3398V37.1986V37.0501V36.909V36.7753V36.6341V36.493L99.5578 36.3593V36.2256L99.595 36.0919L99.6397 35.9582L99.6843 35.8246L99.7289 35.6909L99.7735 35.5646L99.8256 35.4309L99.8851 35.3046L99.9446 35.1784L100.004 35.0521L100.064 34.9333L100.131 34.807L100.205 34.6882L100.279 34.5619L100.354 34.443L100.436 34.3242L100.517 34.2054L100.599 34.094L100.688 33.9751L100.778 33.8563L100.874 33.7449L100.971 33.6335L101.068 33.5295L101.172 33.4329L101.276 33.3289L101.38 33.2398L101.492 33.1432L101.603 33.0541L101.715 32.9724L101.834 32.8907L101.96 32.8164L102.079 32.7422L102.206 32.6679L102.34 32.601L102.474 32.5342L102.607 32.4748L102.749 32.4153L102.89 32.3634L103.039 32.3114L103.188 32.2668L103.336 32.2222L103.493 32.1851L103.649 32.148H103.812H103.976H104.147H104.318H104.489H104.668H104.854H105.501L105.419 31.9474ZM69.4785 39.5903V37.6369H69.5975H69.6793H69.7611H69.8355H69.9173H69.9917H70.0587H70.133H70.2H70.2595L70.3264 37.5923L70.4231 37.5254L70.5124 37.4512L70.5942 37.3769L70.6686 37.2952L70.743 37.2135L70.8025 37.1244L70.8545 37.0352L70.9066 36.9312V36.857V36.805V36.753V36.6936V36.6416V36.5822V35.6834V35.5572L70.862 35.4458L70.8099 35.3343L70.743 35.2229L70.6686 35.1189L70.5942 35.0224L70.4975 34.9333L70.4008 34.8367L70.3413 34.7847L70.2744 34.7401L70.2 34.6956L70.1256 34.6584H70.0438H69.962H69.8802H69.7983H69.7091H69.6124H69.5157H69.4264V32.705H70.557H70.6537H70.8471H70.9438H71.0405H71.1297H71.219H71.3083H71.3975H71.4868H71.5686H71.6504H71.7248H71.8066H71.881H71.9479L72.0223 32.7422H72.0892H72.1562L72.2231 32.7793L72.2826 32.8164H72.3496L72.4016 32.8536H72.4611L72.5206 32.8981L72.5727 32.9427L72.6248 32.9798L72.7364 33.0764L72.833 33.1804L72.9372 33.2769L73.0264 33.3735L73.1231 33.4775L73.2049 33.574L73.2868 33.678L73.3611 33.782L73.4281 33.886L73.495 33.99L73.5545 34.094L73.614 34.1979L73.6661 34.3093L73.7107 34.4133L73.7554 34.5247L73.7925 34.6362V34.7179V34.7996V34.8813V34.963V35.0447V35.1264V35.2081V35.2898V35.364V36.4187V36.5005V36.5747V36.6564V36.7381V36.8198V36.9015V36.9832V37.0649V37.1466L73.7554 37.2655L73.7107 37.3695L73.6661 37.4809L73.614 37.5849L73.562 37.6888L73.5025 37.8003L73.4355 37.9042L73.3686 38.0082L73.2942 38.1122L73.2124 38.2088L73.1306 38.3128L73.0413 38.4167L72.9446 38.5133L72.8479 38.6099L72.7438 38.7138L72.6322 38.8104L72.5802 38.855L72.5281 38.8995L72.4686 38.9367H72.4091L72.3496 38.9812L72.2901 39.0184H72.2231H72.1636H72.0967H72.0223H71.9554H71.881H71.8066H71.7248H71.6504H71.5686H71.4868H71.3975H71.3157H71.2264H71.1297H71.0405H70.9438H70.8471H70.743H69.5157L69.4785 39.5903ZM82.562 43.8388H82.1306H81.9595H81.5281H81.3868H81.2454H81.0967H80.9554H80.8215H80.6801H80.5463H80.4124L80.2785 43.8017H80.1446L80.0107 43.7571L79.8843 43.7125L79.7578 43.668L79.6314 43.616L79.5049 43.564L79.3785 43.5046L79.2595 43.4451L79.1405 43.3783L79.0215 43.3189L78.9025 43.2446L78.7835 43.1777L78.6645 43.1035L78.5529 43.0218L78.4413 42.9401L78.3297 42.8584L78.2182 42.7692L78.1066 42.6801L77.995 42.5835L77.8909 42.487L77.7868 42.3904L77.6901 42.2939L77.5934 42.1899L77.4967 42.0859L77.4074 41.9745L77.3256 41.8631L77.2364 41.7517L77.162 41.6403L77.0802 41.5214L77.0058 41.4026L76.9388 41.2837L76.8719 41.1575L76.8049 41.0312L76.7454 40.8975L76.6859 40.7712L76.6339 40.6301L76.5818 40.4964L76.5372 40.3553L76.4925 40.2142L76.4479 40.0656L76.4107 39.9171V39.7685V39.6126V39.4566V39.3006V39.1372V38.9738V38.803V38.6321V37.5552V37.3769V37.2061V37.0352V36.8644V36.701V36.5376V36.3816V36.2256L76.4554 36.0771L76.5 35.9285L76.5446 35.78L76.5967 35.6389L76.6487 35.4977L76.7008 35.3566L76.7678 35.2229L76.8273 35.0967L76.8942 34.9704L76.9611 34.8441L77.0355 34.7253L77.1173 34.599L77.1917 34.4876L77.281 34.3762L77.3628 34.2648L77.4521 34.1534L77.5487 34.0494L77.6454 33.9454L77.7496 33.8488L77.8537 33.7523L77.9578 33.6557L78.0694 33.5666L78.181 33.47L78.3 33.3883L78.4116 33.2992L78.5306 33.2175L78.6421 33.1432L78.7611 33.0615L78.8802 32.9947L78.9992 32.9204L79.1182 32.8536L79.2372 32.7941L79.3562 32.7347L79.4752 32.6753L79.5942 32.6233L79.7206 32.5713L79.8397 32.5193L79.9661 32.4748L80.0926 32.4302L80.2116 32.3931H80.338H80.4644H80.5983H80.7248H80.8512H80.9851H81.1116H81.2454H81.3793H81.5132H82.7628H82.8372H82.919H82.9934H83.0752H83.157H83.2314H83.3132H83.3727H83.4322H83.4917H83.5587H83.6182H83.6777H83.7372H83.7967H83.8562H83.9157H83.9752H84.0347H84.0942H84.1537H84.2132H84.2727H84.3248H84.3843H84.4438H84.5033H84.5628H84.6149H84.6744H84.7264H84.7859H84.8454H84.8975H84.957H85.0091V34.9852H84.9644L84.9198 34.9481L84.8752 34.9035L84.8231 34.859L84.7711 34.8144L84.7116 34.7699L84.652 34.7253L84.6 34.6807L84.5405 34.6436L84.4735 34.599H84.414L84.3545 34.5545L84.2876 34.5173L84.2206 34.4802H84.1537L84.0868 34.443H84.0124L83.9454 34.4059L83.8711 34.3688H83.7892L83.7074 34.3316H83.6256L83.5438 34.2945H83.462H83.3727H83.2835H83.2016H83.1124H83.0157H82.9264H82.8372H82.7405H82.2496H82.0636H81.8851H81.7066L81.5355 34.3316L81.3719 34.3911L81.2083 34.4505L81.0521 34.5173L80.8959 34.599L80.7471 34.6882L80.6058 34.7847L80.4719 34.8887L80.338 35.0001L80.219 35.1189L80.1 35.2526L79.9884 35.3863L79.9289 35.4606L79.8843 35.5275L79.8322 35.6017L79.7876 35.6686L79.7355 35.7429L79.6909 35.8171L79.6537 35.8914L79.6091 35.9657V36.0399L79.5719 36.1217L79.5347 36.1959V36.2776V36.3519V36.4336V36.5153V36.597V36.6787V36.7604V36.8421V36.9238V37.0055V37.0947V37.1764V37.2655V37.3546V37.4437V38.5207V38.6173V38.7064V38.803V38.8921V38.9812V39.0704V39.1595V39.2486V39.3377V39.4194V39.5011V39.5829V39.6646V39.7463L79.5719 39.8205L79.6165 39.8948V39.9691L79.6611 40.0434L79.7058 40.1176L79.7578 40.1845L79.8025 40.2588L79.8545 40.3256L79.914 40.3924L79.9661 40.4519L80.0256 40.5187L80.0851 40.5781L80.1446 40.6376L80.2711 40.749L80.3901 40.8529L80.524 40.9495L80.6504 41.0386L80.7917 41.1203L80.9256 41.202L81.0669 41.2689L81.2157 41.3357L81.3644 41.3877L81.5132 41.4397L81.662 41.4843L81.8182 41.5214H81.9744H82.138H82.3016H82.4727H82.6066H82.7256H82.8446H82.9636H83.0826H83.1942H83.3058H83.4173H83.5289H83.633H83.7372L83.8413 41.4769L83.9454 41.4323L84.0496 41.3877L84.1463 41.3357L84.243 41.2837L84.3322 41.2317L84.4215 41.1798L84.5107 41.1278L84.5925 41.0683L84.6744 41.0164L84.7562 40.9569L84.838 40.9049L84.9124 40.8455L84.9942 40.7861L85.0463 40.7415V43.3189L84.9644 43.3634L84.8826 43.4154H84.8008L84.719 43.46L84.6372 43.4971H84.5554L84.4735 43.5343H84.3843L84.3025 43.5714H84.2132H84.1314H84.0496H83.9603H83.8785H83.8264H83.7669H83.7149H83.6628H83.6107H83.5587H83.4917H83.4397H83.3355H83.2835H82.5917L82.562 43.8388ZM87.6719 43.5268V32.2891H90.4909V37.778L94.4479 32.2742H97.6537L93.3917 37.7037L97.7876 43.512H94.3215L90.4909 37.8523V43.512L87.6719 43.5268ZM56.5884 41.6997H57.0347H57.0868H57.1463H57.2058H57.2578H57.3173H57.3694H57.414H57.5107L57.6297 41.6625L57.7413 41.618L57.8529 41.5734L57.9644 41.5214L58.0686 41.462L58.1801 41.3952L58.2843 41.3283L58.3884 41.2615L58.4851 41.1798L58.5892 41.0981L58.6859 41.0164L58.7826 40.9272L58.8793 40.8307L58.9686 40.7341L59.0653 40.6301L59.1099 40.5781L59.1545 40.5187L59.1992 40.4519L59.2438 40.3924L59.2884 40.3256V40.2662L59.3256 40.1993V40.1251L59.3628 40.0582L59.4 39.9839V39.9171V39.8428V39.7685V39.6868V39.6126V39.5309V39.4492V39.3675V39.2858V39.1966V39.1149V39.0258V38.9367V38.8475V37.31V37.2135V37.1244V37.0427V36.9535V36.8718V36.7827V36.701V36.6193V36.545V36.4633V36.389V36.3148V36.2405V36.1662V36.0919V36.0251V35.9582L59.3554 35.8914L59.3182 35.8246L59.2735 35.7577L59.2289 35.6983L59.1843 35.6389L59.1397 35.5794L59.0876 35.52L58.9983 35.416L58.9016 35.3195L58.8049 35.2304L58.7083 35.1412L58.6116 35.0521L58.5149 34.9704L58.4107 34.8961L58.3066 34.8218L58.2025 34.755L58.0983 34.6956L57.9942 34.6362L57.8826 34.5842L57.7711 34.5322L57.6595 34.495L57.5479 34.4505H57.4364H57.3843H57.3322H57.2876H57.2355H57.1909H57.0868H57.0421H56.6256V32.2817H57.2727H57.4587H57.6372H57.8083H57.9793H58.1504H58.314H58.4777L58.6339 32.3188L58.7901 32.3559L58.9463 32.4005L59.095 32.4451L59.2364 32.497L59.3777 32.549L59.519 32.6085L59.6603 32.6679L59.7868 32.7347L59.9206 32.8016L60.0471 32.8758L60.1735 32.9501L60.2925 33.0244L60.4116 33.1061L60.5231 33.1878L60.6347 33.2769L60.7463 33.3735L60.8578 33.4626L60.9545 33.5666L61.0587 33.6632L61.1554 33.7671L61.252 33.8786L61.3487 33.99L61.438 34.1088L61.5273 34.2276L61.6091 34.3391L61.6983 34.4579L61.7727 34.5767L61.8471 34.6956L61.9215 34.8218L61.9959 34.9407L62.0628 35.067L62.1223 35.1858L62.1892 35.3121L62.2413 35.4383L62.3008 35.5646L62.3529 35.6983L62.3975 35.8246L62.4496 35.9582L62.4868 36.0919L62.5314 36.2256V36.3593L62.5686 36.493V36.6267V36.7678V36.909V37.0427V37.1838V37.3323V37.4735V38.5207V38.6618V38.8104V38.9515V39.0926V39.2338V39.3675V39.5086L62.5314 39.6423V39.776L62.4868 39.9097L62.4496 40.0434L62.3975 40.1696L62.3529 40.3033L62.3008 40.4296L62.2413 40.5558L62.1892 40.6821L62.1223 40.8084L62.0628 40.9272L61.9959 41.0535L61.9215 41.1723L61.8545 41.2912L61.7727 41.41L61.6983 41.5288L61.6165 41.6477L61.5273 41.7591L61.438 41.8779L61.3487 41.9894L61.252 42.1008L61.1554 42.2122L61.0587 42.3162L60.962 42.4127L60.8578 42.5093L60.7463 42.6058L60.6421 42.695L60.5306 42.7841L60.4116 42.8658L60.2925 42.9475L60.1735 43.0218L60.0471 43.096L59.9206 43.1629L59.7942 43.2372L59.6603 43.2966L59.519 43.356L59.3851 43.4154L59.2364 43.4674L59.095 43.5194L58.9463 43.564L58.7901 43.6085L58.6339 43.6531L58.4777 43.6902H58.314H58.1504H57.9793H57.8083H57.6372H57.4587H57.2727H56.6256V41.5363L56.5884 41.6997ZM69.4785 32.2891V34.2425H67.9165V37.6814H69.4785V39.6348H67.9165V43.5714H65.1198V32.2891H69.4785ZM56.5735 41.6997V43.8536H56.4694H55.9711H55.7925H55.614H55.443H55.2719H55.1082H54.9446H54.781L54.6248 43.8165H54.476L54.3198 43.7719L54.1711 43.7199L54.0297 43.6754L53.8884 43.616L53.7471 43.564L53.6132 43.5046L53.4793 43.4377L53.3529 43.3709L53.2264 43.2966L53.1 43.2223L52.9959 42.9772L52.8768 42.8955L52.7578 42.8138L52.6463 42.7247L52.5347 42.6355L52.4306 42.539L52.319 42.4424L52.2223 42.3384L52.1182 42.2345L52.0215 42.123L51.9248 42.0116L51.8355 41.9002L51.7463 41.7814L51.657 41.6625L51.5752 41.5437L51.4934 41.4249L51.419 41.306L51.3446 41.1872L51.2702 41.0683L51.2033 40.9421L51.1363 40.8158L51.0768 40.697L51.0173 40.5707L50.9578 40.437L50.9058 40.3107L50.8537 40.1845L50.7644 40.0062L50.7198 39.8725V39.7388L50.6826 39.6051V39.4714V39.3303V39.1966V39.0555V38.9144V38.7733V38.6247V38.5207V38.3722V37.3398V37.1986V37.0501V36.909V36.7753V36.6341V36.493L50.7198 36.3593V36.2256V36.0919L50.7644 35.9582L50.8016 35.8246L50.8537 35.6909L50.8983 35.5646L50.9504 35.4383L51.0099 35.3046L51.062 35.1784L51.1289 35.0521L51.1884 34.9333L51.2554 34.807L51.3297 34.6882L51.4041 34.5619L51.4785 34.443L51.5603 34.3242L51.6421 34.2054L51.724 34.094L51.8132 33.9751L51.9025 33.8563L51.9992 33.7449L52.0959 33.6335L52.1925 33.5295L52.2967 33.4329L52.4008 33.3289L52.5049 33.2398L52.6165 33.1432L52.7281 33.0541L52.8397 32.9724L52.9587 32.8907L53.0777 32.8164L53.2041 32.7422L53.3306 32.6679L53.4644 32.601L53.5983 32.5342L53.7322 32.4748L53.8735 32.4153L54.0149 32.3634L54.1562 32.3114L54.3049 32.2668L54.4611 32.2222L54.6173 32.1851L54.7735 32.148H54.9372H55.1008H55.2719H55.443H55.614H55.7925H55.9785H56.6256V34.3168H56.1793H56.1198H56.0603H56.0008H55.9413H55.8892H55.8297H55.7777H55.7256H55.6289L55.5173 34.3613L55.4058 34.4059L55.3016 34.4579L55.1975 34.5099L55.0934 34.5693L54.9892 34.6362L54.8851 34.703L54.7884 34.7773L54.6917 34.8516L54.595 34.9333L54.4983 35.0224L54.4016 35.1115L54.3124 35.2006L54.2231 35.3046L54.1339 35.4012L54.0892 35.4606L54.0372 35.52V35.5794L53.9925 35.6389L53.9479 35.7057L53.9107 35.7726V35.8394L53.8735 35.9063V35.9731L53.8363 36.0399V36.1142V36.1885V36.2628V36.337V36.4187V36.493V36.5747V36.6564V36.7381V36.8198V36.9015V36.9907V37.0798V37.1689V38.6544V38.7435V38.8327V38.9144V39.0035V39.0852V39.1669V39.2486V39.3229V39.4046V39.4789V39.5606V39.6348V39.7017V39.776L53.8735 39.8502V39.9171L53.9107 39.9839V40.0508L53.9479 40.1176L53.9925 40.177L54.0372 40.2365V40.3033L54.0892 40.3553L54.1339 40.4147L54.2231 40.5187L54.3124 40.6153L54.4016 40.7118L54.4983 40.801L54.595 40.8827L54.6917 40.9644L54.7884 41.0461L54.8851 41.1203L54.9892 41.1872L55.0934 41.2466L55.1975 41.306L55.3016 41.3654L55.4058 41.4174L55.5173 41.462L55.6289 41.4991H55.7256H55.7777H55.8297H55.8892H55.9413H55.9934H56.0529H56.1049H56.1644H56.224H56.6107L56.5735 41.6997ZM34.9438 43.5268L36.6322 32.2891H39.6074L41.8388 40.1845L44.1149 32.2891H47.0901L48.7339 43.5268H46.0562L45.0521 35.6611L42.7611 43.5268H40.9611L38.6702 35.6611L37.6661 43.5268H34.9438Z" fill="#4D5BA3"/>
<path fill-rule="evenodd" clip-rule="evenodd" d="M15.4339 25.3593C16.0666 25.5715 16.679 25.8399 17.2636 26.1614C16.6463 26.2134 16.0364 26.2803 15.4264 26.3694V25.3593H15.4339ZM15.4339 43.5714C17.2836 43.332 19.1533 43.2872 21.0124 43.4377C19.6001 45.3088 17.6562 46.7116 15.4339 47.4634V43.5714ZM15.4339 42.6801V39.8725C17.8922 39.5647 20.3803 39.5797 22.8347 39.9171C22.5426 40.8336 22.1405 41.7115 21.6372 42.5316C19.5701 42.3567 17.4902 42.4065 15.4339 42.6801ZM15.4339 38.8476V36.2925C18.0702 35.9492 20.7416 35.9767 23.3702 36.3742V36.4188C23.3698 37.2324 23.2851 38.0439 23.1174 38.8401C20.5664 38.5167 17.9848 38.5167 15.4339 38.8401V38.8476ZM15.4339 35.2007V32.9724C17.903 32.6385 20.4069 32.6535 22.8719 33.017V33.0987C23.0755 33.7875 23.215 34.4936 23.2884 35.2081C20.6749 34.8518 18.0251 34.8518 15.4116 35.2081L15.4339 35.2007ZM15.4339 31.9846V29.8677C17.3632 29.6286 19.3114 29.5788 21.2504 29.7192C21.7442 30.4028 22.1631 31.1374 22.5 31.9103C20.1612 31.6304 17.796 31.6554 15.4636 31.9846H15.4339ZM15.4339 29.0582V26.9859C16.3664 26.8616 17.305 26.7873 18.2455 26.7631C19.102 27.3466 19.8774 28.0409 20.5512 28.8279C18.842 28.7553 17.1297 28.8324 15.4339 29.0582ZM11.7149 24.7428C12.9796 24.7477 14.2354 24.9559 15.4339 25.3593V26.3694C13.8303 26.6028 12.2483 26.9654 10.7033 27.4538L10.9934 25.389C5.74323 25.7174 1.45115 29.693 0.729197 34.8962C0.00724747 40.0995 3.05522 45.0906 8.01818 46.8321L8.19669 45.5323C10.5187 44.5675 12.9565 43.9083 15.4488 43.5714V47.4337C11.0577 48.9185 6.2029 47.6707 3.07539 44.2534C-0.0521078 40.8361 -0.86077 35.8957 1.01437 31.6619C2.88951 27.4281 7.0938 24.7017 11.7298 24.713L11.7149 24.7428ZM15.4339 26.971C13.8112 27.1952 12.2057 27.5302 10.6289 27.9737L10.3091 30.254C11.9738 29.6848 13.6902 29.2793 15.4339 29.0433V26.971ZM15.4339 29.8529C13.6671 30.0786 11.9244 30.464 10.2273 31.0041L9.85537 33.3215C11.6549 32.6848 13.5138 32.2295 15.4041 31.9623V29.8455L15.4339 29.8529ZM15.4339 32.9799C13.501 33.2477 11.5965 33.6903 9.7438 34.3019L9.40909 36.7456C11.3481 35.9883 13.3707 35.4647 15.4339 35.1858V32.9576V32.9799ZM15.4339 36.2702C13.333 36.5531 11.2667 37.0509 9.26777 37.7557L8.87355 40.6004C10.9758 39.7369 13.1807 39.1478 15.4339 38.8476V36.2925V36.2702ZM15.4339 39.8577C13.1483 40.1548 10.9031 40.7054 8.73967 41.4992L8.29339 44.7375C10.5549 43.6902 12.9625 42.9915 15.4339 42.6653V39.8577Z" fill="#4D5BA3"/>
</svg>
