<svg x="0" y="0" width="111px" height="100px" overflow="inherit" viewBox="0, 0, 111, 100" preserveAspectRatio="xMidYMid" font-size="0" xml:space="default" xmlns="http://www.w3.org/2000/svg" xmlns:xlink="http://www.w3.org/1999/xlink" xmlns:xml="http://www.w3.org/XML/1998/namespace" version="1.1"><title xml:space="default">logo-small</title><desc xml:space="default">Created with Sketch.</desc><defs xml:space="default" /><g fill-rule="evenOdd" id="Page-1" xml:space="default" style="fill:none;"><g transform="translate(-69, 0)" id="Artboard" xml:space="default" style="fill:#19B5FE;"><g transform="translate(69, 0)" id="logo-small" xml:space="default"><path d="M11.88095 46.05873 L11.88095 73.21111 L0.2253968 73.21111 L0.2253968 0 L25.8873 0 C33.38095 0 39.33333 2.131746 43.74127 6.393651 C48.14762 10.65556 50.35238 16.29365 50.35238 23.30635 C50.35238 30.48889 48.19365 36.07619 43.87936 40.06984 C39.56349 44.06349 33.52063 46.05873 25.74921 46.05873 L11.88095 46.05873 z M11.88095 35.80159 L25.8873 35.80159 C30.03333 35.80159 33.19683 34.73809 35.37778 32.60952 C37.55873 30.48095 38.64921 27.40476 38.64921 23.38254 C38.64921 19.42698 37.54286 16.26825 35.33175 13.90476 C33.12064 11.54127 30.07936 10.32698 26.20952 10.25873 L11.88095 10.25873 L11.88095 35.80159 z M69.13016 30.82222 L81.82698 30.82222 C85.85397 30.82222 89.00317 29.92698 91.27302 28.13333 C93.54285 26.33968 94.67778 23.80159 94.67778 20.51587 C94.67778 16.89524 93.62857 14.28095 91.53016 12.67143 C89.43016 11.0619 86.1619 10.25714 81.72698 10.25714 L69.13174 10.25714 L69.13174 30.82222 L69.13016 30.82222 z M84.59048 40.17619 C81.46032 40.17619 69.13016 40.17619 69.13016 40.17619 L69.13016 63.05556 L83.51588 63.05556 C87.57777 63.05556 90.75238 62.06667 93.03968 60.08889 C95.32539 58.11111 97.17302 55.36032 97.17302 51.84444 C97.17302 49.35238 96.66032 46.85714 95.70953 45.16349 C95.70953 45.16349 98.4381 44.22857 100.5841 42.63334 C103.1111 40.75397 104.9302 38.56667 104.9302 38.56667 C108.5873 42.9873 110.0857 47.6873 110.0857 51.84444 C110.0857 58.71587 107.1254 63.99524 102.6397 67.68413 C98.15079 71.36984 91.7254 73.2127 83.36508 73.2127 L56.17936 73.2127 L56.17936 0 L81.7254 0 C90.15397 0 94.54285 1.65873 98.94444 4.977778 C103.346 8.296825 106.5381 13.24127 106.5381 19.81111 C106.5381 23.16349 106.0603 26.19841 104.1905 28.8619 C102.054 31.90318 97.49048 40.17619 84.59048 40.17619 z M0 81.1873 L105.9095 99.63492 L105.9095 81.1873 L0 81.1873 z" id="Shape" xml:space="default" /></g></g></g></svg>