<svg width="321" height="320" viewBox="0 0 321 320" fill="none" xmlns="http://www.w3.org/2000/svg">
<g clip-path="url(#clip0)">
<path d="M315.551 148.597L171.647 4.699C168.618 1.68613 164.519 -0.00512695 160.247 -0.00512695C155.974 -0.00512695 151.876 1.68613 148.847 4.699L4.949 148.597C1.93613 151.626 0.244873 155.724 0.244873 159.997C0.244873 164.269 1.93613 168.368 4.949 171.397L148.854 315.294C151.883 318.307 155.981 319.998 160.254 319.998C164.526 319.998 168.625 318.307 171.654 315.294L315.551 171.397C318.564 168.368 320.255 164.269 320.255 159.997C320.255 155.724 318.564 151.626 315.551 148.597ZM268.913 184.259V201.266L265.54 201.827C260.867 202.612 256.095 202.612 251.422 201.827L248.049 201.266V184.259L245.482 179.799L238.735 186.608C239.859 189.638 240.53 192.816 240.727 196.041L240.916 198.938L238.23 200.039C233.235 201.888 227.952 202.838 222.626 202.844L160.243 265.781L86.2885 191.174C85.461 191.244 84.6334 191.293 83.8058 191.293C81.8191 191.292 79.8378 191.085 77.8937 190.676L75.6985 190.213L74.0224 189.827L73.7138 201.28L70.4386 201.834C65.931 202.6 61.3265 202.6 56.8189 201.834L53.3123 201.245L55.8651 138.427L59.1473 137.922C64.0922 137.152 69.1266 137.152 74.0715 137.922L76.3858 138.28L76.8417 138.357L103.254 111.707C102.845 109.215 102.644 106.693 102.65 104.168C102.65 88.8368 110.779 70.939 133.677 70.939C136.726 70.938 139.766 71.2482 142.752 71.8648L160.285 54.2125L193.458 87.6796C196.607 87.364 201.537 86.9012 203.627 86.9012H203.879C204.427 86.9012 205.345 86.831 206.538 86.831C220.662 86.831 229.092 93.3814 229.092 104.364C229.149 108.56 227.707 112.639 225.024 115.866L229.057 123.58L262.054 156.872L263.829 153.786L265.701 153.471C270.537 152.691 275.467 152.691 280.303 153.471L286.082 154.397L268.913 184.259Z" fill="#FFCC00"/>
<path d="M133.487 133.041C120.639 133.041 106.69 125.572 106.69 104.168C106.69 92.1749 112.497 74.9714 133.677 74.9714C142.296 74.9714 147.977 77.6505 147.977 77.6505C147.567 81.5484 146.483 85.3454 144.772 88.8717C144.772 88.8717 121.018 78.6394 121.018 104.189C121.018 129.247 145.403 119.113 145.403 119.113C147.184 122.642 148.319 126.461 148.755 130.39C148.755 130.39 142.836 133.041 133.487 133.041ZM173.757 106.187C173.757 103.417 172.551 100.984 166.141 100.984C162.753 101.041 159.398 101.657 156.21 102.807C154.735 99.8661 153.912 96.6414 153.798 93.3531C153.798 93.3531 185.554 82.2933 185.554 107.555V130.502C185.554 130.502 151.119 140.98 151.119 119.064C151.119 106.587 164.458 106.18 173.764 106.18L173.757 106.187ZM162.291 118.811C162.291 125.761 173.743 123.152 173.743 123.152V114.126C169.739 114.126 162.298 113.558 162.298 118.825L162.291 118.811ZM96.5276 141.885L84.7875 171.6L73.4471 141.885C68.9135 141.178 64.2978 141.178 59.7642 141.885L57.4919 197.836C61.5562 198.527 65.7079 198.527 69.7721 197.836L70.6347 165.674L71.0345 165.611L78.7491 186.713C82.1014 187.425 85.5659 187.425 88.9183 186.713L97.5586 165.288L97.9583 165.358L99.0594 197.836C103.361 198.531 107.746 198.531 112.048 197.836L109.383 141.892C105.129 141.186 100.787 141.191 96.5346 141.906L96.5276 141.885ZM203.886 101.082C203.886 101.082 205.289 100.955 206.418 100.955C210.892 100.955 211.692 103.684 211.692 106.18C211.692 111.279 205.864 113.706 205.864 113.706L214.504 132.143C219.291 132.855 224.157 132.855 228.945 132.143L220.003 114.996C220.003 114.996 225.024 111.931 225.024 104.322C225.024 88.8927 204.931 90.9265 203.599 90.9265C200.723 90.9265 191.136 91.9645 191.136 91.9645V132.136C195.359 132.848 199.671 132.848 203.893 132.136L203.886 101.082ZM156.091 177.912C156.091 192.934 146.7 198.839 135.956 198.839C125.212 198.839 115.898 192.913 115.898 177.912C115.898 162.91 125.107 156.591 135.956 156.591C146.806 156.591 156.091 162.889 156.091 177.912ZM143.257 177.736C143.257 174.104 142.555 166.655 135.956 166.655C129.357 166.655 128.739 174.132 128.739 177.736C128.739 181.341 129.076 188.803 135.956 188.803C142.836 188.803 143.257 181.369 143.257 177.736ZM279.678 157.489C275.265 156.777 270.766 156.777 266.353 157.489L258.491 171.179L250.63 157.489C246.216 156.777 241.718 156.777 237.304 157.489L252.102 183.179V197.843C256.337 198.555 260.66 198.555 264.894 197.843V183.179L279.678 157.489ZM238.952 175.373C238.875 177.499 238.687 179.62 238.391 181.727H214.329C214.329 181.727 214.645 188.039 222.548 188.039C226.486 188.038 230.388 187.296 234.05 185.851C235.601 189.123 236.504 192.664 236.708 196.279C232.189 197.942 227.413 198.797 222.598 198.804C211.166 198.804 201.411 193.537 201.411 177.975C201.411 167.939 206.432 156.577 221.391 156.577C233.728 156.591 238.952 166.031 238.952 175.373ZM227.275 173.108C227.275 173.108 227.184 166.228 220.907 166.228C214.343 166.228 214.217 173.108 214.217 173.108H227.275ZM160.993 159.235V197.843C165.268 198.556 169.63 198.556 173.905 197.843V168.1C175.003 167.909 176.114 167.797 177.229 167.764C181.283 167.764 183.779 169.25 183.779 175.864V197.85C188.054 198.563 192.416 198.563 196.691 197.85V173.444C196.691 148.112 160.993 159.235 160.993 159.235Z" fill="black"/>
</g>
<defs>
<clipPath id="clip0">
<path d="M0.25 0H320.25V320H0.25V0Z" fill="white"/>
</clipPath>
</defs>
</svg>
