<svg width="180" height="72" viewBox="0 0 180 72" fill="none" xmlns="http://www.w3.org/2000/svg">
<path fill-rule="evenodd" clip-rule="evenodd" d="M24.1461 17.9305C36.5251 18.6314 42.6949 7.89597 43.6574 3.13783C36.8114 2.11611 24.847 6.7706 23.5192 17.2444C23.4668 16.2632 23.5148 15.2791 23.6624 14.3076C23.1688 12.5357 22.2951 11.277 20.8095 9.81601C19.4718 9.1941 17.2754 9.81601 17.996 10.7242C22.4975 14.5544 22.3445 17.3135 22.8331 19.0213C23.3267 19.0213 23.7019 19.1151 24.1856 19.1151C24.1856 18.7005 24.1856 18.3056 24.151 17.9305" fill="url(#paint0_linear)"/>
<path fill-rule="evenodd" clip-rule="evenodd" d="M25.0197 17.8615C29.968 17.8615 34.8051 19.3287 38.9195 22.0777C43.0338 24.8267 46.2407 28.7339 48.1345 33.3054C50.0283 37.8769 50.5241 42.9073 49.5591 47.7605C48.5941 52.6137 46.2117 57.0718 42.7131 60.5711C39.2145 64.0704 34.7569 66.4536 29.9039 67.4196C25.0509 68.3855 20.0204 67.8908 15.4485 65.9978C10.8767 64.1049 6.96879 60.8988 4.21899 56.785C1.46919 52.6712 0.000976174 47.8344 0 42.8861C-1.29082e-07 36.25 2.63584 29.8857 7.32781 25.1928C12.0198 20.4999 18.3836 17.8628 25.0197 17.8615" fill="url(#paint1_linear)"/>
<path d="M69.5953 30.354C71.5367 30.897 72.5074 32.1688 72.5074 34.1694C72.5276 34.9388 72.3738 35.7027 72.0576 36.4044C71.7414 37.106 71.2709 37.7273 70.6811 38.2218C69.4636 39.2747 67.7443 39.8012 65.5232 39.8012C61.7292 39.8012 59.3731 38.1428 58.4551 34.8259L63.1737 34.4557C63.2534 34.9826 63.5324 35.4587 63.9531 35.7858C64.3738 36.1128 64.9041 36.2657 65.4344 36.2129C65.7187 36.2335 66.0043 36.1965 66.274 36.104C66.5438 36.0116 66.792 35.8656 67.0039 35.6749C67.1863 35.4755 67.3273 35.242 67.4188 34.9879C67.5103 34.7337 67.5505 34.4639 67.537 34.1941C67.5461 33.9081 67.4904 33.6237 67.3742 33.3621C67.258 33.1006 67.0841 32.8687 66.8657 32.6837C66.3435 32.2718 65.6888 32.0646 65.0247 32.1013H63.6723V29.0905H64.7433C65.2946 29.122 65.8359 28.9339 66.2488 28.5673C66.4362 28.377 66.5818 28.1496 66.6762 27.8996C66.7705 27.6497 66.8116 27.3828 66.7966 27.1161C66.8098 26.175 66.2619 25.7045 65.153 25.7045C64.0441 25.7045 63.386 26.2293 63.1787 27.279L58.7364 26.741C59.4636 23.8223 61.6403 22.3629 65.2665 22.3629C67.2738 22.3629 68.8467 22.7693 69.9852 23.5821C70.5231 23.9388 70.9619 24.4261 71.2606 24.9983C71.5592 25.5706 71.708 26.2092 71.693 26.8545C71.693 28.5195 70.9938 29.686 69.5953 30.354Z" fill="#FF7E01"/>
<path d="M78.8154 31.2622L74.5262 30.7686C74.6383 30.1137 74.8763 29.4868 75.2271 28.9226C75.5722 28.4392 76.0229 28.0409 76.545 27.7577C77.0761 27.4799 77.65 27.293 78.2429 27.2049C79.0153 27.0696 79.7983 27.0035 80.5825 27.0075C81.6684 26.9877 82.7538 27.067 83.8253 27.2444C84.5841 27.3753 85.2906 27.7175 85.8638 28.2316C86.2859 28.6403 86.5968 29.15 86.7671 29.7123C86.9786 30.2932 87.0904 30.9056 87.0978 31.5238V36.9137C87.0872 37.3652 87.122 37.8166 87.2014 38.2612C87.3083 38.6977 87.4622 39.1214 87.6605 39.5248H83.4453C83.3141 39.2947 83.2034 39.0536 83.1146 38.8041C83.0449 38.5498 82.9938 38.2909 82.9615 38.0292C82.4616 38.5562 81.8673 38.9848 81.2093 39.2928C80.3289 39.6418 79.3871 39.8097 78.4403 39.7864C77.0418 39.7864 75.9806 39.4573 75.2567 38.7992C74.9076 38.4858 74.63 38.1011 74.4427 37.671C74.2553 37.2409 74.1626 36.7756 74.1708 36.3066C74.1387 35.4737 74.4185 34.6587 74.9556 34.0213C75.4788 33.4257 76.4413 32.9815 77.8431 32.6886C79.5279 32.3365 80.6203 32.0897 81.1205 31.9482C81.6604 31.7925 82.191 31.6063 82.7098 31.3905C82.7543 30.9603 82.6324 30.5294 82.3692 30.1862C82.0279 29.9189 81.596 29.795 81.1649 29.8406C80.5901 29.8014 80.0162 29.9282 79.5114 30.2059C79.1722 30.4743 78.9283 30.8446 78.8154 31.2622V31.2622ZM82.7098 33.7301C82.0912 33.9604 81.4479 34.1628 80.7799 34.3372C80.1551 34.4568 79.5639 34.7112 79.0474 35.0825C78.9297 35.197 78.8361 35.334 78.7721 35.4853C78.7082 35.6367 78.6753 35.7993 78.6753 35.9636C78.6753 36.1278 78.7082 36.2904 78.7721 36.4418C78.8361 36.5931 78.9297 36.7301 79.0474 36.8446C79.3502 37.098 79.7396 37.2236 80.1333 37.195C80.6248 37.1974 81.1076 37.066 81.5301 36.815C81.914 36.6003 82.2264 36.2776 82.4285 35.887C82.6253 35.4416 82.7181 34.9571 82.6999 34.4705L82.7098 33.7301Z" fill="#FF7E01"/>
<path d="M102.873 39.5248H98.6278V33.508L94.2201 39.5248H89.9457V27.3086H94.1905V33.3945L98.6327 27.3086H102.863L102.873 39.5248ZM100.025 22.3925C100.042 22.8758 99.9515 23.3569 99.7584 23.8003C99.5653 24.2437 99.2751 24.638 98.9092 24.9542C98.1878 25.553 97.2749 25.8719 96.3376 25.8525C95.3455 25.9117 94.3691 25.5844 93.613 24.9394C92.9278 24.2652 92.5284 23.3532 92.4975 22.3925H94.3929C94.6133 23.2053 95.2303 23.6116 96.2438 23.6116C96.6963 23.6323 97.1473 23.5478 97.5617 23.3649C97.7375 23.2604 97.8872 23.1172 97.9992 22.9461C98.1113 22.775 98.1828 22.5806 98.2083 22.3777L100.025 22.3925Z" fill="#FF7E01"/>
<path d="M121.974 39.5248H118.179V31.8496L115.41 39.5248H112.705L109.689 31.8644V39.5248H105.893V27.3086H111.249L114.062 34.3224L116.624 27.3086H121.974V39.5248Z" fill="#FF7E01"/>
<path d="M58.8845 49.6088C60.2237 46.7822 62.7097 45.3689 66.3425 45.3689C69.0408 45.3689 71.1155 46.1191 72.5666 47.6196C74.0177 49.1201 74.7433 51.2343 74.7433 53.9622C74.7433 56.8052 74.026 58.9869 72.5913 60.5071C71.1566 62.0273 69.1411 62.7875 66.5449 62.7875C64.2053 62.7875 62.407 62.307 61.15 61.3462C59.9049 60.4024 58.9838 59.095 58.5143 57.6048L63.2132 56.282C63.6706 58.0129 64.7186 58.8783 66.3573 58.8783C68.2691 58.8783 69.3616 57.8023 69.6347 55.6502H64.7581V52.5259H69.6545C69.3254 50.3574 68.2181 49.2731 66.3326 49.2731C65.6714 49.2313 65.0159 49.4185 64.4766 49.8032C63.9372 50.188 63.5468 50.7468 63.3711 51.3857L58.8845 49.6088Z" fill="#4BA45E"/>
<path d="M90.1974 62.5011H85.1332L83.4155 59.1299C83.2474 58.7321 82.9702 58.3898 82.6159 58.1428C82.3092 57.9928 81.9699 57.9216 81.6288 57.9355V62.5208H77.1421V50.2997H81.6288V54.7124C81.783 54.7064 81.9344 54.6697 82.0743 54.6044C82.2141 54.5391 82.3395 54.4466 82.4432 54.3323C82.7468 53.8898 83.0032 53.4166 83.2082 52.9206C83.4483 52.3564 83.7496 51.8201 84.1066 51.3214C84.3734 50.9837 84.7239 50.7217 85.1233 50.5613C85.6186 50.3752 86.1398 50.2669 86.6683 50.2405C87.2869 50.1944 88.2066 50.1714 89.4274 50.1714V53.4932H89.23C88.7697 53.4846 88.3095 53.5094 87.8529 53.5672C87.5753 53.6009 87.3124 53.7102 87.0927 53.8831C86.8142 54.1693 86.5901 54.5039 86.4313 54.8703C86.2615 55.2385 86.053 55.5876 85.8094 55.9118C85.6156 56.1223 85.3565 56.2614 85.074 56.3066C85.5821 56.3322 86.0773 56.4758 86.5202 56.7262C86.8492 56.9434 87.3609 57.6459 88.0552 58.8338L90.1974 62.5011Z" fill="#4BA45E"/>
<path d="M100.4 57.7233L104.669 58.2169C104.458 59.093 104.063 59.9142 103.509 60.6255C102.962 61.3116 102.256 61.8538 101.451 62.205C100.441 62.613 99.3564 62.8047 98.2675 62.7677C97.221 62.7921 96.1761 62.6708 95.1629 62.4074C94.3718 62.1863 93.6422 61.786 93.0306 61.2376C92.4396 60.7055 91.9628 60.059 91.6289 59.3373C91.2592 58.4196 91.0908 57.4332 91.1353 56.4449C91.0985 55.3667 91.3096 54.2945 91.7522 53.3106C92.3663 52.1043 93.3699 51.1407 94.6002 50.5762C95.6719 50.1664 96.8148 49.975 97.9615 50.0135C99.8733 50.0135 101.331 50.3705 102.335 51.0846C103.377 51.8523 104.123 52.9557 104.447 54.209L100.197 54.8259C100.101 54.3612 99.8462 53.9444 99.4768 53.6463C99.0641 53.3636 98.5697 53.2248 98.0701 53.2514C97.7262 53.2414 97.3847 53.311 97.0721 53.4548C96.7596 53.5987 96.4846 53.8129 96.2685 54.0806C95.7543 54.8147 95.5102 55.7042 95.5775 56.5979C95.5189 57.4157 95.7611 58.2266 96.2587 58.8783C96.4726 59.1299 96.7401 59.3305 97.0416 59.4654C97.343 59.6003 97.6708 59.6662 98.001 59.6581C98.5367 59.6687 99.0596 59.4944 99.4818 59.1645C99.9293 58.7905 100.25 58.287 100.4 57.7233V57.7233Z" fill="#4BA45E"/>
<path d="M119.087 62.5012H114.6V53.7105H111.18V62.5012H106.693V50.2998H119.092L119.087 62.5012Z" fill="#4BA45E"/>
<path d="M121.821 67.1655V50.2997H126.022V52.1013C126.448 51.4877 126.992 50.9644 127.621 50.5613C128.287 50.1996 129.035 50.0144 129.793 50.0233C130.508 49.9953 131.219 50.1529 131.855 50.4807C132.492 50.8085 133.033 51.2954 133.425 51.894C134.318 53.2691 134.766 54.8854 134.709 56.5238C134.709 58.5541 134.241 60.1039 133.307 61.1734C132.874 61.6881 132.332 62.0994 131.719 62.3769C131.107 62.6545 130.44 62.7914 129.768 62.7775C129.119 62.785 128.476 62.659 127.878 62.4073C127.298 62.1551 126.778 61.7834 126.352 61.3165V67.1655H121.821ZM126.323 56.4596C126.263 57.2212 126.469 57.9799 126.905 58.6067C127.081 58.8299 127.306 59.0094 127.563 59.131C127.82 59.2526 128.102 59.313 128.386 59.3076C128.642 59.3081 128.895 59.2474 129.124 59.1307C129.352 59.0139 129.549 58.8445 129.699 58.6363C130.051 58.1888 130.227 57.4287 130.227 56.356C130.287 55.5894 130.093 54.8243 129.674 54.1793C129.521 53.9648 129.319 53.7898 129.084 53.6688C128.85 53.5478 128.59 53.4842 128.327 53.4833C128.05 53.4806 127.777 53.5426 127.528 53.6643C127.28 53.786 127.063 53.964 126.895 54.1842C126.459 54.8498 126.256 55.6415 126.318 56.435L126.323 56.4596Z" fill="#4BA45E"/>
<path d="M149.867 57.5603H140.869C140.895 58.1645 141.098 58.7477 141.451 59.2385C141.653 59.4938 141.911 59.6986 142.206 59.8366C142.501 59.9745 142.824 60.0418 143.149 60.0331C143.592 60.033 144.027 59.9137 144.408 59.6876C144.714 59.4816 144.981 59.2205 145.192 58.9176L149.635 59.3421C149.078 60.4366 148.222 61.3506 147.167 61.9779C146.212 62.5109 144.842 62.7775 143.055 62.7775C141.798 62.837 140.544 62.6038 139.393 62.0963C138.462 61.6008 137.694 60.8466 137.182 59.9246C136.577 58.8592 136.273 57.6496 136.303 56.425C136.267 55.5745 136.404 54.7256 136.706 53.9297C137.008 53.1339 137.469 52.4077 138.06 51.7952C139.232 50.6172 140.851 50.0282 142.917 50.0282C144.278 49.967 145.634 50.2398 146.866 50.8229C147.825 51.3409 148.6 52.1448 149.082 53.123C149.636 54.3527 149.896 55.6944 149.842 57.042L149.867 57.5603ZM145.301 55.3194C145.288 54.6132 145.041 53.9313 144.6 53.3796C144.379 53.1701 144.115 53.0102 143.827 52.9108C143.539 52.8113 143.233 52.7747 142.93 52.8032C142.627 52.8317 142.333 52.9247 142.069 53.0761C141.804 53.2274 141.575 53.4336 141.397 53.6807C141.083 54.1736 140.904 54.7405 140.879 55.3244L145.301 55.3194Z" fill="#4BA45E"/>
<path d="M160.666 57.7233L164.936 58.2169C164.725 59.0931 164.33 59.9143 163.776 60.6255C163.228 61.3116 162.522 61.8538 161.718 62.205C160.707 62.613 159.623 62.8047 158.534 62.7677C157.487 62.7921 156.443 62.6709 155.429 62.4074C154.638 62.1861 153.909 61.7859 153.297 61.2376C152.706 60.7054 152.229 60.0589 151.895 59.3373C151.526 58.4196 151.357 57.4332 151.402 56.4449C151.365 55.3667 151.576 54.2944 152.019 53.3106C152.632 52.1051 153.633 51.1416 154.862 50.5762C155.935 50.1658 157.08 49.9745 158.228 50.0135C160.14 50.0135 161.598 50.3705 162.601 51.0846C163.643 51.8523 164.39 52.9557 164.714 54.209L160.479 54.8259C160.382 54.3612 160.127 53.9444 159.758 53.6463C159.345 53.3636 158.851 53.2248 158.351 53.2514C158.007 53.2414 157.666 53.311 157.353 53.4548C157.041 53.5987 156.766 53.8129 156.55 54.0806C156.036 54.8149 155.792 55.7042 155.859 56.5979C155.802 57.4163 156.046 58.2273 156.545 58.8783C156.759 59.1299 157.026 59.3305 157.328 59.4654C157.629 59.6003 157.957 59.6662 158.287 59.6581C158.823 59.6687 159.346 59.4944 159.768 59.1645C160.208 58.7877 160.522 58.2845 160.666 57.7233V57.7233Z" fill="#4BA45E"/>
<path d="M175.716 57.7232L179.985 58.2168C179.774 59.0931 179.379 59.9143 178.825 60.6255C178.278 61.3116 177.571 61.8537 176.767 62.205C175.757 62.613 174.672 62.8047 173.583 62.7676C172.537 62.7921 171.492 62.6708 170.479 62.4073C169.693 62.1855 168.969 61.787 168.361 61.2425C167.77 60.7103 167.294 60.0638 166.96 59.3422C166.59 58.4245 166.422 57.4381 166.466 56.4498C166.429 55.3716 166.64 54.2993 167.083 53.3155C167.696 52.11 168.697 51.1465 169.926 50.5811C170.999 50.1707 172.144 49.9794 173.292 50.0184C175.204 50.0184 176.662 50.3754 177.665 51.0895C178.708 51.8572 179.454 52.9605 179.778 54.2138L175.543 54.8259C175.446 54.3612 175.192 53.9443 174.822 53.6462C174.41 53.3635 173.915 53.2248 173.416 53.2514C173.072 53.2413 172.73 53.3109 172.418 53.4548C172.105 53.5986 171.83 53.8128 171.614 54.0806C171.1 54.8148 170.856 55.7042 170.923 56.5978C170.866 57.4162 171.11 58.2273 171.609 58.8782C171.823 59.1298 172.091 59.3304 172.392 59.4653C172.693 59.6003 173.021 59.6661 173.351 59.6581C173.887 59.6687 174.41 59.4944 174.832 59.1645C175.267 58.7856 175.575 58.2826 175.716 57.7232V57.7232Z" fill="#4BA45E"/>
<defs>
<linearGradient id="paint0_linear" x1="17.848" y1="11.0598" x2="43.6574" y2="11.0598" gradientUnits="userSpaceOnUse">
<stop stop-color="#469154"/>
<stop offset="0.16" stop-color="#4C9453"/>
<stop offset="0.37" stop-color="#5C9E4F"/>
<stop offset="0.61" stop-color="#77AE49"/>
<stop offset="0.86" stop-color="#9DC340"/>
<stop offset="1" stop-color="#B4D13B"/>
</linearGradient>
<linearGradient id="paint1_linear" x1="37.5321" y1="64.5544" x2="12.5074" y2="21.2129" gradientUnits="userSpaceOnUse">
<stop stop-color="#FF7E01"/>
<stop offset="0.25" stop-color="#FF8204"/>
<stop offset="0.5" stop-color="#FF8F0C"/>
<stop offset="0.76" stop-color="#FFA31A"/>
<stop offset="1" stop-color="#FFBE2C"/>
</linearGradient>
</defs>
</svg>
