<svg x="0" y="0" width="250px" height="63px" overflow="inherit" viewBox="0, 0, 250, 63" preserveAspectRatio="xMidYMid" font-size="0" xml:space="default" xmlns="http://www.w3.org/2000/svg" xmlns:xlink="http://www.w3.org/1999/xlink" xmlns:xml="http://www.w3.org/XML/1998/namespace" version="1.1"><title xml:space="default">logo-nb</title><desc xml:space="default">Created with Sketch.</desc><defs xml:space="default" /><g fill-rule="evenOdd" id="Page-1" xml:space="default" style="fill:none;"><g transform="translate(0, -19)" id="Artboard" xml:space="default"><g transform="translate(0, 19)" id="logo-nb" xml:space="default"><path d="M21.04478 13.16418 C21.09702 5.798508 25.56716 0.8955224 31.08955 0.7462686 C36.61194 0.5970149 41.34328 5.552239 41.53731 11.59701 C41.57734 14.53874 40.80247 17.43416 39.29851 19.96269 C37.20149 23.73134 30.25373 30.76119 30.25373 30.76119 L27.61194 25.58955 C27.61194 25.58955 28.72388 24.00746 30.18657 22.24627 C32.08268 20.03672 33.61206 17.5373 34.71642 14.84328 C35.14526 13.85165 35.36379 12.78186 35.35821 11.70149 C35.27612 9.11194 33.47015 7.044776 31.26119 7.059701 C29.05224 7.074627 27.20149 9.201492 27.16418 11.73881 C27.06916 13.58449 27.56023 15.41295 28.56716 16.96269 C29.0597 17.70896 29.80597 19.10448 29.80597 19.10448 L25.91045 23.78358 C25.04324 22.65767 24.24334 21.48149 23.51493 20.26119 C21.96269 17.65672 21.02985 14.83582 21.02985 13.14925" id="Shape" xml:space="default" style="fill:#DD1F2A;" /><path d="M19.53731 20.08955 C17.85863 18.43283 15.79414 17.21978 13.52985 16.5597 C7.783582 14.97761 1.820896 18.16418 0.358209 23.60448 C-1.08938 29.37393 2.328051 35.24515 8.059702 36.83582 C10.83569 37.59978 13.76816 37.58688 16.53731 36.79851 C17.54934 36.54483 18.546 36.23338 19.52239 35.86567 L16.58955 30.29104 C16.58955 30.29104 15.32836 30.68657 14.46269 30.9403 C12.7184 31.45114 10.84763 31.30785 9.201492 30.53731 C6.850746 29.55224 5.61194 27.05224 6.432836 24.96269 C7.253731 22.87313 9.895522 21.85821 12.18657 22.72388 C13.35855 23.26395 14.43086 23.99817 15.35821 24.89552 C20.58209 29.37313 22.6194 37.23881 22.6194 37.23881 C22.6194 37.23881 15.90299 39.47761 13.47761 41.14179 C8.768657 44.43283 6.761194 50.20149 8.597015 55.04478 C9.926095 58.88082 13.49385 61.49123 17.55224 61.59702 C22.15503 61.5732 26.2928 58.78624 28.04478 54.52985 C29.40298 51.35821 29.72388 48.00746 29.79104 44.59702 C29.83298 35.37637 26.13301 26.53306 19.53731 20.08955 M21.97761 52.68657 C21.01493 54.3806 19.59702 55.42537 17.56716 55.29851 C16.0759 55.26192 14.77487 54.27639 14.33582 52.85075 C13.64179 50.92537 14.33582 49.35075 15.5 47.77612 C17.52239 45.05224 23.17164 43.62687 23.17164 43.62687 C23.17164 43.62687 23.3806 45.9403 23.3806 46.72388 C23.45119 48.80409 22.96422 50.86534 21.97015 52.69403" id="Shape#1" xml:space="default" style="fill:#DD1F2A;" /><path d="M33.87313 52.1791 C34.45176 54.4927 35.58371 56.63112 37.17164 58.41045 C41.24627 62.84328 47.95522 63.35075 52 59.50746 C56.18657 55.52985 56.31343 48.63433 52.24627 44.11194 C50.29145 41.96374 47.78923 40.3876 45.00746 39.55224 C44.02855 39.22509 43.03194 38.95352 42.02239 38.73881 L41.65672 45.0597 C41.65672 45.0597 42.93283 45.40298 43.79851 45.65672 C45.55583 46.16756 47.07088 47.29325 48.06717 48.82836 C49.5597 50.93283 49.32836 53.72388 47.5597 55.0597 C45.79105 56.39552 43.01493 55.80597 41.52985 53.84328 C40.81037 52.75446 40.2758 51.55421 39.94776 50.29105 C37.79105 43.65672 40.1194 35.8806 40.1194 35.8806 C40.1194 35.8806 47.00746 37.61194 49.90298 37.47761 C55.5597 37.24627 60.26119 33.43283 61.19403 28.3209 C62.04338 24.29117 60.34886 20.15099 56.91791 17.87313 C53.05452 15.41349 48.0825 15.55538 44.36567 18.23134 C41.58209 20.19403 39.58209 22.8806 37.77612 25.73881 C32.9746 33.65624 31.57519 43.17762 33.89552 52.14179 M48.55224 23.13433 C50.11623 22.12295 52.14298 22.18536 53.64179 23.29104 C54.89329 24.12409 55.48981 25.65117 55.13433 27.11194 C54.73881 29.1194 53.34328 30.09702 51.52985 30.80597 C48.41045 32.02985 42.87313 30.20149 42.87313 30.20149 C42.87313 30.20149 43.8806 28.1194 44.29105 27.45522 C45.29174 25.65397 46.76508 24.15999 48.55224 23.13433" id="Shape#2" xml:space="default" style="fill:#DD1F2A;" /><path d="M75.68657 57.92537 L69.33582 57.92537 C68.99675 57.9457 68.66369 57.82921 68.41121 57.60197 C68.15872 57.37474 68.00791 57.05575 67.99254 56.71642 L67.99254 51.09702 C68.03656 50.40184 68.63284 49.87218 69.32836 49.91045 L75.68657 49.91045 C76.38208 49.87218 76.97837 50.40184 77.02238 51.09702 L77.02238 56.71642 C76.97837 57.41159 76.38208 57.94125 75.68657 57.90298" id="Shape#3" xml:space="default" style="fill:#3C3E44;" /><path d="M91.35821 57.92537 L84.93284 57.92537 C84.59252 57.94778 84.25751 57.83223 84.00338 57.60478 C83.74925 57.37732 83.5974 57.05713 83.58209 56.71642 L83.58209 51.03731 C83.62611 50.34214 84.2224 49.81248 84.91791 49.85075 L91.34328 49.85075 C92.0388 49.81248 92.63509 50.34214 92.67911 51.03731 L92.67911 56.71642 C92.63509 57.41159 92.0388 57.94125 91.34328 57.90298" id="Shape#4" xml:space="default" style="fill:#3C3E44;" /><path d="M107.0672 57.92537 L100.6418 57.92537 C100.304 57.94363 99.97285 57.82621 99.72201 57.5992 C99.47118 57.37218 99.3214 57.05438 99.30597 56.71642 L99.30597 51.03731 C99.34999 50.34214 99.94627 49.81248 100.6418 49.85075 L107.0672 49.85075 C107.7627 49.81248 108.359 50.34214 108.403 51.03731 L108.403 56.71642 C108.359 57.41159 107.7627 57.94125 107.0672 57.90298" id="Shape#5" xml:space="default" style="fill:#3C3E44;" /><path d="M122.7836 57.92537 L116.3582 57.92537 C116.0204 57.94363 115.6893 57.82621 115.4384 57.5992 C115.1876 57.37218 115.0378 57.05438 115.0224 56.71642 L115.0224 51.03731 C115.0664 50.34214 115.6627 49.81248 116.3582 49.85075 L122.7836 49.85075 C123.4791 49.81248 124.0754 50.34214 124.1194 51.03731 L124.1194 56.71642 C124.0754 57.41159 123.4791 57.94125 122.7836 57.90298" id="Shape#6" xml:space="default" style="fill:#3C3E44;" /><path d="M138.5 57.92537 L132.0896 57.92537 C131.7492 57.94778 131.4142 57.83223 131.1601 57.60478 C130.906 57.37732 130.7541 57.05713 130.7388 56.71642 L130.7388 51.03731 C130.7599 50.70058 130.9142 50.38612 131.1677 50.16345 C131.4212 49.94078 131.7529 49.82825 132.0896 49.85075 L138.5149 49.85075 C139.2104 49.81248 139.8067 50.34214 139.8507 51.03731 L139.8507 56.71642 C139.8067 57.41159 139.2104 57.94125 138.5149 57.90298" id="Shape#7" xml:space="default" style="fill:#3C3E44;" /><path d="M154.2164 57.92537 L147.7612 57.92537 C147.0688 57.9465 146.4875 57.40836 146.4552 56.71642 L146.4552 51.03731 C146.4992 50.35425 147.0771 49.8292 147.7612 49.85075 L154.1866 49.85075 C154.8821 49.81248 155.4784 50.34214 155.5224 51.03731 L155.5224 56.71642 C155.4784 57.41159 154.8821 57.94125 154.1866 57.90298" id="Shape#8" xml:space="default" style="fill:#3C3E44;" /><path d="M169.9328 57.92537 L163.5075 57.92537 C163.1696 57.94363 162.8385 57.82621 162.5877 57.5992 C162.3368 57.37218 162.1871 57.05438 162.1716 56.71642 L162.1716 51.03731 C162.2157 50.34214 162.812 49.81248 163.5075 49.85075 L169.9328 49.85075 C170.6284 49.81248 171.2246 50.34214 171.2687 51.03731 L171.2687 56.71642 C171.2246 57.41159 170.6284 57.94125 169.9328 57.90298" id="Shape#9" xml:space="default" style="fill:#3C3E44;" /><path d="M185.6493 57.92537 L179.2239 57.92537 C178.8861 57.94363 178.5549 57.82621 178.3041 57.5992 C178.0533 57.37218 177.9035 57.05438 177.8881 56.71642 L177.8881 51.03731 C177.9321 50.34214 178.5284 49.81248 179.2239 49.85075 L185.6493 49.85075 C186.3448 49.81248 186.9411 50.34214 186.9851 51.03731 L186.9851 56.71642 C186.9411 57.41159 186.3448 57.94125 185.6493 57.90298" id="Shape#10" xml:space="default" style="fill:#3C3E44;" /><path d="M201.3657 57.92537 L194.9403 57.92537 C194.6025 57.94363 194.2714 57.82621 194.0205 57.5992 C193.7697 57.37218 193.6199 57.05438 193.6045 56.71642 L193.6045 51.03731 C193.6485 50.34214 194.2448 49.81248 194.9403 49.85075 L201.3657 49.85075 C202.0612 49.81248 202.6575 50.34214 202.7015 51.03731 L202.7015 56.71642 C202.6575 57.41159 202.0612 57.94125 201.3657 57.90298" id="Shape#11" xml:space="default" style="fill:#3C3E44;" /><path d="M217.0821 57.92537 L210.6567 57.92537 C210.3189 57.94363 209.9878 57.82621 209.7369 57.5992 C209.4861 57.37218 209.3363 57.05438 209.3209 56.71642 L209.3209 51.03731 C209.3649 50.34214 209.9612 49.81248 210.6567 49.85075 L217.0821 49.85075 C217.7776 49.81248 218.3739 50.34214 218.4179 51.03731 L218.4179 56.71642 C218.3739 57.41159 217.7776 57.94125 217.0821 57.90298" id="Shape#12" xml:space="default" style="fill:#3C3E44;" /><path d="M232.7985 57.92537 L226.3731 57.92537 C226.0353 57.94363 225.7042 57.82621 225.4534 57.5992 C225.2025 57.37218 225.0527 57.05438 225.0373 56.71642 L225.0373 51.03731 C225.0813 50.34214 225.6776 49.81248 226.3731 49.85075 L232.7985 49.85075 C233.494 49.81248 234.0903 50.34214 234.1343 51.03731 L234.1343 56.71642 C234.0903 57.41159 233.494 57.94125 232.7985 57.90298" id="Shape#13" xml:space="default" style="fill:#3C3E44;" /><path d="M248.5075 57.95522 L242.0896 57.95522 C241.394 57.99349 240.7977 57.46383 240.7537 56.76866 L240.7537 51.06717 C240.7977 50.37199 241.394 49.84233 242.0896 49.8806 L248.5075 49.8806 C249.203 49.84233 249.7993 50.37199 249.8433 51.06717 L249.8433 56.76119 C249.8032 57.45934 249.2057 57.9934 248.5075 57.95522" id="Shape#14" xml:space="default" style="fill:#3C3E44;" /><path d="M68.20895 6.328358 L78.47015 6.328358 L78.47015 8.082089 L70.20895 8.082089 L70.20895 12.50746 L74.39552 12.50746 C75.16782 12.49311 75.93782 12.59628 76.67911 12.81343 C77.27279 12.98933 77.82226 13.28951 78.29105 13.69403 C78.71774 14.07202 79.04565 14.54852 79.24627 15.08209 C79.46211 15.66972 79.56834 16.29195 79.5597 16.91791 C79.56937 17.53666 79.46307 18.15174 79.24627 18.73134 C79.04694 19.26864 78.72794 19.75352 78.31343 20.14925 C77.88442 20.54939 77.37584 20.85454 76.82089 21.04478 C76.1722 21.26403 75.49062 21.37006 74.80597 21.35821 L68.20895 21.35821 L68.20895 6.328358 z M70.20895 19.57463 L74.54478 19.57463 C74.92698 19.5768 75.30798 19.53168 75.67911 19.4403 C76.01094 19.36132 76.32161 19.21108 76.58955 19 C76.85474 18.78257 77.06234 18.50321 77.19403 18.18657 C77.35131 17.7853 77.42496 17.35612 77.41045 16.92537 C77.42245 16.49584 77.34361 16.06861 77.17911 15.67164 C77.0367 15.34472 76.81007 15.06145 76.52238 14.85075 C76.21088 14.63366 75.85763 14.48372 75.48508 14.41045 C75.02843 14.31676 74.56315 14.27173 74.09702 14.27612 L70.20895 14.27612 L70.20895 19.57463 z" id="Shape#15" xml:space="default" style="fill:#3C3E44;" /><path d="M80.41791 21.32836 L86.04478 6.097015 L88.48508 6.097015 L93.92538 21.32836 L91.68657 21.32836 L90.10448 16.73881 L84.20895 16.73881 L82.53732 21.32836 L80.41791 21.32836 z M89.55224 15.14925 L87.26865 8.477612 L84.73881 15.14925 L89.55224 15.14925 z" id="Shape#16" xml:space="default" style="fill:#3C3E44;" /><polygon points="95.77612,6.328358 97.76119,6.328358 97.76119,12.51493 105.7388,12.51493 105.7388,6.328358 107.7463,6.328358 107.7463,21.32836 105.7388,21.32836 105.7388,14.26866 97.76119,14.26866 97.76119,21.32836 95.76119,21.32836" id="Shape#17" xml:space="default" style="fill:#3C3E44;" /><polygon points="110.8657,6.328358 112.8657,6.328358 112.8657,13.63433 120.1493,6.328358 122.9478,6.328358 116.7015,12.3806 123.1194,21.33582 120.5448,21.33582 115.2612,13.77612 112.8358,16.11194 112.8358,21.33582 110.8358,21.33582" id="Shape#18" xml:space="default" style="fill:#3C3E44;" /><path d="M189.8806 25.23881 L200.1269 25.23881 C200.88 25.22853 201.6317 25.3087 202.3657 25.47761 C202.9559 25.61613 203.5237 25.83722 204.0522 26.13433 C204.9018 26.61411 205.5861 27.34002 206.0149 28.21642 C206.1996 28.59823 206.335 29.00196 206.4179 29.41791 C206.4953 29.80119 206.5353 30.19108 206.5373 30.58209 C206.5421 31.06096 206.4946 31.53892 206.3955 32.00746 C206.3073 32.41161 206.1562 32.7994 205.9478 33.15672 C205.7356 33.51228 205.4657 33.83006 205.1493 34.09702 C204.7902 34.39206 204.3968 34.64263 203.9776 34.84328 C204.6014 35.05875 205.1788 35.39047 205.6791 35.8209 C206.0793 36.17801 206.4107 36.60548 206.6567 37.08209 C206.8801 37.52075 207.0337 37.99159 207.1119 38.47761 C207.1852 38.93669 207.2227 39.40078 207.2239 39.86567 C207.2434 40.79126 207.0547 41.70939 206.6716 42.55224 C206.3128 43.31759 205.7784 43.98748 205.1119 44.50746 C204.3813 45.06241 203.5501 45.47044 202.6642 45.70895 C201.6212 45.99367 200.5437 46.13181 199.4627 46.1194 L189.8806 46.1194 L189.8806 25.23881 z M194.0746 33.44776 L199.4627 33.44776 C199.8321 33.44942 200.2004 33.40683 200.5597 33.3209 C200.8948 33.24329 201.2116 33.10136 201.4925 32.90298 C201.7642 32.7083 201.9866 32.45272 202.1418 32.15672 C202.3105 31.8163 202.3926 31.43946 202.3806 31.0597 C202.3961 30.67967 202.3219 30.30132 202.1642 29.95522 C202.0258 29.67771 201.8175 29.44107 201.5597 29.26866 C201.2881 29.09068 200.9836 28.96889 200.6642 28.91045 C200.3074 28.84342 199.9451 28.81093 199.5821 28.81343 L194.0821 28.81343 L194.0746 33.44776 z M194.0746 42.5 L199.5149 42.5 C199.9659 42.50385 200.4154 42.4461 200.8507 42.32836 C201.2343 42.22771 201.5943 42.05276 201.9104 41.81343 C202.2088 41.57955 202.4468 41.27759 202.6045 40.93283 C202.7771 40.5353 202.8612 40.10493 202.8507 39.67164 C202.8792 39.15688 202.7765 38.64332 202.5522 38.1791 C202.3687 37.83234 202.0955 37.54113 201.7612 37.33582 C201.42 37.13391 201.042 37.00199 200.6493 36.94776 C200.2317 36.88667 199.8101 36.85674 199.3881 36.85821 L194.0597 36.85816 L194.0746 42.5 z" id="Shape#19" xml:space="default" style="fill:#3C3E44;" /><polygon points="210.8955,25.23881 226.2239,25.23881 226.2239,28.83582 215.0821,28.83582 215.0821,33.47015 225.3284,33.47015 225.3284,37.08209 215.0821,37.08209 215.0821,42.35075 226.7164,42.35075 226.7164,46.12687 210.8955,46.12687" id="Shape#20" xml:space="default" style="fill:#3C3E44;" /><polygon points="230.4478,25.23881 234.8134,25.23881 234.8134,33.73881 242.7985,25.23881 248.4403,25.23881 239.9104,33.79105 248.9328,46.12687 243.403,46.12687 236.9403,36.87313 234.806,39.04478 234.806,46.1194 230.4478,46.1194" id="Shape#21" xml:space="default" style="fill:#3C3E44;" /><polygon points="68.28358,25.23881 72.66418,25.23881 72.66418,33.1791 80.87313,33.1791 80.87313,25.23881 85.23881,25.23881 85.23881,46.13433 80.87313,46.13433 80.87313,36.79105 72.66418,36.79105 72.66418,46.12687 68.28358,46.12687" id="Shape#22" xml:space="default" style="fill:#3C3E44;" /><path d="M88.54478 35.6791 C88.53188 34.20546 88.74326 32.73843 89.17164 31.32836 C89.55421 30.05658 90.19151 28.87592 91.04478 27.85821 C91.90315 26.86074 92.97765 26.0721 94.18657 25.55224 C95.5795 24.96836 97.07955 24.68361 98.58955 24.71642 C100.0263 24.69336 101.4513 24.97836 102.7687 25.55224 C103.99 26.08037 105.0823 26.86711 105.9701 27.85821 C106.8466 28.87991 107.5135 30.0641 107.9328 31.34328 C108.8601 34.16457 108.8601 37.20856 107.9328 40.02985 C107.513 41.30656 106.8461 42.4882 105.9701 43.50746 C105.0931 44.49421 104.0139 45.28067 102.806 45.81343 C101.4886 46.38731 100.0636 46.67232 98.62687 46.64925 C97.11687 46.68206 95.61681 46.39731 94.22388 45.81343 C93.00151 45.29848 91.91382 44.50953 91.04478 43.50746 C90.18974 42.48535 89.55235 41.29945 89.17164 40.02239 C88.74423 38.61466 88.53287 37.15024 88.54478 35.6791 z M98.58955 42.86567 C99.41719 42.88112 100.2364 42.69681 100.9776 42.32836 C101.6767 41.97119 102.2864 41.46104 102.7612 40.83582 C103.2681 40.16427 103.6475 39.40545 103.8806 38.59702 C104.3914 36.71312 104.3914 34.72718 103.8806 32.84328 C103.6475 32.03485 103.2681 31.27603 102.7612 30.60448 C102.2864 29.97926 101.6767 29.46911 100.9776 29.11194 C99.46716 28.39113 97.71194 28.39113 96.20149 29.11194 C95.50237 29.46911 94.89273 29.97926 94.41791 30.60448 C93.91288 31.27717 93.53365 32.03564 93.29851 32.84328 C92.77702 34.72575 92.77702 36.71455 93.29851 38.59702 C93.53365 39.40466 93.91288 40.16313 94.41791 40.83582 C94.89273 41.46104 95.50237 41.97119 96.20149 42.32836 C96.94435 42.70056 97.76625 42.88747 98.59702 42.87313 L98.58955 42.86567 z" id="Shape#23" xml:space="default" style="fill:#3C3E44;" /><path d="M112.291 25.23881 L122.5373 25.23881 C123.2905 25.22838 124.0421 25.30856 124.7761 25.47761 C125.3664 25.61613 125.9342 25.83722 126.4627 26.13433 C127.3123 26.61411 127.9965 27.34002 128.4254 28.21642 C128.6103 28.59811 128.7458 29.00188 128.8284 29.41791 C128.9062 29.80112 128.9462 30.19106 128.9478 30.58209 C128.9529 31.06098 128.9054 31.53897 128.806 32.00746 C128.7174 32.4115 128.5663 32.79924 128.3582 33.15672 C128.1618 33.50837 127.9098 33.82591 127.6119 34.09702 C127.253 34.39223 126.8596 34.64282 126.4403 34.84328 C127.0483 35.06379 127.6101 35.39528 128.097 35.8209 C128.5094 36.1798 128.8511 36.6126 129.1045 37.09702 C129.3282 37.53553 129.4818 38.00643 129.5597 38.49254 C129.6334 38.95156 129.6708 39.41569 129.6716 39.8806 C129.682 40.79728 129.4883 41.70478 129.1045 42.53731 C128.7456 43.30267 128.2112 43.97256 127.5448 44.49254 C126.812 45.04835 125.9781 45.45641 125.0896 45.69403 C124.0466 45.97884 122.9691 46.11698 121.8881 46.10448 L112.291 46.10448 L112.291 25.23881 z M116.4851 33.4478 L121.8731 33.44776 C122.2426 33.44935 122.6108 33.40676 122.9701 33.3209 C123.3053 33.24365 123.6222 33.10169 123.903 32.90298 C124.1749 32.7085 124.3972 32.45288 124.5522 32.15672 C124.721 31.8163 124.803 31.43946 124.791 31.0597 C124.8045 30.67905 124.7277 30.30061 124.5672 29.95522 C124.4291 29.67752 124.2207 29.44081 123.9627 29.26866 C123.6911 29.09068 123.3866 28.96889 123.0672 28.91045 C122.7104 28.84342 122.3481 28.81093 121.9851 28.81343 L116.4851 28.81343 L116.4851 33.4478 z M116.4851 42.5 L121.9254 42.5 C122.3764 42.50385 122.8258 42.4461 123.2612 42.32836 C123.6447 42.22771 124.0048 42.05276 124.3209 41.81343 C124.6195 41.57976 124.8575 41.27774 125.0149 40.93283 C125.189 40.53574 125.2731 40.10506 125.2612 39.67164 C125.2897 39.15688 125.1869 38.64332 124.9627 38.1791 C124.7791 37.83234 124.506 37.54113 124.1716 37.33582 C123.831 37.1328 123.4527 37.0008 123.0597 36.94776 C122.6446 36.88696 122.2255 36.85702 121.806 36.85821 L116.4776 36.85817 L116.4851 42.5 z" id="Shape#24" xml:space="default" style="fill:#3C3E44;" /><path d="M133.306 25.23881 L137.6716 25.23881 L137.6716 33.44776 L141.8358 33.44776 L143.0373 33.44776 C143.5647 33.47326 144.0889 33.54316 144.6045 33.65672 C145.1831 33.78078 145.7462 33.96849 146.2836 34.21642 C146.8442 34.48416 147.3503 34.8536 147.7761 35.30597 C148.2623 35.82297 148.6404 36.4319 148.8881 37.09702 C149.1945 37.95601 149.3387 38.86445 149.3134 39.77612 C149.3384 40.68046 149.1941 41.58149 148.8881 42.43283 C148.6412 43.09106 148.2715 43.69633 147.7985 44.21642 C147.3755 44.67005 146.8687 45.03751 146.306 45.29851 C145.8067 45.53635 145.284 45.72143 144.7463 45.85075 C144.2885 45.963 143.8213 46.03294 143.3507 46.0597 L142.4179 46.0597 L133.306 46.0597 L133.306 25.23881 z M137.6716 42.53732 L141.403 42.53731 C141.8148 42.53758 142.2262 42.51015 142.6343 42.45522 C143.0416 42.40166 143.436 42.27527 143.7985 42.08209 C144.1617 41.88676 144.4638 41.59494 144.6716 41.23881 C144.9194 40.78165 145.038 40.26571 145.0149 39.74627 C145.0438 39.21052 144.9278 38.67688 144.6791 38.20149 C144.4678 37.82368 144.1516 37.51521 143.7687 37.31343 C143.3898 37.11752 142.9769 36.99593 142.5522 36.95522 C142.1011 36.90658 141.6478 36.88167 141.194 36.8806 L137.6716 36.8806 L137.6716 42.53732 z M152.1642 25.23881 L156.5298 25.23881 L156.5298 46.13433 L152.1642 46.13433 L152.1642 25.23881 z" id="Shape#25" xml:space="default" style="fill:#3C3E44;" /><polygon points="160.4478,25.23881 164.6418,25.23881 164.6418,39.46269 164.7015,39.46269 172.9702,25.23881 177.3881,25.23881 177.3881,46.13433 173.1343,46.13433 173.1343,31.98507 173.1343,31.98507 164.8507,46.12687 160.4478,46.12687" id="Shape#26" xml:space="default" style="fill:#3C3E44;" /><polygon points="168.9328,27.38806 166.3657,27.38806 168.5597,23.20149 171.6418,23.20149" id="Shape#27" xml:space="default" style="fill:#3C3E44;" /></g></g></g></svg>