<?xml version="1.0" encoding="utf-8"?>
<!-- Generator: Adobe Illustrator 24.0.1, SVG Export Plug-In . SVG Version: 6.00 Build 0)  -->
<svg version="1.1" id="Слой_1" xmlns="http://www.w3.org/2000/svg" xmlns:xlink="http://www.w3.org/1999/xlink" x="0px" y="0px"
	 width="250px" height="39px" viewBox="0 0 250 39" style="enable-background:new 0 0 250 39;" xml:space="preserve">
<style type="text/css">
	.st0{fill-rule:evenodd;clip-rule:evenodd;fill:#0D47A1;}
</style>
<g>
	<path class="st0" d="M95,9.3H82V30h8.2c1.8,0,3.6-0.2,5.1-1.7c1-1,1.7-2.6,1.7-4.6c0-2.6-1.2-4-2.1-4.8c-1.6-1.2-3.7-1.3-5.3-1.3
		h-3.7v-5.3H95C95,12.3,95,9.3,95,9.3z M85.8,20.6H89c0.7,0,2,0,2.9,0.8c0.6,0.5,0.9,1.4,0.9,2.5c0,0.9-0.4,1.7-0.9,2.2
		C91,26.9,89.8,27,89.2,27h-3.4C85.8,27,85.8,20.6,85.8,20.6z M108.1,9.3h-4.3L97.1,30h3.4l1.7-5.4h7l1.7,5.4h4.1L108.1,9.3
		L108.1,9.3z M108.3,21.7h-5.4l2.4-7.6l0.3-1.1l0.1,0l0.3,1.1L108.3,21.7L108.3,21.7z M131,9.3h-3.9v8.4h-7.3V9.3h-3.9V30h3.9v-9.3
		h7.3V30h3.9C131,30,131,9.3,131,9.3z M137.7,17.6V9.3h-3.9V30h3.9v-9.3h1.4c2.1,0,2.9,0.5,3.4,1.6c0.4,0.8,0.6,1.8,1.1,3.6
		c0.4,1.4,0.7,2.4,1.2,3c1,1.3,2.3,1.4,3.2,1.4c0.6,0,1.2-0.1,1.6-0.2v-2.7c-0.1,0-0.2,0-0.2,0c-1.2,0-1.5-0.6-1.7-1.2
		c-0.5-1.6-0.7-2.1-0.9-2.7c-0.4-1.2-0.7-1.9-1-2.4c-0.5-0.9-1.4-1.8-3.1-2v-0.1c1-0.2,1.8-0.8,2.3-1.6c0.7-1.1,0.7-2.2,1.3-4.1
		c0.4-1.2,1-1.3,1.9-1.3h0.4V9.2c-0.4-0.1-0.8-0.2-1.2-0.2c-1,0-1.7,0.1-2.5,0.6c-0.8,0.5-1.3,1.2-1.6,2c-0.5,1.1-0.4,1.6-1,3.4
		c-0.3,0.8-0.6,1.5-1.4,2.1c-0.7,0.4-1.2,0.5-2,0.5H137.7z M8.4,29.2c0-3,6-5.8,13.3-5.8c7.3,0,13.3,2.9,13.3,5.8
		c0,3-6,5.8-13.3,5.8C14.4,35.1,8.4,32.2,8.4,29.2z M32.7,20.9c-3.6-0.8-7.3-1.2-11-1.3C10,19.7,0,24,0,29.1s10.3,9.6,21.7,9.6
		c3.9,0,7.6-0.4,11.4-1.5c3.9,1.1,7.3,1.5,11,1.5c5.4,0,10.6-0.7,15.6-2.8c2.1-1,3.8-2.1,5.3-3.9c0.6-1,1-1.7,1-2.9v-3.3
		C65.4,31.5,54.2,35,44.4,35c-1.7,0-3.5,0-5.2-0.3c1-0.6,2.1-1.4,2.9-2.3c0.8,0,1.2,0,2,0c5.4,0,10.6-0.7,15.6-2.8
		c2.1-1,3.8-2.1,5.3-3.9c0.6-1,1-1.7,1-2.9v-3.3c-0.5,5.7-11.7,9.2-21.5,9.2c-0.4,0-0.6,0-1,0c-0.2-1-0.5-1.6-1.3-2.6
		c0.6,0,1.3,0,1.9,0c5.4,0,10.6-0.7,15.6-2.8c2.1-1,3.8-2.1,5.3-3.9c0.6-1,1-1.7,1-2.9v-3.3c-0.5,5.7-11.7,9.2-21.5,9.2
		C40.4,22.4,36.6,21.8,32.7,20.9z"/>
	<path class="st0" d="M57.5,9.8c0,3-6,5.8-13.3,5.8s-13.3-2.9-13.3-5.8c0-3,6-5.8,13.3-5.8S57.5,6.8,57.5,9.8L57.5,9.8z M33.2,18.1
		c3.6,0.8,7.3,1.2,11,1.3c11.7,0,21.7-4.3,21.7-9.4c0-5.1-10.3-9.6-21.7-9.6c-3.9,0-7.6,0.4-11.4,1.5c-3.9-1.1-7.3-1.5-11-1.5
		C16.5,0.3,11.3,1,6.3,3.1C4.2,4,2.5,5.1,1,7c-0.6,1-1,1.7-1,2.9v3.3C0.5,7.5,11.7,4,21.5,4c1.7,0,3.5,0,5.2,0.3
		c-1,0.6-2.1,1.4-2.9,2.3c-0.8,0-1.2,0-2,0c-5.4,0-10.6,0.7-15.6,2.8c-2.1,1-3.8,2.1-5.3,3.9c-0.6,1-1,1.7-1,2.9v3.3
		c0.5-5.7,11.7-9.2,21.5-9.2c0.4,0,0.6,0,1,0c0.2,1,0.5,1.6,1.3,2.6c-0.6,0-1.3,0-1.9,0c-5.4,0-10.6,0.7-15.6,2.8
		c-2.1,1-3.8,2.1-5.3,3.9c-0.6,1-1,1.7-1,2.9v3.3c0.5-5.7,11.7-9.2,21.5-9.2C25.5,16.6,29.3,17.2,33.2,18.1L33.2,18.1z M154.1,30
		h6.5V14.1h4.2V30h6.5V9.3h-17.1V30z M225.4,30h5.9V9.3h-8.4l-2.8,9.9l-0.3,1.4h-0.2l-0.2-1.3L217,9.3h-8.2V30h5V16.4l-0.1-1.3
		l0.2-0.1l0.2,0.9l3.7,14h3.6l3.8-14l0.2-1l0.2,0.1l-0.1,1.4L225.4,30z M198.5,17.8h-1.6v-4h1.6c0.5,0,1.4,0,2,0.6
		c0.3,0.4,0.5,0.9,0.5,1.4c0,0.6-0.3,1.1-0.6,1.4C199.8,17.8,198.9,17.8,198.5,17.8L198.5,17.8z M198.2,9.3h-7.7V30h6.5v-7.5h2.2
		c2.2,0,5.5-0.2,7.4-3.1c0.9-1.4,0.5-3,0.5-3.6c0-3.1-1.3-4.7-2.7-5.5C202.4,9.3,200.1,9.3,198.2,9.3L198.2,9.3z M180.2,21.6h5.9
		v-4.5h-5.9v-3.1h7.7V9.3h-14.1V30h14.6V25h-8.1V21.6z M243.1,24.8c-0.5,0.5-1.1,0.5-1.5,0.5h-1.9v-3.7h1.9c0.6,0,1.1,0.1,1.5,0.6
		c0.4,0.4,0.4,0.8,0.4,1.3S243.4,24.4,243.1,24.8 M248.8,19.4c-1.6-2.1-4.2-2.3-5.8-2.3h-3.3V9.3h-6.2V30h9.3c1.7,0,3.8-0.2,5.4-1.8
		c1.2-1.2,1.8-3,1.8-4.9C250,21.1,249.1,19.8,248.8,19.4"/>
</g>
</svg>
