<svg width="182" height="72" viewBox="0 0 182 72" fill="none" xmlns="http://www.w3.org/2000/svg">
<path d="M121.624 16.8747V47.6377C121.624 48.1004 121.253 48.4718 120.79 48.4718H114.507C114.044 48.4718 113.673 48.1004 113.673 47.6377V16.8747C113.673 16.412 114.044 16.0406 114.507 16.0406H120.79C121.253 16.0406 121.624 16.412 121.624 16.8747ZM170.591 16.0406H163.559C163.194 16.0406 162.865 16.2781 162.761 16.6251L157.197 34.8041L151.084 16.6068C150.969 16.2659 150.652 16.0406 150.293 16.0406H145.386C145.026 16.0406 144.705 16.2719 144.595 16.6068L138.483 34.8041L132.917 16.6251C132.808 16.2781 132.486 16.0406 132.12 16.0406H125.089C124.82 16.0406 124.564 16.1685 124.412 16.3877C124.254 16.6008 124.212 16.8808 124.297 17.1365L134.623 47.9117C134.738 48.2525 135.054 48.4778 135.414 48.4778H140.997C141.356 48.4778 141.678 48.2464 141.788 47.9117L147.846 29.9335L153.904 47.9117C154.019 48.2525 154.335 48.4778 154.695 48.4778H160.278C160.637 48.4778 160.959 48.2464 161.069 47.9117L171.394 17.1365C171.479 16.8808 171.437 16.6068 171.279 16.3877C171.114 16.1685 170.858 16.0406 170.591 16.0406ZM181.165 16.0406H174.883C174.42 16.0406 174.049 16.412 174.049 16.8747V47.6377C174.049 48.1004 174.42 48.4718 174.883 48.4718H181.165C181.628 48.4718 182 48.1004 182 47.6377V16.8747C182 16.412 181.628 16.0406 181.165 16.0406ZM110.032 47.4186C110.398 47.8264 110.099 48.4778 109.545 48.4778H101.844C101.534 48.4778 101.235 48.3378 101.034 48.1004L99.7317 46.5296C97.0712 48.2526 93.9054 49.2571 90.5083 49.2571C81.1326 49.2571 73.5104 41.6287 73.5104 32.2592C73.5104 22.8897 81.1387 15.2614 90.5083 15.2614C99.8838 15.2614 107.506 22.8897 107.506 32.2592C107.506 35.6382 106.514 38.7857 104.803 41.4339L110.032 47.4186ZM94.7699 40.5634L91.3971 36.5087C91.044 36.0825 91.3484 35.4372 91.8963 35.4372H98.9524C99.2872 34.4388 99.4759 33.3672 99.4759 32.2592C99.4759 27.1757 95.6953 22.7984 90.5021 22.7984C85.309 22.7984 81.5284 27.1818 81.5284 32.2592C81.5284 37.3428 85.309 41.6592 90.5021 41.6592C92.085 41.6592 93.5219 41.2573 94.7699 40.5634ZM54.2173 47.2602C54.406 48.5448 54.0042 49.0744 53.5963 49.0744C53.1519 49.0744 52.5979 48.557 51.9404 47.5281C51.289 46.5175 51.0515 45.3547 51.3742 44.7702C51.5873 44.3806 52.0317 44.2101 52.5918 44.4232C53.6815 44.8372 54.1077 46.4992 54.2173 47.2602ZM48.2144 50.0547C49.5174 51.1565 49.913 52.4655 49.2251 53.3848C48.8416 53.8901 48.2205 54.1702 47.4778 54.1702C46.7473 54.1702 46.0045 53.9023 45.487 53.4518C44.3059 52.4168 43.9589 50.7426 44.7261 49.7868C45.0304 49.4154 45.5175 49.2084 46.108 49.2084C46.8203 49.2145 47.5691 49.5128 48.2144 50.0547ZM46.0349 60.6784C51.6421 60.6784 57.724 62.6021 64.4574 68.5684C65.1332 69.1651 66.0282 68.4223 65.4437 67.6796C58.826 59.3267 52.7074 57.7377 46.6011 56.3923C39.1372 54.7485 35.2956 50.5478 32.6168 45.933C32.0872 45.0137 31.8437 45.1781 31.795 46.3592C31.734 47.8021 31.8376 49.7137 32.1602 51.5889C31.8619 51.601 31.5575 51.601 31.2532 51.601C20.5747 51.601 11.9114 42.9438 11.9114 32.2592C11.9114 21.5747 20.5685 12.9174 31.2532 12.9174C41.9316 12.9174 50.5949 21.5747 50.5949 32.2592C50.5949 33.0202 50.5583 33.7691 50.4731 34.5057C49.0607 34.25 46.2784 34.2196 44.3303 34.39C43.5998 34.4509 43.6971 34.7979 44.2572 34.8954C50.6497 36.0521 55.0453 40.0154 56.0437 47.1993C56.0681 47.3637 56.2811 47.4124 56.3664 47.2724C58.9964 42.8829 60.5062 37.7446 60.5062 32.2532C60.5123 16.0954 47.4108 3 31.2532 3C15.0954 3 2 16.0954 2 32.2532C2 48.4108 15.0954 61.5124 31.2532 61.5124C35.5452 61.5124 39.7947 60.6784 46.0349 60.6784Z" fill="#FF8C00"/>
</svg>
