<svg width="130" height="50" viewBox="0 0 130 50" fill="none" xmlns="http://www.w3.org/2000/svg">
<path d="M0.899902 0H129.1V50H0.899902V0Z" fill="url(#paint0_linear)"/>
<path d="M83.7001 15.7L88.8001 2C88.8001 2 89.0001 1.5 89.4001 1.5H92.4001C93.3001 1.5 94.3001 2.2 94.3001 3.1V8.5L99.0001 1.9C99.0001 1.9 99.2001 1.5 99.9001 1.5H103.8C104.3 1.5 104.6 1.8 104.4 2.3C103.6 4.6 101.2 11.4 100.8 12.5C100.3 13.8 101.4 15.3 104.4 13.9C105.6 13.5 104.6 14.7 104.4 14.8C103.4 15.7 101.8 16.7 99.6001 16.7C98.6001 16.7 94.8001 16.4 98.8001 6.7C97.7001 8.4 92.9001 16.1 91.6001 16.1C90.4001 16.1 91.1001 11.5 91.0001 7.1C90.5001 9 88.8001 14 87.9001 15.6C87.7001 15.9 87.6001 16.1 87.3001 16.1H83.8001C83.5001 16 83.7001 15.7 83.7001 15.7Z" fill="white"/>
<path d="M109.2 18.9C109.2 18.9 112.5 8.79995 113.6 6.69995C114.6 4.69995 115.9 2.49995 117.4 2.49995C118.9 2.49995 118.8 3.09995 119.3 2.99995C120.1 2.89995 119.9 1.19995 116.8 1.19995C113.7 1.19995 111.4 2.79995 109.9 6.19995C108.4 9.59995 103.6 23.5 102.9 25.4C102.2 27.2999 100.1 29.9 98.1001 29.9C96.1001 29.9 95.5001 27.8 95.7001 26.1C96.0001 23.4 98.7001 20.5 101.1 19.7C103.5 19 103.3 17.2999 100.8 17.9C98.3001 18.4 91.8001 20.8 91.8001 26.2C91.8001 31.6 98.6001 33.2999 101 30.2999C99.8001 34.0999 99.5001 35.5 98.2001 38.5999C97.0001 41.5999 95.3001 47.2 93.8001 47.2C92.3001 47.2 91.6001 47.0999 91.0001 46.7999C90.4001 46.3999 89.5001 47.5 90.6001 47.9C91.7001 48.3 95.0001 49.6 97.0001 47.9C98.9001 46.2 101.9 39.7999 103.3 35.2999C104.7 30.7999 106.5 26.1 107.7 23.4C108.9 20.6999 110.2 19.2999 111.8 19.2999C113.4 19.2999 114.8 21.3 114.2 24.1C113.7 26.8 110.6 29.1999 108.4 29.2999C106.2 29.5 106.8 31.4 108.9 31C111 30.6 114.2 29.5 115.8 28.1C117.3 26.7 118.3 24.9 118.2 21.9C118.1 19.1 115.5 17.2999 113 17.2999C110.5 17.2999 109.2 18.9 109.2 18.9Z" fill="white"/>
<path d="M112.5 39.0999L118 33.5999C118.1 33.4999 118.3 33.3999 118.5 33.3999H122.5C122.6 33.3999 122.6 33.4999 122.5 33.4999L115.2 40.3999L120.6 48.0999C120.6 48.0999 120.6 48.1999 120.5 48.1999H116.5C116.3 48.1999 116.1 48.0999 116 47.8999L112.5 42.4999C112.5 42.4999 111.4 42.9999 110.4 44.7999C109.7 46.0999 109.2 47.3999 109.1 47.8999C109.1 47.9999 108.9 48.0999 108.8 48.0999H105C104.9 48.0999 104.8 47.9999 104.9 47.8999C105.4 46.5999 108.4 38.5999 108.9 37.2999C109.5 35.7999 108.2 33.7999 106.4 34.4999C105.1 34.9999 104.9 34.2999 105.8 33.7999C106.7 33.2999 107.8 32.8999 110.1 32.8999C111.2 32.8999 113.6 33.6999 113.1 35.9999C112.7 38.3999 112.5 39.0999 112.5 39.0999Z" fill="white"/>
<defs>
<linearGradient id="paint0_linear" x1="0.897302" y1="25" x2="129.103" y2="25" gradientUnits="userSpaceOnUse">
<stop stop-color="#C94B28"/>
<stop offset="1" stop-color="#7A1831"/>
</linearGradient>
</defs>
</svg>
