<?xml version="1.0" encoding="utf-8"?>
<!-- Generator: Adobe Illustrator 24.0.1, SVG Export Plug-In . SVG Version: 6.00 Build 0)  -->
<svg version="1.1" id="Слой_1" xmlns="http://www.w3.org/2000/svg" xmlns:xlink="http://www.w3.org/1999/xlink" x="0px" y="0px"
	 width="250px" height="67px" viewBox="0 0 250 67" style="enable-background:new 0 0 250 67;" xml:space="preserve">
<style type="text/css">
	.st0{fill:#000044;}
	.st1{fill:#1C1C1C;}
</style>
<g>
	<path class="st0" d="M29.4,13.5h5.7c0,7.9,0,12.4,0,20.1V34c0,1.6,1,3.6,2,4.6c4.4,4.4,12.2,1.2,12.2-5.2c0-7.1-9.1-9.9-13-4.4l0,0
		v-7.2c8.2-4.2,18.7,1.6,18.7,11.5c0,3.5-1.4,6.7-3.7,9.1c-2.4,2.4-5.6,3.7-9.1,3.9c-8,0-12.7-6.5-12.7-13.1L29.4,13.5L29.4,13.5z
		 M0,64.9h5.7v1.7H0V64.9z M0,60.7h5.7v2.6H0V60.7z M0,54.7h5.7v4.4H0V54.7z M5.9,33c0-1.6,1-3.6,2-4.6C12.3,24,20,27.1,20,33.6
		c0,7.1-9.1,9.9-13,4.4l0,0v7.2c8.2,4.2,18.7-1.6,18.7-11.6c0-3.5-1.4-6.7-3.7-9.1s-5.6-3.7-9.1-3.9C4.6,20.5-0.1,27.4,0,34v19.4
		h5.9c0-8,0-12.2,0-20.1V33L5.9,33z M29.4,2.1h5.7V0.4h-5.7V2.1z M29.4,6.3h5.7V3.6h-5.7V6.3z M29.4,12.3h5.7V7.9h-5.7V12.3z"/>
	<path class="st1" d="M80.3,30.1c0,0.1,0,0.1,0,0.2c0,0.1-0.1,0.1-0.2,0.1s-0.2,0.1-0.4,0.1c-0.2,0-0.5,0-0.6,0c-0.2,0-0.4,0-0.6,0
		c-0.1,0-0.2,0-0.4-0.1c-0.1,0-0.1-0.1-0.2-0.1c0,0-0.1-0.1-0.1-0.2V18.6l0,0l-4,11.5c0,0.1-0.1,0.1-0.1,0.2
		c-0.1,0.1-0.1,0.1-0.2,0.1s-0.2,0.1-0.4,0.1c-0.1,0-0.4,0-0.6,0s-0.5,0-0.6,0s-0.2,0-0.4-0.1c-0.1,0-0.2-0.1-0.2-0.1
		s-0.1-0.1-0.1-0.2L67,18.6l0,0v11.5c0,0.1,0,0.1,0,0.2c0,0.1-0.1,0.1-0.2,0.1c-0.1,0-0.2,0.1-0.4,0.1c-0.2,0-0.4,0-0.6,0
		s-0.4,0-0.6,0c-0.1,0-0.2,0-0.4-0.1c-0.1,0-0.1-0.1-0.2-0.1c0,0,0-0.1,0-0.2V17.6c0-0.1,0-0.2,0-0.5c0-0.1,0.1-0.2,0.2-0.4
		c0.1-0.1,0.2-0.1,0.4-0.2c0.1,0,0.2-0.1,0.4-0.1h1.9c0.2,0,0.6,0,0.9,0.1c0.2,0,0.4,0.1,0.6,0.2c0.1,0.1,0.4,0.2,0.4,0.5
		c0.1,0.2,0.2,0.5,0.2,0.7l3,8.4l0,0l3.1-8.4c0.1-0.2,0.1-0.5,0.2-0.7s0.2-0.4,0.4-0.5c0.1-0.1,0.4-0.2,0.5-0.2
		c0.2,0,0.5-0.1,0.7-0.1h1.9c0.1,0,0.4,0,0.5,0.1c0.1,0,0.2,0.1,0.4,0.2s0.1,0.2,0.2,0.4c0,0.1,0.1,0.4,0.1,0.5L80.3,30.1z"/>
	<path class="st1" d="M90,26.6c-0.2,0.7-0.6,1.4-0.9,2c-0.2,0.5-0.6,0.9-1,1.2c-0.4,0.2-0.7,0.5-1.1,0.6c-0.5,0.1-1,0.1-1.4,0.1
		c-0.2,0-0.4,0-0.6,0c-0.1,0-0.4,0-0.5-0.1c-0.1,0-0.2-0.1-0.4-0.1s-0.2-0.1-0.2-0.1l-0.1-0.1c0-0.1-0.1-0.1-0.1-0.2
		c0-0.1,0-0.2,0-0.4s0-0.4,0-0.6c0-0.2,0-0.6,0.1-0.9c0.1-0.1,0.1-0.2,0.2-0.2s0.1,0,0.2,0.1c0.1,0,0.1,0.1,0.2,0.1
		c0.1,0,0.2,0.1,0.4,0.1c0.1,0,0.4,0.1,0.5,0.1s0.2,0,0.4,0c0.1,0,0.2-0.1,0.4-0.2c0.1-0.1,0.2-0.2,0.4-0.4c0.1-0.2,0.2-0.4,0.4-0.6
		l-4.6-9.5c-0.1-0.1-0.1-0.4-0.1-0.5v-0.1c0,0,0-0.1,0.1-0.1c0.1-0.1,0.2-0.1,0.4-0.1c0.2,0,0.5,0,0.9,0c0.4,0,0.6,0,0.7,0
		c0.1,0,0.4,0,0.5,0.1c0.1,0,0.2,0.1,0.2,0.2c0.1,0.1,0.1,0.2,0.2,0.4l2,4.2c0.2,0.5,0.4,0.9,0.6,1.4c0.2,0.5,0.4,0.9,0.5,1.4l0,0
		c0.1-0.5,0.2-1,0.5-1.4c0.1-0.5,0.4-1,0.5-1.5l1.6-4.4c0-0.1,0.1-0.1,0.1-0.2c0.1-0.1,0.1-0.1,0.2-0.1c0.1,0,0.4-0.1,0.5-0.1
		c0.2,0,0.5,0,0.7,0c0.2,0,0.5,0,0.7,0c0.1,0,0.2,0,0.4,0.1l0.1,0.1V17c0,0.1,0,0.2-0.1,0.4L90,26.6z"/>
	<path class="st1" d="M106.4,30.1c0,0.1,0,0.1-0.1,0.2c0,0-0.1,0-0.2,0c-0.1,0-0.2,0.1-0.4,0.1c-0.2,0-0.5,0-0.6,0
		c-0.2,0-0.5,0-0.7,0c-0.1,0-0.2,0-0.4-0.1c-0.1,0-0.1-0.1-0.2-0.1c0,0-0.1-0.1-0.1-0.2v-5.6h-5.2V30c0,0.1,0,0.1-0.1,0.2
		c0,0.1-0.1,0.1-0.2,0.1c-0.1,0-0.2,0.1-0.4,0.1c-0.2,0-0.5,0-0.7,0s-0.5,0-0.7,0c-0.1,0-0.2,0-0.4-0.1c-0.1,0-0.1-0.1-0.2-0.1
		c0,0-0.1-0.1-0.1-0.2V16.8c0-0.1,0-0.1,0.1-0.2c0-0.1,0.1-0.1,0.2-0.1s0.2-0.1,0.4-0.1c0.2,0,0.5,0,0.7,0s0.5,0,0.7,0
		c0.1,0,0.2,0,0.4,0.1c0.1,0,0.1,0.1,0.2,0.1c0,0,0.1,0.1,0.1,0.2v5.1h5.2v-5.1c0-0.1,0-0.1,0.1-0.2c0-0.1,0.1-0.1,0.2-0.1
		c0.1,0,0.2-0.1,0.4-0.1c0.2,0,0.5,0,0.7,0s0.5,0,0.6,0c0.1,0,0.2,0,0.4,0.1c0.1,0,0.1,0.1,0.2,0.1c0,0,0.1,0.1,0.1,0.2V30.1z"/>
	<path class="st1" d="M120.7,30.1c0,0.1,0,0.1-0.1,0.2c0,0,0,0-0.1,0c-0.1,0-0.2,0.1-0.4,0.1s-0.4,0-0.7,0c-0.2,0-0.5,0-0.6,0
		c-0.1,0-0.2,0-0.4-0.1c-0.1,0-0.1-0.1-0.2-0.1c0,0-0.1-0.1-0.1-0.2v-7.4c0-0.2,0-0.5,0-0.9c0-0.2,0-0.5,0-0.7l0,0
		c0,0.1-0.1,0.2-0.2,0.4c-0.1,0.1-0.1,0.2-0.2,0.4l-0.2,0.5c-0.1,0.1-0.2,0.2-0.2,0.5l-4.9,7.2c0,0.1-0.1,0.1-0.1,0.2
		c-0.1,0-0.1,0.1-0.2,0.1c-0.1,0-0.2,0-0.4,0.1c-0.1,0-0.4,0-0.5,0c-0.2,0-0.5,0-0.6,0c-0.1,0-0.2,0-0.4-0.1c-0.1,0-0.1-0.1-0.2-0.1
		c0,0,0-0.1,0-0.2V16.8c0-0.1,0-0.1,0.1-0.1c0.1-0.1,0.1-0.1,0.2-0.1c0.1,0,0.2-0.1,0.4-0.1c0.2,0,0.5,0,0.6,0c0.2,0,0.5,0,0.7,0
		c0.1,0,0.2,0,0.4,0.1c0.1,0,0.1,0.1,0.2,0.1l0.1,0.1v7.5c0,0.2,0,0.5,0,0.7s0,0.5,0,0.7l0,0c0.1-0.2,0.2-0.5,0.5-0.7
		c0.1-0.2,0.4-0.6,0.6-0.9l4.9-7.4c0-0.1,0.1-0.1,0.1-0.1c0.1,0,0.1-0.1,0.2-0.1c0.1,0,0.2-0.1,0.4-0.1s0.4,0,0.5,0
		c0.2,0,0.5,0,0.6,0c0.1,0,0.2,0,0.4,0.1c0.1,0,0.1,0.1,0.2,0.1c0,0,0,0.1,0,0.2L120.7,30.1z"/>
	<path class="st1" d="M136.4,33.7c0,0.1,0,0.1,0,0.1l-0.1,0.1c-0.1,0-0.2,0.1-0.4,0.1c-0.2,0-0.4,0-0.6,0c-0.2,0-0.4,0-0.6,0
		c-0.1,0-0.2,0-0.4-0.1c-0.1,0-0.1-0.1-0.2-0.1c0,0-0.1-0.1,0-0.1v-3.4h-9.2c-0.1,0-0.2,0-0.4,0c-0.1,0-0.2-0.1-0.2-0.1
		c-0.1-0.1-0.1-0.2-0.1-0.4c0-0.1,0-0.2,0-0.4V16.8c0-0.1,0-0.1,0.1-0.1c0.1-0.1,0.1-0.1,0.2-0.1c0.1,0,0.2-0.1,0.4-0.1
		c0.1,0,0.4,0,0.6,0c0.2,0,0.5,0,0.7,0c0.1,0,0.2,0,0.4,0.1c0.1,0,0.1,0.1,0.2,0.1l0.1,0.1v11.4h5.1V16.8c0-0.1,0-0.1,0.1-0.1
		c0.1-0.1,0.1-0.1,0.2-0.1s0.2-0.1,0.4-0.1s0.4,0,0.6,0c0.2,0,0.5,0,0.7,0c0.1,0,0.2,0,0.4,0.1c0.1,0,0.1,0.1,0.2,0.1l0.1,0.1v11.4
		h1.2c0.1,0,0.1,0,0.2,0s0.1,0,0.1,0.1c0.1,0.1,0.1,0.2,0.1,0.5L136.4,33.7z"/>
	<path class="st1" d="M149.7,30.1c0,0.1,0,0.1-0.1,0.2c-0.1,0.1-0.1,0.1-0.2,0.1s-0.2,0.1-0.4,0.1c-0.1,0-0.4,0-0.6,0
		c-0.2,0-0.5,0-0.7,0c-0.1,0-0.2,0-0.4-0.1c-0.1,0-0.1-0.1-0.2-0.1c0,0-0.1-0.1-0.1-0.2v-7.4c0-0.2,0-0.5,0-0.9c0-0.4,0-0.5,0-0.7
		l0,0c0,0.1-0.1,0.2-0.2,0.4s-0.1,0.2-0.2,0.4l-0.2,0.5c-0.1,0.1-0.2,0.2-0.2,0.5l-4.9,7.2c0,0.1-0.1,0.1-0.1,0.2
		c-0.1,0-0.1,0.1-0.2,0.1s-0.2,0-0.4,0.1c-0.1,0-0.4,0-0.5,0c-0.2,0-0.5,0-0.6,0c-0.1,0-0.2,0-0.4-0.1c-0.1,0-0.1-0.1-0.2-0.1
		c0,0,0-0.1,0-0.2V16.8c0-0.1,0-0.1,0.1-0.1c0.1-0.1,0.1-0.1,0.2-0.1s0.2-0.1,0.5-0.1s0.5,0,0.6,0c0.2,0,0.5,0,0.7,0
		c0.1,0,0.2,0,0.4,0.1c0.1,0,0.1,0.1,0.2,0.1l0.1,0.1v7.5c0,0.2,0,0.5,0,0.7s0,0.5,0,0.7l0,0c0.1-0.2,0.2-0.5,0.5-0.7
		s0.4-0.6,0.6-0.9l4.9-7.2c0-0.1,0.1-0.1,0.1-0.1c0.1,0,0.1-0.1,0.2-0.1s0.2-0.1,0.4-0.1s0.4,0,0.5,0c0.2,0,0.5,0,0.6,0
		s0.2,0,0.4,0.1c0.1,0,0.1,0.1,0.2,0.1c0,0,0,0.1,0,0.2L149.7,30.1z"/>
	<path class="st1" d="M163.7,30.1c0,0.1,0,0.1-0.1,0.2c0,0.1-0.1,0.1-0.2,0.1s-0.2,0.1-0.5,0.1c-0.1,0-0.4,0-0.6,0
		c-0.2,0-0.5,0-0.8,0c-0.1,0-0.2,0-0.4-0.1c-0.1,0-0.1-0.1-0.2-0.1c0,0-0.1-0.1-0.1-0.2V18.8h-5.2v11.4c0,0.1,0,0.1-0.1,0.2
		c-0.1,0.1-0.1,0.1-0.2,0.1s-0.2,0.1-0.4,0.1s-0.4,0-0.8,0c-0.2,0-0.5,0-0.6,0c-0.1,0-0.2,0-0.4-0.1c-0.1,0-0.1-0.1-0.2-0.1
		c0,0-0.1-0.1-0.1-0.2V17.4c0-0.1,0-0.2,0-0.4s0.1-0.2,0.1-0.4c0.1-0.1,0.1-0.1,0.2-0.1c0.1,0,0.2,0,0.4,0h9.2c0.1,0,0.2,0,0.4,0
		c0.1,0,0.2,0.1,0.2,0.1c0.1,0.2,0.2,0.4,0.2,0.6L163.7,30.1z"/>
	<path class="st1" d="M178.2,29.4c0.1,0.2,0.1,0.4,0.1,0.6v0.1c0,0,0,0.1-0.1,0.1c-0.1,0.1-0.2,0.1-0.4,0.1c-0.2,0-0.5,0-0.9,0
		s-0.6,0-0.9,0c-0.1,0-0.4,0-0.5-0.1c-0.1,0-0.1-0.1-0.2-0.1c0-0.1-0.1-0.1-0.1-0.2l-1-2.9H169l-0.9,2.7c0,0.1-0.1,0.1-0.1,0.2
		s-0.1,0.1-0.2,0.1c-0.1,0-0.2,0.1-0.5,0.1c-0.2,0-0.5,0-0.8,0c-0.2,0-0.5,0-0.8,0c-0.1,0-0.2,0-0.4-0.1l-0.1-0.1v-0.1
		c0-0.2,0.1-0.4,0.1-0.6l4.2-12.5c0-0.1,0.1-0.2,0.1-0.2c0.1-0.1,0.1-0.1,0.2-0.1c0.1,0,0.4-0.1,0.5-0.1c0.2,0,0.5,0,0.9,0
		s0.8,0,1,0c0.2,0,0.4,0,0.6,0.1c0.1,0,0.2,0.1,0.2,0.1c0.1,0.1,0.1,0.2,0.1,0.4L178.2,29.4z M171.7,19.1l-2,6h4L171.7,19.1z"/>
	<path class="st1" d="M191,30.1c0,0.1,0,0.1-0.1,0.2c0,0.1-0.1,0.1-0.2,0.1s-0.2,0.1-0.4,0.1c-0.1,0-0.4,0-0.6,0c-0.2,0-0.5,0-0.8,0
		c-0.1,0-0.2,0-0.4-0.1c-0.1,0-0.1-0.1-0.2-0.1c0,0-0.1-0.1-0.1-0.2V18.8h-3c-0.2,1.6-0.4,3.1-0.6,4.4c-0.2,1.2-0.4,2.2-0.6,3.2
		c-0.1,0.7-0.5,1.5-0.8,2.1c-0.2,0.5-0.6,1-1,1.4c-0.4,0.4-0.8,0.5-1.2,0.6s-1,0.2-1.5,0.1c-0.1,0-0.2,0-0.2,0
		c-0.1,0-0.1-0.1-0.2-0.1c0-0.1-0.1-0.2-0.1-0.4s0-0.4,0-0.5c0-0.4,0-0.6,0-0.7c0-0.1,0-0.2,0.1-0.5c0-0.1,0.1-0.1,0.1-0.2
		c0,0,0.1,0,0.2,0c0.2,0,0.5,0,0.8-0.1c0.2-0.1,0.4-0.2,0.5-0.5c0.2-0.4,0.4-0.7,0.5-1.1c0.2-0.6,0.4-1.2,0.5-1.9
		c0.1-0.7,0.4-1.7,0.5-2.9c0.1-1.1,0.4-2.5,0.5-4.1c0-0.2,0.1-0.5,0.2-0.7c0.1-0.1,0.1-0.1,0.2-0.1c0.1,0,0.2,0,0.2,0h6.9
		c0.1,0,0.2,0,0.4,0c0.1,0,0.2,0.1,0.2,0.1c0.1,0.2,0.2,0.4,0.2,0.6L191,30.1z"/>
	<path class="st1" d="M204.4,25.9c0,0.6-0.1,1.2-0.2,1.9c-0.2,0.5-0.5,1-1,1.5c-0.5,0.5-1.1,0.7-1.7,1c-1,0.2-2,0.4-2.9,0.4H195
		c-0.1,0-0.2,0-0.4,0c-0.1,0-0.2-0.1-0.2-0.1c-0.1-0.1-0.1-0.1-0.2-0.2c0-0.1-0.1-0.2,0-0.4V16.8c0-0.1,0-0.1,0.1-0.1
		c0.1-0.1,0.1-0.1,0.2-0.1c0.1,0,0.2-0.1,0.5-0.1c0.1,0,0.4,0,0.6,0c0.2,0,0.5,0,0.8,0c0.1,0,0.2,0,0.4,0.1c0.1,0,0.1,0.1,0.2,0.1
		l0.1,0.1v4.9h2c0.9,0,1.7,0.1,2.5,0.2c0.6,0.1,1.1,0.5,1.6,0.9c0.4,0.4,0.8,0.9,1,1.4C204.2,24.6,204.4,25.3,204.4,25.9z M201.5,26
		c0-0.4,0-0.6-0.1-1c-0.1-0.2-0.2-0.5-0.5-0.7c-0.2-0.2-0.5-0.4-0.8-0.5c-0.5-0.1-1-0.1-1.5-0.1H197v4.5h1.7c0.5,0,1,0,1.5-0.2
		c0.2-0.1,0.5-0.2,0.8-0.5c0.2-0.2,0.4-0.5,0.4-0.7C201.4,26.6,201.5,26.4,201.5,26z"/>
	<path class="st1" d="M217.2,30.1c0,0.1,0,0.1-0.1,0.2c0,0.1-0.1,0.1-0.2,0.1c-0.1,0-0.2,0.1-0.4,0.1c-0.2,0-0.5,0-0.6,0
		c-0.2,0-0.5,0-0.8,0c-0.1,0-0.2,0-0.4-0.1c-0.1,0-0.1-0.1-0.2-0.1c0,0-0.1-0.1-0.1-0.2v-5.6h-5.2v5.6c0,0.1,0,0.1-0.1,0.2
		c-0.1,0.1-0.1,0.1-0.2,0.1c-0.1,0-0.2,0.1-0.4,0.1c-0.2,0-0.5,0-0.8,0c-0.2,0-0.5,0-0.8,0c-0.1,0-0.2,0-0.4-0.1
		c-0.1,0-0.1-0.1-0.2-0.1c0,0-0.1-0.1-0.1-0.2V16.8c0-0.1,0-0.1,0.1-0.2c0.1-0.1,0.1-0.1,0.2-0.1c0.1,0,0.2-0.1,0.4-0.1
		c0.2,0,0.5,0,0.8,0c0.2,0,0.5,0,0.8,0c0.1,0,0.2,0,0.4,0.1c0.1,0,0.1,0.1,0.2,0.1c0,0,0.1,0.1,0.1,0.2v5.1h5.2v-5.1
		c0-0.1,0-0.1,0.1-0.2c0-0.1,0.1-0.1,0.2-0.1c0.1,0,0.2-0.1,0.4-0.1c0.2,0,0.5,0,0.8,0c0.2,0,0.5,0,0.6,0c0.1,0,0.2,0,0.4,0.1
		c0.1,0,0.1,0.1,0.2,0.1c0,0,0.1,0.1,0.1,0.2V30.1z"/>
	<path class="st1" d="M230.4,25.9c0,0.6-0.1,1.2-0.2,1.9c-0.2,0.5-0.5,1-1,1.5c-0.5,0.5-1.1,0.7-1.7,1c-1,0.2-1.9,0.4-2.9,0.4h-3.2
		c-0.1,0-0.2,0-0.4,0c-0.1,0-0.2-0.1-0.2-0.1c-0.1-0.1-0.1-0.1-0.1-0.2c0-0.1-0.1-0.2,0-0.4V16.8c0-0.1,0-0.1,0.1-0.1
		c0.1-0.1,0.1-0.1,0.2-0.1c0.1,0,0.2-0.1,0.5-0.1c0.2,0,0.5,0,0.6,0c0.2,0,0.5,0,0.8,0c0.1,0,0.2,0,0.4,0.1c0.1,0,0.1,0.1,0.2,0.1
		l0.1,0.1v4.9h1.7c0.9,0,1.6,0.1,2.5,0.2c0.6,0.1,1.1,0.4,1.6,0.7c0.4,0.4,0.8,0.7,1,1.4C230.2,24.6,230.4,25.3,230.4,25.9z
		 M227.5,26.1c0-0.4,0-0.6-0.1-0.9c-0.1-0.2-0.2-0.5-0.5-0.7c-0.2-0.2-0.5-0.4-0.8-0.5c-0.5-0.1-1-0.1-1.5-0.1h-1.5v4.5h1.5
		c0.5,0,1,0,1.5-0.2c0.2-0.1,0.5-0.2,0.8-0.5c0.2-0.2,0.4-0.5,0.5-0.7C227.4,26.6,227.5,26.4,227.5,26.1z M234.9,30.1
		c0,0.1,0,0.1-0.1,0.2c-0.1,0.1-0.1,0.1-0.2,0.1c-0.1,0-0.2,0.1-0.4,0.1s-0.4,0-0.6,0c-0.2,0-0.5,0-0.6,0c-0.1,0-0.2,0-0.4-0.1
		c-0.1,0-0.1-0.1-0.2-0.1c0,0-0.1-0.1-0.1-0.2V16.8c0-0.1,0-0.1,0.1-0.1c0.1-0.1,0.1-0.1,0.2-0.1c0.1,0,0.2-0.1,0.5-0.1s0.5,0,0.6,0
		c0.2,0,0.5,0,0.6,0c0.1,0,0.2,0,0.4,0.1c0.1,0,0.1,0.1,0.2,0.1l0.1,0.1v13.4H234.9z"/>
	<path class="st1" d="M249.4,30.1c0,0.1,0,0.1-0.1,0.2c-0.1,0.1-0.1,0.1-0.2,0.1s-0.2,0.1-0.4,0.1c-0.1,0-0.4,0-0.8,0
		c-0.2,0-0.5,0-0.6,0c-0.1,0-0.2,0-0.4-0.1c-0.1,0-0.1-0.1-0.2-0.1c0,0-0.1-0.1-0.1-0.2v-7.4c0-0.2,0-0.5,0-0.9c0-0.4,0-0.5,0-0.7
		l0,0c0,0.1-0.1,0.2-0.2,0.4c-0.1,0.1-0.1,0.2-0.2,0.4c-0.1,0.1-0.1,0.2-0.2,0.5c-0.1,0.1-0.2,0.2-0.2,0.5l-4.9,7.2
		c0,0.1-0.1,0.1-0.1,0.2c-0.1,0-0.1,0.1-0.2,0.1c-0.1,0-0.2,0-0.4,0.1c-0.1,0-0.4,0-0.5,0s-0.5,0-0.6,0c-0.1,0-0.2,0-0.4-0.1
		c-0.1,0-0.1-0.1-0.2-0.1c0,0,0-0.1,0-0.2V16.8c0-0.1,0-0.1,0.1-0.1c0.1-0.1,0.1-0.1,0.2-0.1c0.1,0,0.2-0.1,0.5-0.1
		c0.2,0,0.5,0,0.6,0c0.2,0,0.5,0,0.8,0c0.1,0,0.2,0,0.4,0.1c0.1,0,0.1,0.1,0.2,0.1l0.1,0.1v7.5c0,0.2,0,0.5,0,0.7s0,0.5,0,0.7l0,0
		c0.1-0.2,0.2-0.5,0.5-0.7c0.1-0.2,0.4-0.6,0.6-0.9l4.9-7.2c0-0.1,0.1-0.1,0.1-0.1c0.1,0,0.1-0.1,0.2-0.1s0.2-0.1,0.4-0.1
		c0.1,0,0.4,0,0.5,0c0.2,0,0.5,0,0.6,0c0.1,0,0.2,0,0.4,0.1c0.1,0,0.1,0.1,0.2,0.1c0,0,0.1,0.1,0,0.2L249.4,30.1z M247.6,12.6
		c0,0.4-0.1,0.7-0.2,1.1c-0.1,0.4-0.4,0.7-0.6,1c-0.4,0.2-0.8,0.5-1.2,0.6c-0.6,0.1-1.2,0.2-1.9,0.2c-0.6,0-1.2-0.1-1.7-0.2
		c-0.5-0.1-0.9-0.4-1.2-0.6c-0.2-0.2-0.5-0.6-0.6-1c-0.1-0.4-0.2-0.7-0.2-1.2c0-0.1,0-0.1,0-0.2c0-0.1,0.1-0.1,0.2-0.1
		s0.2-0.1,0.4-0.1c0.1,0,0.4,0,0.6,0c0.2,0,0.4,0,0.6,0c0.1,0,0.2,0,0.4,0.1c0.1,0,0.1,0.1,0.1,0.1c0,0.1,0,0.1,0,0.2
		c0,0.1,0,0.4,0.1,0.5c0.1,0.1,0.1,0.2,0.2,0.4c0.1,0.1,0.4,0.2,0.5,0.2c0.2,0.1,0.4,0.1,0.6,0.1s0.4,0,0.6-0.1
		c0.1,0,0.4-0.1,0.5-0.2c0.1-0.1,0.2-0.2,0.2-0.4c0.1-0.1,0.1-0.4,0.1-0.5c0-0.1,0-0.1,0-0.2c0-0.1,0.1-0.1,0.1-0.1
		c0.1,0,0.2-0.1,0.4-0.1c0.1,0,0.4,0,0.5,0c0.2,0,0.5,0,0.6,0s0.2,0,0.4,0.1c0.1,0,0.1,0.1,0.2,0.1
		C247.6,12.5,247.6,12.5,247.6,12.6z"/>
	<path class="st1" d="M73.3,49.2c0,0.1,0,0.1,0,0.1s-0.1,0.1-0.2,0.1s-0.2,0-0.4,0.1c-0.2,0-0.4,0-0.6,0c-0.2,0-0.5,0-0.6,0
		c-0.1,0-0.2,0-0.4-0.1c-0.1,0-0.1-0.1-0.2-0.1c0-0.1-0.1-0.1-0.1-0.2l-1-2.7c-0.1-0.4-0.2-0.6-0.4-1c-0.1-0.2-0.2-0.5-0.5-0.6
		c-0.1-0.1-0.4-0.2-0.6-0.4c-0.2-0.1-0.5-0.1-0.7-0.1h-0.5v4.9c0,0.1,0,0.1,0,0.1s-0.1,0.1-0.2,0.1c-0.1,0-0.2,0.1-0.4,0.1
		c-0.4,0-0.7,0-1.2,0c-0.1,0-0.2,0-0.4-0.1c-0.1,0-0.1-0.1-0.2-0.1c0,0-0.1-0.1,0-0.1V37.5c0-0.1,0-0.1,0-0.1s0.1-0.1,0.2-0.1
		s0.2,0,0.4-0.1c0.1,0,0.4,0,0.6,0c0.2,0,0.5,0,0.6,0c0.1,0,0.2,0,0.4,0.1c0.1,0,0.1,0,0.2,0.1v0.1v4.6h0.5c0.2,0,0.5,0,0.7-0.1
		c0.2-0.1,0.4-0.2,0.6-0.4c0.2-0.2,0.4-0.4,0.5-0.6c0.1-0.4,0.2-0.6,0.4-1l0.7-2.5c0-0.1,0.1-0.1,0.1-0.2c0-0.1,0.1-0.1,0.2-0.1
		c0.1,0,0.2-0.1,0.4-0.1c0.1,0,0.4,0,0.6,0c0.2,0,0.5,0,0.6,0c0.1,0,0.2,0,0.4,0.1c0.1,0,0.1,0,0.1,0.1c0,0,0.1,0.1,0,0.2
		c0,0.1,0,0.2,0,0.2c0,0.1-0.1,0.4-0.1,0.5l-0.9,2.1c-0.1,0.4-0.2,0.7-0.5,1c-0.1,0.2-0.2,0.5-0.5,0.7c-0.1,0.2-0.4,0.4-0.5,0.5
		c-0.2,0.1-0.4,0.2-0.6,0.4c0.2,0.1,0.5,0.2,0.6,0.4c0.2,0.1,0.4,0.4,0.6,0.5c0.2,0.2,0.4,0.5,0.5,0.7c0.2,0.4,0.4,0.7,0.5,1.1
		l1,2.5c0.1,0.1,0.1,0.4,0.1,0.5C73.3,49.1,73.3,49.1,73.3,49.2z"/>
	<path class="st1" d="M85.1,48.6c0.1,0.1,0.1,0.4,0.1,0.5v0.1c0,0,0,0.1-0.1,0.1c-0.1,0.1-0.2,0.1-0.4,0.1c-0.1,0-0.4,0-0.7,0
		c-0.2,0-0.6,0-0.7,0c-0.1,0-0.2,0-0.4,0c-0.1,0-0.1,0-0.2-0.1c0,0-0.1-0.1-0.1-0.2l-0.9-2.5H77L76.3,49c0,0.1,0,0.1-0.1,0.2
		c0,0.1-0.1,0.1-0.2,0.1c-0.1,0-0.2,0.1-0.4,0.1s-0.4,0-0.6,0s-0.5,0-0.6,0c-0.1,0-0.2,0-0.4-0.1c0,0,0-0.1-0.1-0.1v-0.1
		c0-0.1,0.1-0.4,0.1-0.5l3.7-10.9c0-0.1,0.1-0.1,0.1-0.2c0.1-0.1,0.1-0.1,0.2-0.1c0.1,0,0.2-0.1,0.5-0.1c0.2,0,0.5,0,0.7,0
		c0.2,0,0.6,0,0.9,0c0.1,0,0.4,0,0.5,0.1c0.1,0,0.2,0.1,0.2,0.1c0,0.1,0.1,0.1,0.1,0.2L85.1,48.6z M79.5,39.6l-1.7,5.2h3.5
		L79.5,39.6z"/>
	<path class="st1" d="M101.1,49.2v0.1l-0.1,0.1c-0.1,0-0.2,0.1-0.4,0.1c-0.2,0-0.4,0-0.6,0s-0.4,0-0.6,0c-0.1,0-0.2,0-0.4-0.1
		c-0.1,0-0.1-0.1-0.1-0.1v-0.1v-10l0,0l-3.5,10c0,0.1-0.1,0.1-0.1,0.2c-0.1,0-0.1,0.1-0.2,0.1c-0.1,0-0.2,0-0.4,0s-0.4,0-0.5,0
		c-0.1,0-0.4,0-0.5,0c-0.1,0-0.2,0-0.4-0.1c-0.1,0-0.1-0.1-0.2-0.1l-0.1-0.1l-3.4-10l0,0v10v0.1c0,0-0.1,0.1-0.2,0.1
		s-0.2,0.1-0.4,0.1c-0.4,0-0.7,0-1.1,0c-0.1,0-0.2,0-0.4-0.1c-0.1,0-0.1-0.1-0.2-0.1v-0.1v-11c0-0.1,0-0.2,0-0.4
		c0-0.1,0.1-0.2,0.2-0.4c0.1-0.1,0.2-0.1,0.4-0.2c0.1,0,0.2-0.1,0.4,0h1.6c0.2,0,0.5,0,0.7,0.1c0.2,0,0.4,0.1,0.5,0.2
		c0.1,0.1,0.2,0.2,0.4,0.5c0.1,0.2,0.2,0.4,0.2,0.6l2.6,7.4l0,0l2.7-7.4c0.1-0.2,0.1-0.5,0.2-0.6s0.2-0.4,0.4-0.5
		c0.1-0.1,0.2-0.2,0.5-0.2c0.2,0,0.4-0.1,0.6-0.1h1.2c0.1,0,0.2,0,0.5,0.1c0.1,0,0.2,0.1,0.2,0.2c0.1,0.1,0.1,0.2,0.1,0.4
		c0,0.1,0.1,0.2,0,0.4L101.1,49.2z"/>
	<path class="st1" d="M112.1,49.2v0.1c0,0-0.1,0.1-0.2,0.1c-0.1,0-0.2,0.1-0.4,0.1c-0.2,0-0.4,0-0.6,0s-0.4,0-0.6,0
		c-0.1,0-0.2,0-0.4-0.1c-0.1,0-0.1,0-0.2-0.1l-0.1-0.1V45c-0.4,0-0.6,0-1,0.1c-0.4,0-0.6,0-1,0c-0.6,0-1.2,0-1.9-0.1
		c-0.5-0.1-1-0.4-1.4-0.6c-0.4-0.4-0.7-0.7-0.9-1.2c-0.2-0.6-0.4-1.2-0.4-2v-3.5v-0.1c0,0,0.1-0.1,0.2-0.1c0.1,0,0.2-0.1,0.4-0.1
		c0.2,0,0.4,0,0.6,0s0.4,0,0.6,0c0.1,0,0.2,0,0.4,0.1c0.1,0,0.1,0,0.2,0.1l0.1,0.1v3.2c0,0.4,0,0.6,0.1,1c0.1,0.2,0.2,0.5,0.4,0.7
		c0.2,0.2,0.5,0.4,0.7,0.4c0.4,0.1,0.7,0.1,1.1,0.1c0.2,0,0.6,0,0.9,0c0.2,0,0.5,0,0.9-0.1v-5.4c0,0,0-0.1,0.1-0.1
		c0,0,0.1-0.1,0.2-0.1c0.1,0,0.2,0,0.4-0.1c0.2,0,0.4,0,0.6,0s0.4,0,0.6,0c0.1,0,0.2,0,0.4,0.1c0.1,0,0.1,0,0.2,0.1v0.1L112.1,49.2z
		"/>
	<path class="st1" d="M124.7,48.6c0,0.1,0.1,0.4,0.1,0.5v0.1c0,0,0,0.1-0.1,0.1c-0.1,0.1-0.2,0.1-0.4,0.1c-0.2,0-0.5,0-0.7,0
		c-0.4,0-0.6,0-0.7,0c-0.1,0-0.2,0-0.4,0c-0.1,0-0.1,0-0.2-0.1c0,0-0.1-0.1-0.1-0.2l-0.9-2.5h-4.6l-0.7,2.4c0,0.1,0,0.1-0.1,0.2
		c0,0.1-0.1,0.1-0.2,0.1c-0.1,0-0.2,0.1-0.4,0.1c-0.1,0-0.4,0-0.6,0s-0.5,0-0.6,0s-0.2,0-0.4-0.1c0,0,0-0.1-0.1-0.1v-0.1
		c0-0.1,0.1-0.4,0.1-0.5l3.7-10.9c0-0.1,0.1-0.1,0.1-0.2c0.1-0.1,0.1-0.1,0.2-0.1s0.2-0.1,0.5-0.1c0.2,0,0.5,0,0.7,0
		c0.2,0,0.6,0,0.9,0c0.1,0,0.4,0,0.5,0.1c0.1,0,0.2,0.1,0.2,0.1c0,0.1,0.1,0.1,0.1,0.2L124.7,48.6z M119.1,39.6l-1.7,5.2h3.5
		L119.1,39.6z"/>
	<path class="st1" d="M133.2,38.4c0,0.1,0,0.4,0,0.5s0,0.2-0.1,0.4c0,0.1-0.1,0.1-0.1,0.1h-0.1h-3v9.9c0,0.1,0,0.1-0.1,0.1
		c0,0-0.1,0.1-0.2,0.1c-0.1,0-0.2,0.1-0.4,0.1c-0.4,0-0.7,0-1.2,0c-0.1,0-0.2,0-0.4-0.1c-0.1,0-0.1-0.1-0.2-0.1v-0.1v-9.9h-3h-0.1
		l-0.1-0.1c0-0.1,0-0.2-0.1-0.4c0-0.1,0-0.4,0-0.5c0-0.1,0-0.4,0-0.5s0-0.2,0.1-0.4c0-0.1,0-0.1,0.1-0.1h0.1h8.6h0.1l0.1,0.1
		c0,0.1,0,0.2,0.1,0.4C133.2,38,133.2,38.1,133.2,38.4z"/>
	<path class="st1" d="M144.2,49.2v0.1c0,0-0.1,0.1-0.2,0.1s-0.2,0-0.4,0.1c-0.4,0-0.7,0-1.2,0c-0.1,0-0.2,0-0.4-0.1
		c-0.1,0-0.1,0-0.2-0.1c0,0-0.1-0.1,0-0.1v-9.9h-4.5v9.9v0.1c0,0-0.1,0.1-0.2,0.1s-0.2,0-0.4,0.1c-0.4,0-0.8,0-1.2,0
		c-0.1,0-0.2,0-0.4-0.1c-0.1,0-0.1,0-0.2-0.1v-0.1V38c0-0.1,0-0.2,0-0.4c0-0.1,0.1-0.2,0.1-0.2c0.1-0.1,0.1-0.1,0.2-0.1
		c0.1,0,0.2,0,0.2,0h8.1c0.1,0,0.2,0,0.2,0c0.1,0,0.1,0.1,0.2,0.1c0.1,0.1,0.2,0.4,0.2,0.6L144.2,49.2L144.2,49.2z"/>
	<path class="st1" d="M155.2,41c0,0.6-0.1,1.2-0.4,1.9c-0.2,0.5-0.5,1-1,1.4s-1,0.6-1.5,0.9c-0.6,0.2-1.4,0.2-2.1,0.2h-1v3.9
		c0,0.1,0,0.1-0.1,0.1c0,0-0.1,0.1-0.2,0.1c-0.1,0-0.2,0.1-0.4,0.1c-0.2,0-0.4,0-0.6,0s-0.4,0-0.6,0c-0.1,0-0.2,0-0.4-0.1
		c-0.1,0-0.1,0-0.2-0.1v-0.1V38.1c0-0.1,0-0.2,0-0.4c0-0.1,0.1-0.2,0.1-0.2c0.1-0.1,0.4-0.2,0.6-0.2h2.9c0.2,0,0.6,0,0.9,0
		c0.4,0,0.6,0.1,1,0.1c0.4,0.1,0.8,0.2,1.1,0.4c0.4,0.2,0.7,0.5,1,0.7c0.2,0.2,0.5,0.6,0.6,1C155.2,40.1,155.2,40.6,155.2,41z
		 M152.7,41.2c0-0.4,0-0.7-0.2-1.1c-0.1-0.2-0.4-0.5-0.5-0.6c-0.2-0.1-0.5-0.2-0.8-0.2c-0.2,0-0.5,0-0.7,0h-1v4.1h1.1
		c0.4,0,0.6,0,1-0.1c0.2-0.1,0.5-0.2,0.6-0.5s0.2-0.5,0.4-0.7C152.6,41.7,152.7,41.5,152.7,41.2z"/>
	<path class="st1" d="M168.2,43.2c0,0.9-0.1,1.9-0.4,2.7c-0.2,0.7-0.6,1.5-1.1,2c-0.5,0.6-1.1,1-1.9,1.2c-0.9,0.2-1.6,0.5-2.5,0.5
		s-1.7-0.1-2.5-0.4c-0.6-0.2-1.2-0.6-1.7-1.1c-0.5-0.5-0.9-1.2-1.1-2c-0.2-0.9-0.4-1.9-0.4-2.9c0-0.9,0.1-1.7,0.4-2.6
		c0.2-0.7,0.6-1.5,1.1-2c0.5-0.6,1.1-1,1.9-1.2c0.9-0.2,1.6-0.5,2.5-0.5s1.6,0.1,2.5,0.4c0.6,0.2,1.2,0.6,1.7,1.1
		c0.5,0.5,0.9,1.2,1.1,2C168.1,41.4,168.2,42.4,168.2,43.2z M165.6,43.4c0-0.6,0-1.1-0.1-1.7c-0.1-0.5-0.2-1-0.5-1.4
		c-0.2-0.4-0.6-0.6-1-0.9c-0.5-0.2-1-0.4-1.5-0.2c-0.5,0-1,0.1-1.5,0.4c-0.4,0.2-0.8,0.5-1,0.9c-0.2,0.4-0.5,0.9-0.5,1.4
		c-0.1,0.5-0.1,1.1-0.1,1.6c0,0.6,0,1.2,0.1,1.7s0.2,1,0.5,1.4c0.2,0.4,0.6,0.6,1,0.9c0.5,0.2,1,0.4,1.5,0.2c0.5,0,1-0.1,1.5-0.4
		c0.4-0.2,0.8-0.5,1-0.9c0.2-0.4,0.5-0.9,0.5-1.4C165.5,44.5,165.6,44,165.6,43.4z"/>
	<path class="st1" d="M182.2,43.1c0,0.6-0.1,1.2-0.4,1.9c-0.2,0.5-0.5,1-1,1.5c-0.5,0.4-1,0.7-1.6,1c-0.8,0.2-1.5,0.4-2.2,0.5v1.5
		v0.1c0,0-0.1,0.1-0.2,0.1c-0.1,0-0.2,0-0.4,0c-0.1,0-0.4,0-0.6,0s-0.4,0-0.6,0c-0.1,0-0.2,0-0.4,0c-0.1,0-0.1,0-0.2-0.1v-0.1v-1.6
		c-0.8,0-1.5-0.1-2.2-0.4c-0.6-0.1-1.1-0.5-1.6-0.9c-0.4-0.4-0.8-0.9-1-1.4c-0.2-0.6-0.4-1.4-0.4-2c0-0.6,0.1-1.2,0.4-1.7
		c0.2-0.5,0.5-1,1-1.4c0.5-0.4,1-0.7,1.6-1c0.8-0.2,1.5-0.4,2.2-0.5v-1.4v-0.1c0,0,0.1-0.1,0.2-0.1c0.1,0,0.2,0,0.4,0
		c0.1,0,0.4,0,0.6,0s0.4,0,0.6,0c0.1,0,0.2,0,0.4,0c0.1,0,0.1,0,0.2,0.1c0,0,0,0,0,0.1c0,0,0,0,0,0.1v1.4c0.8,0,1.5,0.1,2.2,0.4
		c0.6,0.1,1.1,0.5,1.6,0.9c0.4,0.4,0.8,0.9,1,1.4C182.1,41.7,182.2,42.4,182.2,43.1z M174.7,40.4c-0.4,0-0.9,0.1-1.2,0.4
		c-0.2,0.1-0.6,0.4-0.8,0.6c-0.2,0.2-0.4,0.5-0.5,0.9c-0.1,0.4-0.1,0.6-0.1,1s0,0.7,0.1,1.1c0.1,0.4,0.2,0.6,0.5,0.9
		c0.2,0.2,0.5,0.5,0.8,0.6c0.4,0.1,0.8,0.2,1.2,0.4V40.4z M179.7,43.2c0-0.4,0-0.7-0.1-1.1c-0.1-0.2-0.2-0.6-0.4-0.9
		c-0.2-0.2-0.5-0.5-0.8-0.6c-0.4-0.1-0.8-0.2-1.2-0.4v5.6c0.4,0,0.9-0.1,1.2-0.4c0.2-0.1,0.6-0.4,0.8-0.6c0.2-0.2,0.4-0.5,0.5-0.9
		C179.7,43.9,179.7,43.5,179.7,43.2z"/>
	<path class="st1" d="M194.2,49.2v0.1c0,0-0.1,0.1-0.2,0.1c-0.1,0-0.2,0-0.4,0.1c-0.4,0-0.8,0-1.2,0c-0.1,0-0.2,0-0.4-0.1
		c-0.1,0-0.1,0-0.2-0.1v-0.1v-6.5c0-0.2,0-0.5,0-0.7c0-0.2,0-0.5,0-0.6l0,0c0,0.1-0.1,0.2-0.1,0.2c-0.1,0.1-0.1,0.2-0.2,0.4
		l-0.2,0.4c-0.1,0.1-0.1,0.2-0.2,0.4l-4.2,6.4c0,0.1-0.1,0.1-0.1,0.1s-0.1,0.1-0.2,0.1c-0.1,0-0.2,0-0.2,0c-0.1,0-0.2,0-0.5,0
		c-0.2,0-0.4,0-0.6,0c-0.1,0-0.2,0-0.4-0.1c-0.1,0-0.1-0.1-0.1-0.1V49V37.4v-0.1c0,0,0.1-0.1,0.2-0.1c0.1,0,0.2,0,0.4-0.1
		c0.1,0,0.4,0,0.6,0c0.2,0,0.5,0,0.6,0c0.1,0,0.2,0,0.4,0.1c0.1,0,0.1,0,0.2,0.1v0.1v6.7c0,0.2,0,0.4,0,0.6c0,0.2,0,0.5,0,0.6
		c0.1-0.1,0.2-0.4,0.4-0.6c0.1-0.2,0.4-0.5,0.5-0.7l4.2-6.4l0.1-0.1c0,0,0.1-0.1,0.2-0.1c0.1,0,0.2,0,0.4-0.1c0.1,0,0.2,0,0.5,0
		s0.4,0,0.6,0c0.1,0,0.2,0,0.4,0.1c0.1,0,0.1,0.1,0.1,0.1v0.1L194.2,49.2z"/>
	<path class="st1" d="M205,38.4c0,0.1,0,0.4,0,0.5s0,0.2-0.1,0.4c0,0.1-0.1,0.1-0.1,0.1h-0.1h-3v9.9c0,0.1,0,0.1,0,0.1
		s-0.1,0.1-0.2,0.1c-0.1,0-0.2,0.1-0.4,0.1c-0.4,0-0.8,0-1.2,0c-0.1,0-0.2,0-0.4-0.1c-0.1,0-0.1-0.1-0.2-0.1c0,0-0.1-0.1,0-0.1v-9.9
		h-3H196l-0.1-0.1c0-0.1-0.1-0.2-0.1-0.4c0-0.1,0-0.4,0-0.5c0-0.1,0-0.4,0-0.5s0-0.2,0.1-0.4c0-0.1,0-0.1,0.1-0.1h0.1h8.6h0.1
		l0.1,0.1c0,0.1,0,0.2,0.1,0.4C205,38,205,38.1,205,38.4z"/>
	<path class="st1" d="M215.4,45.7c0,0.5-0.1,1-0.2,1.5c-0.2,0.5-0.5,0.9-0.9,1.2s-0.9,0.6-1.5,0.7c-0.8,0.2-1.5,0.2-2.2,0.2h-3.2
		c-0.2,0-0.4,0-0.5-0.1c-0.1-0.1-0.1-0.1-0.1-0.2c0-0.1,0-0.2,0-0.4V38c0-0.1,0-0.2,0-0.2c0-0.1,0.1-0.2,0.1-0.2
		c0.1-0.1,0.1-0.1,0.2-0.1s0.2,0,0.2,0h6.9h0.1l0.1,0.1c0,0.1,0,0.2,0.1,0.2c0,0.1,0,0.4,0,0.5c0,0.1,0,0.2,0,0.5
		c0,0.1,0,0.2-0.1,0.2c0,0.1-0.1,0.1-0.1,0.1h-0.1H209v3h2c0.6,0,1.2,0,2,0.2c0.5,0.1,0.9,0.4,1.2,0.6c0.4,0.2,0.6,0.6,0.9,1.1
		C215.2,44.7,215.4,45.2,215.4,45.7z M212.9,46c0-0.2,0-0.5-0.1-0.7c-0.1-0.2-0.2-0.4-0.4-0.5c-0.2-0.1-0.4-0.2-0.6-0.4
		c-0.4-0.1-0.8-0.1-1.1-0.1H209v3.5h1.6c0.4,0,0.6,0,1-0.1c0.2,0,0.5-0.1,0.6-0.4c0.1-0.1,0.4-0.4,0.4-0.5
		C212.7,46.5,212.9,46.2,212.9,46L212.9,46z"/>
	<path class="st1" d="M227,48.6c0,0.1,0.1,0.4,0.1,0.5v0.1c0,0,0,0.1-0.1,0.1c-0.1,0.1-0.2,0.1-0.4,0.1c-0.2,0-0.5,0-0.8,0
		c-0.4,0-0.6,0-0.8,0s-0.2,0-0.4,0c-0.1,0-0.1,0-0.2-0.1c0,0-0.1-0.1-0.1-0.2l-0.8-2.5H219l-0.8,2.4c0,0.1,0,0.1-0.1,0.2
		c0,0.1-0.1,0.1-0.2,0.1c-0.1,0-0.2,0.1-0.4,0.1s-0.4,0-0.6,0c-0.2,0-0.5,0-0.6,0c-0.1,0-0.2,0-0.4-0.1c0,0,0-0.1-0.1-0.1v-0.1
		c0-0.1,0.1-0.4,0.1-0.5l3.7-10.9c0-0.1,0.1-0.1,0.1-0.2c0-0.1,0.1-0.1,0.2-0.1c0.1,0,0.2-0.1,0.5-0.1c0.2,0,0.5,0,0.8,0
		c0.2,0,0.6,0,0.9,0c0.1,0,0.4,0,0.5,0.1c0.1,0,0.2,0.1,0.2,0.1c0,0.1,0.1,0.1,0.1,0.2L227,48.6z M221.4,39.6l-1.7,5.2h3.5
		L221.4,39.6z"/>
	<path class="st1" d="M238.2,49.2c0,0.1,0,0.1,0,0.1s-0.1,0.1-0.2,0.1c-0.1,0-0.2,0.1-0.4,0.1c-0.2,0-0.4,0-0.6,0
		c-0.2,0-0.4,0-0.6,0c-0.1,0-0.2,0-0.4-0.1c-0.1,0-0.1-0.1-0.2-0.1v-0.1v-5h-4.5v5v0.1c0,0-0.1,0.1-0.2,0.1c-0.1,0-0.2,0.1-0.4,0.1
		c-0.4,0-0.8,0-1.2,0c-0.1,0-0.2,0-0.4-0.1c-0.1,0-0.1-0.1-0.2-0.1c0,0-0.1-0.1,0-0.1V37.6c0-0.1,0-0.1,0-0.1s0.1-0.1,0.2-0.1
		c0.1,0,0.2-0.1,0.4-0.1c0.4,0,0.8,0,1.2,0c0.1,0,0.2,0,0.4,0.1c0.1,0,0.1,0,0.2,0.1v0.1v4.5h4.5v-4.5c0-0.1,0-0.1,0.1-0.1
		c0,0,0.1-0.1,0.2-0.1c0.1,0,0.2-0.1,0.4-0.1c0.2,0,0.4,0,0.6,0c0.2,0,0.4,0,0.6,0c0.1,0,0.2,0,0.4,0.1c0.1,0,0.1,0.1,0.2,0.1v0.1
		L238.2,49.2z"/>
	<path class="st1" d="M250,49.2c0,0.1,0,0.1,0,0.1s-0.1,0.1-0.2,0.1s-0.2,0-0.4,0.1c-0.2,0-0.4,0-0.6,0c-0.2,0-0.5,0-0.6,0
		c-0.1,0-0.2,0-0.4-0.1c-0.1,0-0.1-0.1-0.2-0.1c0-0.1-0.1-0.1-0.1-0.2l-1-2.7c-0.1-0.4-0.2-0.6-0.4-1c-0.1-0.2-0.2-0.5-0.5-0.6
		c-0.1-0.1-0.4-0.2-0.6-0.4c-0.2-0.1-0.5-0.1-0.8-0.1h-0.6v4.9c0,0.1,0,0.1,0,0.1s-0.1,0.1-0.2,0.1s-0.2,0.1-0.4,0.1
		c-0.4,0-0.8,0-1.2,0c-0.1,0-0.2,0-0.4-0.1c-0.1,0-0.1-0.1-0.2-0.1l-0.1-0.1V37.5c0-0.1,0-0.1,0.1-0.1c0,0,0.1-0.1,0.2-0.1
		c0.1,0,0.2,0,0.4-0.1c0.1,0,0.4,0,0.6,0c0.2,0,0.5,0,0.6,0c0.1,0,0.2,0,0.4,0.1c0.1,0,0.1,0,0.2,0.1v0.1v4.6h0.5
		c0.2,0,0.5,0,0.8-0.1c0.2-0.1,0.4-0.2,0.6-0.4c0.2-0.2,0.4-0.4,0.5-0.6c0.1-0.4,0.2-0.6,0.4-1l0.9-2.5c0-0.1,0.1-0.1,0.1-0.2
		c0-0.1,0.1-0.1,0.2-0.1c0.1,0,0.2-0.1,0.4-0.1c0.1,0,0.4,0,0.6,0s0.5,0,0.6,0c0.1,0,0.2,0,0.4,0.1c0.1,0,0.1,0,0.1,0.1v0.1
		c0,0.1,0,0.2,0,0.2c0,0.1-0.1,0.4-0.1,0.5l-0.9,2.1c-0.1,0.4-0.2,0.7-0.5,1c-0.1,0.2-0.2,0.5-0.5,0.7c-0.1,0.2-0.4,0.4-0.5,0.5
		c-0.2,0.1-0.4,0.2-0.6,0.4c0.2,0.1,0.5,0.2,0.6,0.4c0.2,0.1,0.4,0.4,0.6,0.5c0.2,0.2,0.4,0.5,0.5,0.7c0.2,0.4,0.4,0.7,0.5,1.1
		l1,2.5c0.1,0.1,0.1,0.4,0.1,0.5C250,49.1,250,49.1,250,49.2z"/>
</g>
</svg>
