<svg x="0px" y="0px" width="250px" height="31.8px" overflow="inherit" viewBox="0, 0, 250, 31.8" preserveAspectRatio="xMidYMid" font-size="0" id="Слой_1" xml:space="preserve" enable-background="new 0 0 250 31.8" xmlns="http://www.w3.org/2000/svg" xmlns:xlink="http://www.w3.org/1999/xlink" xmlns:xml="http://www.w3.org/XML/1998/namespace" version="1.1"><style xml:space="preserve" type="text/css">
	.st0{fill:#061C28;}
</style><g id="Wortmarke_Vektor_RZ_1_" xml:space="preserve"><rect x="161" y="16.6" width="9.4" height="2.3" xml:space="preserve" class="st0" style="fill:#061C28;" /><path d="M6 4 L5.1 24.8 L5.1 25.3 C5.1 27.1 5.6 27.6 8.6 27.7 L8.6 28.6 C6.5 28.4 5.6 28.4 4.5 28.4 C3.3 28.4 2.400001 28.4 0.4000006 28.6 L0.4000006 27.7 C3.400001 27.5 3.900001 27.2 3.900001 25.1 L4.6 5.3 L4.6 5.2 C4.6 3.4 3.8 2.9 1.1 2.8 L1.1 1.7 C2.8 1.9 3.4 1.9 4.6 1.9 C6.3 1.9 6.9 1.9 8.5 1.7 L16.2 21.9 L24.1 1.500002 C25.9 1.700002 26.8 1.700002 28.2 1.700002 C29.4 1.700002 30 1.700002 31.7 1.500002 L31.7 2.600002 C29 2.800002 28.2 3.200002 28.2 5.000002 L28.2 5.300002 L28.7 25.1 C28.7 27.4 29.2 27.5 32.2 27.7 L32.2 28.6 C29.5 28.4 28.6 28.4 26.9 28.4 C25.2 28.4 24.3 28.4 21.6 28.6 L21.6 27.7 C24.3 27.5 25.1 27.1 25.1 25.3 L25.1 25.1 L24.5 4.3 L17.6 22 L17.1 23.4 L16.3 24.9 L15.8 26.4 L15.3 27.8 L14.5 27.8 L14 26.4 L13.2 24.9 L12.7 23.4 L12.2 21.9 L6 4 z M42.8 27.7 C38.9 27.7 37.4 24.8 37.4 18.5 L49.8 18.5 C49.8 12.3 47.09999 9 42.09999 9 C37.09999 9 33.89999 12.9 33.89999 19.1 C33.89999 25.3 37.09999 28.9 42.39999 28.9 C46.49999 28.9 49.19999 26.5 49.69999 22.3 L48 22.3 C47.5 25.7 45.7 27.7 42.8 27.7 M37.2 16.9 C37.7 12.2 39.3 9.799999 42 9.799999 C44.7 9.799999 46.1 12.1 46.4 16.9 L37.2 16.9 z M52 10.3 L52 9.7 C54.3 9.5 55.9 9.2 57.4 8.8 C57.7 10.3 57.7 11.1 57.9 12.1 L57.9 12.6 C58.8 10.3 60.6 8.8 62.7 8.8 C64.8 8.8 66.3 10.2 66.3 12.1 C66.3 13.2 65.5 14.1 64.5 14.1 C63.6 14.1 62.7 13.5 62.7 12.7 C62.7 12.7 62.7 12.5 62.7 12.2 L62.7 11.7 L62.7 11.5 C62.7 10.9 62.2 10.6 61.3 10.6 C59 10.6 57.7 13.2 57.7 17.2 L57.7 25.5 C57.7 27.3 58.2 27.5 60.7 27.8 L60.7 28.7 C58.4 28.5 57.5 28.5 56.2 28.5 C54.5 28.5 53.9 28.5 51.4 28.7 L51.4 28 C54 27.8 54.4 27.5 54.4 25.7 L54.4 13 L54.4 12.4 C54.4 10.6 54.1 10.4 51.8 10.4 L52 10.4 L52 10.3 z M82.6 8.5 L82.6 15.1 L81.5 15.1 C80.7 11.6 79.2 9.8 76.7 9.8 C73.5 9.8 71.7 13.1 71.7 18.9 C71.7 24.7 73.39999 27.5 76.5 27.5 C79.1 27.5 80.6 25.7 81 22.2 L83 22.2 C82.5 26.6 80 28.8 76.4 28.8 C71.6 28.8 68.2 24.9 68.2 19 C68.2 13.1 71.7 8.9 76.4 8.9 C78.2 8.9 79.4 9.4 80.8 10.7 L82 8.7 C81.8 8.5 82.6 8.5 82.6 8.5 z M94.8 27.7 C90.9 27.7 89.4 24.8 89.4 18.5 L101.9 18.5 C101.9 12.3 99.2 9 94.2 9 C89.2 9 86 12.9 86 19.1 C86 25.3 89.2 28.9 94.5 28.9 C98.6 28.9 101.3 26.5 101.8 22.3 L100.1 22.3 C99.5 25.7 97.7 27.7 94.8 27.7 M89.4 16.9 C89.9 12.2 91.5 9.799999 94.2 9.799999 C96.90001 9.799999 98.3 12.1 98.60001 16.9 L89.4 16.9 z M121.1 24.3 L121.1 1.1 C119 1.6 117.2 2 114.8 2.2 L114.8 2.8 C117.5 2.8 117.8 3 117.8 5.2 L117.8 12.3 C116.1 9.9 115.1 9.3 112.8 9.3 C108.3 9.3 105.2 13.5 105.2 19.1 C105.2 24.8 108.4 28.9 112.9 28.9 C115.2 28.9 117 27.8 118.2 25.6 C118.5 27.1 118.5 27.4 119 28.9 C120.8 28.4 121.6 28.3 123.8 28 L124.6 28 L124.6 27.4 C121.2 27.1 121.1 26.8 121.1 24.3 M113.1 27.8 C110.1 27.8 108.6 24.8 108.6 19 C108.6 13.1 110 10.2 113.1 10.2 C116.2 10.2 117.9 13.2 117.9 19.3 C117.6 24.8 116.1 27.8 113.1 27.8 M134.5 27.7 C130.6 27.7 129.1 24.8 129.1 18.5 L141.6 18.5 C141.6 12.3 138.9 9 133.9 9 C128.9 9 125.7 12.9 125.7 19.1 C125.7 25.3 128.9 28.9 134.2 28.9 C138.3 28.9 141 26.5 141.5 22.3 L139.8 22.3 C139.2 25.7 137.4 27.7 134.5 27.7 M129.1 16.9 C129.6 12.2 131.2 9.799999 133.9 9.799999 C136.6 9.799999 138 12.1 138.3 16.9 L129.1 16.9 z M144.9 29 L144.9 22.2 L145.8 22.2 C146.6 26 148.4 27.6 151.2 27.6 C153.8 27.6 155.6 26.1 155.6 23.8 C155.6 22.4 154.8 21.5 152.9 20.5 L151.2 19.9 L149.1 19.3 C146.1 17.9 145 16.9 145 14.5 C145 11.2 147.6 9.200001 151.3 9.200001 C153 9.200001 154 9.700001 155.7 10.6 L156.5 8.8 L157.3 8.8 L157.3 15 L156.4 15 C155.9 11.7 154.6 10.2 152 10.2 C149.7 10.2 148.1 11.7 148.1 13.5 C148.1 15 148.9 15.8 152.5 17.3 L154.3 17.9 C157.5 19.3 158.7 20.5 158.7 22.9 C158.7 26.2 156 28.6 151.9 28.6 C150.1 28.6 148.4 28.1 146.9 26.8 L146 28.6 L144.9 28.6 L144.9 29 z M189.8 8.2 C189.8 5.9 188.9 4.3 187.2 3.2 C185.8 2.1 184.2 1.7 181.5 1.7 L170.6 1.7 L170.6 2.8 C173.6 3 174.1 3.3 174.1 5.4 L174.1 24.9 C174.1 27.2 173.8 27.3 170.6 27.5 L170.6 28.4 L181 28.4 C184.2 28.4 185.8 27.9 187.6 27 C189.7 25.6 191.1 23.2 191.1 20.7 C191.1 18.4 190.2 16.5 188.5 15.4 C187.6 14.8 186.7 14.3 185 14 C188.3 13 189.8 10.9 189.8 8.2 M177.6 2.9 L181.2 2.9 C184.7 2.9 186.2 4.7 186.2 8.3 C186.2 10.1 185.7 11.6 184.8 12.5 C183.9 13.6 182.7 13.9 180.4 13.9 L177.4 13.9 L177.4 2.9 L177.6 2.9 z M181.6 15 C183.9 15 185.1 15.5 186 16.4 C186.9 17.3 187.7 19 187.7 21.1 C187.7 25 185.6 27.4 181.8 27.4 L180.1 27.4 C177.8 27.4 177.5 27.2 177.5 25.1 L177.5 15 L181.6 15 z M203.4 27.7 C199.5 27.7 198 24.8 198 18.5 L210.5 18.5 C210.2 12.3 207.8 9 202.8 9 C197.8 9 194.6 12.9 194.6 19.1 C194.6 25.3 197.8 28.9 203.1 28.9 C207.2 28.9 209.9 26.5 210.4 22.3 L208.7 22.3 C208.2 25.7 206.4 27.7 203.4 27.7 M198 16.9 C198.5 12.2 200.1 9.799999 202.8 9.799999 C205.5 9.799999 206.9 12.1 207.2 16.9 L198 16.9 z M212.5 10.6 L212.5 9.8 C215.1 9.6 216.4 9.2 217.9 8.400001 C218.2 9.3 218.2 10.4 218.4 11.9 C220.1 9.6 221.6 8.900001 224.1 8.900001 C226.7 8.900001 228.9 10.3 229.5 12.2 C230 13.1 230.3 14.5 230.3 16 L230.3 25.7 C230.3 27.5 230.8 27.7 233.3 28 L233.3 28.9 C231 28.7 230.3 28.7 228.8 28.7 C227.3 28.7 226.5 28.7 224.3 28.9 L224.3 28 C226.6 28 227 27.5 227 25.7 L227 15.9 C227 12.4 225.8 11.1 223.1 11.1 C220.4 11.1 218.7 12.9 218.7 16.1 L218.7 25.8 C218.7 27.3 219.2 27.8 221.4 28.1 L221.4 29 C219.1 28.8 218.4 28.8 216.9 28.8 C215.5 28.8 214.6 28.8 212.4 29 L212.4 28 C215 27.8 215.4 27.5 215.4 25.7 L215.4 13.2 L215.4 12.6 C215.4 10.8 215.1 10.6 213.1 10.6 C212.9 10.6 212.8 10.6 212.5 10.6 M234.8 28.6 L246.1 10.6 L240.8 10.6 C238.1 10.6 237.3 11.2 236 14.8 L235.1 14.8 L236 9.5 L250.4 9.5 L239.1 27.5 L243.9 27.5 C246.6 27.5 248 26.4 249.2 22.7 L250.1 22.7 L248.9 28.4 L234.9 28.4 L234.9 28.6 z" xml:space="preserve" class="st0" style="fill:#061C28;" /></g></svg>