<?xml version="1.0" encoding="utf-8"?>
<!-- Generator: Adobe Illustrator 24.0.1, SVG Export Plug-In . SVG Version: 6.00 Build 0)  -->
<svg version="1.1" id="Слой_1" xmlns="http://www.w3.org/2000/svg" xmlns:xlink="http://www.w3.org/1999/xlink" x="0px" y="0px"
	 width="250px" height="100px" viewBox="0 0 250 100" style="enable-background:new 0 0 250 100;" xml:space="preserve">
<style type="text/css">
	.st0{fill-rule:evenodd;clip-rule:evenodd;fill:#FF333A;}
</style>
<path class="st0" d="M169.4,0H91.1c-6,0-10.8,4.8-10.8,10.8v78.3c0,6,4.9,10.8,10.8,10.8h78.3c6,0,10.8-4.8,10.8-10.8V10.9
	C180.3,4.9,175.4,0,169.4,0z M106.9,33.4h8.3v33.3h-5.8V39.2h-5.8L106.9,33.4z M148.6,33.4h8.3v33.3h-5.8V39.2h-5.8L148.6,33.4z
	 M127.8,50l5.8-10.8h-13.3l3.3-5.8h19.2l-3.3,5.8l-3.2,6c3.9,1.8,6.6,5.7,6.6,10.2c0,6.2-5,11.2-11.3,11.2c-6.2,0-11.3-5-11.3-11.2
	h5.8c0,3,2.4,5.4,5.4,5.4s5.4-2.4,5.4-5.4c0-3-2.4-5.4-5.4-5.4H127.8z"/>
</svg>
