<svg width="40" height="40" viewBox="0 0 40 40" fill="none" xmlns="http://www.w3.org/2000/svg">
<path d="M17.6617 6.00615C18.4568 4.67515 19.1928 3.31069 20.0218 2C22.0712 5.56288 24.1666 9.10067 26.227 12.6576C26.3901 12.8356 26.2161 13.0351 26.1327 13.2048C24.192 16.5024 22.2658 19.8084 20.3396 23.1156C20.2562 23.2913 20.087 23.443 20.0798 23.6461C20.2562 23.7441 20.464 23.7047 20.6586 23.7154C24.6621 23.7047 28.6668 23.719 32.6703 23.7106C34.7754 27.3333 36.9106 30.9392 39 34.5701C34.7814 34.5701 30.5628 34.5737 26.3442 34.5689C24.3431 31.0849 22.2839 27.6343 20.2828 24.1503C20.1921 24.0141 20.1269 23.8421 19.9698 23.768C19.1746 25.0476 18.452 26.3703 17.6822 27.6642C16.3445 29.969 14.9802 32.257 13.657 34.5689C9.4384 34.5689 5.2198 34.5689 1 34.5689C3.10023 30.9427 5.2186 27.3273 7.33212 23.7094C11.5568 23.7178 15.7802 23.7023 20.0048 23.7166C17.9674 20.1956 15.9167 16.6817 13.854 13.1761C13.7899 13.0304 13.6171 12.8571 13.7537 12.6982C15.0431 10.4604 16.3699 8.24281 17.6617 6.00615Z" fill="#EA0033"/>
</svg>
