<?xml version="1.0" encoding="utf-8"?>
<!-- Generator: Adobe Illustrator 24.0.1, SVG Export Plug-In . SVG Version: 6.00 Build 0)  -->
<svg version="1.1" id="Слой_1" xmlns="http://www.w3.org/2000/svg" xmlns:xlink="http://www.w3.org/1999/xlink" x="0px" y="0px"
	 width="250px" height="100px" viewBox="0 0 250 100" style="enable-background:new 0 0 250 100;" xml:space="preserve">
<style type="text/css">
	.st0{fill:#282830;}
</style>
<path class="st0" d="M125,0C82.3,0,47.7,22.4,47.7,50c0,27.6,34.6,50,77.3,50s77.3-22.4,77.3-50S167.7,0,125,0z M125,78.5
	c-6.3,0-11.5-12.5-11.9-28.2c3.8,0.3,7.8,0.5,11.9,0.5s8-0.2,11.9-0.5C136.5,66,131.3,78.5,125,78.5z M113.9,37.8
	c1.7-11.1,6-19,11.1-19s9.3,7.9,11.1,19c-3.5,0.3-7.2,0.5-11.1,0.5S117.5,38.1,113.9,37.8z M125,7.2c-8.3,0-15.4,12.4-18,29.7
	c-15.7-2.4-26.7-8-26.7-14.5c0-8.8,20-15.9,44.6-15.9s44.6,7.1,44.6,15.9c0,6.5-11,12.1-26.7,14.5C140.4,19.6,133.3,7.2,125,7.2z
	 M58.8,48.1c0-8.5,3.3-16.4,8.9-23.2c-0.1,0.5-0.1,1-0.1,1.5c0,10.7,16,19.8,38.3,23.1c0,0.8,0,1.6,0,2.3c0,19.9,5.6,36.7,13.3,42.5
	C85.4,92.2,58.8,72.3,58.8,48.1z M130.8,94.3c7.7-5.7,13.3-22.6,13.3-42.5c0-0.8,0-1.6,0-2.3c22.3-3.4,38.3-12.4,38.3-23.1
	c0-0.5,0-1-0.1-1.5c5.7,6.8,8.9,14.8,8.9,23.2C191.2,72.3,164.6,92.2,130.8,94.3z"/>
</svg>
