<svg width="136" height="36" viewBox="0 0 136 36" fill="none" xmlns="http://www.w3.org/2000/svg">
<path d="M22.0185 14.5484L23.3595 12.8641C22.4586 12.5164 21.4723 12.456 20.5357 12.691L22.0185 14.5484ZM16.5928 21.2544L19.0845 18.1846L16.7658 15.2723C15.7409 16.2182 14.7471 17.2081 13.7689 18.2158L16.5928 21.2544ZM21.9557 21.8214L20.2675 23.8835C21.3062 24.1219 22.3948 24.0054 23.3595 23.5525L21.9557 21.8214ZM17.2711 10.8804C15.2647 12.4388 13.3821 14.1503 11.64 15.9995L12.8085 17.2276C14.5299 15.4227 16.3744 13.7396 18.3289 12.1902C19.2865 11.5181 20.4242 11.1497 21.594 11.133C22.5199 11.1261 23.4358 11.3251 24.2754 11.7156L25.3793 10.3462C24.1897 9.7486 22.8774 9.436 21.5461 9.4331C20.0038 9.4481 18.5065 9.9549 17.2722 10.8798L17.2711 10.8804ZM24.7 22.9387C25.147 22.5796 25.5541 22.1733 25.9141 21.7268L19.1952 13.2886L17.8703 14.3775L24.7 22.9387ZM19.3026 25.0954L18.1513 26.4309C19.2592 26.9495 20.4793 27.1821 21.7002 27.1075C23.7425 26.9569 25.6702 26.106 27.1577 24.6987C28.1944 23.7638 29.0076 22.6078 29.5374 21.3163C30.0671 20.0247 30.2997 18.6306 30.2181 17.237C30.0588 15.7993 29.5507 14.4223 28.7379 13.2257L27.6496 14.6263C28.4511 15.964 28.7318 17.55 28.438 19.0816C28.1837 20.4938 27.5459 21.8089 26.5945 22.8831C25.6431 23.9573 24.4146 24.7492 23.0435 25.1722C21.8225 25.5562 20.5092 25.5287 19.3054 25.0938L19.3026 25.0954ZM6.11528 16.7841C5.92598 17.7934 5.92598 18.829 6.11528 19.8383C6.58878 19.3186 7.06118 18.7995 7.55088 18.2959L6.11528 16.7841ZM7.48798 13.6831C7.10558 14.1474 6.79708 14.6678 6.57318 15.2261L14.6169 23.7111L15.7526 22.3411L7.48798 13.6831ZM11.9355 9.2128C10.6999 10.2719 9.52678 11.4018 8.42218 12.597L10.6935 14.974C11.7507 13.8723 12.8386 12.7856 13.9765 11.7629L11.9355 9.2128ZM41.6521 21.7747L40.2955 23.459C41.1962 23.8066 42.1823 23.8672 43.1188 23.6326L41.6521 21.7747ZM47.0617 15.0686L44.57 18.1384L46.8881 21.0508C47.9297 20.1048 48.9074 19.1144 49.8856 18.1067L47.0617 15.0686ZM41.7027 14.5011L43.4059 12.4389C42.3629 12.1916 41.2666 12.3083 40.2989 12.7695L41.7027 14.5011ZM10.0153 6.7873C8.02768 8.435 6.22438 10.2929 4.63678 12.3288C2.60198 15.2884 2.39658 19.2552 3.61188 22.5114L4.93618 21.0942C4.83128 20.7161 4.74709 20.3325 4.68408 19.9452C4.29298 17.6432 4.76478 15.2778 6.00898 13.302C7.50268 11.3916 9.19458 9.6448 11.0563 8.091L10.0153 6.7873ZM5.33068 9.3218C6.49048 8.0698 7.72288 6.887 9.02148 5.7796C8.24858 5.1497 7.31828 4.6623 6.37178 4.8982C5.98748 5.0105 5.63878 5.2203 5.35958 5.5072C5.08048 5.7942 4.88029 6.1486 4.77869 6.5358C4.64509 7.0109 4.62538 7.5108 4.72128 7.9949C4.81718 8.479 5.02598 8.9336 5.33068 9.3218ZM3.29578 11.7935C3.62968 11.3211 4.00588 10.8648 4.36868 10.4085C3.86638 9.8335 3.51648 9.1416 3.35118 8.3962C3.18598 7.6508 3.21048 6.8758 3.42268 6.1424C3.59828 5.516 3.93328 4.9458 4.39489 4.4875C4.85659 4.0291 5.42918 3.6983 6.05688 3.5272C7.46068 3.165 9.27468 3.732 11.0569 5.8085L15.0944 10.8776L16.4197 9.807L12.3818 4.738C10.7731 2.81719 8.32818 1.2119 5.66228 1.87294C4.75008 2.12715 3.91708 2.60846 3.24128 3.2719C2.56548 3.9353 2.06888 4.7592 1.79788 5.6667C1.48398 6.7287 1.45728 7.855 1.72048 8.9307C1.98368 10.0064 2.52748 10.9931 3.29638 11.7901L3.29578 11.7935ZM15.52 29.755C16.1683 30.0427 16.8318 30.295 17.5076 30.5106C19.2455 31.0461 21.0741 31.2232 22.8824 31.031C24.6908 30.8389 26.4413 30.2815 28.0279 29.3927C27.3814 28.6694 26.7815 27.8976 26.1823 27.142C24.9186 27.8826 23.5084 28.3384 22.0502 28.4774C20.4062 28.6329 18.7513 28.3275 17.2711 27.5955L15.52 29.755ZM12.7757 28.2437C13.2642 28.5587 13.7534 28.8558 14.2269 29.1095L21.0403 20.6718L19.9831 19.3175L12.7757 28.2437ZM8.13838 24.1818C9.15339 25.4049 10.3193 26.4943 11.6083 27.4241L13.7378 24.8089L10.6463 21.5555L8.13838 24.1818ZM5.96168 26.4631C7.03858 27.7161 8.25588 28.8411 9.58958 29.8162C14.5897 33.5782 19.4161 34.696 23.769 34.0662C26.1223 33.6917 28.3757 32.8457 30.3939 31.5789C29.9365 31.2011 29.4791 30.8233 29.0534 30.4143C27.3621 31.4184 25.4928 32.0865 23.5482 32.3819C19.6209 32.9644 15.2206 31.9256 10.6145 28.4624C9.84168 27.8642 9.02149 27.2032 8.20129 26.4314C7.82269 26.052 7.46449 25.6527 7.12849 25.2351L5.96168 26.4631ZM8.72208 30.9496C7.35858 29.9337 6.10548 28.7774 4.98349 27.4998C4.71959 27.8082 4.56058 28.1925 4.52948 28.5972C4.49838 29.0019 4.59678 29.406 4.81038 29.7511C5.00618 30.1364 5.27749 30.4785 5.60799 30.757C5.93849 31.0356 6.32158 31.2449 6.73458 31.3725C7.07398 31.4822 7.43639 31.5007 7.78528 31.426C8.13408 31.3514 8.45718 31.1864 8.72208 30.9474V30.9496ZM11.3401 32.6974C10.851 32.4141 10.3619 32.1148 9.88888 31.7843C9.43909 32.2642 8.86308 32.6075 8.22698 32.7748C7.59089 32.9421 6.92048 32.9267 6.29278 32.7302C5.11178 32.3541 4.12618 31.5287 3.54848 30.4321C3.22878 29.865 3.07828 29.2182 3.11458 28.5682C3.15078 27.9182 3.37248 27.2922 3.75318 26.7642C5.78808 24.7488 7.72838 22.6243 9.68418 20.5144L8.51569 19.3025C6.54428 21.428 4.58838 23.5842 2.52238 25.6151C1.08678 27.0318 1.21308 29.6136 2.04888 31.2189C2.43138 31.9631 2.95718 32.6243 3.59598 33.1647C4.23478 33.7051 4.97408 34.1139 5.77138 34.3678C6.76108 34.6631 7.81559 34.6624 8.80488 34.3658C9.79418 34.0692 10.6751 33.4896 11.339 32.6985L11.3401 32.6974ZM46.3878 25.4421C48.3937 23.8833 50.2761 22.1718 52.0183 20.323L50.8498 19.0793C49.1342 20.8892 47.2949 22.5776 45.3451 24.1323C44.3854 24.8003 43.249 25.1682 42.08 25.1895C41.1488 25.1982 40.2275 24.9991 39.383 24.6069L38.2946 25.9612C39.4823 26.5654 40.7948 26.8834 42.1273 26.8899C43.6636 26.8673 45.1539 26.3611 46.3862 25.4432L46.3878 25.4421ZM28.2961 6.9292C26.6228 5.9947 24.7767 5.4109 22.8704 5.2132C20.387 4.9515 17.8812 5.4221 15.6619 6.567L17.6177 9.0069C19.039 8.2477 20.6491 7.9142 22.255 8.0465C23.6567 8.1534 25.0209 8.5501 26.2613 9.2117C26.9084 8.4087 27.5861 7.6537 28.2961 6.9303V6.9292ZM30.9303 8.7398C30.4828 8.3568 30.0141 7.9994 29.5264 7.6692C28.6246 8.559 27.7866 9.5112 27.0186 10.5187L22.8543 15.7447L23.9588 17.0673C26.2457 14.2496 28.4224 11.3528 30.9303 8.7398ZM31.7343 26.6568C32.5337 25.8879 33.282 25.0676 33.9745 24.2013C32.7152 22.5635 32.0379 20.5526 32.0498 18.4868C32.0753 16.2529 32.7855 14.0806 34.0847 12.2631C33.4123 11.3586 32.691 10.4915 31.9241 9.6657C31.1244 10.4298 30.3761 11.2458 29.6839 12.1084C30.9416 13.7534 31.6185 15.7689 31.6085 17.8396C31.579 20.0708 30.8687 22.2397 29.5726 24.056C30.2489 24.9576 30.97 25.8247 31.7332 26.654L31.7343 26.6568ZM34.132 28.6399C35.0336 27.7555 35.8716 26.8085 36.6398 25.806L40.8041 20.5795L39.6996 19.2546C37.4121 22.0568 35.2354 24.9691 32.7442 27.5821C33.1833 27.9658 33.6481 28.319 34.1353 28.6393L34.132 28.6399ZM47.9965 29.7578L46.0562 27.3022C44.6329 28.0722 43.0161 28.4112 41.4034 28.2777C40.0034 28.1614 38.641 27.7651 37.3971 27.1125C36.7505 27.916 36.0722 28.6705 35.3622 29.3938C36.7741 30.1836 38.3104 30.7267 39.9049 30.9997C41.8315 31.3553 43.815 31.2475 45.6917 30.6853C46.4866 30.4479 47.2577 30.1368 47.9948 29.7561L47.9965 29.7578ZM49.9523 32.2133L48.8951 30.8778C46.0725 32.4256 42.8063 32.9644 39.6361 32.4052C35.9996 31.7293 32.6888 29.8694 30.2197 27.1153C29.6522 26.4698 29.1158 25.7932 28.5794 25.1005C28.1783 25.5045 27.7571 25.8879 27.3174 26.2495C27.8382 26.9422 28.3746 27.6188 28.9422 28.2643C31.6721 31.2842 35.3189 33.3233 39.3212 34.0678C42.9731 34.7137 46.7358 34.0563 49.9523 32.2105V32.2133ZM59.2897 25.9162C59.7952 26.4894 60.1471 27.1815 60.3125 27.9276C60.4779 28.6738 60.4515 29.4497 60.2356 30.1829C60.0574 30.8079 59.7216 31.3767 59.2603 31.8347C58.7991 32.2926 58.2279 32.6244 57.6015 32.7981C56.1976 33.1447 54.3998 32.5939 52.6015 30.5167L48.5635 25.4482L47.2386 26.5188L51.2766 31.5873C52.8858 33.5081 55.3302 35.1134 57.996 34.4523C58.9082 34.1982 59.741 33.717 60.4167 33.0536C61.0924 32.3903 61.5889 31.5665 61.8599 30.6592C62.1741 29.5983 62.2025 28.4732 61.9422 27.3978C61.6819 26.3224 61.1421 25.3349 60.3775 24.5351C60.2985 24.6464 60.2201 24.7393 60.155 24.8345C59.8712 25.1962 59.5874 25.5578 59.2875 25.9201L59.2897 25.9162ZM54.6369 30.5445C55.3936 31.1744 56.3401 31.6624 57.2866 31.4265C57.6715 31.3122 58.0211 31.102 58.3025 30.8156C58.5839 30.5291 58.7879 30.1758 58.8952 29.7889C59.0224 29.3122 59.0373 28.8124 58.9388 28.3289C58.8403 27.8454 58.6312 27.3914 58.3277 27.0023C57.1677 28.254 55.9353 29.4366 54.6369 30.544V30.5445ZM55.2517 23.7255L52.9804 21.3485C51.9081 22.4502 50.8198 23.5363 49.6841 24.5596L51.719 27.1097C52.9574 26.0469 54.1368 24.9172 55.2517 23.7255ZM57.0818 21.0803L49.0375 12.597L47.9019 13.9825L56.1826 22.6405C56.5543 22.1661 56.857 21.6416 57.0818 21.0825V21.0803ZM57.5548 16.4842C57.0657 16.985 56.5927 17.5069 56.1192 18.0266L57.5392 19.5223C57.7257 18.5186 57.731 17.4897 57.5548 16.4842ZM60.047 13.8078C59.6052 14.28 59.1636 14.7524 58.7222 15.225C59.0428 16.3597 59.1602 17.5421 59.0688 18.7177C58.9633 20.2424 58.4751 21.716 57.6494 23.0022C56.1561 24.9175 54.4642 26.6692 52.602 28.2281L53.6431 29.5352C55.6269 27.8835 57.4298 26.026 59.0215 23.9937C60.1453 22.32 60.7634 20.3582 60.8021 18.3426C60.84 16.797 60.5832 15.2584 60.0454 13.8089L60.047 13.8078ZM53.7694 4.5366C54.2192 4.0567 54.7952 3.7133 55.4314 3.546C56.0675 3.3787 56.7379 3.3942 57.3656 3.5906C57.9516 3.7746 58.4956 4.0724 58.9665 4.4668C59.4374 4.8612 59.826 5.3446 60.1099 5.8892C60.4298 6.4563 60.5804 7.1031 60.5441 7.7532C60.5079 8.4032 60.2861 9.0293 59.9051 9.5572C57.8703 11.572 55.93 13.697 53.9742 15.7892L55.1427 17.0172C57.1141 14.8922 59.0699 12.7355 61.1365 10.7051C62.5715 9.2879 62.4613 6.7066 61.6095 5.1008C61.2268 4.3568 60.701 3.6956 60.0622 3.1554C59.4234 2.6151 58.6842 2.20632 57.887 1.95251C56.9003 1.65658 55.8494 1.65062 54.8595 1.93534C53.8696 2.22007 52.9824 2.78346 52.3038 3.5584C52.8079 3.8733 53.297 4.2038 53.7705 4.5343L53.7694 4.5366ZM58.6743 8.821C58.9387 8.5098 59.0978 8.1229 59.129 7.7158C59.1601 7.3086 59.0618 6.902 58.8479 6.5542C58.4455 5.7871 57.7614 5.2059 56.9394 4.9327C56.5956 4.8294 56.2311 4.8156 55.8805 4.8928C55.5299 4.9699 55.2049 5.1353 54.9362 5.3734C56.3029 6.3852 57.556 7.5419 58.6737 8.8233L58.6743 8.821ZM52.0528 8.8839L49.9234 11.5125L53.0305 14.7553L55.5227 12.1401C54.5082 10.9119 53.3423 9.8171 52.0528 8.8817V8.8839ZM49.4343 7.2146L42.618 15.6501L43.6753 17.0044L50.8838 8.0782C50.3947 7.7633 49.9217 7.4661 49.4326 7.2124L49.4343 7.2146ZM35.6349 6.9309C36.2814 7.6542 36.8807 8.4265 37.48 9.1822C38.7438 8.4414 40.1542 7.9857 41.6126 7.8467C43.2618 7.6909 44.9219 7.9961 46.4079 8.7281L48.1428 6.5714C46.3011 5.7249 44.3021 5.2745 42.2753 5.2493C39.9547 5.237 37.6692 5.8165 35.6349 6.9331V6.9309ZM33.2689 4.743C33.7263 5.1052 34.1837 5.4986 34.6099 5.9081C36.301 4.9042 38.1699 4.236 40.1141 3.9401C44.0419 3.358 48.4427 4.3969 53.0483 7.8601C53.892 8.4887 54.6979 9.1667 55.4615 9.8905C55.856 10.2839 56.2027 10.6773 56.5338 11.0712L57.7022 9.8593C56.6349 8.603 55.4225 7.4775 54.0904 6.5063C49.0748 2.72817 44.2478 1.62644 39.9105 2.25576C37.5499 2.62069 35.2895 3.4673 33.2701 4.743H33.2689ZM12.7646 3.0425C16.3339 0.935329 20.5339 0.15967 24.6204 0.853C27.2705 1.33879 29.7932 2.3613 32.0337 3.8577C35.1974 1.75657 38.9309 0.6794 42.7277 0.77232C45.6412 0.85188 48.499 1.58917 51.0874 2.92904C51.9251 1.86404 53.0616 1.07336 54.3514 0.6583C55.6412 0.24324 57.0255 0.22268 58.3271 0.59927C60.2903 1.22645 61.9242 2.60738 62.8698 4.4386C64.021 6.6426 64.021 9.8226 62.1281 11.6956C61.7814 12.0261 61.4659 12.3566 61.1348 12.6871C61.8851 14.4587 62.2557 16.3678 62.2227 18.2914C62.2096 19.9987 61.8332 21.6836 61.1187 23.2342C62.0805 24.1892 62.7999 25.3604 63.217 26.6501C63.6538 28.0823 63.6482 29.613 63.2009 31.042C62.8613 32.1886 62.2335 33.229 61.3774 34.064C60.5214 34.899 59.4657 35.5007 58.311 35.8117C55.5038 36.505 52.8379 35.1996 50.8982 33.2772C47.3324 35.3837 43.1356 36.1591 39.0524 35.4656C36.3988 34.9756 33.8718 33.9535 31.6236 32.4609C31.1979 32.7285 30.7722 32.9962 30.3304 33.2477C28.2085 34.4564 25.8638 35.2232 23.4377 35.5018C21.0115 35.7805 18.5541 35.5653 16.2133 34.8691C14.9612 34.4886 13.7469 33.9931 12.5859 33.389C11.7474 34.4531 10.6108 35.2431 9.32108 35.6581C8.03148 36.073 6.64738 36.0942 5.34568 35.7188C4.37038 35.4108 3.46558 34.9131 2.68328 34.2542C1.90098 33.5953 1.25668 32.7882 0.787482 31.8794C-0.363218 29.6765 -0.363217 26.496 1.52858 24.623C1.87588 24.2925 2.20748 23.962 2.53858 23.6315C1.82108 21.9652 1.44568 20.1718 1.43458 18.3577C1.40258 16.5392 1.77988 14.7368 2.53858 13.0838C1.57508 12.1269 0.860186 10.9489 0.456386 9.6524C0.00628558 8.2283 0.00628558 6.7001 0.456386 5.276C0.795886 4.1294 1.42358 3.0889 2.27948 2.25385C3.13538 1.41877 4.19108 0.81694 5.34568 0.50579C6.79028 0.15571 8.31008 0.29424 9.66748 0.89974C10.8265 1.40728 11.8765 2.13415 12.7596 3.0403L12.7646 3.0425ZM35.0812 11.2265C35.4847 10.8185 35.912 10.4348 36.361 10.0775C35.8246 9.3847 35.2882 8.7075 34.7207 8.0626C31.9993 5.0392 28.3569 2.99763 24.3577 2.25409C20.7008 1.5993 16.9302 2.2571 13.7111 4.1114L14.7838 5.4469C17.6007 3.8993 20.8618 3.3606 24.0267 3.92C27.6591 4.5968 30.968 6.4498 33.4431 9.1933C34.0106 9.8388 34.547 10.5315 35.0834 11.2243L35.0812 11.2265ZM38.9762 13.3832C38.5206 13.7384 38.1076 14.1451 37.7454 14.5951L44.4648 23.0333L45.7897 21.9472L38.9762 13.3832ZM42.0204 10.896C42.8142 10.8347 43.6118 10.9475 44.3574 11.2265L45.5087 9.8911C44.4017 9.3699 43.1809 9.1372 41.9598 9.2144C39.9149 9.3541 37.9838 10.2063 36.5024 11.6227C35.4646 12.5567 34.6506 13.7126 34.1208 15.0043C33.591 16.2961 33.359 17.6906 33.442 19.0844C33.6013 20.5235 34.1103 21.9018 34.9249 23.099L36.0127 21.6973C35.4995 20.8528 35.1966 19.8973 35.1296 18.9113C35.0698 17.8456 35.2373 16.7793 35.621 15.7832C36.0047 14.7871 36.5959 13.884 37.3553 13.1339C38.5851 11.8417 40.2466 11.0461 42.0243 10.8982L42.0204 10.896ZM38.7865 18.1852L37.0677 16.029C36.7321 16.7129 36.551 17.4623 36.5374 18.2239C36.5237 18.9856 36.6778 19.741 36.9887 20.4365L38.7865 18.1852ZM24.8758 18.1379L26.5951 20.2946C26.9307 19.6106 27.1116 18.8611 27.1252 18.0993C27.1387 17.3375 26.9846 16.5821 26.6736 15.8866L24.8758 18.1379ZM66.8471 35.958V26.26H73.58V27.6606H68.405V30.3058H71.291C72.332 30.3214 73.09 30.4627 73.628 30.9179C74.148 31.3747 74.338 32.0986 74.338 33.0746C74.376 33.4695 74.331 33.8681 74.207 34.2448C74.082 34.6215 73.88 34.9681 73.614 35.2625C72.966 35.7836 72.14 36.0321 71.312 35.9552H66.8477L66.8471 35.958ZM71.232 34.5408C72.667 34.4779 72.715 34.2576 72.778 33.0768C72.699 31.7381 72.604 31.801 71.108 31.7225H68.412V34.5402H71.235L71.232 34.5408ZM95.111 35.8156H93.837L93.141 33.9582H88.801L88.06 35.8156H86.404L89.921 26.4175L89.984 26.2606H91.832L95.488 35.8161H95.109L95.111 35.8156ZM89.242 32.5727H92.616L90.93 27.9922L89.242 32.5727ZM115.096 35.9575H113.799V31.7225H108.802V35.9575H107.255V26.26H108.802V30.322H113.799V26.26H115.363V35.9575H115.096ZM133.786 35.9575L129.479 31.7225H128.912V35.9575H127.348V26.26H128.912V30.322H129.479L133.33 26.26H135.444L130.865 30.9513L135.962 35.9591H133.786V35.9575ZM84.637 0.18863V2.70758C84.637 8.485 78.343 8.6736 78.343 16.8436V24.5602H81.451V16.4363C81.554 13.5821 82.303 10.7885 83.643 8.2663L84.637 6.4089V24.5602H87.744V0.18863H84.637ZM131.371 0C128.706 0 126.986 1.13344 126.986 3.1488V4.2817C126.986 6.4857 127.932 6.8162 130.08 7.4617C130.842 7.7058 131.51 8.1779 131.995 8.8142C132.479 9.4505 132.757 10.2203 132.79 11.0195C132.79 13.3648 130.175 14.6085 128.138 14.6085C127.751 14.6055 127.365 14.5634 126.986 14.4827V24.5602H130.08V14.9418C131.154 14.6092 132.1 13.9553 132.79 13.0683V24.5602H135.884V3.3397C135.884 1.35657 134.509 0.00111008 131.371 0.00111008V0ZM132.79 8.9585C132.144 7.6681 130.08 7.2269 130.08 5.5086V2.411C130.08 0.94704 130.948 0.86858 131.499 0.86858C132.144 0.86858 132.79 0.97987 132.79 2.411V8.9596V8.9585ZM123.926 24.5602L123.909 0.18863H120.821V5.1631L118.122 9.3363V0.18863H115.018V24.5602H118.122V11.1007L120.821 6.9921V24.5602H123.926ZM111.863 14.4855C111.477 14.5585 111.086 14.6005 110.694 14.6112C108.279 14.6112 106.042 13.1 106.042 11.0223C106.042 9.2278 107.289 8.0176 108.802 7.4645C110.266 6.9136 111.846 6.8819 111.846 4.2533V3.1193C111.846 1.10451 110.127 0.00333977 107.461 0.00333977C104.323 0.00333977 102.949 1.35713 102.949 3.2935V24.5602H111.863V14.4849V14.4855ZM106.104 2.25409C106.104 0.79013 106.877 0.74283 107.395 0.74283C107.873 0.74283 108.819 0.79013 108.819 2.25409V5.3556C108.819 7.0872 106.922 7.4806 106.104 8.8055V2.25353V2.25409ZM108.819 23.9937H106.104V13.1156C106.776 14.0308 107.73 14.7002 108.819 15.0208V23.9937ZM96.689 0.18863V3.6207C95.993 6.7061 93.974 8.4221 91.18 8.4221C91.08 8.4255 90.98 8.4094 90.885 8.3748L90.869 24.5602H93.974V14.4538L96.689 18.6097V24.5602H99.777L99.794 0.18863H96.689ZM96.689 17.0167L93.974 12.8613V8.456C95.18 7.9019 96.145 6.9285 96.689 5.7167V17.0195V17.0167ZM75.22 8.4238V3.3085C75.22 1.4979 73.99 0.0500798 70.883 0.0500798C67.4603 0.0500798 66.4037 1.49679 66.4037 3.7498V20.7664C66.4037 23.0016 67.4609 24.45 70.851 24.45C73.943 24.45 75.189 23.0033 75.189 21.191V18.6097H72.128V21.191C72.128 22.8909 72.05 23.8062 70.725 23.8062C69.668 23.8062 69.445 22.8603 69.445 21.8543L69.461 2.66473C69.461 1.64146 69.683 0.69665 70.74 0.69665C72.113 0.69665 72.16 1.64257 72.16 3.4198L72.144 8.4277H75.22V8.4238Z" fill="#0A90E8"/>
</svg>
