<svg width="400" height="250" viewBox="0 0 400 250" fill="none" xmlns="http://www.w3.org/2000/svg">
<path fill-rule="evenodd" clip-rule="evenodd" d="M132.97 114.071V90.385H124.432V94.3935C124.432 99.1308 124.069 103.139 123.342 106.601C122.797 109.334 121.889 111.885 120.618 114.071H132.97ZM144.596 81.2749V114.254H147.866H148.955V132.838H139.146V124.457H114.441V132.838H104.632V114.071H105.722H107.902C109.9 110.792 111.353 107.148 112.262 103.504C113.17 99.4952 113.533 95.3045 113.533 90.9316V81.2749V80.1816H114.441H143.506H144.596V81.2749Z" fill="#6B132C"/>
<path fill-rule="evenodd" clip-rule="evenodd" d="M164.578 90.5672V96.9444H179.473H180.563V98.0376V105.69V106.783H179.473H164.578V114.071H182.561H183.651V115.347V123.546V124.639H182.561H154.223H153.133V123.546V81.2749V80.1816H154.223H182.016H183.106V81.2749V89.474V90.5672H182.016H164.578Z" fill="#6B132C"/>
<path fill-rule="evenodd" clip-rule="evenodd" d="M206.176 90.5672H202.361V99.6774H206.176C208.174 99.6774 209.628 99.313 210.536 98.5842C211.444 97.8554 211.807 96.7621 211.807 94.9401C211.807 90.5672 208.174 90.5672 206.358 90.5672H206.176ZM190.736 123.546V81.2749V80.1816H191.826H207.993C212.171 80.1816 216.167 81.0927 219.255 83.2791C222.343 85.6477 224.16 89.2918 224.16 94.9401C224.16 102.046 221.253 105.872 217.802 107.877C214.351 109.881 210.354 110.063 207.811 110.063H202.361V123.546V124.639H201.272H191.826H190.736V123.546Z" fill="#6B132C"/>
<path fill-rule="evenodd" clip-rule="evenodd" d="M257.584 124.639H248.138H247.048V123.546V107.694L236.512 124.093L236.149 124.639H235.604H224.16H221.98L223.252 122.817L238.874 100.771L223.797 81.8215L222.343 80.1816H224.523H235.786H236.331L236.694 80.546L247.048 95.3045V81.2749V80.1816H248.138H257.584H258.674V81.2749V95.3045L269.028 80.546L269.391 80.1816H269.936H281.017H283.197L281.744 81.8215L266.667 100.771L282.289 122.817L283.56 124.639H281.38H270.118H269.391L269.21 124.093L258.674 107.694V123.546V124.639H257.584Z" fill="#6B132C"/>
<path fill-rule="evenodd" clip-rule="evenodd" d="M300.999 95.8511L297.184 107.33H304.632L300.999 95.8511ZM280.109 123.182L295.005 80.9105L295.186 80.1816H295.913H305.359H306.085L306.267 80.9105L321.344 123.182L321.889 124.639H320.254H310.627H309.9L309.718 123.91L307.357 116.805H294.46L292.28 123.91L292.098 124.639H291.371H281.381H279.746L280.109 123.182Z" fill="#6B132C"/>
<path fill-rule="evenodd" clip-rule="evenodd" d="M340.599 106.783H335.513V114.254H341.689C342.416 114.254 343.324 114.071 344.232 113.525C344.959 112.978 345.686 112.067 345.686 110.61C345.686 108.97 345.141 108.059 344.232 107.694C343.506 106.966 342.053 106.783 340.599 106.783ZM340.236 90.5672H335.513V96.7621H340.599C342.053 96.7621 342.961 96.2155 343.506 95.6689C344.051 94.9401 344.232 94.2113 344.232 93.4825C344.232 92.7537 344.051 92.0249 343.506 91.4783C342.961 90.9316 342.053 90.5672 340.236 90.5672ZM323.887 123.546V81.2749V80.1816H324.977H342.598C348.229 80.1816 351.499 81.8215 353.497 84.1901C355.495 86.5588 356.04 89.474 356.04 92.0249C356.04 94.7579 355.313 96.7621 353.86 98.402C353.133 99.313 352.225 100.042 351.135 100.588C353.133 101.499 355.313 102.957 356.585 105.69C356.948 106.419 357.311 107.33 357.493 108.241C357.675 109.152 357.856 110.245 357.856 111.338C357.856 116.987 355.677 120.084 352.407 122.088C349.319 123.91 345.322 124.275 341.508 124.275H324.977H323.887V123.546Z" fill="#6B132C"/>
<path fill-rule="evenodd" clip-rule="evenodd" d="M378.928 95.8511L375.114 107.33H382.561L378.928 95.8511ZM358.22 123.182L373.115 80.9105L373.297 80.1816H374.024H383.47H384.196L384.378 80.9105L399.455 123.182L400 124.639H398.365H388.737H388.011L387.829 123.91L385.468 116.805H372.57L370.391 123.91L370.209 124.639H369.482H359.491H358.038L358.22 123.182Z" fill="#6B132C"/>
<path d="M20.8901 117.534H31.6076V105.509C26.703 108.059 22.8883 112.432 20.8901 117.534Z" fill="#6B132C"/>
<path d="M42.5068 151.424C51.2262 151.424 58.8556 146.687 62.852 139.581H22.1617C26.158 146.687 33.7875 151.424 42.5068 151.424Z" fill="#6B132C"/>
<path d="M0 80V165.453H85.1953V80H0ZM9.26431 126.28C9.26431 111.703 18.5286 99.3136 31.6076 94.9407V84.5551H40.6903V126.826H9.44596C9.44596 126.462 9.26431 126.28 9.26431 126.28ZM42.5068 161.263C25.0681 161.263 10.7175 147.78 9.44596 130.47H75.5677C74.2961 147.78 59.9455 161.263 42.5068 161.263ZM75.5677 126.644H44.3233V84.5551H53.406V94.9407C66.3034 99.4958 75.7493 111.886 75.7493 126.28C75.5677 126.28 75.5677 126.462 75.5677 126.644Z" fill="#6B132C"/>
<path d="M53.2243 105.509V117.534H63.9419C61.9437 112.432 58.129 108.059 53.2243 105.509Z" fill="#6B132C"/>
<path fill-rule="evenodd" clip-rule="evenodd" d="M104.544 141.184H120.332V144.125H107.629V151.846H113.437C115.614 151.846 117.247 152.029 118.518 152.397C119.788 152.765 120.877 153.684 121.603 154.787C122.329 155.89 122.692 157.36 122.692 158.831C122.692 160.118 122.329 161.221 121.784 162.324C121.24 163.426 120.332 164.346 119.244 164.897C118.155 165.632 116.34 166 113.618 166H104V141.184H104.544ZM107.811 163.243H114.344C116.159 163.243 117.429 162.875 118.336 162.14C119.244 161.404 119.607 160.301 119.607 158.831C119.607 157.728 119.425 156.993 118.881 156.257C118.336 155.522 117.61 155.154 116.885 154.971C115.977 154.787 114.525 154.603 112.348 154.603H107.992V163.243H107.811ZM142.291 166L151.727 141.184H155.175L165.156 166H161.527L158.623 158.463H148.461L145.739 166H142.291ZM149.187 155.89H157.534L154.994 149.088C154.268 147.066 153.723 145.228 153.179 143.941C152.816 145.596 152.453 147.066 151.909 148.721L149.187 155.89ZM186.57 166V141.184H189.836V151.294H202.539V141.184H205.806V166H202.539V154.235H189.836V166H186.57ZM229.942 141.184H233.208V152.029C234.66 152.029 235.749 151.662 236.293 151.11C236.838 150.559 237.745 149.088 238.652 146.882C239.378 145.228 239.923 144.125 240.286 143.39C240.648 142.654 241.374 142.103 242.1 141.735C242.826 141.368 243.734 141 244.822 141C246.093 141 246.637 141 246.819 141V143.757C246.637 143.757 246.456 143.757 246.093 143.757C245.73 143.757 245.548 143.757 245.367 143.757C244.278 143.757 243.552 143.941 243.008 144.493C242.463 145.044 241.919 146.147 241.193 147.801C240.286 149.824 239.741 151.294 239.197 151.846C238.652 152.397 237.926 152.765 237.2 153.132C238.834 153.5 240.286 154.971 241.919 157.544L247 165.816H243.008L238.834 159.015C237.745 157.176 236.838 155.89 235.93 155.154C235.204 154.419 234.115 154.051 233.027 154.051V165.632H229.76V141.184H229.942Z" fill="#6B132C"/>
</svg>
