<?xml version="1.0" encoding="utf-8"?>
<!-- Generator: Adobe Illustrator 21.0.2, SVG Export Plug-In . SVG Version: 6.00 Build 0)  -->
<svg version="1.1" id="Слой_1" xmlns="http://www.w3.org/2000/svg" xmlns:xlink="http://www.w3.org/1999/xlink" x="0px" y="0px"
	 width="300px" height="300px" viewBox="0 0 300 300" style="enable-background:new 0 0 300 300;" xml:space="preserve">
<style type="text/css">
	.st0{fill:#2E56A6;}
</style>
<g>
	<path class="st0" d="M74.1,92.4c1.1,7,2.9,13.9,5.5,20.5c9.3-2.7,18.9-4.4,28.5-4.8c2.9-31.2,11.7-56.9,41.8-81.6
		c5.8,4.8,11.2,10,16.1,15.8c6.9-3.1,14-5.5,21.3-7.4C176.9,21.3,164.2,9.6,150,0c-30.9,22.5-54.4,48.8-61.1,88.9
		C83.9,89.8,79,90.9,74.1,92.4z"/>
	<path class="st0" d="M92.4,225.9c7-1.1,13.9-2.9,20.5-5.5c-2.7-9.3-4.4-18.9-4.8-28.5c-31.3-2.9-56.9-11.7-81.6-41.8
		c4.8-5.8,10-11.2,15.8-16.1c-3.1-6.9-5.5-14-7.4-21.3C21.3,123.1,9.6,135.7,0,150c22.5,30.9,48.7,54.4,88.9,61.1
		C89.8,216.1,90.9,221,92.4,225.9z"/>
	<path class="st0" d="M211.1,88.9c-0.9-5-2-10-3.5-14.8c-7,1.1-13.9,2.9-20.5,5.5c2.8,9.3,4.4,18.8,4.8,28.5
		c31.3,2.9,56.9,11.7,81.6,41.8c-4.8,5.8-10,11.2-15.8,16.1c3.1,6.9,5.5,14,7.4,21.3c13.6-10.5,25.3-23.1,34.9-37.4
		C277.5,119.1,251.2,95.6,211.1,88.9z"/>
	<path class="st0" d="M225.9,207.6c-1.1-7-2.9-13.9-5.5-20.5c-9.3,2.8-18.9,4.4-28.5,4.8c-2.9,31.3-11.7,56.9-41.8,81.6
		c-5.8-4.8-11.2-10-16.1-15.8c-6.9,3.1-14,5.5-21.3,7.4c10.5,13.6,23.1,25.3,37.4,34.9c31-22.6,54.4-48.9,61.1-88.9
		C216.1,210.2,221,209,225.9,207.6z"/>
	<path class="st0" d="M137,55.6c-4.2,5.7-7.7,11.9-10.6,18.4c8.5,4.6,16.4,10.2,23.6,16.8c24.2-20.1,48.5-32,87.3-28.1
		c0.8,7.5,0.8,15,0.3,22.5c7,2.7,13.8,6,20.3,9.8c2.1-17,1.6-34.3-1.8-51.1c-38-5.9-73-3.9-106.1,19.7C145.9,60.7,141.5,58,137,55.6
		z"/>
	<path class="st0" d="M55.6,162.9c5.7,4.2,11.9,7.8,18.4,10.6c4.6-8.5,10.2-16.4,16.8-23.6c-20-24.1-32-48.4-28.1-87.3
		c7.5-0.8,15-0.9,22.5-0.3c2.7-7,6-13.8,9.8-20.3c-17-2.1-34.3-1.5-51.1,1.8c-6,38.1-3.8,73.1,19.7,106.1
		C60.7,154.1,58,158.5,55.6,162.9z"/>
	<path class="st0" d="M244.4,137c-5.7-4.2-11.9-7.7-18.4-10.6c-4.6,8.5-10.2,16.4-16.8,23.6c20,24.1,32,48.5,28.1,87.3
		c-7.5,0.8-15,0.8-22.5,0.3c-2.7,7-6,13.8-9.8,20.3c17,2.1,34.3,1.6,51.1-1.8c5.9-37.7,4-72.9-19.7-106.1
		C239.3,145.9,242,141.5,244.4,137z"/>
	<path class="st0" d="M163,244.4c4.2-5.7,7.8-11.9,10.6-18.4c-8.5-4.6-16.4-10.3-23.6-16.8c-24.2,20.1-48.5,32-87.3,28.1
		c-0.8-7.5-0.9-15-0.3-22.5c-7-2.7-13.8-6-20.3-9.8c-2.1,17-1.6,34.3,1.8,51.1c37.7,5.9,72.9,4,106.1-19.7
		C154.1,239.3,158.5,242,163,244.4z"/>
</g>
</svg>
