<svg width="180" height="72" viewBox="0 0 180 72" fill="none" xmlns="http://www.w3.org/2000/svg">
<path d="M147.352 30.4491V33.9099H150.879C151.754 33.8168 152.631 34.0718 153.32 34.6198C153.852 35.2823 154.106 36.1252 154.03 36.9714C154.076 37.7734 153.823 38.564 153.32 39.1899C152.63 39.7182 151.766 39.9641 150.902 39.8776H146.176V29.2954H153.164V30.4491H147.352ZM147.352 34.886V38.8793H150.835C151.405 38.9434 151.977 38.7844 152.432 38.4356C152.757 37.9948 152.907 37.4496 152.854 36.9049C152.927 36.3308 152.758 35.7523 152.388 35.3075C151.882 34.96 151.266 34.81 150.657 34.886H147.352Z" fill="#191919"/>
<path d="M161.173 36.2837V35.2188C161.251 34.6299 161.117 34.0323 160.796 33.5328C160.259 33.224 159.636 33.0994 159.021 33.1778C158.545 33.1463 158.067 33.2222 157.624 33.3997C157.351 33.6176 157.216 33.9644 157.269 34.3092V34.5311H156.137C156.009 33.8215 156.293 33.1005 156.869 32.6676C158.317 32.1958 159.883 32.2349 161.306 32.7785C161.952 33.3223 162.271 34.1614 162.149 34.997V39.8998H161.306V38.9681C161.129 39.3475 160.833 39.659 160.463 39.8555C159.932 40.0189 159.376 40.0865 158.821 40.0551C158.057 40.1179 157.291 39.9722 156.603 39.6336C156.033 39.1544 155.741 38.4212 155.827 37.6813C155.747 36.9742 156.041 36.2764 156.603 35.84C157.241 35.5208 157.955 35.3827 158.666 35.4407C159.249 35.4134 159.832 35.4732 160.397 35.6182C160.727 35.7395 161.003 35.9757 161.173 36.2837ZM161.173 37.7257C161.173 37.0897 161.018 36.6904 160.707 36.5277C160.066 36.306 159.386 36.2229 158.711 36.2837C158.277 36.2424 157.84 36.319 157.446 36.5055C157.122 36.7487 156.953 37.1463 157.002 37.5482C156.951 38.0035 157.087 38.46 157.379 38.8128C157.783 39.0662 158.258 39.1829 158.733 39.1455C159.323 39.1758 159.914 39.1159 160.485 38.9681C160.957 38.7437 161.233 38.2443 161.173 37.7257Z" fill="#191919"/>
<path d="M164.612 32.4901H165.743V35.5072H169.603V32.4901H170.735V39.8776H169.603V36.4168H165.743V39.8776H164.612V32.4901Z" fill="#191919"/>
<path d="M174.329 32.4901V35.485H174.772L177.435 32.4901H178.788L175.638 35.9065L179.365 39.8776H177.9L174.772 36.3502H174.329V39.8776H173.197V32.4901H174.329Z" fill="#191919"/>
<path d="M136.57 20H135.638V51.436H136.57V20Z" fill="#D8D8D8"/>
<path d="M46.9654 23.7936V26.0121H42.2844V28.2306H46.5882V30.4491H42.2844V34.3314H39.4447V23.7936H46.9654Z" fill="#191919"/>
<path d="M53.3324 34.4202H50.515V23.7936H55.9724C58.4128 23.7936 59.4998 24.5035 59.4998 26.966C59.4998 29.4286 59.278 29.8501 57.5919 30.2494V30.4491C58.8786 30.5822 59.4998 31.1368 59.4998 32.3348V34.5533H56.6823V32.6676C56.6823 31.8689 56.3718 31.3365 55.5287 31.3365H53.3102L53.3324 34.4202ZM53.3324 29.0292H55.5509C56.638 29.0292 56.7045 28.6965 56.7045 27.3876C56.7045 26.4336 56.4827 26.1452 55.5509 26.1452H53.3324V29.0292Z" fill="#191919"/>
<path d="M66.0666 28.0975H70.5035V30.0497H66.0666V32.1129H70.9694V34.3314H63.2491V23.7936H70.8807V26.0121H66.0666V28.0975Z" fill="#191919"/>
<path d="M77.6027 28.0975H82.0397V30.0497H77.6027V32.1129H82.5277V34.3314H74.7852V23.7936H82.4168V26.0121H77.6027V28.0975Z" fill="#191919"/>
<path d="M86.3213 23.7936H91.6901C94.6407 23.7936 95.9496 24.9028 95.9496 27.8978V30.1163C95.9496 33.0003 95.0178 34.3758 92.0672 34.3758H86.3213V23.7936ZM89.161 31.9133H91.6457C92.6884 31.9133 93.0434 31.2255 93.0434 30.1163V27.8978C93.0434 26.5223 92.5997 26.2561 91.6235 26.2561H89.161V31.9133Z" fill="#191919"/>
<path d="M99.4326 30.6265V27.6316C99.4326 24.3704 101.407 23.7936 104.335 23.7936C107.264 23.7936 109.238 24.4148 109.238 27.676V30.6709C109.238 33.9321 107.197 34.5976 104.335 34.5976C101.474 34.5976 99.4326 33.8877 99.4326 30.6265ZM106.332 30.316V27.9422C106.332 26.3671 105.8 26.1896 104.335 26.1896C102.871 26.1896 102.339 26.3449 102.339 27.9422V30.316C102.339 31.8911 102.871 32.1129 104.335 32.1129C105.8 32.1129 106.332 31.8911 106.332 30.316Z" fill="#191919"/>
<path d="M117.402 23.7936L119.421 30.4491L121.373 23.7936H126.032V34.3758H123.193L123.592 26.3005H123.459L120.708 34.4202H118.268L115.605 26.2783H115.472L115.761 34.398H112.921V23.7936H117.402Z" fill="#191919"/>
<path d="M42.7946 40.1882V41.0978H40.8645V47.598H39.7331V41.0978H38.6017V40.1882H39.7331V39.079C39.6689 38.4569 39.8703 37.8365 40.2877 37.3708C40.8161 36.9955 41.4616 36.8223 42.1069 36.8827C42.3207 36.8598 42.5364 36.8598 42.7503 36.8827V37.7923C42.5068 37.7684 42.2616 37.7684 42.0182 37.7923C41.6961 37.7695 41.3778 37.8729 41.1308 38.0807C40.9281 38.3468 40.8331 38.6794 40.8645 39.0124V40.1882H42.7946Z" fill="#191919"/>
<path d="M46.2333 37.1046V38.3247H45.124V37.1046H46.2333ZM46.2333 40.2992V47.6867H45.124V40.2104L46.2333 40.2992Z" fill="#191919"/>
<path d="M50.3819 40.2104V41.0313C50.6115 40.6432 50.9741 40.3515 51.4024 40.2104C51.8452 40.1042 52.3006 40.0595 52.7556 40.0773C53.5382 39.9821 54.3284 40.1797 54.9741 40.6319C55.4608 41.2624 55.6764 42.0607 55.5731 42.8504V47.6423H54.4639V42.5842C54.527 42.1212 54.3899 41.6532 54.0867 41.2975C53.0485 40.8223 51.8415 40.8972 50.8699 41.4971C50.514 42.0579 50.3577 42.7223 50.4262 43.3829V47.598H49.317V40.2104H50.3819Z" fill="#191919"/>
<path d="M59.7217 42.2071H58.6124C58.513 41.487 58.8313 40.773 59.4333 40.3657C60.1399 40.0962 60.8983 39.99 61.6518 40.0551C62.4659 39.993 63.2826 40.138 64.0256 40.4767C64.6788 41.0153 64.9993 41.8586 64.8686 42.6951V47.6424H63.6928V46.6662C63.5156 47.0531 63.2098 47.3667 62.8276 47.5536C62.3047 47.7197 61.7556 47.7874 61.2081 47.7533C60.4439 47.8183 59.6766 47.6725 58.9896 47.3318C58.4195 46.8526 58.1278 46.1193 58.2131 45.3795C58.1366 44.6776 58.4205 43.9847 58.9674 43.5382C59.6075 43.2243 60.3196 43.0864 61.0306 43.1388C61.6203 43.1119 62.2108 43.1717 62.7832 43.3163C63.1007 43.4521 63.36 43.6957 63.5153 44.004V42.9392C63.5153 42.0518 63.3822 41.5193 63.1382 41.3197C62.586 41.0568 61.9704 40.9568 61.3634 41.0313C60.8901 40.9893 60.4134 41.0498 59.9657 41.2088C59.7217 41.3197 59.5886 41.6081 59.5886 42.0296L59.7217 42.2071ZM63.6928 45.4017C63.6928 44.7657 63.5375 44.3664 63.2269 44.2037C62.5866 43.98 61.9056 43.8968 61.2303 43.9597C60.7965 43.9183 60.3595 43.995 59.9657 44.1815C59.6419 44.4246 59.4727 44.8223 59.522 45.2242C59.4662 45.6731 59.6032 46.1245 59.8992 46.4666C60.3028 46.72 60.7773 46.8367 61.2524 46.7993C61.8365 46.8343 62.4221 46.7667 62.9829 46.5997C63.456 46.3985 63.7435 45.9133 63.6928 45.4017Z" fill="#191919"/>
<path d="M68.9506 40.2104V41.0313C69.1666 40.6405 69.5237 40.3469 69.9489 40.2104C70.392 40.1056 70.8472 40.0608 71.3022 40.0773C72.0848 39.9821 72.8749 40.1797 73.5207 40.6319C74.0269 41.253 74.252 42.0567 74.1418 42.8504V47.6423H73.0104V42.5842C73.0736 42.1212 72.9364 41.6532 72.6333 41.2975C72.2145 41.0423 71.723 40.9331 71.2356 40.9869C70.5921 40.9042 69.9427 41.0886 69.4386 41.4971C69.0725 42.0535 68.9153 42.7216 68.995 43.3829V47.598H67.8635V40.2104H68.9506Z" fill="#191919"/>
<path d="M82.1506 44.8914H83.2376C83.3261 45.702 83.0591 46.5112 82.5055 47.1099C81.7737 47.5545 80.9173 47.7491 80.0652 47.6646C79.1488 47.7802 78.2288 47.479 77.5583 46.8437C77.0171 45.936 76.7837 44.8777 76.8928 43.8266C76.7925 42.7858 77.0173 41.7394 77.5361 40.8316C78.1981 40.1972 79.1112 39.8956 80.0208 40.0108C80.7863 39.9645 81.5506 40.1174 82.2393 40.4545C82.8301 40.8727 83.1518 41.5753 83.0824 42.2958V42.5399H81.9953C82.0572 42.0942 81.9283 41.6431 81.6403 41.2975C81.1407 40.9972 80.5551 40.8723 79.9765 40.9425C79.3833 40.8591 78.7849 41.0558 78.357 41.475C78.0427 42.1698 77.9128 42.9338 77.9798 43.6935C77.9027 44.506 78.0404 45.3246 78.3792 46.0672C78.8038 46.5093 79.4131 46.7234 80.0208 46.6441C80.6093 46.711 81.2031 46.5782 81.7069 46.2669C82.0042 45.8708 82.1604 45.3866 82.1506 44.8914Z" fill="#191919"/>
<path d="M92.2003 44.1149H86.8982C86.8103 44.8776 86.9492 45.6493 87.2975 46.3334C87.7705 46.7349 88.39 46.9199 89.0057 46.8437C89.5862 46.8915 90.1701 46.8081 90.714 46.5997C90.958 46.4444 91.0689 46.1116 91.0689 45.5792V45.3573H92.2003C92.2829 46.1126 91.9732 46.8576 91.3795 47.3318C90.6399 47.6812 89.8204 47.8267 89.0057 47.7533C88.0805 47.861 87.1531 47.5707 86.4545 46.9546C85.9148 45.9826 85.712 44.8593 85.8776 43.76C85.7612 42.7136 86.0207 41.6599 86.6098 40.7872C87.2828 40.1714 88.187 39.8727 89.0945 39.9664C89.9932 39.8822 90.8882 40.1619 91.5792 40.7428C92.1504 41.5146 92.4116 42.4724 92.3113 43.4272L92.2003 44.1149ZM86.8982 43.2054H91.0689C91.1463 42.5862 90.9879 41.9605 90.6252 41.4528C89.6187 40.8322 88.3483 40.8322 87.3419 41.4528C86.9887 41.9649 86.8312 42.5869 86.8982 43.2054Z" fill="#191919"/>
<path fill-rule="evenodd" clip-rule="evenodd" d="M10.4491 29.118V33.0669H24.7805V41.0091H10.4491C10.4491 41.0091 10.4491 50.2602 10.4491 50.2824C11.5494 50.7921 12.7026 51.1789 13.8877 51.436C20.876 49.994 27.4205 43.7822 27.6424 32.7341V29.118H10.4491Z" fill="#5B8646"/>
<path d="M27.7755 29.118L27.9086 20.5546C23.3163 20.1997 18.6575 20 13.9543 20C9.25109 20 4.61445 20.1997 0 20.5546V27.2101L0.221849 32.6676C0.256165 35.7081 0.85028 38.7162 1.97445 41.5415C3.59871 45.472 6.65009 48.6422 10.5156 50.4155V41.0091H24.8471V33.0669H10.4491V29.118H27.7755Z" fill="#8DBA38"/>
</svg>
