<svg x="0" y="0" width="250px" height="48px" overflow="inherit" viewBox="0, 0, 250, 48" preserveAspectRatio="xMidYMid" font-size="0" xml:space="default" xmlns="http://www.w3.org/2000/svg" xmlns:xlink="http://www.w3.org/1999/xlink" xmlns:xml="http://www.w3.org/XML/1998/namespace" version="1.1"><title xml:space="default">logo_yellow (1)</title><desc xml:space="default">Created with Sketch.</desc><defs xml:space="default" /><g fill-rule="evenOdd" id="Page-1" xml:space="default" style="fill:none;"><g transform="translate(0, -25)" id="Artboard" xml:space="default" style="fill:#FFD200;"><g transform="translate(0, 25)" id="logo_yellow-(1)" xml:space="default"><path d="M23.68421 1.555024 C23.68421 8.373206 32.77512 8.373206 32.77512 15.311 L32.77512 20.33493 L13.1579 24.52153 L13.1579 15.311 C13.1579 8.373206 22.36842 8.373206 22.36842 1.555024 C9.928229 1.913876 0 12.08134 0 24.64115 C0 31.57895 2.990431 37.67942 7.655502 41.86603 C10.88517 41.14833 13.1579 38.27751 13.1579 34.92823 L13.1579 25.83732 L28.4689 22.60765 L28.4689 30.62201 C28.4689 35.4067 25.11962 39.5933 20.45455 40.55024 L8.971292 43.0622 C12.91866 46.05263 17.70335 47.96651 23.08612 47.96651 C35.76555 47.96651 46.17225 37.55981 46.17225 24.76077 C46.05263 12.08134 36.1244 1.913876 23.68421 1.555024 z" id="Shape" xml:space="default" /><path d="M117.9426 9.808613 L117.9426 2.751196 L119.1388 2.751196 L119.1388 5.263158 L120.6938 5.263158 C121.5311 5.263158 122.1292 5.502392 122.6077 5.861244 C123.0861 6.220096 123.3254 6.818182 123.3254 7.535885 C123.3254 8.253589 123.0861 8.851675 122.6077 9.210526 C122.1292 9.569378 121.5311 9.808613 120.6938 9.808613 L117.9426 9.808613 z M119.1388 8.732058 L120.6938 8.732058 C121.1722 8.732058 121.5311 8.61244 121.7703 8.373206 C122.0096 8.133971 122.1292 7.894737 122.1292 7.416268 C122.1292 7.057416 122.0096 6.818182 121.7703 6.578948 C121.5311 6.339713 121.1722 6.339713 120.6938 6.339713 L119.1388 6.339713 L119.1388 8.732058 z M124.2823 9.808613 L125.4785 9.808613 L125.4785 2.751196 L124.2823 2.751196 L124.2823 9.808613 z" id="Shape#1" xml:space="default" /><path d="M126.7943 9.808613 L126.7943 2.751196 L127.9904 2.751196 L127.9904 7.894737 L131.4593 2.751196 L132.6555 2.751196 L132.6555 9.808613 L131.4593 9.808613 L131.4593 4.665072 L127.9904 9.808613 L126.7943 9.808613 z M128.11 0.8373206 L128.8277 0.7177033 C128.9474 1.196172 129.1866 1.435407 129.6651 1.435407 C130.0239 1.435407 130.3828 1.196172 130.5024 0.7177033 L131.2201 0.8373206 C131.1005 1.315789 130.9809 1.555024 130.7416 1.913876 C130.5024 2.15311 130.1435 2.272727 129.6651 2.272727 C129.1866 2.272727 128.9474 2.15311 128.5885 1.913876 C128.4689 1.674641 128.2297 1.315789 128.11 0.8373206 z" id="Shape#2" xml:space="default" /><polygon points="136.4833,9.808613 136.4833,2.751196 137.6794,2.751196 137.6794,6.339713 141.0287,2.751196 142.4641,2.751196 139.5933,5.861244 142.5837,9.808613 141.1483,9.808613 138.756,6.698565 137.6794,7.77512 137.6794,9.808613" id="Shape#3" xml:space="default" /><path d="M142.5837 6.339713 C142.5837 5.861244 142.7034 5.382775 142.823 4.904306 C143.0622 4.425838 143.3014 4.066986 143.5407 3.708134 C143.8995 3.349282 144.2584 3.110048 144.7368 2.870813 C145.2153 2.631579 145.6938 2.631579 146.1723 2.631579 C146.6507 2.631579 147.1292 2.751196 147.6077 2.870813 C148.0861 3.110048 148.445 3.349282 148.8038 3.588517 C149.1627 3.947368 149.4019 4.30622 149.5215 4.784689 C149.6411 5.263158 149.7608 5.741627 149.7608 6.220096 C149.7608 6.698565 149.6411 7.177033 149.5215 7.655502 C149.2823 8.133971 149.0431 8.492823 148.8038 8.851675 C148.445 9.210526 148.0861 9.44976 147.6077 9.688995 C147.1292 9.928229 146.6507 9.928229 146.1723 9.928229 C145.4545 9.928229 144.8565 9.808613 144.2584 9.44976 C143.6603 9.090909 143.3014 8.732058 142.9426 8.133971 C142.7034 7.535885 142.5837 6.937799 142.5837 6.339713 M143.7799 6.339713 C143.7799 6.818182 143.8995 7.177033 144.1388 7.535885 C144.378 7.894737 144.6172 8.253589 144.9761 8.492823 C145.3349 8.732058 145.6938 8.851675 146.1723 8.851675 C146.6507 8.851675 147.0096 8.732058 147.3684 8.492823 C147.7273 8.253589 147.9665 8.014354 148.2057 7.535885 C148.445 7.177033 148.445 6.698565 148.445 6.220096 C148.445 5.741627 148.3254 5.382775 148.0861 5.023923 C147.8469 4.665072 147.6077 4.30622 147.2488 4.066986 C146.89 3.827751 146.5311 3.708134 146.0526 3.708134 C145.5742 3.708134 145.2153 3.827751 144.8565 4.066986 C144.4976 4.30622 144.2584 4.545455 144.0191 5.023923 C143.8995 5.382775 143.7799 5.861244 143.7799 6.339713" id="Shape#4" xml:space="default" /><polygon points="150.8373,9.808613 150.8373,2.751196 152.1531,2.751196 154.1866,6.100479 156.3397,2.751196 157.6555,2.751196 157.6555,9.808613 156.4593,9.808613 156.4593,4.784689 154.1866,8.133971 154.1866,8.133971 152.0335,4.784689 152.0335,9.808613" id="Shape#5" xml:space="default" /><polygon points="158.9713,9.808613 158.9713,2.751196 160.2871,2.751196 162.4402,6.100479 164.4737,2.751196 165.7895,2.751196 165.7895,9.808613 164.5933,9.808613 164.5933,4.784689 162.4402,8.133971 162.3206,8.133971 160.1675,4.784689 160.1675,9.808613" id="Shape#6" xml:space="default" /><polygon points="167.1053,9.808613 167.1053,2.751196 172.2488,2.751196 172.2488,3.947368 168.3014,3.947368 168.3014,5.741627 171.7703,5.741627 171.7703,6.818182 168.3014,6.818182 168.3014,8.732058 172.3684,8.732058 172.3684,9.808613" id="Shape#7" xml:space="default" /><path d="M173.3254 9.808613 L173.3254 2.751196 L176.0766 2.751196 C176.9139 2.751196 177.512 2.990431 177.9904 3.349282 C178.4689 3.827751 178.7081 4.30622 178.7081 5.023923 C178.7081 5.502392 178.5885 5.980861 178.3493 6.339713 C178.11 6.698565 177.7512 6.937799 177.3923 7.177033 C177.0335 7.296651 176.555 7.416268 175.9569 7.416268 L174.5215 7.416268 L174.5215 9.688995 L173.3254 9.688995 L173.3254 9.808613 z M174.5215 6.45933 L175.9569 6.45933 C176.4354 6.45933 176.7943 6.339713 177.0335 6.100479 C177.2727 5.861244 177.3923 5.502392 177.3923 5.143541 C177.3923 4.784689 177.2727 4.425838 177.0335 4.186603 C176.7943 3.947368 176.4354 3.827751 175.9569 3.827751 L174.5215 3.827751 L174.5215 6.45933 z" id="Shape#8" xml:space="default" /><path d="M179.1866 5.382775 L179.1866 2.751196 L180.3828 2.751196 L180.3828 5.023923 C180.3828 5.502392 180.5024 5.861244 180.7416 6.100479 C180.9809 6.339713 181.3397 6.45933 181.6986 6.45933 C182.0574 6.45933 182.2966 6.45933 182.6555 6.339713 C183.0144 6.220096 183.2536 6.100479 183.4928 5.980861 L183.4928 2.751196 L184.689 2.751196 L184.689 9.808613 L183.4928 9.808613 L183.4928 7.057416 C182.7751 7.416268 182.0574 7.655502 181.4593 7.655502 C180.7416 7.655502 180.1435 7.416268 179.7847 7.057416 C179.4258 6.698565 179.1866 6.100479 179.1866 5.382775" id="Shape#9" xml:space="default" /><polygon points="186.0048,9.808613 186.0048,2.751196 191.2679,2.751196 191.2679,3.947368 187.3206,3.947368 187.3206,5.741627 190.7895,5.741627 190.7895,6.818182 187.3206,6.818182 187.3206,8.732058 191.2679,8.732058 191.2679,9.808613" id="Shape#10" xml:space="default" /><path d="M191.866 6.339713 C191.866 5.861244 191.9856 5.382775 192.1053 4.904306 C192.2249 4.425838 192.5837 4.066986 192.823 3.708134 C193.1818 3.349282 193.5407 3.110048 194.0191 2.990431 C194.4976 2.751196 194.9761 2.751196 195.4545 2.751196 C196.0526 2.751196 196.5311 2.870813 197.0096 2.990431 C197.488 3.229665 197.8469 3.468899 198.2057 3.827751 L197.3684 4.784689 C197.0096 4.545455 196.7703 4.30622 196.4115 4.186603 C196.0526 4.066986 195.8134 3.947368 195.3349 3.947368 C194.8565 3.947368 194.4976 4.066986 194.1388 4.30622 C193.7799 4.545455 193.5407 4.784689 193.3014 5.263158 C193.0622 5.62201 193.0622 6.100479 193.0622 6.578948 C193.0622 7.296651 193.3014 7.894737 193.6603 8.373206 C194.1388 8.851675 194.6172 9.090909 195.3349 9.090909 C195.6938 9.090909 196.0526 8.971292 196.4115 8.851675 C196.7703 8.732058 197.0096 8.492823 197.3684 8.133971 L198.2057 8.971292 C197.9665 9.210526 197.7273 9.44976 197.488 9.688995 C197.2488 9.808613 196.89 10.04785 196.5311 10.04785 C196.1723 10.16746 195.8134 10.16746 195.3349 10.16746 C194.6172 10.16746 194.0191 10.04785 193.5407 9.688995 C192.9426 9.330144 192.5837 8.971292 192.2249 8.373206 C192.1053 7.655502 191.866 6.937799 191.866 6.339713" id="Shape#11" xml:space="default" /><polygon points="199.0431,9.808613 199.0431,2.751196 200.2392,2.751196 200.2392,6.339713 203.5885,2.751196 205.1435,2.751196 202.2727,5.861244 205.2632,9.808613 203.7081,9.808613 201.4354,6.698565 200.2392,7.77512 200.2392,9.808613" id="Shape#12" xml:space="default" /><polygon points="205.7416,9.808613 205.7416,2.751196 206.9378,2.751196 206.9378,7.894737 210.5263,2.751196 211.7225,2.751196 211.7225,9.808613 210.4067,9.808613 210.4067,4.665072 206.9378,9.808613" id="Shape#13" xml:space="default" /><path d="M212.9187 9.808613 L212.9187 2.751196 L214.1148 2.751196 L214.1148 7.894737 L217.5837 2.751196 L218.7799 2.751196 L218.7799 9.808613 L217.5837 9.808613 L217.5837 4.665072 L214.1148 9.808613 L212.9187 9.808613 z M214.3541 0.8373206 L215.0718 0.7177033 C215.1914 1.196172 215.4306 1.435407 215.9091 1.435407 C216.2679 1.435407 216.6268 1.196172 216.7464 0.7177033 L217.4641 0.8373206 C217.3445 1.315789 217.2249 1.555024 216.9856 1.913876 C216.7464 2.15311 216.3876 2.272727 215.9091 2.272727 C215.4306 2.272727 215.1914 2.15311 214.8325 1.913876 C214.5933 1.674641 214.4737 1.315789 214.3541 0.8373206 z" id="Shape#14" xml:space="default" /><path d="M222.6077 9.808613 L222.6077 2.751196 L227.7512 2.751196 L227.7512 3.827751 L223.8038 3.827751 L223.8038 5.382775 L225.7177 5.382775 C226.4354 5.382775 227.1531 5.62201 227.512 5.980861 C227.9904 6.339713 228.2297 6.937799 228.2297 7.535885 C228.2297 8.253589 227.9904 8.732058 227.512 9.090909 C227.0335 9.44976 226.4354 9.688995 225.5981 9.688995 L222.6077 9.688995 L222.6077 9.808613 z M223.8038 8.732058 L225.4785 8.732058 C226.0766 8.732058 226.4354 8.61244 226.6746 8.492823 C226.9139 8.373206 227.0335 8.014354 227.0335 7.655502 C227.0335 7.296651 226.9139 7.057416 226.6746 6.937799 C226.4354 6.818182 226.0766 6.698565 225.5981 6.698565 L223.8038 6.698565 L223.8038 8.732058 z" id="Shape#15" xml:space="default" /><path d="M228.5885 9.808613 L231.6986 2.751196 L232.8947 2.751196 L236.0048 9.808613 L234.689 9.808613 L233.9713 8.133971 L230.622 8.133971 L229.9043 9.808613 L228.5885 9.808613 z M230.9809 7.057416 L233.3732 7.057416 L232.177 4.30622 L230.9809 7.057416 z" id="Shape#16" xml:space="default" /><polygon points="236.6029,9.808613 236.6029,2.751196 237.799,2.751196 237.799,5.741627 241.1483,5.741627 241.1483,2.751196 242.3445,2.751196 242.3445,9.808613 241.1483,9.808613 241.1483,6.818182 237.799,6.818182 237.799,9.808613" id="Shape#17" xml:space="default" /><polygon points="243.6603,9.808613 243.6603,2.751196 244.8565,2.751196 244.8565,6.339713 248.2057,2.751196 249.6411,2.751196 246.7703,5.861244 249.8804,9.808613 248.3254,9.808613 245.933,6.698565 244.8565,7.77512 244.8565,9.808613" id="Shape#18" xml:space="default" /><path d="M54.54546 9.808613 L57.6555 2.751196 L58.85167 2.751196 L61.96172 9.808613 L60.64593 9.808613 L59.80861 8.133971 L56.45933 8.133971 L55.74163 9.808613 L54.54546 9.808613 z M56.9378 7.057416 L59.33014 7.057416 L58.13397 4.30622 L56.9378 7.057416 z" id="Shape#19" xml:space="default" /><polygon points="62.44019,9.808613 62.44019,2.751196 63.75598,2.751196 63.75598,6.339713 66.98565,2.751196 68.54067,2.751196 65.66985,5.861244 68.66029,9.808613 67.22488,9.808613 64.83253,6.698565 63.75598,7.77512 63.75598,9.808613" id="Shape#20" xml:space="default" /><polygon points="69.25837,9.808613 69.25837,2.751196 70.45454,2.751196 70.45454,8.732058 73.68421,8.732058 73.68421,2.751196 74.88039,2.751196 74.88039,8.732058 75.83732,8.732058 75.7177,11.36364 74.64115,11.36364 74.64115,9.808613" id="Shape#21" xml:space="default" /><polygon points="76.43541,9.808613 76.43541,2.751196 77.63158,2.751196 77.63158,7.894737 81.10048,2.751196 82.29665,2.751196 82.29665,9.808613 81.10048,9.808613 81.10048,4.665072 77.51196,9.808613" id="Shape#22" xml:space="default" /><path d="M83.25359 6.339713 C83.25359 5.861244 83.37321 5.382775 83.49282 4.904306 C83.73206 4.425838 83.97129 4.066986 84.21053 3.708134 C84.56938 3.349282 84.92823 3.110048 85.4067 2.870813 C85.88517 2.631579 86.36364 2.631579 86.8421 2.631579 C87.32057 2.631579 87.79904 2.751196 88.27751 2.870813 C88.75598 3.110048 89.11483 3.349282 89.47369 3.588517 C89.83253 3.947368 90.07177 4.30622 90.19139 4.784689 C90.43062 5.263158 90.43062 5.741627 90.43062 6.220096 C90.43062 6.698565 90.311 7.177033 90.19139 7.655502 C89.95216 8.133971 89.71292 8.492823 89.47369 8.851675 C89.11483 9.210526 88.75598 9.44976 88.27751 9.688995 C87.79904 9.928229 87.32057 9.928229 86.8421 9.928229 C86.1244 9.928229 85.52631 9.808613 84.92823 9.44976 C84.33015 9.090909 83.97129 8.732058 83.61244 8.133971 C83.37321 7.535885 83.25359 6.937799 83.25359 6.339713 M84.56938 6.339713 C84.56938 6.818182 84.689 7.177033 84.92823 7.535885 C85.16747 7.894737 85.4067 8.253589 85.76555 8.492823 C86.1244 8.732058 86.48325 8.851675 86.96172 8.851675 C87.44019 8.851675 87.79904 8.732058 88.1579 8.492823 C88.51675 8.253589 88.75598 8.014354 88.99522 7.535885 C89.23445 7.177033 89.23445 6.698565 89.23445 6.220096 C89.23445 5.741627 89.11483 5.382775 88.8756 5.023923 C88.63636 4.665072 88.39713 4.30622 88.03828 4.066986 C87.67943 3.827751 87.32057 3.708134 86.8421 3.708134 C86.36364 3.708134 86.00478 3.827751 85.64594 4.066986 C85.28708 4.30622 85.04784 4.545455 84.80861 5.023923 C84.689 5.382775 84.56938 5.861244 84.56938 6.339713" id="Shape#23" xml:space="default" /><polygon points="91.50718,9.808613 91.50718,2.751196 92.70335,2.751196 92.70335,5.741627 96.05264,5.741627 96.05264,2.751196 97.2488,2.751196 97.2488,9.808613 96.05264,9.808613 96.05264,6.818182 92.70335,6.818182 92.70335,9.808613" id="Shape#24" xml:space="default" /><polygon points="98.56459,9.808613 98.56459,2.751196 103.7081,2.751196 103.7081,3.947368 99.76077,3.947368 99.76077,5.741627 103.3493,5.741627 103.3493,6.818182 99.76077,6.818182 99.76077,8.732058 103.8278,8.732058 103.8278,9.808613" id="Shape#25" xml:space="default" /><path d="M104.7847 9.808613 L104.7847 2.751196 L107.5359 2.751196 C108.3732 2.751196 108.9713 2.990431 109.4498 3.349282 C109.9282 3.827751 110.1675 4.30622 110.1675 5.023923 C110.1675 5.502392 110.0478 5.980861 109.8086 6.339713 C109.5694 6.698565 109.2105 6.937799 108.8517 7.177033 C108.4928 7.296651 108.0144 7.416268 107.4163 7.416268 L105.9809 7.416268 L105.9809 9.688995 L104.7847 9.688995 L104.7847 9.808613 z M105.9809 6.45933 L107.4163 6.45933 C107.8947 6.45933 108.2536 6.339713 108.4928 6.100479 C108.7321 5.861244 108.8517 5.502392 108.8517 5.143541 C108.8517 4.784689 108.7321 4.425838 108.4928 4.186603 C108.2536 3.947368 107.8947 3.827751 107.4163 3.827751 L105.9809 3.827751 L105.9809 6.45933 z" id="Shape#26" xml:space="default" /><polygon points="110.8852,9.808613 110.8852,2.751196 112.201,2.751196 112.201,5.741627 115.4306,5.741627 115.4306,2.751196 116.7464,2.751196 116.7464,9.808613 115.4306,9.808613 115.4306,6.818182 112.201,6.818182 112.201,9.808613" id="Shape#27" xml:space="default" /><polygon points="54.66507,41.26794 54.66507,15.55024 77.15311,15.55024 77.15311,41.26794 70.21531,41.26794 70.21531,21.77033 61.60287,21.77033 61.60287,41.26794" id="Shape#28" xml:space="default" /><path d="M106.3397 41.26794 L106.3397 15.55024 L117.2249 15.55024 C120.4545 15.55024 123.0861 16.38756 125 17.94258 C126.9139 19.49761 127.8708 21.77033 127.8708 24.64115 C127.8708 26.55502 127.3923 28.34928 126.4354 29.66507 C125.4785 31.10048 124.1627 32.17703 122.6077 32.77512 C120.933 33.49282 119.1388 33.85167 116.9856 33.85167 L113.5167 33.85167 L113.5167 41.26794 L106.3397 41.26794 z M113.3971 28.34928 L116.7464 28.34928 C118.0622 28.34928 119.0191 27.99043 119.7368 27.39235 C120.4545 26.79426 120.8134 25.95694 120.8134 24.88038 C120.8134 23.80383 120.4545 22.96651 119.7368 22.36842 C119.0191 21.77033 118.0622 21.5311 116.7464 21.5311 L113.3971 21.5311 L113.3971 28.34928 z" id="Shape#29" xml:space="default" /><polygon points="130.8612,41.26794 130.8612,15.55024 150.1196,15.55024 150.1196,21.5311 137.9187,21.5311 137.9187,25.47847 150.1196,25.47847 150.1196,31.10048 137.9187,31.10048 137.9187,35.16747 150.1196,35.16747 150.1196,41.26794" id="Shape#30" xml:space="default" /><path d="M174.0431 41.14833 L167.4641 41.14833 C165.0718 41.14833 162.799 40.55024 160.8852 39.47368 C158.8517 38.39713 157.2966 36.84211 156.1005 34.92823 C154.9043 33.01435 154.3062 30.86124 154.3062 28.34928 C154.3062 26.55502 154.6651 24.88038 155.3828 23.32536 C156.1005 21.77033 156.9378 20.33493 158.134 19.25837 C159.3301 18.0622 160.7655 17.22488 162.4402 16.50718 C164.1148 15.78947 165.9091 15.55024 167.823 15.55024 L174.0431 15.55024 L174.0431 21.65072 L167.7034 21.65072 C165.9091 21.65072 164.4737 22.2488 163.2775 23.56459 C162.0813 24.88038 161.6029 26.55502 161.6029 28.4689 C161.6029 30.38277 162.201 31.9378 163.2775 33.25359 C164.4737 34.56938 165.9091 35.16747 167.7034 35.16747 L174.0431 35.16747 L174.0431 41.14833 z" id="Shape#31" xml:space="default" /><path d="M178.4689 41.26794 L178.4689 15.55024 L191.5072 15.55024 C194.6172 15.55024 196.89 16.26794 198.445 17.82297 C199.5215 18.89952 200.1196 20.33493 200.1196 22.00957 C200.1196 24.76077 198.8038 26.67464 196.1723 27.7512 C197.8469 28.34928 199.0431 29.06699 200 30.14354 C200.8373 31.10048 201.3158 32.53588 201.3158 34.21053 C201.3158 36.36364 200.4785 38.15789 198.8038 39.35407 C197.1292 40.55024 194.7368 41.26794 191.6268 41.26794 L178.4689 41.26794 z M185.2871 25.7177 L189.7129 25.7177 C191.9856 25.7177 193.0622 24.88038 193.0622 23.32536 C193.0622 22.60765 192.823 22.00957 192.2249 21.65072 C191.6268 21.29187 190.9091 21.05263 189.8325 21.05263 L185.2871 21.05263 L185.2871 25.7177 z M185.2871 35.64593 L190.7895 35.64593 C191.866 35.64593 192.7034 35.4067 193.3014 35.04785 C193.8995 34.56938 194.1388 33.97129 194.1388 33.25359 C194.1388 32.53588 193.8995 31.9378 193.3014 31.57895 C192.7034 31.10048 191.866 30.98086 190.6699 30.98086 L185.2871 30.98086 L185.2871 35.64593 z" id="Shape#32" xml:space="default" /><polygon points="204.5455,41.26794 204.5455,15.55024 224.6411,15.55024 224.6411,21.5311 211.4833,21.5311 211.4833,25.47847 224.6411,25.47847 224.6411,31.10048 211.4833,31.10048 211.4833,35.16747 224.6411,35.16747 224.6411,41.26794" id="Shape#33" xml:space="default" /><polygon points="81.57895,41.26794 81.57895,15.55024 101.7943,15.55024 101.7943,21.5311 88.63636,21.5311 88.63636,25.47847 101.7943,25.47847 101.7943,31.10048 88.63636,31.10048 88.63636,35.16747 101.7943,35.16747 101.7943,41.26794" id="Shape#34" xml:space="default" /><polygon points="227.3923,21.77033 227.3923,15.55024 249.8804,15.55024 249.8804,21.77033 242.1053,21.77033 242.1053,41.26794 235.0479,41.26794 235.0479,21.77033" id="Shape#35" xml:space="default" /></g></g></g></svg>