<svg xmlns="http://www.w3.org/2000/svg" width="500" height="500"><circle data-name="Ellipse 1 copy" cx="250" cy="250" r="250" fill="#01aed1"/><path d="M216.439 233.636h9.761a45.43 45.43 0 0 1-.037 5.355c-.385 3.192 1.038 3.893 4 3.882 10.353-.038 14.727 4.357 14.613 14.6-.067 6.051.012 12.165-.838 18.128-.8 5.6-4.931 8.384-10.676 8.485-2.175.038-4.35.006-6.714.006-.146 1.42-.236 2.42-.354 3.417-.221 1.876-.033 5.149-.765 5.37a19.624 19.624 0 0 1-8.013.35c-.655-.085-1.4-2.395-1.45-3.71-.223-5.414-.139-5.6-5.525-5.383-8.2.33-12.688-4.032-13.055-14.014a168.385 168.385 0 0 1 .8-18.917c.31-4.067 4.932-7.73 10.018-8.346 2.4-.292 5.723.419 6.989-.9 1.3-1.347.582-4.615.782-7.039a6.082 6.082 0 0 1 .464-1.284zm9.983 42.776c5.359.261 7.284-1.4 7.308-5.942s.047-9.051-.007-13.576c-.06-4.981-2.2-6.451-7.3-5.018v24.536zm-10.753-24.773c-5.3-.789-7.2.694-7.241 5.4-.034 4.52-.07 9.041.012 13.56.081 4.426 2.273 6.106 7.229 5.517v-24.477zm-81.886 17v14.713a3.48 3.48 0 0 1-.938.586c-10.092.787-10.093.785-10.092-9.176 0-9.2.088-18.392-.049-27.586-.04-2.733.893-3.844 3.583-3.525a4.677 4.677 0 0 0 1.553-.008c4.862-1.108 6.907 1.684 8.389 5.691 1.495 4.044 3.338 7.96 5.426 12.867 2.353-5.3 4.631-9.466 6.039-13.906 1.152-3.635 2.919-4.89 6.688-4.716 7.371.34 6.432-.671 6.464 6.465.044 9.843.018 19.686 0 29.529 0 1.386-.119 2.773-.19 4.3h-10.679v-15.181l-1.01-.323c-.874 1.931-1.87 3.818-2.592 5.8-.933 2.562-2.54 3.442-5.306 3.438-2.837 0-3.323-1.66-4.049-3.7a46.406 46.406 0 0 0-2.686-5.378zm311.052 1.453c5.947-.572 5.947-.572 5.947-6.208v-6.36l-5.947-.538V243.95c0-3.755-.061-7.512.022-11.265.048-2.207-.713-3.289-3.082-3.472-6.554-.506-6.553-.584-6.31-7.282.027-.752.146-1.5.263-2.639 5.549.387 11.479-2.06 15.775 2.912a14.674 14.674 0 0 1 3.286 7.832c.5 5.643.15 11.36.15 16.842a2.624 2.624 0 0 0 .85.654c4.6-.42 5.393 1.991 5.212 6.034-.317 7.107-.079 14.239-.1 21.36 0 1.26-.121 2.519-.193 3.9l-5.771.653c0 5.444-.122 10.842.03 16.232.213 7.549-3.613 12.947-12.258 12.156-.258-.024-.519 0-.779 0-6.569 0-7.986-1.728-6.322-8.259.211-.829 1.976-1.72 3.074-1.792 6.146-.405 6.151-.322 6.151-6.634v-21.088zm-161 13.735h-10.281V263.24l-.655-.149c-3.258 5.622-6.813 11.1-9.663 16.92-1.743 3.56-4.052 4.582-7.642 4.11a38.471 38.471 0 0 0-4.641-.03c-.091-1.693-.226-3.067-.229-4.441-.018-10.493.135-20.988-.089-31.476-.077-3.571.957-5 4.57-4.552a47.1 47.1 0 0 0 5.575.038v19.859l.7.287c1.529-2.53 3.087-5.044 4.578-7.6 1.233-2.111 2.393-4.265 3.576-6.4 3.588-6.491 4.6-7.062 11.837-6.056.856.119 2.256 1.183 2.263 1.82.13 12.665.096 25.33.096 38.259zM79.292 219.422v9.821c-2.005 0-3.789.062-5.567-.014-2.689-.115-3.634 1.142-3.627 3.766q.086 30.7-.016 61.412c-.01 2.529.767 3.568 3.33 3.356 1.788-.148 3.6-.029 5.754-.029v10.1c-5.9-.582-12.21 2.143-16.84-3.394a9.478 9.478 0 0 1-2.224-5.5c-.148-23.32-.118-46.642-.081-69.963.008-5.234 3.239-8.851 8.708-9.652a46.916 46.916 0 0 1 7-.116c1.134.001 2.271.129 3.563.213zM383.609 243.9h10.158v39.9h-10.058c0-4.562-.1-8.927.039-13.285.082-2.487-.724-3.443-3.323-3.383-9.149.212-7.392-.921-7.567 7.246-.066 3.076-.011 6.155-.011 9.466h-11.162v-11.408c0-8.55.069-17.1-.042-25.648-.031-2.375.793-3.1 3.133-3.179 8.074-.262 8.071-.344 8.071 7.52v7.778h10.762V243.9zm-71.923 40.182V267.2a71.4 71.4 0 0 0-8.717.131c-.844.107-2.076 1.74-2.126 2.725-.229 4.488-.1 9-.1 13.263a4.122 4.122 0 0 1-1.029.61c-10.044.858-10.045.856-10.044-9.182 0-9.06.122-18.123-.068-27.18-.064-3.09.9-4.233 3.971-3.943 2.161.2 4.357.04 7.118.04v15.031h10.857v-14.988a72.195 72.195 0 0 1 8.377.122 3.33 3.33 0 0 1 1.933 2.543c.13 11.648.063 23.3.11 34.947.007 1.932-.614 2.874-2.678 2.788-2.42-.102-4.845-.024-7.604-.024zm34.464-25.172c-.89-2.6-.988-5.5-2.306-6.244-3.85-2.17-7.985-1.131-12.243 1.166l-3.111-7.224c4.348-4.418 18.581-5.434 22.782-1.592 2.185 2 4.264 5.3 4.411 8.115.527 10.061.206 20.166.206 31.387-3.1-.605-5.792-1.241-8.521-1.61a7.263 7.263 0 0 0-3.471.471c-4.788 1.879-11.176.961-13.952-2.654-3.774-4.915-4.041-10.544-1.6-16.078 2.02-4.582 6.127-5.962 10.914-5.751 1.91.085 3.827.015 6.891.015zm-.65 11.259l.9-.482c-1-1.382-1.814-3.733-3.032-3.963-3.4-.641-6.884 2.426-6.6 5.33.259 2.679 1.723 4.836 4.617 4.694 3.185-.156 4.815-2.136 4.115-5.579zm-153.542 3.649a48.122 48.122 0 0 1 1.111 5.559c.24 3.047-1.532 4.584-4.414 4.671-4.146.125-8.311.222-12.446-.025-4.985-.3-9.391-5.121-9.467-10.167-.093-6.213.239-12.442-.089-18.639-.39-7.359 4.185-11.583 11.051-12.256a49.175 49.175 0 0 1 11.524.725c3.137.443 4.09 3.029 2.979 7.167-.787 2.928-2.734 1.523-4.634 1.384-6.756-.492-10.9-1.554-10.546 8.5.1 2.845-.087 5.7.045 8.543a6.657 6.657 0 0 0 8.649 6.317c1.844-.473 3.667-1.044 6.232-1.779zm-75.364-21.783c-3.5 0-6.566.048-9.632-.014s-4.551 1.292-4.5 4.411c.063 4.4 0 8.8.017 13.193.018 4.181 1.9 6.125 6.078 6.183 1.139.016 2.278-.395 3.426-.465 2.212-.136 5.141-1.921 5.685 2.2.579 4.378-.893 6.411-4.834 6.526-3.5.1-7 .121-10.492 0-6.607-.229-10.849-4.441-11-11.07-.142-6.335-.122-12.677-.005-19.012.108-5.9 4.331-10.438 10.781-11.03 3.667-.336 7.427.383 11.148.559 3.748.176 4.641 2.112 3.64 5.457a15.762 15.762 0 0 0-.317 3.062zm309.436 22.982c.059.824.069 1.59.173 2.343.742 5.407-.148 6.617-5.792 6.666a56.1 56.1 0 0 1-12.3-.82c-5.1-1.105-7.435-4.667-7.475-9.852-.045-5.953-.011-11.906-.01-17.86 0-8.025 3.039-11.767 10.935-12.547 3.406-.337 6.913.4 10.377.593 4.15.228 4.96 2.428 3.733 5.994a27.951 27.951 0 0 0-.685 3.437c-1.663-.536-3.178-1.1-4.735-1.511-5.573-1.465-9.22 1.249-9.25 6.852-.02 3.623-.032 7.247 0 10.871.048 4.736 1.753 6.583 6.55 6.622a83.275 83.275 0 0 0 8.479-.788z" fill="#fff" fill-rule="evenodd"/></svg>