<svg width="41" height="40" viewBox="0 0 41 40" fill="none" xmlns="http://www.w3.org/2000/svg">
<path fill-rule="evenodd" clip-rule="evenodd" d="M16.862 19.326L21.4584 14.8335L18.4645 12C18.4645 12 7.28768 22.9097 9.03431 21.6787C10.7809 20.4477 16.862 19.326 16.862 19.326ZM23.6884 14.9231L28.2849 19.4155C28.2849 19.4155 34.3659 20.5373 36.1126 21.7682C37.8592 22.9992 26.6824 12.0895 26.6824 12.0895L23.6884 14.9231ZM0.899994 27.6508C0.899994 27.6508 18.8625 14.521 40.1 25.6811C38.9098 26.3157 37.6561 27.0498 36.5244 28C35.2385 27.5414 34.218 27.0604 33.2277 26.5935C30.4172 25.2687 27.8497 24.0583 20.1452 23.8025C9.72593 23.4567 0.899994 27.6508 0.899994 27.6508Z" fill="#002767"/>
</svg>
