<svg width="40" height="40" viewBox="0 0 40 40" fill="none" xmlns="http://www.w3.org/2000/svg">
<path fill-rule="evenodd" clip-rule="evenodd" d="M35.4049 4.74353C35.3559 4.32501 35.0401 4.02739 34.6159 4.00155L34.5565 4C34.0584 4 33.7928 4.37203 33.6812 4.53117C32.5052 6.18978 31.3261 7.84839 30.1485 9.50701L29.6825 10.1617V4.51153C29.6826 4.40501 29.6405 4.30278 29.5653 4.22731C29.4901 4.15184 29.388 4.1093 29.2815 4.10902H28.5509C28.4488 4.10912 28.3505 4.14822 28.2763 4.21833C28.2021 4.28844 28.1574 4.38427 28.1515 4.48622L28.1463 4.52807C28.1453 4.5663 28.1437 4.59834 28.1437 4.63089V12.0957C28.1437 12.1954 28.1546 12.2982 28.1799 12.4222C28.2641 12.8273 28.5628 13.0722 28.9772 13.0753H28.987C29.5109 13.0753 29.7786 12.6971 29.8669 12.5721C31.046 10.9068 32.2246 9.24452 33.4069 7.57971L33.8719 6.92505V12.5736C33.8719 12.7937 34.0517 12.9741 34.2734 12.9741H35.0122C35.2344 12.9741 35.4137 12.7937 35.4137 12.5736L35.4127 4.97967C35.4127 4.90113 35.4127 4.82207 35.4049 4.74353ZM19.5226 4.70633C19.5226 4.65208 19.521 4.59834 19.5164 4.54564L19.5133 4.48725C19.5085 4.38434 19.4643 4.28722 19.3898 4.21603C19.3154 4.14484 19.2164 4.10505 19.1133 4.10489H18.3564C18.1347 4.10489 17.957 4.2847 17.957 4.50637V8.63326C17.7895 8.63481 17.6227 8.63636 17.4552 8.63998C17.1633 8.64308 16.8724 8.6467 16.582 8.6467C16.1335 8.6467 15.7672 8.63843 15.4267 8.61931C14.7953 8.58004 14.4692 8.14446 14.3085 7.78742C14.1013 7.32704 14.0724 6.81396 14.0708 6.37321L14.0677 5.54855C14.0677 5.50567 14.0693 5.39871 14.0693 4.75128V4.50327C14.0695 4.45044 14.0593 4.39809 14.0392 4.34923C14.0191 4.30037 13.9895 4.25596 13.9522 4.21856C13.9149 4.18116 13.8706 4.15149 13.8218 4.13128C13.773 4.11106 13.7206 4.10069 13.6678 4.10076H12.9109C12.8581 4.10076 12.8058 4.11118 12.7571 4.13143C12.7083 4.15167 12.664 4.18135 12.6268 4.21874C12.5895 4.25614 12.56 4.30052 12.54 4.34935C12.5199 4.39818 12.5097 4.45048 12.5099 4.50327V5.58472L12.5109 6.51272C12.5125 6.79277 12.5254 7.08264 12.5497 7.37199C12.6882 8.97429 13.8988 10.1183 15.4959 10.1518C15.9232 10.1601 16.35 10.1622 16.7773 10.1622L17.9182 10.1601C17.8123 10.7843 17.2878 11.3428 16.6704 11.4235C16.5061 11.4441 15.4008 11.4539 14.6718 11.4617C14.2733 11.4632 13.8749 11.4692 13.4766 11.4798C13.3746 11.4863 13.2788 11.5316 13.2089 11.6063C13.1391 11.681 13.1003 11.7795 13.1005 11.8818V12.5555C13.1005 12.7777 13.2793 12.9586 13.5025 12.9586L15.5052 12.9596C15.9599 12.9596 16.3314 12.9586 16.4038 12.9586C17.1922 12.9405 17.833 12.7261 18.3595 12.3034C19.1309 11.6854 19.521 10.805 19.5226 9.68889C19.5241 7.80189 19.5241 7.38956 19.5241 6.29261L19.5226 4.70633ZM24.1011 4.09662C23.667 4.09146 23.234 4.09042 22.8016 4.09042L21.4049 4.09146C20.7384 4.09146 20.3705 4.46503 20.3705 5.14191V12.5747C20.3705 12.7953 20.5503 12.9751 20.7725 12.9751H21.5496C21.6556 12.9747 21.7571 12.9323 21.8319 12.8573C21.9068 12.7823 21.9489 12.6806 21.949 12.5747V5.60901L22.3593 5.60591C22.99 5.59633 23.6209 5.60064 24.2514 5.61883C24.5728 5.62968 24.8911 5.76815 25.1939 6.03322C25.6227 6.40525 25.8243 6.89766 25.8258 7.57661C25.8289 8.7056 25.8274 9.83666 25.8274 10.9662V12.5752C25.8274 12.7974 26.0056 12.9777 26.2288 12.9777H26.9853C27.1801 12.9777 27.3532 12.7968 27.3868 12.6057C27.3945 12.5586 27.3992 12.5199 27.3992 12.4801C27.3992 11.9572 27.3992 11.4333 27.4033 10.9099C27.4043 9.72454 27.4079 8.49685 27.379 7.28829C27.3335 5.45917 25.9539 4.11574 24.1005 4.09662H24.1011ZM9.22625 8.51752L11.9234 4.727C11.9656 4.66672 11.9905 4.59613 11.9956 4.52278C12.0007 4.44942 11.9858 4.37606 11.9524 4.31054C11.9188 4.24483 11.8678 4.18966 11.8049 4.15109C11.742 4.11253 11.6696 4.09207 11.5958 4.09197L11.167 4.09507C11.0797 4.09507 10.9965 4.09352 10.9133 4.08887L10.8632 4.08732C10.6239 4.08732 10.426 4.1948 10.2752 4.40561C10.0504 4.72235 9.82201 5.03599 9.59569 5.34807C9.10896 6.01979 8.60621 6.71423 8.13395 7.41746C7.86578 7.81481 7.71335 7.83083 7.46275 7.79207C7.2633 7.76314 7.01425 7.76314 6.76004 7.77296C6.73317 7.77451 6.70423 7.77451 6.67581 7.77554V4.50998C6.67588 4.45717 6.66553 4.40487 6.64535 4.35607C6.62517 4.30726 6.59556 4.26292 6.55822 4.22558C6.52088 4.18824 6.47654 4.15863 6.42774 4.13845C6.37893 4.11827 6.32663 4.10792 6.27382 4.10799H5.52357C5.47078 4.10792 5.4185 4.11828 5.36973 4.13846C5.32096 4.15865 5.27665 4.18826 5.23935 4.22561C5.20205 4.26296 5.17249 4.30731 5.15236 4.35611C5.13224 4.40491 5.12195 4.4572 5.12209 4.50998V12.5736C5.12209 12.7958 5.3019 12.9756 5.52357 12.9756H6.28209C6.33485 12.9756 6.3871 12.9652 6.43584 12.945C6.48459 12.9248 6.52887 12.8952 6.56616 12.8579C6.60344 12.8205 6.63301 12.7762 6.65315 12.7274C6.6733 12.6787 6.68363 12.6264 6.68356 12.5736V9.29257H7.16048C7.38886 9.29257 7.61518 9.29154 7.84976 9.28844C8.64128 10.4151 9.43735 11.5386 10.238 12.6589C10.2896 12.7343 10.4519 12.9612 10.7169 12.9792C10.8533 12.987 10.9903 12.9885 11.1334 12.9885L11.6098 12.987C11.7607 12.987 11.8991 12.9012 11.9679 12.7679C12.0011 12.7023 12.0159 12.6288 12.0105 12.5554C12.0051 12.4821 11.9799 12.4115 11.9374 12.3514L9.22625 8.51752Z" fill="#97C254"/>
<path fill-rule="evenodd" clip-rule="evenodd" d="M35.5889 28.0566C35.4065 27.7027 35.1135 27.4996 34.7854 27.4996C34.5033 27.4996 34.2331 27.6515 34.031 27.9197C34.0011 27.9569 33.9742 27.9956 33.9427 28.0354L30.0891 33.4556V28.0008C30.0893 27.9496 30.0794 27.8989 30.06 27.8515C30.0406 27.8041 30.012 27.761 29.9759 27.7247C29.9398 27.6884 29.8969 27.6595 29.8497 27.6398C29.8024 27.62 29.7518 27.6098 29.7006 27.6097H29.0035C28.7865 27.6097 28.6113 27.7853 28.6113 28.0008V35.2682C28.6113 35.3468 28.6144 35.4237 28.6248 35.5043C28.6837 35.9663 29.0051 36.2768 29.421 36.2768C29.5869 36.2768 29.7579 36.2251 29.9191 36.127C30.0426 36.0515 30.1563 35.9404 30.2627 35.789C31.4816 34.0757 32.7016 32.3607 33.9184 30.6453L34.1277 30.3544V35.789C34.1277 36.0061 34.3013 36.1797 34.5157 36.1797H35.2442C35.2955 36.1797 35.3463 36.1697 35.3937 36.1501C35.4411 36.1305 35.4842 36.1017 35.5204 36.0654C35.5567 36.0291 35.5854 35.986 35.6049 35.9386C35.6245 35.8912 35.6345 35.8403 35.6344 35.789V28.2354C35.6338 28.173 35.6182 28.1117 35.5889 28.0566ZM9.25519 31.8678L11.8542 28.2127C11.8952 28.1541 11.9194 28.0855 11.9242 28.0142C11.929 27.9429 11.9142 27.8717 11.8815 27.8082C11.8487 27.7447 11.7992 27.6914 11.7382 27.654C11.6773 27.6167 11.6074 27.5967 11.5359 27.5962L11.0957 27.5983C11.014 27.5983 10.9371 27.5983 10.827 27.5931C10.5981 27.5931 10.4116 27.6929 10.2752 27.8861C9.62539 28.799 8.9721 29.7095 8.31531 30.6174L8.24969 30.7094C8.20163 30.7755 8.15668 30.8478 8.11121 30.9233C8.06161 31.0059 7.97842 31.1424 7.93502 31.1661C7.93502 31.1661 7.91073 31.178 7.83064 31.178C7.7676 31.178 7.70353 31.1728 7.63791 31.1666C7.55182 31.159 7.46547 31.1547 7.37904 31.1537H6.78587V27.9874C6.78587 27.8838 6.7448 27.7845 6.67167 27.7112C6.59854 27.6378 6.49932 27.5965 6.39576 27.5962H5.65584C5.43883 27.5962 5.2647 27.7719 5.2647 27.9874V35.7885C5.2647 36.0055 5.43831 36.1792 5.65584 36.1792H6.41333C6.46453 36.1791 6.51523 36.1689 6.5625 36.1493C6.60978 36.1296 6.65271 36.1008 6.68885 36.0645C6.72498 36.0282 6.75361 35.9852 6.7731 35.9378C6.79258 35.8905 6.80254 35.8397 6.80241 35.7885V32.6124L7.24419 32.6144C7.46895 32.6144 7.69217 32.6124 7.91073 32.5953L7.93657 32.6253C8.67028 33.6763 9.41433 34.7221 10.1548 35.7658L10.2287 35.8707C10.2994 35.972 10.4291 36.16 10.6653 36.1704C10.8167 36.1776 10.9675 36.1792 11.1236 36.1792H11.5504C11.6219 36.1785 11.6918 36.1583 11.7526 36.1208C11.8135 36.0833 11.863 36.0299 11.8957 35.9664C11.9285 35.9029 11.9433 35.8316 11.9385 35.7603C11.9337 35.689 11.9096 35.6203 11.8687 35.5617L9.25519 31.8678Z" fill="#2F3341"/>
<path fill-rule="evenodd" clip-rule="evenodd" d="M15.8349 27.4583C13.3769 27.4583 11.4496 29.3933 11.4429 31.8662C11.4367 34.35 13.3676 36.3047 15.838 36.3176H15.8607C18.2825 36.3176 20.2036 34.3764 20.2325 31.8983C20.242 31.3188 20.1359 30.7432 19.9205 30.2052C19.7051 29.6671 19.3847 29.1774 18.978 28.7645C18.1528 27.9264 17.0429 27.4614 15.8349 27.4583ZM16.8967 34.6461C16.5583 34.7878 16.195 34.8607 15.8281 34.8605C14.479 34.8605 13.3077 33.8871 13.0447 32.5436C12.7719 31.162 13.365 29.8346 14.5224 29.244C14.9317 29.0313 15.386 28.9198 15.8473 28.919C17.1545 28.919 18.2923 29.8217 18.6127 31.115C18.655 31.2968 18.6778 31.4963 18.6974 31.6714C18.7051 31.7391 18.7134 31.8068 18.7196 31.8678C18.6204 33.2887 18.0401 34.1718 16.8967 34.6461ZM27.2245 29.2001C26.6288 28.1656 25.6692 27.6272 24.3672 27.5993C24.0334 27.5931 23.7016 27.5916 23.3684 27.5916L21.8725 27.5962C21.2225 27.5962 20.8639 27.9538 20.8639 28.6017V35.7808C20.8639 35.9983 21.0391 36.1719 21.2546 36.1719H21.995C22.212 36.1719 22.3851 35.9983 22.3851 35.7808V29.0482L23.3808 29.0451C23.7394 29.0451 24.0938 29.0466 24.4509 29.0554C24.7766 29.0632 25.0924 29.1689 25.3572 29.3587C25.8491 29.7013 26.0991 30.1823 26.1069 30.7858C26.1162 31.9148 26.1152 33.0443 26.1136 34.1738L26.1115 35.7746C26.1115 35.99 26.2852 36.1652 26.5022 36.1652H27.238C27.4307 36.1652 27.5996 35.9968 27.6286 35.8066C27.6342 35.771 27.6373 35.7351 27.6379 35.6991L27.6394 34.4007C27.6394 33.1523 27.6394 31.9034 27.6301 30.6551C27.6249 30.1431 27.485 29.6409 27.2245 29.2001ZM18.4752 14.4679H17.4682C17.1757 14.4679 16.9385 14.705 16.9385 14.999V19.2799H11.8594V15.0042C11.8594 14.7112 11.6232 14.4751 11.3308 14.4751H10.3232C10.0297 14.4751 9.79308 14.7112 9.79308 15.0042V25.5625C9.79308 25.8555 10.0297 26.0921 10.3232 26.0921H11.3401C11.6325 26.0921 11.8692 25.8555 11.8692 25.5625V21.2718H16.9494V25.5501C16.9494 25.8425 17.1871 26.0787 17.48 26.0787H18.4757C18.7682 26.0787 19.0038 25.8425 19.0038 25.5496V14.999C19.0038 14.7045 18.7677 14.4679 18.4752 14.4679ZM28.9245 15.2347C27.6585 14.4059 26.1859 14.163 24.579 14.5247C22.9281 14.8947 21.6751 15.8459 20.8546 17.3511C20.185 18.5855 19.9597 19.9304 20.1912 21.3478C20.432 22.8307 21.177 24.0506 22.4047 24.9714C23.4774 25.7769 24.7593 26.1887 26.2133 26.1954C26.6515 26.1985 27.0886 26.1985 27.5273 26.1985L29.3404 26.197C29.3869 26.197 29.4334 26.1954 29.482 26.1903L29.5362 26.1887C29.8194 26.1758 30.0426 25.9407 30.0426 25.6581V24.7988C30.0426 24.5063 29.806 24.2676 29.5145 24.2676L27.704 24.2707C27.2715 24.2707 26.838 24.2697 26.4024 24.2599C26.0619 24.2547 25.6202 24.2371 25.214 24.1436C23.8551 23.83 22.9431 23.0854 22.4238 21.867C22.3456 21.6818 22.2862 21.4891 22.2466 21.2919H30.0504C30.1 21.2919 30.1516 21.2919 30.2178 21.2878C30.8637 21.2356 31.3096 20.7541 31.3018 20.1201C31.2972 19.4044 31.2036 18.7611 31.0197 18.1514C30.6322 16.8752 29.9274 15.8924 28.9245 15.2347ZM22.2358 19.4272C22.2466 19.3641 22.257 19.3016 22.2725 19.2406C22.5427 18.1029 23.1198 17.2937 24.0318 16.7677C24.7593 16.3492 25.5737 16.1968 26.4624 16.3218C27.3377 16.4406 28.0073 16.8338 28.5075 17.5221C28.8774 18.0316 29.1063 18.634 29.2025 19.3564L29.2123 19.4272H22.2358ZM36.6011 19.484H35.4447V14.8771C35.4443 14.8242 35.4333 14.772 35.4126 14.7234C35.3919 14.6747 35.3618 14.6307 35.324 14.5937C35.2863 14.5567 35.2415 14.5276 35.1925 14.508C35.1434 14.4883 35.0909 14.4786 35.0381 14.4792H34.3421C34.2892 14.4785 34.2367 14.4882 34.1876 14.5078C34.1385 14.5274 34.0938 14.5566 34.056 14.5936C34.0182 14.6305 33.9881 14.6746 33.9674 14.7233C33.9467 14.7719 33.9358 14.8242 33.9354 14.8771V25.6813C33.9354 25.902 34.1163 26.0802 34.3421 26.0802H35.0381C35.1449 26.0812 35.2477 26.0397 35.3239 25.9649C35.4002 25.8901 35.4436 25.7881 35.4447 25.6813V21.076H36.6021C36.8217 21.076 37 20.8838 37 20.6471V19.9124C37 19.6762 36.8217 19.4835 36.6021 19.4835L36.6011 19.484ZM3.39786 21.3116H5.07714V25.9185C5.07714 26.1391 5.25902 26.3158 5.48378 26.3158H6.17978C6.23265 26.3166 6.28515 26.3069 6.33425 26.2873C6.38336 26.2676 6.42809 26.2385 6.46589 26.2015C6.50368 26.1645 6.53379 26.1204 6.55448 26.0718C6.57517 26.0231 6.58602 25.9709 6.58643 25.918V15.1137C6.58595 15.0608 6.57506 15.0086 6.55436 14.9599C6.53366 14.9112 6.50357 14.867 6.4658 14.83C6.42803 14.793 6.38333 14.7637 6.33425 14.744C6.28517 14.7242 6.23268 14.7143 6.17978 14.7149H5.48378C5.43086 14.7143 5.37834 14.7242 5.32924 14.7439C5.28013 14.7637 5.23539 14.7929 5.19758 14.83C5.15978 14.867 5.12963 14.9111 5.10888 14.9598C5.08812 15.0085 5.07716 15.0608 5.07662 15.1137V19.7191H3.39786C3.17826 19.7191 3 19.9118 3 20.148V20.8832C3 21.1189 3.17826 21.3116 3.39786 21.3116Z" fill="#2F3341"/>
</svg>
