<svg xmlns="http://www.w3.org/2000/svg" xmlns:xlink="http://www.w3.org/1999/xlink" width="70" height="70" viewBox="0 0 70 70">
  <defs>
    <style>
      .a {
        fill: url(#a);
      }

      .b {
        fill: #fff;
      }
    </style>
    <linearGradient id="a" x1="35" y1="70" x2="35" gradientUnits="userSpaceOnUse">
      <stop offset="0" stop-color="#007d6c"/>
      <stop offset="1" stop-color="#03ae44"/>
    </linearGradient>
  </defs>
  <title>spfinans_logo</title>
  <circle class="a" cx="35" cy="35" r="35"/>
  <path class="b" d="M45.87,36.34l-6-1.33q-9-2-9-7.45a5.9,5.9,0,0,1,2.53-4.86,10.1,10.1,0,0,1,6.33-1.94,11.34,11.34,0,0,1,7.36,2.63A7.78,7.78,0,0,1,49,25.57a27.27,27.27,0,0,1,1.64,4.07l0.21,0.55L51,30c0.47-.74,5.83-10.73,5.83-10.73l-0.39-.16a8.15,8.15,0,0,1-3.81,1.11,17.69,17.69,0,0,1-3.84-.65,41.34,41.34,0,0,0-9.71-1.37q-6.47,0-10.51,3.2a10.15,10.15,0,0,0-4,8.34,10.07,10.07,0,0,0,3,7.77q3,2.8,9.74,4Q46,43.07,48.86,44.89q3.91,2.57,3.91,6.5A6.35,6.35,0,0,1,50,56.83a12.75,12.75,0,0,1-7.58,2q-6,0-9.78-2.83a11.62,11.62,0,0,1-4.48-7.94l-0.64-.16a42.21,42.21,0,0,1-6.19,11.58l0.28,0.46a9.3,9.3,0,0,1,4.48-1.27,20.23,20.23,0,0,1,4.16.55l4.16,0.94a41.34,41.34,0,0,0,9.07,1.14,16.5,16.5,0,0,0,10.86-3.63,11.19,11.19,0,0,0,4.39-9Q58.71,39.17,45.87,36.34Z" transform="translate(-5 -5)"/>
  <path class="b" d="M40.45,52.44a4.36,4.36,0,0,0,1.41,0A5.06,5.06,0,0,0,43.2,52a4.75,4.75,0,0,0,1.12-.73,3.15,3.15,0,0,0,.77-1l0.09-.17a2.27,2.27,0,0,0,.25-1.07,2,2,0,0,0-.27-1,2.22,2.22,0,0,0-.76-0.75,3.19,3.19,0,0,0-1.19-.42l-4-.65-4.61,9.23,2.6,0.42,1.85-3.71Zm0.38-3.73,1.38,0.22a0.55,0.55,0,0,1,.39.26,0.5,0.5,0,0,1,0,.52l-0.09.17a1,1,0,0,1-.47.44,1,1,0,0,1-.57.1l-1.38-.22Z" transform="translate(-5 -5)"/>
  <path class="b" d="M40.88,25a0.87,0.87,0,0,1,.55-0.11l3,0.51,1-2.11-3-.51a4,4,0,0,0-1.39,0,5,5,0,0,0-1.32.43A4.44,4.44,0,0,0,38.6,24a3.43,3.43,0,0,0-.76,1L34.57,32l2.58,0.44L39,28.48,41.78,29l1-2.1L40,26.39l0.43-.89A1.06,1.06,0,0,1,40.88,25Z" transform="translate(-5 -5)"/>
</svg>
