<?xml version="1.0" encoding="utf-8"?>
<!-- Generator: Adobe Illustrator 24.0.1, SVG Export Plug-In . SVG Version: 6.00 Build 0)  -->
<svg version="1.1" id="Слой_1" xmlns="http://www.w3.org/2000/svg" xmlns:xlink="http://www.w3.org/1999/xlink" x="0px" y="0px"
	 width="250px" height="25px" viewBox="0 0 250 25" style="enable-background:new 0 0 250 25;" xml:space="preserve">
<style type="text/css">
	.st0{fill:#BD0D31;}
</style>
<g id="Слой_2_1_">
	<g id="Layer_1">
		<path class="st0" d="M0,3h8.8c1.1,0,2.1,0,3.2,0.2c0.8,0.1,1.5,0.3,2.2,0.6c0.7,0.3,1.3,0.8,1.7,1.5c0.4,0.7,0.6,1.4,0.6,2.2
			c0,0.9-0.3,1.7-0.9,2.4c-0.8,0.8-1.7,1.3-2.8,1.6c1,0.2,2,0.6,2.9,1.2c1.2,0.8,1.8,2.2,1.8,3.6c0.1,1.5-0.5,3.1-1.7,4.1
			c-0.4,0.4-0.9,0.6-1.4,0.8c-0.6,0.2-1.3,0.4-1.9,0.4c-0.9,0.1-1.8,0.2-2.7,0.1H0v-1.4c0.3,0,0.7-0.1,0.9-0.4
			c0.2-0.3,0.3-0.6,0.2-0.9V5.6c0-0.3,0-0.6-0.2-0.8C0.7,4.6,0.3,4.4,0,4.4V3z M6,10.3h2.8c0.8,0,1.5-0.2,2.2-0.6
			c0.5-0.4,0.8-1.1,0.8-1.8c0.1-0.7-0.2-1.3-0.8-1.8c-0.6-0.4-1.4-0.6-2.2-0.6H6V10.3z M6,19.2h3c2.5,0,3.8-1.1,3.8-3.2
			c0-0.9-0.3-1.8-1-2.3c-0.8-0.6-1.8-0.9-2.8-0.9H6V19.2L6,19.2z M32.8,3H40v1.4c-0.6,0-1.2,0.5-1.2,1.2c0,0,0,0.1,0,0.1v13.5
			c0,0.3,0.1,0.6,0.2,0.9c0.3,0.2,0.6,0.3,0.9,0.4v1.4h-7.2v-1.4c0.3,0,0.7-0.1,0.9-0.4c0.2-0.3,0.3-0.6,0.2-0.9v-6.5h-7.2v6.4
			c0,0.3,0,0.6,0.2,0.9c0.3,0.2,0.6,0.3,0.9,0.4v1.4h-7.1v-1.4c0.3,0,0.7-0.1,0.9-0.4c0.2-0.3,0.2-0.6,0.2-0.9V5.6
			c0-0.3-0.1-0.7-0.4-0.9c-0.2-0.2-0.6-0.3-0.9-0.4V3h7.1v1.4c-0.6,0-1.2,0.5-1.2,1.2c0,0,0,0.1,0,0.1V10h7.4V5.6
			c0-0.3-0.1-0.7-0.2-0.9c-0.2-0.2-0.6-0.4-0.9-0.4L32.8,3L32.8,3z M42.9,21.8v-1.4c0.3,0,0.6-0.1,0.9-0.3c0.2-0.3,0.3-0.6,0.2-0.9
			V5.6c0-0.3,0-0.7-0.2-1c-0.3-0.2-0.6-0.3-0.9-0.3V3H59v4.4h-1.4c-0.1-0.4-0.2-0.7-0.4-1c-0.2-0.3-0.5-0.5-0.9-0.5
			c-0.6-0.1-1.2-0.1-1.8-0.1h-5.5v4.2h5c0.4,0,0.9-0.1,1.3-0.2c0.3-0.2,0.5-0.6,0.6-0.9h1.4v5.2h-1.4c0-0.4-0.2-0.8-0.6-1.1
			c-0.5-0.2-1-0.3-1.5-0.3h-4.8v6.6h6.5c0.5,0,1.1,0,1.6-0.1c0.3-0.1,0.6-0.3,0.8-0.5c0.2-0.3,0.4-0.7,0.4-1.1h1.4v4.5H42.9z
			 M64,4.4V3h7.4v1.4c-0.7,0.1-1.2,0.6-1.5,1.2c-0.3,0.6-0.6,1.2-0.9,1.8c-0.3,0.7-0.5,1.3-0.7,2c-0.4,1.3-0.7,2.7-0.7,4.1
			c-0.1,1.5,0.4,3.1,1.5,4.2c1.2,1,2.8,1.5,4.4,1.4h0.9V5.9c0-0.3,0-0.7-0.2-1c-0.2-0.2-0.5-0.4-0.8-0.4c-0.1-0.1-0.2-0.1-0.3-0.1V3
			h6.9v1.4l-0.2,0.1c-0.3,0.1-0.6,0.2-0.7,0.4C79,5.2,79,5.6,79,5.9v13h5.4V5.8c0-0.3,0-0.7-0.2-0.9c-0.2-0.2-0.5-0.4-0.8-0.4h-0.2
			V3h7v1.4H90c-0.3,0-0.6,0.2-0.8,0.4c-0.2,0.3-0.2,0.6-0.2,0.9V19c0,0.4,0.1,0.7,0.3,1c0.3,0.3,0.6,0.4,1,0.4v1.4H74.7h-2.8
			c-2.5,0-4.9-0.8-6.8-2.4c-0.5-0.5-1-1.1-1.4-1.8c-0.4-0.7-0.7-1.4-0.9-2.1c-0.5-2-0.4-4.1,0.4-5.9l0.2-0.6
			c0.1-0.3,0.2-0.6,0.3-0.8c0.1-0.2,0.2-0.5,0.4-0.8l0.3-0.6c0.3-0.5,0.5-1,0.6-1.5C65,4.8,64.7,4.6,64,4.4L64,4.4z M102.9,24.8
			v-1.4h0.2c0.3,0,0.5-0.1,0.8-0.3c0.1-0.2,0.2-0.5,0.2-0.8v-0.5h-0.1c-1.9,0-3.7-0.4-5.4-1.3c-1.6-0.8-2.9-2.1-3.8-3.6
			c-0.9-1.5-1.4-3.2-1.4-5c0-2.1,0.7-4.2,2-5.8c0.6-0.7,1.4-1.3,2.2-1.8c0.5-0.3,1-0.5,1.6-0.7c0.6-0.2,1.2-0.3,1.8-0.3
			c0.7,0,1.6-0.1,2.8-0.1h0.4V2.6c0-0.5-0.4-0.8-1.2-1V0.2h7.3v1.4c-0.8,0.2-1.2,0.5-1.2,1v0.6h0.4c1.2,0,2.1,0,2.8,0.1
			c0.6,0,1.2,0.1,1.8,0.3c0.6,0.2,1.1,0.4,1.6,0.7c0.9,0.4,1.6,1,2.2,1.8c0.7,0.8,1.2,1.7,1.5,2.7c1,2.7,0.6,5.7-0.9,8.1
			c-0.9,1.5-2.3,2.7-3.9,3.6c-1.6,0.9-3.5,1.3-5.4,1.3h-0.2v0.5c0,0.3,0.1,0.5,0.2,0.8c0.2,0.2,0.5,0.3,0.8,0.3h0.2v1.4L102.9,24.8z
			 M104.1,19.1V6c-1.6,0-3.1,0.6-4.2,1.8c-1,1.3-1.5,2.8-1.4,4.4c0,1.1,0.2,2.3,0.7,3.3c0.4,0.9,1.1,1.8,1.9,2.4
			C102,18.5,103,18.9,104.1,19.1z M108.9,19.1c1.1-0.2,2.1-0.6,3-1.2c0.8-0.6,1.5-1.4,1.9-2.4c0.5-1,0.7-2.2,0.7-3.3
			c0.1-1.6-0.4-3.2-1.4-4.5c-1.1-1.1-2.6-1.8-4.2-1.8V19.1z M137.2,7.8V6c0-0.3,0-0.6,0-0.9c-0.1-0.2-0.2-0.3-0.3-0.4
			c-0.2-0.1-0.5-0.2-0.8-0.2V3h7.2v1.5c-0.3,0-0.5,0.1-0.8,0.3c-0.2,0.1-0.3,0.2-0.3,0.4c0,0.3,0,0.6,0,0.9v12.9v0.4l0,0
			c0,0.2,0,0.3,0.1,0.4c0.1,0.2,0.1,0.3,0.3,0.4c0.2,0.1,0.4,0.2,0.6,0.2h0.1h0.1v1.4H136v-1.4c0.4,0,0.7-0.1,1-0.4
			c0.2-0.4,0.3-0.8,0.2-1.2v-6.1l-7.1,9.1h-7.4v-1.4c0.3,0,0.7-0.1,0.9-0.4c0.2-0.2,0.3-0.6,0.2-0.9v-0.4V5.9c0-0.3,0-0.6,0-0.9
			c-0.1-0.2-0.2-0.3-0.3-0.4c-0.2-0.1-0.5-0.2-0.8-0.3V3h7.2v1.5c-0.3,0-0.5,0.1-0.8,0.3c-0.1,0.1-0.3,0.2-0.3,0.4
			c0,0.3,0,0.6,0,0.8v11.9l8.4-10H137.2z M158.3,3h7.1v1.4c-0.6,0-1.2,0.5-1.2,1.2c0,0,0,0.1,0,0.1v13.5c0,0.3,0.1,0.6,0.2,0.9
			c0.3,0.2,0.6,0.3,0.9,0.4v1.4h-7.1v-1.4c0.3,0,0.7-0.1,0.9-0.4c0.2-0.3,0.3-0.6,0.2-0.9v-6.5h-7.1v6.4c0,0.3,0,0.6,0.2,0.9
			c0.3,0.2,0.6,0.3,1,0.4v1.4h-7.1v-1.4c0.3,0,0.7-0.1,0.9-0.4c0.2-0.3,0.2-0.6,0.2-0.9V5.6c0-0.3-0.1-0.6-0.2-0.9
			c-0.3-0.2-0.6-0.3-0.9-0.4V3h7.1v1.4c-0.6,0-1.2,0.5-1.2,1.2c0,0,0,0.1,0,0.1V10h7.1V5.6c0-0.3-0.1-0.6-0.2-0.9
			c-0.2-0.2-0.6-0.4-0.9-0.4L158.3,3L158.3,3z M168.4,3H183v4.5h-1.4c-0.1-1.2-0.8-1.8-2-1.8h-5.2v3.1h0.3c1.6,0.3,3.3,0.8,4.8,1.4
			c1.2,0.4,2.3,1,3.4,1.8c0.8,0.6,1.5,1.3,1.9,2.2c0.4,0.8,0.7,1.7,0.6,2.6c0,0.9-0.2,1.7-0.7,2.5c-0.4,0.7-1,1.3-1.8,1.6
			c-1.6,0.6-3.3,0.9-5,0.8h-9.7v-1.4c0.3,0,0.7-0.1,0.9-0.3c0.2-0.3,0.3-0.6,0.2-0.9V5.7c0-0.3-0.1-0.7-0.3-1
			c-0.2-0.2-0.6-0.4-0.9-0.4V3z M174.4,11.6v7.5c0.7,0,1.2,0.1,1.4,0.1c1.1,0,2.2-0.1,3.2-0.4c0.4-0.2,0.8-0.5,1.1-0.9
			c0.3-0.4,0.4-0.9,0.4-1.4c0-0.7-0.3-1.4-0.7-2c-0.6-0.7-1.3-1.4-2.1-1.8C176.7,12.2,175.6,11.8,174.4,11.6L174.4,11.6z
			 M198.8,15.4h-6.1l-1.3,3.8c0,0.1,0,0.1,0,0.2c0,0.1,0,0.2,0,0.3c0,0.2,0.1,0.4,0.3,0.4c0.2,0.1,0.5,0.2,0.7,0.2v1.4h-5.7v-1.4
			c0.6-0.2,1.1-0.7,1.3-1.4l6.2-16.1h4.9l6.2,16.2c0.2,0.6,0.7,1,1.2,1.2v1.4h-7.1v-1.4c0.2,0,0.5-0.1,0.7-0.2
			c0.2-0.1,0.3-0.3,0.3-0.5v-0.2v-0.2l-1.4-3.8L198.8,15.4z M197.8,12.7l-2.1-6l-2,6H197.8z M219.8,3h7.1v1.4
			c-0.6,0-1.2,0.5-1.2,1.2c0,0,0,0.1,0,0.1v13.5c0,0.3,0.1,0.6,0.2,0.9c0.3,0.2,0.6,0.3,0.9,0.4v1.4h-7.1v-1.4
			c0.3,0,0.7-0.1,0.9-0.4c0.2-0.3,0.3-0.6,0.2-0.9v-6.5h-7.2v6.4c0,0.3,0,0.6,0.2,0.9c0.3,0.2,0.6,0.3,0.9,0.4v1.4h-7.1v-1.4
			c0.3,0,0.7-0.1,0.9-0.4c0.2-0.3,0.2-0.6,0.2-0.9V5.6c0-0.3-0.1-0.6-0.2-0.9c-0.3-0.2-0.6-0.3-0.9-0.4V3h7.1v1.4
			c-0.6,0-1.2,0.5-1.2,1.2c0,0,0,0.1,0,0.1V10h7.2V5.6c0-0.3-0.1-0.6-0.2-0.9c-0.2-0.2-0.6-0.4-0.9-0.4V3z M230,21.8v-1.4
			c0.3,0,0.6-0.1,0.9-0.3c0.2-0.3,0.3-0.6,0.2-0.9V5.6c0-0.3-0.1-0.7-0.2-0.9c-0.3-0.2-0.6-0.3-0.9-0.4V3h7.1v1.4
			c-0.3,0-0.6,0.2-0.9,0.4C236,5,235.9,5.3,236,5.6v4.8l5.2-4.7c0.3-0.3,0.5-0.5,0.5-0.7s-0.4-0.5-1.1-0.6V3h7.7v1.4
			c-0.4,0.1-0.8,0.2-1.2,0.4c-0.4,0.2-0.8,0.5-1.2,0.8l-4.2,3.8l6.6,9.9c0.2,0.3,0.4,0.5,0.7,0.7c0.3,0.2,0.7,0.3,1.1,0.4v1.4h-8.3
			v-1.4c0.6-0.1,0.9-0.3,0.9-0.7c0-0.2-0.1-0.4-0.2-0.5l-4.4-6.7l-2.1,1.8v4.8c0,0.3,0,0.6,0.2,0.9c0.3,0.2,0.6,0.3,0.9,0.4v1.4
			L230,21.8z"/>
	</g>
</g>
</svg>
