<?xml version="1.0" encoding="utf-8"?>
<!-- Generator: Adobe Illustrator 24.0.1, SVG Export Plug-In . SVG Version: 6.00 Build 0)  -->
<svg version="1.1" id="Слой_1" xmlns="http://www.w3.org/2000/svg" xmlns:xlink="http://www.w3.org/1999/xlink" x="0px" y="0px"
	 width="250px" height="52px" viewBox="0 0 250 52" style="enable-background:new 0 0 250 52;" xml:space="preserve">
<style type="text/css">
	.st0{fill-rule:evenodd;clip-rule:evenodd;fill:#273981;}
	.st1{fill-rule:evenodd;clip-rule:evenodd;fill:#FFFFFF;}
	.st2{fill:#333333;}
	.st3{fill:#FFFFFF;}
</style>
<g>
	<path class="st0" d="M0,12.5l25.4,26.3H250l-25.4-26.3H0z"/>
	<path class="st0" d="M131.2,31.1c1.5,0,2.7,1.2,2.7,2.8c0,1.5-1.2,2.8-2.7,2.8c-1.2,0-2.2-0.8-2.6-1.9H121h-7.7
		c-0.4,1-1.4,1.7-2.5,1.7c-1.5,0-2.7-1.2-2.7-2.8c0-1.5,1.2-2.8,2.7-2.8c0.2,0,0.4,0,0.6,0.1l3.7-6.5l3.9-6.8
		c-0.4-0.5-0.7-1.1-0.7-1.8c0-1.5,1.2-2.8,2.7-2.8c1.5,0,2.7,1.2,2.7,2.8c0,0.7-0.3,1.4-0.7,1.9l3.9,6.7l3.8,6.7
		C130.9,31.2,131,31.1,131.2,31.1z M112.7,31.7c0.4,0.4,0.7,1,0.8,1.6h7.5h7.5c0.1-0.6,0.5-1.1,0.9-1.5l-3.8-6.5l-3.8-6.7
		c-0.2,0.1-0.5,0.1-0.7,0.1c-0.3,0-0.5,0-0.8-0.1l-3.9,6.7L112.7,31.7z"/>
	<path class="st1" d="M121.2,2.3l10.7,6.2l10.7,6.2v12.4v12.4l-10.7,6.2L121.2,52l-10.7-6.2l-10.7-6.2V27.2V14.7l10.7-6.2L121.2,2.3
		z"/>
	<path class="st0" d="M131.2,31.1c1.5,0,2.7,1.2,2.7,2.8c0,1.5-1.2,2.8-2.7,2.8c-1.2,0-2.2-0.8-2.6-1.9H121h-7.7
		c-0.4,1-1.4,1.7-2.5,1.7c-1.5,0-2.7-1.2-2.7-2.8c0-1.5,1.2-2.8,2.7-2.8c0.2,0,0.4,0,0.6,0.1l3.7-6.5l3.9-6.8
		c-0.4-0.5-0.7-1.1-0.7-1.8c0-1.5,1.2-2.8,2.7-2.8c1.5,0,2.7,1.2,2.7,2.8c0,0.7-0.3,1.4-0.7,1.9l3.9,6.7l3.8,6.7
		C130.9,31.2,131,31.1,131.2,31.1z M112.7,31.7c0.4,0.4,0.7,1,0.8,1.6h7.5h7.5c0.1-0.6,0.5-1.1,0.9-1.5l-3.8-6.5l-3.8-6.7
		c-0.2,0.1-0.5,0.1-0.7,0.1c-0.3,0-0.5,0-0.8-0.1l-3.9,6.7L112.7,31.7z"/>
	<path class="st0" d="M121.2,0l11.1,6.5l11.1,6.5v12.9v12.9l-11.1,6.5l-11.1,6.5l-11.1-6.5L99,38.8V25.8V12.9l11.1-6.5L121.2,0z"/>
	<path class="st0" d="M121.2,0.6l10.9,6.3l10.9,6.3v12.6v12.6l-10.9,6.3l-10.9,6.3l-10.9-6.3l-10.9-6.3V25.9V13.2l10.9-6.3
		L121.2,0.6z"/>
	<path class="st1" d="M121.2,1l10.7,6.2l10.7,6.2v12.4v12.4l-10.7,6.2l-10.7,6.2l-10.7-6.2l-10.7-6.2V25.9V13.5l10.7-6.2L121.2,1z"
		/>
	<path class="st0" d="M102.9,36.4l17.3,10l0.7-1.3l-16.6-9.6V15.7h-1.5L102.9,36.4L102.9,36.4L102.9,36.4z"/>
	<path class="st0" d="M139.2,15.3l-17.3-10l-0.7,1.3l16.6,9.6V36h1.5L139.2,15.3L139.2,15.3L139.2,15.3z"/>
	<path class="st0" d="M131.2,29.8c1.5,0,2.7,1.2,2.7,2.8c0,1.5-1.2,2.8-2.7,2.8c-1.2,0-2.2-0.8-2.6-1.9H121h-7.7
		c-0.4,1-1.4,1.7-2.5,1.7c-1.5,0-2.7-1.2-2.7-2.8c0-1.5,1.2-2.8,2.7-2.8c0.2,0,0.4,0,0.6,0.1l3.7-6.5l3.9-6.8
		c-0.4-0.5-0.7-1.1-0.7-1.8c0-1.5,1.2-2.8,2.7-2.8c1.5,0,2.7,1.2,2.7,2.8c0,0.7-0.3,1.4-0.7,1.9l3.9,6.7l3.8,6.7
		C130.9,29.9,131,29.8,131.2,29.8z M112.7,30.4c0.4,0.4,0.7,1,0.8,1.6h7.5h7.5c0.1-0.6,0.5-1.1,0.9-1.5l-3.8-6.5l-3.8-6.7
		c-0.2,0.1-0.5,0.1-0.7,0.1c-0.3,0-0.5,0-0.8-0.1l-3.9,6.7L112.7,30.4z"/>
	<path class="st2" d="M41.1,1h-1.9l-3.8,3.9V1h-1.5v8.7h1.5V6.7l1.2-1.2l2.8,4.2h1.9l-3.7-5.2L41.1,1z"/>
	<path class="st2" d="M44.2,7.2L44.2,7.2c-0.5,0.9-0.8,1.4-1.3,1.4c-0.5,0-0.8-0.1-1-0.2v1.3c0.2,0.1,0.6,0.2,1,0.2
		c1,0,1.7-0.5,2.5-2L48.8,1h-1.6L45,5.6L42.9,1h-1.7L44.2,7.2z"/>
	<path class="st2" d="M55.8,7.1c0-1.1-0.7-1.9-1.6-2.1v0c0.7-0.2,1.4-0.9,1.4-1.9c0-1.6-1.4-2.4-3.1-2.4c-1.8,0-3.2,0.8-3.2,2.7h1.4
		C50.7,2.4,51.4,2,52.5,2c1,0,1.5,0.5,1.5,1.2c0,0.8-0.6,1.4-1.4,1.4h-1.1v1.2h1.1c1,0,1.6,0.5,1.6,1.4c0,1-0.6,1.5-1.7,1.5
		c-1.2,0-2.2-0.5-2.2-1.9h-1.5c0,2.1,1.6,3.1,3.7,3.1C54.9,9.8,55.8,8.2,55.8,7.1z"/>
	<path class="st2" d="M64.3,6.9c0-1.7-1.1-2.7-3-2.7h-2.6v-2h4.9V1h-6.4v8.7h4.1C63.2,9.6,64.3,8.7,64.3,6.9z M62.8,7
		c0,0.9-0.5,1.4-1.5,1.4h-2.5V5.5h2.5C62.2,5.5,62.8,6.1,62.8,7z"/>
	<path class="st2" d="M69.8,1h-1.6l-3.3,8.7h1.6l0.9-2.3h3.4l0.8,2.3h1.6L69.8,1z M70.2,6.2h-2.6l1.4-3.7L70.2,6.2z"/>
	<path class="st2" d="M81.3,6.3h-1.5c-0.2,1.3-0.8,2.2-2.2,2.2c-1.9,0-2.6-1.6-2.6-3.3c0-1.6,0.7-3.2,2.6-3.2c1.1,0,1.9,0.6,2.1,1.7
		h1.5c-0.3-2-1.9-3-3.6-3c-2.6,0-4.1,2.1-4.1,4.5c0,2.7,1.6,4.5,4.1,4.5C79.7,9.8,81.2,8.4,81.3,6.3z"/>
	<path class="st2" d="M90.1,6.3h-1.5c-0.2,1.3-0.8,2.2-2.2,2.2c-1.9,0-2.6-1.6-2.6-3.3c0-1.6,0.7-3.2,2.6-3.2c1.1,0,1.9,0.6,2.1,1.7
		h1.5c-0.3-2-1.9-3-3.6-3c-2.6,0-4.1,2.1-4.1,4.5c0,2.7,1.6,4.5,4.1,4.5C88.5,9.8,90,8.4,90.1,6.3z"/>
	<path class="st3" d="M53.8,16.6h-4.3l-3.6,5.7l-3.5-5.7h-4.5l5.8,8.5l-6.3,9.3h4.4l4-6.2l3.9,6.2h4.7L48,25.1L53.8,16.6z"/>
	<path class="st3" d="M71,16.6h-4.4l-6.7,12.3h-0.1V16.6h-3.9v17.8h4.4L67,22.1h0.1v12.3H71V16.6z"/>
	<path class="st3" d="M74.4,34.4h3.7V21.9l4.4,12.5h3L90,21.8v12.6h3.7V16.6h-5.4l-4.1,12.2L80,16.6h-5.6V34.4z"/>
	<path class="st3" d="M153.3,23v-3.2h9.3v-3.2h-13.2v17.8h8.3c3.9,0,6.5-1.8,6.5-5.7c0-3.9-2.8-5.7-6.3-5.7H153.3z M160.5,28.6
		c0,1.9-1.1,2.6-3,2.6h-4.2v-5.1h4.1C159.2,26.1,160.5,26.8,160.5,28.6z"/>
	<path class="st3" d="M175.8,16.6h-4L165,34.4h4l1.4-4h6.6l1.4,4h4.1L175.8,16.6z M176.2,27.6h-4.7l2.4-6.6L176.2,27.6z"/>
	<path class="st3" d="M199.2,16.6h-3.9v6.7H188v-6.7h-3.9v17.8h3.9v-7.7h7.3v7.7h3.9V16.6z"/>
	<path class="st3" d="M218.5,16.6h-4.9l-7,7.4v-7.4h-3.8v17.8h3.8v-5.8l2.3-2.2l5.4,8h4.9l-7.6-10.8L218.5,16.6z"/>
</g>
</svg>
