<?xml version="1.0" encoding="utf-8"?>
<!-- Generator: Adobe Illustrator 24.0.1, SVG Export Plug-In . SVG Version: 6.00 Build 0)  -->
<svg version="1.1" id="Слой_1" xmlns="http://www.w3.org/2000/svg" xmlns:xlink="http://www.w3.org/1999/xlink" x="0px" y="0px"
	 width="250px" height="67px" viewBox="0 0 250 67" style="enable-background:new 0 0 250 67;" xml:space="preserve">
<style type="text/css">
	.st0{fill-rule:evenodd;clip-rule:evenodd;fill:#C51617;}
	.st1{fill-rule:evenodd;clip-rule:evenodd;fill:#005C32;}
	.st2{fill-rule:evenodd;clip-rule:evenodd;fill:#C9150D;}
</style>
<g>
	<path class="st0" d="M45.7,2.7c5.9,3,9.4,10.1,9.7,15c-2.5-7.9-7-11.5-11.8-13.6c-1.6,1.2-2.1,1.5-2.1,1.5L38,4.9
		c0,0-0.2-0.6-0.8-2.5C24,1.7,14,9.9,8.2,19.6c1.1,1.8,1.5,2.5,1.5,2.5l-2,4.5c0,0-0.7,0.1-2.9,0.3c-7,23.3,7.8,32.3,7.8,32.3l3-1.4
		l3.5,1.6c0,0,0.1,0.5,0.6,2.9c7.9,2,18.8-1,27.7-9.8c-6.7,11.2-23.8,16.3-34.9,10.3C-0.9,55.6-4.1,35.8,5.2,19.1
		C14.5,2.4,32.7-4,45.7,2.7z"/>
	<path class="st0" d="M26.6,5.1c0.4,0,0.7,0.3,0.7,0.7c0,0.4-0.3,0.7-0.7,0.7c-0.4,0-0.7-0.3-0.7-0.7C25.9,5.5,26.2,5.1,26.6,5.1z"
		/>
	<path class="st0" d="M30.5,59.2c0.4,0,0.7,0.3,0.7,0.7c0,0.4-0.3,0.7-0.7,0.7c-0.4,0-0.7-0.3-0.7-0.7
		C29.8,59.5,30.1,59.2,30.5,59.2z"/>
	<path class="st0" d="M16.3,12.3c0.5,0,0.9,0.4,0.9,0.9S16.8,14,16.3,14c-0.5,0-0.9-0.4-0.9-0.9C15.4,12.7,15.8,12.3,16.3,12.3z"/>
	<path class="st0" d="M5.3,35.8c0.5,0,0.9,0.4,0.9,0.9c0,0.5-0.4,0.9-0.9,0.9c-0.5,0-0.9-0.4-0.9-0.9C4.5,36.1,4.8,35.8,5.3,35.8z"
		/>
	<path class="st0" d="M7.5,48.7c0.5,0,0.9,0.4,0.9,0.9c0,0.5-0.4,0.9-0.9,0.9c-0.5,0-0.9-0.4-0.9-0.9C6.6,49.1,7,48.7,7.5,48.7z"/>
	<path class="st0" d="M50.8,11.6c0.3,0,0.6,0.3,0.6,0.6c0,0.3-0.3,0.6-0.6,0.6c-0.3,0-0.6-0.3-0.6-0.6
		C50.2,11.8,50.5,11.6,50.8,11.6z"/>
	<path class="st0" d="M43.8,52.9c0.3,0,0.6,0.3,0.6,0.6c0,0.3-0.3,0.6-0.6,0.6c-0.3,0-0.6-0.3-0.6-0.6
		C43.2,53.2,43.5,52.9,43.8,52.9z"/>
	<path class="st1" d="M19.6,53V15h14.6c3.1,0,5.9,0.5,8.3,1.5c2.4,1,4.4,2.4,6,4.1c1.6,1.7,2.8,3.7,3.6,6c0.8,2.3,1.2,4.8,1.2,7.4
		c0,2.9-0.5,5.5-1.4,7.8c-0.9,2.3-2.2,4.3-3.9,6c-1.7,1.7-3.7,2.9-6.1,3.9c-2.4,0.9-5,1.4-7.9,1.4H19.6z M42.8,33.9
		c0-1.5-0.2-2.8-0.6-4c-0.4-1.2-1-2.2-1.7-3.1c-0.7-0.9-1.6-1.5-2.7-2c-1.1-0.5-2.3-0.7-3.6-0.7h-4.2v19.8h4.2
		c1.4,0,2.6-0.2,3.6-0.7c1.1-0.5,2-1.2,2.7-2.1c0.7-0.9,1.3-1.9,1.7-3.2C42.6,36.7,42.8,35.4,42.8,33.9z"/>
	<path class="st1" d="M31.1,49.6H10.8c0.4,1.2,0.9,2.3,1.5,3.4h18.8V49.6z M31.1,15H17.5c-0.7,0.9-1.4,1.7-2,2.7
		c-0.2,0.2-0.3,0.5-0.5,0.7h16.1V15z M31.1,20.5H13.7c-0.6,1.1-1.2,2.2-1.7,3.4h19.1V20.5z M31.1,44.1H9.3c0.2,1.2,0.5,2.3,0.8,3.4
		h21V44.1z"/>
	<path class="st1" d="M66.3,52.9c-1.8,0-3.5-0.3-4.8-0.9c-1.4-0.6-2.6-1.4-3.5-2.3c-0.9-1-1.7-2.1-2.1-3.4c-0.5-1.3-0.7-2.6-0.7-4
		c0-1.4,0.2-2.7,0.7-4c0.5-1.3,1.2-2.4,2.1-3.4c0.9-1,2.1-1.8,3.5-2.3c1.4-0.6,3-0.9,4.8-0.9c1.8,0,3.4,0.3,4.8,0.9
		c1.4,0.6,2.6,1.4,3.5,2.3c0.9,1,1.7,2.1,2.1,3.4c0.5,1.3,0.7,2.6,0.7,4c0,1.4-0.2,2.7-0.7,4c-0.5,1.3-1.2,2.4-2.1,3.4
		c-0.9,1-2.1,1.8-3.5,2.3C69.8,52.6,68.2,52.9,66.3,52.9z M62.7,42.3c0,1.4,0.3,2.4,1,3.2c0.7,0.8,1.5,1.2,2.6,1.2
		c1.1,0,1.9-0.4,2.6-1.2c0.7-0.8,1-1.9,1-3.2c0-1.4-0.3-2.4-1-3.2c-0.7-0.8-1.5-1.2-2.6-1.2c-1.1,0-1.9,0.4-2.6,1.2
		C63.1,39.9,62.7,40.9,62.7,42.3z M90.5,31.9c-1.2,0.2-2.1,0.7-2.8,1.4c-0.7,0.7-1.2,1.8-1.4,3.2c0.7-0.8,1.6-1.5,2.6-2
		c1.1-0.5,2.4-0.8,3.9-0.8c1.2,0,2.3,0.2,3.4,0.7c1.1,0.5,2.1,1.1,2.9,1.9c0.8,0.8,1.5,1.8,2,2.8c0.5,1.1,0.7,2.2,0.7,3.4
		c0,1.3-0.2,2.6-0.7,3.9c-0.5,1.2-1.2,2.3-2.1,3.3c-0.9,0.9-2.1,1.7-3.5,2.3c-1.4,0.6-3,0.8-4.8,0.8c-3.7,0-6.5-1-8.4-3.1
		c-1.9-2-2.8-5-2.8-9c0-2.5,0.2-4.7,0.7-6.5c0.5-1.8,1.1-3.3,2-4.5c0.9-1.2,2.1-2.1,3.5-2.8c1.4-0.7,3-1.2,4.9-1.6l8.9-1.8v6.3
		L90.5,31.9z M87.1,42.7c0,1.2,0.3,2.2,1,2.9c0.7,0.7,1.5,1.1,2.6,1.1c1.1,0,1.9-0.4,2.6-1.1c0.7-0.7,1-1.7,1-2.9
		c0-0.9-0.3-1.7-1-2.2c-0.7-0.6-1.5-0.9-2.6-0.9c-1.1,0-1.9,0.3-2.6,0.9C87.5,41.1,87.1,41.8,87.1,42.7z M118.5,52.9
		c-1.5,0-2.8-0.3-3.9-0.9c-1.1-0.6-1.9-1.4-2.5-2.5v11.3h-7.4V32.1h6.4v3.1c0.7-1.1,1.6-2,2.7-2.6c1.1-0.6,2.4-0.9,3.9-0.9
		c1.3,0,2.6,0.3,3.8,0.8c1.2,0.5,2.2,1.3,3,2.2c0.8,0.9,1.5,2,2,3.3c0.5,1.3,0.7,2.7,0.7,4.2c0,1.5-0.2,2.9-0.7,4.3
		c-0.4,1.3-1.1,2.4-1.8,3.4c-0.8,1-1.7,1.7-2.8,2.2C120.9,52.7,119.7,52.9,118.5,52.9z M115.9,46.7c0.5,0,1-0.1,1.5-0.3
		c0.5-0.2,0.8-0.6,1.2-1c0.3-0.4,0.6-0.9,0.8-1.4c0.2-0.5,0.3-1.1,0.3-1.8c0-1.3-0.4-2.3-1.1-3.1c-0.7-0.8-1.7-1.2-2.9-1.2
		c-1.4,0-2.5,0.7-3.5,2.1v3.5c0.4,0.9,0.9,1.7,1.6,2.3C114.4,46.4,115.1,46.7,115.9,46.7z M139.9,52.9c-1.8,0-3.5-0.3-4.8-0.9
		c-1.4-0.6-2.6-1.4-3.5-2.3c-0.9-1-1.7-2.1-2.1-3.4c-0.5-1.3-0.7-2.6-0.7-4c0-1.4,0.2-2.7,0.7-4c0.5-1.3,1.2-2.4,2.1-3.4
		c0.9-1,2.1-1.8,3.5-2.3c1.4-0.6,3-0.9,4.8-0.9c1.8,0,3.4,0.3,4.8,0.9c1.4,0.6,2.6,1.4,3.5,2.3c0.9,1,1.7,2.1,2.1,3.4
		c0.5,1.3,0.7,2.6,0.7,4c0,1.4-0.2,2.7-0.7,4c-0.5,1.3-1.2,2.4-2.1,3.4c-0.9,1-2.1,1.8-3.5,2.3C143.3,52.6,141.7,52.9,139.9,52.9z
		 M136.3,42.3c0,1.4,0.3,2.4,1,3.2c0.7,0.8,1.5,1.2,2.6,1.2c1.1,0,1.9-0.4,2.6-1.2c0.7-0.8,1-1.9,1-3.2c0-1.4-0.3-2.4-1-3.2
		c-0.7-0.8-1.5-1.2-2.6-1.2c-1.1,0-1.9,0.4-2.6,1.2C136.6,39.9,136.3,40.9,136.3,42.3z"/>
	<path class="st2" d="M152.7,28.8c1.4-1.3,3-2.4,4.7-3.1c1.7-0.7,3.7-1.1,6-1.1c1.4,0,2.7,0.2,3.8,0.5c1.1,0.3,2.1,0.8,2.9,1.4
		c0.8,0.6,1.4,1.4,1.9,2.3c0.4,0.9,0.7,2,0.7,3.2c0,0.6-0.1,1.2-0.2,1.8c-0.1,0.6-0.3,1.1-0.6,1.7c-0.3,0.5-0.7,1-1.3,1.5
		c-0.5,0.5-1.2,0.8-2,1.1c1.7,0.5,3,1.3,3.8,2.5c0.8,1.2,1.2,2.6,1.2,4.2c0,1.3-0.3,2.5-0.8,3.5c-0.5,1-1.3,1.9-2.2,2.5
		c-0.9,0.7-2.1,1.2-3.3,1.5c-1.3,0.3-2.7,0.5-4.2,0.5c-2.2,0-4.1-0.3-5.8-0.8c-1.7-0.6-3.4-1.5-5-2.7l3.5-5.8c1,0.8,2,1.4,3.1,1.9
		c1.1,0.5,2.3,0.7,3.8,0.7c1,0,1.8-0.2,2.4-0.7c0.6-0.4,0.9-1.2,0.9-2.1c0-0.3-0.1-0.7-0.2-1c-0.1-0.3-0.3-0.6-0.5-0.9
		c-0.3-0.3-0.6-0.5-1-0.6c-0.4-0.2-0.9-0.2-1.6-0.2h-3.9v-5h3.2c1.3,0,2.2-0.2,2.8-0.6c0.6-0.4,0.9-1,0.9-1.7c0-0.6-0.2-1.2-0.6-1.6
		c-0.4-0.4-1.1-0.6-2.2-0.6c-1.2,0-2.4,0.2-3.4,0.7c-1,0.4-2,1.1-3,1.9L152.7,28.8z M182.5,52.9c-1,0-2-0.2-2.8-0.5
		c-0.9-0.3-1.6-0.8-2.3-1.4c-0.6-0.6-1.1-1.3-1.5-2.1c-0.4-0.8-0.5-1.7-0.5-2.6c0-1,0.2-2,0.7-2.8c0.4-0.9,1.1-1.6,1.8-2.2
		c0.8-0.6,1.7-1.1,2.8-1.4c1.1-0.3,2.3-0.5,3.6-0.5c1.7,0,3,0.3,4.1,0.8v-0.6c0-1-0.3-1.7-0.8-2.1c-0.6-0.5-1.5-0.7-2.7-0.7
		c-1.2,0-2.2,0.2-3.2,0.6c-1,0.4-2,0.9-3.1,1.7l-2.1-4.6c2.7-1.7,5.8-2.6,9.2-2.6c3.3,0,5.8,0.7,7.5,2.2c1.8,1.5,2.6,3.6,2.6,6.5v4
		c0,0.7,0.1,1.2,0.3,1.5c0.2,0.3,0.6,0.4,1.1,0.5v6.2c-0.6,0.1-1.2,0.2-1.7,0.3c-0.5,0.1-1,0.1-1.4,0.1c-1.3,0-2.3-0.2-3-0.7
		c-0.7-0.5-1.1-1.2-1.3-2.1l-0.2-0.7c-0.9,1.2-2,2.1-3.1,2.7C185.1,52.6,183.9,52.9,182.5,52.9z M184.7,47.6c0.4,0,0.9-0.1,1.4-0.2
		c0.5-0.1,0.9-0.3,1.2-0.6c0.3-0.2,0.5-0.4,0.7-0.7c0.2-0.2,0.3-0.5,0.3-0.8v-1.5c-0.4-0.2-0.9-0.3-1.4-0.4c-0.5-0.1-1-0.2-1.4-0.2
		c-0.9,0-1.7,0.2-2.3,0.7c-0.6,0.4-0.9,1-0.9,1.7c0,0.6,0.2,1,0.7,1.4C183.5,47.5,184,47.6,184.7,47.6z M217.5,24.2
		c0,0.9-0.2,1.8-0.5,2.5c-0.3,0.8-0.8,1.4-1.4,2c-0.6,0.6-1.3,1-2.2,1.3c-0.9,0.3-1.8,0.5-2.8,0.5s-2-0.2-2.8-0.5
		c-0.9-0.3-1.6-0.7-2.2-1.3c-0.6-0.6-1.1-1.2-1.4-2c-0.3-0.8-0.5-1.6-0.5-2.5h3.8c0,0.9,0.3,1.6,0.8,2.2c0.5,0.6,1.3,0.9,2.4,0.9
		c1,0,1.7-0.3,2.2-0.9c0.5-0.6,0.8-1.3,0.9-2.3L217.5,24.2L217.5,24.2z M207.3,41.9l8-9.8h5.2v20.5h-7.4v-9.5l-8,9.5H200V32.1h7.4
		V41.9L207.3,41.9z M237.1,40.4l5-8.4h7.7v20.5h-7v-9.8l-4.2,7h-3.1l-4.2-7v9.8h-7V32.1h7.7L237.1,40.4z"/>
	<path class="st1" d="M151.7,61.4v-0.9c0-2.3,0.5-3.6,1.6-3.9c0.3-0.1,1-0.1,1.9-0.1c0.4,0,0.6,0,0.7-0.1c0.1-0.1,0.1-0.1,0.1-0.2
		c0-0.1,0.1-0.2,0.3-0.3c0.1-0.1,0.3-0.1,0.4-0.1c0.4,0,0.6,0.3,0.6,0.9c0,0.2-0.1,0.5-0.3,0.6c-0.2,0.1-0.4,0.2-0.7,0.3
		c-0.2,0-0.4,0.1-0.6,0.1h-1.2c-0.4,0-0.7,0.1-0.9,0.4c-0.1,0.2-0.2,0.5-0.2,0.8h0c0.4-0.3,0.8-0.4,1.4-0.4c0.9,0,1.5,0.3,2,0.8
		c0.4,0.5,0.6,1.2,0.6,2.1c0,0.9-0.2,1.7-0.7,2.2c-0.5,0.5-1.2,0.8-2.1,0.8c-0.9,0-1.6-0.3-2.1-0.9
		C151.9,63.1,151.7,62.4,151.7,61.4z M153.4,61.5c0,1,0.4,1.5,1.1,1.5c0.3,0,0.6-0.1,0.8-0.3c0.2-0.2,0.3-0.6,0.3-1.2
		c0-1-0.4-1.4-1.1-1.4c-0.4,0-0.7,0.1-0.9,0.4C153.5,60.8,153.4,61.1,153.4,61.5z M160,60.8c1,0,1.7,0,1.9,0.1
		c0.8,0.1,1.3,0.5,1.5,1c0.1,0.2,0.1,0.5,0.1,0.8c0,0.7-0.3,1.2-0.8,1.5c-0.4,0.2-1,0.3-1.8,0.3h-1.7c-0.7,0-1-0.4-1-1.1v-3.8
		c0-0.8,0.3-1.1,0.9-1.1c0.6,0,0.9,0.4,0.9,1.1V60.8z M160,61.9v1.3h0.7c0.7,0,1-0.2,1-0.7c0-0.3-0.1-0.5-0.3-0.6
		c-0.1-0.1-0.4-0.1-0.7-0.1L160,61.9L160,61.9z M166,59.7v3.6c0,0.4-0.1,0.6-0.2,0.8c-0.1,0.2-0.4,0.3-0.7,0.3
		c-0.3,0-0.6-0.1-0.7-0.3c-0.1-0.2-0.2-0.4-0.2-0.8v-3.6c0-0.9,0.3-1.3,0.9-1.3C165.8,58.4,166,58.8,166,59.7z M166.9,61.4
		c0-0.9,0.3-1.7,0.8-2.3c0.6-0.6,1.3-0.9,2.2-0.9c0.5,0,0.9,0.1,1.3,0.2c0.5,0.2,0.7,0.5,0.7,0.9c0,0.2-0.1,0.4-0.2,0.5
		s-0.3,0.2-0.5,0.2c-0.1,0-0.3,0-0.5-0.1c-0.2-0.1-0.5-0.1-0.7-0.1c-0.4,0-0.7,0.2-0.9,0.5c-0.2,0.3-0.3,0.6-0.3,1
		c0,0.4,0.1,0.8,0.3,1c0.2,0.3,0.6,0.4,1,0.4c0.2,0,0.5,0,0.7-0.1c0.2-0.1,0.4-0.1,0.5-0.1c0.2,0,0.4,0.1,0.5,0.2
		c0.1,0.1,0.2,0.3,0.2,0.5c0,0.4-0.2,0.7-0.7,0.9c-0.4,0.2-0.8,0.3-1.3,0.3c-0.9,0-1.6-0.3-2.1-0.9
		C167.2,63.1,166.9,62.3,166.9,61.4z M173.9,59.9h-0.8c-0.7,0-1.1-0.3-1.1-0.8c0-0.5,0.4-0.8,1.1-0.8h3.3c0.7,0,1.1,0.3,1.1,0.8
		c0,0.5-0.4,0.8-1.1,0.8h-0.8v3.3c0,0.9-0.3,1.3-0.9,1.3c-0.6,0-0.9-0.4-0.9-1.3V59.9z M179.8,64.1L179.8,64.1l0,1.5
		c0,0.8-0.3,1.3-0.8,1.3c-0.6,0-0.9-0.4-0.9-1.3v-5.9c0-0.9,0.3-1.3,0.9-1.3c0.4,0,0.6,0.2,0.8,0.6c0.4-0.4,0.8-0.6,1.5-0.6
		c0.8,0,1.5,0.3,2,1c0.5,0.6,0.7,1.3,0.7,2.1c0,0.6-0.1,1.2-0.4,1.7c-0.3,0.5-0.7,1-1.2,1.2c-0.3,0.2-0.7,0.3-1.1,0.3
		C180.7,64.6,180.2,64.4,179.8,64.1z M179.8,61.5c0,0.4,0.1,0.7,0.3,1c0.2,0.3,0.5,0.4,0.9,0.4c0.4,0,0.7-0.2,0.9-0.5
		c0.2-0.3,0.3-0.6,0.3-1c0-0.4-0.1-0.7-0.3-1c-0.2-0.3-0.5-0.5-0.9-0.5c-0.3,0-0.6,0.1-0.8,0.3C179.9,60.5,179.8,60.9,179.8,61.5z
		 M184.5,61.4c0-0.9,0.3-1.6,0.8-2.3c0.6-0.6,1.3-0.9,2.2-0.9c0.9,0,1.6,0.3,2.2,0.9c0.5,0.6,0.8,1.4,0.8,2.3c0,0.9-0.3,1.6-0.8,2.2
		c-0.6,0.6-1.3,0.9-2.2,0.9c-0.9,0-1.6-0.3-2.2-0.9C184.8,63.1,184.5,62.3,184.5,61.4z M186.3,61.4c0,0.4,0.1,0.7,0.3,1
		c0.2,0.3,0.5,0.5,0.9,0.5c0.4,0,0.7-0.2,0.9-0.5c0.2-0.3,0.3-0.6,0.3-1c0-0.4-0.1-0.7-0.3-1c-0.2-0.3-0.5-0.5-0.9-0.5
		c-0.4,0-0.7,0.2-0.9,0.5C186.4,60.7,186.3,61,186.3,61.4z M192.9,61.9c0,0.3,0.2,0.6,0.4,0.8c0.2,0.2,0.5,0.3,0.9,0.3
		c0.3,0,0.7-0.1,1.1-0.3c0.4-0.2,0.7-0.3,0.8-0.3c0.5,0,0.7,0.2,0.7,0.7c0,0.2-0.1,0.3-0.2,0.5c-0.2,0.3-0.6,0.6-1.1,0.7
		c-0.4,0.1-0.9,0.2-1.3,0.2c-0.9,0-1.6-0.3-2.2-0.9c-0.6-0.6-0.9-1.3-0.9-2.2c0-0.9,0.3-1.6,0.8-2.2c0.6-0.6,1.3-0.9,2.1-0.9
		c0.4,0,0.8,0.1,1.2,0.2c0.5,0.2,0.9,0.6,1.2,1c0.3,0.5,0.5,1,0.5,1.5c0,0.3-0.1,0.5-0.3,0.7c-0.2,0.1-0.4,0.2-0.7,0.2L192.9,61.9
		L192.9,61.9z M192.9,60.8h2.3c0-0.3-0.1-0.6-0.4-0.8c-0.2-0.2-0.5-0.3-0.8-0.3c-0.3,0-0.6,0.1-0.8,0.3
		C193.1,60.2,193,60.5,192.9,60.8z M203.3,64.1L203.3,64.1l0,1.5c0,0.8-0.3,1.3-0.8,1.3c-0.6,0-0.9-0.4-0.9-1.3v-5.9
		c0-0.9,0.3-1.3,0.9-1.3c0.4,0,0.6,0.2,0.8,0.6c0.4-0.4,0.8-0.6,1.5-0.6c0.8,0,1.5,0.3,2,1c0.5,0.6,0.7,1.3,0.7,2.1
		c0,0.6-0.1,1.2-0.4,1.7c-0.3,0.5-0.7,1-1.2,1.2c-0.3,0.2-0.7,0.3-1,0.3C204.1,64.6,203.7,64.4,203.3,64.1z M203.2,61.5
		c0,0.4,0.1,0.7,0.3,1c0.2,0.3,0.5,0.4,0.9,0.4c0.4,0,0.7-0.2,0.9-0.5c0.2-0.3,0.3-0.6,0.3-1c0-0.4-0.1-0.7-0.3-1
		c-0.2-0.3-0.5-0.5-0.9-0.5c-0.3,0-0.6,0.1-0.8,0.3C203.4,60.5,203.2,60.9,203.2,61.5z M209.7,61.9c0,0.3,0.2,0.6,0.4,0.8
		c0.2,0.2,0.5,0.3,0.9,0.3c0.3,0,0.7-0.1,1.1-0.3c0.4-0.2,0.7-0.3,0.8-0.3c0.5,0,0.7,0.2,0.7,0.7c0,0.2-0.1,0.3-0.2,0.5
		c-0.2,0.3-0.6,0.6-1.1,0.7c-0.4,0.1-0.9,0.2-1.3,0.2c-0.9,0-1.6-0.3-2.2-0.9c-0.6-0.6-0.9-1.3-0.9-2.2c0-0.9,0.3-1.6,0.8-2.2
		c0.6-0.6,1.3-0.9,2.1-0.9c0.4,0,0.8,0.1,1.2,0.2c0.5,0.2,0.9,0.6,1.2,1c0.3,0.5,0.5,1,0.5,1.5c0,0.3-0.1,0.5-0.3,0.7
		c-0.2,0.1-0.4,0.2-0.7,0.2L209.7,61.9L209.7,61.9z M209.7,60.8h2.3c0-0.3-0.1-0.6-0.4-0.8c-0.2-0.2-0.5-0.3-0.8-0.3
		c-0.3,0-0.6,0.1-0.8,0.3C209.9,60.2,209.8,60.5,209.7,60.8z M216.4,63.2h1.7v-3.5c0-0.9,0.3-1.3,0.9-1.3c0.6,0,0.9,0.4,0.9,1.3v3.5
		h1.7v-3.5c0-0.9,0.3-1.3,0.9-1.3c0.6,0,0.9,0.4,0.9,1.3v3.5c0,0.8-0.4,1.2-1.1,1.2h-6.5c-0.4,0-0.6-0.1-0.8-0.4
		c-0.2-0.2-0.3-0.5-0.3-0.9v-3.5c0-0.9,0.3-1.3,0.9-1.3c0.6,0,0.9,0.4,0.9,1.3L216.4,63.2L216.4,63.2z M226.3,61.9
		c0,0.3,0.2,0.6,0.4,0.8c0.2,0.2,0.6,0.3,0.9,0.3c0.3,0,0.7-0.1,1.1-0.3c0.4-0.2,0.7-0.3,0.8-0.3c0.5,0,0.7,0.2,0.7,0.7
		c0,0.2-0.1,0.3-0.2,0.5c-0.2,0.3-0.6,0.6-1.1,0.7c-0.4,0.1-0.9,0.2-1.3,0.2c-0.9,0-1.6-0.3-2.2-0.9c-0.6-0.6-0.9-1.3-0.9-2.2
		c0-0.9,0.3-1.6,0.8-2.2c0.6-0.6,1.3-0.9,2.1-0.9c0.4,0,0.8,0.1,1.2,0.2c0.5,0.2,0.9,0.6,1.2,1c0.3,0.5,0.5,1,0.5,1.5
		c0,0.3-0.1,0.5-0.3,0.7c-0.2,0.1-0.4,0.2-0.7,0.2L226.3,61.9L226.3,61.9z M226.2,60.8h2.3c0-0.3-0.1-0.6-0.4-0.8
		c-0.2-0.2-0.5-0.3-0.8-0.3c-0.3,0-0.6,0.1-0.8,0.3C226.4,60.2,226.3,60.5,226.2,60.8z M232.9,62v1.2c0,0.9-0.3,1.3-0.9,1.3
		c-0.6,0-0.9-0.4-0.9-1.3v-3.6c0-0.9,0.3-1.3,0.9-1.3c0.6,0,0.9,0.4,0.9,1.3v1.1h1.9v-1.1c0-0.9,0.3-1.3,0.9-1.3
		c0.6,0,0.9,0.4,0.9,1.3v3.6c0,0.9-0.3,1.3-0.9,1.3c-0.6,0-0.9-0.4-0.9-1.3V62H232.9z M239.5,61.6l2.1-2c0-0.4,0-0.7,0.1-0.9
		c0.1-0.3,0.4-0.4,0.7-0.4c0.4,0,0.6,0.1,0.7,0.4c0.1,0.2,0.1,0.5,0.1,0.9v3.6c0,0.4,0,0.7-0.1,0.9c-0.1,0.3-0.4,0.4-0.7,0.4
		c-0.4,0-0.6-0.1-0.7-0.4c-0.1-0.2-0.1-0.5-0.1-0.9v-1.7l-2.1,1.7c0,0.4,0,0.7-0.1,0.9c-0.1,0.3-0.4,0.4-0.7,0.4
		c-0.6,0-0.9-0.4-0.9-1.3v-3.6c0-0.4,0-0.7,0.1-0.9c0.1-0.3,0.4-0.4,0.8-0.4c0.4,0,0.6,0.1,0.7,0.4c0.1,0.2,0.1,0.5,0.1,0.9V61.6z
		 M245.8,61.9c0,0.3,0.2,0.6,0.4,0.8c0.2,0.2,0.6,0.3,0.9,0.3c0.3,0,0.7-0.1,1.1-0.3c0.4-0.2,0.7-0.3,0.8-0.3c0.5,0,0.7,0.2,0.7,0.7
		c0,0.2-0.1,0.3-0.2,0.5c-0.2,0.3-0.6,0.6-1.1,0.7c-0.4,0.1-0.9,0.2-1.3,0.2c-0.9,0-1.6-0.3-2.2-0.9c-0.6-0.6-0.9-1.3-0.9-2.2
		c0-0.9,0.3-1.6,0.8-2.2c0.6-0.6,1.3-0.9,2.1-0.9c0.4,0,0.8,0.1,1.2,0.2c0.5,0.2,0.9,0.6,1.2,1c0.3,0.5,0.5,1,0.5,1.5
		c0,0.3-0.1,0.5-0.3,0.7c-0.2,0.1-0.4,0.2-0.7,0.2L245.8,61.9L245.8,61.9z M245.8,60.8h2.3c0-0.3-0.1-0.6-0.4-0.8
		c-0.2-0.2-0.5-0.3-0.8-0.3c-0.3,0-0.6,0.1-0.8,0.3C246,60.2,245.9,60.5,245.8,60.8z"/>
</g>
</svg>
