<?xml version="1.0" encoding="utf-8"?>
<!-- Generator: Adobe Illustrator 24.0.1, SVG Export Plug-In . SVG Version: 6.00 Build 0)  -->
<svg version="1.1" id="Layer_1" xmlns="http://www.w3.org/2000/svg" xmlns:xlink="http://www.w3.org/1999/xlink" x="0px" y="0px"
	 width="250px" height="100px" viewBox="0 0 250 100" style="enable-background:new 0 0 250 100;" xml:space="preserve">
<style type="text/css">
	.st0{fill:#00ADC7;}
	.st1{fill:#334047;}
</style>
<g>
	<polygon class="st0" points="191.9,100 44.8,100 58.1,56.4 205.2,56.4 	"/>
	<path class="st1" d="M107.5,40.1V12.8h12v9h5.5v-9h12v27.3h-12v-9h-5.5v9H107.5L107.5,40.1z M166.8,24.9l4.5-12.1h-11.7l-3.6,9
		h-2.1v-9h-12v27.3h12v-9h2.9l3.6,9h12L166.8,24.9L166.8,24.9L166.8,24.9z M189.3,31.8c-2.9,0-3.6-2.3-3.6-4c0-1.8,0.7-4,3.6-4
		c2.8,0,3.5,2.2,3.5,4C192.8,29.5,192.2,31.8,189.3,31.8L189.3,31.8z M193.6,15.8c-3.6,0-6.1,1.4-7.8,3.2c0.1-2.3,1.8-4.8,4.1-5.7
		c4-1.7,8.7-0.5,12-3.4V0c0,0-2.8,1.2-8,1.8c-3.1,0.4-7.5,1.4-11.4,3.8c-4.9,3.1-8.3,8.1-8.3,18.3c0,13.3,7.7,17.1,15.6,17.1
		c7.8,0,14.8-4,14.8-12.7C204.5,19.9,199.5,15.8,193.6,15.8L193.6,15.8L193.6,15.8z M86.9,31.4c-1.6,0-3-1-3.5-1.9v-6
		c0.6-1,1.9-1.9,3.5-1.9c2.9,0,4.1,2.5,4.1,4.9c0,0.3,0,0.6-0.1,0.9C90.7,29.5,89.4,31.4,86.9,31.4L86.9,31.4L86.9,31.4z
		 M103.4,26.4c0-6.7-3-13-9.9-14.3c-0.1,0-0.3-0.1-0.5-0.1c-0.4-0.1-0.8-0.1-1.2-0.1c-0.3,0-0.6,0-0.9,0c-0.3,0-0.5,0-0.7,0
		c0,0,0,0,0,0c-2.2,0.1-4.1,0.8-5.6,1.8c-1,0.7-1.9,1.5-2.6,2.3l-1-3.3h-9.5V51h12V38.4c0.8,0.7,1.9,1.4,3.2,1.9
		c1.2,0.5,2.6,0.7,4.3,0.7C99.6,41,103.4,33.9,103.4,26.4L103.4,26.4L103.4,26.4z"/>
</g>
</svg>
