<svg width="180" height="72" viewBox="0 0 180 72" fill="none" xmlns="http://www.w3.org/2000/svg">
<path d="M3.05949 32.5113V5.16711H0V3.50989H18.3569V5.16711H15.4887V19.2535L22.5637 3.50989H36.3315V5.16711H32.9533V32.0014H36.3315V33.7861H18.4207V32.0014H21.7351V10.7762L11.1544 33.7861H3.05949V32.5113Z" fill="#EC0000"/>
<path d="M110.907 32.0014H113.902V5.16711H110.907V3.50989H127.925V5.16711H125.184V17.5326H132.068V5.16711H129.391V3.50989H146.346V5.16711H143.35V32.0014H146.346V33.7861H129.391V32.0014H132.068V18.8711H125.184V32.0014H127.925V33.7861H110.907V32.0014Z" fill="#EC0000"/>
<path d="M151.572 7.78045C154.568 4.65722 158.711 3 163.555 3C173.307 3 180 10.0113 180 18.8074C180 27.5397 173.307 34.6147 163.555 34.6147C159.348 34.6147 155.588 33.2762 152.72 30.9816C149.278 28.1771 147.111 23.4603 147.111 18.8074C147.174 14.6643 148.895 10.5212 151.572 7.78045ZM163.555 33.4037C165.595 33.4037 166.742 31.8102 166.742 28.1133V9.43768C166.742 5.80453 165.595 4.21105 163.555 4.21105C161.516 4.21105 160.432 5.80453 160.432 9.43768V28.1133C160.432 31.7465 161.516 33.4037 163.555 33.4037Z" fill="#EC0000"/>
<path d="M107.018 32.0014L96.6289 3.50989H88.4065L79.483 28.5595C78.9094 30.153 78.0808 31.1728 76.8697 31.6827C76.4873 31.8102 75.9774 32.0014 75.4037 32.0014C75.1488 32.0014 74.0652 32.0014 74.0652 32.0014L62.4009 11.7323C62.4009 11.7323 66.2252 7.90791 66.6714 7.46173C67.9462 6.18694 69.9221 5.42207 71.3881 5.29459C72.0255 5.23085 72.8541 5.16711 73.5553 5.16711V3.50989H59.7238V5.16711H61.1261C61.8272 5.16711 63.1657 5.16711 63.7394 6.05946C64.1218 6.69686 63.8669 7.65295 63.102 8.48156L53.3499 18.2337V5.16711H56.2182V3.50989H38.881V5.16711H41.9405V32.0014H38.881V33.7861H56.2182V32.0014H53.3499V18.2974L61.2536 32.0651H58.0029V33.8498H84.0723V32.0651H83.6261C83.4349 32.0651 82.8612 32.0014 82.7337 32.0014C80.5666 31.4277 81.0765 29.8343 81.5227 28.6232L83.0524 24.1615H91.8485L94.7168 32.0651H92.1034V33.8498H108.994V32.0651H107.018V32.0014ZM83.8173 22.1218L87.4505 11.796L91.2111 22.1218H83.8173Z" fill="#EC0000"/>
<path d="M179.49 39.204H0V69.6077H179.49V39.204Z" fill="#EC0000"/>
<path d="M64.0581 53.2904C63.3569 52.908 62.5283 52.653 61.636 52.4618C60.7436 52.2706 59.7238 52.2069 58.6402 52.2069H53.4773V50.1672H64.3768V46.9802H48.3145V61.8315H58.449C59.5963 61.8315 60.6799 61.7678 61.636 61.5765C62.5921 61.3853 63.4207 61.1304 64.1218 60.7479C64.823 60.3655 65.3966 59.8556 65.779 59.2182C66.1615 58.5808 66.4164 57.8797 66.4164 57.0511C66.4164 56.2224 66.2252 55.4576 65.779 54.8839C65.3329 54.1828 64.7592 53.6729 64.0581 53.2904ZM53.4773 55.2663H58.0028C58.5128 55.2663 58.9589 55.3301 59.4051 55.3301C59.7875 55.3938 60.17 55.5213 60.4887 55.6488C60.7436 55.7763 60.9986 55.9675 61.1261 56.1587C61.2535 56.3499 61.3173 56.6049 61.3173 56.9236C61.3173 57.561 61.0623 57.9434 60.5524 58.1984C59.9788 58.4533 59.1501 58.5808 58.0666 58.5808H53.5411V55.2663H53.4773Z" fill="white"/>
<path d="M75.2125 46.9164L66.9264 61.7677H72.2805L73.9377 58.5807H81.3315L82.925 61.7677H88.4065L80.3116 46.9164H75.2125ZM79.8655 55.6487H75.4674L77.6983 51.3781L79.8655 55.6487Z" fill="white"/>
<path d="M103.449 52.3342H95.5453V46.9164H90.3187V61.7677H95.5453V55.6487H103.449V61.7677H108.612V46.9164H103.449V52.3342Z" fill="white"/>
<path d="M123.718 52.9079L132.387 46.9164H125.503L117.79 52.4617V46.9164H112.564V61.7677H117.79V57.0509L120.085 55.4575L126.268 61.7677H132.96L123.718 52.9079Z" fill="white"/>
</svg>
