<svg width="40" height="40" viewBox="0 0 40 40" fill="none" xmlns="http://www.w3.org/2000/svg">
<mask id="path-2-outside-1" maskUnits="userSpaceOnUse" x="10.2293" y="2.17853" width="20" height="35" fill="black">
<rect fill="white" x="10.2293" y="2.17853" width="20" height="35"/>
<path fill-rule="evenodd" clip-rule="evenodd" d="M14.8576 19.8452C14.7999 19.8608 14.556 19.8608 14.5069 19.8452C14.4563 19.8288 14.3277 19.6291 14.2521 19.5035C14.0144 19.1073 13.7642 18.6658 13.7401 18.5605C13.7081 18.4115 14.0471 18.0886 14.171 17.963C14.2942 17.8398 14.6597 17.5894 14.8264 17.4529C14.8264 17.4529 14.8872 17.4225 14.9207 17.6003C14.9371 17.6885 14.9543 19.5363 14.9706 19.8093C14.9706 19.8101 14.9145 19.8288 14.8576 19.8452ZM28.785 20.8966C29.209 20.6041 28.8029 20.0604 28.6034 20.1501C28.4896 20.2016 28.1538 20.3389 27.9854 20.3576C27.8148 20.3756 27.588 20.2492 27.238 20.1782C26.8873 20.1065 26.4198 20.1143 26.2039 20.0885C26.0924 20.0745 25.5079 19.6057 25.1167 18.9794C24.653 18.2407 24.381 17.2914 24.2813 17.0808C24.0989 16.7049 23.5612 15.4155 23.3196 15.038C23.0756 14.6589 22.4639 13.5529 21.206 13.1746C20.9964 13.0966 20.9146 12.9234 20.9372 12.8899C20.959 12.8579 21.39 12.7425 22.2301 12.198C23.0702 11.6559 24.4745 10.4719 24.4605 8.6272C24.4449 6.66316 23.6438 5.0353 22.0524 4.11646C20.4602 3.19606 18.9592 3.17032 18.4176 3.17968C15.1842 3.22414 13.1244 5.4175 12.7752 7.8199C12.5072 9.65446 13.3099 11.865 16.0547 12.9796L16.1365 13.3197C14.3308 13.9016 13.0519 15.148 12.2554 16.5754C11.4597 18.0028 10.8628 18.6674 11.4933 19.5308C12.1229 20.3943 12.7534 20.9099 12.9202 21.2078C12.9545 22.1345 13.7525 23.0923 14.694 23.519C14.7103 23.8512 13.6902 30.1505 12.4713 32.3018C12.1393 33.0318 12.1393 33.6808 12.1229 33.9437C12.1066 34.2104 12.2874 34.829 12.3669 35.0637C12.4425 35.2954 12.6646 36.0036 13.4603 36.2595C14.256 36.5122 14.9527 36.5567 15.2286 36.5473C15.5045 36.5348 16.2573 36.5902 16.4225 36.0036C16.5885 35.4171 16.3251 34.5567 16.3002 33.8025C16.2542 32.2503 18.4784 27.5976 18.7215 27.1694C18.8938 26.8691 19.2187 26.5617 19.2187 26.5617C19.2187 26.5617 19.2865 31.7199 19.2086 32.34C19.1315 32.9601 18.766 34.0006 19.1431 34.6644C19.5196 35.3305 22.7023 36.0933 24.1371 36.1815C24.1371 36.1815 25.4768 36.3687 25.4549 35.2946C25.4323 34.2206 23.2876 33.258 22.8793 32.2846C22.6135 31.553 22.9011 29.7941 22.9759 29.3136C23.2611 27.5461 23.5316 22.6305 23.5775 21.9551C23.6243 21.2788 23.5775 19.906 23.5775 19.906C24.2891 20.998 25.0411 21.3529 25.2819 21.725C25.5266 22.097 26.2405 22.8326 26.3621 22.9683C26.4252 23.0385 27.1383 23.6313 27.602 23.9737C28.0065 24.2709 28.6603 23.852 28.3244 23.3934C28.7694 23.7639 29.3352 23.1633 29.0726 22.9199C29.4233 22.9683 29.5043 22.4277 29.3212 22.2866C29.1412 22.1446 28.2426 21.2655 28.2496 21.1579C28.3502 21.1173 28.6034 21.0214 28.785 20.8966Z"/>
</mask>
<path fill-rule="evenodd" clip-rule="evenodd" d="M14.8576 19.8452C14.7999 19.8608 14.556 19.8608 14.5069 19.8452C14.4563 19.8288 14.3277 19.6291 14.2521 19.5035C14.0144 19.1073 13.7642 18.6658 13.7401 18.5605C13.7081 18.4115 14.0471 18.0886 14.171 17.963C14.2942 17.8398 14.6597 17.5894 14.8264 17.4529C14.8264 17.4529 14.8872 17.4225 14.9207 17.6003C14.9371 17.6885 14.9543 19.5363 14.9706 19.8093C14.9706 19.8101 14.9145 19.8288 14.8576 19.8452ZM28.785 20.8966C29.209 20.6041 28.8029 20.0604 28.6034 20.1501C28.4896 20.2016 28.1538 20.3389 27.9854 20.3576C27.8148 20.3756 27.588 20.2492 27.238 20.1782C26.8873 20.1065 26.4198 20.1143 26.2039 20.0885C26.0924 20.0745 25.5079 19.6057 25.1167 18.9794C24.653 18.2407 24.381 17.2914 24.2813 17.0808C24.0989 16.7049 23.5612 15.4155 23.3196 15.038C23.0756 14.6589 22.4639 13.5529 21.206 13.1746C20.9964 13.0966 20.9146 12.9234 20.9372 12.8899C20.959 12.8579 21.39 12.7425 22.2301 12.198C23.0702 11.6559 24.4745 10.4719 24.4605 8.6272C24.4449 6.66316 23.6438 5.0353 22.0524 4.11646C20.4602 3.19606 18.9592 3.17032 18.4176 3.17968C15.1842 3.22414 13.1244 5.4175 12.7752 7.8199C12.5072 9.65446 13.3099 11.865 16.0547 12.9796L16.1365 13.3197C14.3308 13.9016 13.0519 15.148 12.2554 16.5754C11.4597 18.0028 10.8628 18.6674 11.4933 19.5308C12.1229 20.3943 12.7534 20.9099 12.9202 21.2078C12.9545 22.1345 13.7525 23.0923 14.694 23.519C14.7103 23.8512 13.6902 30.1505 12.4713 32.3018C12.1393 33.0318 12.1393 33.6808 12.1229 33.9437C12.1066 34.2104 12.2874 34.829 12.3669 35.0637C12.4425 35.2954 12.6646 36.0036 13.4603 36.2595C14.256 36.5122 14.9527 36.5567 15.2286 36.5473C15.5045 36.5348 16.2573 36.5902 16.4225 36.0036C16.5885 35.4171 16.3251 34.5567 16.3002 33.8025C16.2542 32.2503 18.4784 27.5976 18.7215 27.1694C18.8938 26.8691 19.2187 26.5617 19.2187 26.5617C19.2187 26.5617 19.2865 31.7199 19.2086 32.34C19.1315 32.9601 18.766 34.0006 19.1431 34.6644C19.5196 35.3305 22.7023 36.0933 24.1371 36.1815C24.1371 36.1815 25.4768 36.3687 25.4549 35.2946C25.4323 34.2206 23.2876 33.258 22.8793 32.2846C22.6135 31.553 22.9011 29.7941 22.9759 29.3136C23.2611 27.5461 23.5316 22.6305 23.5775 21.9551C23.6243 21.2788 23.5775 19.906 23.5775 19.906C24.2891 20.998 25.0411 21.3529 25.2819 21.725C25.5266 22.097 26.2405 22.8326 26.3621 22.9683C26.4252 23.0385 27.1383 23.6313 27.602 23.9737C28.0065 24.2709 28.6603 23.852 28.3244 23.3934C28.7694 23.7639 29.3352 23.1633 29.0726 22.9199C29.4233 22.9683 29.5043 22.4277 29.3212 22.2866C29.1412 22.1446 28.2426 21.2655 28.2496 21.1579C28.3502 21.1173 28.6034 21.0214 28.785 20.8966Z" fill="#00AE4D"/>
<path d="M14.5069 19.8452L14.3531 20.3209L14.3555 20.3217L14.5069 19.8452ZM14.2521 19.5035L13.8233 19.7607L13.8237 19.7614L14.2521 19.5035ZM13.7401 18.5605L13.2511 18.6654L13.2527 18.6723L13.7401 18.5605ZM14.171 17.963L13.8173 17.6096L13.8151 17.6118L14.171 17.963ZM14.8264 17.4529L14.6027 17.0058L14.5529 17.0307L14.5098 17.066L14.8264 17.4529ZM14.9207 17.6003L15.4123 17.509L15.4121 17.5077L14.9207 17.6003ZM14.9706 19.8093H15.4706V19.7943L15.4697 19.7794L14.9706 19.8093ZM28.6034 20.1501L28.3984 19.6941L28.3973 19.6946L28.6034 20.1501ZM27.9854 20.3576L28.0377 20.8549L28.0407 20.8546L27.9854 20.3576ZM27.238 20.1782L27.1378 20.6681L27.1386 20.6682L27.238 20.1782ZM26.2039 20.0885L26.1414 20.5846L26.1447 20.585L26.2039 20.0885ZM25.1167 18.9794L25.5408 18.7145L25.5402 18.7135L25.1167 18.9794ZM24.2813 17.0808L24.7332 16.8668L24.7311 16.8626L24.2813 17.0808ZM23.3196 15.038L23.7407 14.7685L23.74 14.7675L23.3196 15.038ZM21.206 13.1746L21.0317 13.6432L21.0467 13.6488L21.062 13.6534L21.206 13.1746ZM20.9372 12.8899L20.5241 12.6081L20.5225 12.6105L20.9372 12.8899ZM22.2301 12.198L21.959 11.7779L21.9582 11.7784L22.2301 12.198ZM24.4605 8.6272L24.9605 8.6234L24.9605 8.62324L24.4605 8.6272ZM22.0524 4.11646L21.8022 4.54934L21.8024 4.54947L22.0524 4.11646ZM18.4176 3.17968L18.4245 3.67964L18.4262 3.67961L18.4176 3.17968ZM12.7752 7.8199L13.27 7.8922L13.27 7.89181L12.7752 7.8199ZM16.0547 12.9796L16.5408 12.8626L16.4807 12.613L16.2428 12.5163L16.0547 12.9796ZM16.1365 13.3197L16.2899 13.7956L16.7311 13.6534L16.6226 13.2027L16.1365 13.3197ZM12.2554 16.5754L11.8188 16.3318L11.8187 16.332L12.2554 16.5754ZM11.4933 19.5308L11.8972 19.2362L11.8971 19.236L11.4933 19.5308ZM12.9202 21.2078L13.4199 21.1893L13.4154 21.0688L13.3565 20.9636L12.9202 21.2078ZM14.694 23.519L15.1934 23.4944L15.1783 23.1895L14.9004 23.0635L14.694 23.519ZM12.4713 32.3018L12.0363 32.0553L12.0253 32.0746L12.0162 32.0948L12.4713 32.3018ZM12.1229 33.9437L11.6239 33.9126L11.6239 33.913L12.1229 33.9437ZM12.3669 35.0637L12.8422 34.9086L12.8405 34.9034L12.3669 35.0637ZM13.4603 36.2595L13.3072 36.7355L13.3089 36.736L13.4603 36.2595ZM15.2286 36.5473L15.2455 37.047L15.2512 37.0468L15.2286 36.5473ZM16.4225 36.0036L15.9414 35.8675L15.9412 35.8681L16.4225 36.0036ZM16.3002 33.8025L15.8004 33.8173L15.8004 33.819L16.3002 33.8025ZM18.7215 27.1694L18.2878 26.9206L18.2867 26.9225L18.7215 27.1694ZM19.2187 26.5617L19.7187 26.5552L19.7037 25.415L18.8752 26.1985L19.2187 26.5617ZM19.2086 32.34L18.7125 32.2776L18.7124 32.2782L19.2086 32.34ZM19.1431 34.6644L19.5785 34.4184L19.5779 34.4174L19.1431 34.6644ZM24.1371 36.1815L24.2063 35.6863L24.1871 35.6836L24.1678 35.6824L24.1371 36.1815ZM25.4549 35.2946L25.9548 35.2845L25.9548 35.2841L25.4549 35.2946ZM22.8793 32.2846L22.4093 32.4553L22.4135 32.4668L22.4182 32.478L22.8793 32.2846ZM22.9759 29.3136L22.4823 29.2339L22.4818 29.2367L22.9759 29.3136ZM23.5775 21.9551L23.0787 21.9206L23.0787 21.9211L23.5775 21.9551ZM23.5775 19.906L23.9965 19.633L23.0167 18.1294L23.0778 19.923L23.5775 19.906ZM25.2819 21.725L24.8622 21.9966L24.8642 21.9997L25.2819 21.725ZM26.3621 22.9683L25.9897 23.3019L25.9903 23.3026L26.3621 22.9683ZM27.602 23.9737L27.305 24.3759L27.3059 24.3766L27.602 23.9737ZM28.3244 23.3934L28.6444 23.0091L27.921 23.6888L28.3244 23.3934ZM29.0726 22.9199L29.1409 22.4246L27.5684 22.2078L28.7327 23.2867L29.0726 22.9199ZM29.3212 22.2866L29.0116 22.6792L29.0159 22.6826L29.3212 22.2866ZM28.2496 21.1579L28.0625 20.6942L27.7711 20.8118L27.7507 21.1254L28.2496 21.1579ZM14.7271 19.3625C14.7434 19.3581 14.7554 19.3559 14.7601 19.3551C14.7656 19.3542 14.7688 19.3538 14.7689 19.3538C14.7689 19.3538 14.7645 19.3543 14.7547 19.3549C14.7354 19.3561 14.7085 19.3569 14.6791 19.3569C14.6495 19.3569 14.6235 19.3561 14.606 19.3549C14.5971 19.3544 14.5945 19.354 14.5969 19.3543C14.5982 19.3545 14.6035 19.3551 14.6115 19.3567C14.6181 19.3579 14.6355 19.3614 14.6583 19.3686L14.3555 20.3217C14.4352 20.347 14.5202 20.3515 14.5426 20.3529C14.5865 20.3557 14.6343 20.3569 14.6791 20.3569C14.7239 20.3569 14.7719 20.3557 14.8161 20.353C14.8455 20.3512 14.9187 20.3466 14.9882 20.3278L14.7271 19.3625ZM14.6608 19.3694C14.7107 19.3856 14.7466 19.4064 14.7659 19.4187C14.7865 19.432 14.8012 19.4439 14.8093 19.4508C14.8249 19.4641 14.8324 19.473 14.8306 19.471C14.8277 19.4676 14.8164 19.4539 14.7969 19.4263C14.7592 19.3731 14.7154 19.3037 14.6805 19.2457L13.8237 19.7614C13.8644 19.8289 13.9226 19.9221 13.9808 20.0043C14.0092 20.0444 14.0443 20.0915 14.0821 20.1341C14.1007 20.1551 14.1272 20.1832 14.1597 20.2111C14.1834 20.2313 14.2515 20.2881 14.3531 20.3209L14.6608 19.3694ZM14.6808 19.2463C14.5638 19.0512 14.4452 18.8475 14.354 18.6818C14.3082 18.5985 14.2714 18.5288 14.2458 18.4766C14.2113 18.4061 14.2184 18.4096 14.2274 18.4487L13.2527 18.6723C13.2738 18.764 13.3212 18.8622 13.3478 18.9165C13.3833 18.9891 13.4286 19.0743 13.478 19.164C13.5773 19.3444 13.7027 19.5596 13.8233 19.7607L14.6808 19.2463ZM14.2289 18.4557C14.2474 18.5417 14.2329 18.6065 14.2262 18.6305C14.219 18.6565 14.2117 18.6682 14.2147 18.6627C14.2212 18.6508 14.241 18.6211 14.2806 18.5738C14.3597 18.4793 14.4537 18.3884 14.5269 18.3142L13.8151 17.6118C13.7644 17.6632 13.627 17.7966 13.5136 17.9322C13.4569 17.9999 13.3902 18.0867 13.3383 18.1812C13.3007 18.2495 13.2026 18.4387 13.2512 18.6654L14.2289 18.4557ZM14.5247 18.3164C14.5548 18.2863 14.6431 18.2167 14.7811 18.1139C14.8983 18.0266 15.048 17.9177 15.1431 17.8398L14.5098 17.066C14.4381 17.1246 14.3216 17.2092 14.1837 17.312C14.0664 17.3993 13.9104 17.5165 13.8173 17.6096L14.5247 18.3164ZM14.8264 17.4529C15.0502 17.9 15.0496 17.9003 15.0491 17.9006C15.0489 17.9007 15.0483 17.901 15.048 17.9012C15.0472 17.9015 15.0464 17.9019 15.0457 17.9023C15.0442 17.903 15.0426 17.9038 15.0411 17.9045C15.038 17.906 15.0348 17.9074 15.0315 17.9089C15.025 17.9118 15.0182 17.9147 15.0111 17.9175C14.9969 17.9232 14.9812 17.9286 14.9641 17.9334C14.9301 17.9429 14.889 17.9503 14.8423 17.9509C14.7409 17.9521 14.6409 17.9202 14.5599 17.8591C14.4863 17.8035 14.4521 17.7421 14.4393 17.7149C14.4264 17.6873 14.4261 17.6753 14.4294 17.6929L15.4121 17.5077C15.3899 17.3901 15.3371 17.1927 15.1622 17.0608C15.0617 16.985 14.9445 16.9496 14.8306 16.951C14.7777 16.9516 14.7316 16.96 14.6941 16.9705C14.6753 16.9758 14.6583 16.9817 14.6432 16.9877C14.6356 16.9907 14.6285 16.9937 14.6217 16.9967C14.6184 16.9982 14.6151 16.9998 14.6119 17.0013C14.6103 17.002 14.6088 17.0028 14.6072 17.0035C14.6065 17.0039 14.6057 17.0043 14.6049 17.0046C14.6046 17.0048 14.604 17.0051 14.6038 17.0052C14.6032 17.0055 14.6027 17.0058 14.8264 17.4529ZM14.4291 17.6916C14.4231 17.6593 14.4231 17.637 14.4246 17.6645C14.4253 17.6778 14.4262 17.6983 14.4272 17.7267C14.4292 17.7829 14.4312 17.8609 14.4333 17.9552C14.4374 18.1435 14.4416 18.3899 14.4458 18.6437C14.454 19.1403 14.4625 19.6884 14.4715 19.8392L15.4697 19.7794C15.4624 19.6572 15.4542 19.1449 15.4456 18.6272C15.4414 18.374 15.4372 18.1248 15.433 17.9333C15.4309 17.8378 15.4288 17.7547 15.4266 17.692C15.4255 17.6609 15.4244 17.6324 15.423 17.6088C15.4225 17.5995 15.4204 17.5524 15.4123 17.509L14.4291 17.6916ZM14.4706 19.8093C14.4706 19.6328 14.5618 19.5192 14.5849 19.4912C14.6188 19.45 14.6518 19.4237 14.6661 19.4127C14.6969 19.3891 14.7235 19.3746 14.7312 19.3704C14.7513 19.3594 14.7677 19.3524 14.7713 19.3508C14.7824 19.346 14.7909 19.3428 14.7922 19.3424C14.7969 19.3406 14.7996 19.3397 14.798 19.3402C14.7959 19.3409 14.7905 19.3428 14.7818 19.3456C14.7648 19.3511 14.7417 19.3582 14.7193 19.3647L14.996 20.3256C15.0304 20.3157 15.0639 20.3053 15.0891 20.2972C15.1016 20.2932 15.1137 20.2891 15.124 20.2856C15.1285 20.284 15.136 20.2814 15.144 20.2784C15.1469 20.2773 15.1567 20.2736 15.1686 20.2685C15.1727 20.2667 15.1894 20.2595 15.2097 20.2485C15.2175 20.2442 15.2442 20.2296 15.275 20.206C15.2894 20.1949 15.3224 20.1686 15.3564 20.1274C15.3794 20.0994 15.4706 19.9858 15.4706 19.8093H14.4706ZM29.069 21.3082C29.2727 21.1676 29.4073 20.9709 29.4535 20.7436C29.4974 20.5276 29.4533 20.327 29.383 20.1728C29.3138 20.0209 29.2047 19.8809 29.0681 19.7823C28.9523 19.6987 28.6909 19.5626 28.3984 19.6941L28.8085 20.6062C28.713 20.6491 28.6255 20.6438 28.5723 20.6314C28.5219 20.6196 28.4925 20.6001 28.483 20.5933C28.4655 20.5806 28.4687 20.578 28.473 20.5873C28.4762 20.5944 28.4666 20.5789 28.4736 20.5444C28.4829 20.4984 28.5093 20.4794 28.5011 20.4851L29.069 21.3082ZM28.3973 19.6946C28.3518 19.7152 28.2515 19.7574 28.1449 19.7959C28.0921 19.8151 28.042 19.8316 27.9993 19.8439C27.9782 19.8499 27.9609 19.8543 27.9476 19.8573C27.9336 19.8603 27.9283 19.8609 27.9302 19.8607L28.0407 20.8546C28.1904 20.8379 28.3669 20.779 28.4848 20.7364C28.6168 20.6887 28.7412 20.6366 28.8095 20.6057L28.3973 19.6946ZM27.9332 19.8604C27.9606 19.8575 27.97 19.8622 27.9466 19.8574C27.9227 19.8525 27.8883 19.8429 27.8287 19.8242C27.7195 19.7899 27.5445 19.7302 27.3374 19.6882L27.1386 20.6682C27.2816 20.6972 27.3949 20.7361 27.5292 20.7783C27.6327 20.8108 27.832 20.8765 28.0377 20.8549L27.9332 19.8604ZM27.3383 19.6884C27.1243 19.6446 26.8882 19.6273 26.6976 19.6169C26.4828 19.6051 26.3499 19.6024 26.2631 19.592L26.1447 20.585C26.2737 20.6004 26.4826 20.6066 26.6432 20.6154C26.828 20.6255 27.0011 20.6401 27.1378 20.6681L27.3383 19.6884ZM26.2664 19.5924C26.3573 19.6039 26.41 19.64 26.3859 19.6265C26.3811 19.6238 26.3647 19.6138 26.3361 19.593C26.2801 19.5523 26.2008 19.4871 26.1084 19.4C25.9231 19.225 25.7089 18.9837 25.5408 18.7145L24.6926 19.2442C24.9157 19.6014 25.1894 19.9076 25.422 20.1272C25.5386 20.2372 25.6507 20.331 25.7479 20.4017C25.7959 20.4366 25.8465 20.4705 25.8965 20.4985C25.9273 20.5158 26.0226 20.5696 26.1414 20.5846L26.2664 19.5924ZM25.5402 18.7135C25.3332 18.3838 25.1627 17.9958 25.0285 17.6509C24.962 17.4798 24.9062 17.3242 24.8592 17.1934C24.8173 17.0766 24.7713 16.9474 24.7331 16.8668L23.8294 17.2949C23.8411 17.3195 23.8666 17.388 23.9181 17.5316C23.9647 17.661 24.0246 17.8284 24.0965 18.0133C24.2392 18.3803 24.4366 18.8363 24.6932 19.2452L25.5402 18.7135ZM24.7311 16.8626C24.6439 16.6828 24.4727 16.2862 24.2786 15.8548C24.097 15.4513 23.8858 14.9953 23.7407 14.7685L22.8984 15.3075C22.9949 15.4583 23.1734 15.8357 23.3667 16.2652C23.5474 16.6668 23.7363 17.1029 23.8314 17.2991L24.7311 16.8626ZM23.74 14.7675C23.5189 14.4238 22.8148 13.1363 21.35 12.6958L21.062 13.6534C22.1129 13.9695 22.6324 14.8941 22.8991 15.3086L23.74 14.7675ZM21.3804 12.706C21.3696 12.702 21.3719 12.6991 21.3815 12.7115C21.3849 12.7161 21.399 12.735 21.412 12.7722C21.4182 12.7898 21.4297 12.8271 21.4327 12.8787C21.4351 12.9174 21.438 13.0414 21.3518 13.1693L20.5225 12.6105C20.4307 12.7468 20.4312 12.8835 20.4345 12.9384C20.4386 13.0063 20.4543 13.0631 20.4683 13.1029C20.4969 13.1845 20.5403 13.2578 20.5876 13.3196C20.6848 13.4465 20.8329 13.5692 21.0317 13.6432L21.3804 12.706ZM21.3502 13.1717C21.3108 13.2295 21.2686 13.2646 21.2508 13.2786C21.2297 13.2954 21.212 13.3064 21.2032 13.3116C21.1935 13.3175 21.1861 13.3213 21.1827 13.3231C21.1808 13.3241 21.1793 13.3248 21.1784 13.3252C21.1775 13.3257 21.177 13.3259 21.177 13.326C21.1769 13.326 21.1779 13.3255 21.1804 13.3244C21.1828 13.3233 21.186 13.3219 21.1903 13.3201C21.1991 13.3163 21.2099 13.3118 21.2242 13.3057C21.2815 13.2816 21.3715 13.2439 21.4888 13.189C21.7242 13.0787 22.0621 12.9027 22.502 12.6176L21.9582 11.7784C21.558 12.0378 21.2603 12.1918 21.0647 12.2833C20.9666 12.3293 20.8922 12.3605 20.8363 12.384C20.8115 12.3945 20.7788 12.4081 20.7521 12.4207C20.7391 12.4268 20.7151 12.4383 20.6889 12.4541C20.6828 12.4577 20.5929 12.5074 20.5242 12.6081L21.3502 13.1717ZM22.5012 12.6182C23.3704 12.0573 24.9766 10.7415 24.9605 8.6234L23.9605 8.63101C23.9725 10.2023 22.77 11.2546 21.959 11.7779L22.5012 12.6182ZM24.9605 8.62324C24.9438 6.51859 24.0765 4.7078 22.3024 3.68346L21.8024 4.54947C23.211 5.36281 23.9461 6.80774 23.9605 8.63117L24.9605 8.62324ZM22.3026 3.68359C20.5961 2.69706 18.9885 2.66974 18.409 2.67976L18.4262 3.67961C18.93 3.6709 20.3244 3.69507 21.8022 4.54934L22.3026 3.68359ZM18.4107 2.67973C14.9267 2.72764 12.6642 5.10727 12.2804 7.74799L13.27 7.89181C13.5846 5.72774 15.4417 3.72065 18.4245 3.67964L18.4107 2.67973ZM12.2805 7.7476C11.9809 9.79801 12.8974 12.2371 15.8665 13.4429L16.2428 12.5163C13.7223 11.4928 13.0334 9.51092 13.27 7.8922L12.2805 7.7476ZM15.5685 13.0966L15.6504 13.4367L16.6226 13.2027L16.5408 12.8626L15.5685 13.0966ZM15.9831 12.8438C14.037 13.4709 12.6658 14.8138 11.8188 16.3318L12.6921 16.819C13.438 15.4822 14.6246 14.3322 16.2899 13.7956L15.9831 12.8438ZM11.8187 16.332C11.6191 16.69 11.4459 16.9759 11.2779 17.2699C11.1184 17.549 10.9715 17.8224 10.8714 18.0888C10.7697 18.3597 10.7067 18.6479 10.7369 18.9544C10.7675 19.2655 10.8896 19.552 11.0894 19.8257L11.8971 19.236C11.7816 19.0779 11.742 18.9575 11.7321 18.8566C11.7217 18.751 11.7394 18.622 11.8076 18.4403C11.8775 18.2543 11.9896 18.04 12.1461 17.766C12.2941 17.507 12.4939 17.1745 12.6922 16.8189L11.8187 16.332ZM11.0893 19.8254C11.4227 20.2826 11.7546 20.6453 12.0157 20.9235C12.1495 21.0661 12.2554 21.1768 12.3421 21.2741C12.4325 21.3756 12.471 21.4289 12.4839 21.452L13.3565 20.9636C13.2861 20.8377 13.1832 20.7149 13.0888 20.6089C12.9907 20.4988 12.8683 20.3707 12.7449 20.2392C12.4917 19.9693 12.1935 19.6425 11.8972 19.2362L11.0893 19.8254ZM12.4205 21.2263C12.4426 21.8232 12.7066 22.3932 13.0739 22.86C13.4432 23.3294 13.9412 23.7268 14.4876 23.9744L14.9004 23.0635C14.5053 22.8845 14.1336 22.5896 13.8599 22.2417C13.5842 21.8913 13.4321 21.5191 13.4199 21.1893L12.4205 21.2263ZM14.1946 23.5436C14.1933 23.5187 14.1956 23.5231 14.1879 23.5961C14.1818 23.6538 14.1718 23.7338 14.1578 23.8352C14.13 24.0374 14.0875 24.3141 14.0318 24.6463C13.9206 25.3104 13.7579 26.1887 13.557 27.1231C13.3559 28.0584 13.1177 29.0445 12.8558 29.9263C12.5914 30.8165 12.312 31.5687 12.0363 32.0553L12.9063 32.5482C13.2401 31.9592 13.5452 31.1173 13.8144 30.211C14.0861 29.2962 14.3304 28.2834 14.5347 27.3334C14.7391 26.3826 14.9046 25.4892 15.0181 24.8115C15.0748 24.4728 15.1189 24.1861 15.1485 23.9718C15.1632 23.8649 15.1747 23.7735 15.1823 23.7013C15.1883 23.6445 15.1966 23.5608 15.1934 23.4944L14.1946 23.5436ZM12.0162 32.0948C11.6394 32.9234 11.6391 33.6682 11.6239 33.9126L12.622 33.9747C12.6395 33.6934 12.6393 33.1403 12.9265 32.5087L12.0162 32.0948ZM11.6239 33.913C11.6104 34.1327 11.6719 34.4244 11.7233 34.6344C11.7801 34.8669 11.8493 35.0942 11.8933 35.2241L12.8405 34.9034C12.805 34.7985 12.744 34.5991 12.6947 34.397C12.6701 34.2962 12.6497 34.2006 12.6367 34.1191C12.6302 34.0786 12.626 34.0447 12.6238 34.0177C12.6227 34.0044 12.6222 33.9939 12.622 33.9861C12.6219 33.9822 12.6219 33.9793 12.6219 33.9772C12.622 33.9751 12.622 33.9742 12.622 33.9743L11.6239 33.913ZM11.8915 35.2189C11.9671 35.4502 12.2525 36.3964 13.3072 36.7355L13.6133 35.7835C13.0767 35.6109 12.9179 35.1406 12.8422 34.9086L11.8915 35.2189ZM13.3089 36.736C14.1608 37.0066 14.9146 37.0582 15.2455 37.047L15.2116 36.0476C14.9908 36.0551 14.3512 36.0178 13.6116 35.7829L13.3089 36.736ZM15.2512 37.0468C15.3299 37.0432 15.6804 37.0531 15.9887 36.9757C16.3226 36.892 16.7531 36.6742 16.9038 36.1392L15.9412 35.8681C15.9267 35.9196 15.8982 35.9674 15.7454 36.0058C15.567 36.0505 15.4032 36.0389 15.206 36.0478L15.2512 37.0468ZM16.9036 36.1398C17.0173 35.738 16.9769 35.2832 16.929 34.9034C16.8761 34.4839 16.8113 34.1325 16.7999 33.786L15.8004 33.819C15.8139 34.2267 15.8933 34.6826 15.9369 35.0285C15.9854 35.4141 15.9937 35.6828 15.9414 35.8675L16.9036 36.1398ZM16.7999 33.7877C16.7911 33.491 16.8968 32.98 17.1023 32.3201C17.302 31.6786 17.5773 30.9532 17.8648 30.2548C18.4428 28.8504 19.0503 27.603 19.1563 27.4162L18.2867 26.9225C18.1496 27.164 17.5234 28.457 16.9401 29.8741C16.6469 30.5864 16.3595 31.342 16.1475 32.0228C15.9413 32.6852 15.7862 33.3378 15.8004 33.8173L16.7999 33.7877ZM19.1553 27.4181C19.2153 27.3134 19.3123 27.1921 19.4066 27.0871C19.4516 27.0371 19.4919 26.9952 19.5207 26.9662C19.5349 26.9517 19.5462 26.9407 19.5535 26.9336C19.5571 26.93 19.5597 26.9275 19.5612 26.9261C19.562 26.9253 19.5625 26.9249 19.5626 26.9247C19.5627 26.9246 19.5628 26.9246 19.5627 26.9246C19.5627 26.9247 19.5626 26.9247 19.5625 26.9248C19.5625 26.9248 19.5625 26.9249 19.5624 26.9249C19.5624 26.9249 19.5624 26.9249 19.5624 26.925C19.5623 26.925 19.5623 26.925 19.2187 26.5617C18.8752 26.1985 18.8752 26.1985 18.8751 26.1985C18.8751 26.1985 18.8751 26.1986 18.875 26.1986C18.875 26.1987 18.8749 26.1987 18.8748 26.1988C18.8747 26.199 18.8745 26.1991 18.8743 26.1993C18.874 26.1996 18.8735 26.2001 18.873 26.2006C18.8719 26.2016 18.8705 26.2029 18.8689 26.2045C18.8655 26.2077 18.861 26.212 18.8554 26.2175C18.8443 26.2284 18.8288 26.2437 18.8099 26.2627C18.7723 26.3007 18.7206 26.3544 18.6628 26.4187C18.5516 26.5425 18.4 26.725 18.2878 26.9206L19.1553 27.4181ZM19.2187 26.5617C18.7188 26.5683 18.7188 26.5683 18.7188 26.5684C18.7188 26.5684 18.7188 26.5685 18.7188 26.5685C18.7188 26.5687 18.7188 26.5689 18.7188 26.5692C18.7188 26.5698 18.7188 26.5708 18.7188 26.572C18.7189 26.5744 18.7189 26.5781 18.719 26.583C18.7191 26.5927 18.7193 26.6072 18.7195 26.6261C18.72 26.6639 18.7207 26.7196 18.7215 26.7906C18.7232 26.9326 18.7256 27.1363 18.7281 27.3826C18.7333 27.8753 18.7393 28.5386 18.7429 29.221C18.7465 29.9037 18.7477 30.604 18.7431 31.1715C18.7384 31.757 18.7274 32.1591 18.7125 32.2776L19.7047 32.4023C19.7288 32.2108 19.7386 31.7356 19.7431 31.1796C19.7477 30.6055 19.7465 29.9 19.7429 29.2157C19.7393 28.531 19.7332 27.866 19.7281 27.3722C19.7255 27.1253 19.7232 26.9211 19.7215 26.7786C19.7206 26.7074 19.7199 26.6516 19.7194 26.6135C19.7192 26.5945 19.719 26.5799 19.7189 26.5701C19.7188 26.5652 19.7188 26.5615 19.7188 26.559C19.7187 26.5577 19.7187 26.5568 19.7187 26.5561C19.7187 26.5558 19.7187 26.5556 19.7187 26.5554C19.7187 26.5553 19.7187 26.5553 19.7187 26.5552C19.7187 26.5552 19.7187 26.5552 19.2187 26.5617ZM18.7124 32.2782C18.696 32.4103 18.6634 32.5697 18.6226 32.7729C18.5835 32.9673 18.539 33.1922 18.5096 33.4223C18.453 33.8636 18.4351 34.4305 18.7084 34.9114L19.5779 34.4174C19.474 34.2345 19.4502 33.9492 19.5014 33.5493C19.5259 33.3588 19.5636 33.1658 19.603 32.97C19.6406 32.783 19.6826 32.5798 19.7048 32.4017L18.7124 32.2782ZM18.7078 34.9104C18.8117 35.0942 18.9786 35.2315 19.1276 35.3319C19.2859 35.4386 19.475 35.5367 19.677 35.6268C20.0817 35.8071 20.5855 35.9753 21.109 36.1213C22.1525 36.4123 23.3432 36.6337 24.1064 36.6805L24.1678 35.6824C23.4963 35.6412 22.3781 35.437 21.3775 35.158C20.8789 35.019 20.4267 34.8661 20.084 34.7134C19.9123 34.6368 19.7797 34.5654 19.6863 34.5025C19.5836 34.4333 19.5687 34.4011 19.5785 34.4184L18.7078 34.9104ZM24.1371 36.1815C24.0679 36.6767 24.0681 36.6767 24.0683 36.6767C24.0684 36.6767 24.0686 36.6768 24.0687 36.6768C24.069 36.6768 24.0693 36.6769 24.0697 36.6769C24.0703 36.677 24.0711 36.6771 24.072 36.6772C24.0736 36.6775 24.0757 36.6777 24.078 36.678C24.0827 36.6786 24.0887 36.6793 24.096 36.6802C24.1104 36.6818 24.1298 36.6838 24.1535 36.6857C24.2006 36.6896 24.2657 36.6935 24.343 36.6939C24.4941 36.6949 24.7083 36.6831 24.9315 36.6244C25.1529 36.566 25.4174 36.4523 25.6266 36.2244C25.8462 35.9852 25.9626 35.666 25.9548 35.2845L24.955 35.3048C24.9582 35.4602 24.9153 35.5205 24.8899 35.5482C24.854 35.5873 24.7876 35.6281 24.6769 35.6573C24.5679 35.686 24.4486 35.6946 24.3491 35.694C24.3012 35.6937 24.2618 35.6913 24.2358 35.6891C24.2228 35.6881 24.2135 35.6871 24.2083 35.6865C24.2057 35.6862 24.2042 35.686 24.2039 35.686C24.2037 35.6859 24.2038 35.686 24.2042 35.686C24.2044 35.686 24.2047 35.6861 24.205 35.6861C24.2052 35.6861 24.2054 35.6862 24.2056 35.6862C24.2057 35.6862 24.2059 35.6862 24.2059 35.6862C24.2061 35.6863 24.2063 35.6863 24.1371 36.1815ZM25.9548 35.2841C25.9457 34.8508 25.7257 34.4817 25.4868 34.1908C25.2442 33.8954 24.9296 33.6183 24.6337 33.3693C24.3241 33.1088 24.0389 32.8817 23.7937 32.6507C23.5446 32.4159 23.3998 32.2329 23.3403 32.0912L22.4182 32.478C22.5629 32.823 22.8394 33.1254 23.1079 33.3784C23.3804 33.6352 23.7094 33.8984 23.9898 34.1344C24.284 34.382 24.5353 34.6078 24.714 34.8254C24.8963 35.0474 24.9529 35.2014 24.9551 35.3051L25.9548 35.2841ZM23.3492 32.1139C23.3097 32.0052 23.2801 31.8205 23.2714 31.5625C23.2631 31.3132 23.2751 31.0304 23.2982 30.7454C23.3445 30.1754 23.4321 29.6335 23.4699 29.3905L22.4818 29.2367C22.4449 29.4742 22.3513 30.0519 22.3015 30.6644C22.2766 30.9707 22.2619 31.2948 22.272 31.5961C22.2818 31.8887 22.3159 32.1982 22.4093 32.4553L23.3492 32.1139ZM23.4695 29.3932C23.7596 27.5955 24.0322 22.6378 24.0764 21.989L23.0787 21.9211C23.0309 22.6233 22.7626 27.4967 22.4823 29.2339L23.4695 29.3932ZM24.0763 21.9896C24.1013 21.6283 24.1009 21.0971 24.095 20.6701C24.0921 20.4536 24.0876 20.2587 24.0839 20.118C24.0821 20.0475 24.0804 19.9905 24.0792 19.951C24.0786 19.9313 24.0781 19.9159 24.0778 19.9054C24.0776 19.9001 24.0775 19.8961 24.0774 19.8933C24.0773 19.892 24.0773 19.8909 24.0773 19.8902C24.0773 19.8898 24.0773 19.8895 24.0773 19.8893C24.0773 19.8892 24.0773 19.8892 24.0772 19.8891C24.0772 19.8891 24.0772 19.889 24.0772 19.889C24.0772 19.889 24.0772 19.889 23.5775 19.906C23.0778 19.923 23.0778 19.923 23.0778 19.923C23.0778 19.923 23.0778 19.923 23.0778 19.923C23.0778 19.9231 23.0778 19.9231 23.0778 19.9232C23.0778 19.9233 23.0778 19.9235 23.0779 19.9238C23.0779 19.9244 23.0779 19.9253 23.0779 19.9266C23.078 19.9291 23.0782 19.9328 23.0783 19.9378C23.0786 19.9477 23.0791 19.9625 23.0797 19.9816C23.0809 20.0198 23.0825 20.0753 23.0843 20.1442C23.0879 20.2819 23.0922 20.4725 23.0951 20.6838C23.101 21.1122 23.1005 21.6055 23.0787 21.9206L24.0763 21.9896ZM23.1586 20.179C23.5468 20.7747 23.9471 21.1699 24.2749 21.4599C24.3557 21.5314 24.4321 21.5965 24.5004 21.6546C24.5701 21.7139 24.629 21.7641 24.6819 21.8111C24.7933 21.9101 24.8413 21.9643 24.8622 21.9966L25.7017 21.4533C25.6022 21.2996 25.4659 21.17 25.3463 21.0636C25.2836 21.008 25.2155 20.9501 25.1485 20.8931C25.0801 20.8349 25.0104 20.7754 24.9376 20.711C24.6512 20.4576 24.3198 20.1293 23.9965 19.633L23.1586 20.179ZM24.8642 21.9997C25.0112 22.2232 25.2771 22.5277 25.4977 22.7711C25.6125 22.8977 25.7229 23.0162 25.8114 23.1107C25.9038 23.2095 25.9641 23.2734 25.9897 23.3019L26.7345 22.6347C26.6993 22.5953 26.6248 22.5164 26.5415 22.4274C26.4543 22.3342 26.3481 22.2202 26.2386 22.0994C26.0107 21.8481 25.7974 21.5988 25.6997 21.4502L24.8642 21.9997ZM25.9903 23.3026C26.0339 23.3511 26.1227 23.4274 26.1927 23.4872C26.2789 23.5608 26.3912 23.6544 26.5152 23.7559C26.762 23.9579 27.0635 24.1976 27.305 24.3759L27.899 23.5715C27.6768 23.4074 27.3899 23.1795 27.1485 22.982C27.0283 22.8836 26.9215 22.7945 26.8418 22.7265C26.7459 22.6446 26.7218 22.6206 26.7339 22.634L25.9903 23.3026ZM27.3059 24.3766C27.7118 24.6749 28.2168 24.6023 28.5346 24.3716C28.7004 24.2512 28.8496 24.0648 28.8999 23.8201C28.9525 23.5642 28.8834 23.3104 28.7278 23.098L27.921 23.6888C27.9293 23.7001 27.9249 23.6979 27.9209 23.6817C27.9167 23.6646 27.9155 23.6422 27.9204 23.6186C27.9299 23.5721 27.9533 23.5578 27.9471 23.5624C27.9411 23.5667 27.9271 23.5727 27.9122 23.5733C27.9011 23.5738 27.8987 23.5712 27.898 23.5708L27.3059 24.3766ZM28.0045 23.7776C28.4593 24.1563 28.9839 24.0163 29.2803 23.774C29.4254 23.6554 29.5557 23.4852 29.6115 23.28C29.6713 23.0605 29.6457 22.7693 29.4124 22.5532L28.7327 23.2867C28.6913 23.2482 28.6597 23.1947 28.6464 23.1354C28.6339 23.0804 28.6409 23.0383 28.6466 23.0174C28.6563 22.9817 28.6666 22.9841 28.6474 22.9997C28.6318 23.0125 28.623 23.0117 28.6302 23.0112C28.6481 23.0099 28.6567 23.0194 28.6444 23.0091L28.0045 23.7776ZM29.0043 23.4152C29.2346 23.447 29.448 23.3794 29.6095 23.2417C29.7583 23.1149 29.8388 22.9508 29.8785 22.8095C29.9186 22.6665 29.9277 22.5104 29.9009 22.3625C29.8756 22.2232 29.8055 22.0286 29.6265 21.8906L29.0159 22.6826C28.9705 22.6475 28.9458 22.61 28.9336 22.5865C28.9215 22.5631 28.918 22.5467 28.917 22.5413C28.9159 22.5352 28.9163 22.5336 28.9162 22.5357C28.9161 22.5364 28.916 22.5373 28.9159 22.5381C28.9158 22.5389 28.9157 22.5393 28.9157 22.5391C28.9158 22.539 28.9161 22.5378 28.917 22.5356C28.9179 22.5334 28.9196 22.5298 28.9224 22.525C28.9278 22.5157 28.9395 22.4989 28.9608 22.4807C28.983 22.4617 29.0133 22.4436 29.0503 22.4327C29.0875 22.4218 29.1196 22.4217 29.1409 22.4246L29.0043 23.4152ZM29.6308 21.8939C29.5691 21.8453 29.3201 21.6119 29.0721 21.3592C28.952 21.2367 28.8432 21.121 28.7674 21.0331C28.7284 20.9879 28.7058 20.9589 28.6958 20.9446C28.6902 20.9366 28.6959 20.9437 28.7051 20.9618C28.7097 20.971 28.7198 20.992 28.729 21.0218C28.7369 21.0471 28.7539 21.1088 28.7486 21.1904L27.7507 21.1254C27.7408 21.2775 27.8026 21.3932 27.812 21.4117C27.8336 21.4546 27.8581 21.4918 27.8768 21.5184C27.9152 21.5733 27.9631 21.6317 28.0102 21.6863C28.1065 21.7979 28.2323 21.931 28.3584 22.0596C28.6029 22.3088 28.8932 22.5858 29.0116 22.6792L29.6308 21.8939ZM28.4367 21.6216C28.5162 21.5895 28.8308 21.4719 29.0682 21.3087L28.5018 20.4845C28.4463 20.5227 28.3681 20.5638 28.2806 20.6034C28.1944 20.6424 28.1203 20.6709 28.0625 20.6942L28.4367 21.6216Z" fill="black" mask="url(#path-2-outside-1)"/>
<path fill-rule="evenodd" clip-rule="evenodd" d="M21.277 7.71538C20.9652 7.71538 20.7112 7.96966 20.7112 8.28244C20.7112 8.59522 20.9652 8.8495 21.277 8.8495C21.5895 8.8495 21.842 8.59522 21.842 8.28244C21.8412 7.96888 21.5887 7.71538 21.277 7.71538Z" fill="white"/>
<path fill-rule="evenodd" clip-rule="evenodd" d="M21.2769 8.84872C20.9652 8.84872 20.7112 8.59444 20.7112 8.28166C20.7112 7.9681 20.9652 7.7146 21.2769 7.7146C21.5895 7.7146 21.842 7.96732 21.842 8.28166C21.8412 8.59444 21.5887 8.84872 21.2769 8.84872ZM21.2769 7.63036C20.9169 7.63036 20.6246 7.9213 20.6246 8.28244C20.6246 8.64358 20.9169 8.93452 21.2769 8.93452C21.6354 8.93452 21.9277 8.64358 21.9277 8.28244C21.9277 7.9213 21.6354 7.63036 21.2769 7.63036Z" fill="#231F20"/>
<path fill-rule="evenodd" clip-rule="evenodd" d="M21.5263 8.10071L21.4858 8.13113L21.4375 8.08511L21.4734 8.04065C21.4149 7.98449 21.3346 7.94939 21.2497 7.94939C21.0673 7.94939 20.9216 8.09681 20.9216 8.28011C20.9216 8.46107 21.0673 8.60615 21.2497 8.60615C21.4289 8.60615 21.5754 8.46107 21.5754 8.28011C21.577 8.21381 21.5583 8.15453 21.5263 8.10071Z" fill="#00AE4D"/>
<path fill-rule="evenodd" clip-rule="evenodd" d="M21.4165 8.27932C21.4165 8.37682 21.3409 8.45482 21.2512 8.45482C21.1585 8.45482 21.0829 8.37682 21.0829 8.27932C21.0829 8.18338 21.1585 8.10382 21.2512 8.10382C21.3409 8.10382 21.4165 8.18338 21.4165 8.27932Z" fill="#231F20"/>
<path fill-rule="evenodd" clip-rule="evenodd" d="M18.9444 7.71227C18.6218 7.71227 18.3576 7.97747 18.3576 8.30038C18.3576 8.62174 18.6218 8.88695 18.9444 8.88695C19.2678 8.88695 19.5305 8.62174 19.5305 8.30038C19.5305 7.97747 19.2678 7.71227 18.9444 7.71227Z" fill="white"/>
<path fill-rule="evenodd" clip-rule="evenodd" d="M18.9444 8.88693C18.6218 8.88693 18.3576 8.62173 18.3576 8.30037C18.3576 7.97745 18.6218 7.71225 18.9444 7.71225C19.2678 7.71225 19.5305 7.97745 19.5305 8.30037C19.5305 8.62173 19.2678 8.88693 18.9444 8.88693ZM18.9444 7.62411C18.5711 7.62411 18.268 7.92909 18.268 8.30037C18.268 8.674 18.5711 8.97663 18.9444 8.97663C19.3162 8.97663 19.6185 8.67321 19.6185 8.30037C19.6185 7.92909 19.3162 7.62411 18.9444 7.62411Z" fill="#231F20"/>
<path fill-rule="evenodd" clip-rule="evenodd" d="M19.2086 8.14204L19.1665 8.1709L19.1166 8.12254L19.1556 8.07808C19.0956 8.02036 19.013 7.9837 18.9234 7.9837C18.7348 7.9837 18.5836 8.1358 18.5836 8.32378C18.5836 8.51254 18.7348 8.66386 18.9234 8.66386C19.1104 8.66386 19.2608 8.51332 19.2608 8.32378C19.26 8.25826 19.2413 8.19586 19.2086 8.14204Z" fill="#00AE4D"/>
<path fill-rule="evenodd" clip-rule="evenodd" d="M19.0956 8.32378C19.0956 8.4244 19.0185 8.5063 18.9226 8.5063C18.8267 8.5063 18.7473 8.4244 18.7473 8.32378C18.7473 8.22316 18.826 8.14282 18.9226 8.14282C19.0192 8.14282 19.0956 8.22316 19.0956 8.32378Z" fill="#231F20"/>
<path fill-rule="evenodd" clip-rule="evenodd" d="M19.3902 6.53836C19.1213 6.32386 18.635 6.45178 18.4885 6.52276C18.2913 6.62182 18.1308 6.76924 18.0131 6.8761L17.9671 6.919L17.9749 6.96502C18.0046 7.0048 18.095 6.9541 18.1331 6.93148C18.2056 6.88702 18.4729 6.7591 18.642 6.71698C18.8112 6.67096 19.0395 6.67876 19.1283 6.71386C19.1852 6.73648 19.4307 6.78718 19.4775 6.70294C19.5118 6.646 19.4448 6.58204 19.3902 6.53836Z" fill="#231F20"/>
<path fill-rule="evenodd" clip-rule="evenodd" d="M22.2457 6.90184C22.1194 6.72634 21.842 6.5134 21.6627 6.451C21.4507 6.3808 21.2886 6.38236 21.1203 6.46348C21.0299 6.50638 21.0159 6.5719 21.0307 6.61402C21.0486 6.6616 21.0993 6.68578 21.1515 6.6733C21.2325 6.65224 21.3946 6.62026 21.57 6.63196C21.7851 6.646 21.9861 6.80434 22.082 6.87844L22.1303 6.91666C22.1958 6.96424 22.2238 6.98218 22.2472 6.95644L22.2675 6.93694L22.2457 6.90184Z" fill="#231F20"/>
<path fill-rule="evenodd" clip-rule="evenodd" d="M17.2946 9.81358C17.8238 10.2449 18.7348 10.6973 19.5601 10.7355C20.3862 10.7753 21.7157 10.3682 22.2885 10.0374C21.7937 10.3791 21.2076 11.716 19.8087 11.7846C18.3241 11.8595 17.611 10.4547 17.2946 9.81358Z" fill="#231F20"/>
<path fill-rule="evenodd" clip-rule="evenodd" d="M19.2881 15.0326C19.6786 14.9928 20.6862 15.1012 20.814 15.9101C20.906 16.5044 20.4306 16.8944 19.8539 16.9685C19.278 17.0434 18.4207 16.871 18.3108 16.1066C18.2009 15.3453 18.9499 15.0677 19.2881 15.0326Z" fill="white"/>
<path fill-rule="evenodd" clip-rule="evenodd" d="M19.0146 15.758L19.02 15.7502L19.0146 15.758ZM20.1734 16.2455L20.4859 16.3812L20.4571 16.4178L20.4064 16.474C20.2654 16.637 19.9841 16.7283 19.7315 16.7376L19.698 16.7408C19.6396 16.7408 19.5811 16.7361 19.5227 16.7283C19.4003 16.7119 19.2788 16.6768 19.1673 16.6245C18.8977 16.4982 18.6818 16.2743 18.6452 15.9803C18.6272 15.8328 18.6498 15.6511 18.7808 15.5068L18.7738 15.5146L18.8283 15.4491C18.8657 15.414 18.9117 15.3742 18.9647 15.3422C19.0754 15.2767 19.2133 15.2322 19.4198 15.2205L19.4432 15.219C19.6474 15.2143 19.8516 15.2416 20.0168 15.3165L20.0238 15.3212L19.8765 15.5497L19.8212 15.6137C19.7253 15.5817 19.578 15.5606 19.4315 15.5676H19.4175C19.2749 15.577 19.1525 15.609 19.0621 15.7049L19.0457 15.7291L19.0411 15.7416L19.0309 15.7595L19.0263 15.7736L19.0185 15.7915L19.0177 15.7993L19.0068 15.8586V15.9062L19.0076 15.9303L19.0146 15.9701L19.0309 16.0216L19.0504 16.0629L19.059 16.0754L19.073 16.0996L19.1135 16.1558L19.1229 16.1651L19.1681 16.2096L19.179 16.2205L19.2382 16.2681L19.2507 16.2759L19.3115 16.3141L19.3216 16.3188L19.3575 16.3367L19.3925 16.3531L19.4089 16.3593L19.4798 16.382L19.4884 16.3851L19.5671 16.4015L19.585 16.403L19.6669 16.4108L19.7152 16.4093C19.8968 16.4007 20.0651 16.3367 20.1734 16.2455Z" fill="#ED1C24"/>
<path fill-rule="evenodd" clip-rule="evenodd" d="M16.3734 23.1937C16.3664 23.4043 16.3773 23.6399 16.0149 23.8013C15.718 23.9355 15.3104 23.8809 14.9083 23.6609C14.8218 23.6149 14.6199 23.4932 14.4874 23.4004C15.2613 23.6414 15.5372 23.5829 15.7055 23.4948C15.9534 23.3669 16.0243 23.2514 16.1069 23.0572C15.9121 22.9808 15.6564 22.8482 15.4055 22.6196C15.379 22.597 15.3689 22.5783 15.4382 22.6134C15.8731 22.831 16.0508 22.8388 16.3072 22.9472C16.5799 22.9074 17.0733 22.7631 16.9509 22.1766C16.6376 22.3014 16.2682 22.193 15.9573 21.9098C15.9128 21.8654 15.9417 21.8474 15.9962 21.8888C16.2433 22.1321 16.7304 22.1462 17.0436 21.9925C17.279 21.8326 17.2907 21.2234 16.9743 21.0191C16.8527 20.9379 16.7054 20.8451 16.6064 20.7796C16.2854 20.6501 15.9502 20.4692 15.8045 20.3436C15.9152 20.4286 16.3033 20.569 16.5106 20.6439C16.4568 20.4965 16.2503 20.2024 15.8637 20.0433C16.481 20.1501 16.647 20.6041 16.622 20.6922L16.6516 20.7211C16.7639 20.7851 17.0842 20.9161 17.3842 21.1922C17.6905 21.4754 17.8027 22.0877 17.4185 22.3833C17.6102 23.0564 16.8574 23.4589 16.3734 23.1937Z" fill="#231F20"/>
<path fill-rule="evenodd" clip-rule="evenodd" d="M19.2219 26.5313C19.9731 26.2466 20.3675 26.3254 20.507 26.3894C20.9052 26.568 20.8623 27.1101 20.74 28.3269C20.4703 31.0171 19.119 32.9156 18.9982 34.2471C18.914 33.8477 19.0379 33.2144 19.0925 32.8306C19.1626 32.3431 19.2109 31.4718 19.225 30.9937C19.2382 30.5171 19.2086 26.8527 19.1977 26.6975C19.1969 26.646 19.2148 26.5937 19.2219 26.5313Z" fill="#231F20"/>
<path fill-rule="evenodd" clip-rule="evenodd" d="M13.5655 36.1136C12.875 35.7462 12.8259 35.2923 12.7487 35.0606C12.6708 34.8274 12.4892 34.2073 12.5056 33.9421C12.522 33.6769 12.522 33.0264 12.854 32.2986C13.9583 30.1053 15.0517 23.6913 15.0517 23.6913L14.6838 23.5143C14.6924 23.5353 13.8889 29.5913 12.4105 32.2986C12.0785 33.0272 12.0497 33.6777 12.0622 33.9421C12.0754 34.2284 12.2079 34.8469 12.285 35.0801C12.3622 35.3133 12.7028 36.0395 13.4977 36.2961C14.2934 36.5504 14.8327 36.5723 15.1093 36.5598C15.1569 36.5598 16.1123 36.6479 16.3672 36.1409C15.8598 36.7049 14.0939 36.396 13.5655 36.1136Z" fill="#231F20"/>
<path fill-rule="evenodd" clip-rule="evenodd" d="M16.3625 13.0202L16.3524 13.0124C13.3629 12.06 12.9919 8.79412 13.6434 7.08436C14.4804 4.891 17.9305 1.90594 22.2893 4.2553C20.7688 3.17344 19.0917 3.11884 18.5883 3.11572C15.6331 3.09778 13.2686 5.09926 12.8072 7.53676C12.4401 9.47896 13.2304 11.9406 16.0617 12.9858H16.0632L16.0952 13.1855C14.1952 13.9718 12.9919 15.2494 12.1876 16.584C11.3896 17.9076 11.2018 18.3983 11.2361 18.906C11.2844 18.1658 12.1892 16.7259 12.5469 16.3211C13.4353 15.3048 14.7844 14.2572 16.1209 13.7066C16.8956 13.3306 18.2415 13.7596 20.2412 13.2191C18.6865 13.5077 17.3452 13.3384 16.3625 13.0202Z" fill="#231F20"/>
<path fill-rule="evenodd" clip-rule="evenodd" d="M13.2795 18.3702C13.334 18.2836 14.5888 16.6838 14.9636 16.5785C15.2122 16.9989 15.1771 18.2298 15.1834 18.6416C15.1904 19.1915 15.1008 19.8631 15.4297 19.9216C15.2668 19.8865 14.9589 19.8701 14.8163 19.8592L14.9706 19.8147C14.9114 19.1705 15.0267 17.6237 14.8506 17.4506C14.6971 17.5496 13.6481 18.3234 13.7697 18.5979C13.8499 18.7789 14.0658 19.1556 14.2248 19.4466C14.383 19.6892 14.4617 19.814 14.5155 19.8561C13.8515 19.6759 13.2795 18.3702 13.2795 18.3702Z" fill="#231F20"/>
<path fill-rule="evenodd" clip-rule="evenodd" d="M27.4313 22.2569C27.3923 22.2203 27.3479 22.2312 27.3105 22.1992C27.5794 22.5143 28.2535 23.3481 28.3213 23.4074C28.3883 23.4683 28.7421 23.5946 28.9378 23.3864C28.5052 23.558 27.9753 22.7382 27.4313 22.2569Z" fill="#231F20"/>
<path fill-rule="evenodd" clip-rule="evenodd" d="M28.4164 23.5806C27.8241 24.3029 26.6941 22.6571 26.4844 22.299C26.2756 21.941 25.635 21.3209 25.9646 20.6189C25.9654 20.6189 25.423 21.2055 25.1019 20.9052C24.6959 20.4465 24.1628 19.8249 24.0436 19.484C23.8675 18.984 23.2619 16.5411 23.032 16.1885C23.3624 17.3983 23.5651 19.2828 23.5682 19.8756C23.8994 20.4317 24.466 21.023 25.1533 21.5939C25.3497 21.8318 26.2343 23.0627 27.6184 23.9823C27.6706 24.0158 27.7431 24.0306 27.7961 24.0642C27.9075 24.1172 28.3151 24.0353 28.3673 23.8247L28.3634 23.8263C28.4203 23.7241 28.4164 23.6157 28.4164 23.5806Z" fill="#231F20"/>
<path fill-rule="evenodd" clip-rule="evenodd" d="M25.4012 19.3764C25.5539 19.5839 26.0667 20.1806 26.0387 20.2999C26.1228 20.1384 26.2179 20.0971 26.3434 20.1127C26.0449 20.0753 25.755 19.7781 25.4012 19.3764Z" fill="#231F20"/>
<path fill-rule="evenodd" clip-rule="evenodd" d="M28.1725 21.9005C28.0719 21.8014 27.9878 21.7008 27.9145 21.6111C28.2161 21.2242 28.6221 21.6158 28.6486 21.6368C28.3798 21.3428 28.3011 21.1992 28.2816 21.154C28.4335 21.0791 28.9697 20.881 28.965 20.6376C28.5208 21.0838 27.1141 21.0869 26.9481 21.1111L27.2108 21.8638C27.2287 21.8154 27.3814 21.5042 27.782 21.5697C27.9979 21.8271 28.9939 22.9152 29.071 22.9269C29.071 22.9269 29.3282 22.9269 29.389 22.6984C29.1256 22.9269 28.6549 22.388 28.1725 21.9005Z" fill="#231F20"/>
<path fill-rule="evenodd" clip-rule="evenodd" d="M19.949 35.2057C20.7595 35.6019 23.7077 36.318 24.6756 36.1932C25.3225 36.1097 25.3957 35.6386 25.3957 35.6386C24.9819 36.5691 20.8678 35.5458 19.949 35.2057Z" fill="#231F20"/>
</svg>
