<?xml version="1.0" encoding="utf-8"?>
<!-- Generator: Adobe Illustrator 24.0.1, SVG Export Plug-In . SVG Version: 6.00 Build 0)  -->
<svg version="1.1" id="Слой_1" xmlns="http://www.w3.org/2000/svg" xmlns:xlink="http://www.w3.org/1999/xlink" x="0px" y="0px"
	 width="250px" height="76px" viewBox="0 0 250 76" style="enable-background:new 0 0 250 76;" xml:space="preserve">
<style type="text/css">
	.st0{fill:#1B4C69;}
</style>
<path class="st0" d="M51.7,17.2h-4.1L41.9,0.3h3.5l3.3,10.1c0.3,1.2,0.7,2.7,1,3.8c0.3-1.2,0.7-2.7,1-3.8L54,0.3h3.3
	C57.3,0.3,51.7,17.2,51.7,17.2z M66.8,17.5c-5.1,0-7.8-3.1-7.8-8.4c0-5.8,3.8-8.9,8.3-8.9c5.1,0,7.8,3.1,7.8,8.4
	C75,14.4,71.2,17.5,66.8,17.5z M67.1,3.1c-2.7,0-4.5,2-4.5,5.6s1.5,5.8,4.5,5.8c2.7,0,4.5-2,4.5-5.6S70.1,3.1,67.1,3.1z M79.2,17.2
	V0.5h3.3v14.1h6.1v2.7H79.2z M105,17.2h-4l-6-8.1v8.1h-3.3V0.5h3.3v7.6l5.6-7.6h3.8l-6.1,8L105,17.2z M117.6,12.2
	c0,3-2.3,5.1-6.5,5.1c-1.3,0-2.8-0.2-4-0.5v-3c1.2,0.5,2.7,0.8,4,0.8c1.7,0,2.8-0.7,2.8-2.2c0-3.3-7.3-2-7.3-7.5c0-3,2.3-5,6.3-5
	c1,0,2,0.2,3,0.3v2.8c-1-0.3-2.2-0.5-3.1-0.5c-1.8,0-2.8,0.8-2.8,2C110.2,7.7,117.6,6.7,117.6,12.2z M138,17.2h-4l-2.7-9.3
	c-0.2-0.8-0.5-2-0.5-3.1c-0.2,1-0.3,2.2-0.5,3.1l-2.7,9.3h-4l-4.1-16.9h3.5l2.3,9.3c0.3,1.5,0.5,3,0.7,4.1c0.2-1.3,0.5-2.7,0.8-4.1
	l2.5-9.3h3.3l2.7,9.3c0.3,1.3,0.7,2.7,0.8,4c0.2-1.3,0.3-2.7,0.7-4l2.2-9.4h3.1L138,17.2z M154.9,17.2l-1.2-3.6h-6.3l-1.2,3.6H143
	l5.6-16.9h4.1l5.6,16.9H154.9z M151.3,5.8c-0.3-0.8-0.5-1.7-0.7-2.5c-0.2,0.8-0.3,1.7-0.7,2.5l-1.8,5.3h4.8
	C152.9,11.1,151.3,5.8,151.3,5.8z M174.5,8.4v8.1c-1.7,0.7-3.8,1-5.8,1c-5.5,0-8.4-3.3-8.4-8.3c0-5.3,3.3-9.1,9.3-9.1
	c1.5,0,3,0.2,4.3,0.5v3.3c-1.3-0.5-3-0.8-4.5-0.8c-4,0-5.6,2.7-5.6,5.8c0,3.5,1.8,5.8,5.3,5.8c0.8,0,1.5-0.2,2.2-0.3V8.6L174.5,8.4z
	 M189.4,14.4v2.8h-10.3V0.5h10.1v2.7h-7v4.1h6.3v2.7h-6.3v4.6C182.2,14.5,189.4,14.4,189.4,14.4z M204.1,17.2l-5.3-8.6
	c-1-1.5-1.5-2.5-2-3.6c0.2,1.7,0.3,4.8,0.3,7.6v4.6H194V0.5h3.6l5,8c0.8,1.3,1.5,2.7,2,3.6c-0.2-1.8-0.3-4.8-0.3-7.6V0.3h3.1v16.9
	C207.4,17.2,204.1,17.2,204.1,17.2z M3.3,33.9v4.5h6.3V41H3.3v7H0V31.3h9.9v2.8L3.3,33.9z M14.1,48V31.3h3.3v16.9L14.1,48z M33,48
	l-5.3-8.6c-1-1.5-1.5-2.5-2-3.6c0.2,1.7,0.3,4.8,0.3,7.6V48h-3.1V31.3h3.6l5,8c0.8,1.3,1.5,2.7,2,3.6c-0.2-1.8-0.3-4.8-0.3-7.6v-4.1
	h3.1V48C36.3,48,33,48,33,48z M52,48l-1.2-3.6h-6.3L43.4,48h-3.3l5.6-16.9h4.1L55.5,48C55.5,48,52,48,52,48z M48.4,36.6
	c-0.3-0.8-0.5-1.7-0.7-2.5c-0.2,0.8-0.3,1.7-0.7,2.5l-1.7,5.3h4.8L48.4,36.6z M69.3,48l-5.3-8.6c-1-1.5-1.5-2.5-2-3.6
	c0.2,1.7,0.3,4.8,0.3,7.6V48h-3.1V31.3h3.6l5,8c0.8,1.3,1.5,2.7,2,3.6c-0.2-1.8-0.3-4.8-0.3-7.6v-4.1h3.1V48
	C72.6,48,69.3,48,69.3,48z M85,45.4c1.2,0,2.5-0.3,3.6-0.7v3c-1.3,0.3-2.7,0.5-4.3,0.5c-5.8,0-7.6-3.8-7.6-8.1
	c0-5.3,2.8-9.1,8.3-9.1c1.2,0,2.3,0.2,3.5,0.5v3.3c-1.2-0.5-2.5-0.8-3.6-0.8c-3.1,0-4.6,2.5-4.6,5.8C80.4,43.4,81.8,45.4,85,45.4z
	 M93.3,48V31.3h3.3v16.9L93.3,48z M112.2,48l-1.2-3.6h-6.3l-1.2,3.6h-3.3l5.6-16.9h4.1l5.6,16.9C115.6,48,112.2,48,112.2,48z
	 M108.5,36.6c-0.3-0.8-0.5-1.7-0.7-2.5c-0.2,0.8-0.3,1.7-0.7,2.5l-1.8,5.3h4.8L108.5,36.6z M119.1,48V31.3h3.3v14.1h6.1v2.8
	L119.1,48z M148.8,43c0,3-2.3,5.1-6.5,5.1c-1.3,0-2.8-0.2-4-0.5v-3.1c1.2,0.5,2.7,0.8,4,0.8c1.7,0,2.8-0.7,2.8-2.2
	c0-3.3-7.3-2-7.3-7.5c0-3,2.3-5,6.3-5c1,0,2,0.2,3,0.3v2.8c-1-0.3-2.2-0.5-3.1-0.5c-1.8,0-2.8,0.8-2.8,2
	C141.5,38.6,148.8,37.6,148.8,43z M163.7,45.2V48h-10.3V31.3h10.1v2.7h-7v4.1h6.3v2.7h-6.3v4.6C156.6,45.4,163.7,45.2,163.7,45.2z
	 M175.6,40.7c0,0,0.7,1,1.3,1.8l3.6,5.5h-4l-4.3-6.8h-0.8V48h-3.3V31.3c0,0,2.3-0.2,5-0.2c3.8,0,6.3,1.5,6.3,4.8
	C179.4,38.6,177.8,40.2,175.6,40.7z M173,33.8h-1.5v5h1.3c2,0,3.1-1,3.1-2.7C176.1,34.7,175.1,33.8,173,33.8z M191.8,48h-4.1
	l-5.6-16.9h3.6l3.3,10.1c0.3,1.2,0.7,2.7,1,3.8c0.3-1.2,0.7-2.7,1-3.8l3.3-10.1h3.3C197.6,31.1,191.8,48,191.8,48z M200.8,48V31.3
	h3.3v16.9L200.8,48z M216.5,45.4c1.2,0,2.5-0.3,3.6-0.7v3c-1.3,0.3-2.7,0.5-4.3,0.5c-5.8,0-7.6-3.8-7.6-8.1c0-5.3,2.8-9.1,8.3-9.1
	c1.2,0,2.3,0.2,3.5,0.5v3.3c-1.2-0.5-2.5-0.8-3.6-0.8c-3.1,0-4.6,2.5-4.6,5.8C211.9,43.4,213.4,45.4,216.5,45.4z M235.4,45.2V48
	h-10.3V31.3h10.1v2.7h-7v4.1h6.3v2.7h-6.3v4.6L235.4,45.2L235.4,45.2z M250,43c0,3-2.3,5.1-6.5,5.1c-1.3,0-2.8-0.2-4-0.5v-3.1
	c1.2,0.5,2.7,0.8,4,0.8c1.7,0,2.8-0.7,2.8-2.2c0-3.3-7.3-2-7.3-7.5c0-3,2.3-5,6.3-5c1,0,2,0.2,3,0.3v2.8c-1-0.3-2.2-0.5-3.1-0.5
	c-1.8,0-2.8,0.8-2.8,2C242.7,38.6,250,37.6,250,43L250,43z M30.2,67.1v8.6h-1.3v-8.6H26v-1.2h7v1.2H30.2z M43.9,75.8v-4.5h-5v4.5
	h-1.3v-9.8h1.3v4.1h5v-4.1h1.3v9.8H43.9z M57,74.7v1.2h-5.6v-9.8H57v1.2h-4.1v3h3.8v1h-3.8v3.3C52.8,74.5,57,74.7,57,74.7z
	 M76.4,75.8h-1.7L70.6,71v4.8h-1.3v-9.8h1.3v4.6l4-4.6h1.7l-4.1,4.6C72.1,70.7,76.4,75.8,76.4,75.8z M86.8,74.7v1.2h-5.6v-9.8h5.6
	v1.2h-4.1v3h3.8v1h-3.8v3.3C82.7,74.5,86.8,74.7,86.8,74.7z M95.6,72v3.8h-1.3V72l-3.1-6h1.5l1.7,3.1c0.3,0.7,0.5,1,0.7,1.7
	c0.2-0.5,0.5-1.2,0.8-1.7l1.7-3.1h1.5C98.9,66.1,95.6,72,95.6,72z M112.7,67.1v8.6h-1.3v-8.6h-2.8v-1.2h7v1.2H112.7z M123.3,76
	c-2.8,0-4.3-1.8-4.3-5c0-3.3,2.2-5.1,4.6-5.1c2.8,0,4.3,1.8,4.3,5C127.9,74.2,125.9,76,123.3,76z M123.4,67.1
	c-1.8,0-3.1,1.3-3.1,3.8c0,2.3,1,4,3.1,4c1.8,0,3.1-1.3,3.1-3.8C126.6,68.5,125.6,67.1,123.4,67.1z M149.6,75.8l-0.8-5.6
	c-0.2-1.2-0.2-2.2-0.3-2.8c-0.2,0.5-0.3,1.3-0.7,2.2l-2.3,6.5h-1.2l-2.2-6.1c-0.3-0.8-0.5-1.7-0.7-2.5c0,0.8-0.2,1.8-0.2,2.8
	l-0.7,5.6h-1.3l1.3-9.8h1.8l2.2,6.1c0.2,0.5,0.3,1.2,0.5,1.8c0.2-0.7,0.3-1.2,0.5-1.8l2.2-6.1h1.8l1.3,9.8
	C150.9,75.8,149.6,75.8,149.6,75.8z M160.2,76c-2.8,0-4.3-1.8-4.3-5c0-3.3,2.2-5.1,4.6-5.1c2.8,0,4.3,1.8,4.3,5
	C164.8,74.2,162.7,76,160.2,76z M160.2,67.1c-1.8,0-3.1,1.3-3.1,3.8c0,2.3,1,4,3.1,4c1.8,0,3.1-1.3,3.1-3.8S162.4,67.1,160.2,67.1z
	 M174.1,70.5c1.2,0.2,2,1,2,2.3c0,1.3-1,3-3.8,3h-2.5v-9.8h2.7c2.3,0,3.3,1,3.3,2.5C175.8,69.4,175.1,70.2,174.1,70.5z M171.1,74.7
	h1.3c1.7,0,2.3-0.8,2.3-1.8c0-1.2-0.7-1.7-2.7-1.7h-1C171.1,71.2,171.1,74.7,171.1,74.7z M172.3,67.1h-1.2v3.1h1
	c1.5,0,2.3-0.7,2.3-1.7C174.5,67.7,174,67.1,172.3,67.1z M181.7,75.8v-9.8h1.3v9.8H181.7z M189.2,75.8v-9.8h1.3v8.6h4v1.2
	C194.5,75.8,189.2,75.8,189.2,75.8z M199.3,75.8v-9.8h1.3v9.8H199.3z M209.7,67.1v8.6h-1.3v-8.6h-2.8v-1.2h7v1.2
	C212.6,67.1,209.7,67.1,209.7,67.1z M220.8,72v3.8h-1.3V72l-3.1-6h1.5l1.7,3.1c0.3,0.7,0.5,1,0.7,1.7c0.2-0.5,0.5-1.2,0.8-1.7
	l1.7-3.1h1.5L220.8,72L220.8,72z"/>
</svg>
