<svg id="creditter" xmlns="http://www.w3.org/2000/svg" width="500" height="500" viewBox="0 0 500 500">
  <defs>
    <style>
      .cls-1 {
        fill: #f6f8ff;
      }

      .cls-1, .cls-2, .cls-3 {
        fill-rule: evenodd;
      }

      .cls-2 {
        fill: #ff4c25;
      }

      .cls-3 {
        fill: #061e38;
      }
    </style>
  </defs>
  <path id="Фигура_18" data-name="Фигура 18" class="cls-1" d="M272.332,0c11.6,2.218,23.3,4.019,34.786,6.718C423.981,34.181,505.982,142.446,499.648,260.7c-6.624,123.66-98.153,222.633-219.623,237.539A74.3,74.3,0,0,0,272.332,500h-44.5a78.368,78.368,0,0,0-7.727-1.726C114.88,485.312,30.139,408.983,6.217,305.4,3.76,294.76,2.053,283.947,0,273.214V226.786a69.641,69.641,0,0,0,1.829-7.635c13.151-103.8,88.923-188.438,190.339-212.3C203.94,4.075,215.938,2.259,227.833,0h44.5Z"/>
  <path id="Фигура_22" data-name="Фигура 22" class="cls-2" d="M97,388.922c23.208,2.7,45.972,1.619,68.238-3.951,24.13-6.037,44.818-18.221,59.831-38.694a112.535,112.535,0,0,0,20.789-50.565,83.465,83.465,0,0,0,1.35-12.858c-11.566,30.056-28.539,54.655-60.78,64.938,4.475-8.272,9.1-16.1,13.031-24.262a111.946,111.946,0,0,0,10.419-36.214c0.842-7.419,2.836-14.7,4.09-22.082,2.392-14.076,4.562-28.188,6.949-42.265,1.416-8.354,4.541-16.076,10.412-22.283,11.49-12.15,23.229-24.065,34.834-36.108,1.677-1.74,3.182-3.646,5.3-6.093,4.4,7.138,8.4,13.55,12.319,20.01,5.171,8.519,9.977,17.282,15.564,25.517a12.1,12.1,0,0,1,1.8,9.794c-5.851,31.549-11.383,63.167-17.875,94.585-3.147,15.232-10.194,29.083-19.942,41.384-14.1,17.8-32.614,29.209-53.616,37.017a7.784,7.784,0,0,0-1.332,1.431c5.593-.7,10.552-0.794,15.227-2,18.971-4.873,35.741-13.621,49.793-27.684,12.728-12.738,21.416-27.868,27.573-44.415,3.334-8.959,5.067-18.583,6.855-28.033,3.244-17.141,5.967-34.381,8.95-51.572,3.267-18.833,6.951-37.6,9.735-56.508a45.081,45.081,0,0,1,14.105-27.489c12.5-11.9,24.058-24.79,36.707-37.981,2.747,4.445,5.267,8.4,7.661,12.423,5.427,9.126,10.751,18.313,16.192,27.43,5.183,8.683,5.31,17.816,3.432,27.488-4.533,23.339-8.686,46.751-12.942,70.142-3.126,17.179-5.9,34.428-9.357,51.538-2.185,10.808-6.993,20.723-13.023,29.945a119.264,119.264,0,0,1-27.674,29.636,186.249,186.249,0,0,1-29.036,18.116,328.73,328.73,0,0,1-37.041,15.62,252.319,252.319,0,0,1-100.106,14.175A201.372,201.372,0,0,1,119.4,398c-6.563-2.317-13.086-4.753-19.595-7.22A14.9,14.9,0,0,1,97,388.922Z"/>
  <path id="Прямоугольник_7" data-name="Прямоугольник 7" class="cls-3" d="M224.8,173.174c-12.914,17.684-20.864,36.268-24.3,56.915-3.9,23.443-8.413,46.784-12.463,70.2-1.856,10.728-7.279,19.229-14.818,26.806-11.34,11.4-22.417,23.053-33.609,34.6-0.456.471-.951,0.9-1.949,1.846-3.4-5.3-6.744-10.35-9.91-15.508-5.354-8.722-10.7-17.454-15.837-26.3-2.508-4.314-4.724-8.305-3.583-14.208,5.2-26.9,9.437-53.989,14.368-80.946,3.413-18.655,8.361-37.019,17.3-53.8,7.919-14.861,17.893-28.277,32.054-38.29,32.672-23.1,68.6-25.49,106.1-17.027,16.587,3.743,32.838,8.981,49.224,13.6a8.637,8.637,0,0,1,4.13,2.691c-8.678-.718-17.359-1.4-26.034-2.162a182.542,182.542,0,0,0-52.2,2.805c-9.888,1.988-20,3.933-29.26,7.739-18.72,7.7-34.46,19.36-45.154,37.326-10.805,18.152-15.533,37.78-16.6,58.686,7.805-18.4,16.538-36.145,32.347-49.14A81.871,81.871,0,0,1,224.8,173.174Z"/>
</svg>
