<?xml version="1.0" encoding="utf-8"?>
<!-- Generator: Adobe Illustrator 21.1.0, SVG Export Plug-In . SVG Version: 6.00 Build 0)  -->
<svg version="1.1" id="Слой_1" xmlns="http://www.w3.org/2000/svg" xmlns:xlink="http://www.w3.org/1999/xlink" x="0px" y="0px"
	 viewBox="0 0 141.7 18.8" style="enable-background:new 0 0 141.7 18.8;" xml:space="preserve">
<style type="text/css">
	.st0{fill:#E00025;}
</style>
<title>Монтажная область 1</title>
<path class="st0" d="M1.8,3.1v6.5c0,0.4,0,1.4-0.8,1.4H1v0.1h4.2v-0.1l0,0c-0.8,0-0.8-1-0.8-1.4V2.1h2.7v7.5c0,0.4,0,1.4-0.8,1.4
	l0,0v0.1h4.2v-0.1l0,0c-0.8,0-0.8-1-0.8-1.4V3.1c0-0.4,0-1.4,0.8-1.4l0,0V1.6H1v0.1l0,0C1.8,1.7,1.8,2.7,1.8,3.1z"/>
<path class="st0" d="M16.2,4.2c-0.6,0-1.1,0.3-1.5,0.8l-0.3,0.3V4.2l-2.8,0.4l0,0c0.3,0.1,0.6,0.4,0.5,0.8v7.3
	c0,0.4-0.2,0.7-0.5,0.8h3.4c-0.1,0-0.3-0.1-0.4-0.2c-0.1-0.2-0.2-0.4-0.2-0.6v-2.2l0.3,0.4c0.3,0.3,0.8,0.5,1.2,0.4
	c1.2,0,2.4-1.2,2.4-3.7C18.4,5.9,17.7,4.2,16.2,4.2z M15.9,7.9c0.1,0.9,0,1.7-0.5,2.5c-0.1,0.1-0.3,0.2-0.4,0.2
	c-0.7,0-0.7-0.8-0.7-1.1V6.2c0-0.3,0-1.1,0.7-1.1S15.9,5.9,15.9,7.9L15.9,7.9z"/>
<path class="st0" d="M22.8,4.2c-2,0-3.3,1.4-3.3,3.6c0,3.4,2.8,3.6,3.3,3.6s3.3-0.2,3.3-3.6C26.1,5.6,24.8,4.2,22.8,4.2z M23.7,8.1
	c0,1,0,2.3-0.5,2.8c-0.2,0.2-0.6,0.3-0.9,0c0,0,0,0,0,0c-0.5-0.5-0.5-1.8-0.5-2.7V7.5c0-1,0-2.3,0.5-2.7c0.2-0.2,0.6-0.3,0.9,0
	c0,0,0,0,0,0c0.5,0.5,0.5,1.8,0.5,2.7L23.7,8.1L23.7,8.1z"/>
<path class="st0" d="M34.8,4.2c-0.5,0-0.9,0.1-1.2,0.5L33.3,5V1.3h-2.8C31,1.4,31,2,31,2.3V5l-0.3-0.3c-0.3-0.3-0.8-0.5-1.2-0.5
	c-1.8,0-2.3,2.3-2.3,3.6c0,1.8,0.7,3.6,2.3,3.6c0.5,0,0.9-0.1,1.2-0.4l0.3-0.3v2c0,0.3,0,0.9-0.5,1h3.3c-0.2,0-0.3-0.1-0.4-0.3
	c-0.1-0.2-0.2-0.5-0.1-0.7v-2l0.3,0.3c0.3,0.3,0.8,0.5,1.2,0.4c1.6,0,2.3-1.8,2.3-3.6C37.1,6.4,36.6,4.2,34.8,4.2z M31.2,9.5
	c0,0.4,0,1.1-0.7,1.1s-0.9-0.8-0.9-2.8S29.9,5,30.5,5s0.7,0.7,0.7,1.1V9.5z M33.8,10.5c-0.7,0-0.7-0.7-0.7-1.1V6.1
	c0-0.3,0-1.1,0.7-1.1s0.9,0.8,0.9,2.7S34.4,10.5,33.8,10.5z"/>
<path class="st0" d="M41.4,4.2c-1.9,0-3.2,1.5-3.2,3.8c0,2,1.2,3.4,3,3.4c1.1,0,2.1-0.7,2.7-1.7l-0.2-0.1c-0.3,0.4-0.8,0.7-1.4,0.7
	c-0.8,0-1.7-0.4-1.7-2.6V7.4h3.6c0-0.9-0.3-1.8-0.8-2.5C42.8,4.4,42.1,4.2,41.4,4.2z M40.6,7V6.8c0-0.8,0-2.2,0.8-2.2
	c0.5,0,0.7,0.7,0.8,2.2V7H40.6z"/>
<path class="st0" d="M49.1,5.8c0,0.3,0.1,1.2,1,1.2C50.7,7,51,6.6,51,6c0-1.7-2-1.8-2.4-1.8c-1.9,0-3.5,1.6-3.4,3.5
	c0,0.1,0,0.2,0,0.2c0,2,1.3,3.5,3,3.5c1.1,0,2.1-0.6,2.7-1.5l-0.2-0.3c-0.3,0.3-0.8,0.5-1.3,0.5c-1.8,0-1.9-2.4-1.9-2.9
	c0-0.8,0.1-2.6,1-2.6c0.2,0,0.5,0.1,0.5,0.7L49.1,5.8z"/>
<path class="st0" d="M55.9,5.8c0,0.3,0.1,1.2,1,1.2c0.6,0,0.9-0.4,0.9-1c0-1.7-2-1.8-2.3-1.8c-1.9,0-3.5,1.6-3.5,3.5
	c0,0.1,0,0.1,0,0.2c0,2,1.3,3.5,3,3.5c1.1,0,2.1-0.6,2.7-1.5l-0.2-0.3c-0.3,0.3-0.8,0.5-1.3,0.5c-1.8,0-1.9-2.4-1.9-2.9
	c0-0.8,0.1-2.6,1-2.6c0.2,0,0.5,0.1,0.5,0.7L55.9,5.8z"/>
<path class="st0" d="M63.3,5.3L63.3,5.3l-1.4,3.3h-0.4V5.5c0-0.3,0-0.9,0.5-1h-3.3c0.5,0.1,0.5,0.6,0.5,1v4.8c0,0.4-0.2,0.7-0.5,0.8
	H62c-0.3-0.1-0.6-0.4-0.5-0.8l0,0l0,0l1.4-3.4h0.4v3.2c0,0.3,0,0.9-0.5,1h3.4c-0.5-0.1-0.5-0.7-0.5-1V5.5c0-0.3,0-0.9,0.5-1h-3.4
	C63.1,4.6,63.3,4.9,63.3,5.3L63.3,5.3z"/>
<path class="st0" d="M70.4,4.2c-2,0-3.3,1.4-3.3,3.6c0,3.4,2.8,3.6,3.3,3.6s3.3-0.2,3.3-3.6C73.7,5.6,72.4,4.2,70.4,4.2z M71.3,8.1
	c0,1,0,2.3-0.5,2.8c-0.2,0.2-0.6,0.3-0.9,0c0,0,0,0,0,0c-0.5-0.5-0.5-1.8-0.5-2.8V7.5c0-1,0-2.3,0.4-2.7c0.2-0.2,0.6-0.3,0.9,0
	c0,0,0,0,0,0c0.5,0.5,0.5,1.8,0.4,2.7L71.3,8.1L71.3,8.1z"/>
<path class="st0" d="M79.1,7.4h-1.7V5.3c0-0.5,0.3-0.7,0.4-0.8l0,0h-3.2c0.5,0.2,0.5,0.7,0.5,1v4.6c0,0.3,0,0.9-0.5,1h3.3l0,0
	c-0.2-0.1-0.4-0.3-0.4-0.8V7.8h1.7v2.6c0,0.5-0.3,0.7-0.4,0.8l0,0h3.3c-0.5-0.1-0.5-0.7-0.5-1V5.5c0-0.3,0-0.9,0.5-1h-3.3l0,0
	c0.2,0.1,0.4,0.3,0.4,0.8L79.1,7.4z"/>
<path class="st0" d="M89,10.6c-0.1,0-0.2-0.1-0.3-0.1c-0.1-0.1-0.2-0.3-0.2-0.4V6.4c0-1-0.3-2.2-2.5-2.2s-2.9,0.9-2.9,1.7
	C83,6.5,83.4,7,84,7c0.1,0,0.1,0,0.2,0c0.9,0,0.9-0.7,0.9-0.8c0-0.1,0-0.3-0.1-0.4V5.7c-0.1-0.2-0.2-0.3-0.2-0.5
	c0-0.3,0.3-0.6,0.6-0.6c0,0,0,0,0.1,0c0.3,0,0.8,0.1,0.8,0.9v1.7h-0.1C84,8,82.8,8.9,82.8,10.1c0,0.7,0.5,1.3,1.2,1.3
	c0,0,0.1,0,0.1,0c0.7,0,1.3-0.4,1.7-0.9l0.1-0.1h0.3v0.1c0.2,0.8,0.8,0.9,1.3,0.9c0.7,0,1.3-0.3,1.7-0.8l-0.1-0.1
	C89.1,10.6,89.1,10.6,89,10.6z M86.2,9.2c0,0.4,0,1-0.6,1S85,9.8,85,9.3c0-0.7,0.4-1.3,0.9-1.6l0.3-0.2L86.2,9.2z"/>
<path class="st0" d="M92.2,6v0.2c0,2.6-0.1,4-0.5,4.3c-0.1,0.1-0.2,0.1-0.3,0.1c0,0-0.3,0-0.3-0.4v-0.1c0,0,0-0.1,0-0.1
	c0-0.1-0.1-0.2-0.2-0.3c-0.1-0.1-0.3-0.2-0.5-0.2c-0.3,0-0.7,0.2-0.7,0.9c0,0.6,0.5,1,1,1c0,0,0,0,0,0c1.6,0,1.7-1.9,1.7-4.5v-2H94
	v5.2c0,0.4,0,0.9-0.5,1h3.3c-0.5-0.1-0.5-0.7-0.5-1V5.5c0-0.3,0-0.9,0.5-1h-5.4C91.8,4.5,92.2,4.8,92.2,6z"/>
<path class="st0" d="M108.9,9c-0.6,0-1.2,0-1.8,0.2l-0.3,0.1V3.6h1.6c2.9,0,3.7,1.7,3.9,2.8h0.2l-0.1-3.5h-10.2v0.1l0,0
	c1,0,1,1.4,1,2v9.5c0,0.6,0,2-1,2l0,0v0.1h6.9c3,0,4.8-1.5,4.8-4C113.8,10.9,112.5,9,108.9,9z M107.8,16c-1.1,0-1.1-0.9-1.1-1.3V9.9
	h0.2c0.2,0,0.4,0,0.6,0c2.3,0,2.5,2.4,2.5,3.2C110,14.4,109.3,16,107.8,16z"/>
<path class="st0" d="M121.4,15v-4.4c0-1.3-0.3-2.7-3.1-2.7s-3.6,1.2-3.6,2.2c0,0.7,0.5,1.3,1.2,1.3c0,0,0.1,0,0.1,0
	c1.1,0,1.2-0.8,1.2-1c0-0.2,0-0.3-0.1-0.5L117,9.7c-0.1-0.2-0.2-0.4-0.2-0.6c0-0.4,0.3-0.7,0.7-0.8c0,0,0.1,0,0.1,0
	c0.4,0,1,0.2,1,1.1v2l-0.2,0.1c-2.6,0.9-4,2.1-4,3.5c0,0.9,0.6,1.6,1.5,1.6c0,0,0.1,0,0.1,0c0.8-0.1,1.6-0.5,2.1-1.1l0.1-0.1h0.4
	v0.2c0.2,0.9,1,1.1,1.6,1.1c0.8,0,1.6-0.3,2.1-1l-0.1-0.1c-0.3,0.1-0.7,0-0.8-0.3C121.4,15.2,121.4,15.1,121.4,15z M118.6,14
	c0,0.5,0,1.2-0.7,1.2c-0.5,0-0.8-0.4-0.8-1c0-0.8,0.4-1.6,1.1-2l0.4-0.3V14z"/>
<path class="st0" d="M128.5,9.5V12h-1.9V9.5c0-0.6,0.3-0.9,0.5-1l0,0h-3.8l0,0c0.6,0.2,0.6,0.8,0.6,1.3v5.6c0,0.4,0,1.1-0.6,1.3l0,0
	h3.8l0,0c-0.2-0.1-0.5-0.3-0.5-1v-3.1h2v3.1c0,0.6-0.3,0.9-0.5,1l0,0h3.8l0,0c-0.6-0.2-0.6-0.8-0.6-1.3V9.8c0-0.4,0-1.1,0.6-1.3l0,0
	H128l0,0C128.2,8.6,128.5,8.8,128.5,9.5z"/>
<path class="st0" d="M140.2,15.5l-2.5-4.5l0.9-1.2c0.4-0.7,1.1-1.1,1.9-1.3l0,0h-3.2l0,0c0.3,0.1,0.5,0.4,0.5,0.7
	c0,0.4-0.2,0.9-0.5,1.2l-1.2,1.7h-0.4V9.5c-0.1-0.4,0.1-0.8,0.5-1l0,0h-3.9l0,0c0.6,0.2,0.6,0.8,0.6,1.3v5.6c0,0.4,0,1.1-0.6,1.3
	l0,0h3.9l0,0c-0.4-0.2-0.5-0.6-0.5-1v-2.4h0.4l0,0l1.1,2.1c0.1,0.2,0.2,0.5,0.3,0.8c0,0.2-0.1,0.4-0.3,0.5l0,0h3.9v-0.1
	C140.6,16.3,140.4,15.9,140.2,15.5z"/>
<path class="st0" d="M9.4,17.7c0,0,1.3-0.2,3.7-0.4s5.7-0.5,9.7-0.9s8.7-0.6,13.7-0.9S46.7,15,52,14.8s10.7-0.3,15.7-0.3
	s9.7,0,13.7,0.1s7.4,0.2,9.7,0.3s3.7,0.2,3.7,0.2s-1.3,0.1-3.7,0.2l-9.7,0.4l-29.4,1l-15.7,0.5l-13.7,0.4L13,17.6L9.4,17.7z"/>
</svg>
