<?xml version="1.0" encoding="UTF-8" standalone="no"?>
<!DOCTYPE svg PUBLIC "-//W3C//DTD SVG 1.1//EN" "http://www.w3.org/Graphics/SVG/1.1/DTD/svg11.dtd">
<svg width="100%" height="100%" viewBox="0 0 1625 420" version="1.1" xmlns="http://www.w3.org/2000/svg" xmlns:xlink="http://www.w3.org/1999/xlink" xml:space="preserve" xmlns:serif="http://www.serif.com/" style="fill-rule:evenodd;clip-rule:evenodd;stroke-linejoin:round;stroke-miterlimit:2;">
    <g transform="matrix(1,0,0,1,-1136.91,-15893.1)">
        <g transform="matrix(3.73715,0,0,2.21013,-10047.9,11817.2)">
            <g id="elexirLogo2" transform="matrix(0.528984,0,0,0.733905,1439.52,864.629)">
                <g transform="matrix(0.505845,0,0,0.616512,3054.05,1085.71)">
                    <g transform="matrix(154.961,0,0,154.961,334,483)">
                        <path d="M0.297,0.01C0.252,0.01 0.212,0.001 0.175,-0.017C0.138,-0.034 0.107,-0.059 0.084,-0.09C0.061,-0.121 0.046,-0.157 0.04,-0.196L0.139,-0.196C0.147,-0.161 0.165,-0.133 0.194,-0.112C0.222,-0.091 0.257,-0.08 0.3,-0.08C0.326,-0.08 0.35,-0.085 0.372,-0.096C0.394,-0.107 0.413,-0.122 0.428,-0.141C0.443,-0.16 0.454,-0.182 0.46,-0.206L0.279,-0.206L0.279,-0.294L0.46,-0.294C0.454,-0.318 0.443,-0.34 0.428,-0.359C0.413,-0.378 0.394,-0.393 0.372,-0.404C0.35,-0.415 0.326,-0.42 0.3,-0.42C0.257,-0.42 0.222,-0.409 0.194,-0.389C0.166,-0.368 0.148,-0.34 0.139,-0.305L0.04,-0.305C0.046,-0.345 0.061,-0.381 0.085,-0.412C0.108,-0.443 0.138,-0.467 0.175,-0.484C0.212,-0.501 0.252,-0.51 0.297,-0.51C0.348,-0.51 0.393,-0.499 0.434,-0.477C0.475,-0.454 0.506,-0.423 0.53,-0.384C0.553,-0.344 0.564,-0.299 0.564,-0.25C0.564,-0.201 0.553,-0.156 0.53,-0.117C0.506,-0.077 0.475,-0.046 0.434,-0.024C0.393,-0.001 0.348,0.01 0.297,0.01Z" style="fill:rgb(33,33,33);fill-rule:nonzero;"/>
                    </g>
                    <g transform="matrix(154.961,0,0,154.961,426.047,483)">
                        <path d="M0.067,0.007C0.056,0.007 0.045,0.006 0.035,0.005C0.024,0.003 0.016,0.001 0.01,-0.001L0.01,-0.097C0.017,-0.095 0.023,-0.093 0.03,-0.093C0.036,-0.091 0.042,-0.091 0.048,-0.091C0.062,-0.091 0.074,-0.094 0.085,-0.1C0.095,-0.105 0.103,-0.114 0.108,-0.126C0.115,-0.143 0.12,-0.172 0.123,-0.212C0.126,-0.252 0.129,-0.3 0.13,-0.357L0.13,-0.5L0.545,-0.5L0.545,-0L0.44,-0L0.44,-0.402L0.228,-0.402L0.228,-0.367C0.228,-0.288 0.225,-0.224 0.22,-0.175C0.215,-0.126 0.203,-0.087 0.185,-0.056C0.172,-0.035 0.157,-0.02 0.138,-0.009C0.119,0.002 0.095,0.007 0.067,0.007Z" style="fill:rgb(33,33,33);fill-rule:nonzero;"/>
                    </g>
                    <g transform="matrix(154.961,0,0,154.961,521.503,483)">
                        <path d="M0.314,0.01C0.261,0.01 0.215,-0.001 0.174,-0.024C0.133,-0.046 0.1,-0.077 0.078,-0.116C0.055,-0.155 0.043,-0.199 0.043,-0.248C0.043,-0.297 0.055,-0.342 0.079,-0.382C0.103,-0.421 0.136,-0.452 0.177,-0.476C0.218,-0.499 0.264,-0.51 0.313,-0.51C0.362,-0.51 0.406,-0.499 0.446,-0.477C0.485,-0.454 0.516,-0.424 0.539,-0.385C0.562,-0.345 0.573,-0.302 0.573,-0.254C0.573,-0.247 0.573,-0.24 0.573,-0.234C0.572,-0.228 0.572,-0.222 0.571,-0.216L0.147,-0.216C0.151,-0.191 0.161,-0.168 0.176,-0.147C0.191,-0.126 0.211,-0.11 0.236,-0.098C0.261,-0.085 0.288,-0.079 0.319,-0.079C0.348,-0.079 0.374,-0.085 0.399,-0.098C0.423,-0.111 0.44,-0.128 0.451,-0.149L0.555,-0.149C0.548,-0.12 0.534,-0.093 0.512,-0.069C0.489,-0.045 0.461,-0.026 0.427,-0.012C0.392,0.003 0.355,0.01 0.314,0.01ZM0.468,-0.301C0.462,-0.325 0.452,-0.346 0.437,-0.364C0.422,-0.381 0.404,-0.395 0.383,-0.405C0.362,-0.414 0.338,-0.419 0.312,-0.419C0.286,-0.419 0.262,-0.414 0.24,-0.405C0.217,-0.395 0.198,-0.381 0.183,-0.363C0.167,-0.345 0.156,-0.324 0.15,-0.301L0.468,-0.301Z" style="fill:rgb(33,33,33);fill-rule:nonzero;"/>
                    </g>
                    <g transform="matrix(154.961,0,0,154.961,617.269,483)">
                        <path d="M0.09,-0.5L0.195,-0.5L0.195,-0.3L0.274,-0.3L0.431,-0.5L0.556,-0.5L0.362,-0.256L0.562,-0L0.431,-0L0.274,-0.202L0.195,-0.202L0.195,-0L0.09,-0L0.09,-0.5Z" style="fill:rgb(33,33,33);fill-rule:nonzero;"/>
                    </g>
                    <g transform="matrix(154.961,0,0,154.961,707.456,483)">
                        <path d="M0.227,-0.402L0.028,-0.402L0.028,-0.5L0.531,-0.5L0.531,-0.402L0.332,-0.402L0.332,-0L0.227,-0L0.227,-0.402Z" style="fill:rgb(33,33,33);fill-rule:nonzero;"/>
                    </g>
                    <g transform="matrix(154.961,0,0,154.961,788.966,483)">
                        <path d="M0.09,-0.5L0.187,-0.5L0.187,-0.427C0.208,-0.454 0.234,-0.474 0.265,-0.489C0.295,-0.503 0.328,-0.51 0.365,-0.51C0.412,-0.51 0.455,-0.499 0.493,-0.476C0.531,-0.453 0.561,-0.422 0.583,-0.383C0.604,-0.343 0.615,-0.299 0.615,-0.25C0.615,-0.201 0.604,-0.157 0.583,-0.118C0.561,-0.078 0.531,-0.047 0.493,-0.024C0.454,-0.001 0.412,0.01 0.365,0.01C0.331,0.01 0.3,0.004 0.271,-0.01C0.242,-0.023 0.216,-0.041 0.195,-0.064L0.195,0.2L0.09,0.2L0.09,-0.5ZM0.35,-0.086C0.379,-0.086 0.406,-0.093 0.43,-0.108C0.454,-0.122 0.473,-0.141 0.487,-0.167C0.501,-0.192 0.508,-0.219 0.508,-0.25C0.508,-0.281 0.501,-0.309 0.487,-0.334C0.473,-0.359 0.454,-0.378 0.43,-0.393C0.406,-0.407 0.379,-0.414 0.35,-0.414C0.321,-0.414 0.294,-0.407 0.27,-0.393C0.246,-0.378 0.227,-0.359 0.214,-0.334C0.2,-0.309 0.193,-0.281 0.193,-0.25C0.193,-0.219 0.2,-0.192 0.214,-0.167C0.227,-0.141 0.246,-0.122 0.27,-0.108C0.294,-0.093 0.321,-0.086 0.35,-0.086Z" style="fill:rgb(33,33,33);fill-rule:nonzero;"/>
                    </g>
                    <g transform="matrix(154.961,0,0,154.961,892.015,483)">
                        <path d="M0.313,0.01C0.262,0.01 0.217,-0.001 0.176,-0.024C0.135,-0.047 0.102,-0.078 0.079,-0.118C0.055,-0.157 0.043,-0.201 0.043,-0.25C0.043,-0.299 0.055,-0.343 0.079,-0.383C0.102,-0.422 0.135,-0.453 0.176,-0.476C0.217,-0.499 0.263,-0.51 0.313,-0.51C0.364,-0.51 0.409,-0.499 0.451,-0.476C0.492,-0.453 0.524,-0.422 0.548,-0.383C0.571,-0.343 0.583,-0.299 0.583,-0.25C0.583,-0.202 0.571,-0.158 0.548,-0.119C0.524,-0.079 0.491,-0.048 0.45,-0.025C0.409,-0.002 0.363,0.01 0.313,0.01ZM0.313,-0.086C0.344,-0.086 0.372,-0.093 0.397,-0.107C0.422,-0.121 0.441,-0.14 0.455,-0.166C0.469,-0.191 0.476,-0.219 0.476,-0.25C0.476,-0.281 0.469,-0.31 0.455,-0.335C0.441,-0.36 0.422,-0.379 0.397,-0.393C0.372,-0.407 0.344,-0.414 0.313,-0.414C0.282,-0.414 0.254,-0.407 0.229,-0.393C0.204,-0.379 0.184,-0.36 0.171,-0.335C0.157,-0.31 0.15,-0.282 0.15,-0.25C0.15,-0.219 0.157,-0.191 0.171,-0.166C0.185,-0.14 0.204,-0.121 0.229,-0.107C0.254,-0.093 0.282,-0.086 0.313,-0.086Z" style="fill:rgb(33,33,33);fill-rule:nonzero;"/>
                    </g>
                    <g transform="matrix(154.961,0,0,154.961,989.641,483)">
                        <path d="M0.09,-0.5L0.195,-0.5L0.195,-0.299L0.455,-0.299L0.455,-0.5L0.56,-0.5L0.56,-0L0.455,-0L0.455,-0.201L0.195,-0.201L0.195,-0L0.09,-0L0.09,-0.5Z" style="fill:rgb(33,33,33);fill-rule:nonzero;"/>
                    </g>
                    <g transform="matrix(154.961,0,0,154.961,1087.27,483)">
                        <path d="M0.09,-0.5L0.195,-0.5L0.195,-0.299L0.455,-0.299L0.455,-0.5L0.56,-0.5L0.56,-0L0.455,-0L0.455,-0.201L0.195,-0.201L0.195,-0L0.09,-0L0.09,-0.5Z" style="fill:rgb(33,33,33);fill-rule:nonzero;"/>
                    </g>
                    <g transform="matrix(154.961,0,0,154.961,1186.44,483)">
                        <path d="M0.09,-0.5L0.195,-0.5L0.196,-0.317L0.31,-0.317C0.373,-0.317 0.423,-0.303 0.46,-0.275C0.496,-0.246 0.514,-0.207 0.514,-0.158C0.514,-0.109 0.496,-0.071 0.46,-0.043C0.423,-0.014 0.373,-0 0.31,-0L0.09,-0L0.09,-0.5ZM0.316,-0.089C0.345,-0.089 0.367,-0.095 0.383,-0.108C0.399,-0.121 0.407,-0.138 0.407,-0.159C0.407,-0.18 0.399,-0.197 0.383,-0.21C0.366,-0.223 0.344,-0.229 0.316,-0.229L0.196,-0.229L0.197,-0.089L0.316,-0.089ZM0.606,-0.5L0.711,-0.5L0.711,-0L0.606,-0L0.606,-0.5Z" style="fill:rgb(33,33,33);fill-rule:nonzero;"/>
                    </g>
                    <g transform="matrix(154.961,0,0,154.961,1303.59,483)">
                        <path d="M0.314,0.01C0.261,0.01 0.215,-0.001 0.174,-0.024C0.133,-0.046 0.1,-0.077 0.078,-0.116C0.055,-0.155 0.043,-0.199 0.043,-0.248C0.043,-0.297 0.055,-0.342 0.079,-0.382C0.103,-0.421 0.136,-0.452 0.177,-0.476C0.218,-0.499 0.264,-0.51 0.313,-0.51C0.362,-0.51 0.406,-0.499 0.446,-0.477C0.485,-0.454 0.516,-0.424 0.539,-0.385C0.562,-0.345 0.573,-0.302 0.573,-0.254C0.573,-0.247 0.573,-0.24 0.573,-0.234C0.572,-0.228 0.572,-0.222 0.571,-0.216L0.147,-0.216C0.151,-0.191 0.161,-0.168 0.176,-0.147C0.191,-0.126 0.211,-0.11 0.236,-0.098C0.261,-0.085 0.288,-0.079 0.319,-0.079C0.348,-0.079 0.374,-0.085 0.399,-0.098C0.423,-0.111 0.44,-0.128 0.451,-0.149L0.555,-0.149C0.548,-0.12 0.534,-0.093 0.512,-0.069C0.489,-0.045 0.461,-0.026 0.427,-0.012C0.392,0.003 0.355,0.01 0.314,0.01ZM0.468,-0.301C0.462,-0.325 0.452,-0.346 0.437,-0.364C0.422,-0.381 0.404,-0.395 0.383,-0.405C0.362,-0.414 0.338,-0.419 0.312,-0.419C0.286,-0.419 0.262,-0.414 0.24,-0.405C0.217,-0.395 0.198,-0.381 0.183,-0.363C0.167,-0.345 0.156,-0.324 0.15,-0.301L0.468,-0.301Z" style="fill:rgb(33,33,33);fill-rule:nonzero;"/>
                    </g>
                    <g transform="matrix(154.961,0,0,154.961,334,637.961)">
                        <path d="M0.309,0.01C0.258,0.01 0.213,-0.001 0.173,-0.024C0.132,-0.047 0.1,-0.078 0.078,-0.117C0.055,-0.156 0.043,-0.201 0.043,-0.25C0.043,-0.299 0.055,-0.343 0.078,-0.383C0.101,-0.422 0.133,-0.453 0.174,-0.476C0.215,-0.499 0.26,-0.51 0.309,-0.51C0.354,-0.51 0.394,-0.501 0.43,-0.484C0.466,-0.467 0.495,-0.443 0.518,-0.412C0.541,-0.381 0.555,-0.345 0.56,-0.305L0.456,-0.305C0.447,-0.338 0.43,-0.365 0.404,-0.385C0.378,-0.404 0.346,-0.414 0.309,-0.414C0.278,-0.414 0.251,-0.407 0.227,-0.393C0.202,-0.378 0.183,-0.359 0.169,-0.334C0.155,-0.309 0.148,-0.281 0.148,-0.25C0.148,-0.219 0.155,-0.192 0.169,-0.167C0.183,-0.141 0.202,-0.122 0.227,-0.108C0.251,-0.093 0.278,-0.086 0.309,-0.086C0.346,-0.086 0.378,-0.096 0.405,-0.116C0.431,-0.136 0.448,-0.163 0.456,-0.196L0.56,-0.196C0.554,-0.156 0.54,-0.12 0.517,-0.089C0.494,-0.058 0.464,-0.033 0.428,-0.016C0.392,0.001 0.352,0.01 0.309,0.01Z" style="fill:rgb(33,33,33);fill-rule:nonzero;"/>
                    </g>
                    <g transform="matrix(154.961,0,0,154.961,427.597,637.961)">
                        <path d="M0.09,-0.5L0.195,-0.5L0.195,-0.138L0.465,-0.5L0.574,-0.5L0.574,-0L0.469,-0L0.469,-0.362L0.199,-0L0.09,-0L0.09,-0.5Z" style="fill:rgb(33,33,33);fill-rule:nonzero;"/>
                    </g>
                    <g transform="matrix(154.961,0,0,154.961,528.321,637.961)">
                        <path d="M0.309,0.01C0.258,0.01 0.213,-0.001 0.173,-0.024C0.132,-0.047 0.1,-0.078 0.078,-0.117C0.055,-0.156 0.043,-0.201 0.043,-0.25C0.043,-0.299 0.055,-0.343 0.078,-0.383C0.101,-0.422 0.133,-0.453 0.174,-0.476C0.215,-0.499 0.26,-0.51 0.309,-0.51C0.354,-0.51 0.394,-0.501 0.43,-0.484C0.466,-0.467 0.495,-0.443 0.518,-0.412C0.541,-0.381 0.555,-0.345 0.56,-0.305L0.456,-0.305C0.447,-0.338 0.43,-0.365 0.404,-0.385C0.378,-0.404 0.346,-0.414 0.309,-0.414C0.278,-0.414 0.251,-0.407 0.227,-0.393C0.202,-0.378 0.183,-0.359 0.169,-0.334C0.155,-0.309 0.148,-0.281 0.148,-0.25C0.148,-0.219 0.155,-0.192 0.169,-0.167C0.183,-0.141 0.202,-0.122 0.227,-0.108C0.251,-0.093 0.278,-0.086 0.309,-0.086C0.346,-0.086 0.378,-0.096 0.405,-0.116C0.431,-0.136 0.448,-0.163 0.456,-0.196L0.56,-0.196C0.554,-0.156 0.54,-0.12 0.517,-0.089C0.494,-0.058 0.464,-0.033 0.428,-0.016C0.392,0.001 0.352,0.01 0.309,0.01Z" style="fill:rgb(33,33,33);fill-rule:nonzero;"/>
                    </g>
                    <g transform="matrix(154.961,0,0,154.961,618.819,637.961)">
                        <path d="M0.227,-0.402L0.028,-0.402L0.028,-0.5L0.531,-0.5L0.531,-0.402L0.332,-0.402L0.332,-0L0.227,-0L0.227,-0.402Z" style="fill:rgb(33,33,33);fill-rule:nonzero;"/>
                    </g>
                    <g transform="matrix(154.961,0,0,154.961,697.229,637.961)">
                        <path d="M0.314,0.01C0.261,0.01 0.215,-0.001 0.174,-0.024C0.133,-0.046 0.1,-0.077 0.078,-0.116C0.055,-0.155 0.043,-0.199 0.043,-0.248C0.043,-0.297 0.055,-0.342 0.079,-0.382C0.103,-0.421 0.136,-0.452 0.177,-0.476C0.218,-0.499 0.264,-0.51 0.313,-0.51C0.362,-0.51 0.406,-0.499 0.446,-0.477C0.485,-0.454 0.516,-0.424 0.539,-0.385C0.562,-0.345 0.573,-0.302 0.573,-0.254C0.573,-0.247 0.573,-0.24 0.573,-0.234C0.572,-0.228 0.572,-0.222 0.571,-0.216L0.147,-0.216C0.151,-0.191 0.161,-0.168 0.176,-0.147C0.191,-0.126 0.211,-0.11 0.236,-0.098C0.261,-0.085 0.288,-0.079 0.319,-0.079C0.348,-0.079 0.374,-0.085 0.399,-0.098C0.423,-0.111 0.44,-0.128 0.451,-0.149L0.555,-0.149C0.548,-0.12 0.534,-0.093 0.512,-0.069C0.489,-0.045 0.461,-0.026 0.427,-0.012C0.392,0.003 0.355,0.01 0.314,0.01ZM0.468,-0.301C0.462,-0.325 0.452,-0.346 0.437,-0.364C0.422,-0.381 0.404,-0.395 0.383,-0.405C0.362,-0.414 0.338,-0.419 0.312,-0.419C0.286,-0.419 0.262,-0.414 0.24,-0.405C0.217,-0.395 0.198,-0.381 0.183,-0.363C0.167,-0.345 0.156,-0.324 0.15,-0.301L0.468,-0.301Z" style="fill:rgb(33,33,33);fill-rule:nonzero;"/>
                    </g>
                    <g transform="matrix(154.961,0,0,154.961,792.995,637.961)">
                        <path d="M0.09,-0.5L0.258,-0.5L0.41,-0.121L0.561,-0.5L0.726,-0.5L0.726,-0L0.623,-0L0.623,-0.402L0.462,-0L0.356,-0L0.193,-0.403L0.193,-0L0.09,-0L0.09,-0.5Z" style="fill:rgb(33,33,33);fill-rule:nonzero;"/>
                    </g>
                    <g transform="matrix(154.961,0,0,154.961,913.245,637.961)">
                        <path d="M0.09,-0.5L0.195,-0.5L0.196,-0.317L0.31,-0.317C0.373,-0.317 0.423,-0.303 0.46,-0.275C0.496,-0.246 0.514,-0.207 0.514,-0.158C0.514,-0.109 0.496,-0.071 0.46,-0.043C0.423,-0.014 0.373,-0 0.31,-0L0.09,-0L0.09,-0.5ZM0.316,-0.089C0.345,-0.089 0.367,-0.095 0.383,-0.108C0.399,-0.121 0.407,-0.138 0.407,-0.159C0.407,-0.18 0.399,-0.197 0.383,-0.21C0.366,-0.223 0.344,-0.229 0.316,-0.229L0.196,-0.229L0.197,-0.089L0.316,-0.089ZM0.606,-0.5L0.711,-0.5L0.711,-0L0.606,-0L0.606,-0.5Z" style="fill:rgb(33,33,33);fill-rule:nonzero;"/>
                    </g>
                    <g transform="matrix(154.961,0,0,154.961,1069.14,637.961)">
                        <path d="M0.09,-0.5L0.195,-0.5L0.195,-0.138L0.465,-0.5L0.574,-0.5L0.574,-0L0.469,-0L0.469,-0.362L0.199,-0L0.09,-0L0.09,-0.5Z" style="fill:rgb(33,33,33);fill-rule:nonzero;"/>
                    </g>
                    <g transform="matrix(154.961,0,0,154.961,334,792.922)">
                        <path d="M0.09,-0.5L0.187,-0.5L0.187,-0.427C0.208,-0.454 0.234,-0.474 0.265,-0.489C0.295,-0.503 0.328,-0.51 0.365,-0.51C0.412,-0.51 0.455,-0.499 0.493,-0.476C0.531,-0.453 0.561,-0.422 0.583,-0.383C0.604,-0.343 0.615,-0.299 0.615,-0.25C0.615,-0.201 0.604,-0.157 0.583,-0.118C0.561,-0.078 0.531,-0.047 0.493,-0.024C0.454,-0.001 0.412,0.01 0.365,0.01C0.331,0.01 0.3,0.004 0.271,-0.01C0.242,-0.023 0.216,-0.041 0.195,-0.064L0.195,0.2L0.09,0.2L0.09,-0.5ZM0.35,-0.086C0.379,-0.086 0.406,-0.093 0.43,-0.108C0.454,-0.122 0.473,-0.141 0.487,-0.167C0.501,-0.192 0.508,-0.219 0.508,-0.25C0.508,-0.281 0.501,-0.309 0.487,-0.334C0.473,-0.359 0.454,-0.378 0.43,-0.393C0.406,-0.407 0.379,-0.414 0.35,-0.414C0.321,-0.414 0.294,-0.407 0.27,-0.393C0.246,-0.378 0.227,-0.359 0.214,-0.334C0.2,-0.309 0.193,-0.281 0.193,-0.25C0.193,-0.219 0.2,-0.192 0.214,-0.167C0.227,-0.141 0.246,-0.122 0.27,-0.108C0.294,-0.093 0.321,-0.086 0.35,-0.086Z" style="fill:rgb(33,33,33);fill-rule:nonzero;"/>
                    </g>
                    <g transform="matrix(154.961,0,0,154.961,437.049,792.922)">
                        <path d="M0.314,0.01C0.261,0.01 0.215,-0.001 0.174,-0.024C0.133,-0.046 0.1,-0.077 0.078,-0.116C0.055,-0.155 0.043,-0.199 0.043,-0.248C0.043,-0.297 0.055,-0.342 0.079,-0.382C0.103,-0.421 0.136,-0.452 0.177,-0.476C0.218,-0.499 0.264,-0.51 0.313,-0.51C0.362,-0.51 0.406,-0.499 0.446,-0.477C0.485,-0.454 0.516,-0.424 0.539,-0.385C0.562,-0.345 0.573,-0.302 0.573,-0.254C0.573,-0.247 0.573,-0.24 0.573,-0.234C0.572,-0.228 0.572,-0.222 0.571,-0.216L0.147,-0.216C0.151,-0.191 0.161,-0.168 0.176,-0.147C0.191,-0.126 0.211,-0.11 0.236,-0.098C0.261,-0.085 0.288,-0.079 0.319,-0.079C0.348,-0.079 0.374,-0.085 0.399,-0.098C0.423,-0.111 0.44,-0.128 0.451,-0.149L0.555,-0.149C0.548,-0.12 0.534,-0.093 0.512,-0.069C0.489,-0.045 0.461,-0.026 0.427,-0.012C0.392,0.003 0.355,0.01 0.314,0.01ZM0.468,-0.301C0.462,-0.325 0.452,-0.346 0.437,-0.364C0.422,-0.381 0.404,-0.395 0.383,-0.405C0.362,-0.414 0.338,-0.419 0.312,-0.419C0.286,-0.419 0.262,-0.414 0.24,-0.405C0.217,-0.395 0.198,-0.381 0.183,-0.363C0.167,-0.345 0.156,-0.324 0.15,-0.301L0.468,-0.301Z" style="fill:rgb(33,33,33);fill-rule:nonzero;"/>
                    </g>
                    <g transform="matrix(154.961,0,0,154.961,532.815,792.922)">
                        <path d="M0.09,-0.5L0.195,-0.5L0.195,-0.094L0.397,-0.094L0.397,-0.5L0.502,-0.5L0.502,-0.094L0.704,-0.094L0.704,-0.5L0.809,-0.5L0.809,-0L0.09,-0L0.09,-0.5Z" style="fill:rgb(33,33,33);fill-rule:nonzero;"/>
                    </g>
                    <g transform="matrix(154.961,0,0,154.961,666.082,792.922)">
                        <path d="M0.314,0.01C0.261,0.01 0.215,-0.001 0.174,-0.024C0.133,-0.046 0.1,-0.077 0.078,-0.116C0.055,-0.155 0.043,-0.199 0.043,-0.248C0.043,-0.297 0.055,-0.342 0.079,-0.382C0.103,-0.421 0.136,-0.452 0.177,-0.476C0.218,-0.499 0.264,-0.51 0.313,-0.51C0.362,-0.51 0.406,-0.499 0.446,-0.477C0.485,-0.454 0.516,-0.424 0.539,-0.385C0.562,-0.345 0.573,-0.302 0.573,-0.254C0.573,-0.247 0.573,-0.24 0.573,-0.234C0.572,-0.228 0.572,-0.222 0.571,-0.216L0.147,-0.216C0.151,-0.191 0.161,-0.168 0.176,-0.147C0.191,-0.126 0.211,-0.11 0.236,-0.098C0.261,-0.085 0.288,-0.079 0.319,-0.079C0.348,-0.079 0.374,-0.085 0.399,-0.098C0.423,-0.111 0.44,-0.128 0.451,-0.149L0.555,-0.149C0.548,-0.12 0.534,-0.093 0.512,-0.069C0.489,-0.045 0.461,-0.026 0.427,-0.012C0.392,0.003 0.355,0.01 0.314,0.01ZM0.468,-0.301C0.462,-0.325 0.452,-0.346 0.437,-0.364C0.422,-0.381 0.404,-0.395 0.383,-0.405C0.362,-0.414 0.338,-0.419 0.312,-0.419C0.286,-0.419 0.262,-0.414 0.24,-0.405C0.217,-0.395 0.198,-0.381 0.183,-0.363C0.167,-0.345 0.156,-0.324 0.15,-0.301L0.468,-0.301Z" style="fill:rgb(33,33,33);fill-rule:nonzero;"/>
                    </g>
                    <g transform="matrix(154.961,0,0,154.961,761.848,792.922)">
                        <path d="M0.09,-0.5L0.195,-0.5L0.195,-0.299L0.455,-0.299L0.455,-0.5L0.56,-0.5L0.56,-0L0.455,-0L0.455,-0.201L0.195,-0.201L0.195,-0L0.09,-0L0.09,-0.5Z" style="fill:rgb(33,33,33);fill-rule:nonzero;"/>
                    </g>
                    <g transform="matrix(154.961,0,0,154.961,861.023,792.922)">
                        <path d="M0.09,-0.5L0.195,-0.5L0.195,-0.138L0.465,-0.5L0.574,-0.5L0.574,-0L0.469,-0L0.469,-0.362L0.199,-0L0.09,-0L0.09,-0.5Z" style="fill:rgb(33,33,33);fill-rule:nonzero;"/>
                    </g>
                    <g transform="matrix(154.961,0,0,154.961,961.748,792.922)">
                        <path d="M0.152,-0.188C0.121,-0.201 0.097,-0.221 0.08,-0.246C0.063,-0.271 0.055,-0.3 0.055,-0.334C0.055,-0.385 0.074,-0.426 0.111,-0.456C0.148,-0.485 0.2,-0.5 0.265,-0.5L0.484,-0.5L0.484,-0L0.379,-0L0.379,-0.167L0.254,-0.167L0.137,-0L0.015,-0L0.152,-0.188ZM0.379,-0.252L0.379,-0.414L0.26,-0.414C0.229,-0.414 0.205,-0.407 0.187,-0.392C0.169,-0.377 0.16,-0.358 0.16,-0.333C0.16,-0.308 0.169,-0.289 0.187,-0.274C0.205,-0.259 0.229,-0.252 0.26,-0.252L0.379,-0.252Z" style="fill:rgb(33,33,33);fill-rule:nonzero;"/>
                    </g>
                </g>
                <g transform="matrix(1.90809,0,0,2.32554,-5725.86,-3532.07)">
                    <g transform="matrix(-1,1.22465e-16,-1.22465e-16,-1,8528.77,11272.8)">
                        <path d="M3928.67,9125.96L3955.69,9180L3901.65,9180L3928.67,9125.96Z" style="fill:rgb(33,33,33);"/>
                    </g>
                    <g transform="matrix(1,-2.44929e-16,2.44929e-16,1,671.421,-6978.61)">
                        <path d="M3928.67,9125.96L3955.69,9180L3901.65,9180L3928.67,9125.96Z" style="fill:rgb(33,33,33);"/>
                    </g>
                    <g transform="matrix(0.5,0.866025,0.866025,-0.5,-5267.56,3307.74)">
                        <path d="M3928.67,9125.96L3955.69,9180L3901.65,9180L3928.67,9125.96Z" style="fill:rgb(33,33,33);"/>
                    </g>
                    <g transform="matrix(-0.5,-0.866025,-0.866025,0.5,14467.7,986.435)">
                        <path d="M3928.67,9125.96L3955.69,9180L3901.65,9180L3928.67,9125.96Z" style="fill:rgb(33,33,33);"/>
                    </g>
                    <g transform="matrix(0.5,-0.866025,-0.866025,-0.5,10539.1,10112.4)">
                        <path d="M3928.67,9125.96L3955.69,9180L3901.65,9180L3928.67,9125.96Z" style="fill:rgb(33,33,33);"/>
                    </g>
                    <g transform="matrix(-0.5,0.866025,0.866025,0.5,-1338.88,-5818.23)">
                        <path d="M3928.67,9125.96L3955.69,9180L3901.65,9180L3928.67,9125.96Z" style="fill:rgb(33,33,33);"/>
                    </g>
                </g>
            </g>
        </g>
    </g>
</svg>
