<svg width="110" height="18" viewBox="0 0 110 18" fill="none" xmlns="http://www.w3.org/2000/svg">
<g clip-path="url(#clip0)">
<path d="M20.8634 5.98987H22.6886C23.5203 5.98987 24.1234 6.10888 24.4978 6.34689C24.8749 6.58223 25.0634 6.95798 25.0634 7.47412C25.0634 7.82446 24.9805 8.11195 24.8147 8.33659C24.6516 8.56124 24.4336 8.69629 24.1609 8.74176V8.78187C24.5326 8.86477 24.8 9.01989 24.9631 9.2472C25.129 9.47452 25.2119 9.77672 25.2119 10.1538C25.2119 10.6887 25.018 11.1059 24.6302 11.4054C24.2451 11.7049 23.7209 11.8547 23.0577 11.8547H20.8634V5.98987ZM22.107 8.31253H22.829C23.166 8.31253 23.4094 8.26038 23.5591 8.15608C23.7116 8.05178 23.7878 7.87928 23.7878 7.63859C23.7878 7.41395 23.7049 7.25349 23.5391 7.15722C23.3759 7.05827 23.1165 7.00879 22.7608 7.00879H22.107V8.31253ZM22.107 9.29935V10.8277H22.9173C23.2596 10.8277 23.5123 10.7622 23.6755 10.6312C23.8386 10.5001 23.9202 10.2996 23.9202 10.0294C23.9202 9.54272 23.5725 9.29935 22.8772 9.29935H22.107Z" fill="black"/>
<path d="M30.1378 11.8547L29.7126 10.4587H27.5745L27.1493 11.8547H25.8094L27.8793 5.9658H29.3997L31.4777 11.8547H30.1378ZM29.4157 9.41569C29.0226 8.15073 28.8007 7.43535 28.7498 7.26954C28.7017 7.10373 28.6669 6.97269 28.6455 6.87641C28.5573 7.21873 28.3046 8.06515 27.8874 9.41569H29.4157Z" fill="black"/>
<path d="M32.3841 5.98987H33.5033V8.82198L33.4873 9.58016L33.4471 10.4426H33.4712L36.179 5.98987H37.6672V11.8547H36.5601V9.03861C36.5601 8.66153 36.5841 8.10259 36.6323 7.3618H36.6002L33.8804 11.8547H32.3841V5.98987ZM36.9692 4.08441C36.9184 4.58451 36.7299 4.94956 36.4036 5.17955C36.0773 5.40687 35.6067 5.52053 34.9916 5.52053C34.3577 5.52053 33.8884 5.41088 33.5835 5.19158C33.2813 4.97229 33.1115 4.60323 33.0741 4.08441H34.1692C34.1879 4.35987 34.2561 4.55376 34.3738 4.66608C34.4941 4.77573 34.7081 4.83055 35.0156 4.83055C35.2857 4.83055 35.4863 4.77038 35.6174 4.65003C35.7511 4.52701 35.8326 4.33847 35.8621 4.08441H36.9692Z" fill="black"/>
<path d="M43.9531 11.8547H42.7135V7.02484H41.2774L41.2132 7.56238C41.0474 8.92896 40.9003 9.88904 40.772 10.4426C40.6463 10.9935 40.4617 11.3813 40.2184 11.606C39.975 11.8306 39.6461 11.9403 39.2316 11.9349C39.0069 11.9349 38.809 11.9055 38.6378 11.8467V10.8277C38.793 10.8812 38.9387 10.908 39.0751 10.908C39.2168 10.908 39.3292 10.8438 39.4121 10.7154C39.495 10.5844 39.5725 10.3437 39.6447 9.99334C39.7196 9.64033 39.8172 9.06401 39.9376 8.26439C40.0606 7.46209 40.1649 6.70392 40.2505 5.98987H43.9531V11.8547Z" fill="black"/>
<path d="M44.8996 10.8197H45.3529C45.7407 10.0442 46.0469 9.26994 46.2716 8.49705C46.4962 7.7215 46.6633 6.88577 46.773 5.98987H50.1908V10.8197H50.973V13.5636H49.7736V11.8547H46.0991V13.5636H44.8996V10.8197ZM47.7598 7.02484C47.6742 7.63726 47.5312 8.28578 47.3306 8.97041C47.1327 9.65504 46.9094 10.2715 46.6607 10.8197H48.9512V7.02484H47.7598Z" fill="black"/>
<path d="M53.2875 8.24032H53.7769C54.5418 8.24032 55.1328 8.39543 55.55 8.70565C55.9672 9.01587 56.1758 9.45446 56.1758 10.0214C56.1758 11.2436 55.3681 11.8547 53.7528 11.8547H52.0439V5.98987H55.7506V7.01681H53.2875V8.24032ZM53.2875 10.8358H53.7047C54.1246 10.8358 54.4321 10.7689 54.6273 10.6352C54.8226 10.4988 54.9202 10.2942 54.9202 10.0214C54.9202 9.75131 54.8212 9.55743 54.6233 9.43976C54.4254 9.31941 54.0858 9.25924 53.6044 9.25924H53.2875V10.8358Z" fill="black"/>
<path d="M60.833 11.8547H57.4553V5.98987H60.833V7.00879H58.6988V8.29648H60.6845V9.3154H58.6988V10.8277H60.833V11.8547Z" fill="black"/>
<path d="M63.4683 8.74978H63.8775C64.26 8.74978 64.5461 8.6749 64.736 8.52513C64.9259 8.3727 65.0208 8.15207 65.0208 7.86324C65.0208 7.57174 64.9406 7.35645 64.7801 7.21739C64.6223 7.07832 64.3736 7.00879 64.034 7.00879H63.4683V8.74978ZM66.2764 7.81911C66.2764 8.45025 66.0785 8.93297 65.6827 9.26726C65.2896 9.60155 64.7293 9.7687 64.0019 9.7687H63.4683V11.8547H62.2248V5.98987H64.0982C64.8095 5.98987 65.3497 6.14364 65.7188 6.45119C66.0905 6.75607 66.2764 7.21204 66.2764 7.81911Z" fill="black"/>
<path d="M68.7914 8.74978H69.2006C69.583 8.74978 69.8692 8.6749 70.0591 8.52513C70.249 8.3727 70.3439 8.15207 70.3439 7.86324C70.3439 7.57174 70.2637 7.35645 70.1032 7.21739C69.9454 7.07832 69.6967 7.00879 69.3571 7.00879H68.7914V8.74978ZM71.5995 7.81911C71.5995 8.45025 71.4016 8.93297 71.0058 9.26726C70.6127 9.60155 70.0524 9.7687 69.325 9.7687H68.7914V11.8547H67.5479V5.98987H69.4212C70.1326 5.98987 70.6728 6.14364 71.0419 6.45119C71.4136 6.75607 71.5995 7.21204 71.5995 7.81911Z" fill="black"/>
<path d="M72.871 5.98987H73.9902V8.82198L73.9741 9.58016L73.934 10.4426H73.9581L76.6658 5.98987H78.1541V11.8547H77.0469V9.03861C77.0469 8.66153 77.071 8.10259 77.1191 7.3618H77.0871L74.3673 11.8547H72.871V5.98987Z" fill="black"/>
<path d="M83.8503 7.3618C83.8503 7.73888 83.7165 8.05044 83.4491 8.29648C83.1817 8.54252 82.8193 8.69897 82.362 8.76582V8.78989C82.8995 8.84338 83.3114 8.99181 83.5975 9.23517C83.8864 9.47853 84.0308 9.79544 84.0308 10.1859C84.0308 10.7261 83.8115 11.1527 83.3729 11.4656C82.937 11.7785 82.3326 11.9349 81.5597 11.9349C80.6986 11.9349 80.0073 11.8293 79.4858 11.618V10.575C79.7372 10.6954 80.0313 10.7903 80.3683 10.8598C80.7079 10.9267 81.0248 10.9601 81.319 10.9601C82.3058 10.9601 82.7993 10.6726 82.7993 10.0976C82.7993 9.83823 82.6401 9.63899 82.3219 9.49993C82.0063 9.36086 81.5383 9.29133 80.9179 9.29133H80.3683V8.32055H80.8617C81.4821 8.32055 81.9341 8.26171 82.2176 8.14404C82.5011 8.02637 82.6428 7.83115 82.6428 7.55836C82.6428 7.35779 82.5532 7.19867 82.374 7.081C82.1975 6.96065 81.9314 6.90048 81.5757 6.90048C81.0248 6.90048 80.4926 7.0596 79.9792 7.37785L79.4376 6.54747C79.7719 6.3255 80.1263 6.1637 80.5007 6.06208C80.8751 5.95778 81.2909 5.90563 81.7482 5.90563C82.3874 5.90563 82.8969 6.03935 83.2766 6.30678C83.6591 6.57421 83.8503 6.92589 83.8503 7.3618Z" fill="black"/>
<path d="M88.8322 8.24032H89.3216C90.0865 8.24032 90.6775 8.39543 91.0947 8.70565C91.5119 9.01587 91.7205 9.45446 91.7205 10.0214C91.7205 11.2436 90.9128 11.8547 89.2976 11.8547H87.5887V5.98987H91.2953V7.01681H88.8322V8.24032ZM88.8322 10.8358H89.2494C89.6693 10.8358 89.9768 10.7689 90.1721 10.6352C90.3673 10.4988 90.4649 10.2942 90.4649 10.0214C90.4649 9.75131 90.3659 9.55743 90.168 9.43976C89.9701 9.31941 89.6305 9.25924 89.1491 9.25924H88.8322V10.8358Z" fill="black"/>
<path d="M96.5903 11.8547L96.1651 10.4587H94.0269L93.6017 11.8547H92.2619L94.3318 5.9658H95.8522L97.9301 11.8547H96.5903ZM95.8682 9.41569C95.4751 8.15073 95.2531 7.43535 95.2023 7.26954C95.1542 7.10373 95.1194 6.97269 95.098 6.87641C95.0098 7.21873 94.757 8.06515 94.3398 9.41569H95.8682Z" fill="black"/>
<path d="M103.642 11.8547H102.403V9.32342H100.08V11.8547H98.8366V5.98987H100.08V8.28846H102.403V5.98987H103.642V11.8547Z" fill="black"/>
<path d="M110.073 11.8547H108.661L106.534 8.88216V11.8547H105.291V5.98987H106.534V8.83001L108.636 5.98987H109.96L107.822 8.80594L110.073 11.8547Z" fill="black"/>
<circle cx="8.47638" cy="8.75202" r="7.99499" transform="rotate(51.5319 8.47638 8.75202)" fill="url(#paint0_linear)"/>
<path d="M8.31142 10.7621H7.57417L6.87096 8.28949C6.84071 8.18174 6.8029 8.02673 6.75753 7.82446C6.71217 7.6203 6.68476 7.47852 6.6753 7.39913C6.6564 7.52011 6.62521 7.67701 6.58173 7.86983C6.54014 8.06265 6.50517 8.20632 6.47681 8.30083L5.79061 10.7621H5.05337L4.51745 8.68647L3.97302 6.61652H4.6649L5.25753 9.03241C5.35016 9.41993 5.41632 9.76209 5.45602 10.0589C5.47681 9.89819 5.508 9.71861 5.54959 9.52012C5.59118 9.32163 5.62898 9.16095 5.66301 9.03808L6.33787 6.61652H7.0099L7.70177 9.04942C7.76794 9.27437 7.83788 9.61086 7.9116 10.0589C7.93996 9.78855 8.00801 9.44451 8.11576 9.02674L8.70556 6.61652H9.39176L8.31142 10.7621Z" fill="white"/>
<path d="M10.0977 6.61652H11.3283C11.8992 6.61652 12.3113 6.69969 12.5646 6.86604C12.8198 7.0324 12.9474 7.29516 12.9474 7.65433C12.9474 7.8963 12.885 8.09762 12.7603 8.2583C12.6355 8.41898 12.4559 8.52012 12.2215 8.5617V8.59006C12.5126 8.64488 12.7263 8.75358 12.8624 8.91615C13.0004 9.07683 13.0694 9.29517 13.0694 9.57116C13.0694 9.94356 12.9389 10.2356 12.6781 10.4473C12.4191 10.6572 12.058 10.7621 11.5949 10.7621H10.0977V6.61652ZM10.7754 8.32919H11.4276C11.7111 8.32919 11.9181 8.28477 12.0486 8.19592C12.179 8.10518 12.2442 7.95206 12.2442 7.73656C12.2442 7.54185 12.1733 7.40102 12.0315 7.31406C11.8917 7.2271 11.6686 7.18363 11.3624 7.18363H10.7754V8.32919ZM10.7754 8.87929V10.1921H11.4956C11.7792 10.1921 11.9928 10.1383 12.1365 10.0305C12.282 9.92088 12.3548 9.74886 12.3548 9.51445C12.3548 9.29895 12.2811 9.13921 12.1336 9.03524C11.9862 8.93127 11.7622 8.87929 11.4616 8.87929H10.7754Z" fill="white"/>
</g>
<defs>
<linearGradient id="paint0_linear" x1="8.47638" y1="0.757036" x2="8.47638" y2="16.747" gradientUnits="userSpaceOnUse">
<stop stop-color="#6A1182"/>
<stop offset="1" stop-color="#A8109C"/>
</linearGradient>
<clipPath id="clip0">
<rect width="110" height="17.3684" fill="white"/>
</clipPath>
</defs>
</svg>
