<svg width="180" height="72" viewBox="0 0 180 72" fill="none" xmlns="http://www.w3.org/2000/svg">
<path d="M80.746 32.465L79.3877 35.3835L81.5991 36.3329L81.5833 37.8538L74.537 38.8295V43.1308C74.537 43.1308 79.6912 43.0598 82.9133 39.9812C85.6201 37.3959 84.1693 35.2374 81.8995 35.484C81.8375 35.4891 81.8262 35.4322 81.9091 35.412C83.2301 35.1218 85.7054 35.1691 86.5529 37.8803C87.3612 40.4658 85.4064 43.1308 85.4064 43.1308H88.7772V28.8923L80.746 32.465Z" fill="#DC0533"/>
<path d="M74.5365 43.1308H74.5403C74.6971 43.1279 79.7418 43.012 82.9135 39.9814C85.6203 37.396 84.1695 35.2376 81.8998 35.4848C81.8378 35.4893 81.8264 35.433 81.9086 35.412C83.2298 35.1218 85.7051 35.1693 86.5526 37.8811C87.3607 40.4658 85.4066 43.1308 85.4066 43.1308H88.7774V28.8926L80.7456 32.465L79.3871 35.3837L81.5988 36.3335L81.5835 37.8539L74.5365 38.8298V43.1308Z" fill="#DC0533"/>
<path d="M80.3994 32.0413C77.6946 34.6272 79.1447 36.7851 81.4139 36.5379C81.4765 36.5341 81.4867 36.5897 81.4044 36.6112C80.0839 36.9014 77.608 36.8528 76.7606 34.1423C75.9523 31.5576 77.9072 28.8926 77.9072 28.8926H74.5363V39.8144C76.7106 40.1749 78.6515 40.0497 80.97 38.9492C83.2884 37.8489 83.3529 35.9422 81.6023 35.9422C79.96 35.9422 79.4231 34.8214 81.1805 33.434C83.4756 31.6239 88.7772 32.36 88.7772 32.36V28.8926C88.7772 28.8926 83.623 28.9634 80.3994 32.0413Z" fill="#DC0533"/>
<path d="M74.5365 28.8926V39.8144C76.7101 40.1756 78.6516 40.0503 80.9701 38.9492C83.2893 37.8481 83.3524 35.9422 81.6026 35.9422C79.9601 35.9422 79.4232 34.8208 81.1807 33.434C83.4757 31.6239 88.7774 32.36 88.7774 32.36V28.8926C88.7774 28.8926 83.6231 28.9627 80.3997 32.0413C77.6942 34.6272 79.1449 36.7851 81.4134 36.5379C81.4767 36.5334 81.4862 36.5897 81.4046 36.6112C80.0841 36.9014 77.6083 36.8528 76.7607 34.1423C75.9526 31.5576 77.9067 28.8926 77.9067 28.8926H74.5365Z" fill="#DC0533"/>
<path d="M91.7798 36.2074C91.7798 33.9728 93.5321 32.1643 95.8073 32.1643C96.9722 32.1643 97.9211 32.5903 98.5962 33.2332L97.5917 34.6883C97.117 34.2781 96.5867 34.029 95.9197 34.029C94.7705 34.029 93.8052 34.9532 93.8052 36.2074C93.8052 37.4458 94.7705 38.3694 95.9197 38.3694C96.6107 38.3694 97.141 38.1045 97.5993 37.7265L98.6044 39.1741C97.9211 39.8006 96.9489 40.2425 95.823 40.2425C93.4922 40.2425 91.7798 38.4098 91.7798 36.2074Z" fill="black"/>
<path d="M107.344 40.0101H105.302V35.3151L101.781 40.0101H99.9166V32.3496H101.958V36.7462L105.342 32.3496H107.344V40.0101Z" fill="black"/>
<path d="M108.821 40.0101V32.3496H110.871V35.1387H114.191V32.3496H116.232V40.0101H114.191V36.9713H110.871V40.0101H108.821Z" fill="black"/>
<path d="M123.543 36.1915C123.543 34.9614 122.627 34.0776 121.469 34.0776C120.312 34.0776 119.435 34.9614 119.435 36.1915C119.435 37.4211 120.312 38.2896 121.469 38.2896C122.619 38.2896 123.543 37.4211 123.543 36.1915ZM123.712 32.3493H125.464V40.0097H123.704L123.583 39.1094C123.012 39.7688 122.216 40.2024 121.204 40.2024C119.122 40.2024 117.41 38.4262 117.41 36.1834C117.41 33.9569 119.13 32.1641 121.204 32.1641C122.216 32.1641 123.012 32.5984 123.583 33.2577L123.712 32.3493Z" fill="black"/>
<path d="M132.984 36.1915C132.984 34.9614 132.108 34.0776 130.95 34.0776C129.792 34.0776 128.876 34.9614 128.876 36.1915C128.876 37.4211 129.8 38.2896 130.95 38.2896C132.108 38.2896 132.984 37.4211 132.984 36.1915ZM135.009 36.1834C135.009 38.4262 133.297 40.2024 131.216 40.2024C130.29 40.2024 129.552 39.8409 128.997 39.2783V42.8632H126.955V32.3493H128.675L128.812 33.2899C129.383 32.6142 130.187 32.1641 131.216 32.1641C133.289 32.1641 135.009 33.9569 135.009 36.1834Z" fill="black"/>
<path d="M142.027 36.1915C142.027 34.9614 141.111 34.0776 139.953 34.0776C138.796 34.0776 137.919 34.9614 137.919 36.1915C137.919 37.4211 138.796 38.2896 139.953 38.2896C141.103 38.2896 142.027 37.4211 142.027 36.1915ZM142.196 32.3493H143.949V40.0097H142.188L142.068 39.1094C141.496 39.7688 140.701 40.2024 139.688 40.2024C137.606 40.2024 135.894 38.4262 135.894 36.1834C135.894 33.9569 137.614 32.1641 139.688 32.1641C140.701 32.1641 141.496 32.5984 142.068 33.2577L142.196 32.3493Z" fill="black"/>
<path d="M154.273 36.2475C154.273 34.6558 153.035 33.4262 151.467 33.4262C149.883 33.4262 148.638 34.6558 148.638 36.2475C148.638 37.8475 149.883 39.0606 151.467 39.0606C153.035 39.0606 154.273 37.8475 154.273 36.2475ZM155.511 36.2557C155.511 38.4741 153.75 40.2264 151.451 40.2264C149.152 40.2264 147.408 38.4663 147.408 36.2557V36.2475V33.5388C147.408 30.5008 148.847 29.0052 151.009 28.7403C152.56 28.5309 153.131 28.3863 153.879 28L154.2 28.981C153.324 29.4634 152.472 29.6081 151.13 29.8011C149.61 30.026 148.581 31.0546 148.581 33.5787V33.8687C149.2 32.8315 150.278 32.2689 151.491 32.2689C153.75 32.2689 155.511 34.0289 155.511 36.2557Z" fill="black"/>
<path d="M162.55 36.2396C162.55 34.6484 161.569 33.4664 160.099 33.4664C158.62 33.4664 157.655 34.6484 157.655 36.2396C157.655 37.8396 158.62 38.997 160.091 38.997C161.569 38.997 162.55 37.8396 162.55 36.2396ZM162.453 32.4455H163.708V40.0098H162.493V38.8599C161.939 39.672 161.087 40.1943 159.978 40.1943C157.92 40.1943 156.425 38.4584 156.425 36.2314C156.425 34.0208 157.92 32.2686 159.969 32.2686C161.063 32.2686 161.899 32.7673 162.453 33.5391V32.4455Z" fill="black"/>
<path d="M165.18 40.0099V32.4451H166.427V35.5809H170.792V32.4451H172.037V40.0099H170.792V36.7057H166.427V40.0099H165.18Z" fill="black"/>
<path d="M173.344 40.0099V32.4451H174.582V35.5641H176.085L178.167 32.4451H179.614L177.073 36.095L180 40.0099H178.561L176.101 36.7625H174.582V40.0099H173.344Z" fill="black"/>
<path d="M6.12882 38.6648C5.66186 39.389 4.84648 39.8422 3.83639 39.8422C2.2504 39.8422 1.20643 38.6942 1.20643 37.1313C1.20643 35.5046 2.24554 34.4203 3.83639 34.4203C4.68235 34.4203 5.41145 34.7659 5.90202 35.3274L6.68828 34.5247C5.99837 33.7723 4.99491 33.3125 3.83639 33.3125C1.59537 33.3125 0 34.8399 0 37.1313C0 39.3328 1.60231 40.95 3.83639 40.95C5.16719 40.95 6.25785 40.3913 6.93176 39.4844L6.12882 38.6648Z" fill="#038C73"/>
<path d="M66.3605 40.7973L63.4978 37.6788H62.1659C62.1659 39.4367 62.1659 40.4762 62.1811 40.7973H60.9567C60.9719 40.0635 60.9719 38.8406 60.9719 37.1284C60.9719 35.4163 60.9719 34.1932 60.9567 33.4595H62.1811C62.1659 34.0862 62.1659 35.1104 62.1659 36.5475H63.5285L66.2993 33.4595H67.8301L64.6306 37.0213L68.0751 40.7973H66.3605Z" fill="#F65E64"/>
<path d="M13.554 40.8002L10.6913 37.6817H9.35939C9.35939 39.4397 9.35939 40.4791 9.37473 40.8002H8.15021C8.16543 40.0664 8.16543 38.8434 8.16543 37.1314C8.16543 35.4192 8.16543 34.1962 8.15021 33.4624H9.37473C9.35939 34.0892 9.35939 35.1134 9.35939 36.5504H10.7219L13.4928 33.4624H15.0238L11.8242 37.0243L15.2686 40.8002H13.554Z" fill="#038C73"/>
<path d="M19.5634 33.593C18.5592 33.5545 17.6405 33.9177 16.9546 34.5341C17.084 33.4841 17.8099 32.6146 18.7811 32.2958C19.9857 31.9004 21.5463 32.4818 23.1022 31.062L22.2201 30.1812C21.0882 31.2503 19.7067 30.7892 18.6223 31.0809C16.9718 31.5249 15.7512 33.0322 15.7342 34.8323H15.7332V37.2701C15.7332 39.3025 17.3832 40.9501 19.4186 40.9501C21.5012 40.9501 23.1803 39.2248 23.1008 37.1273C23.0287 35.2204 21.473 33.6661 19.5634 33.593ZM19.6211 39.7438C18.0917 39.8656 16.8194 38.5952 16.9413 37.0678C17.0371 35.8659 18.0122 34.8922 19.2158 34.7964C20.7452 34.6748 22.0174 35.9452 21.8956 37.4725C21.7998 38.6744 20.8247 39.648 19.6211 39.7438Z" fill="#038C73"/>
<path d="M39.8987 33.593C38.8946 33.5545 37.976 33.9177 37.2899 34.5341C37.4195 33.4841 38.1452 32.6146 39.1162 32.2958C40.321 31.9004 41.8816 32.4818 43.4375 31.062L42.5554 30.1812C41.4235 31.2503 40.0421 30.7892 38.9578 31.0809C37.3071 31.5249 36.0865 33.0322 36.0695 34.8323H36.0687V37.2701C36.0687 39.3025 37.7185 40.9501 39.7539 40.9501C41.8365 40.9501 43.5156 39.2248 43.4363 37.1273C43.364 35.2204 41.8083 33.6661 39.8987 33.593ZM39.9564 39.7438C38.427 39.8656 37.1547 38.5952 37.2766 37.0678C37.3725 35.8659 38.3475 34.8922 39.5511 34.7964C41.0806 34.6748 42.3529 35.9452 42.231 37.4725C42.1351 38.6744 41.16 39.648 39.9564 39.7438Z" fill="#F65E64"/>
<path d="M57.9991 40.7973V37.6176H54.1413V40.7973H52.9167V33.4595H54.1413V36.4864H57.9991V33.4595H59.224V40.7973H57.9991Z" fill="#F65E64"/>
<path d="M51.3043 39.557C51.1558 39.8015 50.9421 39.9269 50.6925 39.864C50.456 39.8043 50.2978 39.5807 50.2978 39.3372V35.7373C50.2978 34.3308 49.0884 33.3066 47.4504 33.3066C46.437 33.3066 45.5927 33.6384 45.0759 34.172L45.8947 34.9897C46.1633 34.6464 46.6958 34.4226 47.3586 34.4226C48.3535 34.4226 49.0732 35.0493 49.0732 35.8901V36.4404C47.9403 36.5628 47.1443 36.6698 46.6696 36.7768C45.2 37.0825 44.3273 37.8622 44.3273 39.0393C44.3273 40.1858 45.2459 40.9501 46.6543 40.9501C47.6495 40.9501 48.4608 40.743 49.1037 39.994C49.2416 40.6513 49.8845 40.9501 50.6958 40.9501C51.244 40.9501 51.7258 40.7109 52.063 40.3145L51.3043 39.557ZM49.0732 38.6384C48.5373 39.3721 47.6954 39.8155 46.7921 39.8155C46.0726 39.8155 45.5981 39.4979 45.5981 38.9017C45.5981 38.4125 45.9808 38.049 46.6389 37.8656C47.1443 37.7281 47.9556 37.6703 49.0732 37.5328V38.6384Z" fill="#F65E64"/>
<path d="M31.1412 36.1645L28.4133 33.1401L27.5035 33.9585L30.3172 37.0781L31.1412 36.1645Z" fill="#038C73"/>
<path d="M31.1412 36.1646L27.4819 40.2214L28.3917 41.0398L31.9644 37.0773L31.1412 36.1646Z" fill="#F65E64"/>
</svg>
