<svg width="180" height="72" viewBox="0 0 180 72" fill="none" xmlns="http://www.w3.org/2000/svg">
<path d="M77.2364 32.1004H81.7569C82.5822 32.1208 83.3876 31.8446 84.0273 31.3218C84.5252 30.8688 84.8046 30.2231 84.7944 29.5494C84.8223 28.7753 84.5124 28.0273 83.9455 27.5004C83.2243 26.9671 82.3322 26.7191 81.4398 26.8037H77.2364V32.1004ZM74.0762 34.9178V16.6509H86.5944V19.6219H77.2671V24.0478H81.358C83.0455 24.0478 84.8762 24.0478 86.2978 25.2157C87.513 26.2797 88.2071 27.8199 88.2 29.4367C88.2641 30.9844 87.6472 32.4824 86.5125 33.5347C85.1902 34.5689 83.5326 35.0762 81.8591 34.9588L74.0762 34.9178Z" fill="#0B3D5C"/>
<path d="M97.875 20.7284C97.7319 20.1761 97.6259 19.6148 97.558 19.0482C97.4966 19.5195 97.3943 20.2879 97.2921 20.6772L94.7864 29.2011H100.401L97.875 20.7284ZM102.16 34.8768L101.27 32.0082H93.9171L93.0784 34.8768H89.8671L95.6864 16.6509H99.4807L105.484 34.8768H102.16Z" fill="#0B3D5C"/>
<path d="M108.706 16.6509H111.866V24.0376H119.966V16.6509H123.126V34.8973H119.966V26.8652H111.866V34.8973H108.706V16.6509Z" fill="#0B3D5C"/>
<path d="M137.209 16.6611H141.116L133.036 25.1543L141.77 34.9383H137.812L129.907 26.5374V34.9383H126.747V16.6611H129.907V24.1708L137.209 16.6611Z" fill="#0B3D5C"/>
<path d="M81.2352 51.443C82.0746 51.4925 82.899 51.205 83.5261 50.6439C84.6359 49.3906 84.662 47.5121 83.5875 46.2283C82.958 45.6613 82.1322 45.3635 81.2864 45.3984H78.0136V51.443H81.2352ZM74.8125 42.581H81.3886C83.086 42.4849 84.7565 43.0378 86.0625 44.128C88.2605 46.5898 88.2605 50.3131 86.0625 52.7749C84.8167 53.8425 83.1963 54.3664 81.5625 54.2297H77.9727V60.848H74.7716L74.8125 42.581Z" fill="#A7153D"/>
<path d="M94.367 47.0172C92.663 49.9308 92.663 53.5392 94.367 56.4529C95.2314 57.5932 96.5785 58.263 98.0079 58.263C99.4373 58.263 100.784 57.5932 101.649 56.4529C103.353 53.5392 103.353 49.9308 101.649 47.0172C100.784 45.8768 99.4373 45.2071 98.0079 45.2071C96.5785 45.2071 95.2314 45.8768 94.367 47.0172ZM103.919 44.8247C107.013 48.9103 107.013 54.5598 103.919 58.6453C102.376 60.2578 100.243 61.1695 98.013 61.1695C95.7832 61.1695 93.6499 60.2578 92.1068 58.6453C89.0127 54.5598 89.0127 48.9103 92.1068 44.8247C93.6499 43.2122 95.7832 42.3005 98.013 42.3005C100.243 42.3005 102.376 43.2122 103.919 44.8247Z" fill="#A7153D"/>
<path d="M157.694 42.6836L149.165 55.3055V42.6836H146.015V60.8378H149.165L157.694 48.134V60.8378H160.844V42.6836H157.694Z" fill="#A7153D"/>
<path d="M172.258 45.3985C171.041 45.3985 168.044 44.917 168.044 48.2774C168.044 49.64 168.535 51.4636 172.37 51.4636H176.799V45.3985H172.258ZM168.167 60.8378H164.383L169.251 53.8507C166.526 53.5341 164.536 51.1201 164.741 48.3798C164.741 46.0952 165.702 42.6528 170.877 42.6528H179.908V60.8378H176.768V54.199H172.677L168.167 60.8378Z" fill="#A7153D"/>
<path d="M121.009 55.4182C120.851 55.7792 120.656 56.1225 120.426 56.4427C119.562 57.5831 118.215 58.2528 116.785 58.2528C115.356 58.2528 114.009 57.5831 113.144 56.4427C111.44 53.529 111.44 49.9206 113.144 47.007C114.009 45.8666 115.356 45.1969 116.785 45.1969C118.215 45.1969 119.562 45.8666 120.426 47.007C120.785 47.5145 121.065 48.0742 121.254 48.6667H124.65C124.322 47.2422 123.652 45.9196 122.697 44.8145C121.151 43.208 119.018 42.3021 116.791 42.3059C114.564 42.3098 112.434 43.2231 110.894 44.835C107.8 48.9206 107.8 54.5701 110.894 58.6556C112.437 60.2681 114.571 61.1798 116.801 61.1798C119.03 61.1798 121.164 60.2681 122.707 58.6556C123.519 57.7164 124.125 56.617 124.486 55.4284L121.009 55.4182Z" fill="#A7153D"/>
<path d="M139.439 55.4181C139.277 55.7771 139.082 56.1201 138.856 56.4427C137.989 57.5832 136.641 58.2528 135.21 58.2528C133.779 58.2528 132.43 57.5832 131.564 56.4427C129.873 53.5255 129.873 49.9241 131.564 47.007C132.43 45.8664 133.779 45.1968 135.21 45.1968C136.641 45.1968 137.989 45.8664 138.856 47.007C139.211 47.5152 139.487 48.0749 139.674 48.6667H143.08C142.748 47.2416 142.074 45.9192 141.116 44.8145C139.57 43.2047 137.435 42.2967 135.205 42.3005C132.975 42.3044 130.844 43.2198 129.303 44.835C126.209 48.9206 126.209 54.57 129.303 58.6556C130.847 60.2681 132.98 61.1798 135.21 61.1798C137.44 61.1798 139.573 60.2681 141.116 58.6556C141.932 57.719 142.538 56.6188 142.895 55.4284L139.439 55.4181Z" fill="#A7153D"/>
<path d="M60.2795 36.639C60.2755 36.3363 60.2447 36.0346 60.1874 35.7374V35.6145C59.3999 29.7953 54.1022 24.0683 49.4284 21.8861C46.6363 20.2367 43.1897 19.6015 40.1318 19.0482C37.4931 18.5667 35.0181 18.1057 33.2693 17.0812C33.1056 16.9685 32.9011 16.8558 32.7068 16.7431C32.5124 16.6304 32.3386 16.5382 32.1852 16.4357C31.1178 15.636 30.1374 14.726 29.2602 13.7208C28.763 13.1263 28.3469 12.4683 28.0227 11.764L27.7772 11.2927V36.9054H30.5284V18.7511C31.0082 19.1967 31.5406 19.5821 32.1136 19.8986C33.6374 20.8001 36.2863 21.2919 39.0886 21.8246C41.9719 22.2474 44.7987 22.9931 47.5159 24.0478C53.509 26.7628 57.2215 33.1659 57.5999 36.7312C57.5999 36.8746 57.5999 37.0283 57.5999 37.1615C57.5999 37.2947 57.5999 37.4074 57.5999 37.4996V41.28H32.7579V54.0556H32.8295C33.5961 54.0571 34.3618 54.0023 35.1204 53.8917H35.3454V43.7798H60.392V41.198C60.392 39.8047 60.392 38.0733 60.2795 36.6697" fill="#AF4F56"/>
<path d="M27.9205 42.038C25.5173 42.1215 23.124 42.3887 20.7614 42.8371C19.3809 43.1072 18.0154 43.4491 16.6705 43.8616C16.0278 44.0518 15.3962 44.2776 14.7784 44.5378C14.5432 43.9026 14.3591 43.2879 14.1648 42.6425L14.0932 42.3761C13.875 41.4168 13.7145 40.4451 13.6125 39.4665H27.9307L27.9205 42.038ZM27.9205 55.2644H27.7568C27.2557 55.1619 26.7341 55.0595 26.2023 54.9263C25.0197 54.6244 23.8766 54.1843 22.7966 53.6149C22.0836 53.2556 21.3998 52.8412 20.7512 52.3753C19.1466 51.274 17.7596 49.8846 16.6603 48.2773C16.3943 47.8982 16.2 47.5806 16.0057 47.2528L16.3637 47.1196L16.6296 47.0274C17.8159 46.6381 19.2273 46.2692 20.7205 45.9414C23.0819 45.4801 25.4754 45.2026 27.8796 45.1115L27.9205 55.2644ZM16.6705 53.0412C15.7621 52.7122 14.8741 52.329 14.0114 51.8938L13.6534 51.7094C12.9171 51.3405 12.1603 50.9615 11.4443 50.5312C11.356 50.4913 11.2734 50.4396 11.1989 50.3775C11.2777 50.2839 11.3495 50.1846 11.4137 50.0804L11.5875 49.8345C12.01 49.4034 12.4801 49.0219 12.9887 48.6973L13.1523 48.6051L13.3057 48.5129C13.408 48.6666 13.5103 48.8305 13.6023 48.9944L13.9193 49.4964C14.7085 50.6486 15.6021 51.7255 16.5887 52.7134C16.7216 52.8671 16.8443 53.0105 16.9773 53.1437C16.8783 53.1004 16.7756 53.0661 16.6705 53.0412ZM9.34775 47.8265C9.15344 48.0724 8.95912 48.3182 8.7648 48.6051C8.35571 48.2568 7.93639 47.888 7.56821 47.5191C5.18417 45.414 3.60133 42.5469 3.08866 39.405H10.5648C10.6749 40.9219 10.9457 42.4227 11.3728 43.8821C11.5287 44.5225 11.7445 45.1468 12.0171 45.7467L11.7307 45.9311C11.6238 45.9923 11.5213 46.0607 11.4239 46.136H11.3523C10.625 46.601 9.95843 47.1551 9.36821 47.7855L9.34775 47.8265ZM3.62048 34.385C4.03749 33.1909 4.62298 32.0627 5.35912 31.0348C6.02462 30.1254 6.76346 29.2722 7.56821 28.4838C7.74207 28.3096 7.90571 28.156 8.06934 28.0125L8.49889 27.613C9.30442 28.5915 10.2906 29.4055 11.4034 30.0103L11.5262 30.1025C11.6489 30.1845 11.8023 30.2869 11.9557 30.3689C11.732 30.9218 11.5374 31.486 11.3728 32.0593L11.3114 32.2847C11.1784 32.7458 11.0353 33.2273 10.9432 33.6985C10.7796 34.7231 10.6262 35.6451 10.5648 36.5877H3.08866C3.19831 35.8387 3.37633 35.1014 3.62048 34.385ZM11.0966 25.7381L11.4853 25.4923C12.2421 25.0312 13.0603 24.6112 13.858 24.2116L14.0318 24.1297C14.7171 23.7916 15.3921 23.515 16.0773 23.2281L16.6705 22.9925L16.875 22.9207L16.5989 23.1974C15.5937 24.1933 14.6956 25.2921 13.9193 26.4758C13.7864 26.6704 13.6637 26.8856 13.5409 27.0905L13.2034 27.6335C12.5825 27.2949 12.0025 26.8858 11.475 26.4143C11.2823 26.2313 11.1012 26.0362 10.933 25.8303L11.0762 25.7381H11.0966ZM59.3182 45.8594H37.35V48.4719H52.3841C51.8069 49.0065 51.1953 49.5028 50.5534 49.9575C44.5988 53.6121 37.7365 55.5118 30.7534 55.4386V39.4358H55.9637V36.6389H13.5818C13.6436 35.8814 13.7529 35.1286 13.9091 34.385C13.9091 34.1084 14.0216 33.8317 14.0728 33.6166C14.2262 32.9181 14.4348 32.233 14.6966 31.5676L15.0853 31.6905C15.5864 31.8647 16.108 32.0388 16.65 32.2028C17.988 32.6174 19.3556 32.9291 20.7409 33.1351L21.1193 33.1863C22.2924 33.415 23.4772 33.5792 24.6682 33.6781C25.6909 33.7703 26.7648 33.8112 27.9205 33.8625V30.8402C27 30.8402 26.0284 30.748 24.9443 30.6455C23.8603 30.5431 22.6534 30.4201 21.5591 30.205C21.2902 30.1938 21.0229 30.1561 20.7614 30.0923C19.3724 29.8621 18.0042 29.5195 16.6705 29.0678C16.5005 29.0309 16.3331 28.9829 16.1693 28.9243L15.9955 28.8731C16.1501 28.5837 16.3208 28.3032 16.5068 28.033C16.5784 27.9203 16.65 27.8179 16.7114 27.7052C17.8355 26.1186 19.2185 24.7332 20.8023 23.6072C22.8405 22.1287 25.1929 21.1433 27.675 20.7283H27.9307V17.6548H27.8693H27.6443C27.558 17.6704 27.4727 17.6909 27.3887 17.7163C25.1578 17.8775 22.9403 18.1889 20.7512 18.6486C19.3628 18.958 17.9962 19.3584 16.6603 19.8472C15.7476 20.1352 14.8528 20.4773 13.9807 20.8717C13.2443 21.1996 12.4262 21.5889 11.4239 22.1216C10.0508 22.8572 8.73764 23.6999 7.49662 24.6419C5.74351 25.9748 4.19619 27.5593 2.90457 29.3444C2.00941 30.6051 1.29347 31.9843 0.777299 33.4424C0.276368 34.9033 0.017268 36.4364 0.0102539 37.981V38.0425C0.0102539 42.9293 2.66934 47.6933 7.49662 51.4532L8.36594 52.0679C8.64207 52.2626 8.91821 52.4675 9.19435 52.6519C9.71594 52.9797 10.2887 53.3178 10.8409 53.6764L11.4239 54.0043C12.1296 54.3833 12.8864 54.7214 13.6228 55.0288L13.9807 55.1824C14.758 55.5205 15.5864 55.8484 16.6603 56.2069C18.0103 56.6475 19.3807 57.0368 20.7512 57.3544C23.9697 58.0545 27.2554 58.3981 30.5489 58.3789C38.7307 58.3789 46.4523 56.2582 52.1898 52.3958C53.2827 51.6872 54.3095 50.8814 55.258 49.9882C56.636 48.6902 57.9469 47.3224 59.1853 45.8902L59.2773 45.7775L59.3182 45.8594Z" fill="#0B3D5C"/>
</svg>
