<svg width="180" height="72" viewBox="0 0 180 72" fill="none" xmlns="http://www.w3.org/2000/svg">
<path d="M52.4661 31.7534C50.9624 31.7534 49.677 33.0704 49.677 34.635V37.1162H45.8205V31.7534H45.6898C44.1861 31.7534 42.8998 33.0704 42.8998 34.635V44.459H43.0305C44.5351 44.459 45.8205 43.1428 45.8205 41.5774V39.181H49.677V44.459H52.596V31.7534H52.4661Z" fill="black"/>
<path d="M168.497 31.7534C166.993 31.7534 165.708 33.0704 165.708 34.635V37.1162H161.85V31.7534H161.72C160.216 31.7534 158.931 33.0704 158.931 34.635V44.459H159.062C160.564 44.459 161.85 43.1428 161.85 41.5774V39.181H165.708V44.459H168.626V31.7534H168.497Z" fill="black"/>
<path fill-rule="evenodd" clip-rule="evenodd" d="M30.0488 34.5678C30.3536 30.1446 32.5468 27.1039 35.9345 27.1039C39.7272 27.1039 41.9492 30.8244 41.9492 35.6329C41.9492 40.7747 39.8622 44.7294 35.9345 44.7294C32.5102 44.7294 30.3086 40.9869 30.0488 36.8359H26.6008V41.3051C26.6008 43.0438 25.2627 44.4448 23.6172 44.459H23.5943V30.439C23.5943 28.7374 24.9018 27.354 26.5787 27.354H26.6008V34.5678H30.0488ZM32.9679 35.6099C32.9679 39.173 34.148 42.2129 35.9345 42.2129C37.8389 42.2129 38.9639 39.6433 38.9639 35.6099C38.9639 32.0486 37.6546 29.5541 35.9345 29.5541C34.2126 29.5541 32.9679 32.0486 32.9679 35.6099Z" fill="black"/>
<path d="M62.9939 31.7534C62.037 31.7534 61.1795 32.0725 60.4943 33.2057L56.6863 40.103V31.7534H53.7672V44.459H55.0034C55.9459 44.459 56.8043 44.1416 57.5031 43.0067L61.525 35.8742V41.5774C61.525 43.1428 62.8097 44.459 64.3125 44.459H64.4449V31.7534H62.9939Z" fill="black"/>
<path d="M121.701 31.7534C120.745 31.7534 119.884 32.0725 119.202 33.2057L115.394 40.103V31.7534H112.474V44.459H113.712C114.653 44.459 115.512 44.1416 116.209 43.0067L120.231 35.8742V41.5774C120.231 43.1428 121.517 44.459 123.021 44.459H123.15V31.7534H121.701Z" fill="black"/>
<path d="M74.8124 38.2635C74.1366 36.6751 73.1262 35.541 71.665 34.9514L76.9232 27.3531H73.6467L68.5668 34.8825V27.3867H68.5022C66.8236 27.3867 65.5602 28.6561 65.5602 30.3806V44.458H65.6256C67.3034 44.458 68.5668 43.1878 68.5668 41.4642V36.2428C70.0704 36.2428 71.2048 37.2876 71.7482 38.6471L73.9082 44.458H77.2161L74.8124 38.2635Z" fill="black"/>
<path d="M132.561 31.7534H123.781V34.1824H126.734V44.459H126.864C128.388 44.459 129.608 43.164 129.608 41.5995V34.1824H132.561V31.7534Z" fill="black"/>
<path fill-rule="evenodd" clip-rule="evenodd" d="M109.478 31.7534L110.48 42.0547L111.566 42.5072L111.463 45.5966C111.463 46.7978 110.529 47.7702 109.375 47.7702H109.22L109.112 44.459H101.152L101.113 45.5966C101.113 46.7978 100.178 47.7702 99.0267 47.7702H98.8705L98.6752 42.5072C101.038 41.0355 101.656 37.5846 102.048 34.8392L102.484 31.7534H109.478ZM104.619 35.907C104.313 37.9692 103.668 40.6528 102.316 42.1448H107.778L107.081 34.0693H104.815L104.619 35.907Z" fill="black"/>
<path d="M178.11 40.3973C177.463 39.0643 176.695 38.0461 175.539 37.5475L179.863 31.7543H176.718L172.533 37.4795V31.7543H169.611V44.4581H169.742C171.246 44.4581 172.533 43.1428 172.533 41.5774V38.6843C173.751 38.6843 174.624 39.6265 175.104 40.7376L176.859 44.4581H180L178.11 40.3973Z" fill="black"/>
<path fill-rule="evenodd" clip-rule="evenodd" d="M140.418 33.9968C140.832 33.8836 141.596 33.7563 142.314 33.7563C146.215 33.7563 148.408 36.1562 148.408 39.0696C148.408 42.4701 145.767 44.4581 142.228 44.4581H137.499V27.354H146.792V27.3991C146.792 28.8399 145.671 30.0067 144.287 30.0067H140.418V33.9968ZM140.417 42.3631L142.183 42.3667C144.166 42.3667 145.357 40.7482 145.357 39.0033C145.357 37.3822 144.121 36.0722 142.008 36.0722C141.442 36.0722 140.788 36.2022 140.417 36.2932V42.3631Z" fill="black"/>
<path fill-rule="evenodd" clip-rule="evenodd" d="M93.4657 31.7534C96.6463 31.7534 98.4123 33.9552 98.4123 37.7659V38.2432L91.1563 39.2862C91.3949 41.3511 92.3984 42.4392 94.2282 42.4392C96.2548 42.4392 97.2788 41.7594 98.0192 41.2149V43.7324C97.2788 44.1407 95.905 44.6402 93.9454 44.6402C90.393 44.6402 88.2797 42.144 88.2797 38.153C88.2797 34.2726 90.2401 31.7534 93.4657 31.7534ZM93.3779 33.7289C91.7443 33.7731 90.9819 34.9753 90.9819 37.2213L95.8852 36.5186C95.7977 34.0003 94.294 33.7289 93.4883 33.7289H93.3779Z" fill="black"/>
<path fill-rule="evenodd" clip-rule="evenodd" d="M153.681 44.6402C150.457 44.6402 148.779 43.2347 148.779 40.8516C148.779 37.5846 151.831 36.8139 155.469 36.4506V35.6108C155.469 34.0003 154.511 33.569 153.116 33.569C151.961 33.569 150.807 34.0233 149.522 34.7269V32.7071C150.284 32.3226 151.721 31.7534 153.595 31.7534C156.058 31.7534 158.107 33.0474 158.107 36.2234V44.299C157.3 44.4581 155.424 44.6402 154.293 44.6402H153.681ZM153.856 43.0288C154.466 43.0288 155.185 42.9846 155.468 42.9156V37.8569C152.919 38.1062 151.372 38.6507 151.372 40.7606C151.372 42.326 152.287 43.0288 153.856 43.0288Z" fill="black"/>
<path fill-rule="evenodd" clip-rule="evenodd" d="M77.8752 32.6391C78.9425 32.0486 80.3171 31.7543 81.971 31.7543C85.436 31.7543 87.5281 34.1364 87.5281 38.0611C87.5281 42.0087 85.4573 44.6402 82.2988 44.6402C81.6671 44.6402 81.0999 44.5491 80.6856 44.4369V46.6361C80.6856 48.2024 79.4655 49.4947 77.9626 49.4947H77.8098V32.685L77.8752 32.6391ZM80.6858 42.5311C80.9686 42.6434 81.2963 42.6893 81.7106 42.6893C84.1296 42.6893 84.6305 40.1931 84.6305 38.1521C84.6305 35.1123 83.8027 33.683 81.9059 33.683C81.4262 33.683 81.056 33.751 80.6858 33.8872V42.5311Z" fill="black"/>
<path fill-rule="evenodd" clip-rule="evenodd" d="M10.5775 30.2136C10.5835 30.2047 10.5894 30.195 10.5962 30.1853C10.7533 29.9475 10.6879 29.7707 10.5826 29.6761C10.5164 29.6151 8.94057 28.6216 8.94057 28.6216C8.82679 28.5421 8.75123 28.4068 8.75123 28.2521C8.75123 28.009 8.89132 27.8252 9.20887 27.7341C10.2218 27.4442 13.7836 27.2922 14.9943 27.2922C15.4138 27.2922 16.1372 27.2904 16.7867 27.3099L16.7578 27.2807C14.9833 25.7029 12.679 24.75 10.1624 24.75C4.54925 24.75 0 29.4852 0 35.3289C0 37.8976 0.878774 40.2515 2.34085 42.0847C3.61783 40.1728 6.76953 35.4623 7.45981 34.4997C8.25538 33.3904 10.0707 30.9242 10.3772 30.5061L10.3925 30.4867L10.5775 30.2136Z" fill="#E2001A"/>
<path fill-rule="evenodd" clip-rule="evenodd" d="M3.96582 43.7147C5.68091 45.0901 7.82902 45.9077 10.1622 45.9077C15.7745 45.9077 20.3237 41.1716 20.3237 35.3288C20.3237 33.5601 19.9069 31.8939 19.1707 30.4292L19.1716 30.4301C19.5214 30.0792 19.9247 29.5241 19.6598 28.8276C19.5766 28.6207 19.1818 28.1505 19.0799 28.0364L19.0943 28.0771C19.3414 28.8541 18.8523 29.3411 18.5008 29.6717C18.3081 29.8547 15.7278 32.3871 12.7018 35.1415C10.034 37.5696 7.05129 40.0402 5.32261 41.3873C2.89176 43.2807 2.41884 43.5565 2.41884 43.5565C2.35431 43.5927 2.24733 43.6236 2.16921 43.6236C2.02063 43.6236 1.89157 43.5547 1.81006 43.4433L1.80752 43.4407C1.79478 43.4734 1.79053 43.5017 1.80157 43.5211C2.06223 43.9613 2.4944 44.4696 2.74657 44.4696C2.82469 44.4696 2.93252 44.4386 2.99704 44.4033C2.99704 44.4033 3.18808 44.2928 3.96582 43.7147Z" fill="#E2001A"/>
<path fill-rule="evenodd" clip-rule="evenodd" d="M10.5923 30.1853C10.7485 29.9484 10.6831 29.7716 10.5787 29.6762C10.5125 29.616 8.93664 28.6216 8.93664 28.6216C8.82286 28.5421 8.7473 28.4077 8.7473 28.253C8.7473 28.0091 8.88739 27.8261 9.20494 27.7342C10.217 27.4442 13.7797 27.2931 14.9896 27.2931C15.561 27.2931 16.6928 27.2887 17.4374 27.3399C18.2729 27.3965 18.9071 27.5768 19.0642 27.9976C19.3741 28.8223 18.8621 29.3314 18.4987 29.6744C18.3068 29.8565 15.7265 32.3889 12.7005 35.1432C10.0328 37.5714 7.04918 40.0411 5.32135 41.3891C2.8905 43.2825 2.41758 43.5582 2.41758 43.5582C2.35305 43.5945 2.24607 43.6254 2.16711 43.6254C1.91579 43.6254 1.71796 43.4248 1.71796 43.1614C1.71796 43.0624 1.74682 42.9687 1.79777 42.8935C1.79777 42.8935 6.5839 35.7143 7.45588 34.4997C8.32701 33.287 10.4174 30.4461 10.4174 30.4461C10.4174 30.4461 10.442 30.4142 10.5923 30.1853Z" fill="#FEFEFE"/>
</svg>
