<svg width="320" height="424" viewBox="0 0 320 424" fill="none" xmlns="http://www.w3.org/2000/svg">
<path fill-rule="evenodd" clip-rule="evenodd" d="M64.5859 424H246.499C238.321 411.993 224.541 404.109 208.918 404.109C198.985 404.109 189.797 407.296 182.32 412.704C177.356 411.333 172.127 410.6 166.727 410.6C154.718 410.6 143.555 414.224 134.273 420.437C124.99 414.224 113.827 410.6 101.818 410.6C87.6689 410.6 74.6946 415.63 64.5859 424Z" fill="#8FBCFF"/>
<path fill-rule="evenodd" clip-rule="evenodd" d="M111.967 424H0.0351562C11.7039 405.381 32.4066 393 56.0009 393C79.5952 393 100.298 405.381 111.967 424Z" fill="#A4C8FF"/>
<path fill-rule="evenodd" clip-rule="evenodd" d="M319.967 424H208.035C219.704 405.381 240.407 393 264.001 393C287.595 393 308.298 405.381 319.967 424Z" fill="#A4C8FF"/>
<path d="M123.797 303L101.699 423.799L214.261 423.729L194.385 303H123.797Z" fill="#BDD7FF"/>
<path d="M294.376 288.13C294.041 293.641 288.499 297.062 283.174 295.6C268.695 291.622 253.655 289 238.199 287.877C242.979 269.122 245.518 249.488 245.518 229.268C245.518 211.848 243.634 194.862 240.055 178.5C272.949 200.514 294.606 238.008 294.606 280.56C294.606 283.102 294.529 285.626 294.376 288.13Z" fill="#0B3C85"/>
<path d="M24.2293 288.13C24.5647 293.641 30.1068 297.062 35.4314 295.6C49.9106 291.622 64.9505 289 80.4062 287.877C75.6261 269.122 73.0872 249.488 73.0872 229.268C73.0872 211.848 74.9716 194.862 78.5502 178.5C45.6569 200.514 23.9996 238.008 23.9996 280.56C23.9996 283.102 24.0769 285.626 24.2293 288.13Z" fill="#0B3C85"/>
<path d="M35.0816 295.689C33.9849 294.339 33.2761 292.633 33.1612 290.68C33.0045 288.016 32.925 285.33 32.925 282.625C32.925 242.659 50.2828 206.886 77.6251 182.936C77.9197 181.452 78.2283 179.974 78.5505 178.5C45.6573 200.514 24 238.008 24 280.56C24 283.102 24.0773 285.626 24.2297 288.13C24.5578 293.521 29.8669 296.911 35.0816 295.689Z" fill="#052453"/>
<path d="M99.8633 307.913H215.888L209.207 324.615C207.852 328.003 204.57 330.225 200.921 330.225H114.831C111.181 330.225 107.9 328.003 106.544 324.615L99.8633 307.913Z" fill="#0B3C85"/>
<path d="M104.326 307.913H99.8633L106.544 324.615C107.9 328.003 111.181 330.225 114.831 330.225H119.293C115.644 330.225 112.362 328.003 111.007 324.615L104.326 307.913Z" fill="#052453"/>
<path d="M222.345 312.375C228.175 312.375 233.463 307.921 235.387 300.974C242.991 273.506 247.125 243.982 247.125 213.238C247.125 128.026 215.365 52.1767 165.972 3.52147C161.206 -1.17383 154.544 -1.17382 149.778 3.52148C100.385 52.1767 68.625 128.026 68.625 213.238C68.625 243.982 72.7589 273.506 80.3635 300.974C82.2866 307.921 87.575 312.375 93.4046 312.375H222.345Z" fill="#2C76E6"/>
<path d="M149.778 3.52148C153.421 -0.0676771 158.172 -0.913233 162.338 0.984813C161.054 1.56977 159.826 2.41533 158.703 3.52148C109.31 52.1767 77.55 128.026 77.55 213.239C77.55 243.982 81.6839 273.506 89.2885 300.974C91.2116 307.921 96.5 312.375 102.33 312.375H93.4046C87.575 312.375 82.2866 307.921 80.3635 300.974C72.7589 273.506 68.625 243.982 68.625 213.239C68.625 128.026 100.385 52.1767 149.778 3.52148Z" fill="#145AC4"/>
<circle cx="158.992" cy="170.691" r="50.2031" fill="#052453"/>
<circle cx="157.877" cy="169.575" r="49.0875" fill="#0B3C85"/>
<circle cx="157.876" cy="169.575" r="35.7" fill="#63A1FF"/>
<path d="M157.877 205.275C177.593 205.275 193.577 189.292 193.577 169.575C193.577 157.38 187.462 146.613 178.131 140.173C174.571 138.982 170.762 138.338 166.802 138.338C147.085 138.338 131.102 154.321 131.102 174.038C131.102 186.233 137.217 197 146.548 203.44C150.107 204.63 153.917 205.275 157.877 205.275Z" fill="#A4C8FF"/>
<path d="M199.354 44.625C189.464 29.4228 178.264 15.63 165.972 3.52147C161.205 -1.17383 154.544 -1.17382 149.777 3.52148C137.485 15.63 126.285 29.4228 116.395 44.625H199.354Z" fill="#0B3C85"/>
<path d="M157.874 3.73345e-05C157.875 -9.19915e-05 157.874 0.000166648 157.874 3.73345e-05C147.415 10.3031 138.389 24.3741 129.837 37.7066C128.339 40.043 126.855 42.3567 125.38 44.6234H199.353C199.353 44.624 199.353 44.6229 199.353 44.6234L116.395 44.625C126.285 29.4229 137.485 15.6301 149.777 3.52151C152.16 1.17381 155.017 -1.69213e-05 157.874 3.73345e-05Z" fill="#052453"/>
</svg>
