<svg width="26" height="24" viewBox="0 0 26 24" fill="none" xmlns="http://www.w3.org/2000/svg">
<path d="M12.043 3.68907C12.6525 2.70553 14.1465 2.70553 14.7559 3.68907L16.6423 6.73346C16.8638 7.09101 17.2311 7.34512 17.6566 7.4353L21.2797 8.20316C22.4502 8.45124 22.9118 9.80444 22.118 10.6604L19.6608 13.3098C19.3722 13.6209 19.2319 14.0321 19.2733 14.4454L19.6261 17.9643C19.7401 19.1012 18.5314 19.9375 17.4314 19.483L14.0263 18.076C13.6264 17.9108 13.1725 17.9108 12.7726 18.076L9.36756 19.483C8.2675 19.9375 7.05885 19.1012 7.17282 17.9643L7.52561 14.4454C7.56705 14.0321 7.42677 13.6209 7.13819 13.3098L4.68097 10.6604C3.88711 9.80444 4.34878 8.45124 5.51928 8.20316L9.14235 7.4353C9.56787 7.34512 9.93511 7.09101 10.1567 6.73346L12.043 3.68907Z" fill="#FFD600"/>
</svg>
